<svg height="60" viewBox="0 0 257 60" width="257" xmlns="http://www.w3.org/2000/svg"><g fill="#fff" fill-rule="evenodd"><path d="m28.6956522 28.6956522h-9.1304348v-6.5217392h-19.5652174v-9.0036231h19.5652174v-4.03985512h-19.5652174v-9.13043478h28.6956522z"/><path d="m28.6956522 28.6956522h-9.1304348v-6.5217392h-19.09106177v-9.0036231h19.09106177v-4.03985512h-19.5652174v-9.13043478h28.6956522z" transform="matrix(-1 0 0 -1 28.695652 60)"/><g transform="translate(31.304348 31.304348)"><path d="m0 28.6956522v-28.6956522h10.4347826v28.6956522z"/><path d="m9.13043478 0h19.29619562l-11.1215731 14.3478261 11.3905949 14.3478261h-19.56521742z"/></g><g transform="matrix(0 1 -1 0 60 0)"><path d="m0 28.6956522v-28.6956522h10.4347826v28.6956522z"/><path d="m9.13043478 0h19.29619562l-11.1215731 14.3478261 11.3905949 14.3478261h-19.56521742z"/></g><path d="m78.692 23.883c-.0720004-.0780004-.108-.1769994-.108-.297v-11.754c0-.1320007.0359996-.2369996.108-.315s.1679994-.117.288-.117h.846c.1320007 0 .2369996.0389996.315.117s.117.1829993.117.315v4.482l4.878-4.626c.192001-.192001.4259986-.288.702-.288h.9c.0960005 0 .1799996.0359996.252.108s.108.1559995.108.252-.0299997.1739997-.09.234l-5.616 5.436 5.994 5.958c.0600003.0720004.09.1559995.09.252s-.0359996.1799996-.108.252-.1559995.108-.252.108h-.936c-.1680008 0-.2999995-.0269997-.396-.081s-.1979995-.1229996-.306-.207l-5.22-5.094v4.968c0 .1200006-.0419996.2189996-.126.297s-.1859994.117-.306.117h-.846c-.1200006 0-.2159996-.0389996-.288-.117zm11.196-.846c-.7320037-.7620038-1.1339996-1.8029934-1.206-3.123l-.018-.612.018-.594c.0720004-1.2960065.4739963-2.3279962 1.206-3.096s1.7099939-1.152 2.934-1.152c1.3200066 0 2.3429964.4199958 3.069 1.26s1.089 1.9799928 1.089 3.42v.324c0 .1200006-.0389996.2189996-.117.297s-.1769994.117-.297.117h-6.246v.162c.0360002.7800039.2759978 1.4459972.72 1.998s1.0319963.828 1.764.828c.5640028 0 1.0229982-.1109989 1.377-.333s.6209991-.4529988.801-.693c.1080005-.1440007.1919997-.2309999.252-.261s.1619993-.045.306-.045h.792c.1080005 0 .2009996.0299997.279.09s.117.1379995.117.234c0 .2640013-.1619984.5819981-.486.954s-.782997.6929987-1.377.963-1.2749962.405-2.043.405c-1.2240061 0-2.2019963-.3809962-2.934-1.143zm5.454-4.383v-.054c0-.8400042-.2279977-1.5239974-.684-2.052s-1.0679962-.792-1.836-.792c-.7800039 0-1.3919978.2639974-1.836.792s-.666 1.2119958-.666 2.052v.054zm6.426 4.896-3.348-8.352c-.0120001-.0360002-.018-.0959996-.018-.18 0-.1080005.0359996-.1979996.108-.27s.1559995-.108.252-.108h.828c.192001 0 .3359995.095999.432.288l2.772 7.182 2.772-7.182c.024-.0720004.075-.1379997.153-.198s.170999-.09.279-.09h.828c.096 0 .18.0359996.252.108s.108.1619995.108.27l-.036.18-3.33 8.352c-.132001.3000015-.353998.45-.666.45h-.72c-.312002 0-.533999-.1499985-.666-.45zm7.317-10.791c-.078-.0780004-.117-.1769994-.117-.297v-.936c0-.1200006.039-.2219996.117-.306s.176999-.126.297-.126h1.062c.120001 0 .222.0419996.306.126s.126.1859994.126.306v.936c0 .1200006-.042.2189996-.126.297s-.185999.117-.306.117h-1.062c-.120001 0-.219-.0389996-.297-.117zm.144 11.124c-.078-.0780004-.117-.1769994-.117-.297v-8.532c0-.1200006.039-.2189996.117-.297s.176999-.117.297-.117h.792c.120001 0 .219.0389996.297.117s.117.1769994.117.297v8.532c0 .1200006-.039.2189996-.117.297s-.176999.117-.297.117h-.792c-.120001 0-.219-.0389996-.297-.117zm4.32 0c-.078-.0780004-.117-.1769994-.117-.297v-8.532c0-.1200006.039-.2189996.117-.297s.176999-.117.297-.117h.774c.132001 0 .234.0359996.306.108s.108.1739993.108.306v.792c.360002-.4440022.776998-.7859988 1.251-1.026s1.064996-.36 1.773-.36c1.152006 0 2.045997.3689963 2.682 1.107s.954 1.7129939.954 2.925v5.094c0 .1200006-.039.2189996-.117.297s-.176999.117-.297.117h-.828c-.120001 0-.219-.0389996-.297-.117s-.117-.1769994-.117-.297v-4.986c0-.8640043-.209998-1.5359976-.63-2.016s-1.019996-.72-1.8-.72c-.768004 0-1.379998.2429976-1.836.729s-.684 1.1549957-.684 2.007v4.986c0 .1200006-.039.2189996-.117.297s-.176999.117-.297.117h-.828c-.120001 0-.219-.0389996-.297-.117zm15.525 0c-.072-.0780004-.108-.1769994-.108-.297v-11.754c0-.1320007.036-.2369996.108-.315s.167999-.117.288-.117h.846c.132001 0 .237.0389996.315.117s.117.1829993.117.315v4.482l4.878-4.626c.192001-.192001.425999-.288.702-.288h.9c.096 0 .18.0359996.252.108s.108.1559995.108.252-.03.1739997-.09.234l-5.616 5.436 5.994 5.958c.06.0720004.09.1559995.09.252s-.036.1799996-.108.252-.156.108-.252.108h-.936c-.168001 0-.3-.0269997-.396-.081s-.197999-.1229996-.306-.207l-5.22-5.094v4.968c0 .1200006-.042.2189996-.126.297s-.185999.117-.306.117h-.846c-.120001 0-.216-.0389996-.288-.117zm12.528.009c-.084-.0720004-.15-.1859992-.198-.342l-2.556-8.352-.036-.18c0-.1080005.036-.1979996.108-.27s.161999-.108.27-.108h.738c.120001 0 .219.0329997.297.099s.123.1289997.135.189l2.034 6.876 2.16-6.786c.024-.0960005.078-.1829996.162-.261s.197999-.117.342-.117h.576c.144001 0 .258.0389996.342.117s.138.1649995.162.261l2.16 6.786 2.034-6.876c.012-.0600003.057-.1229997.135-.189s.176999-.099.297-.099h.738c.108001 0 .198.0359996.27.108s.108.1619995.108.27l-.036.18-2.556 8.352c-.048.1560008-.114.2699996-.198.342s-.209999.108-.378.108h-.648c-.312002 0-.516-.1499985-.612-.45l-2.106-6.516-2.106 6.516c-.096.3000015-.299998.45-.612.45h-.648c-.168001 0-.294-.0359996-.378-.108zm13.041-.828c-.714004-.7440037-1.095-1.7339938-1.143-2.97l-.018-.774.018-.774c.048-1.2360062.434996-2.2259963 1.161-2.97s1.736994-1.116 3.033-1.116 2.306996.3719963 3.033 1.116 1.113 1.7339938 1.161 2.97c.024.2640013.036.5219987.036.774s-.012.5099987-.036.774c-.048 1.2360062-.428996 2.2259963-1.143 2.97s-1.730993 1.116-3.051 1.116-2.336996-.3719963-3.051-1.116zm4.878-.963c.450002-.4860024.693-1.1849954.729-2.097.012-.1200006.018-.3479983.018-.684s-.006-.5639994-.018-.684c-.036-.9120046-.278998-1.6109976-.729-2.097s-1.058996-.729-1.827-.729-1.376998.2429976-1.827.729-.693 1.1849954-.729 2.097l-.018.684.018.684c.036.9120046.278998 1.6109976.729 2.097s1.058996.729 1.827.729 1.376998-.2429976 1.827-.729zm4.788 1.782c-.078-.0780004-.117-.1769994-.117-.297v-8.532c0-.1200006.039-.2189996.117-.297s.176999-.117.297-.117h.774c.132001 0 .234.0359996.306.108s.108.1739993.108.306v.792c.360002-.4440022.776998-.7859988 1.251-1.026s1.064996-.36 1.773-.36c1.152006 0 2.045997.3689963 2.682 1.107s.954 1.7129939.954 2.925v5.094c0 .1200006-.039.2189996-.117.297s-.176999.117-.297.117h-.828c-.120001 0-.219-.0389996-.297-.117s-.117-.1769994-.117-.297v-4.986c0-.8640043-.209998-1.5359976-.63-2.016s-1.019996-.72-1.8-.72c-.768004 0-1.379998.2429976-1.836.729s-.684 1.1549957-.684 2.007v4.986c0 .1200006-.039.2189996-.117.297s-.176999.117-.297.117h-.828c-.120001 0-.219-.0389996-.297-.117zm-85.509 22.009c-.0720004-.0720004-.108-.1679994-.108-.288v-11.79c0-.1200006.0359996-.2189996.108-.297s.1679994-.117.288-.117h4.374c1.2840064 0 2.2949963.3209968 3.033.963s1.107 1.562994 1.107 2.763-.3689963 2.1209968-1.107 2.763-1.7489936.963-3.033.963h-3.636v4.752c0 .1200006-.0389996.2159996-.117.288s-.1769994.108-.297.108h-.324c-.1200006 0-.2159996-.0359996-.288-.108zm4.572-6.12c1.0320052 0 1.8059974-.2249978 2.322-.675.5160026-.4500023.774-1.1069957.774-1.971s-.2579974-1.5209978-.774-1.971c-.5160026-.4500023-1.2899948-.675-2.322-.675h-3.546v5.292zm6.498 6.12c-.0720004-.0720004-.108-.1679994-.108-.288v-8.55c0-.1200006.0359996-.2189996.108-.297s.1679994-.117.288-.117h.288c.1200006 0 .2189996.0389996.297.117s.117.1769994.117.297v.828c.4320022-.8280041 1.247994-1.242 2.448-1.242h.666c.1200006 0 .2159996.0359996.288.108s.108.1679994.108.288v.252c0 .1200006-.0359996.2159996-.108.288s-.1679994.108-.288.108h-.774c-.7200036 0-1.2899979.2099979-1.71.63s-.63.9899964-.63 1.71v5.58c0 .1200006-.0389996.2159996-.117.288s-.1769994.108-.297.108h-.288c-.1200006 0-.2159996-.0359996-.288-.108zm6.813-.855c-.6900034-.7620038-1.0529998-1.7489939-1.089-2.961l-.018-.756.018-.756c.0360002-1.2120061.3989966-2.1989962 1.089-2.961s1.6589938-1.143 2.907-1.143c1.248006 0 2.216997.3809962 2.907 1.143s1.053 1.7489939 1.089 2.961c.012.1200006.018.3719981.018.756s-.006.6359994-.018.756c-.036 1.2120061-.398997 2.1989962-1.089 2.961s-1.658994 1.143-2.907 1.143c-1.2480062 0-2.2169966-.3809962-2.907-1.143zm4.968-.72c.522003-.5460027.801-1.322995.837-2.331.012-.1200006.018-.3419984.018-.666s-.006-.5459994-.018-.666c-.036-1.008005-.314997-1.7849973-.837-2.331s-1.208996-.819-2.061-.819c-.8520043 0-1.5389974.2729973-2.061.819s-.8009998 1.322995-.837 2.331l-.018.666.018.666c.0360002 1.008005.3149974 1.7849973.837 2.331s1.2089957.819 2.061.819c.852004 0 1.538997-.2729973 2.061-.819zm4.932.594c-.618003-.8460042-.945-1.8749939-.981-3.087l-.018-.504.018-.504c.036-1.2120061.362997-2.2409958.981-3.087s1.574994-1.269 2.871-1.269c1.308007 0 2.315996.4739953 3.024 1.422v-4.266c0-.1200006.036-.2159996.108-.288s.167999-.108.288-.108h.306c.120001 0 .216.0359996.288.108s.108.1679994.108.288v11.988c0 .1200006-.036.2159996-.108.288s-.167999.108-.288.108h-.306c-.120001 0-.216-.0359996-.288-.108s-.108-.1679994-.108-.288v-.846c-.696003.9480047-1.703993 1.422-3.024 1.422-1.296006 0-2.252997-.4229958-2.871-1.269zm5.121-.72c.480002-.6300031.738-1.3709957.774-2.223.012-.1200006.018-.3539983.018-.702s-.006-.5819994-.018-.702c-.012-.5160026-.125999-1.0049977-.342-1.467s-.539998-.8429985-.972-1.143-.965997-.45-1.602-.45c-.972005 0-1.682998.3089969-2.133.927s-.693 1.4129951-.729 2.385l-.018.504c0 1.1160056.215998 2.0309964.648 2.745s1.175995 1.071 2.232 1.071c.948005 0 1.661998-.3149968 2.142-.945zm5.634.873c-.612003-.7440037-.918-1.715994-.918-2.916v-5.112c0-.1200006.036-.2159996.108-.288s.167999-.108.288-.108h.306c.120001 0 .216.0359996.288.108s.108.1679994.108.288v5.022c0 2.0520103.893991 3.078 2.682 3.078.864004 0 1.550997-.2729973 2.061-.819s.765-1.2989952.765-2.259v-5.022c0-.1200006.036-.2159996.108-.288s.167999-.108.288-.108h.306c.120001 0 .216.0359996.288.108s.108.1679994.108.288v8.568c0 .1200006-.036.2159996-.108.288s-.167999.108-.288.108h-.306c-.120001 0-.216-.0359996-.288-.108s-.108-.1679994-.108-.288v-.846c-.360002.4680023-.770998.8219988-1.233 1.062s-1.052996.36-1.773.36c-1.176006 0-2.069997-.3719963-2.682-1.116zm10.35.027c-.684003-.7260036-1.044-1.7429935-1.08-3.051l-.018-.72.018-.72c.036-1.3080065.395997-2.3249964 1.08-3.051s1.649994-1.089 2.898-1.089c.792004 0 1.466997.1409986 2.025.423s.974999.6419978 1.251 1.08.426.8909977.45 1.359c.012.1080005-.024.2009996-.108.279s-.179999.117-.288.117h-.252c-.120001 0-.207-.0269997-.261-.081s-.111-.1529993-.171-.297c-.240001-.6600033-.575998-1.1309986-1.008-1.413s-.977997-.423-1.638-.423c-.864004 0-1.550997.2609974-2.061.783s-.783 1.3229946-.819 2.403l-.018.63.018.63c.036 1.0800054.308997 1.8809974.819 2.403s1.196996.783 2.061.783c.660003 0 1.205998-.1409986 1.638-.423s.767999-.7529967 1.008-1.413c.06-.1440007.117-.2429997.171-.297s.140999-.081.261-.081h.252c.108001 0 .204.0389996.288.117s.12.1709995.108.279c-.024.4680023-.173999.9209978-.45 1.359s-.692997.7979986-1.251 1.08-1.232996.423-2.025.423c-1.248006 0-2.213997-.3629964-2.898-1.089zm10.26.108c-.372002-.5340027-.558-1.2689953-.558-2.205v-5.31h-1.404c-.120001 0-.216-.0359996-.288-.108s-.108-.1679994-.108-.288v-.252c0-.1200006.036-.2159996.108-.288s.167999-.108.288-.108h1.404v-3.024c0-.1200006.036-.2159996.108-.288s.167999-.108.288-.108h.306c.120001 0 .216.0359996.288.108s.108.1679994.108.288v3.024h2.232c.120001 0 .216.0359996.288.108s.108.1679994.108.288v.252c0 .1200006-.036.2159996-.108.288s-.167999.108-.288.108h-2.232v5.238c0 .6720034.110999 1.1789983.333 1.521s.590997.513 1.107.513h.972c.120001 0 .216.0359996.288.108s.108.1679994.108.288v.252c0 .1200006-.036.2159996-.108.288s-.167999.108-.288.108h-1.062c-.888004 0-1.517998-.2669973-1.89-.801zm11.394.531c-.600003-.3000015-1.067998-.7169973-1.404-1.251s-.504-1.1309967-.504-1.791c0-.7680038.227998-1.4129974.684-1.935s1.091996-1.0229976 1.908-1.503c-.624003-.6600033-1.058999-1.2179977-1.305-1.674s-.369-.9479974-.369-1.476c0-.5160026.134999-.9959978.405-1.44s.644998-.7949987 1.125-1.053 1.013997-.387 1.602-.387c.600003 0 1.136998.1259987 1.611.378s.845999.5969978 1.116 1.035.405.9269973.405 1.467c0 .5280026-.125999.992998-.378 1.395s-.572998.7469986-.963 1.035-.884997.5999983-1.485.936l3.438 3.366c.528003-.8880044.857999-1.8959944.99-3.024.012-.1200006.051-.2159996.117-.288s.158999-.108.279-.108h.342c.120001 0 .216.0359996.288.108s.108.1679994.108.288c-.048 1.3440067-.479996 2.6219939-1.296 3.834l1.764 1.728c.108001.1080005.162.2039996.162.288 0 .2280011-.119999.342-.36.342h-.396c-.216001 0-.383999-.0599994-.504-.18l-1.332-1.332c-1.068005 1.1280056-2.399992 1.692-3.996 1.692-.768004 0-1.451997-.1499985-2.052-.45zm3.528-8.289c.408002-.3660018.612-.8129974.612-1.341 0-.5400027-.188998-.9749983-.567-1.305-.378002-.3300016-.854997-.495-1.431-.495-.552003 0-1.022998.1649984-1.413.495-.390002.3300017-.585.7649973-.585 1.305 0 .3720019.104999.7379982.315 1.098s.614997.8519969 1.215 1.476c.828004-.4560023 1.445998-.8669982 1.854-1.233zm.189 7.299c.546003-.2400012 1.046998-.5939977 1.503-1.062l-3.78-3.654c-.720004.408002-1.268998.812998-1.647 1.215s-.567.8849972-.567 1.449c0 .7440037.275997 1.3319978.828 1.764s1.217996.648 1.998.648c.564003 0 1.118997-.1199988 1.665-.36zm12.834.189c-.798004-.8340042-1.197-2.1029915-1.197-3.807v-7.308c0-.1200006.036-.2189996.108-.297s.167999-.117.288-.117h.324c.132001 0 .234.0359996.306.108s.108.1739993.108.306v7.362c0 1.3200066.305997 2.3039968.918 2.952s1.475994.972 2.592.972c1.104006 0 1.961997-.3239968 2.574-.972s.918-1.6319934.918-2.952v-7.362c0-.1320007.039-.2339996.117-.306s.176999-.108.297-.108h.324c.120001 0 .216.0389996.288.117s.108.1769994.108.297v7.308c0 1.7160086-.395996 2.9879959-1.188 3.816s-1.937992 1.242-3.438 1.242c-1.500007 0-2.648996-.4169958-3.447-1.251zm11.457.963c-.072-.0720004-.108-.1679994-.108-.288v-11.808c0-.1200006.036-.2159996.108-.288s.167999-.108.288-.108h.342c.120001 0 .216.0359996.288.108s.108.1679994.108.288v11.808c0 .1200006-.036.2159996-.108.288s-.167999.108-.288.108h-.342c-.120001 0-.216-.0359996-.288-.108zm9.162 0c-.072-.0720004-.108-.1679994-.108-.288v-11.79c0-.1200006.036-.2189996.108-.297s.167999-.117.288-.117h3.834c1.248006 0 2.234996.1829982 2.961.549s1.241998.9029965 1.548 1.611.471 1.6079945.495 2.7c.012.3600018.018.8339971.018 1.422 0 .600003-.006 1.0799982-.018 1.44-.024 1.1520058-.188998 2.0789965-.495 2.781s-.812996 1.2269983-1.521 1.575-1.673994.522-2.898.522h-3.924c-.120001 0-.216-.0359996-.288-.108zm4.122-.972c.960005 0 1.715997-.1289987 2.268-.387s.950999-.6659972 1.197-1.224.381-1.3169952.405-2.277c.012-.3600018.018-.8099973.018-1.35 0-.5280026-.006-.9719982-.018-1.332-.024-1.3440067-.338997-2.3249969-.945-2.943s-1.610993-.927-3.015-.927h-3.006v10.44zm8.442.135c-.696003-.7500037-1.092-1.7549937-1.188-3.015l-.018-.72.018-.72c.096-1.2480062.488997-2.2499962 1.179-3.006s1.610994-1.134 2.763-1.134c1.248006 0 2.222996.4139959 2.925 1.242s1.053 1.9619928 1.053 3.402v.27c0 .1200006-.039.2159996-.117.288s-.176999.108-.297.108h-6.408v.18c.024.5640028.152999 1.0889976.387 1.575s.560998.8759985.981 1.17.911997.441 1.476.441c.660003 0 1.196998-.1289987 1.611-.387s.710999-.5189987.891-.783c.108001-.1440007.189-.2339998.243-.27s.152999-.054.297-.054h.288c.108001 0 .198.0299997.27.09s.108.1379995.108.234c0 .2520013-.158998.5549982-.477.909s-.758997.6599987-1.323.918-1.199996.387-1.908.387c-1.140006 0-2.057997-.3749963-2.754-1.125zm5.634-4.293v-.072c0-.9240046-.260997-1.685997-.783-2.286s-1.220996-.9-2.097-.9-1.568997.299997-2.079.9-.765 1.3619954-.765 2.286v.072zm4.473 5.022c-.534003-.2640013-.935999-.5639983-1.206-.9s-.405-.605999-.405-.81c0-.1080005.042-.1949997.126-.261s.174-.099.27-.099h.27c.084 0 .153.0149999.207.045s.117.0929995.189.189c.264001.3720019.584998.662999.963.873.378002.2100011.896997.315 1.557.315.744004 0 1.343998-.1409986 1.8-.423s.684-.6869974.684-1.215c0-.3240016-.092999-.587999-.279-.792s-.485998-.3809992-.9-.531c-.414002-.1500007-1.028996-.320999-1.845-.513-1.068005-.2400012-1.796998-.5699979-2.187-.99s-.585-.9539968-.585-1.602c0-.4440022.122999-.863998.369-1.26s.611998-.7199987 1.098-.972 1.070997-.378 1.755-.378c.720004 0 1.328998.1229988 1.827.369s.869999.5309984 1.116.855.369.587999.369.792c0 .1080005-.039.1949997-.117.261s-.170999.099-.279.099h-.27c-.168001 0-.3-.0779992-.396-.234-.240001-.3600018-.512998-.6329991-.819-.819s-.782997-.279-1.431-.279c-.696003 0-1.223998.1439986-1.584.432s-.54.6659977-.54 1.134c0 .2880014.071999.527999.216.72s.413998.3689992.81.531.971996.3269992 1.728.495c1.116006.2520013 1.901998.5879979 2.358 1.008s.684.9779965.684 1.674c0 .4920025-.137999.941998-.414 1.35s-.683997.7319988-1.224.972-1.187996.36-1.944.36c-.780004 0-1.436997-.1319987-1.971-.396zm7.767-11.178c-.072-.0720004-.108-.1679994-.108-.288v-.684c0-.1200006.036-.2189996.108-.297s.167999-.117.288-.117h.684c.120001 0 .219.0389996.297.117s.117.1769994.117.297v.684c0 .1200006-.039.2159996-.117.288s-.176999.108-.297.108h-.684c-.120001 0-.216-.0359996-.288-.108zm.198 11.286c-.072-.0720004-.108-.1679994-.108-.288v-8.568c0-.1200006.036-.2159996.108-.288s.167999-.108.288-.108h.306c.120001 0 .216.0359996.288.108s.108.1679994.108.288v8.568c0 .1200006-.036.2159996-.108.288s-.167999.108-.288.108h-.306c-.120001 0-.216-.0359996-.288-.108zm5.148 3.582c-.564003-.3240016-.956999-.6929979-1.179-1.107s-.333-.7769984-.333-1.089c0-.1080005.039-.1979996.117-.27s.170999-.108.279-.108h.252c.108001 0 .195.0269997.261.081s.123.1529993.171.297c.372002 1.0920055 1.235993 1.638 2.592 1.638 1.032005 0 1.793998-.2129979 2.286-.639s.738-1.1849945.738-2.277v-1.242c-.696003.9480047-1.703993 1.422-3.024 1.422-1.296006 0-2.252997-.4229958-2.871-1.269s-.945-1.8749939-.981-3.087l-.018-.504.018-.504c.036-1.2120061.362997-2.2409958.981-3.087s1.574994-1.269 2.871-1.269c1.308007 0 2.315996.4739953 3.024 1.422v-.828c0-.1200006.036-.2189996.108-.297s.167999-.117.288-.117h.288c.120001 0 .219.0389996.297.117s.117.1769994.117.297v8.766c0 1.2840064-.299997 2.2949963-.9 3.033s-1.643993 1.107-3.132 1.107c-.936005 0-1.685997-.1619984-2.25-.486zm4.41-5.283c.480002-.6300031.738-1.3709957.774-2.223.012-.1200006.018-.3359984.018-.648s-.006-.5279994-.018-.648c-.036-.8520043-.293998-1.5929969-.774-2.223-.480002-.6300032-1.193995-.945-2.142-.945-.972005 0-1.682998.3089969-2.133.927s-.693 1.4129951-.729 2.385l-.018.504.018.504c.036.9720049.278998 1.7669969.729 2.385s1.160995.927 2.133.927c.948005 0 1.661998-.3149968 2.142-.945zm4.914 1.701c-.072-.0720004-.108-.1679994-.108-.288v-8.568c0-.1200006.036-.2159996.108-.288s.167999-.108.288-.108h.306c.120001 0 .216.0359996.288.108s.108.1679994.108.288v.846c.360002-.4680023.770998-.8219988 1.233-1.062s1.058996-.36 1.791-.36c1.176006 0 2.081997.3749963 2.718 1.125s.954 1.7189941.954 2.907v5.112c0 .1200006-.036.2159996-.108.288s-.167999.108-.288.108h-.306c-.120001 0-.216-.0359996-.288-.108s-.108-.1679994-.108-.288v-5.022c0-.9720049-.236998-1.7279973-.711-2.268s-1.154996-.81-2.043-.81c-.864004 0-1.553997.2729973-2.07.819s-.774 1.2989952-.774 2.259v5.022c0 .1200006-.036.2159996-.108.288s-.167999.108-.288.108h-.306c-.120001 0-.216-.0359996-.288-.108zm11.232-.837c-.696003-.7500037-1.092-1.7549937-1.188-3.015l-.018-.72.018-.72c.096-1.2480062.488997-2.2499962 1.179-3.006s1.610994-1.134 2.763-1.134c1.248006 0 2.222996.4139959 2.925 1.242s1.053 1.9619928 1.053 3.402v.27c0 .1200006-.039.2159996-.117.288s-.176999.108-.297.108h-6.408v.18c.024.5640028.152999 1.0889976.387 1.575s.560998.8759985.981 1.17.911997.441 1.476.441c.660003 0 1.196998-.1289987 1.611-.387s.710999-.5189987.891-.783c.108001-.1440007.189-.2339998.243-.27s.152999-.054.297-.054h.288c.108001 0 .198.0299997.27.09s.108.1379995.108.234c0 .2520013-.158998.5549982-.477.909s-.758997.6599987-1.323.918-1.199996.387-1.908.387c-1.140006 0-2.057997-.3749963-2.754-1.125zm5.634-4.293v-.072c0-.9240046-.260997-1.685997-.783-2.286s-1.220996-.9-2.097-.9-1.568997.299997-2.079.9-.765 1.3619954-.765 2.286v.072zm3.582 5.13c-.072-.0720004-.108-.1679994-.108-.288v-8.55c0-.1200006.036-.2189996.108-.297s.167999-.117.288-.117h.288c.120001 0 .219.0389996.297.117s.117.1769994.117.297v.828c.432002-.8280041 1.247994-1.242 2.448-1.242h.666c.120001 0 .216.0359996.288.108s.108.1679994.108.288v.252c0 .1200006-.036.2159996-.108.288s-.167999.108-.288.108h-.774c-.720004 0-1.289998.2099979-1.71.63s-.63.9899964-.63 1.71v5.58c0 .1200006-.039.2159996-.117.288s-.176999.108-.297.108h-.288c-.120001 0-.216-.0359996-.288-.108z"/></g></svg>