<?xml version="1.0" encoding="UTF-8"?>
<svg width="60px" height="60px" viewBox="0 0 60 60" version="1.1" xmlns="http://www.w3.org/2000/svg" xmlns:xlink="http://www.w3.org/1999/xlink">
    <!-- Generator: Sketch 50.2 (55047) - http://www.bohemiancoding.com/sketch -->
    <title>logo-borderless</title>
    <desc>Created with Sketch.</desc>
    <defs></defs>
    <g id="homepage" stroke="none" stroke-width="1" fill="none" fill-rule="evenodd">
        <g id="Desktop-HD-Copy-11" transform="translate(-98.000000, -36.000000)" fill="#FFFFFF">
            <g id="nav" transform="translate(98.000000, 36.000000)">
                <g id="kk-full-logo">
                    <g id="logo-borderless">
                        <g id="Group-2-Copy-7">
                            <g id="Group">
                                <g id="z">
                                    <polygon id="ㅋ-copy-5" points="28.6956522 28.6956522 19.5652174 28.6956522 19.5652174 22.173913 0 22.173913 0 13.1702899 19.5652174 13.1702899 19.5652174 9.13043478 0 9.13043478 0 0 28.6956522 0"></polygon>
                                </g>
                                <g id="z2" transform="translate(0.000000, 31.304348)">
                                    <polygon id="ㅋ-copy-8" transform="translate(14.347826, 14.347826) scale(-1, -1) translate(-14.347826, -14.347826) " points="28.6956522 28.6956522 19.5652174 28.6956522 19.5652174 22.173913 0.474155626 22.173913 0.474155626 13.1702899 19.5652174 13.1702899 19.5652174 9.13043478 0 9.13043478 0 0 28.6956522 0"></polygon>
                                </g>
                                <g id="Group-3" transform="translate(31.304348, 31.304348)">
                                    <polygon id="K-Copy-2" points="0 28.6956522 0 0 10.4347826 0 10.4347826 28.6956522"></polygon>
                                    <polygon id="K-Copy-2" points="9.13043478 0 28.4266304 0 17.3050573 14.3478261 28.6956522 28.6956522 9.13043478 28.6956522"></polygon>
                                </g>
                                <g id="Group-3-Copy" transform="translate(45.500000, 14.500000) rotate(90.000000) translate(-45.500000, -14.500000) translate(31.000000, 0.000000)">
                                    <polygon id="K-Copy-2" points="0 28.6956522 0 0 10.4347826 0 10.4347826 28.6956522"></polygon>
                                    <polygon id="K-Copy-2" points="9.13043478 0 28.4266304 0 17.3050573 14.3478261 28.6956522 28.6956522 9.13043478 28.6956522"></polygon>
                                </g>
                            </g>
                        </g>
                    </g>
                </g>
            </g>
        </g>
    </g>
</svg>