<svg height="464" viewBox="0 0 486 464" width="486" xmlns="http://www.w3.org/2000/svg"><g fill="#2f343b" transform="translate(1 1)"><g stroke="#2f343b"><path d="m168.315852 331.60425c.904385.780757 3.07502 1.75477 4.341269 1.949683 1.447456.195465 4.335778.581426 5.782685.776339 1.628113 0 4.713566.202092 6.160472.397005 1.447456 0 4.156219.385961 5.422468.776891 1.266249.194913 3.616443.984505 4.702035 1.569796 1.266249.390378 3.436883 1.364392 4.341269 1.949683 1.085592.585844 3.076667 1.945818 3.981052 2.726575.904385.780756 2.536891 2.543809 3.26007 3.52003.723728.780757 2.159652 2.34227 2.882831 3.123027.904935.780757 2.716451 1.956309 3.620836 2.346687.904385.390379 2.536891 1.364392 3.260619 1.949683.904385.585844 2.536891 2.147357 3.26007 3.123579.904385.780757 2.34031 2.526692 2.882831 3.502362.723728.976222 1.458438 3.528866 1.458987 5.090379.180658 1.3666.898345 3.700036 1.440867 4.676257.723727.976222 2.176674 2.739275 2.900402 3.520031l1.801632 1.173344 1.801632-.794009c1.085592-.390378 3.076667-.977878 3.981053-1.172791 1.085592-.195465 3.076667-.581426 3.981052-.776892 1.085592-.390378 3.076667-.776339 3.981052-.776339.904386-.195465 2.716451-.581426 3.620836-.776339 1.085592-.195466 3.076667-.598544 3.981053-.794009 1.085591-.390378 3.076667-.960761 3.981052-1.155674 1.085592-.195466 3.076667-.598544 3.981052-.794009 1.085592-.390378 3.076667-.776339 3.981053-.776339.904385-.195465 2.698879-.581426 3.603264-.77634 1.085592-.195465 3.076667-.581426 3.981052-.776891 1.085592-.390378 3.076667-.977879 3.981053-1.173344 1.085591-.194913 3.077216-.598543 3.981052-.793456.904934-.195465 2.71645-.581426 3.620836-.776892 1.085592-.194913 3.076667-.580874 3.981052-.776339.904385-.390378 2.89601-.776339 3.981052-.776339 1.26625-.195466 3.257325.392587 3.981053 1.173343.904385.780757 2.71645 2.34227 3.620836 3.123027 1.085591.585843 3.076667 1.945818 3.981052 2.726574.904385.585292 2.51932 1.945266 3.243048 2.726023.904385.780756 2.71645 2.34227 3.620835 3.123026 1.085592.585844 3.076667 1.962935 3.981053 2.743692.904385.585844 2.71645 1.945818 3.620835 2.726575 1.085043.585291 2.897108 1.945265 3.620836 2.726022.904385.780757 2.715902 2.342822 3.620287 3.123027.904385.585843 2.699428 1.962935 3.603813 2.743691.904385.780757 2.716451 2.342822 3.620836 3.123579.904385.585291 2.715901 1.945266 3.620287 2.726022 1.085591.585844 3.076667 1.962935 3.981052 2.743692.904385.585291 2.71645 1.945266 3.620836 2.726022.904385.585844 2.536891 1.945818 3.26007 2.726575.723728.780757.168577 1.754218-1.098222 1.949683-1.085042.195465-3.435236.782965-4.701485 1.173344-1.266249.390378-3.796002 1.179969-5.062251 1.570348-1.26625.194913-3.795453.782965-5.062252 1.173343-1.2657.194913-3.975012.782966-5.421918 1.173344-1.26625.194913-3.813025.765296-5.079274 1.155674-1.266249.195466-3.796002.782966-5.062251 1.173896-1.26625.390378-3.796003 1.179418-5.062252 1.569796-1.266249.195465-3.796002.782965-5.062251 1.173344-1.266249.195465-3.975012.782965-5.422468 1.173343-1.266249.195465-3.795453.765848-5.061702 1.156227-1.266249.195465-3.992584.782965-5.440039 1.173343-1.26625.195466-3.795453.782966-5.062252 1.173344-1.085042.390378-3.435236 1.17997-4.701485 1.570348-1.266249.194913-3.975012.782965-5.422468 1.173344-1.266249.194913-3.796002.765296-5.062251 1.156226-1.26625.194913-3.813025.782413-5.079274 1.172792-1.085043.195465-3.435236.782965-4.701486 1.173896-1.266249.194913-3.796002.782413-5.062251 1.172791-1.266249.195465-3.975561.782965-5.422468 1.173896-1.266249.194913-3.796002.782965-5.062251 1.172791-1.085043.390931-3.614796 1.162853-5.062251 1.553231-1.2657.195466-3.795453.781309-5.061702 1.173344-1.085592.392035-3.452808 1.181626-4.719058 1.568139-1.266249.198778-3.975561.78407-5.422467 1.176105-1.26625.193256-3.796003.767504-5.062252 1.154018-1.266249.198778-3.975012.784069-5.422468 1.176104-1.266249.193257-3.795453.78407-5.062251 1.170583-1.2657.198778-3.812475.78407-5.079274 1.176104-1.2657.193257-3.795453.78407-5.061702 1.170583-1.266249.392035-3.796002 1.165061-5.062251 1.557096-1.266249.193257-3.975561.778548-5.422468 1.170583-1.266249.193257-3.796002.78407-5.062251 1.170583-1.266249.198778-3.795453.78407-5.062251 1.176104-1.085043.392035-3.452259.778548-4.718508.778548-1.26625 0-2.702174-1.562617-2.882831-3.125235 0-1.562618-.17956-4.682331-.360766-6.244949 0-1.755874-.17901-5.063323-.360217-6.627045 0-1.562065-.17901-4.685092-.360216-6.246605 0-1.561514-.196582-4.68454-.377788-6.246606 0-1.756426-.179011-5.081544-.360217-6.643057 0-1.561514-.717688-3.894949-1.441416-4.676258-.542521-.97567-2.354037-1.765261-3.620286-1.569796-1.085592.194913-3.615345.580874-5.062251.77634-1.447456 0-4.156219-.385961-5.422468-.77634-1.26625-.390378-3.616443-1.162852-4.702035-1.553231-1.085043-.585291-3.614796-1.374882-5.062251-1.570348-1.446907-.194913-4.531811-.396452-6.159924-.396452-1.447456 0-4.335778 0-5.783233 0-1.446907-.195465-4.53236-.379887-6.159924-.379887-1.447456-.194913-4.335778-.580874-5.783233-.776339-1.265701-.195466-4.154572-.397005-5.782685-.397005-1.446907-.194913-4.3528-.580874-5.799707-.776339-1.266249-.195465-3.975561-.598543-5.4224677-.793456-1.2662492-.195466-3.9755612-.581427-5.4224679-.776892-1.2662492-.390378-3.796002-.977878-5.0622512-1.173344-1.2662492-.390378-3.9755613-.977878-5.4224679-1.173343-1.4469066-.194913-4.1732411-.580874-5.4394903-.77634-1.2662492-.390378-3.7960021-.977878-5.0622513-1.173343-1.2662492-.390379-3.796002-1.162301-5.0622512-1.552679-1.2662492-.39093-3.795453-1.17997-5.0622513-1.570348-1.0850427-.390378-3.4352364-1.162852-4.7014856-1.553231-1.2662492-.390378-3.6164428-1.179417-4.7014855-1.569796-1.0855918-.585843-3.4357855-1.559856-4.7020347-1.950235-1.0855918-.390378-3.4357855-1.1623-4.7020347-1.552678-1.0850427-.585844-3.2556771-1.559857-4.3412689-1.950236-1.0850427-.585291-3.2556772-1.760843-4.341269-2.346687-1.0855918-.585291-3.2562263-1.760844-4.3412689-2.346687-.9043853-.585292-2.8960097-1.760844-3.9810524-2.346688-.9043853-.585291-2.8960097-1.743726-3.9810524-2.329018-.9043852-.780756-2.8960096-2.157848-3.9810523-2.743691-.9043853-.585844-3.0755689-1.559305-4.341269-1.949683-.7863265-.42406-2.0404952-.65376-3.1403639-.724989-.3668059 1.041377-.0417324 2.07392.9949885 3.416777.7846792.117611 1.6110907.367188 2.1453754.828243 1.0850427.585291 3.076118 1.743726 3.9810524 2.32957 1.0850427.585291 3.076118 1.962383 3.9810523 2.743139 1.0850427.585844 3.076118 1.761396 3.9810524 2.346688 1.0850427.585843 3.0590955 1.743726 3.9634808 2.32957 1.0855918.585844 3.2562263 1.760844 4.341269 2.346687 1.2662492.390379 3.4374328 1.364392 4.341818 1.949683 1.0850427.585844 3.2556772 1.761396 4.341269 2.346688 1.2662492.390378 3.6334653 1.162852 4.7190571 1.55323 1.2662492.390379 3.6164429 1.179418 4.7014856 1.569796 1.2662492.390931 3.796002 1.162853 5.0622512 1.553231s3.6164429 1.17997 4.7014856 1.570348c1.2662492.390378 3.7960021 1.1623 5.0622513 1.552679 1.2662492.390378 3.796002 1.179969 5.0622512 1.570348 1.2662492.195465 3.7960021.782965 5.0622513 1.173343 1.2662492.195466 3.795453.782966 5.0622513 1.173344 1.4469066.195465 4.1732411.782965 5.4394903 1.173344 1.2662492.195465 3.9750121.581426 5.4224678.776339 1.4469067.195465 4.1562187.782965 5.4224679 1.173344 1.2662497.195465 3.9750117.581426 5.4224677.776891 1.446907 0 4.3528.201539 5.799707.396452 1.447456.195466 4.335778.581427 5.782685.77634 1.447455 0 4.335777.184422 5.783233.379887h5.799707c1.447456 0 4.335778.201539 5.783234.397004 1.446906 0 4.335228.201539 5.782684.397005 1.446907.194913 3.993682.967387 5.079274 1.552678 1.085042.390379 3.435236 1.17997 4.701485 1.570348 1.26625.390379 3.796002.977879 5.062252 1.173344 1.446906.194913 3.079412 1.756426 3.260619 3.123027.180657 1.171135.360216 3.706661.360216 5.072709v4.676258c.180658.976222.180658 3.511196 0 5.073262 0 1.366048-.179559 4.307413-.360216 5.864509v6.625941c0 1.562617-.179559 4.687853-.360766 6.25047 0 1.36384.359118 4.102562.720982 5.466401.361864 1.170583 1.43867 1.761396 2.161849 1.176105.723728-.78407 1.261856-2.545466 1.081199-3.522792s-.539776-3.307449-.720433-4.67681c-.181207-1.557096-.540325-4.682331-.720983-6.244949 0-1.755874 0-5.079887 0-6.642505 0-1.756979-.179559-4.880005-.360216-6.246053 0-1.366601 0-3.902127 0-5.073262l.360216-2.726575.360217 2.726575c.181207 1.171135.719335 3.118609 1.081199 3.899366.542521.585843 1.277781 2.147357 1.458438 3.123579.181206.780756.360217 3.131309.360217 4.693926.181206 1.562618.540324 4.682332.720982 6.244949.180657 1.562618.539776 4.687853.720982 6.244949.180658 1.369361.539776 3.318492.720433 3.903784.180658.585291-.357471 1.943609-1.081199 2.722157-.723178.585291-1.996566 1.965696-2.539636 2.744244-.361864.784069-1.079552 1.755874-1.441416 1.949131-.361864.198778-1.61768-.187735-2.522065-.773027-.904935-.784069-1.06857 1.684093-.377788 2.087171 1.531469.888981 3.717479 1.805569 6.29775 2.622769 1.578144.496945 3.246891.916588 4.873357 1.292058 1.484795-.193257 3.14915-.414121 4.032669-.552162 1.2657-.386513 3.795453-.960761 5.061702-1.154018 1.266249-.392035 3.796002-.795113 5.062251-.795113 1.446907-.193256 4.173241-.579769 5.439491-.773026 1.266249-.392035 3.616442-.982848 4.702034-1.176104 1.266249-.392035 3.795453-.977327 5.061702-1.176105 1.26625-.386513 3.078315-1.159539 3.620836-1.551574.723728-.386514 2.338663-.005522 3.243048.778548 1.085592.585291 3.256226 1.761396 4.341818 2.346687 1.085043.392035 3.435236 1.15954 4.701485 1.551574 1.447456.193257 4.173242.397557 5.44004.397557 1.2657-.193257 3.795453-.57977 5.061702-.778548 1.266249-.386513 3.796002-.977326 5.062251-1.170583s3.796002-.57977 5.062252-.778548c1.266249-.386513 3.795452-.977326 5.061702-1.170583 1.447455-.392035 4.17379-.977326 5.440039-1.176104 1.446907-.193257 4.156219-.57977 5.422468-.773027 1.266249-.392035 3.795453-.795113 5.061702-.795113 1.447456-.193256 4.156768-.579769 5.423017-.778548 1.2657-.386513 3.975012-.977326 5.421919-1.170582 1.447456-.198779 3.814672-.966283 4.719057-1.557096.904385-.778549 3.07502-1.181627 4.341269-.789592 1.266249.193257 3.796002.78407 5.062251 1.170583 1.266249.392035 3.616992 1.36384 4.702035 1.949131 1.085043.392035 3.435236 1.181626 4.701485 1.573661 1.26625.386513 3.616443 1.159539 4.702035 1.551574 1.266249.392035 3.436884 1.56814 4.341269 2.346688.904385.585291 2.716451 1.960174 3.620836 2.744243 1.085042.585292 3.435236 1.557096 4.701485 1.949131 1.26625.193257 3.796002.78407 5.062252 1.176105 1.446906.193256 4.156218.579769 5.422468.773026 1.266249 0 3.616442-.386513 4.702034-.773026 1.085043-.590813 3.435237-1.380405 4.701486-1.573661 1.446906-.392035 3.994231-1.15954 5.079273-1.551575 1.26625-.392035 3.257325-1.568139 3.981053-2.346687.904385-.977326 2.33976-2.926457 2.882831-3.898262.542521-1.170583 1.995468-2.9375 2.899853-3.522791 1.085592-.585292 3.076667-1.94361 3.981053-2.727679.904385-.778548 2.340309-2.539944 2.882831-3.51727.723728-.977327 2.176674-2.926458 2.899853-3.898262.723728-.977326 1.997116-2.943022 2.540186-3.920348.723179-.977327 1.980093-2.920936 2.522065-3.898262.723728-.976222 2.176126-2.923696 2.899854-3.899366.723728-.976222 2.176675-2.739274 2.900402-3.520583.723179-.97567 2.518222-2.335644 3.603265-2.726023 1.266249-.585843 3.616442-1.559304 4.702034-1.949683 1.085043-.585843 3.076667-1.761396 3.981053-2.346687.904385-.780757 2.715901-2.140731 3.620286-2.726574 1.085592-.780757 3.256227-1.955757 4.341818-2.346688 1.085043-.585291 3.255678-1.760843 4.341269-2.346687 1.085592-.585291 3.256227-1.559305 4.341269-1.949683 1.085592-.585844 3.256227-1.559305 4.341818-1.949683 1.2657-.390378 3.795453-1.17997 5.061702-1.570348 1.26625-.390378 3.616443-1.1623 4.702035-1.552679 1.266249-.39093 3.813025-.97843 5.079823-1.173896 1.444161-.390378 4.156768-.977878 5.419722-1.172791 1.268446-.390931 3.799846-.978431 5.062801-1.173896 1.449652-.194913 4.156767-.580874 5.425213-.776339 1.444161-.390379 4.173241-.977879 5.436196-1.173344 1.268445-.390378 3.799846-1.1623 5.0628-1.552679 1.268446-.390378 3.618639-1.179969 4.700387-1.570348 1.08724-.585843 3.256227-1.559304 4.343466-1.949683 1.268445-.390378 3.618639-1.364391 4.700387-1.950235 1.087239-.585291 3.080511-1.760843 3.981053-2.346687 1.087239-.585291 3.256226-1.760844 4.343465-2.346687 1.087239-.585292 3.07502-1.743727 3.981052-2.329018.906033-.780757 2.701625-2.157848 3.602166-2.743692.719335-.617317 1.916397-1.645442 2.866358-2.467611-.620495-.989474-1.09273-1.970113-1.559474-2.950752-.757773.561549-1.521037 1.082789-2.026219 1.518445-.906032.585843-2.893813 1.945818-3.981052 2.726574-.906033.585844-2.893813 1.760844-3.981052 2.346688-.906033.585843-2.87734 1.761396-3.964579 2.346687-1.08724.585844-3.256227 1.760844-4.343466 2.346687-.900541.585844-2.893813 1.743727-3.975561 2.32957-1.087239.390379-3.437433 1.381509-4.705879 1.966801-1.081748.390378-3.431941 1.162852-4.700387 1.55323-1.087239.390379-3.629621 1.179418-5.079274 1.570348-1.268445.194913-3.794354.765296-5.0628 1.155675-1.262954.195465-3.794355.782965-5.0628 1.173343-1.262955.195466-3.975562.782966-5.419723 1.173344-1.268445.195465-3.799845.783518-5.0628 1.173344-1.266798.195465-3.993133.782965-5.440589 1.173343-1.2657.195466-3.795453.782966-5.061702 1.173344-1.085592.390378-3.435785 1.162853-4.702034 1.553231-1.26625.194913-3.795453.984504-5.062252 1.569796-1.085042.39093-3.255677 1.364391-4.341269 1.950235-.904385.585291-2.89546 1.760844-3.981052 2.346687-1.085043.585292-3.256226 1.743727-4.341269 2.329018-.904385.585844-2.89546 1.761396-3.981052 2.346688-.904386.585843-2.895461 1.761395-3.981053 2.346687-1.085591.585843-3.256226 1.761396-4.341269 2.346687-1.085591.390931-3.076667 1.548814-3.981052 2.32957-.904385.780757-2.51932 2.543809-3.243048 3.520031-.723727.780757-2.176674 2.543809-2.900402 3.520031-.542521.976222-1.815909 3.125236-2.539637 4.295266-.542521.977327-1.798887 2.926457-2.522065 3.903784-.723728.778548-1.997116 2.727679-2.540186 3.898261-.542522 1.170583-1.978446 3.119714-2.882831 3.898262-.723179.778548-2.535244 2.158952-3.620287 2.744244-.904385.585291-2.71645 2.147909-3.620836 3.119714-.723728.784069-1.997115 2.7332-2.539637 3.903783-.542521.977326-2.354586 2.534422-3.620835 3.119714-1.085043.392034-3.435237.596334-4.701486.397556-1.085592-.193257-3.076667-1.187148-3.981052-1.965696-.723728-.778548-2.518222-2.142387-3.603814-2.727679-1.085042-.585291-3.435236-1.358317-4.701485-1.551574-1.266249-.392035-3.992584-.977326-5.44004-1.176104-1.446906-.193257-3.7971-.193257-4.701485 0l-1.441416.380991 2.161849 1.176105c1.085592.386513 3.435786 1.176104 4.702035 1.568139 1.446906.193256 3.814672.966283 4.719057 1.551574 1.085043.585292 3.435236 1.562618 4.701485 1.949131 1.26625.392035 2.702174 1.568139 2.882831 2.352209.181207.585291-2.348546.966283-5.062251.773026-2.713156-.392034-6.695855-.773026-7.962105-.773026-1.2657-.198778-3.615893-.971805-4.701485-1.557096-.904385-.778548-2.716451-2.341166-3.620836-3.119714-.723179-.784069-2.714803-1.960174-3.981052-2.346687-1.085043-.392035-3.435237-1.181626-4.701486-1.573661-1.266249-.386513-3.796002-1.15954-5.062251-1.551574-1.085592-.392035-2.161849-1.36384-2.161849-1.949131 0-.585292 1.255816-1.374883 2.522066-1.573661 1.266249-.386513 3.992583-.773026 5.440039-.773026 1.627564 0 4.157317-.590814 5.061702-1.176105s3.254579-1.170583 4.702035-1.170583c1.446906-.193256 4.335778-.193256 5.782684 0 1.628113 0 4.516436.198778 5.782685.397557 1.447455.193256 4.17379.784069 5.440039 1.170583 1.2657.198778 3.615894.966283 4.701486 1.551574 1.266249.392035 3.436883 1.369361 4.341269 1.954652 1.085591.585292 3.256226.98837 4.341269.789592 1.085591-.193257 1.803279-.982848 1.441964-1.56814-.361864-.778548-1.814811-1.954652-2.900402-2.346687-1.085043-.585291-3.435237-1.557096-4.701486-1.949131s-3.975561-.977326-5.422468-1.176104c-1.266249-.193257-4.154571-.37547-5.782684-.37547-1.447456-.198778-4.35335-.397557-5.800256-.397557-1.446907-.198778-4.156219-.397556-5.422468-.397556-1.266249-.193257-3.975561-.193257-5.422468 0s-4.156219.78407-5.422468 1.170583c-1.085592.392035-3.435785 1.181626-4.701485 1.573661-1.26625.386513-3.616992 1.363839-4.702035 1.949131-1.085592.392034-3.632367.773026-5.079274.773026-1.266249 0-3.975561-.182213-5.422468-.37547-1.446906-.198778-4.335777-.397556-5.782684-.397556-1.447456-.193257-4.353349-.193257-5.800256 0-1.446907.193256-4.335778.193256-5.782685 0-1.266249-.193257-2.163496-.982848-1.801632-1.56814.361864-.784069 1.976799-1.755874 3.243048-1.954652 1.446907-.386513 4.173241-.977326 5.43949-1.170583 1.266249-.392035 3.796002-.960761 5.062252-1.15954 1.446906-.386513 3.976659-.590813 5.062251-.392034 1.085042 0 3.255677-.386514 4.341269-.778548 1.085592-.585292 3.435785-1.557097 4.701485-1.949131 1.26625-.392035 3.616443-1.181626 4.702035-1.573661 1.266249-.386513 3.796002-.977326 5.062251-1.170583 1.446907-.392035 3.993682-1.1623 5.079274-1.552679 1.266249-.39093 3.795453-.97843 5.061702-1.173896 1.266249-.390378 3.796002-.977878 5.062251-1.172791 1.447456-.390931 4.156219-.978431 5.422468-1.173896 1.266249-.390378 3.796002-.977878 5.062252-1.172791 1.446906-.390931 4.173241-.978431 5.43949-1.173896 1.266249-.390379 3.796002-.977879 5.062251-1.172792 1.266249-.39093 3.796002-1.162852 5.062251-1.553231 1.26625-.390378 3.795453-.97843 5.062252-1.173343 1.2657-.390379 3.795453-1.162301 5.061702-1.552679 1.266249-.39093 3.796002-.978431 5.062251-1.173896 1.266249-.390378 3.813025-.977878 5.079274-1.172791 1.266249-.390931 3.616443-1.17997 4.702034-1.570348 1.265701-.585844 3.060194-2.147357 3.603265-3.123027.542521-1.171687.918662-3.706661.738004-5.073262 0-1.561513-1.094377-3.711079-2.17942-4.29637-.904385-.585844-3.07502-1.357766-4.341269-1.553231-1.266249-.390378-3.436884-1.565931-4.341818-2.346687-.904385-.780757-2.715901-2.140731-3.620287-2.726023-.364609-.314732-.958198-.741001-1.544648-1.156226-1.375522-.530628-2.063009-1.098802-2.659892-1.75974-.948863-.796217-2.535244-2.007107-3.380325-2.5543-.904386-.780756-2.716451-2.34227-3.620836-3.123026-.723179-.780757-2.535244-2.140731-3.620287-2.726023-.904385-.780756-2.71645-2.157848-3.620835-2.743691-.904386-.780757-2.895461-2.140731-3.981053-2.726575-.904385-.780757-2.89546-2.157848-3.981052-2.743139-.904385-.585844-2.716451-1.744279-3.620836-2.329571-.904385-.780756-2.698879-2.34227-3.603264-3.123026-.904385-.780757-2.716451-2.157848-3.620836-2.743692-.904385-.780756-2.89546-2.140731-3.981052-2.726574-.904386-.780757-2.715902-2.140179-3.620836-2.726023-.904385-.780756-2.71645-2.34227-3.620287-3.123026-.723728-.780757-2.715352-1.956309-3.981052-2.346688-1.266249-.390378-3.796002-.390378-5.062251 0-1.266249.194913-3.975562.782966-5.422468 1.173344-1.266249.194913-3.796002.782965-5.062251 1.173344-1.26625.194913-3.992584.580874-5.439491.776339-1.266249.195465-3.975561.782965-5.422468 1.173344-1.266249.195465-3.796002.782965-5.062251 1.173343-1.266249.195465-3.796002.765849-5.062251 1.156227s-3.795453 1.179417-5.061702 1.569796c-1.266249.195465-3.992584.581426-5.44004.776891-1.266249.194913-3.975012.782965-5.422468 1.173344-1.266249.194913-3.795453.782965-5.061702 1.173343-1.266249.194914-3.975561.782966-5.423017 1.173344-1.2657.194913-3.257324-.191048-3.981052-.776339-.723179-.781309-1.637997-2.930323-1.818655-4.296923-.180657-1.561513-1.078453-4.09704-1.801632-5.072709-.54307-1.171135-1.815909-3.136279-2.539637-3.917036-.723727-.976222-1.980093-2.721605-2.522614-3.502914-.542521-.780756-.542521-2.543809 0-3.520031.723728-.975669 1.800534-3.125235 2.162398-4.29637.361315-1.3666-.356373-2.138522-1.441965-1.553231-.904385.390931-2.356783 1.952444-2.899853 3.123579-.542522.97567-1.978446 2.721605-2.882831 3.502362-.904386.781309-2.715902.780757-3.620287 0-.723728-.780757-2.176675-2.52614-2.900402-3.502362-.542522-.976222-1.978446-2.739274-2.882831-3.520031-.723179-.976222-1.996567-2.739274-2.539637-3.520031-.361864-.780756-1.814811-1.553231-2.899854-1.553231-.904385-.194913-3.07502-.782965-4.341269-1.173343-1.085592-.390379-3.256226-1.162301-4.341269-1.552679-1.085591-.585844-3.435785-1.576974-4.702034-1.967352-1.26625-.390379-3.796002-.390379-5.062252 0-1.266249.195465-4.154571.397004-5.782684.397004s-4.354448-.385961-5.43949-.776339c-1.085592-.585844-2.700527-.971805-3.243597-.776892z" stroke-width=".7"/><path d="m235.813707 424c1.852288-2.960137 2.963435-5.131388 3.334005-6.315554.556137-1.381807 1.296714-4.144862 1.48228-5.526669l.370008-3.157777-1.481718 2.368333c-.555573.987084-1.667283 3.157777-2.222857 4.342502-.37057 1.184166-1.296714 3.552499-1.852288 4.736666-.37057 1.184166-.555574 2.763055-.37057 3.157777z" stroke-width=".7"/><path d="m226.871114 422c1.643321-3.243119 2.921399-5.270069 3.651887-6.080849.912833-1.013761 2.556155-2.838302 3.286089-3.649082.730488-1.013188 1.643321-2.83773 1.82622-3.648509l.36469-1.62156-1.825666 1.62156c-.912834.608371-2.556155 2.229931-3.286089 3.243119-.730488.81078-2.19091 2.635321-2.921399 3.649082-.730488 1.013189-2.008565 3.24312-2.556154 4.459289-.547589 1.013762-.547589 2.02695 0 2.02695z" stroke-width=".7"/><path d="m369.637393 387.031605c-.165632.2057 0 1.848972.330764 3.286545.495894 1.232454.826657 3.903062.661025 5.341215 0 1.437573-1.157421 3.286545-2.314842 3.697363l-2.31434.821636 2.975867.410818 2.976368.410818c.991788-3.903062 1.157421-6.573089.991788-7.805543 0-1.438154-.661024-3.697943-1.322551-4.51958-.661527-1.026754-1.653315-1.84839-1.984079-1.643272z" stroke-width=".7"/><path d="m162.847728 349c-1.094905 0-2.007049.787366-1.824288 1.574733.182207.590246 1.45932 1.771296 2.553671 2.362099 1.277113.393684 3.649131 1.18105 4.743483 1.574733 1.277112.393684 3.64913 1.37817 4.743482 1.968417 1.277113.393683 3.649131 1.37817 4.743482 1.968416 1.094906.393683 3.101955 1.37817 4.0141 1.968973 1.094351.590247 3.466369 1.574733 4.743482 1.968416 1.277113.393684 3.831338.590247 5.107897.393684l2.554225-.787367-2.91864-.393683c-1.277112-.393683-3.831338-1.18105-5.108451-1.574733-1.094905-.393683-3.284162-1.181607-4.378513-1.57529-1.094906-.590246-3.284163-1.771296-4.378514-2.3621l-2.189811-1.181049 2.919194.393683c1.459874 0 4.196306.393683 5.473419.787366 1.45932.197121 4.013545.787367 5.108451 1.18105 1.277113.393683 3.466369 1.37817 4.378514 1.968973 1.094351.590247 3.283608 1.771297 4.378514 2.3621 1.094905.590246 3.101401 1.771296 4.013545 2.362099 1.094905.590804 3.101401 1.968417 4.014099 2.755783 1.094352.590803 3.101401 1.574733 4.013546 1.968416 1.094351.393684 1.824288 1.771853 1.45932 2.75634-.364969.787366-1.642081 2.362099-2.554226 3.149466-.912144.787366-3.101401 1.968416-4.378514 2.362099-1.094351.393684-2.919193 1.771853-3.648577 2.755783-.729936.984487-2.554225 2.55922-3.64913 3.150023-.912145.590246-3.101401 1.574733-4.378514 1.968416-1.277113.196563-3.831338.787367-5.108451 1.18105s-3.831338 1.18105-5.107897 1.574733c-1.277113.19712-3.831338.787366-5.108451 1.18105-1.277112.393683-3.101401 1.968416-3.64913 3.149466-.547176.984486-1.642082 3.150023-2.189257 4.331072-.364969 1.18105 0 2.55922.729936 2.755783h1.459321c1.277112-3.543149 2.736986-5.511565 3.64913-6.299489.912145-.787366 3.101401-1.771296 4.378514-1.968416 1.277113-.393683 3.831338-.98393 5.108451-1.18105 1.45932-.196563 4.195753-.590246 5.472865-.787366 1.459874-.393684 3.831338-1.377613 4.743483-1.968417 1.094905-.590803 2.919194-1.968416 3.64913-2.755782.912145-.984487 2.554226-2.75634 3.283609-3.543706.912144-.787367 3.101401-1.771297 4.378514-1.968417 1.277113-.393683 3.284162-.983929 4.014099-1.181049.912144-.393684 2.919194-.787367 4.013545-.787367 1.094906-.196563 2.736433.787367 3.284163 1.968416.729383.984487 2.371464 2.755783 3.283608 3.543706.912144.590247 2.736987 1.771297 3.649131 2.3621 1.094352.590246 3.101401 1.968416 4.013545 2.755783 1.094906.590803 2.372019.393683 2.554226-.393684.364968-.787366-.364969-2.165536-1.45932-2.755782-.912698-.787367-2.919194-2.165537-4.014099-2.75634-.912145-.590246-2.736433-1.968416-3.648577-2.755783-.729937-.787366-2.372018-2.362099-3.284163-3.149466-.912144-.787366-2.736432-2.362099-3.648577-3.149466-.729937-.787366-2.554225-2.165536-3.64913-2.756339-.912145-.787367-2.736433-2.16498-3.648577-2.755783-.912145-.787366-2.736987-2.164979-3.649131-2.755783-.912144-.787366-2.91864-2.165536-4.013546-2.755782-1.094351-.590804-3.283608-1.771853-4.378513-2.362657-.912145-.590246-2.919194-1.771296-4.013546-2.362099-1.094905-.590247-3.466369-1.574733-4.743482-1.968417-1.094906-.393683-3.649131-.983929-5.108451-1.181049-1.277113-.196563-4.013545-.590247-5.473419-.787367-1.45932-.19712-4.195753-.590803-5.472866-.787366-1.277112-.393684-3.831338-1.18105-5.10845-1.574733-1.094906-.590804-3.46637-1.18105-4.743483-1.18105z" stroke-width=".7"/><path d="m134 394.143353c-2.662707-1.95116-4.615682-3.316309-5.680549-3.901767-.887569-.780243-3.017843-1.950608-4.260547-2.340729-1.065406-.390122-3.195679-1.170365-4.261085-1.560486-1.064868-.585458-1.952437-.390122-1.775138.390121.177837.780243 1.242704 2.145944 2.130273 2.730851 1.065406.585458 3.017842 1.950607 3.90595 2.73085 1.064867.585458 3.195141 1.755823 4.260547 2.341281 1.064867.390122 3.017842.584906 3.905411.390122z" stroke-width=".7"/><path d="m136.595024 292.018233c-.269005.073357-.44816.365681-.44816.853255.179155.974597 1.076019 2.924342 1.793728 3.89949.717709.779899 2.331737 2.144996 3.2286 2.729644 1.076564.389949 2.691136 1.559796 3.229146 2.339694.538009.585199 1.614572 2.340246 2.152582 3.510093.717708.974597 2.152581 2.729643 2.87029 3.509541.896864.779898 2.152582 2.534945 2.511437 3.509541.538009.975149-.358855 1.755047-1.793728 1.559797-1.255718-.389949-3.946854-.584648-5.381727-.389949-1.255718.19525-3.588.975148-4.664018 1.560347-1.076563.584648-2.870291 2.144444-3.588 3.119592-.717164.779899-2.152582 2.534945-2.869746 3.509542-.538554.975148-1.793727 3.119592-2.511436 4.289991-.53801.974597-2.152582 2.534393-3.229145 3.119592-.896864.584648-3.228601.974597-4.664019.779898-1.434873-.19525-4.305164-.389949-5.740037-.389949-1.435417-.19525-4.305163-.585199-5.740581-.779898-1.255718-.19525-4.126009-.389949-5.740037-.389949-1.435418-.19525-4.305164-.389949-5.740582-.389949-1.4348726-.19525-4.4843183-.389949-6.0988909-.389949-1.4354176-.19525-4.3051638-.585199-5.7405815-.779898-1.2557181-.195251-3.9463094-.389949-5.3811825-.389949-1.4354176-.195251-4.3051638-.5852-5.7405815-.779898-1.2557181-.389949-2.8702907-.195251-3.2286006.389949-.3588544.389949.5380094 1.169847 1.7937275 1.559796 1.2557182.389949 3.4083001 1.364546 4.3051639 1.949745 1.0760187.584648 3.0494456 1.755046 3.9463094 2.339694 1.0765632.5852 3.0494457 1.949745 3.9463094 2.729643 1.0765633.5852 3.0499902 1.755047 3.946854 2.339695 1.0760187.585199 3.4083001 1.560347 4.6640182 1.950296 1.2557182.389949 3.7671546.974597 5.0228726 1.169848 1.434873.194698 4.305164.584647 5.740037.779898 1.434873 0 4.126009.389949 5.381727.779898 1.434873.194698 4.125464.779898 5.381183 1.169847 1.255718.19525 3.767154.779898 5.022872 1.169847s3.588 1.169847 4.664019 1.559796l5.022872 1.559796c1.255718.19525 3.587455.975148 4.664018 1.560348 1.076564.584648 1.973427 2.339694 1.793728 3.509541 0 1.169847-.179155 4.094741-.358854 5.849236 0 1.559796-.35831 4.484689-.717165 5.849787-.179699 1.365097-.717709 4.09474-1.076563 5.459286-.358854 1.169847-.896864 3.900042-1.076019 5.459838v6.239185 6.239736c.179155 1.365097.896864 2.144995 1.434873 1.559796l1.434874-1.169847c-.35831-4.679389-.35831-7.214333-.35831-8.189481.179155-1.169847.538009-3.704792.717164-5.069338.179699-1.559796.717709-3.509541 1.076563-3.900042.358855-.584647 1.076019-.779898 1.434873-.389949.53801.195251 1.614573 1.560348 2.152582 2.730195.538554.974597 1.435418 3.314843 1.793728 4.679388.358854 1.365098 1.255718 3.899491 1.794272 5.069889.538009.974597 1.793727 2.924342 2.511436 3.899491.717164.779898 1.614028.584648 1.793728-.389949.358854-1.169847.179155-3.314843-.358855-4.289991-.538009-1.169847-1.434873-3.70424-1.793727-5.069338-.358855-1.365097-1.435418-3.704791-2.152582-4.679388-.538554-.975148-1.794272-2.924894-2.511437-3.900042-.538009-.974597-1.614572-3.119592-2.152581-4.289439-.358855-1.365098-.717709-4.289991-.717709-5.849787.179155-1.559797.179155-4.484138 0-5.849236 0-1.559796-.358855-4.289991-.717709-5.459838-.179155-1.169847-.179155-3.70424 0-5.069337.358854-1.365098 1.435418-3.509542 2.152582-4.28944.897408-.975148 2.511436-2.730195 3.229145-3.510093.717709-.974596 1.973427-3.119592 2.511436-4.289439.53801-1.169847 1.614573-3.314843 2.152582-4.289439.53801-1.170399 1.973427-2.924894 2.870291-3.510093 1.076019-.584648 3.4083-1.169847 4.664018-1.169847 1.434873-.194699 3.94631 0 5.022873.389949 1.255173.389949 3.049446.19525 3.587455-.389949.717709-.779898 0-1.755047-1.434873-1.949745-1.255718-.195251-3.588-.975149-4.664018-1.559797-.897409-.585199-2.691136-1.949745-3.588-2.729643-.717709-.975148-2.152582-2.730195-2.870291-3.510093-.717164-.974597-2.331737-2.729643-3.2286-3.509541-.717709-.975148-2.152582-2.729643-2.870291-3.509541-.717709-.975149-1.793728-2.730195-2.152582-3.510093-.358854-.974597-1.614573-2.339694-2.511436-2.729643-.896864-.389949-2.690592-1.559797-3.587455-2.339695-.717709-.779898-2.332282-2.144995-3.229146-2.729643-.358854-.389949-.717708-.536662-.986713-.463306z" stroke-width=".7"/><path d="m234 378.578494c-2.11749-2.288998-3.705741-3.521918-4.587983-3.87411l-1.412017-.704384v.352192c0 .175847.529774 1.408767 1.059013 2.465343.706008.880729 1.941255 2.641688 2.470493 3.521918.705473.880729 1.588251.880729 1.764486 0z" stroke-width=".7"/><path d="m187.228726 380c3.409989-1.212092 5.742882-2.221884 6.819978-2.828215 1.076552-.605761 2.512682-1.616124 2.871714-2.020154.358487-.606332-.538821-1.414394-1.795162-1.616124-1.25634-.40403-3.948265-1.010362-5.383849-1.212092-1.256341-.404031-3.948811-1.010363-5.384395-1.212092-1.25634-.202301-4.128054-.404031-5.743427-.404031-1.435584-.202301-4.307297-.606332-5.742882-.808062-1.25634-.202301-3.769021-.606331-5.025362-.808633-1.25634-.40403-3.769022-1.212092-5.025362-1.616123-1.076552-.60576-3.230201-1.616123-4.307298-2.020154-1.076552-.60576-2.332892-.60576-2.512681 0 0 .404031.897308 1.414394 1.794617 2.020154 1.077096.606332 3.230745 1.616123 4.307842 2.020726 1.256341.40403 3.768477 1.212092 5.024818 1.616123 1.436129.201729 4.128054.60576 5.384394.808061 1.435584.20173 4.307298.605761 5.743427.808062 1.614828 0 4.486541.404031 5.742882.808061 1.25634.20173 3.769022.808062 5.025362 1.212093l2.512681.404031-2.153649 1.212092c-.897308.404031-3.050957 1.212092-4.307297 1.616123l-2.512681.404031 2.153648.808061z" stroke-width=".7"/><path d="m374.182187 358.017416c-.336208.027958-.695302.086668-1.054396.185078-1.256558.197937-3.589854.98857-4.667137 1.581824-.897463.592695-2.872209 1.778644-3.948947 2.371899-.897463.592695-2.87221 1.778644-3.949492 2.371898-1.076738.593254-3.589854.98857-5.025686.790633-1.256558-.197379-3.949492-.395317-5.385325-.395317-1.436377 0-4.128767.395317-5.385324.790633-1.076738.395316-3.230759 1.383887-4.308042 1.976582-1.076738.395316-3.231304 1.383887-4.308042 1.976582-1.077283.593254-3.051484 1.977141-3.948947 2.767773-.718189.790633-1.795472 2.767215-2.154021 3.953164-.17982.988571.179274 1.779203.717643 1.581266l1.436378-.395317c2.333295-2.371898 4.128222-3.755785 5.025685-4.34848 1.077283-.790633 3.231304-1.976582 4.308587-2.371898 1.076738-.593254 3.410578-1.383887 4.667136-1.581825 1.256557-.395316 3.948947-.592695 5.38478-.395316 1.615652 0 4.487861.197938 5.744419.395316 1.256557 0 3.410578-.592695 4.308041-1.185949 1.076738-.790633 3.051485-2.17396 3.948948-2.767214 1.077283-.592695 3.051484-1.779204 3.949492-2.371899 1.076738-.593254 3.230759-1.779203 4.308042-2.371898 1.076738-.593254 2.154021-1.581825 2.154021-1.977141 0-.444521-.808098-.663707-1.817813-.580394z" stroke-width=".7"/><path d="m51.3056278 241.003212c-.4875977.045445-1.2339763.556286-1.7722406 1.282306-.7180488.774202-2.1536018 2.51643-2.8716507 3.483908-.7175041.968026-2.1536018 2.903531-2.8711059 3.871557-.5388091.967479-1.7951222 2.903531-2.5126263 3.871009-.7180489.968026-2.1536018 2.903531-2.8716507 3.871557-.5382643.967478-1.7945774 2.902983-2.5126263 3.871009-.7180489.774202-2.1536019 2.709706-2.8716507 3.871009-.5382643.968026-1.7945774 2.903531-2.5126263 3.871557-.5382643.967478-1.7945774 3.096807-2.5126263 4.25811-.5382643.967479-1.7945774 2.903531-2.5120815 3.871009-.5388091.968026-1.7951222 2.903531-2.5126263 3.871557-.538809.967478-1.6153376 3.096807-2.1536018 4.25811-.5388091 1.161303-1.7951222 3.290632-2.5126263 4.25811-.5388091.968026-1.6153376 3.097355-2.1536019 4.258658-.538809 1.161303-1.7951222 3.290631-2.5126262 4.25811-.5388091.968026-1.6153376 3.096807-2.1536019 4.258658-.5388091.967478-1.7951222 3.096807-2.51262628 4.25811-.53880906.967478-1.61533758 3.096807-2.15360184 4.25811-.35902445 1.161302-1.25631315 3.677732-1.79512221 5.032859-.35847964 1.161303-1.07652852 3.677733-1.43555296 5.032312-.35902444 1.161303-1.07707333 3.677733-1.43555297 5.03286-.35902444 1.161302-1.07707332 3.871009-1.43609776 5.419412-.17923982 1.355127-.53826426 4.258111-.71750408 5.807062v6.580715c.17923982 1.548404.71750408 4.258658 1.07652852 5.419961.53826426 1.161303 1.43555296 3.483908 1.79457741 4.645211.53880906 1.161303 1.61533758 3.483908 2.15360184 4.645211.71804888.968026 2.33338647 1.742228 3.23067517 1.548951l2.15360186-.387101c-2.15360186-2.51643-3.409915-4.645758-3.94817927-5.807061-.35902444-1.355127-1.25631314-3.677733-1.7945774-4.645211-.53880906-1.161303-1.25631314-3.677733-1.43609776-5.03286-.17923982-1.548403-.53826426-4.25811-.71804889-5.419413 0-1.355127.17978463-4.064833.35902445-5.41996.35902444-1.354579 1.07707332-3.871009 1.43609776-5.032312.53826426-1.355127 1.43555296-3.871557 1.7945774-5.032859.35902444-1.35458 1.07652853-3.87101 1.43555297-5.032312.53880906-1.161303 1.43609776-3.483909 1.7951222-4.645759.53826426-1.354579 1.43555294-3.871009 1.79457744-5.032312.5382642-1.161303 1.6153376-3.290631 2.1536018-4.25811.7180489-1.161303 1.9738172-3.290631 2.5126263-4.258658.5382643-1.161302 1.6153376-3.290631 2.1536018-4.25811.7180489-.968026 1.9738173-3.096807 2.5126263-4.25811.5382643-1.16185 1.6153376-3.290631 2.1536019-4.258657.7175041-.967479 1.9738172-2.903531 2.5126263-3.87101.717504-1.161302 1.9738172-3.290631 2.5126262-4.258657.5382643-1.161303 1.6147928-3.290084 2.1536019-4.25811.7175041-.968026 2.1536018-2.903531 2.8711059-3.871009.7180489-.968027 1.974362-2.903531 2.5126263-3.871557.7180489-.967479 1.974362-2.902983 2.5126263-3.871009.7180489-1.161303 2.1536018-3.096808 2.8716507-3.87101.7180489-.968026 1.974362-2.90353 2.5126263-3.871556.7180489-.967479 2.1536018-2.902983 2.8716507-3.871009.7175041-.968026 1.9738173-2.903531 2.5126263-3.87101.7175041-.968026 2.1536019-2.90353 2.8711059-3.871556.7180489-.967479.8972887-2.322606.3590245-2.709707-.0898923-.096912-.2184656-.136334-.3813613-.121003z" stroke-width=".7"/><path d="m383.524694 354.224359c2.701809-1.939101 4.503016-3.296747 5.403619-3.878203 1.081052-.775641 2.882258-2.326922 3.60296-3.102562.900603-.77619 1.621304-2.908927 1.440856-4.266573 0-1.357096-.360351-4.072387-.720155-5.429484-.360351-1.357646-1.081052-3.878752-1.441403-5.042213-.36035-1.357097-1.080505-4.072388-1.440855-5.429484-.180449-1.551282-.720702-4.266573-1.081052-5.430033-.360351-1.357097-1.080505-3.878204-1.440856-5.041665-.360351-1.357645-1.440856-3.684567-2.161557-4.654392-.540253-1.163461-2.342006-2.714742-3.60296-3.102563-1.080505-.38782-3.782862-.77564-5.40362-.77564-1.621304 0-4.503563.38782-5.764516.77564-1.080506.387821-2.521908.387821-2.882259 0-.359804-.581456-.359804-2.521106 0-3.878203.360351-1.357645.720701-4.266572.720701-5.817853.180449-1.551282.360351-4.653844.360351-6.205126.179902-1.745465.360351-5.042212.360351-6.593494 0-1.745465 0-5.041664 0-6.592945 0-1.745466-.540253-4.654393-1.081052-5.817854-.360351-1.357645-1.440856-3.684567-2.161557-4.653843-.540253-.969825-.900604-2.908927-.720155-3.878752.179902-.969277.900603-2.908378 1.440856-3.878203.720701-.969826 1.981655-2.908927 2.521908-3.878204.540252-1.164009 0-1.93965-1.081052-1.55183-.900603.194185-2.521908 1.357646-3.242063 2.327471-.540799.969277-1.801753 3.102563-2.521907 4.266024-.540253.969825-1.441403 2.908926-1.801207 3.878203-.180449.969825-1.081052 2.908926-1.801753 3.878752-.540253.969276-1.620758 3.102562-2.161557 4.266023-.540253 1.163461-1.621305 3.490383-2.161557 4.654393-.540253.969276-1.440856 3.296198-1.801207 4.653843-.360351 1.357646-.900603 4.266024-1.081052 5.817305v6.205674c0 1.357645-.359804 4.266024-.720154 5.817853-.180449 1.357097-.5408 4.266024-.720702 5.817305-.179902 1.357646-.540252 4.266024-.720701 5.817854-.179902 1.551281-.360351 4.653844-.360351 6.205125 0 1.357645.360351 4.072388.720702 5.430033.36035 1.163461.540252 3.878203.36035 5.429485 0 1.357645.179902 4.072387.360351 5.429484.360351 1.357645 1.260954 3.878752 1.801206 5.042213.720702.969825 1.801207 3.102562 2.161558 4.266023.540252 1.163461.540252 2.908927 0 3.490932-.540253.38782-2.521908.77564-3.962764.77564-1.260954-.194184-3.242609-.77564-3.962764-1.163461-.720701-.582004-1.981655-.969825-2.521907-.77564-.5408.193636-2.342006.581456-3.60296.77564-1.260954 0-3.782862-.194184-5.043816-.38782-1.080505-.194184-3.422511-.38782-4.683465-.38782-1.260407 0-3.962763.193636-5.403619.38782l-2.521908.38782 1.801206.775641c.900604.38782 3.062161 1.163461 4.323115 1.551281 1.260954.193636 3.782861.581457 5.043815.775641 1.440856.193636 4.503563.38782 6.124321.38782 1.621305 0 4.683465.193636 6.124868.387821 1.440856 0 4.323114.194184 5.76397.38782 1.441402.194184 4.323114.582005 5.764517.775641 1.440856 0 4.323114.194184 5.76397.38782 1.441402 0 4.323114.194184 5.764517.38782 1.440856.194185 4.323114.582005 5.76397.775641 1.441402 0 4.143212-.193636 5.404166-.38782z" stroke-width=".7"/><path d="m222.004164.03311209c-.934536.1189077-2.140405.58628105-2.820117 1.16980961-.907017.77840508-2.345695 2.73762974-2.889465 3.90523736-.54432.97328159-1.640665 3.1158223-2.184435 4.28342992-.354991 1.14173422-1.909247 2.80313912-3.164651 3.42355102-.33903.3572736-.708331.6859213-1.135422.9463072-1.022045.622614-2.257084.9182317-3.439838.8945603-.418285.4948983-.806849.8730908-1.22073 1.1868751.995076.2592848 1.939518.6264674 2.080965.9292417.181073.194326-1.095245.395258-2.545481.395258-1.269163-.194326-3.624764.1904725-4.712854.7740011-.906466.584079-2.902122 1.7560906-3.990212 2.3396192-.906466.5840791-2.902123 1.9399572-3.990213 2.7183623-.906466.584079-2.542728 2.1408892-3.267571 3.1136203-.725393.7784051-1.984649 2.7376297-2.528419 3.9052374-.543769 1.1676076-1.640115 3.4945653-2.184435 4.6621729-.543769.9727311-1.623053 3.1158224-2.166823 4.28343-.54432.9732816-1.640665 3.3167543-2.184435 4.6792384-.362696 1.1676076-1.082035 3.6954974-1.444732 5.0579815-.362696 1.1676076-1.262008 3.4940149-1.805777 4.6616225-.54432.9732816-1.640115 3.3173048-2.184435 4.6792385-.362697 1.1676076-1.082036 3.6954973-1.444733 5.0579815-.362696 1.1676076-1.279069 3.4940149-1.823389 4.6616225-.54377 1.1681581-1.443081 3.6954973-1.805778 5.0579815-.362696 1.1676076-1.082035 3.7125628-1.444732 5.075047-.181073 1.3619336-.738052 4.2751724-1.100748 5.8314321-.181073 1.3624841-.361046 4.0913059-.361046 5.45379.181074 1.3619336.361046 4.2751724.361046 5.8314321 0 1.5573607-.179972 4.670981-.361046 6.2277909-.181073 1.362484-.361045 4.091306-.361045 5.45324.181073 1.362484.361045 4.275172.361045 5.831982v5.057431c.181074.973282.181074 3.317305 0 4.679239 0 1.168158-.539917 3.494565-1.083686 4.662173-.362697 1.167607-1.818987 2.92535-2.906526 3.509429-1.08809.389202-3.443691 1.360282-4.712303 1.944361-1.08809.389202-3.623664.774001-5.0739.774001-1.450786-.194877-4.165782.207538-5.434944.791066-1.08809.389203-3.443691 1.159351-4.712854 1.548553-1.08754.389203-3.443691 1.175865-4.712304 1.565618-1.088089.389203-3.443691 1.359732-4.712853 1.943811-1.08754.389203-3.443691.774001-4.712304.774001-1.08809 0-3.263719 0-4.351258 0-1.08809 0-2.724352 1.172012-3.268121 2.339619-.362697 1.167608-1.818987 2.908285-2.906526 3.492364-1.08809.389202-3.263719 1.359731-4.351809 1.94381-1.087539.584079-3.083746 1.957023-3.990212 2.735428-.906466.583529-2.902123 1.939407-3.990213 2.717812-.906466.584079-2.705089 1.957023-3.611555 2.735428-.725393.778405-2.361105 2.335215-3.2681216 3.11362-.7248427.778405-2.1811327 2.519082-2.9065259 3.492363-.7248427.973282-2.1811327 2.914891-2.9065258 3.888172-.7253931.778405-2.1646215 2.536147-2.8894643 3.508879-.7253931.973281-2.361105 2.731023-3.2681216 3.509979-.7248428.778405-2.1811328 2.518531-2.9065259 3.491813-.7248427.778405-1.9840988 2.921496-2.5278684 4.28343-.3626966 1.168158-1.2796199 3.511631-1.8233896 4.679238-.3626965 1.168158-1.2620079 3.494566-1.8057775 4.662173-.5443201 1.167608-1.6406654 3.511631-2.184435 4.679239-.5437697.973281-1.6230534 3.115822-2.166823 4.28343-.5443201.973281-1.6406653 3.098756-2.184435 4.266364-.54432 1.168158-1.6236037 3.511631-2.1673734 4.679238-.5437696.973282-1.8200873 3.115823-2.5454804 4.283981-.5437697.972731-1.6230533 3.115822-2.166823 4.28343-.3626966 1.167607-1.4595922 3.310148-2.184435 4.28343-.5437696.973281-1.6230533 3.098757-2.1673734 4.266364-.5437696 1.167608-1.8200873 3.310699-2.54493 4.283981-.54432.972731-1.6236037 3.115271-2.1673734 4.28343-.5437696 1.167607-.5437696 3.310148 0 4.283429.7253931.973282 2.1816831 2.731024 2.9065259 3.509429.9064662.778405 2.7056393 2.335216 3.6121055 3.113621s2.7227009 2.335215 3.6291671 3.11417c.9064662.583529 2.7221505 1.939407 3.6286167 2.717812 1.0880897.584079 3.0837463 1.75554 3.9902126 2.339619 1.0880896.58408 3.0842967 1.755541 3.9902125 2.33962 1.0880897.584079 3.0837463 1.939406 3.9902126 2.717811 1.0880896.58408 3.2637186 1.756091 4.3518083 2.33962 1.0875393.389753 3.2637187 1.360832 4.351258 1.944361 1.0875393.583528 3.0837463 1.75554 3.9902125 2.339619 1.0875394.583529 3.2637187 1.738475 4.351258 2.322003 1.0880897.389753 3.2637185 1.360283 4.3512585 1.944362 1.269162.389202 3.444791 1.377347 4.351257 1.960876.907017.389202.907017 1.74508 0 2.718362-.724842.778405-2.181132 2.536147-2.906525 3.509429-.724843.778405-2.181683 2.518531-2.906526 3.491813-.54377.973281-1.8030259 3.115822-2.528419 4.28398-.5437697.972731-1.8200873 2.91434-2.5454805 3.887622-.7248427.778405-2.1816831 2.536147-2.9065258 3.509428-.7253931.973282-2.1640711 2.915441-2.8894643 3.888172-.7253931.778405-2.1816831 2.536148-2.9065258 3.509429-.7253931.778405-2.3616555 2.518531-3.2681217 3.491813-.7248427.778956-2.1640711 2.536147-2.8894642 3.509979-.7248428.778405-2.3611051 2.535597-3.2675713 3.508879-.7253932.778955-2.1816831 2.519081-2.9070763 3.492363-.5437696.973282-1.9824476 2.731024-2.8894642 3.509429-.7248428.778405-2.5410774.979337-3.6286168.395808-.9064662-.778405-2.9026732-2.151348-3.9902125-2.735427-.9064662-.583529-2.9026732-1.756091-3.9902125-2.33962-1.0880897-.583528-3.2637187-1.554608-4.3518084-1.94381-1.0875393-.584079-3.4431407-1.554608-4.7123034-1.943811-1.0880897-.389202-3.6236634-.975484-5.0738993-1.16981-1.2691627-.389202-3.9841584-.975483-5.4349446-1.169809-1.2691628-.194877-4.0017704-.579675-5.4520063-.774552-1.2691628-.389202-3.9847088-.774001-5.4349447-.774001h-2.5454804l1.8228392 1.16981c.9070166.389202 3.0826455 1.15935 4.3518083 1.548552 1.4502359.194326 4.1657819.596741 5.4349447.791067 1.4502359.194877 4.1657819.763542 5.4349447 1.152744 1.4502358.194877 4.0028711.780607 5.0909608 1.16981 1.2691628.389202 3.6247641 1.360282 4.7123034 1.94381 1.0880897.389203 3.2637187 1.377348 4.3518084 1.961427 1.0875393.583529 3.0661343 1.939957 3.9726006 2.717812.9064662.584079 2.7227008 1.939957 3.6291671 2.718362 1.0880896.583529 3.2637186 1.756091 4.3512579 2.339619 1.0880897.389203 2.7243521-.196528 3.2681217-1.169809.7248428-.973282 2.1811327-2.915441 2.9065259-3.888172.7253931-.972731 2.1646215-2.730473 2.8894642-3.509429.7253932-.972731 2.1816831-2.713408 2.9065259-3.492363.9064662-.972731 2.5427285-2.730474 3.2681217-3.508879.7248427-.973281 2.1640711-2.731023 2.8894642-3.509979.7248428-.972731 2.1816831-2.713408 2.9065259-3.491813.9064662-.973281 2.3627562-2.91489 2.9065258-3.888172.7253931-.972731 2.1646215-2.932506 2.8894643-3.905237.7253931-.972731 2.1816831-2.713408 2.9070762-3.491813.7248431-.973282 2.1811331-2.731024 2.9065261-3.509429.724843-.973281 1.984099-2.91489 2.527868-3.888172.725393-1.167607 2.001711-3.310148 2.546031-4.28343.724843-.973281 2.181133-2.91489 2.906526-3.887621.724843-.973282 2.164071-2.731024 2.889464-3.509979.724843-.972731 2.00116-2.91434 2.545481-3.887622.543769-1.167607 1.623053-3.310148 2.166823-4.28343.725393-1.167607 2.181683-3.110317 2.906525-3.888172.725394-.972731 2.361656-2.731023 3.268122-3.509428.906466-.778406 2.722701-1.364136 3.629167-1.16981.906466 0 2.705089.787213 3.611555 1.565618.906467.584079 2.362756 2.324756 2.907077 3.492363.543769 1.167608 1.820087 3.126282 2.54493 3.905238.907016.778405 2.166272 2.90333 2.528418 4.266364.54432 1.167608 1.460693 3.511081 1.82339 4.679239.54377 1.167607 1.443081 3.494015 1.805777 4.661622.54377 1.167608 1.640115 3.511631 2.184435 4.679239.724843.973281 1.804127 3.115822 2.166823 4.28398.544321 1.167608 1.640115 3.494015 2.184435 4.661623.725394.973281 1.444733 3.316754 1.444733 4.679238v2.339619l-1.083687-1.960876c-.54377-1.167608-1.820087-3.293083-2.545481-4.266364-.724842-.973282-2.541077-2.345675-3.629167-2.735428-1.087539-.584079-3.263718-.584079-4.351258 0l-1.805777 1.169809h2.166823c1.269163-.194876 3.444792.391405 4.351808 1.16981.906466.584079 2.542729 2.140889 3.267571 3.11362.906467.778405 2.003362 2.335216 2.184435 3.114171.362697.778405 1.621953 1.949866 2.528419 2.339619 1.08754.389203 2.903774 1.745081 3.628617 2.717812.907017.778405 2.542729 2.335215 3.268122 3.113621.906466.778405 2.525667 2.536147 3.250509 3.509428.906467.778405 2.542729 2.335216 3.268122 3.113621.906466.778955 2.542729 2.335215 3.267571 3.11417.906467.778406 2.722701 2.335216 3.629167 3.113621 1.08809.584079 3.443691.968877 4.712854.774001 1.450236-.194326 4.345204-.395809 5.79599-.395809 1.63186-.194326 4.723862-.194326 6.174648 0 1.450236 0 3.625865.787213 4.351258 1.565619.906466.778405 2.525116 2.519081 3.25051 3.492363.725393.973281 1.821738 3.115822 2.184435 4.28343.543769 1.167607 2.000059 2.92535 2.906525 3.509429.906467.584079 3.082096.968877 4.351258.774001 1.269163-.389203 3.804737-.573069 5.0739-.378193 1.450235.194877 3.626415 1.349272 4.351258 2.322554.906466.778405 2.165722 2.920946 2.528418 4.28343.362697 1.167607 1.998959 2.339619 3.267572 2.339619 1.450786-.194876 3.806387.190473 4.712853.774001.906467.389203 3.262068.975484 4.712854 1.16981 1.450236 0 4.362816.200932 5.813052.395808 1.631859 0 4.526827.183867 5.79599.378193 1.450786.194876 4.166332.780607 5.434945 1.17036 1.450786.194326 4.166332.579125 5.434944.774001 1.450787.194326 4.183394.395258 5.452557.395258 1.450236 0 4.165782.201483 5.434394.395809 1.450787 0 4.346305.183866 5.796541.378743 1.450236 0 4.345754.200932 5.79599.395808 1.450236.194326 4.183394.579125 5.452006.774001 1.450787.194326 4.346305.579125 5.79599.774001 1.450787 0 4.346305.200932 5.796541.395809 1.450236.194326 4.362816.579124 5.813052.774001h2.528418v-.378193c2.175629-1.362484 4.183394-2.346225 5.452007-2.735427 1.269162-.389203 2.528418-1.360282 2.528418-1.943811.181074-.584079-.718238-.968878-1.805777-.774552-1.08809 0-3.623113.200932-5.073899.395809-1.450236.194876-4.183394.579675-5.452007.774001-1.269162 0-3.624764-.384799-4.712853-.774001-1.08754-.389203-3.443141-.791617-4.712304-.791617-1.088089 0-3.623663 0-5.073899 0-1.450236-.194326-4.525727-.378193-6.157586-.378193-1.450236-.194876-4.362816-.395808-5.813052-.395808-1.450236-.194326-4.345754-.395258-5.79599-.395258-1.269163-.194877-3.984709-.579675-5.434944-.774552-1.269163-.194326-3.804737-.780607-5.0739-1.169809-1.088089-.389203-3.263718-.974934-4.351258-1.16981-1.088089-.194326-3.460752-.579675-4.729915-.774001-1.269163-.389203-3.804186-1.1588-5.073899-1.548553-1.08754-.583528-3.083747-1.370741-3.990213-1.565067-.724843-.194877-2.72105-.780608-3.990212-1.16981-1.08754-.389203-3.066685-.389203-3.972601 0-.725393.194326-2.7216.194326-3.990213 0-1.088089-.194877-3.084296-1.165406-3.990212-1.944361-.907017-.778405-2.722701-2.133733-3.629167-2.717812-.906466-.778405-3.082646-1.565068-4.351258-1.565618-1.269163-.194326-3.984709-.194326-5.435495 0-1.450236.194876-3.625865-.575271-4.351258-1.548002-.54377-.973282-1.640115-3.115823-2.183885-4.28343-.54432-1.168158-2.000059-3.109217-2.907076-3.888172-.724843-.778405-2.524016-1.950417-3.611555-2.339619-1.08809-.584079-3.820697-1.16981-5.452006-1.16981-1.450787-.194877-4.345755-.194877-5.796541 0-1.450236 0-4.345754.200932-5.79599.395808-1.269163 0-3.264819-.787213-3.990213-1.565618-.725393-.973281-2.361105-2.713407-3.267571-3.492363-.725393-.778405-2.361655-2.335215-3.268122-3.11362-.725393-.973282-2.344043-2.730474-3.250509-3.509429-.725393-.778405-2.361656-2.335215-3.268122-3.11362-.906466-.778406-2.182784-2.536148-2.54548-3.509429-.362697-1.167608-1.262008-3.310699-1.805778-4.28343-.54377-1.168158-1.820087-3.293083-2.54548-4.266365l-1.083687-2.339619 1.083687.774001c.725393.389203 2.181683 1.745081 2.906526 2.717812.725393.973282 2.00171 2.529541 2.54548 3.114171l1.444732 1.169259-.361045-.774001c0-.389203-.736951-1.561214-1.461794-2.339619-.54432-.972732-1.803026-2.713408-2.528419-3.492364-.725393-.972731-2.181683-2.931956-2.906526-3.904687-.725393-.973281-2.164621-2.713407-2.889464-3.492363-.725393-.973282-2.001711-2.91434-2.54548-3.888172-.54432-1.167608-1.640115-3.51108-2.184435-4.679238-.362697-1.361934-1.262008-3.889824-1.805778-5.057431-.362697-1.167608-1.44198-3.310149-2.167373-4.28343-.724843-.973282-2.181133-2.915441-2.906526-3.888172-.54377-.972731-1.820087-2.730473-2.545481-3.509429-.725393-.972731-2.541077-2.529541-3.629167-3.11362-.906466-.778405-3.082095-1.548003-4.351258-1.548003-1.088089 0-3.066684.97053-3.973151 1.943811-.724842.778405-2.361105 2.335215-3.267571 3.11362-.725393.778406-2.181683 2.519082-2.907076 3.492364-.724843.778405-2.181133 2.737079-2.906526 3.904687-.54377.973281-1.623053 3.115822-2.166823 4.28398-.54432.972731-2.00006 2.127127-2.907076 2.322003-.906466.194877-2.902123.01101-3.990213-.378192-1.087539-.584079-3.263718-1.554608-4.351258-1.943811-1.0875391-.584079-3.2637185-1.756091-4.3512578-2.339619-1.0880896-.584079-3.2637186-1.555159-4.3512579-1.944361-1.0880897-.583529-3.2637187-1.75554-4.351258-2.33962-1.0880897-.583528-3.2642691-1.75554-4.3518084-2.339619-.9064662-.583528-2.9021229-1.75554-3.9902125-2.339619-.9064662-.583529-2.8850613-1.738475-3.973151-2.322003-.9064662-.778405-2.7221505-2.151349-3.6286167-2.735428-.9064662-.778405-2.9026732-2.134283-3.9902126-2.717812-.9064662-.778955-2.7227008-2.134283-3.6291671-2.718362-.9064662-.778405-2.7227009-2.335215-3.6291671-3.11362-.7248427-.778405-1.8041264-2.536148-2.166823-3.509429-.1816234-1.167608.1783212-3.310699.7220909-4.28343.7253931-.973282 1.9846492-2.91489 2.5284188-3.888172.7253931-1.167608 2.0017108-3.310148 2.5454804-4.28343.5437697-1.167608 1.6230534-3.310699 2.166823-4.28398.5443201-1.167608 1.6406654-3.310149 2.184435-4.28343.7253931-1.167608 2.0017108-3.310149 2.5454804-4.28343.5443201-1.167608 1.6230534-3.494015 2.1673734-4.662173.5437697-1.167608 1.640115-3.310149 2.1838846-4.28343.54432-1.167608 1.6236037-3.310148 2.1673734-4.28343.5437697-1.167608 1.6401149-3.494565 2.184435-4.662173.5437696-1.167608 1.443081-3.511631 1.8057775-4.679239.5437697-1.167607 1.4430811-3.494014 1.8057776-4.662173.54432-1.361933 1.8206377-3.505024 2.5454804-4.283429.7253932-.973282 2.1816831-2.731024 2.9070763-3.509429.9064662-.778405 2.5251165-2.536148 3.2505097-3.509429.7248427-.973282 2.0011603-2.91489 2.5454804-3.887622.7248427-.973281 2.1816831-2.713958 2.9065258-3.492363.9064662-.973281 2.5256665-2.731024 3.2505095-3.509429.906466-.778405 2.542729-2.335215 3.268122-3.114171.906466-.778405 2.722701-2.335215 3.629167-3.11362s2.722151-2.134283 3.628617-2.717812c1.088089-.584079 3.263718-1.75554 4.351808-2.339619 1.087539-.584079 3.083746-1.756091 3.990213-2.339619 1.087539-.584079 2.903774-1.939407 3.628616-2.718362.725393-.972731 2.703989-1.759945 3.973151-1.565068 1.269163.194326 3.641826.010459 4.729916-.378743 1.087539-.584079 3.44314-1.572224 4.712303-1.960876 1.269163-.389753 3.804737-.957868 5.073899-1.152744 1.269163-.389203 3.444792-1.377348 4.351258-1.961427 1.08809-.583529 3.443691-1.152194 4.712854-1.152194 1.450236-.194876 4.165782-.59674 5.434945-.791617 1.450236-.194876 3.985809-.964473 5.073899-1.548002 1.087539-.584079 2.723802-.968878 3.267571-.774552.54377 0 1.443081 1.154947 1.805778 2.322554.362696.973282.362696 3.316755 0 4.679239-.362697 1.362484-1.082036 4.091306-1.444732 5.453239-.362697 1.167608-1.261458 3.695498-1.805778 5.057982-.362696 1.167607-.362696 3.310148 0 4.28343.362697.778405 1.082036.376541 1.444732-.791067.362697-1.362484.902614-4.07424 1.083687-5.436724.362697-1.556811 1.099097-4.285632 1.461794-5.45324.543769-1.167608 1.623053-3.310148 2.167373-4.28343.54377-.973282 1.263109-2.529541 1.444182-3.11362l.361596-1.565618.739152 2.339619c.54432 1.167607 1.623054 3.511631 2.167374 4.679238.543769 1.167608 1.460142 3.494015 1.822839 4.662173l1.083686 2.33962-1.083686-1.944362c-.54377-.972731-1.640115-2.914339-2.183885-3.887621-.54432-1.167608-1.623053-1.95427-2.167373-1.565618-.362697.389202-.362697 2.146944 0 3.509429.362696 1.362484 1.262008 3.689442 1.806328 4.662173.724842.973281 1.804126 3.316754 2.166823 4.679238.362696 1.362484 1.459042 3.304093 2.184435 3.887621.906466.58408 2.182784.968878 2.54548.774552.54377-.194876 1.982448.391405 2.889464 1.16981 1.08754.583528 3.083747 1.939406 3.990213 2.717811.906466.58408 2.542728 1.370742 3.267571 1.565619h3.629167c1.269163-.194877 3.26482.391404 3.990213 1.169809.906466.778405 2.525667 2.519082 3.25051 3.492364.906466.778405 2.362756 2.536147 2.907076 3.509428.724843.972732 2.00116 2.91434 2.54493 3.887622.725393.973281 2.164621 2.530092 2.889464 3.114171.907017.389202 3.082646.791066 4.351808.791066 1.269163-.194876 3.084847.575271 3.628617 1.548553.54432.972731 2.180032 2.144743 3.268122 2.339619 1.269163.194326 3.444792.963923 4.351258 1.548002 1.088089.584079 2.167373 1.957023 2.167373 2.735428.181073.583529.738052 2.140339 1.100748 3.11362.54377.973282.54377 2.713408 0 3.492364-.362696.583528-1.459592 1.370741-2.184435 1.565067-.725393 0-2.361105-.384798-3.267571-.774001-.725393-.389202-1.624704-2.146944-1.806328-3.509429 0-1.55681-.179972-3.314552-.361045-3.509428l-.361046-.774002-.722641 2.718363c-.181073 1.167607-.738052 3.310148-1.100748 4.28343-.362697.778405-1.981347 1.180269-3.25051.791066-1.08809-.389202-3.263719-1.377347-4.351258-1.960876-1.08809-.584079-3.083746-1.738475-3.990212-2.322554-.906467-.778405-2.542729-2.536147-3.268122-3.509429-.724843-.973281-2.181133-2.731023-2.906526-3.509428-.725393-.973282-2.164071-1.541947-2.889464-1.152745-.54377.389203-.54377 1.946013 0 3.114171.725393.972731 2.164071 2.914891 2.889464 3.887622.725393.778405 2.361105 2.335215 3.268122 3.11362.906466.778405 2.542178 2.519082 3.267571 3.492363.725393.778405 2.541077 1.766551 3.629167 1.960877 1.087539 0 3.443691.385349 4.712304.774551 1.269162.389203 3.624764 1.1588 4.712853 1.548002 1.269163.389203 3.624764 1.360282 4.712304 1.943811 1.088089.584079 3.263718 1.572224 4.351258 1.961427 1.269163.389202 3.984709.957867 5.435495 1.152744.593303 0 1.138174-.139827 1.63351-.292315-.032472-.07762-.075951-.142579-.10292-.224053-.421586-1.263945-1.013238-2.919845-1.01489-2.924249-.013209-.041287-.024216-.143129-.034673-.172306-1.097997-.450858-2.707291-1.487998-3.388103-2.21906-.54377-.973281-.54377-2.529541 0-3.11362.451857-.36388 1.013238-.926489 1.582325-1.462675.052836-1.201188.70558-2.34072 1.875125-2.872502.414982-.188821.843724-.281305 1.272465-.292865.79364-.020919 1.555357.27635 2.167373.774551l.017062.017066c.371503.307178.698425.666103.91142 1.135128.321418.707941.586698 1.295323.773826 1.703243.550924.437096 1.175599.642432 1.565264.223502.725393-.778405 2.164621-2.150798 2.889464-2.734877.906466-.584079 2.182784-1.554608 2.54548-1.944361l.722091-1.169259.361596 2.339619c.362697.972731 1.27907 3.115272 1.822839 4.28343.54432.972731 1.443632 3.316754 1.805778 4.679238.362696 1.361934 1.082586 3.889824 1.445282 5.057431.54377 1.167608 1.460143 2.908285 1.822839 3.492364.54377.584079 1.083687.400212 1.083687-.378743.181073-.972731.361046-2.345675.361046-2.734878 0-.584079 1.096345-.968877 2.184435-.774001 1.269162 0 3.804186-.201482 5.073348-.395808 1.450787-.194877 3.98636-.763542 5.0739-1.152744 1.088089-.584079 3.263718-1.571674 4.351808-1.961427 1.268612-.583529 3.624764-1.554608 4.712303-1.943811 1.269163-.389202 3.804187-1.158799 5.0739-1.548002 1.269162-.389202 3.264819-1.360282 3.990212-1.943811.724843-.778955 1.822289-2.536697 2.184435-3.509979.362146-1.167608 1.621953-2.339069 2.527869-2.339619.906466 0 1.642866 1.172011 1.462344 2.339619 0 1.168158-.556979 3.511631-1.100749 4.679239-.54432 1.168158-1.623603 3.494565-2.167373 4.662173-.54377.973281-1.820087 2.91489-2.54548 3.888171-.54377.972732-1.982998 2.931956-2.889465 3.905238-.725393.778405-2.181683 2.518531-2.906525 3.491813-.725394.778405-2.361656 2.335215-3.268122 3.11417-.906466.778406-2.722701 2.335216-3.629167 3.113621-.906466.583528-2.901573 1.75554-3.990213 2.339619-.906466.583529-3.081545 1.554608-4.351258 1.943811-1.269163.389202-3.624764 1.360282-4.712303 1.94381-1.08809.389203-3.263719 1.561215-4.351258 2.33962-.907017.584079-2.705089 1.939957-3.612106 2.718362-.725393.778405-2.361655 2.335215-3.267571 3.11362-.725393.778405-2.541628 2.151349-3.629167 2.735428-1.08809.583529-3.623663 1.353676-5.073899 1.548002-1.450236 0-4.363367-.183866-5.813602-.378192-1.268613-.389203-3.444242-1.561215-4.351258-2.33962-.724843-.778405-2.344044-2.151348-3.25051-2.735427-.906466-.778405-2.902123-2.134284-3.990213-2.717812-.906466-.778956-2.722701-2.134283-3.629167-2.718362-.906466-.778406-3.082095-1.950417-4.351258-2.33962-1.088089-.584079-3.263718-1.554608-4.351258-1.94381-1.088089-.584079-3.083746-1.756091-3.990212-2.33962-.906466-.778405-2.722701-2.335215-3.629167-3.11417-.906467-.778405-2.542729-2.334665-3.268122-3.113621-.724843-.972731-2.164071-2.91489-2.889464-3.887621-.724843-.973282-2.181133-2.91489-2.906526-3.888172-.54377-.972731-1.623053-2.931956-2.166823-3.904687-.54432-1.168158-1.820087-3.310699-2.545481-4.28398l-1.083686-2.322004-.361046 1.548003c0 .778405.359395 2.920945.722091 4.28343.54432 1.167607 1.623054 3.51163 2.167374 4.679238.543769.973282 1.640115 3.098757 2.183884 4.266364.54432.973282 1.803026 2.931956 2.528419 3.905238.725393.973281 2.181683 2.713408 2.907076 3.492363.906466.778405 2.722701 2.335215 3.628617 3.11362.906466.778406 2.722701 2.335216 3.629167 3.113621.906466.584079 2.902123 1.554608 3.990213 1.943811 1.269162.389753 3.624764 1.377347 4.712853 1.961426 1.08754.584079 3.083747 1.939407 3.990213 2.717812.906466.584079 2.72215 1.939957 3.628617 2.718362 1.088089.584079 3.066684 1.957023 3.973151 2.735428.906466.583529 2.722701 1.939407 3.629167 2.717812.906466.584079 3.082095 1.554608 4.351258 1.944361 1.269162.389203 4.00177.774001 5.452006.774001 1.450786-.194876 4.165782-.579675 5.434945-.774001 1.450786-.389753 3.626415-1.561214 4.351808-2.339619.906466-.778956 2.541628-2.335766 3.267571-3.114171.906467-.778405 2.70564-2.335215 3.612106-3.11362s2.72215-2.134284 3.628617-2.717812c1.088089-.584079 3.443691-1.555159 4.712853-1.944361 1.269163-.389203 3.624214-1.175865 4.712304-1.565618 1.088089-.583529 3.083746-1.738475 3.990212-2.322004 1.08809-.584079 2.903774-1.957022 3.629167-2.735428.906467-.973281 2.542179-2.713407 3.268122-3.492363.906466-.778405 2.541628-2.335215 3.267571-3.11362.906467-.973282 2.525117-2.731024 3.25051-3.509429.725393-.973282 2.002261-2.91489 2.54548-3.887621.045131-.061106.123284-.189372.172268-.258184.285093-.976585.816755-1.871145 1.564713-2.546057.297753-.529579.609264-1.088335.791438-1.47974.54377-1.167607 1.460693-2.724418 1.822839-3.11362l.069348-.068812c.30931-.718952.680812-1.441206 1.083136-2.133183.00055-.003303.016511-.013762.017612-.017065.021465-.270846-.001651-.713446.034123-.998054.164012-1.300829.47112-2.525688.980216-3.801744.017062-.041838.049534-.063307.068797-.103494.053937-1.081179.13209-2.466784.275187-3.388869.362697-1.167608 1.27962-3.494015 1.82339-4.661623.543769-1.168158 1.623053-2.9259 2.166823-3.509979.54432-.778405 1.820638-2.334665 2.54548-3.11362.906466-.972731 2.542178-2.731024 3.268122-3.509429.906466-.778405 2.525117-2.335215 3.25051-3.113621.725393-.973281 2.00171-2.91489 2.54548-3.888171l1.444732-2.33962v.395809c.181073.194876-.178871 1.550755-.722641 2.718362-.54377 1.167608-1.083136 3.126282-1.083136 3.904687 0 .584079.719339.383147 1.444732-.395258.724842-.973282 2.00171-2.91489 2.54548-3.888172.724843-1.167607 1.804677-3.51108 2.166823-4.679238.54432-1.167608.723742-3.109217.361596-3.887622-.181624-.973281-.361596-3.116373-.361596-4.28343.181624-1.168158.738052-2.724417 1.100748-3.11417.362697-.583529 1.262008-1.755541 1.805778-2.33962.725393-.778405 1.625255-2.920945 1.806328-4.28343.362697-1.362484.919675-4.275172 1.100748-5.831982s.361046-4.670431.361046-6.227241c.181073-1.55681 1.080384-2.912688 1.805777-2.718362.906466.194876 3.082095.780607 4.351809 1.169809 1.268612.389203 3.624213 1.159351 4.712303 1.548553 1.269163.389203 3.804186 1.175865 5.073899 1.565618 1.269163.389203 3.642376 1.359732 4.729365 1.943811 1.08809.389203 2.70674 1.74453 3.25106 2.717812.724843.973281 2.541628 2.529541 3.628617 3.11362 1.269163.389753 3.624764 1.176416 4.712854 1.565618 1.269163.389203 3.444792 1.544149 4.351258 2.322554s2.722701 2.335215 3.629167 3.11362c.906466.584079 2.72215 1.957023 3.629167 2.735428.906466.584079 2.722151 1.939407 3.628617 2.718362 1.088089.583529 3.083746 1.939407 3.990212 2.717812.907017.584079 2.525667 2.140889 3.25106 3.11362.906467.778406 2.542179 2.335216 3.267572 3.114171.906466.778405 2.542728 2.334665 3.268121 3.113621.906467.778405 2.542179 2.536147 3.267572 3.509428.906466.778405 2.525116 2.536148 3.25106 3.509429.724842.778405 2.181683 2.519082 2.906526 3.492364.906466.778405 2.542178 2.536147 3.267571 3.508878.725393.778956 2.164621 2.335215 2.889464 3.114171.906466.778405 2.362756 2.720014 2.907076 3.887621.724843.973282 2.361656 2.731024 3.267572 3.509429.906466.584079 2.542178 2.140889 3.26647 3.11362.726494.973282 1.805227 3.115823 2.168474 4.283981.544871 1.167607 1.640115 3.310148 2.184986 4.28343.726494.973281 2.344594 2.713958 3.247207 3.492363.908117.778405 2.366609 2.536147 2.911479 3.509429.720991.972731 1.997859 3.115822 2.542729 4.28343.54487 1.167607 1.623604 3.494015 2.168474 4.662173.54487.972731 1.821738 2.730473 2.542729 3.509429.908117.778405 2.526217 2.519081 3.252711 3.491813.726494.973281 2.179481 2.731023 2.905975 3.509979.908118.778405 2.542729 2.536147 3.269223 3.508878.726494.973282 1.084237 3.115822.72099 4.283981-.363247.972731-1.260357 3.098206-1.805227 4.266364-.544871.972731-1.821739 2.931956-2.548233 3.905237-.72099.972732-2.179481 2.914891-2.905975 3.887622-.72099.778405-2.344594 2.536147-3.247208 3.509429-.726493.778405-2.361105 2.335215-3.269222 3.11362-.726494.778405-2.361105 2.335215-3.269222 3.114171-.726494.778405-2.361106 2.334665-3.269223 3.11362-.902613.778405-2.718848 2.335215-3.626965 3.11362-.908118.584079-2.702338 1.939958-3.610455 2.718363-.907016.778405-2.723251 2.335215-3.629717 3.11362-.906467.583529-2.902123 1.75554-3.990213 2.339619-.906466.583529-2.902123 1.738475-3.990212 2.322004-1.08809.584079-3.443141 1.572224-4.712854 1.961426-1.08754.389203-3.443141 1.360282-4.712304 1.943811-1.088089.389202-1.447484 1.360282-.722091 1.944361.724843.389203 2.524016.389203 3.611556 0 1.269162-.389753 3.641825-1.176416 4.729915-1.565618 1.269163-.584079 3.624764-1.554608 4.712303-1.944361 1.08809-.583529 3.083747-1.75554 3.990213-2.339619 1.08809-.778406 3.066685-2.133733 3.970399-2.717812.908117-.778405 2.724352-2.133733 3.632469-2.717812.908118-.778956 2.718849-2.151349 3.626966-2.735428 1.089741-.778405 2.905976-2.335766 3.632469-3.114171.902614-.778405 2.542729-2.334664 3.263719-3.11362.908117-.972731 2.526217-2.713408 3.252711-3.492363.908118-.778405 2.542729-2.334665 3.269223-3.113621.726494-.972731 2.179481-2.731023 2.905975-3.509428.908117-.972732 2.361105-2.91434 2.905976-3.887622.726493-.973281 1.98685-2.91489 2.526217-3.888172.726494-1.167607 1.821738-3.51108 2.184985-4.679238.363247-1.361934.544871-3.889824.363247-5.057431 0-1.167608-.919125-3.109217-1.821738-3.888172-.726494-.972731-2.344594-2.731024-3.252711-3.509429-.726494-.778405-2.361105-2.335215-3.269223-3.11362-.726494-.973282-2.179481-2.731024-2.905975-3.509429-.726494-.973282-1.981347-3.098757-2.526218-4.266365-.363247-1.167607-1.458491-3.310148-2.184985-4.28343-.54487-1.167607-1.821738-3.126832-2.548232-3.905237-.72099-.973281-2.344594-2.713958-3.247208-3.492363-.908117-.778405-2.361105-2.536147-2.905975-3.509429-.544871-1.167608-1.623604-3.310148-2.168474-4.28343-.544871-1.167608-1.821739-3.310148-2.548233-4.28343-.72099-.973282-2.359454-2.713958-3.26592-3.492363-.724843-.778405-2.164621-2.536148-2.889464-3.509429-.54377-.973282-2.00006-2.713408-2.906526-3.492364-.906466-.778405-2.542178-2.335215-3.267571-3.11362-.725393-.973281-2.181133-2.931956-2.907076-3.905237-.724843-.972731-2.344044-2.713408-3.25051-3.491813-.725393-.778956-2.181683-2.335766-2.906526-3.114171-.725393-.972731-2.361655-2.730473-3.268122-3.509429-.906466-.778405-2.525116-2.335215-3.250509-3.11362-.725393-.973282-2.361656-2.731024-3.267572-3.509429-.907016-.778405-2.7227-2.134283-3.629167-2.717812-.906466-.778955-2.722701-2.335765-3.629167-3.11417-.725393-.778406-2.541628-2.134284-3.629167-2.717812-.906466-.778405-2.72215-2.151349-3.629167-2.735428-.906466-.778405-2.705089-2.335215-3.611555-3.11362s-3.081545-1.933352-4.351258-2.322554c-1.08809-.389203-3.443691-1.176416-4.712854-1.565618-1.087539-.389203-3.083196-1.560664-3.990212-2.339619-.724843-.972732-2.361656-2.713408-3.267572-3.492364-.725393-.778405-2.541628-2.151349-3.629167-2.734877-.906466-.778405-2.902123-2.134283-3.990212-2.718362-.906467-.583529-3.082096-1.554609-4.351258-1.943811-1.08809-.389203-3.623664-.974933-5.0739-1.16981-1.269162-.389202-3.084847-1.946012-3.629167-3.11362-.362696-1.167608-.542669-3.310148-.361045-4.28398.181073-.972732.181073-3.299139 0-4.661623-.181073-1.55681-.181073-4.487114 0-5.849048.181073-1.55681.72099-3.699901 1.083686-4.28343.362697-.584079.542669-2.324756.361046-3.492363 0-1.167608 0-4.0973616 0-5.8490483s-.179972-5.0491736-.361046-6.6059837c0-1.5568102-.359944-4.4871144-.722641-5.8490481-.181073-1.3624841-.540467-4.2751724-.722091-5.8319826-.181623-1.5568101-.541017-4.4694984-.722641-5.8319826-.181073-1.5568101-.541018-4.6704304-.722091-6.2272406 0-1.7516867-.556978-4.4805084-1.100748-5.4532395-.54432-1.1681581-1.803026-3.3106989-2.528419-4.2839805-.54377-.9727311-2.00006-2.7310237-2.906526-3.5094288-.725393-.9727311-2.164621-2.7134078-2.889464-3.4918129-.725393-.9732816-2.181133-2.9325062-2.906526-3.9052373-.54432-1.1676076-2.00061-3.1097669-2.907076-3.8881719-.724843-.7784051-2.164622-2.3352153-2.889464-3.1136203-.724843-.9732816-2.361656-2.7139583-3.267572-3.4923634-.906466-.7784051-2.722701-2.1513487-3.629167-2.7354278-.906466-.778405-2.542178-2.5190817-3.267571-3.4918128-.725393-.9732816-2.362206-2.5300918-3.268122-3.1141709-.906466-.778405-2.884511-2.1513486-3.973151-2.7348772-.906466-.5840791-3.081544-1.5546082-4.351258-1.9443612-1.269162-.3892025-3.264819-1.5606637-3.990212-2.3396192-.725393-.9727311-2.7216-2.3286093-3.990213-2.7178118-1.088089-.5840791-3.443691-1.3707416-4.712854-1.5656182-1.268612-.3892025-3.821247-.573069-5.09096-.3781925-1.268613 0-3.984159 0-5.434395 0-1.269162-.1948765-3.624764.1904725-4.712853.7740011-1.08809.3892025-3.263719 1.3602821-4.351258 1.9438107l-1.805778.7745516 1.444182-1.5485527c.907016-.7784051 2.722701-2.1342832 3.629167-2.7178118 1.08809-.5840791 3.083746-1.5722241 3.990212-1.9614267l1.806328-.77400105-2.889464.39580855c-1.269163.194326-3.624764.9639231-4.712854 1.5480021-1.088089.5840791-2.543829 1.5546082-2.906526 1.9438107-.181623.3892026-1.097996 1.7621462-1.823389 2.7354278-.724843.7784051-1.804677.3936065-2.166823-.7740011-.181624-1.3624841-.72099-3.9074393-1.083687-5.075047-.362696-1.3624841-1.459042-3.68889136-2.184435-4.66217296-.308209-.41397497-.813453-1.00466002-1.3242-1.56561813-.957101-.55435213-2.411189-1.36358513-2.493745-1.41037752-1.095245-.61655848-1.601039-.99365005-2.270294-1.42799347-.28069.01596446-.55918.0374339-.791438.1205592-1.087539.19487652-3.263718 1.16540562-4.351258 1.9438107-.906466.58407906-2.7227 1.93940671-3.629167 2.71836229-.906466.58352856-3.262067 1.37074162-4.712303 1.56561813-1.269163 0-3.444792.58573056-4.351258 1.16925912l-1.462344 1.17036014h2.906526c1.450786-.19487655 4.165782-.01101 5.435495.3781925 1.268612.3892026 3.444792 1.5612142 4.351258 2.3396193.906466.584079 2.362756 1.1698096 2.906526 1.1698096.725393-.1948765.54542-.9644736-.361046-1.5480022-.906466-.7789556-1.823389-2.3357657-1.823389-3.11417082 0-.9727311.916923-2.73102376 1.823389-3.50942884.906466-.77840507 2.902123-1.36413563 3.990213-1.16980961 1.269162.19487652 3.084847 1.55075467 3.628616 2.71836229.725394.9727311 1.805228 3.11582228 2.167374 4.28342988.543769 1.1676077.364347 2.5405513-.361046 2.7354278-.725393 0-1.625254-.7872131-1.806328-1.5656181v-1.9438107l-1.100748 2.3396192c-.362146 1.1676076-1.981347 2.9082843-3.25051 3.4923634-1.087539.3892025-3.640725.5901345-5.09096.395258-1.269163-.194326-3.984159-.194326-5.434945 0-1.450236 0-4.345754-.200932-5.79599-.395258l-2.545481-.7745516 2.545481-.3781926c1.450236-.1948765 3.805837-.7806071 4.712303-1.1698096l1.806328-.7916171-2.528419-.774001c-1.088089-.3892026-3.263718-.1882706-4.351258.3958085-1.088089.3892025-3.083746.5730691-3.990212.3781925-.906466-.194326-1.446383-1.5502041-1.083687-2.7178117.54377-1.16760766 1.982998-3.10976687 2.889464-3.88817194.906467-.77840508 2.902123-1.95041669 3.990213-2.33961923 1.269163-.38920254 3.624764-1.17586509 4.712854-1.56506763l2.54493-.77455159-2.54493-.77400109c-1.08809-.58407906-3.263719-1.37074162-4.351809-1.56561813-.226754-.04844389-.496987-.03963591-.808499 0z" stroke-width=".7"/><path d="m351 344h-1 .400121z" stroke-width=".7"/><path d="m403.395934 340c2.346418-2.341302 3.970228-3.902722 4.692287-4.683156.9023-.975266 2.527206-2.731519 3.25036-3.511952.898465-.780434 2.525563-2.341302 3.248717-3.121736.898465-.780434 2.706351-2.341302 3.604816-3.121736l1.807886-1.56142-2.525562.390217c-1.084732.195384-2.88714 1.366035-3.610294 2.341854-.723155.975266-2.344774 2.731519-3.248717 3.511953-.722607.780434-2.346417 2.341301-3.249265 3.121735-.721511.780434-2.345869 2.536687-3.248169 3.512505-.722059.780434-1.263329 1.951085-1.083088 2.341302z" stroke-width=".7"/><path d="m215 337.529617-2-3.529617v1.058735c0 .529618.428448 2.11797.857329 3.176706l.856895 1.764559v-1.058735z" stroke-width=".7"/><path d="m372.802742 271.027314c-.375121-.03949-.716542-.036748-.989457.012067-.909903.193614-1.092215 1.163329-.364072 1.938881.728144.775553 2.183878 2.52082 2.912022 3.489987.728143.775552 2.183878 2.52082 2.912021 3.490535.727591.969166 2.183878 2.714433 2.911469 3.489986.909903.775553 2.54795 2.326658 3.276093 3.10221.909903.775553 2.54795 2.52082 3.276094 3.489987.909903.775552 2.547397 2.327206 3.27554 3.102758.909904.775553 2.72971 2.326658 3.640165 3.10221.909904.775553 2.547398 2.326658 3.275541 3.10221.909903.775553 2.72971 2.326658 3.640165 3.102759.909903.58139 2.72971 1.938881 3.639613 2.714434.909903.775552 2.729709 2.326657 3.639612 3.10221.910456.581939 2.730262 1.938881 3.64127 2.714434 1.088348.581939 2.911469 1.938881 3.640718 2.714982.906036.775553 2.546845 2.326658 3.276093 3.10221.906036.775553 3.093781 1.356943 4.364441 1.163329l2.546845-.387776c2.734682-1.938881 4.552278-3.296373 5.463839-3.877763 1.088348-.776101 3.093781-2.133043 3.999817-2.714982 1.093872-.58139 3.276093-1.551105 4.369965-1.938881 1.276185-.387777 3.82303-.969167 5.09369-1.163329 1.458497-.387777 4.187654-.969715 5.463839-1.163329 1.27066-.387776 3.999817-.969715 5.458314-1.163329 1.452972-.194162 4.369965-.387776 5.822938-.387776h5.458314 2.552369l-2.187745-1.163329c-.906036-.775552-3.276093-1.357491-4.729066-1.163329-1.458497 0-4.552278.193614-6.187562.387777-1.458497 0-4.369966.193613-5.822938.387776-1.276185.193614-3.82303.775552-5.099214 1.163329-1.270661.193614-3.82303.775552-5.09369 1.163328-1.276185.387777-3.640718 1.356943-4.73459 1.938882-1.088348.387776-3.276093 1.357491-4.364441 1.938881-1.093873.581939-3.276094 1.745268-4.369966 2.326658-.911561.581938-2.729157 1.551653-3.640718 1.93943-.906036.193613-2.729157-.387777-3.640717-1.163878-.723724-.969166-2.364533-2.714434-3.276094-3.489986-.723723-.775553-2.546844-2.133044-3.635192-2.714434-.911561-.775553-2.732472-2.133044-3.642375-2.714434-.909903-.775552-2.72971-2.133044-3.639613-2.714982-.909903-.775553-2.912021-2.132495-4.004236-2.714434-.909904-.775553-2.72971-2.326658-3.639613-3.10221-.728144-.775553-2.36619-2.326658-3.276093-3.10221-.727591-.969715-2.365638-2.52082-3.275541-3.102759-.909903-.775553-2.36619-2.520272-2.912022-3.489986-.545831-1.163329-2.183878-2.908597-3.276093-3.489987-.909903-.775552-2.547397-2.326657-3.275541-3.102758-.728143-.969167-1.819806-2.908048-2.183878-3.877763l-.728143-1.938881-2.183878-1.163329c-.818747-.581939-2.252383-1.057472-3.378299-1.175396z" stroke-width=".7"/><path d="m213.780542 278.562638c-2.561084-2.321507-2.927032-3.095343-2.561084-3.095343s1.64649.58065 2.561084 1.160753c1.097845.580651 3.109729 1.354487 4.024323 1.547672l2.195135.386918-1.463239-1.547672c-.548645-.967021-2.012438-2.321507-2.927032-2.708425-.914594-.58065-2.927032-1.741404-4.024323-2.321507-.914593-.773836-2.561083-1.741405-3.29298-1.93459-.548645-.193732-1.097291.193185-1.097291.773836 0 .386918-.5492.773836-1.097845.773836-.365948-.193733-.914593.193185-1.09729.773836 0 .580103.914594 1.934589 1.829187 2.708425.914594.773836 2.743781 2.321507 3.658374 3.095343.915149.580651 2.195136.967568 2.561084.773836z" stroke-width=".7"/><path d="m386.264026 273.602763c2.90572-1.787848 5.084873-2.97956 6.174174-3.575135 1.089852-.596137 3.087087-1.787848 3.995572-2.383985.907934-.794474 2.542437-2.383423 3.268453-3.177897.907935-.794475 2.724355-2.383423 3.632289-3.177898.907934-.794474 2.542437-2.383423 3.268453-3.177897.726568-.993374 2.179153-2.781222 2.905721-3.575697.907934-.992812 2.543539-2.78066 3.271209-3.575134.722158-.993374 1.995582-2.97956 2.541334-3.972372.727671-.993374.904076-1.986748.363836-1.986748-.545753 0-1.819177.993374-2.546847 1.986748-.722158.794474-2.358314 2.581761-3.266248 3.575134-.726568.794475-2.36107 2.383424-3.269005 3.177898-.726016.794474-2.360519 2.383423-3.268453 3.177897-.726568.795037-2.36107 2.582323-3.269005 3.575697-.726568.794474-2.360519 2.383423-3.269004 3.177897-.907934.596137-2.905169 1.787849-3.995021 2.383423-1.089301.596137-3.268454 1.787849-4.358306 2.383424-.907934.596136-2.90572 1.787848-3.995021 2.383985-1.089852.397237-3.087087 1.390049-3.995572 1.986185l-1.452585 1.191712h.363284 3.631737z" stroke-width=".7"/><path d="m128 164 1.085913 2.320127c.542957 1.159791 1.629419 3.2858 2.172376 4.252565.724309.966218 2.172376 2.899749 2.896684 3.865968.724309.966765 2.172376 2.899749 2.896685 3.866514.723759.773194 1.991024 2.512606 2.53453 3.479371.723759.966219 1.991024 3.092774 2.53453 4.252565.723759.966765 1.810222 3.093321 2.172376 4.253111.542957 1.15979 1.629419 3.479371 2.172376 4.639161.723759.966766 1.810222 3.092774 2.172376 4.252565.542956 1.15979 1.629419 3.479918 2.172376 4.639708.542956.966218 1.629419 3.092774 2.172376 4.252564.542956 1.159791 1.629419 3.479918 2.172375 4.639708.542957.966219 1.62942 3.092775 2.172376 4.252565.542957 1.15979 1.62942 3.479371 2.172376 4.639161.542957.966766 1.62942 3.093321 2.172376 4.253112.542957.966218 1.629419 3.092774 2.172376 4.252564.724308.966765 1.991574 3.092774 2.53453 4.253111.542957.966219 1.629419 3.092775 2.172376 4.252565.724309.966765 1.991574 2.899749 2.53453 3.865968.724309.966765 1.991574 2.899749 2.53453 3.866514.724309.966219 1.991574 3.092774 2.53453 4.252565.724309.966765 1.991574 2.899749 2.534531 3.865967.724308.966766 1.991573 3.093321 2.53453 4.253112.724308.966218 1.991024 2.899202 2.53453 3.865967.723759.966766 2.172376 2.89975 2.896684 3.865968.723759.773194 2.172376 1.546934 2.896135 1.546934l1.448617-.387144c-1.448617-2.899202-2.53453-4.832186-3.258839-5.798951-.724308-.966766-2.172376-2.899749-2.896684-3.865968-.542957-.966765-1.810222-2.899749-2.53453-3.866514-.542957-.966219-1.810222-2.899203-2.53453-3.865968-.542957-1.15979-1.810222-3.286346-2.533981-4.252565-.543506-.966765-1.810771-2.899749-2.53453-3.866514-.543506-1.159791-1.629419-3.286346-2.172376-4.252565-.543506-1.15979-1.810771-3.286346-2.53453-4.253111l-1.086463-1.932984 1.448617.773194c.723759.386596 1.991024.966765 2.533981 1.15979.543506 0 .362154-.966219-.361605-1.932984-.724308-.966218-1.991573-2.899202-2.53453-3.865968-.543506-1.15979-1.810771-3.286346-2.53453-4.252564-.543506-.966765-1.629419-3.093321-2.172376-4.253111-.543506-1.159791-1.629419-3.286346-2.172376-4.252565-.543506-1.15979-1.629419-3.479371-2.172376-4.639708-.543506-1.15979-1.629419-3.285799-2.172925-4.252565-.542957-1.15979-1.62887-3.286345-2.172376-4.252564-.542957-1.15979-1.810222-3.286346-2.53453-4.253111-.542957-1.159791-1.62887-3.479371-2.172376-4.639162-.361605-1.15979-1.448068-3.286346-2.172376-4.253111-.723759-.966218-2.172376-2.706177-2.896135-3.479371-.724308-.966218-2.172376-2.899749-2.896684-3.865968-.542957-.966765-1.810222-2.899749-2.53453-3.866514-.542957-1.15979-1.810222-3.092774-2.534531-3.865968-.724308-.966218-2.353178-2.706177-3.258838-3.479371-.723759-.966765-2.353178-2.706177-3.258289-3.479371-.724309-.77374-2.172376-1.739959-2.896685-1.93353z" stroke-width=".7"/><path d="m414 212-1.458627 2.32172c-.549065.967109-1.829661 2.902423-2.560084 3.869532-.730977.773907-2.192377 2.51547-2.923354 3.482579-.547956.967657-1.826889 3.096174-2.557866 4.257033-.547956.96711-1.644422 3.095626-2.192377 4.256486-.547956.967657-1.644422 3.095626-2.192377 4.257033-.547956 1.16086-1.826889 3.288829-2.557866 4.256486-.547956.967657-1.826889 2.902423-2.557866 3.869533-.547956.967656-1.826888 2.902423-2.557866 3.87008-.730977.967109-2.192377 2.901875-2.923354 3.869532-.730423.773907-1.826889 2.708673-2.192377 3.869533l-.730423 2.322266 1.4614-1.54836 1.826889-1.547813-.730423 1.16086c-.183022.580703-1.278933 2.128516-2.192377 3.096173-.730977.773907-2.375399 2.32172-3.288843 3.095626-.913444.580156-2.923355 1.934767-4.019266 2.708673-.913999.580704-2.192377 1.934766-2.557866 2.708673-.365488.580703.365489.967657 1.4614.773906l2.557866-.773906c2.923354-1.741016 4.93271-3.095626 5.846709-3.869533.913444-.773906 2.557311-2.321719 3.288288-3.095626.730977-.967657 2.00991-2.902423 2.557866-3.87008.730977-.967109 2.00991-3.095626 2.557866-4.256485.547955-1.16086.182467-2.128517-.730978-1.934767-.730422.193203-1.461399-.19375-1.461399-.773906.182467-.773907 1.095911-2.32172 1.826888-3.095626.730977-.967657 2.192377-2.70922 2.923354-3.483127.730978-.967109 2.009356-3.095626 2.557866-4.256486.547956-1.160859 1.644422-3.289376 2.192377-4.257033.547956-1.160859 1.644422-3.288829 2.192377-4.256486.730978-1.160859 2.009911-3.289376 2.557866-4.256485.730423-.967657 2.009356-2.902423 2.557866-3.87008.730423-.96711 2.011019-2.901876 2.560084-3.869533.726541-1.160859 1.458627-2.902423 1.458627-3.482579z" stroke-width=".7"/><path d="m409 211-1.08024.394215c-.539847 0-1.799855 1.182644-2.520015 2.365288-.539847.985258-1.799854 2.956889-2.520015 3.942147-.539847.985815-1.799854 2.956889-2.520014 3.942146-.719614.78843-2.159935 2.562675-2.879548 3.54849-.720161.985258-2.159935 2.956889-2.880095 3.942147-.72016.788429-2.340248 2.562674-3.240175 3.547932-.719614.78843-2.159934 2.562675-2.879548 3.54849-.720161.788429-2.159935 2.562117-2.880095 3.547932-.72016.78843-1.980168 2.562674-2.520015 3.547932l-1.08024 1.971074 1.800401-1.182644c.899927-.78843 2.159934-1.576859 2.520014-1.576859.359534 0 .179767 1.182644-.36008 2.365288-.540393.985816-1.620087 3.154275-2.159934 4.336919-.540394.985258-.900474 2.16846-.720161 2.365288l.720161.394215c1.799854-2.956889 3.239628-4.927962 3.959788-5.91322.720161-.985816 1.980168-2.956889 2.520015-3.942705.719614-.985258 1.979621-2.956331 2.520015-3.942147.539847-1.182644 1.619541-3.351103 2.159934-4.336361.719614-1.183202 1.979621-3.351104 2.520015-4.336919.719613-.985258 1.979621-2.956889 2.520014-3.942147.719614-1.182644 1.979621-3.351104 2.520015-4.336919.719614-.985258 1.979621-2.956332 2.519468-3.942147.72016-.985258 1.980167-2.956889 2.520014-3.942147z" stroke-width=".7"/><path d="m457 250c-2.591343-2.428572-4.2552-4.048193-5.182687-4.857717-.74199-1.011618-2.405846-2.833334-3.333333-3.642858-.74199-.809524-1.48398-.606856-1.48398.404762 0 .809524.927487 2.428572 1.854975 3.238096.927487.809524 2.591343 2.429145 3.333333 3.238669.927487.809524 2.591343 1.619048 3.333333 1.619048z" stroke-width=".7"/><path d="m112 248.61541c-3.138354-1.730929-5.169317-2.884699-6.277268-3.461857-.923012-.76918-2.769037-2.307541-3.692049-3.076722-.738634-.769181-2.2153415-2.500109-2.9539755-3.461312-.5536952-.961748-1.8460245-2.8847-2.5846585-3.846447-.5536952-1.153771-1.8460245-3.268746-2.5846585-4.230493-.5536952-.961204-1.8460245-2.884699-2.584098-3.845903-.738634-.961748-2.0309633-2.115519-2.5846585-2.307542l-.738634-.385134 1.1073905 1.923495c.738634.961204 1.6616463 3.461313 1.846585 4.999674.369317 1.346338 1.4767075 3.461312 2.2153415 4.231037.9230122.769181 2.5846585 2.499565 3.322732 3.461313.9230123.76918 1.846585 2.500108 1.846585 3.461312 0 .769181.9230122 2.307542 1.846024 3.076722.923013.577158 2.769037 1.923496 3.69205 2.692676 1.10795.576614 3.692609 1.153771 5.169317 1.153771z" stroke-width=".7"/><path d="m123 246c-2.719094-1.959901-4.35044-3.723037-5.075055-4.702987-.725165-.979397-2.174945-2.939298-2.90011-3.918695-.543599-.97995-1.631346-2.939297-2.174945-3.919248-.543599-1.175608-1.812362-3.330613-2.537528-4.310564-.725165-.97995-2.174945-2.351216-2.90011-2.743086l-1.44978-1.175608 1.087198 2.351217c.544149 1.175608 1.631346 3.526824 2.174945 4.702433.544149.97995 1.812913 2.939298 2.537527 3.919248.725165.783739 1.993929 2.546874 2.537528 3.526825l1.45033 1.567478-2.174945-1.175609c-.906181-.587527-2.719094-1.959347-3.625275-2.743086-.725165-.97995-2.174945-2.743085-2.90011-3.527379-.724615-.979396-2.174945-2.743086-2.89956-3.526824-.725165-.979397-2.174945-2.939298-2.90011-3.918695-.543599-1.175608-1.8123624-3.134955-2.5375275-3.919248-.7251651-.979397-2.3565114-2.743086-3.2626926-3.526825l-1.4497799-1.959347.7251651 1.959347c.3625825.783739 1.2687637 2.547428 1.8123624 3.526825.7251651.979951 2.174945 2.939298 2.9001101 3.919248.7246144.979397 2.1749454 2.939298 2.8995594 3.918695.725165.783738 2.174945 2.547428 2.90011 3.526824.725165.979951 2.356512 2.743641 3.262693 3.527379.906181.587527 2.537528 1.959348 3.262142 2.743086.906732.783739 2.719094 2.351217 3.625275 3.134956.906182.783739 3.262143 1.959347 4.712473 2.351216z" stroke-width=".7"/><path d="m112 243.9504c-2.754087-2.082185-4.589773-3.747932-5.507617-4.580806-.917843-.832873-2.570184-2.498621-3.304681-3.331495-.73394-1.041386-2.386281-2.915647-3.3041244-3.74852-.7344975-.832874-1.6523407-1.457235-1.8356865-1.249311-.183903.208513.1833458 1.457824.7339402 2.498621.7344976 1.041387 2.2029357 3.123571 2.9374327 4.164958.734498 1.040797 2.386838 2.915058 3.304682 3.747931.917843.62495 2.753529 2.082185 3.671373 2.915058.917843.62495 2.202935.832874 2.570183.416437z" stroke-width=".7"/><path d="m103.266865 184c-.35582 0-.35582 1.159521 0 2.319042.534811 1.159522 1.425443 3.672091 1.781803 5.025139.534271 1.159521 1.424902 3.478564 1.781263 4.638085.534271 1.159521 1.603353 3.478564 2.137623 4.638085.534271 1.160068 1.424902 3.672091 1.781263 5.025139.356361 1.159521 1.069082 3.478563 1.425443 4.638085.53427 1.159521 1.424902 3.67209 1.781263 5.025138.53427 1.159522 1.424901 3.478564 1.781262 4.638085.534271 1.159521 1.424902 3.672091 1.781263 5.025139.534271 1.159521 1.425443 3.67209 1.781263 5.024592.35636 1.159521 1.069082 3.478564 1.425442 4.638631.534271 1.159522 1.424902 3.671544 1.781263 5.024592.356361 1.353049 1.069082 2.51257 1.424902 2.319043l1.069082-.386507c-.890631-4.058598-1.603353-6.37764-2.137623-7.343635-.356361-1.160067-1.069082-3.67209-1.424902-5.025138-.178451-1.353048-.891172-3.672091-1.425443-4.638085-.534271-1.159521-1.603353-3.479111-2.137623-4.638632-.356361-1.352501-1.246992-3.865071-1.781263-5.024592-.356361-1.159521-1.246992-3.47911-1.781263-4.638631-.35636-1.352502-1.246992-3.865071-1.781803-5.024592-.35582-1.159522-1.246992-3.478564-1.781263-4.638632-.356361-1.159521-1.246992-3.478564-1.781263-4.638085-.53427-1.159521-1.603352-3.478564-2.137623-4.638085-.356361-1.159521-1.246992-3.47911-1.781263-4.638631-.35636-1.352502-1.246992-2.70555-1.781803-2.70555z" stroke-width=".7"/><path d="m153.157631 160.050776c-1.243454 0-3.730363.389463-4.973818.778927-1.242915.195007-3.907769.389463-5.328628.389463-1.243455 0-2.13156.778927-1.77621 1.557854.532755.584471 1.953615 1.947317 2.84172 2.726244.888644.58447 2.664853 1.947868 3.552958 2.726795s2.664314 2.33678 3.552419 3.115707c.888105.584471 1.776209 2.531788 1.776209 3.894634.177945 1.363398-.71016 2.142325-1.776209 1.557854-.888105-.778927-2.842259-1.75231-3.907769-1.947317l-2.131559-.778927 1.42086 1.947317c.710699.973934 2.309503 2.726795 3.197608 3.505722.888105.58392 2.486909 1.947317 3.197069 2.726244.888644.778927 2.309504 2.726244 2.842259 3.894634.7107.973934 1.77621 3.116258 2.131559 4.284649.533295 1.16839 1.598805 3.505171 2.13156 4.673561.533294 1.16839 1.598804 3.505171 2.131559 4.673561.533294.973934 1.421399 3.116258 1.776749 4.284649.532755 1.16839 1.598265 3.50517 2.131559 4.673561.532755 1.16839 1.42086 3.505721 1.776209 4.674112.532755 1.16839 1.598805 3.50517 2.13156 4.673561.532755 1.16839 1.598804 3.505171 2.131559 4.673561.532755.973934 1.776209 2.921251 2.486909 3.895185.710699.778927 1.776209 2.726244 2.131559 3.894634.532755.973934 1.77621 2.921251 2.486909 3.895185.7107.778927 1.954154 1.557854 2.486909 1.557854h1.42086c-2.131559-2.531788-3.375014-4.674112-3.907769-5.842502-.532755-1.168391-1.598804-3.505171-2.131559-4.673561-.35535-1.168391-1.243455-3.310715-1.77621-4.284649-.533294-1.16839-1.598804-3.505171-2.131559-4.673561-.35535-1.363397-1.243454-3.894634-1.776749-5.063025-.35481-1.168941-1.243454-3.505721-1.776209-4.674112-.532755-1.16839-1.598804-3.310714-2.131559-4.284097-.532755-1.16839-1.598805-3.505722-2.13156-4.674112-.355349-1.16839-1.243454-3.505171-1.776209-4.673561-.35535-1.363398-1.243455-3.700178-1.77621-4.674112-.533294-1.168391-1.421399-3.699627-1.776748-5.063025-.177406-1.557853-.888105-4.089641-1.42086-5.063024-.532755-1.168941-1.598804-3.505722-2.131559-4.674112-.35535-1.168391-1.243455-3.505171-1.77621-4.673561-.533294-1.168391-2.309504-2.726244-3.552958-3.115708-1.06551-.390014-1.953615-1.558404-1.77621-2.337331.177406-.778927 1.06605-1.557854 1.77621-1.557854.888105 0 3.019664.195007 4.263118.389464 1.243455 0 3.375014.778926 4.263658 1.557853.888105.778927 3.019664 1.947868 4.263119 2.337332 1.243454.194456 3.907768.389463 5.328628.389463 1.421399 0 2.309504-.584471 1.776749-1.168941-.35535-.58392-2.131559-1.16839-3.552958-1.16839-1.42086-.194457-3.907769-.973383-4.973818-1.557854-1.06551-.58392-3.19707-1.557854-4.263119-1.947317-1.06551-.584471-3.552419-.973934-4.973818-.778927z" stroke-width=".7"/><path d="m175.600313 205.000663c-.168246.006086-.313908.048687-.407064.146613-.371496.195301-.185748 1.564617.37206 2.73808.558372 1.173463 1.673987 3.325088 2.231794 4.30325.74412.977609 2.046047 3.129234 2.603855 4.302697.74412.978162 2.046047 2.933934 2.603855 3.911543.744119.978162 2.231794 2.933933 2.975914 3.912096.74412.782308 2.231795 2.542226 2.975914 3.520388.743556.977609 2.231795 2.933934 2.97535 3.911543.74412.782308 2.23236 2.542779 2.975915 3.520941.929867.782309 2.418107.977609 2.975914.391154l1.11618-1.174016c-2.046047-2.93338-3.534287-4.693851-4.464154-5.476159-.743555-.978163-2.231795-2.933934-2.97535-3.911543-.558372-.978162-1.860299-2.933933-2.603855-3.912096-.558372-.977609-1.859734-2.93338-2.603854-3.911542-.74412-.978163-2.046047-2.933934-2.603855-3.911543-.557807-1.173463-2.046047-3.129787-2.975914-3.912096-.74412-.977609-2.417543-2.73808-3.34741-3.520388-.558372-.587008-1.319429-.94718-1.825295-.928922z" stroke-width=".7"/><path d="m182 194.136518c-1.833544-2.707318-3.333671-4.151084-4.333418-4.692241l-1.666582-1.444277.666329 2.16616c.50038 1.082825 1.667089 3.067748 2.333418 3.970358.666835.721883 1.667088 1.082824 2 .721883z" stroke-width=".7"/><path d="m187 184.000162c-1.640109-3.599855-2.664867-6.000324-3.279597-7.200275l-.820054-2.799887-.820055 2.399903c-.204703 1.199952 0 3.60042.410027 4.800372.61473 1.199951 1.844812 3.599854 2.459542 4.799806l1.64011 1.999919v-1.999919z" stroke-width=".7"/><path d="m191.808315 175.997851c.387384-3.857112.129389-5.887896-.258387-6.496671-.258387-.812084-.774768-.60935-1.033155.406042-.258386.812083-.516773 3.248335-.516773 4.872503 0 1.421434.258387 3.451644.516773 4.060994.387384.406042.904158 0 1.033155-.812658z" stroke-width=".7"/><path d="m145 149 .717145 2.749861c.358573 1.178512 1.433747 3.339395 2.150892 4.321766.89616.785675 3.226611 1.76749 4.660357 1.964187 1.433747 0 4.12277.19614 5.377503.392837 1.433746.196141 3.584638.785674 4.301784 1.178512l1.792319.392837c-2.509465-2.357024-4.660357-3.142698-6.094103-3.142698-1.434291 0-4.12277-.392838-5.377503-.785675-1.075718-.392837-2.868037-1.768046-3.585183-2.750417-.537587-.981815-1.792319-2.553164-2.50892-3.142698z" stroke-width=".7"/><path d="m246.684432 79h-.684432.228144z" stroke-width=".7"/><path d="m255 78h-2 .857329z" stroke-width=".7"/><path d="m247 72-4-2 .800121 1.1428571c.599788.4287735 1.599636.8571429 1.999697.8571429z" stroke-width=".7"/><path d="m251.684086 65.5-.684086-.5.228144.2501767z" stroke-width=".7"/><path d="m264 59c-.326359-3.8837088-.815651-5.5477818-1.304942-5.9176339-.489291-.3703753-.81565.5545166-.652718 1.8492606.326359 1.2942208.979077 2.9588169 1.305437 3.3286691z" stroke-width=".7"/><path d="m321 58.600099c-1.833131-2.6250619-2.999899-4.0249629-3.666768-4.5496782l-1.333232-1.0504208.999798 1.7503713c.666869.8746906 1.833637 2.6245668 2.333535 3.4997525l1.333232 1.7498762v-.6999505z" stroke-width=".7"/><path d="m272.120561 22.2744228 5.879439-.3460572-1.102709-.6921145c-.551075-.3460573-2.388365-.3460573-3.674579 0-1.286215.1727838-3.491074 0-4.409719-.3460573l-1.83729-1.0381717 2.572429-.3460573c1.46972-.3465467 4.225655-.8653878 5.51187-1.0386612l2.939998-.3460572-2.204859-1.0381718c-1.102709-.5188411-3.67458-1.0381717-5.144858-1.0381717-1.469721-.1727839-3.858644.1732734-4.777289.6921145-.735139.5193306-1.653784 1.7302862-1.83729 2.4224007-.184063.692604.36757 2.076833 1.102151 2.7689475.919203.6921144 3.124062 1.2109556 4.410277 1.0381717z" stroke-width=".7"/><path d="m248.822178 75.1973861c1.313545 13.298447-.217029-6.2803644-.353959-8.0173203-.103914-1.3243244-.587766-5.2337299-.707376-3.9105208-.4963 5.4880002 2.802445 18.3994657-2.476088 21.9007005-5.12266 3.3986345-6.480044-7.4100827-7.074305-10.168023-.247338-1.1486772-.994223-4.4642278-.353417-3.5201936 2.284495 3.3685236 10.940249 17.6266179 13.087274 15.252871.300919-.3323357-.698716-.5358635-1.060794-.7823272-5.058796-3.4415705-8.308289-6.5435564-11.673063-12.1235622-.90871-1.5072205-1.633406-3.140461-2.476088-4.6934056-.218653-.4031522-.874613-1.6053599-.707376-1.1732119 2.659562 6.8608366 6.364764 11.5642791 13.087816 13.6882166 4.225857 1.3349189-5.898772-9.4710103-7.428264-12.5150047-.461662-.9183841-2.265011-2.2672433-1.414752-2.7373087 4.67507-2.5845236 9.249473 5.7517498 9.550392 8.7990899z" stroke-width="7"/><path d="m253.75873 75.069539c-5.676838 1.8421386-17.75873 7.0494567-17.75873.5817862 0-10.2653185 14.460012-1.6480255 18.114144-.3876731.910272.3141203 3.143291 1.3770414 2.841135.3876731-.636375-2.0843651-9.691816-4.1134274-11.7205-6.206088-3.622068-3.7357088-4.922535-7.47916-5.327945-6.593761-2.472136 5.4003251 5.706183 12.799849 9.945062 12.799849.355414 0 1.38307.173651 1.065698 0-2.450398-1.3377764-7.590854-9.0917917-5.682815-5.8178618 2.552022 4.3794342 4.896992 8.6587702 7.813667 12.799849.48421.6874147 1.803154 2.005282 1.065698 2.3271447-6.107247 2.6678104-17.053881-16.3729674-12.075915-12.0239497 2.716687 2.3730461 5.143717 5.2902724 7.813667 7.7573334.651592.6022482 2.219977 2.6545377 1.420568 2.3271447-8.029415-3.2883086-4.533427-16.4338005-3.55142-15.5146668 1.281989 1.2000722 2.261279 6.5909959 2.486266 7.7573334 2.23628 11.6008828-8.46852 3.6322924-2.841679-8.1455596 4.920903-10.3001593 25.99085 10.6281054 17.403859 15.902893-13.389424 8.2251957-16.967472-29.7999509-11.36563-25.2120249 4.282354 3.507861 9.392921 28.8271735 1.065697 20.9454086-3.18242-3.0117943-11.286287-24.9736696-2.131395-14.3510945 2.123787 2.4637428 6.748513 3.5974516 6.748513 6.9814342 0 1.1408981-11.470516-4.25998-12.431328-3.8783902-4.323657 1.716601 1.685226 21.2141805 3.551963 23.6602264 1.373832 1.8006614-1.817284 12.4105169 2.130852-12.0239498.67496-4.1764726 6.095291-33.8099619 9.945062-34.1334837 6.65015-.558559 11.619964 24.7590944-2.130851 22.1089809-1.148302-.2212115-2.416705-.6050134-3.197094-1.5512455-1.453718-1.7641615-2.258561-4.0647608-3.196549-6.2060879-.470624-1.0756408-1.790655-3.6593908-.710284-3.4907171 4.354633.6791192 7.26696 3.103044 12.075914 3.103044 2.298777 0 7.776713.693498 6.748513-1.5517985-.413562-.9036489-6.19148-1.2951932-7.103383-1.9394716-1.987925-1.4046929-5.918671-7.227532-5.682815-4.6542895.441278 4.8174329 3.951396 8.3822559 7.458797 10.8603774 1.295575.9158155 5.404571 3.1240591 3.906833 2.7153709-4.562773-1.2459737-9.703229-11.7761929-7.81421-15.902893.464646-1.0148077 12.726963 16.6284666 8.169081 19.3936101-5.851827 3.5504442-7.138708-8.0968931-7.813668-11.6362767-.218465-1.1464285-.876035-4.5143732-.355413-3.4907171 1.972165 3.8756251 3.157965 8.0603932 4.972531 12.0239498.236943.5170818 1.041243 2.0030699.710284 1.5517985-3.249807-4.4369492-8.507104-15.4908866-7.458253-13.9639744 11.162381 16.2535132 12.52317 16.3226418-7.103927 22.6907671z" stroke-width="7"/><path d="m318.034281 59.1050493c-.883261-.9742088-3.282566-2.1792405-2.420301-3.178342.711394-.8242869 2.237204 2.619954 2.420301 2.9910812.555639 1.1263935-2.727416-4.0954107-1.935947-3.178342.783656.9085827 3.149271 3.3978501 2.097561 2.9916469-1.462825-.5651768-2.189354-2.615428-2.74304-4.1135144-.161614-.4361876-.484353-1.7832207-.484353-1.3085627 0 1.087923 1.905187 2.9712802 2.420301 3.9262537.22997.4260042.952105 1.663849.645478 1.3085626-1.023879-1.1863622-3.283055-5.4865717-2.258687-4.3002095.654268.7580951 1.244085 2.0694864 1.774822 2.9916469.364242.633066 1.675706 2.2918233 1.129344 1.8697793-3.392913-2.6210855-4.701936-7.1572097-4.679476-7.1045956.727018 1.6842157 1.847084 2.734234 2.904654 4.1129487.531226.6924689 2.179101 2.7116043 1.613696 2.0564744-.843223-.9770375-1.460871-2.5582881-2.097561-3.7389929-.222646-.4129921-.995072-1.5574894-.807093-1.1218676.320298.7422543 6.323445 11.0121798 3.711259 6.1699888-.586888-1.0884887 2.108791 4.5129288 1.613696 3.365037-.779261-1.8052846-1.447688-2.1328496-2.904654-3.7389928z" stroke-width="7"/><path d="m270.999121 21.1159407c-2.970007-1.2639784 2.694655-.5518115 1.928923 1.0711982-1.026002 2.1771793-5.874824 1.8871246-6.912989 0-.367298-.6673618 6.104933-3.7665851 6.43088.9745132.266595 3.8780086-5.46277.9379617-5.144607-2.5326732.395515-4.3142698 5.870447 1.411364 3.697793.4869618z" stroke-width="7"/><path d="m275.176676 18.2632042c-1.989668-.4273822-6.406968-.1716495-5.759299-1.8911289.474506-1.2607526 6.871354.9084981 5.202147 3.1245171-1.913208 2.5389189-7.165954-.3432989-3.530129-.9866111 3.042129-.5383324 3.76176 3.1100886.928774 3.9459467-2.534451.7477944-7.83611-4.0738131-5.388239-5.5902984 2.584488-1.6010663 6.499732-.1124428 5.574331 2.9598331-1.086193 3.6036429-5.667658.9124784-5.388239-1.8090357.295723-2.8782374 6.612175-1.4224513 7.24635.8224247.882672 3.1250146-5.058783-3.9996804 2.04364 0 .432903.2437919 2.384903 2.2329351 1.114866 2.7951492-1.575318.6970459-2.997152-2.4603085-1.67258-2.7951492 1.786147-.4517614 3.738709 2.8055974 2.415825 3.7817602-2.070627 1.5264361-3.98271-1.9468527-3.344599-3.4528899.744931-1.7577896 5.001999-.151748 3.530128 1.1507975-1.844617 1.6324109-2.687373-3.3076098-3.344598-3.4528899-.268738-.0597042-1.019853-.3288704-.742682-.3288704 1.593308 0 11.819944 4.0250547 1.114304 1.726445z" stroke-width="7"/><path d="m463 258c6.0907 5.944845 15 21.051904 15 30" stroke-width="2"/></g><path d="m479 309c3.698075 3.144151 5.547112 12.310818 5.547112 27.5s-1.597803 24.355849-4.793409 27.5"/></g></svg>