<svg height="271" viewBox="0 0 1992 271" width="1992" xmlns="http://www.w3.org/2000/svg" xmlns:xlink="http://www.w3.org/1999/xlink"><radialGradient id="a" cx="50%" cy="-18.02156%" gradientTransform="matrix(0 1 -.64833664 0 .383159 -.680216)" r="49.06293%"><stop offset="0" stop-color="#d396ff"/><stop offset="1" stop-color="#1b4bd1"/></radialGradient><g fill="none" fill-rule="evenodd"><path d="m0 58h2000v213h-2000z" fill="url(#a)"/><g transform="translate(739)"><g fill="#0f0920"><path d="m60.8871902 55.94225c-1.8120219 2.7412-4.6970894 4.8433-8.0498533 5.9507l-.400923.1162087c-1.812022.5844738-3.624044.875-5.5696935.875h-41.65597876c-2.81825366 0-5.09797214-2.0404999-5.09797214-4.4911999v-2.4507z"/><path d="m29.4937683 50.51725h-29.44837607l29.44837607-39.0845c-4.5634618 12.01725-5.2984135 27.35775 0 39.0845z"/><path d="m60.9546078 50.51725h-28.1080755v4.2588h-2.0124634v-54.660375h2.0124634v12.366375z"/><path d="m47.4721096 5.075875-13.2812518-2.1602v4.2588z"/></g><g fill="#34002b" opacity=".188672" transform="matrix(1 0 0 -1 0 94)"><path d="m61 27c-1.8187478 1.184631-4.7145238 2.0930699-8.0797324 2.5716414l-.4024111.0502205c-1.8187477.2525849-3.6374955.3781381-5.5903668.3781381h-41.81059518c-2.82871431 0-5.11689452-.881818-5.11689452-1.9409071v-1.0590891z"/><path d="m29 24h-29l29-19c-4.4939794 5.8419002-5.2177407 13.2993194 0 19z"/><path d="m61 23.97424h-27.9955903v2.02576h-2.0044097v-26h2.0044097v5.88224559z"/><path d="m47 2.01446417-13-1.01446417v2z"/></g></g></g></svg>