<?xml version="1.0" encoding="UTF-8"?>
<svg width="1559px" height="346px" viewBox="0 0 1559 346" version="1.1" xmlns="http://www.w3.org/2000/svg" xmlns:xlink="http://www.w3.org/1999/xlink">
    <!-- Generator: Sketch 50.2 (55047) - http://www.bohemiancoding.com/sketch -->
    <title>Artboard 13</title>
    <desc>Created with Sketch.</desc>
    <defs></defs>
    <g id="Artboard-13" stroke="none" stroke-width="1" fill="none" fill-rule="evenodd">
        <g id="stars">
            <circle id="Oval-12" fill="#FFFFFF" opacity="0.314006696" cx="1105" cy="184" r="7"></circle>
            <circle id="Oval-12-Copy" fill="#FFFFFF" opacity="0.104464286" cx="1034" cy="272" r="7"></circle>
            <circle id="Oval-12-Copy-4" fill="#FFFFFF" opacity="0.314006696" cx="267" cy="240" r="7"></circle>
            <circle id="Oval-12-Copy-5" fill="#FFFFFF" opacity="0.148325893" cx="34" cy="62" r="7"></circle>
            <circle id="Oval-12-Copy-6" fill="#FFFFFF" opacity="0.314006696" cx="141" cy="170" r="7"></circle>
            <circle id="Oval-12-Copy-7" fill="#FFFFFF" cx="48" cy="240" r="7"></circle>
            <circle id="Oval-12-Copy-9" fill="#FFFFFF" opacity="0.314006696" cx="764" cy="24" r="7"></circle>
            <circle id="Oval-12-Copy-10" fill="#FFFFFF" cx="1020" cy="84" r="7"></circle>
            <circle id="Oval-12-Copy-11" fill="#FFFFFF" cx="386" cy="100" r="7"></circle>
            <circle id="Oval-12-Copy-12" fill="#FFFFFF" opacity="0.235267857" cx="1270" cy="77" r="7"></circle>
            <circle id="Oval-13" fill="#D8D8D8" cx="1190" cy="234" r="4"></circle>
            <circle id="Oval-13-Copy-13" fill="#D8D8D8" opacity="0.314006696" cx="1345" cy="175" r="4"></circle>
            <circle id="Oval-13-Copy-15" fill="#D8D8D8" opacity="0.161941964" cx="1163" cy="4" r="4"></circle>
            <circle id="Oval-13-Copy" fill="#D8D8D8" cx="1112" cy="111" r="4"></circle>
            <circle id="Oval-13-Copy-4" fill="#D8D8D8" opacity="0.314006696" cx="415" cy="31" r="4"></circle>
            <circle id="Oval-13-Copy-2" fill="#D8D8D8" cx="1263" cy="195" r="4"></circle>
            <circle id="Oval-13-Copy-5" fill="#D8D8D8" cx="323" cy="154" r="4"></circle>
            <circle id="Oval-13-Copy-14" fill="#D8D8D8" cx="1187" cy="146" r="4"></circle>
            <circle id="Oval-13-Copy-7" fill="#D8D8D8" cx="159" cy="272" r="4"></circle>
            <circle id="Oval-13-Copy-9" fill="#D8D8D8" cx="195" cy="129" r="4"></circle>
            <circle id="Oval-13-Copy-16" fill="#D8D8D8" cx="632" cy="125" r="4"></circle>
            <circle id="Oval-13-Copy-20" fill="#D8D8D8" cx="647" cy="80" r="4"></circle>
            <circle id="Oval-13-Copy-24" fill="#D8D8D8" cx="1446" cy="227" r="4"></circle>
            <circle id="Oval-13-Copy-28" fill="#D8D8D8" cx="1521" cy="68" r="4"></circle>
            <circle id="Oval-13-Copy-10" fill="#D8D8D8" opacity="0.314006696" cx="82" cy="191" r="4"></circle>
            <circle id="Oval-13-Copy-17" fill="#D8D8D8" opacity="0.314006696" cx="519" cy="187" r="4"></circle>
            <circle id="Oval-13-Copy-21" fill="#D8D8D8" opacity="0.314006696" cx="534" cy="142" r="4"></circle>
            <circle id="Oval-13-Copy-25" fill="#D8D8D8" opacity="0.314006696" cx="1333" cy="289" r="4"></circle>
            <circle id="Oval-13-Copy-29" fill="#D8D8D8" opacity="0.314006696" cx="1408" cy="130" r="4"></circle>
            <circle id="Oval-13-Copy-11" fill="#D8D8D8" cx="4" cy="146" r="4"></circle>
            <circle id="Oval-13-Copy-18" fill="#D8D8D8" cx="441" cy="142" r="4"></circle>
            <circle id="Oval-13-Copy-22" fill="#D8D8D8" cx="456" cy="97" r="4"></circle>
            <circle id="Oval-13-Copy-26" fill="#D8D8D8" cx="1255" cy="244" r="4"></circle>
            <circle id="Oval-13-Copy-30" fill="#D8D8D8" cx="1330" cy="85" r="4"></circle>
            <circle id="Oval-13-Copy-12" fill="#D8D8D8" opacity="0.314006696" cx="229" cy="73" r="4"></circle>
            <circle id="Oval-13-Copy-19" fill="#D8D8D8" opacity="0.314006696" cx="666" cy="69" r="4"></circle>
            <circle id="Oval-13-Copy-23" fill="#D8D8D8" opacity="0.314006696" cx="681" cy="24" r="4"></circle>
            <circle id="Oval-13-Copy-27" fill="#D8D8D8" opacity="0.314006696" cx="1480" cy="171" r="4"></circle>
            <circle id="Oval-13-Copy-31" fill="#D8D8D8" opacity="0.314006696" cx="1555" cy="12" r="4"></circle>
        </g>
    </g>
</svg>