<svg height="346" viewBox="0 0 1559 346" width="1559" xmlns="http://www.w3.org/2000/svg"><g fill="none" fill-rule="evenodd"><circle cx="1105" cy="184" fill="#fff" opacity=".314007" r="7"/><circle cx="1034" cy="272" fill="#fff" opacity=".104464" r="7"/><circle cx="267" cy="240" fill="#fff" opacity=".314007" r="7"/><circle cx="34" cy="62" fill="#fff" opacity=".148326" r="7"/><circle cx="141" cy="170" fill="#fff" opacity=".314007" r="7"/><circle cx="48" cy="240" fill="#fff" r="7"/><circle cx="764" cy="24" fill="#fff" opacity=".314007" r="7"/><circle cx="1020" cy="84" fill="#fff" r="7"/><circle cx="386" cy="100" fill="#fff" r="7"/><circle cx="1270" cy="77" fill="#fff" opacity=".235268" r="7"/><g fill="#d8d8d8"><circle cx="1190" cy="234" r="4"/><circle cx="1345" cy="175" opacity=".314007" r="4"/><circle cx="1163" cy="4" opacity=".161942" r="4"/><circle cx="1112" cy="111" r="4"/><circle cx="415" cy="31" opacity=".314007" r="4"/><circle cx="1263" cy="195" r="4"/><circle cx="323" cy="154" r="4"/><circle cx="1187" cy="146" r="4"/><circle cx="159" cy="272" r="4"/><circle cx="195" cy="129" r="4"/><circle cx="632" cy="125" r="4"/><circle cx="647" cy="80" r="4"/><circle cx="1446" cy="227" r="4"/><circle cx="1521" cy="68" r="4"/><circle cx="82" cy="191" opacity=".314007" r="4"/><circle cx="519" cy="187" opacity=".314007" r="4"/><circle cx="534" cy="142" opacity=".314007" r="4"/><circle cx="1333" cy="289" opacity=".314007" r="4"/><circle cx="1408" cy="130" opacity=".314007" r="4"/><circle cx="4" cy="146" r="4"/><circle cx="441" cy="142" r="4"/><circle cx="456" cy="97" r="4"/><circle cx="1255" cy="244" r="4"/><circle cx="1330" cy="85" r="4"/><circle cx="229" cy="73" opacity=".314007" r="4"/><circle cx="666" cy="69" opacity=".314007" r="4"/><circle cx="681" cy="24" opacity=".314007" r="4"/><circle cx="1480" cy="171" opacity=".314007" r="4"/><circle cx="1555" cy="12" opacity=".314007" r="4"/></g></g></svg>