<svg height="926" viewBox="0 0 2000 926" width="2000" xmlns="http://www.w3.org/2000/svg"><g fill="none" fill-rule="evenodd"><g fill="#fff"><circle cx="995" cy="426" opacity=".01" r="500"/><circle cx="995" cy="426" opacity=".02" r="446.25"/><circle cx="994.375" cy="425.375" opacity=".03" r="391.875"/><circle cx="995.625" cy="426.625" opacity=".04" r="338.125"/><circle cx="995" cy="426" opacity=".05" r="283.75"/><circle cx="995" cy="426" r="230"/></g><g transform="translate(-10 415)"><path d="m0 138.136285c381.404998-88.7575233 595.851976-133.136285 643.340935-133.136285 71.233439 0 399.544715 103.266359 472.176125 103.266359s196.9289-35.303551 235.51721-35.303551c38.58832 0 191.32131 35.303551 224.41373 35.303551s183.8415-70.4434734 224.33521-70.4434734c26.99581 0 97.06808 19.5420766 210.21679 58.6262298v299.1394006h-2010z" fill="#1d1e63"/><path d="m421.78294 150c140.406548 0 242.890702-49.644086 242.890702-125.6704611 0-76.0263746-71.055057 52.5559205-211.461605 52.5559205s-390.3780882-80.79544236-446.78226862-70.92392173c-56.40418048 9.87152063 274.94662362 144.03846233 415.35317162 144.03846233z" fill="#d1e4e9" fill-opacity=".021711" transform="translate(632.82013)"/></g><g transform="translate(280 325)"><path d="m31.6598578 99 31.6598577 107.463654h-63.3197155z" fill="#1d1e63"/><path d="m337.838297 0 32.838298 111.463654h-65.676595z" fill="#1d1e63"/><path d="m337.838297 0 32.838298 111.463654h-17.627256z" fill="#212265"/><path d="m94 28 46 156.13867h-92z" fill="#1d1e63"/><path d="m824.035319 129 23.035319 78.189219h-46.070638z" fill="#212265"/><path d="m1473.30298 53 29.30298 99.463654h-58.60596z" fill="#1d1e63"/><path d="m1200.5 136 22.5 76.372175h-45z" fill="#1d1e63"/><path d="m575.232341 91 22.23234 75.463654h-44.464681z" fill="#212265"/><path d="m1527 100 24 81.463654h-48z" fill="#1d1e63"/></g></g></svg>