<?xml version="1.0" encoding="UTF-8" standalone="no"?>
<svg width="185px" height="40px" viewBox="0 0 185 40" version="1.1" xmlns="http://www.w3.org/2000/svg" xmlns:xlink="http://www.w3.org/1999/xlink">
    <!-- Generator: Sketch 42 (36781) - http://www.bohemiancoding.com/sketch -->
    <title>about-header copy</title>
    <desc>Created with Sketch.</desc>
    <defs></defs>
    <g id="Page-1" stroke="none" stroke-width="1" fill="none" fill-rule="evenodd">
        <g id="About-Copy-2" transform="translate(-548.000000, -501.000000)">
            <g id="about-header-copy" transform="translate(550.000000, 501.000000)">
                <path d="M136,22 L181,22" id="Line-Copy" stroke="#889784" stroke-width="3" stroke-linecap="square"></path>
                <path d="M0,21 L45,21" id="Line-Copy-2" stroke="#889784" stroke-width="3" stroke-linecap="square"></path>
                <path d="M103.687917,1.18290163 C102.543326,2.35149795 101.511268,3.41988582 100.466107,4.47395819 C99.7107545,5.23870691 99.1719877,6.10441753 99.1026186,7.19314847 C99.0001065,8.82963538 100.002876,10.4600947 101.604531,11.2105279 C103.223915,11.9700025 104.732307,11.707803 106.06959,10.5866738 C107.137874,9.68931842 108.152975,8.72942693 109.19197,7.79967331 C109.378496,7.63165463 109.568105,7.46966352 109.751548,7.3106862 C110.082978,7.52315826 110.122287,7.85542839 110.227112,8.13797102 C113.003418,15.5782603 108.004988,23.5128108 99.9543172,24.4930454 C98.4012199,24.6814071 96.8681625,24.6166107 95.3836636,24.2044752 C94.5774404,23.9807014 94.1165212,24.1811183 93.5561729,24.7311346 C88.9978516,29.2224323 84.4002211,33.6783179 79.8272553,38.1553001 C78.9208322,39.0436141 77.8941694,39.6795234 76.6116116,39.9093247 C74.3054741,40.3214602 71.9870043,39.3058137 70.7799818,37.3280153 C69.5876038,35.3682996 69.7741297,32.845759 71.2586286,31.0857067 C71.5021913,30.7971365 71.778897,30.5326766 72.0502073,30.2674633 C76.6293393,25.7965087 81.206159,21.3232938 85.8007064,16.8674081 C86.2492933,16.4319158 86.4088423,16.0695077 86.236961,15.4102416 C84.0664786,7.13136581 90.6842917,-0.588452299 99.4032181,0.0354018286 C100.836846,0.135610282 102.239644,0.432468405 103.687917,1.18290163 Z M89.7023335,16.819941 C89.531223,17.1642663 89.2121251,17.38804 88.9438979,17.6502396 C84.0032757,22.4738074 79.0564874,27.2951148 74.1158652,32.1216964 C73.8445549,32.3869097 73.5586,32.6483558 73.3389312,32.951995 C72.6945692,33.8463366 72.5951401,34.8084884 73.1223454,35.7857092 C73.6426137,36.7569024 74.4827507,37.2428757 75.6150087,37.2571912 C76.5961963,37.2722602 77.2921997,36.7689576 77.9481231,36.1270207 C82.9766129,31.209272 88.013581,26.2998113 93.0536322,21.3941178 C93.2941118,21.1552751 93.4868038,20.8463618 93.8482939,20.7551947 C98.1807802,22.7947758 102.236561,21.6939897 104.762367,19.5896122 C106.924371,17.78586 108.459741,14.5008311 107.990343,12.6759824 C104.250577,14.871527 101.143612,14.7924151 98.5784965,12.4439207 C97.4400723,11.4019035 96.7147797,10.1248108 96.4712171,8.62921847 C96.1243715,6.51655305 96.693969,4.60882521 98.1237434,2.91356942 C92.4755563,2.52253042 85.9602554,9.0383402 89.7023335,16.819941 Z" id="Page-1" fill="#889784"></path>
            </g>
        </g>
    </g>
</svg>