<?xml version="1.0" encoding="UTF-8" standalone="no"?>
<svg width="185px" height="59px" viewBox="0 0 185 59" version="1.1" xmlns="http://www.w3.org/2000/svg" xmlns:xlink="http://www.w3.org/1999/xlink">
    <!-- Generator: Sketch 42 (36781) - http://www.bohemiancoding.com/sketch -->
    <title>about-header</title>
    <desc>Created with Sketch.</desc>
    <defs></defs>
    <g id="Page-1" stroke="none" stroke-width="1" fill="none" fill-rule="evenodd">
        <g id="About-Copy-2" transform="translate(-548.000000, -192.000000)">
            <g id="about-header" transform="translate(550.000000, 192.000000)">
                <path d="M136,27 L181,27" id="Line-Copy" stroke="#889784" stroke-width="3" stroke-linecap="square"></path>
                <path d="M0,26 L45,26" id="Line-Copy-2" stroke="#889784" stroke-width="3" stroke-linecap="square"></path>
                <g id="Page-1" transform="translate(64.000000, 0.000000)" fill="#889784">
                    <path d="M21.812,28.328 C21.812,31.453 17.125,31.453 17.125,28.328 C17.125,25.203 21.812,25.203 21.812,28.328" id="Fill-1"></path>
                    <path d="M35.875,28.328 C35.875,31.453 31.188,31.453 31.188,28.328 C31.188,25.203 35.875,25.203 35.875,28.328" id="Fill-2"></path>
                    <path d="M35.047,36.875 C33.031,38.891 29.914,40.047 26.5,40.047 C23.086,40.047 19.969,38.891 17.953,36.875 C17.496,36.418 16.754,36.418 16.297,36.875 C15.84,37.332 15.84,38.074 16.297,38.531 C18.746,40.984 22.469,42.391 26.5,42.391 C30.531,42.391 34.254,40.984 36.703,38.531 C37.16,38.074 37.16,37.332 36.703,36.875 C36.246,36.418 35.504,36.418 35.047,36.875 Z" id="Fill-3"></path>
                    <path d="M40.562,7.234 L38.219,7.234 L38.219,2.078 C38.219,1.043 37.344,0.203 36.266,0.203 L16.734,0.203 C15.656,0.203 14.781,1.043 14.781,2.078 L14.781,7.234 L12.438,7.234 C5.965,7.234 0.719,12.48 0.719,18.953 L0.719,42.391 C0.719,48.863 5.965,54.109 12.438,54.109 L12.438,58.797 L40.562,58.797 L40.562,54.109 C47.035,54.109 52.281,48.863 52.281,42.391 L52.281,18.953 C52.281,12.48 47.035,7.234 40.562,7.234 Z M17.125,2.547 L35.875,2.547 L35.875,7.234 L17.125,7.234 L17.125,2.547 Z M38.219,56.453 L14.781,56.453 L14.781,54.109 L38.219,54.109 L38.219,56.453 Z M49.938,42.391 C49.938,47.559 45.73,51.766 40.562,51.766 L12.438,51.766 C7.27,51.766 3.062,47.559 3.062,42.391 L3.062,18.953 C3.062,13.785 7.27,9.578 12.438,9.578 L40.562,9.578 C45.73,9.578 49.938,13.785 49.938,18.953 L49.938,42.391 Z" id="Fill-4"></path>
                </g>
            </g>
        </g>
    </g>
</svg>