<?xml version="1.0" encoding="UTF-8" standalone="no"?>
<svg width="185px" height="62px" viewBox="0 0 185 62" version="1.1" xmlns="http://www.w3.org/2000/svg" xmlns:xlink="http://www.w3.org/1999/xlink">
    <!-- Generator: Sketch 42 (36781) - http://www.bohemiancoding.com/sketch -->
    <title>about-header copy 2</title>
    <desc>Created with Sketch.</desc>
    <defs></defs>
    <g id="Page-1" stroke="none" stroke-width="1" fill="none" fill-rule="evenodd">
        <g id="About-Copy-2" transform="translate(-548.000000, -1057.000000)">
            <g id="about-header-copy-2" transform="translate(550.000000, 1057.000000)">
                <path d="M136,33 L181,33" id="Line-Copy" stroke="#FFFFFF" stroke-width="3" stroke-linecap="square"></path>
                <path d="M0,32 L45,32" id="Line-Copy-2" stroke="#FFFFFF" stroke-width="3" stroke-linecap="square"></path>
                <g id="Page-1" transform="translate(62.000000, 0.000000)" fill="#FFFFFF">
                    <path d="M50.6151231,34.949662 L51.9164769,33.7253803 C52.7109692,32.9342254 53.2187077,31.7815493 53.2187077,30.631493 C53.2187077,29.4788169 52.7109692,28.3287606 51.9164769,27.5341127 C51.1219846,26.7429577 50.1836769,26.309831 49.0971692,26.2382254 C49.1690769,25.0855493 48.9533538,23.8638873 48.0869538,22.9260282 C47.2924615,22.1348732 46.2059538,21.7017465 45.1238308,21.6301408 C45.0519231,20.5516901 44.6169692,19.4706197 43.8224769,18.6794648 C43.0271077,17.8874366 41.9414769,17.4543099 40.8593538,17.3827042 C40.7874462,16.3051268 40.3524923,15.2240563 39.5571231,14.4320282 C38.7626308,13.6408732 37.6050923,13.1361408 36.4501846,13.1361408 C35.2926462,13.1361408 34.2105231,13.5692676 33.3432462,14.4320282 L31.7542615,16.0152113 L26.6944154,10.9766197 C27.6336,8.9611831 27.2740615,6.51523944 25.6122923,4.93205634 L22.5053538,1.83816901 C20.6252308,-0.034056338 17.5182923,-0.248873239 15.4215692,1.40504225 C15.2742462,1.91326761 15.1304308,2.2031831 15.1304308,2.56208451 C15.1304308,2.92011268 15.2023385,3.2816338 15.4899692,3.4964507 L18.8161385,6.80864789 L16.2879692,9.32619718 L12.8898923,6.01749296 C12.6741692,5.80267606 12.3111231,5.65859155 11.9515846,5.65859155 C11.5920462,5.65859155 11.3009077,5.87428169 11.0851846,6.09259155 C9.42341538,8.1796338 9.63913846,11.2735211 11.5201385,13.1466197 L14.6270769,16.240507 C16.2160615,17.8228169 18.6758308,18.184338 20.6971385,17.3180845 L21.7073538,18.3240563 L20.1174923,19.9072394 C19.6825385,20.2652676 16.6475077,23.144338 16.0687385,28.1820563 C15.7811077,31.0611268 14.5516615,32.2146761 14.4797538,32.2862817 L14.4078462,32.3578873 L13.1056154,33.6537746 C12.5987538,34.158507 12.5987538,34.8780563 13.1056154,35.380169 C13.3213385,35.5949859 13.6843846,35.7381972 13.9728923,35.7381972 C14.2605231,35.7381972 14.6235692,35.5949859 14.8392923,35.380169 L16.0687385,34.1550141 C16.4282769,33.8685915 18.0935538,32.1395775 18.4530923,28.5409577 C18.8880462,24.2219155 21.6319385,21.8484507 21.6319385,21.8484507 L21.7038462,21.7768451 L23.3656154,20.1220563 L25.8929077,22.6396056 C25.8929077,22.9976338 25.9648154,23.2875493 26.2533231,23.5739718 C26.7601846,24.0787042 27.4827692,24.0787042 27.9861231,23.5739718 L35.2137231,16.3767324 C35.9363077,15.6571831 37.2385385,15.6571831 37.9611231,16.3767324 C38.5398923,16.9530704 38.6837077,17.815831 38.3206615,18.5362535 C38.1049385,18.9693803 38.1768462,19.5422254 38.5363846,19.9037465 C38.8959231,20.2617746 39.4755692,20.3368732 39.9105231,20.1185634 C40.6331077,19.7605352 41.5714154,19.9037465 42.0782769,20.4765915 C42.6579231,21.0529296 42.8017385,21.9165634 42.4386923,22.6361127 C42.2220923,23.0692394 42.294,23.6420845 42.6544154,24.0036056 C43.0139538,24.3616338 43.5927231,24.4367324 44.0276769,24.2184225 C44.7502615,23.8603944 45.6894462,24.0036056 46.1963077,24.5773239 C46.7031692,25.0820563 46.6312615,26.3028451 46.1963077,27.094 C45.9805846,27.5271268 46.0524923,28.1008451 46.4120308,28.4623662 C46.7715692,28.8203944 47.3503385,28.895493 47.7852923,28.6771831 C48.5078769,28.3191549 49.4470615,28.4623662 49.9539231,29.0352113 C50.3134615,29.3932394 50.5326923,29.8979718 50.5326923,30.4027042 C50.5326923,30.9083099 50.3169692,31.4095493 49.9539231,31.7710704 L43.377,38.3203662 L43.377,38.3203662 L43.377,38.3203662 L40.8488308,40.8379155 L40.7769231,40.9095211 C40.7769231,40.9095211 38.3206615,43.644507 34.0561846,44.1466197 C30.4423846,44.5046479 28.7087077,46.1620563 28.4175692,46.5200845 L27.1881231,47.7452394 C26.6812615,48.2499718 26.6812615,48.9695211 27.1881231,49.4707606 C27.4038462,49.6855775 27.7668923,49.8287887 28.0545231,49.8287887 C28.3421538,49.8287887 28.7052,49.6855775 28.9209231,49.4707606 L30.2231538,48.1748732 C30.2950615,48.1032676 31.4526,46.8789859 34.3438154,46.5916901 C39.4036615,46.0869577 42.294,42.9930704 42.6544154,42.5599437 L44.3153077,40.9776338 L49.0875231,45.7289296 C49.9539231,46.5916901 51.0395538,47.0256901 52.1944615,47.0256901 C53.352,47.0256901 54.4341231,46.5916901 55.3005231,45.7289296 C57.0342,44.0034085 57.0342,41.2675493 55.3005231,39.6127606 L50.6151231,34.949662 Z M27.4178769,20.6267887 L21.9230769,15.1550704 C21.8511692,15.0834648 21.8511692,15.0834648 21.7792615,15.0118592 C21.3443077,14.5071268 20.6217231,14.4355211 20.1174923,14.7970423 C18.9599538,15.6606761 17.2990615,15.5174648 16.2879692,14.5106197 L13.1810308,11.4167324 C12.5303538,10.7687887 12.2427231,9.83442254 12.3865385,8.8991831 L15.3496615,11.8498592 C15.8565231,12.3545915 16.5791077,12.3545915 17.0824615,11.8498592 L21.3478154,7.60329577 C21.8546769,7.09856338 21.8546769,6.37901408 21.3478154,5.87690141 L18.3846923,2.92709859 C19.3194923,2.852 20.2613077,3.13842254 20.9128615,3.7863662 L24.0198,6.88025352 C25.0300154,7.88622535 25.1773385,9.54450704 24.3074308,10.6936901 C23.9478923,11.1984225 24.0198,11.9179718 24.5231538,12.3484789 C24.5950615,12.3484789 24.5950615,12.4200845 24.6669692,12.4916901 L30.1617692,17.9625352 L27.4178769,20.6267887 Z M53.7255692,44.1597183 C53.0021077,44.8801408 51.7726615,44.8801408 50.9781692,44.1597183 L46.2059538,39.3403099 L48.9533538,36.6044507 L53.7255692,41.3557465 C54.4481538,42.1477746 54.4481538,43.3685634 53.7255692,44.1597183 Z" id="Fill-1"></path>
                    <path d="M9.27609231,35.0212676 C8.76923077,34.5165352 8.04664615,34.5165352 7.54329231,35.0212676 L1.11018462,41.4273521 C0.603323077,41.9329577 0.603323077,42.652507 1.11018462,43.1537465 L19.2510923,61.2184507 C19.4668154,61.4341408 19.8298615,61.5773521 20.1174923,61.5773521 C20.406,61.5773521 20.7690462,61.4341408 20.9847692,61.2184507 L27.4178769,54.8132394 C27.9247385,54.3076338 27.9247385,53.5880845 27.4178769,53.0868451 L9.27609231,35.0212676 Z M20.1174923,58.6266761 L3.70938462,42.2909859 L8.40618462,37.6139155 L24.8107846,53.9496056 L20.1174923,58.6266761 Z" id="Fill-2"></path>
                </g>
            </g>
        </g>
    </g>
</svg>