<?xml version="1.0" encoding="UTF-8" standalone="no"?>
<svg width="140px" height="140px" viewBox="0 0 140 140" version="1.1" xmlns="http://www.w3.org/2000/svg" xmlns:xlink="http://www.w3.org/1999/xlink">
    <!-- Generator: Sketch 42 (36781) - http://www.bohemiancoding.com/sketch -->
    <title>art-skill-tile</title>
    <desc>Created with Sketch.</desc>
    <defs></defs>
    <g id="Page-1" stroke="none" stroke-width="1" fill="none" fill-rule="evenodd">
        <g id="About-Copy-2" transform="translate(-570.000000, -776.000000)">
            <g id="art-skill-tile" transform="translate(570.000000, 776.000000)">
                <rect id="Rectangle-8-Copy-4" fill="#394037" x="0" y="0" width="140" height="140"></rect>
                <path d="M62.7148438,107.625 L59.3007812,107.625 L58.6289062,110 L56.3164062,110 L60.0429688,98.625 L62.0351562,98.625 L65.6914062,110 L63.3789062,110 L62.7148438,107.625 Z M59.8398438,105.757812 L62.1992188,105.757812 L61.0351562,101.570312 L59.8398438,105.757812 Z M70.5820312,105.75 L68.9179688,105.75 L68.9179688,110 L66.7226562,110 L66.7226562,98.625 L70.5351562,98.625 C71.1653677,98.625 71.7356745,98.699218 72.2460938,98.8476562 C72.756513,98.9960945 73.1927065,99.2135402 73.5546875,99.5 C73.9166685,99.7864598 74.1953115,100.143227 74.390625,100.570312 C74.5859385,100.997398 74.6835938,101.492185 74.6835938,102.054688 C74.6835938,102.46094 74.6354171,102.826821 74.5390625,103.152344 C74.4427079,103.477866 74.3046884,103.76953 74.125,104.027344 C73.9453116,104.285158 73.7291679,104.510416 73.4765625,104.703125 C73.2239571,104.895834 72.9414078,105.062499 72.6289062,105.203125 L75.0742188,109.898438 L75.0742188,110 L72.7226562,110 L70.5820312,105.75 Z M68.9179688,103.96875 L70.5429688,103.96875 C71.1627635,103.96875 71.6406233,103.811199 71.9765625,103.496094 C72.3125017,103.180988 72.4804688,102.750003 72.4804688,102.203125 C72.4804688,101.635414 72.3164079,101.194012 71.9882812,100.878906 C71.6601546,100.563801 71.1757845,100.40625 70.5351562,100.40625 L68.9179688,100.40625 L68.9179688,103.96875 Z M84.6835938,100.414062 L81.1757812,100.414062 L81.1757812,110 L78.9726562,110 L78.9726562,100.414062 L75.5117188,100.414062 L75.5117188,98.625 L84.6835938,98.625 L84.6835938,100.414062 Z" id="ART" fill="#FFFFFF"></path>
                <g id="Page-1" transform="translate(46.000000, 16.000000)" fill="#FFFFFF">
                    <path d="M22.125283,3.53108108 C22.9240755,2.34702703 23.7590943,1.18756757 24.5769057,0.0105405405 C24.5841509,0.065 24.5941132,0.171283784 24.6013585,0.223108108 C24.9835472,0.772094595 25.3376604,1.33777027 25.7261887,1.88412162 C26.0938868,2.49810811 26.5403774,3.06378378 26.9116981,3.67513514 C28.7474717,6.38581081 30.5479245,9.11668919 32.3846038,11.8273649 C32.7559245,12.4343243 33.1978868,13.0043919 33.5692075,13.6183784 C34.1216604,14.3975 34.6233962,15.21 35.1758491,15.9891216 C35.5580377,16.6171622 36.0072453,17.1968919 36.389434,17.8214189 C36.5868679,18.1306081 36.810566,18.4222297 37.008,18.7305405 C37.3901887,19.3550676 37.8430189,19.9347973 38.2215849,20.5628378 C38.7631698,21.3314189 39.258566,22.1272297 39.7992453,22.8958108 C40.2203774,23.5791892 40.7085283,24.2168919 41.1296604,24.9002703 C41.6250566,25.5968243 42.0670189,26.3206081 42.5587925,27.0171622 C42.9590943,27.6724324 43.4327547,28.2864189 43.8321509,28.9416892 C44.3846038,29.7208108 44.8863396,30.5341892 45.4387925,31.3124324 C45.8173585,31.940473 46.2701887,32.5202027 46.6523774,33.1447297 C46.9847547,33.6594595 47.3669434,34.1469595 47.6712453,34.6757432 C47.7808302,34.8575676 47.7916981,35.0736486 47.7880755,35.2791892 L47.7880755,65 L44.1011321,65 C44.1011321,55.8631081 44.0975094,46.7288514 44.1011321,37.5919595 C40.5319245,39.6947973 36.5415849,41.0782432 32.4516226,41.8397973 C30.9763019,42.1279054 29.4873962,42.3334459 27.986717,42.4467568 C23.3098868,42.8385135 18.5624151,42.4880405 14.0060377,41.3830405 C12.4492075,41.0158784 10.9276981,40.5152027 9.43516981,39.9591892 C7.65916981,39.3004054 5.96467925,38.4527703 4.34083019,37.5023649 L4.34083019,65 L0.651169811,65 L0.651169811,35.2106757 C0.668377358,34.7266892 0.777962264,34.2427027 1.008,33.8105405 C1.21720755,33.4328378 1.50339623,33.1008108 1.75154717,32.7468243 C2.18264151,32.1152703 2.61464151,31.4845946 3.04935849,30.8565541 C3.75667925,29.9131757 4.3725283,28.9074324 5.0834717,27.9675676 C5.53992453,27.3087838 5.98913208,26.642973 6.44558491,25.9841892 C7.14656604,25.0575 7.75154717,24.0658108 8.448,23.14 C9.0285283,22.3160811 9.56920755,21.4719595 10.1741887,20.6656081 C10.7438491,19.8557432 11.2818113,19.0221622 11.8759245,18.2263514 C12.4564528,17.4024324 13.0007547,16.5521622 13.6093585,15.7422973 C14.0522264,15.1002027 14.490566,14.455473 14.9361509,13.8142568 C15.6371321,12.8875676 16.2421132,11.8958784 16.938566,10.9656757 C17.5190943,10.1426351 18.0633962,9.29851351 18.6647547,8.49216216 C19.2344151,7.6822973 19.7687547,6.84871622 20.3628679,6.05641892 C20.9542642,5.21581081 21.5130566,4.35412162 22.125283,3.53108108 L22.125283,3.53108108 Z M24.0561509,7.27385135 C23.7310189,7.76486486 23.3596981,8.22425676 23.0409057,8.71878378 C22.2738113,9.86418919 21.4351698,10.9691892 20.6816604,12.1260135 C23.1504906,12.1014189 25.6166038,12.129527 28.0863396,12.1119595 C27.9052075,11.8545946 27.7177358,11.6042568 27.5628679,11.3363514 C27.2685283,10.8699324 26.9325283,10.4307432 26.6390943,9.96432432 C26.3420377,9.47331081 25.9843019,9.02094595 25.68,8.53344595 C25.3693585,8.02222973 24.9944151,7.54878378 24.6792453,7.04108108 C24.6158491,6.92425676 24.5452075,6.81094595 24.4809057,6.69412162 C24.3215094,6.87594595 24.1910943,7.07533784 24.0561509,7.27385135 L24.0561509,7.27385135 Z M18.2083019,15.6939865 C17.7165283,16.3703378 17.186717,17.0220946 16.7728302,17.7423649 C16.7193962,17.835473 16.6487547,17.9171622 16.5744906,17.9891892 C16.1316226,18.6137162 15.7077736,19.2487838 15.2721509,19.8768243 C14.5086792,20.8887162 13.8502642,21.9664865 13.0895094,22.9783784 C12.5089811,23.8058108 11.9610566,24.6525676 11.3560755,25.4624324 C10.7583396,26.3311486 10.170566,27.209527 9.54475472,28.0597973 C8.62188679,29.4291892 7.64467925,30.7608108 6.72543396,32.1328378 C6.28981132,32.7301351 5.86596226,33.3335811 5.43033962,33.9273649 C7.25615094,35.1043919 9.22324528,36.082027 11.2781887,36.8128378 C12.6158491,37.2933108 13.9779623,37.7158108 15.3717736,38.0241216 C17.1405283,38.415 18.9373585,38.7277027 20.7523019,38.8647297 C22.7864151,39.039527 24.8386415,39.0878378 26.8763774,38.9332432 C28.4359245,38.844527 29.9927547,38.6662162 31.5251321,38.3710811 C35.5190943,37.6499324 39.4170566,36.2814189 42.8386415,34.1364189 C42.7073208,33.9686486 42.5805283,33.7938514 42.477283,33.605 C42.2191698,33.189527 41.9112453,32.8056757 41.664,32.3866892 C41.3596981,31.8991892 41.0019623,31.4468243 40.7049057,30.9558108 C40.4114717,30.4893919 40.0754717,30.0502027 39.7820377,29.5872973 C39.4741132,29.0725676 39.0919245,28.6052703 38.784,28.0905405 C38.490566,27.6276351 38.154566,27.1849324 37.8611321,26.722027 C37.5532075,26.2072973 37.1710189,25.7408784 36.866717,25.2261486 C36.5624151,24.7421622 36.2019623,24.2854054 35.9049057,23.7952703 C35.6603774,23.4008784 35.3741887,23.0337162 35.1296604,22.6384459 C34.8217358,22.1272297 34.4395472,21.6572973 34.1352453,21.1460811 C33.8381887,20.6796622 33.5058113,20.240473 33.2087547,19.7775676 C32.9008302,19.2628378 32.5222642,18.7929054 32.2143396,18.2808108 C31.9670943,17.8829054 31.68,17.5095946 31.4472453,17.1011486 C31.1710189,16.6171622 30.8703396,16.1437162 30.5479245,15.6869595 C26.4344151,15.704527 22.32,15.6869595 18.2083019,15.6939865 Z" id="Fill-1"></path>
                    <path d="M40.938566,45.8539865 C41.5399245,45.7477027 42.1874717,45.9470946 42.6049811,46.3827703 C43.0469434,46.8281081 43.2208302,47.5044595 43.0433208,48.0982432 C42.8205283,48.9247973 41.9257358,49.5115541 41.0517736,49.3912162 C40.1678491,49.3130405 39.4279245,48.5304054 39.4206792,47.6695946 C39.3753962,46.8114189 40.0609811,45.9910135 40.938566,45.8539865 Z" id="Fill-2"></path>
                    <path d="M40.125283,50.1431081 C40.698566,49.8172297 41.4520755,49.8304054 42.0144906,50.1773649 C42.5415849,50.4927027 42.8848302,51.0759459 42.8812075,51.6802703 L42.8812075,65 L39.1906415,65 C39.1942642,60.5879054 39.1879245,56.1714189 39.1942642,51.7593243 C39.1661887,51.1075676 39.5375094,50.4584459 40.125283,50.1431081 Z" id="Fill-3"></path>
                </g>
            </g>
        </g>
    </g>
</svg>