<?xml version="1.0" encoding="UTF-8"?>
<!-- Generator: Bez 1.0.2u (15139) - http://www.juicybitssoftware.com/bez -->
<svg width="884.0" height="841.0" version="1.1" xmlns="http://www.w3.org/2000/svg" xmlns:xlink="http://www.w3.org/1999/xlink">
  <title>openInTemp 1</title>
  <desc>Created with Bez</desc>
  <g id="Untitled">
    <path id="Untitled-1" fill="#000" stroke="#000" stroke-width="0.7" d="M304.1,601.4 L307.4,604.3 C309.0,605.7 313.0,607.4 315.3,607.8 C317.9,608.1 323.2,608.8 325.8,609.2 C328.8,609.2 334.4,609.6 337.0,609.9 C339.7,609.9 344.6,610.6 346.9,611.3 C349.2,611.7 353.5,613.1 355.5,614.2 C357.8,614.9 361.7,616.6 363.4,617.7 C365.4,618.8 369.0,621.2 370.6,622.6 C372.3,624.0 375.2,627.2 376.6,629.0 C377.9,630.4 380.5,633.2 381.8,634.7 C383.5,636.1 386.8,638.2 388.4,638.9 C390.1,639.6 393.0,641.4 394.3,642.4 C396.0,643.5 399.0,646.3 400.3,648.1 C401.9,649.5 404.5,652.7 405.5,654.4 C406.8,656.2 408.2,660.8 408.2,663.7 C408.5,666.1 409.8,670.4 410.8,672.1 C412.1,673.9 414.8,677.1 416.1,678.5 L419.4,680.6 L422.7,679.2 C424.6,678.5 428.3,677.4 429.9,677.1 C431.9,676.7 435.5,676.0 437.2,675.7 C439.1,675.0 442.8,674.3 444.4,674.3 C446.1,673.9 449.4,673.2 451.0,672.8 C453.0,672.5 456.6,671.8 458.2,671.4 C460.2,670.7 463.9,669.7 465.5,669.3 C467.5,669.0 471.1,668.2 472.7,667.9 C474.7,667.2 478.4,666.5 480.0,666.5 C481.6,666.1 484.9,665.4 486.6,665.1 C488.5,664.7 492.2,664.0 493.8,663.7 C495.8,663.0 499.4,661.9 501.1,661.5 C503.0,661.2 506.7,660.5 508.3,660.1 C510.0,659.7 513.3,659.0 514.9,658.7 C516.9,658.3 520.5,657.6 522.2,657.3 C523.8,656.6 527.4,655.9 529.4,655.9 C531.7,655.5 535.3,656.6 536.7,658.0 C538.3,659.4 541.6,662.2 543.2,663.7 C545.2,664.7 548.9,667.2 550.5,668.6 C552.1,669.7 555.1,672.1 556.4,673.5 C558.1,674.9 561.4,677.8 563.0,679.2 C565.0,680.3 568.6,682.7 570.2,684.2 C571.9,685.2 575.2,687.7 576.8,689.1 C578.8,690.2 582.1,692.6 583.4,694.0 C585.1,695.4 588.4,698.3 590.0,699.7 C591.7,700.8 594.9,703.2 596.6,704.7 C598.2,706.1 601.5,708.9 603.2,710.3 C604.8,711.4 608.1,713.8 609.8,715.3 C611.8,716.3 615.4,718.8 617.0,720.2 C618.7,721.3 622.0,723.7 623.6,725.2 C625.3,726.2 628.2,728.7 629.6,730.1 C630.9,731.5 629.9,733.3 627.6,733.6 C625.6,734.0 621.3,735.0 619.0,735.8 C616.7,736.5 612.1,737.9 609.8,738.6 C607.5,739.0 602.9,740.0 600.6,740.7 C598.3,741.1 593.3,742.1 590.7,742.8 C588.4,743.2 583.7,744.2 581.4,744.9 C579.1,745.3 574.5,746.4 572.2,747.1 C569.9,747.8 565.3,749.2 563.0,749.9 C560.7,750.3 556.1,751.3 553.8,752.0 C551.5,752.4 546.5,753.5 543.9,754.2 C541.6,754.5 537.0,755.5 534.7,756.3 C532.4,756.6 527.4,757.7 524.8,758.4 C522.5,758.7 517.9,759.8 515.6,760.5 C513.6,761.2 509.3,762.6 507.0,763.3 C504.7,763.7 499.8,764.8 497.1,765.5 C494.8,765.8 490.2,766.9 487.9,767.6 C485.6,767.9 481.0,769.0 478.7,769.7 C476.7,770.0 472.4,771.1 470.1,771.8 C467.8,772.2 463.2,773.2 460.9,773.9 C458.6,774.3 453.6,775.4 451.0,776.1 C448.7,776.4 444.1,777.5 441.8,778.2 C439.8,778.9 435.2,780.3 432.6,781.0 C430.3,781.4 425.6,782.4 423.3,783.1 C421.4,783.8 417.1,785.3 414.7,786.0 C412.4,786.3 407.5,787.4 404.9,788.1 C402.6,788.4 398.0,789.5 395.7,790.2 C393.3,790.5 388.4,791.6 385.8,792.3 C383.5,792.7 378.9,793.7 376.6,794.4 C374.3,794.8 369.6,795.9 367.3,796.6 C365.0,796.9 360.4,798.0 358.1,798.7 C355.8,799.4 351.2,800.8 348.9,801.5 C346.6,801.9 341.6,802.9 339.0,803.6 C336.7,804.0 332.1,805.0 329.8,805.7 C327.5,806.1 322.9,807.2 320.6,807.9 C318.6,808.6 314.3,809.3 312.0,809.3 C309.7,809.3 307.0,806.5 306.7,803.6 C306.7,800.8 306.4,795.1 306.1,792.3 C306.1,789.1 305.7,783.1 305.4,780.3 C305.4,777.5 305.1,771.8 304.7,769.0 C304.7,766.2 304.4,760.5 304.1,757.7 C304.1,754.5 303.7,748.5 303.4,745.7 C303.4,742.8 302.1,738.6 300.8,737.2 C299.8,735.4 296.5,734.0 294.2,734.3 C292.2,734.7 287.6,735.4 285.0,735.8 C282.3,735.8 277.4,735.1 275.1,734.3 C272.8,733.6 268.5,732.2 266.5,731.5 C264.6,730.5 259.9,729.0 257.3,728.7 C254.7,728.3 249.1,728.0 246.1,728.0 C243.5,728.0 238.2,728.0 235.6,728.0 C232.9,727.6 227.3,727.3 224.3,727.3 C221.7,726.9 216.4,726.2 213.8,725.9 C211.5,725.5 206.2,725.2 203.3,725.2 C200.6,724.8 195.4,724.1 192.7,723.8 C190.4,723.4 185.5,722.7 182.8,722.3 C180.5,722.0 175.6,721.3 173.0,720.9 C170.7,720.2 166.1,719.1 163.7,718.8 C161.4,718.1 156.5,717.0 153.9,716.7 C151.2,716.3 146.3,715.6 144.0,715.3 C141.7,714.5 137.1,713.5 134.7,713.1 C132.4,712.4 127.8,711.0 125.5,710.3 C123.2,709.6 118.6,708.2 116.3,707.5 C114.3,706.8 110.1,705.4 107.7,704.7 C105.4,704.0 101.2,702.5 99.2,701.8 C97.2,700.8 92.9,699.0 90.6,698.3 C88.6,697.6 84.4,696.2 82.1,695.5 C80.1,694.4 76.1,692.6 74.2,691.9 C72.2,690.9 68.2,688.8 66.2,687.7 C64.3,686.6 60.3,684.5 58.3,683.4 C56.7,682.4 53.1,680.3 51.1,679.2 C49.4,678.1 45.8,676.0 43.8,675.0 C42.2,673.6 38.6,671.1 36.6,670.0 C34.9,668.9 31.0,667.2 28.7,666.5 C27.3,665.7 25.0,665.3 23.0,665.2 C22.3,667.0 22.9,668.9 24.8,671.3 C24.8,671.4 24.8,671.4 24.8,671.4 C26.2,671.6 27.7,672.0 28.7,672.8 C30.7,673.9 34.3,676.0 35.9,677.1 C37.9,678.1 41.5,680.6 43.2,682.0 C45.2,683.1 48.8,685.2 50.4,686.3 C52.4,687.3 56.0,689.4 57.7,690.5 C59.6,691.6 63.6,693.7 65.6,694.8 C67.9,695.5 71.8,697.2 73.5,698.3 C75.4,699.3 79.4,701.5 81.4,702.5 C83.7,703.2 88.0,704.6 90.0,705.3 C92.3,706.1 96.6,707.5 98.5,708.2 C100.8,708.9 105.4,710.3 107.7,711.0 C110.1,711.7 114.3,713.1 116.3,713.8 C118.6,714.6 123.2,716.0 125.5,716.7 C127.8,717.4 132.4,718.8 134.7,719.5 C137.1,719.9 141.7,720.9 144.0,721.6 C146.3,722.0 150.9,723.0 153.2,723.8 C155.8,724.1 160.8,725.2 163.1,725.9 C165.4,726.2 170.3,726.9 173.0,727.3 C175.6,727.6 180.5,728.7 182.8,729.4 C185.1,729.8 190.1,730.5 192.7,730.8 C195.4,730.8 200.6,731.2 203.3,731.5 C205.9,731.9 211.2,732.6 213.8,732.9 C216.4,732.9 221.7,733.3 224.3,733.6 C227.3,733.6 232.6,733.6 234.9,733.6 C237.5,733.6 242.8,734.0 245.4,734.3 C248.1,734.3 253.3,734.7 256.0,735.1 C258.6,735.4 263.2,736.8 265.2,737.9 C267.2,738.6 271.5,740.0 273.8,740.7 C276.1,741.4 280.7,742.5 283.0,742.8 C285.6,743.2 288.6,746.0 288.9,748.5 C289.3,750.6 289.6,755.2 289.6,757.7 C289.6,760.2 289.6,764.4 289.6,766.2 C289.9,767.9 289.9,772.5 289.6,775.3 C289.6,777.8 289.3,783.1 288.9,786.0 C288.9,788.8 288.9,794.8 288.9,798.0 C288.9,800.8 288.6,806.5 288.3,809.3 C288.3,811.8 288.9,816.7 289.6,819.2 C290.3,821.3 292.2,822.4 293.5,821.3 C294.8,819.9 295.8,816.7 295.5,814.9 C295.2,813.2 294.5,808.9 294.2,806.5 C293.9,803.6 293.2,798.0 292.9,795.2 C292.9,792.0 292.9,786.0 292.9,783.1 C292.9,779.9 292.5,774.3 292.2,771.8 C292.2,769.3 292.2,764.8 292.2,762.6 L292.9,757.7 L293.5,762.6 C293.9,764.8 294.8,768.3 295.5,769.7 C296.5,770.8 297.8,773.6 298.2,775.3 C298.5,776.8 298.8,781.0 298.8,783.8 C299.1,786.7 299.8,792.3 300.1,795.2 C300.5,798.0 301.1,803.6 301.4,806.5 C301.8,808.9 302.4,812.5 302.7,813.5 C303.1,814.6 302.1,817.1 300.8,818.5 C299.5,819.5 297.1,822.0 296.2,823.4 C295.5,824.9 294.2,826.6 293.5,827.0 C292.9,827.3 290.6,826.6 288.9,825.6 C287.3,824.1 285.0,820.3 284.3,817.8 C283.7,815.3 283.0,810.0 283.0,807.2 C283.3,804.3 283.7,798.7 283.7,795.8 C284.0,793.0 284.3,787.4 284.3,784.5 C284.6,781.4 284.6,775.4 284.3,772.5 C284.3,769.7 283.7,765.1 283.0,763.3 L281.7,759.8 L280.4,764.8 C280.0,767.2 279.7,772.5 279.7,775.3 C279.7,777.8 279.4,783.1 279.0,786.0 C278.7,788.8 278.4,793.7 278.4,795.8 C278.4,797.6 277.7,801.5 277.1,803.6 C276.7,805.4 275.1,805.8 273.8,804.3 C272.5,802.6 270.1,798.7 269.2,796.6 C268.5,794.4 266.9,790.2 265.9,788.1 C264.9,786.0 262.9,782.1 261.9,780.3 C260.9,778.2 257.9,775.0 256.0,773.9 C254.0,772.9 249.7,771.5 247.4,771.1 C245.1,770.4 240.5,769.0 238.2,768.3 C236.2,767.6 231.9,766.2 229.6,765.5 C227.6,764.4 223.7,762.3 221.7,761.2 C220.1,760.2 216.1,758.4 213.8,757.7 C211.8,756.6 207.9,754.9 205.9,754.2 C203.9,753.1 199.6,751.3 197.3,750.6 C195.4,749.9 191.1,748.5 188.8,747.8 C186.5,747.1 181.9,745.6 179.6,744.9 C177.6,744.2 173.3,742.8 171.0,742.1 C168.7,741.4 164.1,740.0 161.8,739.3 C159.8,738.6 155.5,737.5 153.2,737.2 C150.9,736.5 146.3,735.1 144.0,734.3 C141.7,733.6 137.1,732.6 134.7,732.2 C132.4,731.5 127.8,730.1 125.5,729.4 C123.2,728.7 118.6,727.6 116.3,727.3 C114.0,726.6 109.4,725.1 107.1,724.4 C105.1,723.7 100.8,722.3 98.5,721.6 C96.2,720.9 91.6,719.5 89.3,718.8 C87.3,718.1 83.0,716.7 80.7,716.0 C78.7,714.9 74.8,713.1 72.8,712.4 C70.8,711.4 66.9,709.3 64.9,708.2 C63.3,707.1 59.6,705.0 57.7,703.9 C56.0,702.5 52.4,700.1 50.4,699.0 C48.8,697.9 45.2,695.8 43.2,694.8 C41.5,693.3 38.2,690.9 36.6,689.8 C34.9,688.4 31.6,685.9 30.0,684.8 C29.4,684.3 28.5,683.8 27.6,683.3 C26.9,685.0 27.0,686.9 28.3,689.0 C28.7,689.6 28.6,690.3 28.2,690.8 C29.1,691.5 30.1,692.2 30.7,692.6 C32.6,693.7 36.3,696.2 37.9,697.6 C39.6,698.7 42.9,701.1 44.5,702.5 C46.5,703.6 50.1,706.1 51.7,707.5 C53.4,708.5 57.0,710.7 59.0,711.7 C61.0,712.8 64.9,714.9 66.9,716.0 C68.9,716.7 72.8,718.4 74.8,719.5 C76.8,720.2 80.7,722.0 82.7,723.0 C85.0,723.7 89.3,725.2 91.3,725.9 C93.6,726.6 98.2,728.0 100.5,728.7 C102.8,729.4 107.1,730.8 109.1,731.5 C111.4,732.2 116.0,733.6 118.3,734.3 C120.6,734.7 125.2,735.8 127.5,736.5 C129.8,737.2 134.4,738.6 136.7,739.3 C139.0,739.6 143.7,740.7 146.0,741.4 C148.3,742.1 152.6,743.5 154.5,744.3 C156.8,745.0 161.4,746.4 163.7,747.1 C166.1,747.4 170.7,748.5 173.0,749.2 C175.3,749.9 179.6,751.3 181.5,752.0 C183.8,752.7 188.1,754.5 190.1,755.6 C192.4,756.3 196.7,757.7 198.7,758.4 C201.0,759.1 205.2,760.9 207.2,761.9 C209.2,762.6 213.1,764.4 215.1,765.5 C217.4,766.2 221.7,767.9 223.7,769.0 C225.7,769.7 229.6,771.5 231.6,772.5 C233.9,773.2 238.5,774.6 240.8,775.3 C243.1,775.7 247.4,777.1 249.4,778.2 C251.4,778.9 254.6,781.4 256.0,783.1 C257.3,784.9 259.3,788.8 259.9,790.9 C260.9,793.0 262.9,797.3 263.9,799.4 C264.9,801.5 266.5,805.8 267.2,807.9 C268.2,810.0 270.8,813.5 272.5,814.9 C274.1,816.0 277.1,818.8 278.4,820.6 C278.6,820.8 278.9,821.2 279.2,821.5 C279.2,821.5 279.2,821.5 279.2,821.5 C282.0,822.3 284.3,824.4 285.5,827.4 C285.5,827.4 285.5,827.4 285.6,827.5 C286.1,828.0 287.0,828.6 288.2,829.3 C291.0,831.0 295.0,832.6 299.7,834.1 C302.6,835.0 305.6,835.8 308.6,836.4 C311.3,836.1 314.3,835.7 315.9,835.4 C318.2,834.7 322.8,833.7 325.2,833.3 C327.5,832.6 332.1,831.9 334.4,831.9 C337.0,831.6 342.0,830.9 344.3,830.5 C346.6,829.8 350.9,828.7 352.8,828.4 C355.1,827.7 359.8,826.6 362.1,826.2 C364.4,825.5 367.7,824.1 368.7,823.4 C370.0,822.7 372.9,823.4 374.6,824.8 C376.5,825.9 380.5,828.0 382.5,829.1 C384.4,829.8 388.7,831.2 391.0,831.9 C393.7,832.3 398.6,832.6 400.9,832.6 C403.2,832.3 407.8,831.6 410.2,831.2 C412.5,830.5 417.1,829.4 419.4,829.1 C421.7,828.7 426.3,828.0 428.6,827.7 C430.9,827.0 435.5,825.9 437.8,825.6 C440.4,824.9 445.4,823.8 447.7,823.4 C450.4,823.1 455.3,822.4 457.6,822.0 C459.9,821.3 464.5,820.6 466.8,820.6 C469.4,820.2 474.4,819.5 476.7,819.2 C479.0,818.5 483.9,817.4 486.6,817.1 C489.2,816.7 493.5,815.3 495.2,814.2 C496.8,812.8 500.8,812.1 503.1,812.8 C505.4,813.2 510.0,814.2 512.3,814.9 C514.6,815.6 518.9,817.4 520.8,818.5 C522.8,819.2 527.1,820.6 529.4,821.3 C531.7,822.0 536.0,823.4 538.0,824.1 C540.3,824.8 544.2,827.0 545.9,828.4 C547.5,829.4 550.8,831.9 552.5,833.3 C554.4,834.4 558.7,836.2 561.0,836.9 C563.3,837.2 567.9,838.3 570.2,839.0 C572.9,839.4 577.8,840.1 580.1,840.4 C582.4,840.4 586.7,839.7 588.7,839.0 C590.7,837.9 594.9,836.5 597.2,836.2 C599.9,835.4 604.5,834.1 606.5,833.3 C608.8,832.6 612.4,830.5 613.7,829.1 C615.4,827.3 618.0,823.8 619.0,822.0 C620.0,819.9 622.6,816.7 624.3,815.7 C626.3,814.6 629.9,812.1 631.5,810.7 C633.2,809.3 635.8,806.1 636.8,804.3 C638.1,802.6 640.7,799.0 642.1,797.3 C643.4,795.5 645.7,792.0 646.7,790.2 C648.0,788.4 650.3,784.9 651.3,783.1 C652.6,781.4 655.2,777.8 656.6,776.1 C657.9,774.3 660.5,771.1 661.8,769.7 C663.2,767.9 666.4,765.5 668.4,764.8 C670.7,763.7 675.0,761.9 677.0,761.2 C678.9,760.2 682.6,758.0 684.2,757.0 C685.9,755.6 689.2,753.1 690.8,752.0 C692.8,750.6 696.7,748.5 698.7,747.8 C700.7,746.7 704.6,744.6 706.6,743.5 C708.6,742.5 712.6,740.7 714.5,740.0 C716.5,738.9 720.5,737.2 722.4,736.5 C724.7,735.8 729.3,734.3 731.7,733.6 C734.0,732.9 738.2,731.5 740.2,730.8 C742.5,730.1 747.2,729.0 749.5,728.7 C752.1,728.0 757.0,726.9 759.3,726.6 C761.6,725.9 766.3,724.8 768.6,724.4 C771.2,724.1 776.1,723.4 778.4,723.0 C781.1,722.3 786.0,721.3 788.3,720.9 C790.6,720.2 795.3,718.8 797.6,718.1 C799.9,717.4 804.1,716.0 806.1,715.3 C808.1,714.2 812.0,712.4 814.0,711.7 C816.3,711.0 820.6,709.3 822.6,708.2 C824.6,707.1 828.2,705.0 829.8,703.9 C831.8,702.9 835.8,700.8 837.7,699.7 C839.7,698.6 843.3,696.5 845.0,695.5 C846.6,694.1 849.9,691.6 851.6,690.5 C852.9,689.4 855.0,687.5 856.8,686.0 C855.6,684.2 854.8,682.5 853.9,680.7 C852.6,681.7 851.2,682.7 850.2,683.4 C848.6,684.5 845.0,687.0 843.0,688.4 C841.3,689.4 837.7,691.6 835.7,692.6 C834.1,693.7 830.5,695.8 828.5,696.9 C826.5,697.9 822.6,700.1 820.6,701.1 C819.0,702.2 815.3,704.3 813.4,705.3 C811.4,706.1 807.1,707.9 804.8,708.9 C802.8,709.6 798.6,711.0 796.2,711.7 C794.3,712.4 789.6,713.9 787.0,714.6 C784.7,714.9 780.1,716.0 777.8,716.7 C775.5,717.0 770.9,718.1 768.6,718.8 C766.3,719.1 761.3,720.2 758.7,720.9 C756.4,721.3 751.8,722.3 749.5,723.0 C747.2,723.4 742.2,724.5 739.6,725.2 C737.3,725.5 732.6,726.6 730.3,727.3 C728.4,728.0 724.1,729.4 721.8,730.1 C719.5,730.5 714.9,731.9 712.6,732.9 C710.6,733.6 706.6,735.4 704.7,736.5 C703.0,737.5 699.4,739.7 697.4,740.7 C695.4,741.8 691.5,743.9 689.5,744.9 C687.9,746.0 684.2,748.1 682.2,749.2 C680.6,750.3 677.0,752.4 675.0,753.4 C673.0,754.5 669.1,756.6 667.1,757.7 C665.1,758.4 661.5,760.5 659.8,761.9 C658.2,763.3 655.3,766.5 653.9,768.3 C652.6,769.7 650.0,772.9 648.7,774.7 C647.7,776.4 645.3,780.3 644.0,782.4 C643.0,784.2 640.8,787.7 639.4,789.5 C638.1,790.9 635.8,794.4 634.8,796.6 C633.8,798.7 631.2,802.2 629.6,803.6 C628.2,805.0 624.9,807.5 623.0,808.6 C621.3,809.7 618.0,812.5 616.4,814.2 C615.1,815.7 612.7,819.2 611.7,821.3 C610.8,823.1 607.5,825.9 605.2,827.0 C603.2,827.7 598.9,828.0 596.6,827.7 C594.6,827.3 591.0,825.5 589.3,824.1 C588.0,822.7 584.8,820.2 582.8,819.2 C580.8,818.1 576.5,816.7 574.2,816.4 C571.9,815.7 566.9,814.6 564.3,814.2 C561.7,813.9 557.4,813.9 555.7,814.2 L553.1,814.9 L557.1,817.1 C559.0,817.8 563.3,819.2 565.6,819.9 C568.3,820.3 572.6,821.7 574.2,822.7 C576.2,823.8 580.5,825.5 582.8,826.2 C585.1,827.0 587.7,829.1 588.0,830.5 C588.4,831.6 583.8,832.3 578.8,831.9 C573.9,831.2 566.6,830.5 564.3,830.5 C562.0,830.1 557.7,828.7 555.7,827.7 C554.1,826.3 550.8,823.4 549.2,822.0 C547.8,820.6 544.2,818.5 541.9,817.8 C539.9,817.1 535.6,815.6 533.3,814.9 C531.0,814.2 526.4,812.8 524.1,812.1 C522.1,811.4 520.2,809.7 520.2,808.6 C520.2,807.5 522.5,806.1 524.8,805.7 C527.1,805.0 532.1,804.3 534.7,804.3 C537.7,804.3 542.3,803.3 543.9,802.2 C545.6,801.2 549.8,800.1 552.5,800.1 C555.1,799.7 560.4,799.7 563.0,800.1 C566.0,800.1 571.2,800.5 573.5,800.8 C576.2,801.2 581.1,802.2 583.4,802.9 C585.7,803.3 590.0,804.7 592.0,805.7 C594.3,806.5 598.3,808.2 599.9,809.3 C601.9,810.3 605.8,811.1 607.8,810.7 C609.8,810.4 611.1,808.9 610.4,807.9 C609.8,806.5 607.1,804.3 605.2,803.6 C603.2,802.6 598.9,800.8 596.6,800.1 C594.3,799.4 589.4,798.3 586.7,798.0 C584.4,797.6 579.2,797.3 576.2,797.3 C573.6,796.9 568.3,796.6 565.6,796.6 C563.0,796.2 558.1,795.8 555.7,795.8 C553.4,795.5 548.5,795.5 545.9,795.8 C543.2,796.2 538.3,797.3 536.0,798.0 C534.0,798.7 529.7,800.1 527.4,800.8 C525.1,801.5 520.8,803.3 518.9,804.3 C516.9,805.1 512.3,805.7 509.6,805.7 C507.3,805.7 502.4,805.4 499.7,805.1 C497.1,804.7 491.9,804.3 489.2,804.3 C486.6,804.0 481.3,804.0 478.7,804.3 C476.0,804.7 470.8,804.7 468.1,804.3 C465.8,804.0 464.2,802.6 464.8,801.5 C465.5,800.1 468.4,798.3 470.7,798.0 C473.4,797.3 478.3,796.2 480.7,795.8 C483.0,795.1 487.6,794.1 489.9,793.7 C492.5,793.0 497.1,792.7 499.1,793.0 C501.1,793.0 505.0,792.3 507.0,791.6 C509.0,790.6 513.3,788.8 515.6,788.1 C517.9,787.4 522.1,786.0 524.1,785.2 C526.4,784.5 531.0,783.5 533.3,783.1 C536.0,782.4 540.6,781.0 542.6,780.3 C544.9,779.6 549.5,778.5 551.8,778.2 C554.1,777.5 558.7,776.4 561.0,776.1 C563.7,775.4 568.6,774.3 570.9,773.9 C573.2,773.2 577.8,772.2 580.1,771.8 C582.8,771.1 587.7,770.0 590.0,769.7 C592.3,769.0 596.9,767.9 599.2,767.6 C601.6,766.9 606.2,765.5 608.5,764.8 C610.8,764.0 615.4,763.0 617.7,762.6 C620.0,761.9 624.6,760.5 626.9,759.8 C629.2,759.1 633.8,758.0 636.1,757.7 C638.4,757.0 643.1,755.9 645.4,755.6 C647.7,754.9 652.0,753.4 653.9,752.7 C656.2,751.7 659.5,748.8 660.5,747.1 C661.5,744.9 662.2,740.4 661.8,737.9 C661.8,735.1 659.8,731.2 657.9,730.1 C656.2,729.0 652.3,727.6 650.0,727.3 C647.7,726.6 643.7,724.4 642.1,723.0 C640.4,721.6 637.1,719.2 635.5,718.1 C634.8,717.5 633.7,716.8 632.7,716.0 C632.3,715.9 632.0,715.8 631.7,715.7 C630.1,715.0 628.9,714.0 627.8,712.8 C626.1,711.4 623.2,709.2 621.7,708.2 C620.0,706.8 616.7,703.9 615.1,702.5 C613.7,701.1 610.4,698.7 608.5,697.6 C606.8,696.2 603.5,693.7 601.9,692.6 C600.2,691.2 596.6,688.8 594.6,687.7 C593.0,686.3 589.4,683.8 587.4,682.7 C585.7,681.7 582.4,679.6 580.8,678.5 C579.1,677.1 575.9,674.3 574.2,672.8 C572.6,671.4 569.3,668.9 567.6,667.9 C566.0,666.5 562.4,664.0 560.4,662.9 C558.7,661.5 555.4,659.1 553.8,658.0 C552.1,656.6 548.8,653.8 547.2,652.3 C545.9,650.9 542.2,648.8 539.9,648.1 C537.6,647.4 533.0,647.4 530.7,648.1 C528.4,648.5 523.5,649.5 520.8,650.2 C518.5,650.6 513.9,651.6 511.6,652.3 C509.3,652.7 504.4,653.4 501.7,653.8 C499.4,654.1 494.5,655.2 491.8,655.9 C489.5,656.2 484.9,657.3 482.6,658.0 C480.3,658.4 475.7,659.4 473.4,660.1 C471.1,660.8 466.5,662.2 464.2,662.9 C461.9,663.3 456.9,664.0 454.3,664.3 C452.0,664.7 447.0,665.8 444.4,666.5 C442.1,666.8 437.5,667.9 435.2,668.6 C432.9,669.0 427.9,670.0 425.3,670.7 C423.0,671.1 419.4,670.4 418.1,669.3 C416.7,667.9 415.1,664.0 414.7,661.5 C414.4,658.7 412.8,654.1 411.5,652.3 C410.5,650.2 408.2,646.7 406.8,645.3 C405.5,643.5 403.2,640.3 402.2,638.9 C401.3,637.5 401.3,634.3 402.2,632.5 C403.6,630.8 405.5,626.9 406.2,624.8 C406.8,622.3 405.5,620.9 403.6,621.9 C401.9,622.6 399.3,625.5 398.3,627.6 C397.3,629.4 394.7,632.5 393.0,633.9 C391.4,635.4 388.1,635.4 386.4,633.9 C385.1,632.5 382.5,629.4 381.2,627.6 C380.2,625.8 377.6,622.6 375.9,621.2 C374.6,619.5 372.3,616.3 371.3,614.8 C370.6,613.4 368.0,612.0 366.0,612.0 C364.4,611.7 360.4,610.6 358.1,609.9 C356.1,609.2 352.2,607.8 350.2,607.1 C348.2,606.0 343.9,604.2 341.6,603.5 C339.3,602.8 334.7,602.8 332.4,603.5 C330.1,603.9 324.8,604.3 321.9,604.3 C318.9,604.3 313.9,603.6 312.0,602.8 C310.0,601.8 307.0,601.1 306.1,601.4 L304.1,601.4"/>
    <path id="Untitled-2" fill="#000" stroke="#000" stroke-width="0.7" d="M427.9,770.4 L427.9,770.4 C431.2,765.1 433.2,761.2 433.9,759.1 C434.9,756.6 436.2,751.7 436.5,749.2 L437.2,743.5 L434.5,747.8 C433.5,749.5 431.6,753.4 430.6,755.5 C429.9,757.7 428.3,761.9 427.3,764.0 C426.6,766.1 426.3,769.0 426.6,769.7 L427.9,770.4"/>
    <path id="Untitled-3" fill="#000" stroke="#000" stroke-width="0.7" d="M412.1,766.9 L412.1,766.9 C415.1,761.2 417.4,757.7 418.7,756.2 C420.4,754.5 423.3,751.3 424.6,749.9 C426.0,748.1 427.6,744.9 427.9,743.5 L428.6,740.7 L425.3,743.5 C423.7,744.6 420.7,747.4 419.4,749.2 C418.1,750.6 415.4,753.8 414.1,755.5 C412.8,757.3 410.5,761.2 409.5,763.3 C408.5,765.1 408.5,766.9 409.5,766.9 L412.1,766.9"/>
    <path id="Untitled-4" fill="#000" stroke="#000" stroke-width="0.7" d="M673.0,704.6 C672.7,705.0 673.0,707.8 673.7,710.3 C674.7,712.4 675.3,717.0 675.0,719.5 C675.0,722.0 672.7,725.1 670.4,725.8 L665.8,727.3 L671.7,728.0 L677.6,728.7 C679.6,722.0 679.9,717.4 679.6,715.2 C679.6,712.8 678.3,708.9 677.0,707.5 C675.7,705.7 673.7,704.3 673.0,704.6"/>
    <path id="Untitled-5" fill="#000" stroke="#000" stroke-width="0.7" d="M296.2,634.6 C294.2,634.6 292.5,636.1 292.9,637.5 C293.2,638.5 295.5,640.6 297.5,641.7 C299.8,642.4 304.1,643.8 306.1,644.5 C308.4,645.2 312.6,647.0 314.6,648.1 C316.9,648.8 321.2,650.5 323.2,651.6 C325.2,652.3 328.8,654.1 330.4,655.1 C332.4,656.2 336.7,658.0 339.0,658.7 C341.3,659.4 345.9,659.7 348.2,659.4 L352.8,658.0 L347.6,657.3 C345.3,656.6 340.6,655.1 338.3,654.4 C336.4,653.7 332.4,652.3 330.4,651.6 C328.5,650.5 324.5,648.4 322.5,647.4 L318.6,645.2 L323.8,645.9 C326.5,645.9 331.4,646.7 333.7,647.4 C336.4,647.7 341.0,648.8 342.9,649.5 C345.3,650.2 349.2,652.0 350.9,653.0 C352.8,654.1 356.8,656.2 358.8,657.3 C360.7,658.3 364.4,660.4 366.0,661.5 C368.0,662.6 371.6,665.0 373.3,666.5 C375.2,667.5 378.9,669.3 380.5,670.0 C382.5,670.7 383.8,673.2 383.1,674.9 C382.5,676.4 380.2,679.2 378.5,680.6 C376.9,682.0 372.9,684.1 370.6,684.8 C368.6,685.5 365.3,688.0 364.0,689.8 C362.7,691.6 359.4,694.4 357.4,695.4 C355.8,696.5 351.8,698.3 349.5,699.0 C347.2,699.3 342.6,700.4 340.3,701.1 C338.0,701.8 333.4,703.2 331.1,703.9 C328.8,704.3 324.2,705.3 321.9,706.0 C319.6,706.8 316.3,709.6 315.3,711.7 C314.3,713.5 312.3,717.4 311.3,719.5 C310.7,721.6 311.3,724.1 312.6,724.4 L315.3,724.4 C317.6,718.1 320.2,714.5 321.9,713.1 C323.5,711.7 327.5,709.9 329.8,709.6 C332.1,708.9 336.7,707.8 339.0,707.5 C341.6,707.1 346.6,706.4 348.9,706.0 C351.5,705.3 355.8,703.6 357.4,702.5 C359.4,701.5 362.7,699.0 364.0,697.6 C365.7,695.8 368.6,692.6 370.0,691.2 C371.6,689.8 375.6,688.0 377.9,687.7 C380.2,687.0 383.8,685.9 385.1,685.5 C386.8,684.8 390.4,684.1 392.4,684.1 C394.3,683.8 397.3,685.5 398.3,687.7 C399.6,689.4 402.6,692.6 404.2,694.0 C405.9,695.1 409.2,697.2 410.8,698.3 C412.8,699.3 416.4,701.8 418.1,703.2 C420.0,704.3 422.3,703.9 422.7,702.5 C423.3,701.1 422.0,698.6 420.0,697.6 C418.4,696.1 414.8,693.7 412.8,692.6 C411.1,691.6 407.8,689.1 406.2,687.7 C404.9,686.2 401.9,683.4 400.3,682.0 C398.6,680.6 395.3,677.8 393.7,676.4 C392.4,674.9 389.1,672.5 387.1,671.4 C385.4,670.0 382.1,667.5 380.5,666.5 C378.9,665.0 375.6,662.6 373.9,661.5 C372.3,660.1 368.6,657.6 366.7,656.6 C364.7,655.5 360.7,653.4 358.8,652.3 C357.1,651.3 353.5,649.1 351.5,648.1 C349.5,647.0 345.3,645.2 342.9,644.5 C341.0,643.8 336.4,642.8 333.7,642.4 C331.4,642.1 326.5,641.4 323.8,641.0 C321.2,640.6 316.3,639.9 314.0,639.6 C311.7,638.9 307.0,637.5 304.7,636.8 C302.8,635.7 298.5,634.6 296.2,634.6"/>
    <path id="Untitled-6" fill="#000" stroke="#000" stroke-width="0.7" d="M243.5,716.7 L243.5,716.7 C238.5,713.1 234.9,710.6 232.9,709.6 C231.3,708.2 227.3,706.0 225.0,705.3 C223.0,704.6 219.1,703.2 217.1,702.5 C215.1,701.5 213.5,701.8 213.8,703.2 C214.1,704.6 216.1,707.1 217.8,708.2 C219.7,709.2 223.4,711.7 225.0,713.1 C227.0,714.2 230.9,716.3 232.9,717.4 C234.9,718.1 238.5,718.4 240.2,718.1 L243.5,716.7"/>
    <path id="Untitled-7" fill="#000" stroke="#000" stroke-width="0.7" d="M250.9,529.9 C250.4,530.0 250.1,530.5 250.1,531.4 C250.4,533.2 252.0,536.7 253.3,538.5 C254.7,539.9 257.6,542.4 259.3,543.4 C261.3,544.1 264.2,546.3 265.2,547.7 C266.2,548.7 268.2,551.9 269.2,554.0 C270.5,555.8 273.1,559.0 274.4,560.4 C276.1,561.8 278.4,565.0 279.0,566.8 C280.0,568.5 278.4,569.9 275.7,569.6 C273.4,568.9 268.5,568.5 265.9,568.9 C263.6,569.2 259.3,570.6 257.3,571.7 C255.3,572.8 252.0,575.6 250.7,577.4 C249.4,578.8 246.8,582.0 245.4,583.7 C244.5,585.5 242.1,589.4 240.8,591.5 C239.8,593.3 236.9,596.1 234.9,597.2 C233.3,598.2 229.0,598.9 226.3,598.6 C223.7,598.2 218.4,597.9 215.8,597.9 C213.2,597.5 207.9,596.8 205.2,596.5 C202.9,596.1 197.7,595.7 194.7,595.7 C192.1,595.4 186.8,595.0 184.2,595.0 C181.5,594.7 175.9,594.3 173.0,594.3 C170.3,594.0 165.1,593.3 162.4,592.9 C160.1,592.6 155.2,592.2 152.5,592.2 C149.9,591.9 144.6,591.2 142.0,590.8 C139.7,590.1 136.7,590.4 136.1,591.5 C135.4,592.2 137.1,593.6 139.4,594.3 C141.7,595.0 145.6,596.8 147.3,597.9 C149.2,598.9 152.9,601.1 154.5,602.1 C156.5,603.2 160.1,605.6 161.8,607.1 C163.7,608.1 167.4,610.2 169.0,611.3 C171.0,612.4 175.3,614.1 177.6,614.8 C179.9,615.5 184.5,616.6 186.8,617.0 C189.4,617.3 194.7,618.0 197.3,618.4 C200.0,618.4 204.9,619.1 207.2,619.8 C209.9,620.1 214.8,621.2 217.1,621.9 C219.4,622.3 224.0,623.3 226.3,624.0 C228.6,624.7 232.9,626.2 234.9,626.9 C237.2,627.6 241.8,629.0 244.1,629.7 C246.4,630.0 250.7,631.5 252.7,632.5 C254.7,633.6 256.3,636.8 256.0,638.9 C256.0,641.0 255.7,646.3 255.3,649.5 C255.3,652.3 254.7,657.6 254.0,660.1 C253.7,662.6 252.7,667.5 252.0,670.0 C251.4,672.1 250.4,677.1 250.1,679.9 C250.1,682.4 250.1,688.0 250.1,691.2 C250.1,694.0 250.1,699.7 250.1,702.5 C250.4,705.0 251.7,706.4 252.7,705.3 L255.3,703.2 C254.7,694.7 254.7,690.1 254.7,688.4 C255.0,686.2 255.7,681.7 256.0,679.2 C256.3,676.4 257.3,672.8 258.0,672.1 C258.6,671.0 259.9,670.7 260.6,671.4 C261.6,671.8 263.6,674.2 264.5,676.4 C265.5,678.1 267.2,682.4 267.8,684.8 C268.5,687.3 270.1,691.9 271.1,694.0 C272.1,695.8 274.4,699.3 275.7,701.1 C277.1,702.5 278.7,702.2 279.0,700.4 C279.7,698.3 279.4,694.4 278.4,692.6 C277.4,690.5 275.7,685.9 275.1,683.4 C274.4,680.9 272.5,676.7 271.1,674.9 C270.1,673.2 267.8,669.6 266.5,667.9 C265.5,666.1 263.6,662.2 262.6,660.1 C261.9,657.6 261.3,652.3 261.3,649.5 C261.6,646.7 261.6,641.4 261.3,638.9 C261.3,636.1 260.6,631.1 259.9,629.0 C259.6,626.9 259.6,622.3 259.9,619.8 C260.6,617.3 262.6,613.4 263.9,612.0 C265.5,610.2 268.5,607.1 269.8,605.6 C271.1,603.9 273.4,600.0 274.4,597.9 C275.4,595.7 277.4,591.9 278.4,590.1 C279.4,588.0 282.0,584.8 283.7,583.7 C285.6,582.7 289.9,581.6 292.2,581.6 C294.9,581.3 299.5,581.6 301.4,582.3 C303.7,583.0 307.0,582.7 308.0,581.6 C309.3,580.2 308.0,578.4 305.4,578.1 C303.1,577.7 298.8,576.3 296.8,575.2 C295.2,574.2 291.9,571.7 290.2,570.3 C288.9,568.5 286.3,565.3 285.0,563.9 C283.7,562.2 280.7,559.0 279.0,557.6 C277.7,555.8 275.1,552.6 273.8,551.2 C272.5,549.4 270.5,546.3 269.8,544.8 C269.2,543.1 266.9,540.6 265.2,539.9 C263.6,539.2 260.3,537.1 258.6,535.7 C257.3,534.2 254.3,531.8 252.7,530.7 C252.0,530.0 251.4,529.7 250.9,529.9"/>
    <path id="Untitled-8" fill="#000" stroke="#000" stroke-width="0.7" d="M427.9,688.4 L427.9,688.4 C424.0,683.8 421.0,681.3 419.4,680.6 L416.7,679.2 L416.7,679.9 C416.7,680.2 417.7,682.7 418.7,684.8 C420.0,686.6 422.3,690.1 423.3,691.9 C424.6,693.7 426.3,693.7 426.6,691.9 L427.9,688.4"/>
    <path id="Untitled-9" fill="#000" stroke="#000" stroke-width="0.7" d="M342.9,691.2 L342.9,691.2 C349.2,689.1 353.5,687.3 355.5,686.2 C357.4,685.2 360.1,683.4 360.7,682.7 C361.4,681.7 359.7,680.2 357.4,679.9 C355.1,679.2 350.2,678.1 347.6,677.8 C345.3,677.1 340.3,676.0 337.7,675.6 C335.4,675.3 330.1,674.9 327.1,674.9 C324.5,674.6 319.2,673.9 316.6,673.5 C314.3,673.2 309.7,672.5 307.4,672.1 C305.1,671.4 300.5,670.0 298.1,669.3 C296.2,668.2 292.2,666.5 290.2,665.7 C288.3,664.7 286.0,664.7 285.6,665.7 C285.6,666.5 287.3,668.2 288.9,669.3 C290.9,670.3 294.9,672.1 296.8,672.8 C299.1,673.5 303.7,674.9 306.1,675.6 C308.7,676.0 313.6,676.7 315.9,677.1 C318.6,677.4 323.8,678.1 326.5,678.5 C329.4,678.5 334.7,679.2 337.0,679.9 C339.3,680.2 343.9,681.3 346.2,682.0 L350.9,682.7 L346.9,684.8 C345.3,685.5 341.3,687.0 339.0,687.7 L334.4,688.4 L338.3,689.8 L342.9,691.2"/>
    <path id="Untitled-10" fill="#000" stroke="#000" stroke-width="0.7" d="M682.9,650.6 C682.3,650.6 681.6,650.7 680.9,650.9 C678.6,651.3 674.3,652.7 672.4,653.7 C670.7,654.8 667.1,656.9 665.1,658.0 C663.5,659.0 659.9,661.1 657.9,662.2 C655.9,663.3 651.3,664.0 648.7,663.6 C646.3,663.3 641.4,662.9 638.8,662.9 C636.1,662.9 631.2,663.6 628.9,664.3 C626.9,665.0 623.0,666.8 621.0,667.9 C619.0,668.6 615.1,670.3 613.1,671.4 C611.1,672.5 607.5,674.9 605.8,676.4 C604.5,677.8 602.5,681.3 601.9,683.4 C601.5,685.2 602.2,686.6 603.2,686.2 L605.8,685.5 C610.1,681.3 613.4,678.8 615.1,677.8 C617.0,676.4 621.0,674.2 623.0,673.5 C624.9,672.5 629.2,671.0 631.5,670.7 C633.8,670.0 638.8,669.6 641.4,670.0 C644.4,670.0 649.6,670.3 651.9,670.7 C654.3,670.7 658.2,669.6 659.9,668.6 C661.8,667.2 665.5,664.7 667.1,663.6 C669.1,662.6 672.7,660.4 674.3,659.4 C676.3,658.3 680.3,656.2 682.3,655.1 C684.2,654.1 686.2,652.3 686.2,651.6 C686.2,650.8 684.7,650.4 682.9,650.6"/>
    <path id="Untitled-11" fill="#000" stroke="#000" stroke-width="0.7" d="M94.5,437.2 C93.6,437.2 92.3,438.2 91.3,439.5 C90.0,440.9 87.3,444.1 86.0,445.9 C84.7,447.6 82.0,451.2 80.7,452.9 C79.7,454.7 77.4,458.2 76.1,460.0 C74.8,461.8 72.2,465.3 70.8,467.1 C69.9,468.8 67.6,472.4 66.2,474.1 C64.9,475.6 62.3,479.1 61.0,481.2 C60.0,483.0 57.7,486.5 56.4,488.3 C55.4,490.0 53.1,493.9 51.7,496.1 C50.8,497.8 48.4,501.4 47.1,503.1 C46.1,504.9 43.8,508.4 42.5,510.2 C41.5,512.0 39.6,515.9 38.6,518.0 C37.6,520.1 35.3,524.0 34.0,525.8 C33.0,527.5 31.0,531.4 30.0,533.5 C29.0,535.7 26.7,539.5 25.4,541.3 C24.4,543.1 22.4,547.0 21.4,549.1 C20.4,550.9 18.1,554.7 16.8,556.9 C15.8,558.6 13.9,562.5 12.9,564.6 C12.2,566.8 10.6,571.4 9.6,573.8 C8.9,576.0 7.6,580.5 6.9,583.0 C6.3,585.1 5.0,589.7 4.3,592.2 C3.6,594.3 2.3,599.3 1.7,602.1 C1.3,604.6 0.7,609.9 0.3,612.7 C0.3,615.5 0.3,621.6 0.3,624.7 C0.7,627.6 1.7,632.5 2.3,634.6 C3.3,636.8 5.0,641.0 5.6,643.1 C6.6,645.2 8.6,649.5 9.6,651.6 C10.9,653.4 13.9,654.8 15.5,654.4 L19.5,653.7 C15.5,649.1 13.2,645.2 12.2,643.1 C11.5,640.6 9.9,636.4 8.9,634.6 C7.9,632.5 6.6,627.9 6.3,625.4 C5.9,622.6 5.3,617.7 5.0,615.5 C5.0,613.1 5.3,608.1 5.6,605.6 C6.3,603.2 7.6,598.6 8.3,596.5 C9.2,594.0 10.9,589.4 11.5,587.3 C12.2,584.8 13.5,580.2 14.2,578.1 C15.2,576.0 16.8,571.7 17.5,569.6 C18.5,567.1 20.1,562.5 20.8,560.4 C21.8,558.3 23.7,554.4 24.7,552.6 C26.0,550.5 28.3,546.6 29.3,544.8 C30.3,542.7 32.3,538.8 33.3,537.1 C34.6,535.3 36.9,531.4 37.9,529.3 C38.9,527.2 40.9,523.3 41.9,521.5 C43.2,519.7 45.5,516.2 46.5,514.4 C47.8,512.3 50.1,508.4 51.1,506.7 C52.1,504.5 54.0,500.7 55.0,498.9 C56.4,497.1 59.0,493.6 60.3,491.8 C61.6,490.0 63.9,486.5 64.9,484.7 C66.2,483.0 68.5,479.4 69.5,477.7 C70.8,475.6 73.5,472.0 74.8,470.6 C76.1,468.8 78.4,465.3 79.4,463.5 C80.7,461.8 83.4,458.2 84.7,456.5 C86.0,454.7 88.3,451.2 89.3,449.4 C90.6,447.6 93.2,444.1 94.6,442.3 C95.9,440.6 96.2,438.1 95.2,437.4 C95.1,437.2 94.8,437.1 94.5,437.2"/>
    <path id="Untitled-12" fill="#000" stroke="#000" stroke-width="0.7" d="M698.7,644.5 L698.7,644.5 C703.7,641.0 707.0,638.5 708.6,637.5 C710.6,636.1 713.9,633.2 715.2,631.8 C716.8,630.4 718.2,626.5 717.8,624.0 C717.8,621.6 717.2,616.6 716.5,614.1 C715.9,611.7 714.5,607.1 713.9,604.9 C713.2,602.5 711.9,597.5 711.2,595.0 C710.9,592.2 709.9,587.3 709.3,585.1 C708.6,582.7 707.3,578.1 706.6,576.0 C706.0,573.5 704.0,569.2 702.7,567.5 C701.7,565.3 698.4,562.5 696.1,561.8 C694.1,561.1 689.2,560.4 686.2,560.4 C683.2,560.4 678.0,561.1 675.7,561.8 C673.7,562.5 671.1,562.5 670.4,561.8 C669.7,560.8 669.7,557.2 670.4,554.7 C671.1,552.3 671.7,547.0 671.7,544.1 C672.0,541.3 672.4,535.7 672.4,532.8 C672.7,529.6 673.0,523.6 673.0,520.8 C673.0,517.6 673.0,511.6 673.0,508.8 C673.0,505.6 672.0,500.3 671.1,498.2 C670.4,495.7 668.4,491.5 667.1,489.7 C666.1,487.9 665.5,484.4 665.8,482.6 C666.1,480.9 667.4,477.3 668.4,475.6 C669.7,473.8 672.0,470.3 673.0,468.5 C674.0,466.4 673.0,464.9 671.1,465.7 C669.4,466.0 666.4,468.1 665.1,469.9 C664.1,471.7 661.8,475.6 660.5,477.7 C659.5,479.4 657.9,483.0 657.2,484.7 C656.9,486.5 655.2,490.0 653.9,491.8 C652.9,493.6 651.0,497.5 650.0,499.6 C649.0,501.7 647.0,506.0 646.0,508.1 C645.0,509.8 643.4,514.1 642.7,516.6 C642.1,519.0 641.1,524.3 640.7,527.2 C640.7,530.0 640.7,535.7 640.7,538.5 C640.7,541.0 640.1,546.3 639.4,549.1 C639.1,551.6 638.4,556.9 638.1,559.7 C637.8,562.2 637.1,567.5 636.8,570.3 C636.5,573.1 636.1,578.8 636.1,581.6 C636.1,584.1 636.8,589.0 637.5,591.5 C638.1,593.6 638.4,598.6 638.1,601.4 C638.1,603.9 638.4,608.8 638.8,611.3 C639.4,613.8 641.1,618.4 642.1,620.5 C643.4,622.3 645.4,626.2 646.0,628.3 C647.0,630.4 647.0,633.6 646.0,634.6 C645.0,635.3 641.4,636.1 638.8,636.1 C636.5,635.7 632.8,634.6 631.5,633.9 C630.2,632.9 627.9,632.2 626.9,632.5 C625.9,632.9 622.6,633.6 620.3,633.9 C618.0,633.9 613.4,633.6 611.1,633.2 C609.1,632.9 604.8,632.5 602.5,632.5 C600.2,632.5 595.3,632.9 592.7,633.2 L588.0,633.9 L591.3,635.3 C593.0,636.1 596.9,637.5 599.2,638.2 C601.5,638.5 606.2,639.2 608.5,639.6 C611.1,639.9 616.7,640.3 619.7,640.3 C622.6,640.3 628.2,640.6 630.9,641.0 C633.5,641.0 638.8,641.4 641.4,641.7 C644.0,642.1 649.3,642.8 651.9,643.1 C654.6,643.1 659.9,643.5 662.5,643.8 C665.1,643.8 670.4,644.2 673.0,644.5 C675.7,644.9 680.9,645.6 683.6,645.9 C686.2,645.9 691.1,645.6 693.5,645.2 L698.7,644.5"/>
    <path id="Untitled-13" fill="#000" stroke="#000" stroke-width="0.7" d="M404.1,0.4 C402.4,0.6 400.2,1.5 398.9,2.5 C397.3,3.9 394.7,7.5 393.7,9.6 C392.7,11.4 390.7,15.3 389.7,17.4 C389.1,19.5 386.2,22.5 384.0,23.6 C383.4,24.3 382.7,24.9 381.9,25.3 C380.0,26.5 377.8,27.0 375.7,27.0 C374.9,27.9 374.2,28.6 373.4,29.1 C375.2,29.6 377.0,30.3 377.2,30.8 C377.5,31.2 375.2,31.5 372.6,31.5 C370.3,31.2 366.0,31.9 364.0,32.9 C362.4,34.0 358.8,36.1 356.8,37.2 C355.1,38.3 351.5,40.7 349.5,42.1 C347.9,43.2 344.9,46.0 343.6,47.8 C342.3,49.2 340.0,52.8 339.0,54.9 C338.0,57.0 336.0,61.2 335.0,63.3 C334.0,65.1 332.1,69.0 331.1,71.1 C330.1,72.9 328.1,77.2 327.1,79.6 C326.5,81.8 325.2,86.3 324.5,88.8 C323.8,90.9 322.2,95.2 321.2,97.3 C320.2,99.1 318.2,103.3 317.2,105.8 C316.6,107.9 315.3,112.5 314.6,115.0 C314.0,117.1 312.3,121.3 311.3,123.4 C310.3,125.6 308.7,130.2 308.0,132.6 C307.4,134.8 306.1,139.4 305.4,141.8 C305.1,144.3 304.1,149.6 303.4,152.4 C303.1,154.9 302.7,159.9 302.7,162.3 C303.1,164.8 303.4,170.1 303.4,172.9 C303.4,175.8 303.1,181.4 302.7,184.3 C302.4,186.7 302.1,191.7 302.1,194.2 C302.4,196.6 302.7,201.9 302.7,204.8 C302.7,207.6 302.7,212.2 302.7,213.9 C303.1,215.7 303.1,220.0 302.7,222.4 C302.7,224.6 301.8,228.8 300.8,230.9 C300.1,233.0 297.5,236.2 295.5,237.3 C293.5,238.0 289.2,239.8 286.9,240.8 C285.0,241.5 280.4,242.2 277.7,242.2 C275.1,241.9 270.1,242.6 267.8,243.7 C265.9,244.4 261.6,245.8 259.3,246.5 C257.3,247.2 253.0,248.6 250.7,249.3 C248.7,250.0 244.5,251.8 242.2,252.8 C240.2,253.6 235.9,254.3 233.6,254.3 C231.6,254.3 227.7,254.3 225.7,254.3 C223.7,254.3 220.7,256.4 219.7,258.5 C219.1,260.6 216.4,263.8 214.5,264.8 C212.5,265.6 208.5,267.3 206.6,268.4 C204.6,269.4 201.0,271.9 199.3,273.3 C197.7,274.4 194.0,276.9 192.1,278.3 C190.4,279.3 187.1,281.8 185.5,283.3 C184.2,284.7 181.2,287.5 179.6,288.9 C178.2,290.3 175.6,293.5 174.3,295.3 C173.0,297.0 170.3,300.5 169.0,302.3 C167.7,303.7 165.1,306.9 163.7,308.7 C162.4,310.5 159.5,313.7 157.8,315.1 C156.5,316.5 153.8,319.6 152.5,321.4 C151.2,322.8 148.9,326.7 147.9,329.2 C147.3,331.3 145.6,335.6 144.6,337.7 C144.0,339.8 142.3,344.0 141.3,346.2 C140.4,348.3 138.4,352.5 137.4,354.7 C136.4,356.4 134.4,360.3 133.4,362.4 C132.4,364.2 130.5,368.1 129.5,370.2 C128.5,372.3 126.5,376.6 125.5,378.7 C124.5,380.5 122.2,384.4 120.9,386.5 C119.9,388.2 118.0,392.1 117.0,394.3 C116.3,396.4 114.3,400.3 113.0,402.0 C112.0,403.8 110.0,407.7 109.1,409.8 C108.1,411.9 105.8,415.8 104.4,417.6 C103.4,419.3 101.5,423.2 100.5,425.3 C99.5,427.5 99.5,431.4 100.5,433.1 C101.8,434.9 104.5,438.1 105.8,439.5 C107.4,440.9 110.7,443.7 112.3,445.2 C114.0,446.6 117.3,449.4 118.9,450.8 C120.6,451.9 123.9,454.3 125.5,455.8 C127.5,456.8 131.1,458.9 132.8,460.0 C134.8,461.1 138.4,463.2 140.0,464.3 C142.0,465.3 145.6,467.8 147.3,469.2 C149.3,470.3 153.2,472.4 155.2,473.4 C157.2,474.1 161.1,475.9 163.1,477.0 C165.1,478.0 168.7,480.2 170.3,481.2 C172.3,482.3 176.3,484.4 178.2,485.4 C180.2,486.1 184.2,487.9 186.2,489.0 C188.5,489.7 192.4,491.5 194.1,492.5 C195.7,493.2 195.7,495.7 194.1,497.5 C192.7,498.9 190.1,502.1 188.8,503.8 C187.5,505.3 184.8,508.4 183.5,510.2 C182.5,512.0 180.2,515.9 178.9,518.0 C177.9,519.7 175.6,523.3 174.3,525.0 C173.0,526.4 170.3,529.6 169.0,531.4 C167.7,533.2 165.1,536.7 163.7,538.5 C162.4,539.9 159.8,543.1 158.5,544.8 C157.1,546.3 154.2,549.4 152.5,551.2 C151.2,552.6 148.6,555.8 147.3,557.6 C146.0,559.0 143.0,562.2 141.3,563.9 C140.0,565.4 137.4,568.5 136.1,570.3 C135.1,572.1 132.5,575.2 130.8,576.7 C129.5,578.1 126.2,578.4 124.2,577.4 C122.6,576.0 118.9,573.5 117.0,572.4 C115.3,571.4 111.7,569.2 109.7,568.2 C107.7,567.1 103.8,565.3 101.8,564.6 C99.8,563.6 95.6,561.8 93.2,561.1 C91.3,560.4 86.7,559.3 84.0,559.0 C81.7,558.3 76.8,557.2 74.2,556.8 C71.8,556.5 66.9,555.8 64.2,555.4 C61.9,554.7 57.0,554.0 54.4,554.0 L49.7,554.0 L53.1,556.2 C54.7,556.9 58.7,558.3 61.0,559.0 C63.6,559.3 68.5,560.1 70.8,560.4 C73.5,560.8 78.4,561.8 80.7,562.5 C83.4,562.9 88.0,563.9 90.0,564.6 C92.3,565.3 96.6,567.1 98.5,568.2 C100.5,568.9 104.5,570.7 106.4,571.7 C108.4,572.8 112.0,575.2 113.7,576.7 C115.3,577.7 118.6,580.2 120.2,581.6 C122.2,582.7 126.2,584.8 128.2,585.8 C130.1,586.6 133.1,585.5 134.1,583.7 C135.4,582.0 138.1,578.4 139.4,576.7 C140.7,574.9 143.3,571.7 144.6,570.3 C145.9,568.5 148.6,565.4 149.9,563.9 C151.6,562.2 154.5,559.0 155.8,557.6 C157.2,555.8 159.8,552.6 161.1,551.2 C162.4,549.4 165.1,546.3 166.4,544.8 C168.0,543.1 170.7,539.6 171.7,537.8 C173.0,536.0 175.6,532.5 176.9,530.7 C178.2,528.9 180.9,525.8 182.2,524.3 C183.5,522.6 186.1,519.4 187.5,518.0 C188.8,516.2 191.1,512.7 192.1,510.9 C193.4,508.8 195.7,504.9 196.7,503.1 C198.0,501.4 200.6,497.8 202.0,496.1 C203.3,494.3 205.9,491.1 207.2,489.7 C208.5,487.9 210.9,484.4 211.8,482.6 C212.8,480.5 214.8,476.6 215.8,474.8 C217.1,472.7 219.7,469.2 221.1,467.8 C222.4,466.0 225.4,462.8 227.0,461.4 C228.6,460.0 231.9,458.9 233.6,459.3 C235.2,459.3 238.5,460.7 240.2,462.1 C241.8,463.2 244.4,466.4 245.4,468.5 C246.4,470.6 248.7,474.2 250.1,475.6 C251.7,477.0 254.0,480.8 254.7,483.3 C255.6,485.4 257.3,489.7 258.0,491.8 C259.0,493.9 260.6,498.2 261.2,500.3 C262.2,502.4 264.2,506.7 265.2,508.8 C266.5,510.6 268.5,514.4 269.2,516.6 C270.1,518.7 272.1,522.9 273.1,525.0 C274.4,526.8 275.7,531.1 275.7,533.5 L275.7,537.8 L273.8,534.2 C272.8,532.1 270.5,528.2 269.2,526.5 C267.8,524.7 264.5,522.2 262.6,521.5 C260.6,520.4 256.6,520.4 254.7,521.5 L251.4,523.6 L255.3,523.6 C257.6,523.3 261.6,524.3 263.2,525.8 C264.9,526.8 267.8,529.6 269.2,531.4 C270.8,532.8 272.8,535.7 273.1,537.1 C273.8,538.5 276.1,540.6 277.7,541.3 C279.7,542.0 283.0,544.5 284.3,546.3 C286.0,547.7 288.9,550.5 290.2,551.9 C291.9,553.3 294.8,556.5 296.2,558.3 C297.8,559.7 300.8,562.5 302.1,563.9 C303.7,565.4 306.7,568.2 308.0,569.6 C309.7,571.0 313.0,573.8 314.6,575.3 C316.6,576.3 320.9,577.0 323.2,576.7 C325.8,576.3 331.1,575.9 333.7,575.9 C336.7,575.6 342.3,575.6 344.9,575.9 C347.6,575.9 351.5,577.4 352.8,578.8 C354.5,580.2 357.4,583.4 358.7,585.1 C360.1,586.9 362.1,590.8 362.7,592.9 C363.7,595.0 366.4,598.2 368.0,599.3 C369.6,600.3 373.6,601.0 375.9,600.7 C378.2,600.0 382.8,599.7 385.1,600.0 C387.8,600.4 391.7,602.5 393.0,604.2 C394.7,605.6 397.0,609.5 397.6,612.0 C398.3,614.1 401.3,616.3 403.6,616.3 C406.2,615.9 410.5,616.6 412.1,617.7 C413.8,618.4 418.1,619.4 420.7,619.8 C423.3,619.8 428.6,620.2 431.2,620.5 C434.2,620.5 439.5,620.8 441.8,621.2 C444.4,621.5 449.3,622.6 451.7,623.3 C454.3,623.7 459.2,624.4 461.5,624.7 C464.2,625.1 469.1,625.4 471.4,625.4 C474.1,625.4 479.0,625.8 481.3,626.2 C483.9,626.2 489.2,626.5 491.8,626.8 C494.5,626.8 499.7,627.2 502.4,627.6 C505.0,627.9 510.0,628.6 512.3,629.0 C514.9,629.3 520.2,630.0 522.8,630.4 C525.4,630.4 530.7,630.7 533.3,631.1 C536.0,631.5 541.3,632.2 543.9,632.5 L548.5,632.5 L548.5,631.8 C552.5,629.3 556.1,627.6 558.4,626.8 C560.7,626.1 563.0,624.4 563.0,623.3 C563.3,622.3 561.7,621.6 559.7,621.9 C557.7,621.9 553.1,622.3 550.5,622.6 C547.9,623.0 542.9,623.7 540.6,624.0 C538.3,624.0 534.0,623.3 532.0,622.6 C530.1,621.9 525.8,621.2 523.5,621.2 C521.5,621.2 516.9,621.2 514.2,621.2 C511.6,620.8 506.0,620.5 503.1,620.5 C500.4,620.2 495.1,619.8 492.5,619.8 C489.9,619.4 484.6,619.1 482.0,619.1 C479.7,618.7 474.7,618.0 472.1,617.7 C469.8,617.3 465.2,616.2 462.9,615.5 C460.9,614.8 456.9,613.8 455.0,613.4 C453.0,613.1 448.7,612.4 446.4,612.0 C444.1,611.3 439.5,609.9 437.2,609.2 C435.2,608.1 431.6,606.7 429.9,606.3 C428.6,606.0 425.0,604.9 422.7,604.2 C420.7,603.5 417.1,603.5 415.4,604.2 C414.1,604.6 410.5,604.6 408.2,604.2 C406.2,603.9 402.6,602.1 400.9,600.7 C399.3,599.3 396.0,596.8 394.3,595.8 C392.7,594.3 388.7,592.9 386.4,592.9 C384.1,592.6 379.2,592.6 376.6,592.9 C373.9,593.3 370.0,591.9 368.7,590.1 C367.7,588.3 365.7,584.4 364.7,582.3 C363.7,580.2 361.1,576.7 359.4,575.3 C358.1,573.8 354.8,571.7 352.8,571.0 C350.9,569.9 345.9,568.9 342.9,568.9 C340.3,568.5 335.0,568.5 332.4,568.9 C329.8,568.9 324.5,569.2 321.9,569.6 C319.6,569.6 315.9,568.2 314.6,566.8 C313.3,565.0 310.3,561.8 308.7,560.4 C307.4,559.0 304.4,556.2 302.7,554.8 C301.4,553.0 298.5,549.8 296.8,548.4 C295.5,547.0 292.6,544.1 290.9,542.7 C289.3,541.3 286.9,538.1 286.3,536.3 C285.6,534.2 284.0,530.3 283.0,528.6 C282.0,526.4 279.7,522.6 278.4,520.8 L276.4,516.6 L278.4,518.0 C279.7,518.7 282.3,521.1 283.7,522.9 C285.0,524.7 287.3,527.5 288.3,528.6 L290.9,530.7 L290.2,529.3 C290.2,528.6 288.9,526.4 287.6,525.0 C286.6,523.3 284.3,520.1 283.0,518.7 C281.7,516.9 279.0,513.4 277.7,511.6 C276.4,509.8 273.8,506.7 272.5,505.3 C271.1,503.5 268.8,500.0 267.8,498.2 C266.9,496.1 264.9,491.8 263.9,489.7 C263.2,487.2 261.6,482.6 260.6,480.5 C259.9,478.4 258.0,474.5 256.7,472.7 C255.3,471.0 252.7,467.4 251.4,465.7 C250.4,463.9 248.1,460.7 246.7,459.3 C245.4,457.5 242.1,454.7 240.2,453.6 C238.5,452.2 234.6,450.8 232.2,450.8 C230.3,450.8 226.7,452.6 225.0,454.3 C223.7,455.8 220.7,458.6 219.1,460.0 C217.8,461.4 215.1,464.6 213.8,466.3 C212.5,467.8 209.8,471.3 208.5,473.4 C207.5,475.2 205.6,479.1 204.6,481.2 C203.6,483.0 201.0,485.1 199.3,485.4 C197.7,485.8 194.0,485.5 192.1,484.8 C190.1,483.7 186.1,481.9 184.2,481.2 C182.2,480.2 178.2,478.0 176.2,477.0 C174.3,475.9 170.3,474.1 168.3,473.4 C166.4,472.4 162.4,470.3 160.4,469.2 C158.5,468.1 154.5,466.0 152.5,464.9 C150.9,463.9 147.3,461.8 145.3,460.7 C143.6,459.6 140.0,457.5 138.1,456.5 C136.4,455.1 133.1,452.6 131.5,451.5 C129.8,450.1 126.2,447.6 124.2,446.6 C122.6,445.2 119.3,442.7 117.6,441.6 C116.0,440.2 112.7,437.4 111.0,436.0 C109.7,434.6 107.8,431.4 107.1,429.6 C106.8,427.5 107.4,423.6 108.4,421.8 C109.7,420.0 112.0,416.5 113.0,414.8 C114.3,412.6 116.6,408.7 117.6,407.0 C118.6,404.9 120.6,401.0 121.6,399.2 C122.5,397.1 124.5,393.2 125.5,391.4 C126.8,389.3 129.2,385.4 130.2,383.6 C131.1,381.5 133.1,377.3 134.1,375.2 C135.1,373.0 137.1,369.1 138.1,367.4 C139.0,365.3 141.0,361.4 142.0,359.6 C143.0,357.5 145.0,353.3 146.0,351.1 C147.0,349.0 148.6,344.8 149.2,342.6 C150.2,340.5 151.9,336.3 152.5,334.2 C153.5,331.7 155.8,327.8 157.2,326.4 C158.5,324.6 161.1,321.4 162.4,320.0 C164.1,318.6 167.0,315.4 168.3,313.6 C169.7,311.9 172.0,308.3 173.0,306.6 C174.3,304.8 176.9,301.6 178.2,300.2 C179.9,298.5 182.8,295.3 184.2,293.8 C185.8,292.4 188.8,289.6 190.1,288.2 C191.7,286.8 195.0,283.9 196.7,282.5 C198.3,281.1 201.6,278.7 203.3,277.6 C205.3,276.5 209.2,274.4 211.2,273.3 C213.2,272.3 216.8,270.2 218.4,269.1 C220.4,268.0 223.7,265.6 225.0,264.2 C226.3,262.4 229.9,261.0 232.2,261.3 C234.6,261.7 238.9,261.3 240.8,260.6 C242.8,259.6 247.1,257.8 249.4,257.1 C251.7,256.4 256.3,255.3 258.6,255.0 C260.9,254.3 264.9,252.5 266.5,251.4 C268.5,250.4 272.8,249.3 275.1,249.3 C277.7,249.0 282.7,248.2 285.0,247.9 C287.6,247.5 292.2,246.1 294.2,245.1 C296.2,244.0 299.1,243.3 300.1,243.7 C301.1,243.7 302.7,245.8 303.4,247.9 C304.1,249.6 304.1,253.9 303.4,256.4 C302.7,258.9 301.4,263.8 300.8,266.3 C300.1,268.4 298.5,273.0 297.5,275.5 C296.8,277.6 296.8,281.5 297.5,283.3 C298.2,284.7 299.5,283.9 300.1,281.8 C300.8,279.3 301.8,274.4 302.1,271.9 C302.8,269.1 304.1,264.2 304.7,262.0 C305.7,259.9 307.7,256.0 308.7,254.3 C309.7,252.5 311.0,249.7 311.3,248.6 L312.0,245.8 L313.3,250.0 C314.3,252.1 316.3,256.4 317.2,258.5 C318.2,260.6 319.9,264.9 320.6,267.0 L322.5,271.2 L320.6,267.7 C319.6,265.9 317.6,262.4 316.6,260.6 C315.6,258.5 313.6,257.1 312.7,257.8 C312.0,258.5 312.0,261.7 312.7,264.2 C313.3,266.6 314.9,270.9 315.9,272.6 C317.3,274.4 319.2,278.7 319.9,281.1 C320.5,283.6 322.5,287.1 323.8,288.2 C325.5,289.3 327.8,290.0 328.5,289.6 C329.5,289.2 332.1,290.3 333.7,291.7 C335.7,292.8 339.3,295.2 341.0,296.7 C342.6,297.7 345.6,299.2 346.9,299.5 C348.2,299.5 351.5,299.5 353.5,299.5 C355.8,299.2 359.4,300.2 360.7,301.6 C362.4,303.0 365.3,306.2 366.7,308.0 C368.3,309.4 370.9,312.6 371.9,314.3 C373.3,316.1 375.6,319.6 376.6,321.4 C377.9,323.2 380.5,326.0 381.8,327.1 C383.5,327.8 387.4,328.5 389.7,328.5 C392.0,328.2 395.3,329.5 396.3,331.3 C397.3,333.1 400.3,335.2 402.2,335.6 C404.6,335.9 408.5,337.3 410.2,338.4 C412.1,339.4 414.1,341.9 414.1,343.3 C414.4,344.4 415.4,347.2 416.1,349.0 C417.1,350.8 417.1,353.9 416.1,355.3 C415.4,356.4 413.4,357.8 412.1,358.2 C410.8,358.2 407.8,357.5 406.2,356.8 C404.9,356.1 403.2,352.9 402.9,350.4 C402.9,347.6 402.6,344.4 402.2,344.0 L401.6,342.6 L400.3,347.6 C400.0,349.7 398.9,353.6 398.3,355.3 C397.6,356.8 394.7,357.5 392.4,356.8 C390.4,356.1 386.4,354.3 384.5,353.2 C382.5,352.2 378.9,350.1 377.2,349.0 C375.6,347.6 372.6,344.4 371.3,342.6 C370.0,340.9 367.3,337.7 366.0,336.3 C364.7,334.5 362.1,333.5 360.7,334.2 C359.8,334.9 359.8,337.7 360.7,339.8 C362.1,341.6 364.7,345.1 366.0,346.9 C367.3,348.3 370.3,351.1 371.9,352.5 C373.6,353.9 376.6,357.1 377.9,358.9 C379.2,360.3 382.5,362.1 384.5,362.4 C386.4,362.4 390.7,363.1 393.0,363.8 C395.3,364.6 399.6,366.0 401.6,366.7 C403.9,367.4 408.2,369.1 410.2,370.2 C412.1,371.3 416.1,373.0 418.1,373.8 C420.4,374.5 425.3,375.5 427.9,375.8 C429.0,375.8 430.0,375.6 430.9,375.3 C430.8,375.2 430.8,375.1 430.7,374.9 C430.0,372.6 428.9,369.6 428.9,369.6 C428.8,369.5 428.8,369.3 428.8,369.3 C426.8,368.5 423.9,366.6 422.7,365.3 C421.7,363.5 421.7,360.7 422.7,359.6 C423.5,358.9 424.5,357.9 425.5,356.9 C425.6,354.8 426.8,352.7 428.9,351.7 C429.7,351.4 430.5,351.2 431.2,351.2 C432.7,351.2 434.1,351.7 435.2,352.6 L435.2,352.6 C435.9,353.2 436.5,353.8 436.9,354.7 C437.5,356.0 437.9,357.0 438.3,357.8 C439.3,358.6 440.4,359.0 441.1,358.2 C442.4,356.8 445.1,354.3 446.4,353.2 C448.0,352.2 450.3,350.4 451.0,349.7 L452.3,347.6 L453.0,351.8 C453.6,353.6 455.3,357.5 456.3,359.6 C457.3,361.4 458.9,365.6 459.6,368.1 C460.2,370.6 461.5,375.2 462.2,377.3 C463.2,379.4 464.8,382.6 465.5,383.6 C466.5,384.7 467.5,384.4 467.5,382.9 C467.8,381.2 468.1,378.7 468.1,378.0 C468.1,376.9 470.1,376.2 472.1,376.6 C474.4,376.6 479.0,376.2 481.3,375.8 C483.9,375.5 488.6,374.5 490.5,373.8 C492.5,372.7 496.5,370.9 498.4,370.2 C500.7,369.1 505.0,367.4 507.0,366.7 C509.3,366.0 513.9,364.6 516.2,363.8 C518.5,363.1 522.1,361.4 523.5,360.3 C524.8,358.9 526.8,355.7 527.4,353.9 C528.1,351.8 530.4,349.7 532.0,349.7 C533.7,349.7 535.0,351.8 534.7,353.9 C534.7,356.1 533.7,360.3 532.7,362.4 C531.7,364.6 529.7,368.8 528.7,370.9 C527.8,372.7 525.4,376.2 524.1,378.0 C523.1,379.7 520.5,383.3 518.9,385.1 C517.6,386.5 514.9,389.6 513.6,391.4 C512.3,392.8 509.3,395.7 507.7,397.1 C506.0,398.5 502.7,401.3 501.1,402.7 C499.4,403.8 495.8,405.9 493.8,407.0 C492.2,408.0 488.2,409.8 485.9,410.5 C483.6,411.2 479.3,413.0 477.3,414.0 C475.4,414.7 471.4,416.9 469.4,418.3 C467.8,419.3 464.5,421.8 462.9,423.2 C461.6,424.6 458.6,427.5 456.9,428.9 C455.6,430.3 452.3,432.8 450.3,433.8 C448.4,434.9 443.8,436.3 441.1,436.7 C438.5,436.7 433.2,436.3 430.6,436.0 C428.3,435.3 424.3,433.1 422.7,431.7 C421.3,430.3 418.4,427.8 416.7,426.8 C415.1,425.3 411.5,422.9 409.5,421.8 C407.9,420.4 404.6,417.9 402.9,416.9 C401.3,415.5 397.3,413.3 395.0,412.6 C393.0,411.6 389.1,409.8 387.1,409.1 C385.1,408.0 381.5,405.9 379.8,404.8 C378.2,403.4 374.9,400.6 373.2,399.2 C371.6,397.8 368.6,395.0 367.3,393.5 C366.0,391.8 363.4,388.2 362.1,386.5 C360.7,384.7 358.1,381.2 356.8,379.4 C355.8,377.6 353.8,374.1 352.8,372.3 C351.9,370.2 349.5,366.3 348.2,364.5 L346.2,360.3 L345.6,363.1 C345.6,364.5 346.2,368.4 346.9,370.9 C347.9,373.0 349.9,377.3 350.8,379.4 C351.8,381.2 353.8,385.0 354.8,387.2 C355.8,388.9 358.1,392.5 359.4,394.3 C360.7,396.0 363.4,399.2 364.7,400.6 C366.3,402.0 369.6,404.8 371.3,406.3 C372.9,407.7 376.2,410.5 377.9,411.9 C379.5,413.0 383.1,414.7 385.1,415.4 C387.4,416.1 391.7,417.9 393.7,419.0 C395.7,420.1 399.3,422.5 400.9,423.9 C402.6,425.0 405.9,427.5 407.5,428.9 C409.5,429.9 413.1,432.4 414.7,433.8 C416.4,434.9 419.7,437.4 421.3,438.8 C423.0,439.8 426.9,441.6 429.2,442.3 C431.6,443.0 436.5,443.7 439.2,443.7 C441.8,443.4 446.7,442.7 449.0,442.3 C451.7,441.6 455.6,439.5 456.9,438.1 C458.6,436.7 461.6,433.8 462.9,432.4 C464.5,431.0 467.8,428.2 469.4,426.8 C471.1,425.3 474.4,422.9 476.0,421.8 C478.0,420.8 482.3,419.0 484.6,418.3 C486.9,417.6 491.2,416.1 493.2,415.4 C495.1,414.4 498.8,412.3 500.4,411.2 C502.4,410.2 505.7,407.7 507.0,406.3 C508.6,404.5 511.6,401.3 512.9,399.9 C514.6,398.5 517.6,395.7 518.9,394.3 C520.5,392.5 523.5,389.3 524.8,387.9 C526.1,386.1 528.4,382.6 529.4,380.8 C529.5,380.7 529.6,380.5 529.7,380.3 C530.2,378.6 531.2,376.9 532.6,375.7 C533.1,374.8 533.7,373.7 534.0,373.0 C535.0,370.9 536.7,368.1 537.3,367.4 L537.4,367.3 C538.0,365.9 538.7,364.6 539.4,363.4 C539.4,363.4 539.4,363.4 539.4,363.3 C539.5,362.9 539.4,362.1 539.5,361.5 C539.8,359.2 540.4,356.9 541.3,354.6 C541.3,354.6 541.4,354.5 541.4,354.4 C541.5,352.5 541.6,350.0 541.9,348.3 C542.6,346.2 544.2,341.9 545.2,339.8 C546.2,337.7 548.2,334.5 549.2,333.4 C550.1,332.0 552.5,329.2 553.8,327.8 C555.4,326.0 558.4,322.8 559.7,321.4 C561.4,320.0 564.3,317.2 565.6,315.8 C566.9,314.0 569.3,310.5 570.2,308.7 L572.9,304.4 L572.9,305.2 C573.2,305.5 572.5,308.0 571.6,310.1 C570.6,312.2 569.6,315.8 569.6,317.2 C569.6,318.3 570.9,317.9 572.2,316.5 C573.5,314.7 575.9,311.2 576.8,309.4 C578.2,307.3 580.1,303.0 580.8,300.9 C581.8,298.8 582.1,295.3 581.4,293.8 C581.1,292.1 580.8,288.2 580.8,286.1 C581.1,283.9 582.1,281.1 582.8,280.4 C583.4,279.4 585.1,277.2 586.1,276.2 C587.4,274.7 589.0,270.9 589.3,268.4 C590.0,265.9 591.0,260.6 591.3,257.8 C591.7,255.0 592.0,249.3 592.0,246.5 C592.3,243.6 594.0,241.2 595.3,241.5 C596.9,241.9 600.9,243.0 603.2,243.7 C605.5,244.4 609.8,245.8 611.7,246.5 C614.1,247.2 618.7,248.6 621.0,249.3 C623.3,250.0 627.6,251.8 629.6,252.8 C631.5,253.6 634.5,256.0 635.5,257.8 C636.8,259.6 640.1,262.4 642.1,263.4 C644.4,264.1 648.6,265.6 650.6,266.3 C652.9,267.0 656.9,269.1 658.5,270.5 C660.2,271.9 663.5,274.7 665.1,276.2 C666.8,277.2 670.1,279.7 671.7,281.1 C673.4,282.2 676.7,284.7 678.3,286.1 C680.3,287.1 683.9,289.6 685.6,291.0 C687.2,292.1 690.1,294.9 691.5,296.7 C693.1,298.1 696.1,300.9 697.4,302.3 C699.1,303.7 702.0,306.6 703.3,308.0 C705.0,309.4 708.0,312.6 709.3,314.3 C710.9,315.8 713.9,319.0 715.2,320.7 C716.5,322.1 719.2,325.3 720.5,327.1 C722.1,328.5 725.1,331.7 726.4,333.4 C727.7,334.9 730.3,337.7 731.7,339.1 C733.3,340.5 735.9,344.0 736.9,346.2 C738.3,347.9 741.2,351.1 742.9,352.5 C744.5,353.6 747.5,356.4 748.8,358.2 C750.1,360.0 752.1,363.9 752.7,366.0 C753.7,368.1 755.7,372.0 756.7,373.8 C758.0,375.5 761.0,378.7 762.6,380.1 C764.3,381.5 766.9,384.7 767.9,386.5 C769.2,388.2 771.5,392.1 772.5,394.3 C773.5,396.4 775.5,400.6 776.5,402.7 C777.5,404.5 779.8,407.7 781.1,409.1 C782.7,410.5 785.7,413.7 787.0,415.4 C788.3,417.2 791.0,420.4 792.3,421.8 C793.9,423.2 796.9,426.4 798.2,428.2 C799.5,430.0 800.2,433.9 799.5,436.0 C798.9,437.7 797.2,441.6 796.2,443.7 C795.3,445.5 792.9,449.0 791.6,450.8 C790.3,452.6 787.7,456.1 786.3,457.9 C785.0,459.3 782.1,462.5 780.4,464.3 C779.1,465.7 776.1,468.5 774.5,469.9 C773.2,471.3 770.2,474.2 768.6,475.6 C767.2,477.0 764.3,479.8 762.6,481.2 C761.0,482.6 757.7,485.5 756.0,486.9 C754.4,487.9 751.1,490.4 749.5,491.8 C747.8,493.2 744.5,496.1 742.9,497.5 C741.2,498.5 737.6,500.7 735.6,501.7 C734.0,502.8 730.4,504.9 728.4,505.9 C726.4,507.0 722.1,508.8 719.8,509.5 C717.8,510.2 713.6,512.0 711.2,513.0 C709.3,513.7 708.6,515.5 709.9,516.6 C711.3,517.3 714.5,517.3 716.5,516.6 C718.8,515.9 723.1,514.4 725.1,513.7 C727.4,512.7 731.7,510.9 733.7,510.2 C735.6,509.1 739.3,507.0 740.9,505.9 C742.9,504.5 746.5,502.1 748.1,501.0 C749.8,499.6 753.1,497.1 754.7,496.1 C756.4,494.7 759.7,492.2 761.3,491.1 C763.3,489.7 766.6,486.9 767.9,485.4 C769.5,484.0 772.5,481.2 773.8,479.8 C775.5,478.0 778.4,474.9 779.7,473.4 C781.4,472.0 784.4,469.2 785.7,467.8 C787.0,466.0 789.6,462.8 791.0,461.4 C792.6,459.6 795.3,456.1 796.2,454.3 C797.6,452.6 799.9,449.1 800.8,447.3 C802.2,445.2 804.1,440.9 804.8,438.8 C805.5,436.3 805.8,431.7 805.5,429.6 C805.5,427.5 803.8,424.0 802.2,422.5 C800.8,420.8 797.9,417.6 796.2,416.2 C794.9,414.7 792.0,411.9 790.3,410.5 C789.0,408.7 786.3,405.5 785.0,404.1 C783.7,402.4 781.4,398.5 780.4,396.4 C779.8,394.3 777.8,390.4 776.5,388.6 C775.5,386.5 773.2,382.9 771.8,381.5 C770.5,379.7 767.6,376.6 765.9,375.2 C764.3,373.7 761.6,370.6 760.7,368.8 C759.7,366.7 757.7,362.8 756.7,361.0 C755.7,358.9 753.4,355.0 752.1,353.2 C750.8,351.5 747.8,348.3 746.2,346.9 C744.8,345.5 742.2,342.3 740.9,340.5 C739.9,338.7 737.3,335.6 735.6,334.2 C734.0,332.7 731.0,329.9 729.7,328.5 C728.4,326.7 725.7,323.2 724.4,321.4 C723.1,319.6 720.1,316.5 718.5,315.1 C717.2,313.7 714.5,310.8 713.2,309.4 C711.9,307.6 708.9,304.5 707.3,303.0 C705.6,301.6 702.7,298.8 701.4,297.4 C700.1,295.6 697.1,292.4 695.4,291.0 C693.8,289.6 690.5,287.1 688.8,286.1 C687.2,284.7 683.9,281.8 682.2,280.4 C680.9,279.0 677.6,276.5 675.7,275.5 C674.0,274.1 670.7,271.6 669.1,270.5 C667.4,269.1 664.1,266.3 662.5,264.8 C660.9,263.4 656.9,261.3 654.6,260.6 C652.6,259.9 648.3,258.5 646.0,257.8 C644.1,257.1 640.4,255.0 638.8,253.5 C637.5,251.8 634.5,248.6 632.8,247.2 C631.5,245.8 628.2,243.3 626.2,242.2 C624.6,240.8 621.0,238.3 619.0,237.3 C617.4,236.2 613.4,234.5 611.1,233.8 C609.1,233.0 604.5,232.0 601.9,231.6 C599.6,230.9 596.3,228.1 595.3,226.0 C594.6,223.9 594.3,220.0 594.6,218.2 C595.0,216.4 595.0,212.2 594.6,209.7 C594.3,206.9 594.3,201.6 594.6,199.1 C595.0,196.3 595.9,192.4 596.6,191.3 C597.3,190.3 597.6,187.1 597.2,185.0 C597.2,182.9 597.2,177.5 597.2,174.3 C597.2,171.2 596.9,165.2 596.6,162.3 C596.6,159.5 595.9,154.2 595.3,151.7 C595.0,149.2 594.3,144.0 594.0,141.1 C593.6,138.3 593.0,133.0 592.7,130.5 C592.3,127.7 591.7,122.1 591.3,119.2 C591.3,116.0 590.3,111.1 589.3,109.3 C588.4,107.2 586.1,103.3 584.7,101.5 C583.8,99.8 581.1,96.6 579.5,95.2 C578.1,93.4 575.5,90.2 574.2,88.8 C572.9,87.0 570.3,83.5 568.9,81.7 C567.9,79.6 565.3,76.1 563.7,74.7 C562.3,73.2 559.7,70.4 558.4,69.0 C557.1,67.2 554.1,64.1 552.5,62.7 C550.8,61.2 547.5,58.8 545.9,57.7 C544.2,56.3 541.3,53.1 539.9,51.3 C538.6,49.6 535.6,46.8 534.0,45.7 C532.4,44.3 528.8,41.8 526.8,40.7 C525.1,39.7 521.2,37.9 518.9,37.2 C516.6,36.5 512.9,34.4 511.6,32.9 C510.3,31.2 506.7,28.7 504.4,28.0 C502.4,26.9 498.1,25.5 495.8,25.2 C493.5,24.5 488.9,24.1 486.6,24.5 C484.3,24.5 479.3,24.5 476.7,24.5 C474.4,24.1 470.1,24.8 468.1,25.9 C466.1,26.6 462.2,28.4 460.2,29.4 L456.9,30.8 L459.6,28.0 C461.2,26.6 464.5,24.1 466.2,23.1 C468.1,22.0 471.8,20.2 473.4,19.5 L476.7,18.1 L471.4,18.8 C469.1,19.2 464.9,20.6 462.9,21.6 C460.9,22.7 458.3,24.5 457.6,25.2 C457.3,25.9 455.6,28.4 454.3,30.1 C453.0,31.5 451.0,30.8 450.3,28.7 C450.0,26.2 449.0,21.6 448.4,19.5 C447.7,17.0 445.7,12.8 444.4,11.0 C443.8,10.3 442.9,9.2 442.0,8.2 C440.3,7.2 437.6,5.7 437.5,5.6 C435.5,4.5 434.6,3.8 433.3,3.0 C432.8,3.1 432.3,3.1 431.9,3.3 C429.9,3.6 426.0,5.4 424.0,6.8 C422.4,7.8 419.1,10.3 417.4,11.7 C415.8,12.8 411.5,14.2 408.8,14.6 C406.5,14.6 402.6,15.6 400.9,16.7 L398.3,18.8 L403.6,18.8 C406.2,18.5 411.1,18.8 413.4,19.5 C415.7,20.2 419.7,22.3 421.3,23.8 C423.0,24.8 425.6,25.9 426.6,25.9 C427.9,25.5 427.6,24.1 426.0,23.1 C424.3,21.7 422.7,18.8 422.7,17.4 C422.7,15.6 424.3,12.4 426.0,11.0 C427.6,9.6 431.2,8.6 433.2,8.9 C435.5,9.3 438.8,11.7 439.8,13.8 C441.1,15.6 443.1,19.5 443.7,21.6 C444.7,23.8 444.4,26.2 443.1,26.6 C441.8,26.6 440.1,25.2 439.8,23.8 L439.8,20.2 L437.8,24.5 C437.2,26.6 434.2,29.8 431.9,30.8 C429.9,31.5 425.3,31.9 422.7,31.5 C420.3,31.2 415.4,31.2 412.8,31.5 C410.1,31.5 404.9,31.2 402.2,30.8 L397.6,29.4 L402.2,28.7 C404.9,28.4 409.2,27.3 410.8,26.6 L414.1,25.2 L409.5,23.8 C407.5,23.0 403.6,23.4 401.6,24.5 C399.6,25.2 396.0,25.5 394.3,25.2 C392.7,24.8 391.7,22.3 392.4,20.2 C393.4,18.1 396.0,14.6 397.6,13.2 C399.3,11.7 402.9,9.6 404.9,8.9 C407.2,8.2 411.5,6.8 413.4,6.1 L418.1,4.7 L413.4,3.3 C411.5,2.2 407.5,0.8 405.5,0.4 C405.1,0.3 404.6,0.3 404.1,0.4"/>
    <path id="Untitled-14" fill="#000" stroke="#000" stroke-width="0.7" d="M640.7,625.4 L640.7,625.4 L637.5,625.4 L638.8,625.4 L640.7,625.4"/>
    <path id="Untitled-15" fill="#000" stroke="#000" stroke-width="0.7" d="M735.0,617.7 L735.0,617.7 C739.2,613.4 742.2,610.6 743.5,609.2 C745.2,607.4 748.1,604.2 749.5,602.8 C751.1,601.4 754.1,598.6 755.4,597.2 C757.0,595.7 760.3,592.9 762.0,591.5 L765.3,588.7 L760.7,589.4 C758.7,589.7 755.4,591.9 754.1,593.6 C752.7,595.4 749.8,598.6 748.1,600.0 C746.8,601.4 743.9,604.2 742.2,605.6 C740.9,607.1 737.9,610.2 736.3,612.0 C735.0,613.4 734.0,615.5 734.3,616.3 L735.0,617.7"/>
    <path id="Untitled-16" fill="#000" stroke="#000" stroke-width="0.7" d="M393.0,614.1 L393.0,614.1 L388.4,607.1 L388.4,609.2 C388.4,610.2 389.4,613.4 390.4,615.5 L392.4,619.1 L392.4,617.0 L393.0,614.1"/>
    <path id="Untitled-17" fill="#000" stroke="#000" stroke-width="0.7" d="M678.8,492.5 C678.1,492.4 677.5,492.4 677.0,492.5 C675.3,492.9 675.0,494.6 676.3,496.1 C677.6,497.5 680.3,500.7 681.6,502.4 C682.9,503.8 685.5,507.0 686.9,508.8 C688.2,510.6 690.8,513.7 692.1,515.1 C693.8,516.6 696.7,519.4 698.1,520.8 C699.7,522.2 702.7,525.4 704.0,527.2 C705.6,528.6 708.6,531.4 709.9,532.8 C711.6,534.2 714.9,537.1 716.5,538.5 C718.2,539.9 721.1,542.7 722.4,544.1 C724.1,545.5 727.4,548.4 729.0,549.8 C730.7,550.9 734.0,553.3 735.6,554.7 C737.3,556.2 740.6,559.0 742.2,560.4 C743.9,561.5 747.1,563.9 748.8,565.3 C750.8,566.4 754.1,568.9 755.4,570.3 C757.0,571.7 760.0,574.5 761.3,576.0 C763.0,577.4 766.9,578.4 769.2,578.1 L773.8,577.4 C778.8,573.8 782.1,571.4 783.7,570.3 C785.7,568.9 789.3,566.4 791.0,565.3 C792.9,564.3 796.9,562.5 798.9,561.8 C801.2,561.1 805.8,560.0 808.1,559.7 C810.7,559.0 815.7,557.9 818.0,557.6 C820.3,556.9 825.2,555.8 827.9,555.4 C830.5,555.1 835.8,554.7 838.4,554.7 C841.4,554.7 846.3,554.7 848.3,554.7 L852.9,554.7 L848.9,552.6 C847.3,551.2 843.0,550.1 840.4,550.5 C837.7,550.5 832.1,550.9 829.2,551.2 C826.5,551.2 821.3,551.6 818.6,551.9 C816.3,552.3 811.7,553.3 809.4,554.0 C807.1,554.4 802.5,555.4 800.2,556.2 C797.9,556.9 793.6,558.6 791.6,559.7 C789.6,560.4 785.7,562.2 783.7,563.2 C781.7,564.3 777.8,566.4 775.8,567.5 C774.2,568.5 770.9,570.3 769.2,571.0 C767.6,571.4 764.3,570.3 762.6,568.9 C761.3,567.1 758.3,563.9 756.7,562.5 C755.4,561.1 752.1,558.6 750.1,557.6 C748.5,556.2 745.2,553.7 743.5,552.6 C741.9,551.2 738.6,548.7 736.9,547.7 C735.3,546.3 731.7,543.8 729.7,542.7 C728.0,541.3 724.7,538.5 723.1,537.1 C721.8,535.7 718.8,532.8 717.2,531.4 C715.9,529.6 712.9,526.8 711.2,525.8 C709.6,524.3 707.0,521.2 706.0,519.4 C705.0,517.3 702.0,514.1 700.0,513.0 C698.4,511.6 695.4,508.8 694.1,507.4 C692.8,505.6 690.8,502.1 690.2,500.3 L688.8,496.8 L684.9,494.6 C683.4,493.6 680.8,492.7 678.8,492.5"/>
    <path id="Untitled-18" fill="#000" stroke="#000" stroke-width="0.7" d="M388.4,506.0 L388.4,506.0 C383.8,501.7 383.1,500.3 383.8,500.3 C384.5,500.3 386.8,501.4 388.4,502.4 C390.4,503.5 394.0,504.9 395.7,505.2 L399.6,506.0 L397.0,503.1 C396.0,501.4 393.3,498.9 391.7,498.2 C390.1,497.1 386.4,495.0 384.5,493.9 C382.8,492.5 379.8,490.8 378.5,490.4 C377.5,490.0 376.5,490.8 376.5,491.8 C376.5,492.5 375.6,493.2 374.6,493.2 C373.9,492.9 372.9,493.6 372.6,494.6 C372.6,495.7 374.2,498.2 375.9,499.6 C377.5,501.0 380.8,503.8 382.5,505.2 C384.1,506.3 386.4,507.0 387.1,506.7 L388.4,506.0"/>
    <path id="Untitled-19" fill="#000" stroke="#000" stroke-width="0.7" d="M702.0,496.1 L702.0,496.1 C707.3,492.9 711.2,490.8 713.2,489.7 C715.2,488.6 718.8,486.5 720.5,485.5 C722.1,484.0 725.1,481.2 726.4,479.8 C728.0,478.4 731.3,475.6 733.0,474.1 C734.6,472.7 737.6,469.9 738.9,468.5 C740.2,466.7 742.9,463.5 744.2,462.1 C745.8,460.4 748.8,457.2 750.1,455.8 C751.4,454.0 753.7,450.5 754.7,448.7 C756.0,446.9 756.4,445.2 755.4,445.2 C754.4,445.2 752.1,446.9 750.8,448.7 C749.5,450.1 746.5,453.3 744.8,455.0 C743.5,456.5 740.6,459.3 738.9,460.7 C737.6,462.1 734.6,464.9 733.0,466.4 C731.7,467.8 728.7,471.0 727.1,472.7 C725.7,474.1 722.8,477.0 721.1,478.4 C719.5,479.4 715.9,481.6 713.9,482.6 C711.9,483.7 707.9,485.8 706.0,486.9 C704.3,487.9 700.7,490.0 698.7,491.1 C696.7,491.8 693.1,493.6 691.5,494.6 L688.8,496.8 L689.5,496.8 C690.2,496.8 693.5,496.8 696.1,496.8 L702.0,496.1"/>
    <path id="Untitled-20" fill="#000" stroke="#000" stroke-width="0.7" d="M232.9,298.1 L234.9,302.3 C235.9,304.5 237.9,308.3 238.9,310.1 C240.2,311.9 242.8,315.4 244.1,317.2 C245.4,318.9 248.1,322.5 249.4,324.2 C250.7,325.7 253.0,328.8 254.0,330.6 C255.3,332.4 257.6,336.3 258.6,338.4 C259.9,340.2 261.9,344.0 262.6,346.2 C263.6,348.3 265.5,352.5 266.5,354.7 C267.8,356.4 269.8,360.3 270.5,362.4 C271.5,364.5 273.4,368.8 274.4,370.9 C275.4,372.7 277.4,376.6 278.4,378.7 C279.4,380.8 281.3,385.1 282.3,387.2 C283.3,388.9 285.3,392.8 286.3,395.0 C287.3,397.1 289.3,401.3 290.2,403.4 C291.2,405.2 293.2,409.1 294.2,411.2 C295.2,413.0 297.2,416.9 298.1,419.0 C299.5,420.8 301.8,424.6 302.8,426.8 C303.7,428.5 305.7,432.4 306.7,434.5 C308.0,436.3 310.3,439.8 311.3,441.6 C312.6,443.4 314.9,446.9 315.9,448.7 C317.3,450.5 319.6,454.3 320.5,456.5 C321.9,458.2 324.2,461.8 325.2,463.5 C326.5,465.3 328.8,469.2 329.8,471.3 C331.1,473.1 333.4,476.6 334.4,478.4 C335.7,480.1 338.3,483.7 339.7,485.5 C341.0,486.9 343.6,488.3 344.9,488.3 L347.6,487.6 C344.9,482.3 342.9,478.7 341.6,477.0 C340.3,475.2 337.7,471.7 336.4,469.9 C335.4,468.1 333.1,464.6 331.7,462.8 C330.8,461.1 328.5,457.5 327.1,455.8 C326.1,453.6 323.8,449.7 322.5,448.0 C321.5,446.2 319.2,442.7 317.9,440.9 C316.9,438.8 314.9,434.9 314.0,433.1 C313.0,431.0 310.7,427.1 309.3,425.4 L307.4,421.8 L310.0,423.2 C311.3,423.9 313.6,425.0 314.6,425.4 C315.6,425.4 315.3,423.6 314.0,421.8 C312.6,420.1 310.3,416.5 309.3,414.7 C308.4,412.6 306.1,408.7 304.7,407.0 C303.7,405.2 301.8,401.3 300.8,399.2 C299.8,397.1 297.8,393.2 296.8,391.4 C295.8,389.3 293.9,385.1 292.9,382.9 C291.9,380.8 289.9,376.9 288.9,375.2 C287.9,373.0 286.0,369.1 285.0,367.4 C284.0,365.3 281.7,361.4 280.4,359.6 C279.4,357.5 277.4,353.2 276.4,351.1 C275.7,349.0 273.8,345.1 272.5,343.3 C271.1,341.6 268.5,338.4 267.2,337.0 C265.9,335.2 263.2,331.7 261.9,329.9 C260.9,328.1 258.6,324.6 257.3,322.8 C256.3,320.7 254.0,317.2 252.7,315.8 C251.4,314.0 248.4,310.8 246.8,309.4 C245.4,307.6 242.5,304.5 240.8,303.0 C239.5,301.6 236.9,299.9 235.6,299.5 L232.9,298.1"/>
    <path id="Untitled-21" fill="#000" stroke="#000" stroke-width="0.7" d="M752.7,386.5 L750.1,390.7 C749.1,392.5 746.8,396.0 745.5,397.8 C744.2,399.2 741.5,402.4 740.2,404.1 C739.2,405.9 736.9,409.8 735.6,411.9 C734.6,413.7 732.7,417.6 731.7,419.7 C730.7,421.5 728.7,425.4 727.7,427.5 C726.7,429.6 724.4,433.5 723.1,435.3 C722.1,437.0 719.8,440.6 718.5,442.3 C717.5,444.1 715.2,447.6 713.9,449.4 C712.6,451.2 709.9,454.7 708.6,456.5 C707.3,457.9 705.3,461.4 704.7,463.5 L703.3,467.8 L706.0,464.9 L709.3,462.1 L707.9,464.2 C707.6,465.3 705.6,468.1 704.0,469.9 C702.7,471.3 699.7,474.1 698.1,475.6 C696.4,476.6 692.8,479.1 690.8,480.5 C689.2,481.6 686.9,484.0 686.2,485.5 C685.5,486.5 686.9,487.2 688.8,486.9 L693.5,485.5 C698.7,482.3 702.3,479.8 704.0,478.4 C705.6,477.0 708.6,474.1 709.9,472.7 C711.2,471.0 713.5,467.4 714.5,465.7 C715.9,463.9 718.2,460.0 719.1,457.9 C720.1,455.8 719.5,454.0 717.8,454.3 C716.5,454.7 715.2,454.0 715.2,452.9 C715.5,451.5 717.2,448.7 718.5,447.3 C719.8,445.5 722.4,442.3 723.8,440.9 C725.1,439.1 727.4,435.3 728.4,433.1 C729.4,431.0 731.3,427.1 732.3,425.4 C733.3,423.2 735.3,419.3 736.3,417.6 C737.6,415.5 739.9,411.6 740.9,409.8 C742.2,408.0 744.5,404.5 745.5,402.7 C746.8,401.0 749.1,397.4 750.1,395.7 C751.4,393.5 752.7,390.4 752.7,389.3 L752.7,386.5"/>
    <path id="Untitled-22" fill="#000" stroke="#000" stroke-width="0.7" d="M745.5,385.1 L743.5,385.8 C742.5,385.8 740.2,387.9 738.9,390.0 C737.9,391.8 735.6,395.3 734.3,397.1 C733.3,398.8 731.0,402.4 729.7,404.1 C728.4,405.6 725.7,408.7 724.4,410.5 C723.1,412.3 720.5,415.8 719.1,417.6 C717.8,419.0 714.9,422.2 713.2,423.9 C711.9,425.4 709.3,428.5 707.9,430.3 C706.6,431.7 704.0,434.9 702.7,436.7 C701.4,438.1 699.1,441.3 698.1,443.0 L696.1,446.6 L699.4,444.4 C701.0,443.0 703.3,441.6 704.0,441.6 C704.7,441.6 704.3,443.7 703.3,445.9 C702.3,447.6 700.4,451.5 699.4,453.6 C698.4,455.4 697.7,457.5 698.1,457.9 L699.4,458.6 C702.7,453.3 705.3,449.7 706.6,448.0 C707.9,446.2 710.3,442.7 711.2,440.9 C712.6,439.1 714.9,435.6 715.9,433.8 C716.8,431.7 718.8,427.8 719.8,426.1 C721.1,423.9 723.4,420.1 724.4,418.3 C725.7,416.5 728.0,413.0 729.0,411.2 C730.3,409.1 732.7,405.2 733.6,403.4 C735.0,401.7 737.3,398.1 738.3,396.4 C739.6,394.6 741.9,391.1 742.9,389.3 L745.5,385.1"/>
    <path id="Untitled-23" fill="#000" stroke="#000" stroke-width="0.7" d="M831.1,452.9 L831.1,452.9 C826.5,448.7 823.6,445.9 821.9,444.4 C820.6,442.7 817.6,439.5 816.0,438.1 C814.7,436.7 813.4,437.0 813.4,438.8 C813.4,440.2 815.0,443.0 816.7,444.4 C818.3,445.9 821.3,448.7 822.6,450.1 C824.2,451.5 827.2,452.9 828.5,452.9 L831.1,452.9"/>
    <path id="Untitled-24" fill="#000" stroke="#000" stroke-width="0.7" d="M202.6,450.8 L202.6,450.8 C197.0,447.6 193.4,445.5 191.4,444.4 C189.8,443.0 186.5,440.2 184.8,438.8 C183.5,437.4 180.9,434.2 179.6,432.4 C178.6,430.7 176.3,427.1 174.9,425.4 C174.0,423.2 171.6,419.3 170.3,417.6 C169.3,415.8 167.0,412.3 165.7,410.5 C164.4,408.7 162.1,406.6 161.1,406.3 L159.8,405.6 L161.8,409.1 C163.1,410.9 164.7,415.5 165.1,418.3 C165.7,420.8 167.7,424.6 169.0,426.1 C170.7,427.5 173.6,430.7 174.9,432.4 C176.6,433.8 178.2,437.0 178.2,438.8 C178.2,440.2 179.9,443.0 181.5,444.4 C183.2,445.5 186.5,448.0 188.1,449.4 C190.1,450.5 194.7,451.5 197.3,451.5 L202.6,450.8"/>
    <path id="Untitled-25" fill="#000" stroke="#000" stroke-width="0.7" d="M225.0,447.3 L225.0,447.3 C220.1,443.7 217.1,440.6 215.8,438.8 C214.5,437.0 211.8,433.5 210.5,431.7 C209.5,429.9 207.6,426.4 206.6,424.6 C205.6,422.5 203.3,418.6 202.0,416.9 C200.6,415.1 198.0,412.6 196.7,411.9 L194.0,409.8 L196.0,414.0 C197.0,416.2 199.0,420.4 200.0,422.5 C201.0,424.3 203.3,427.8 204.6,429.6 C205.9,431.0 208.2,434.2 209.2,436.0 L211.8,438.8 L207.9,436.7 C206.2,435.6 202.9,433.1 201.3,431.7 C200.0,429.9 197.3,426.8 196.0,425.4 C194.7,423.6 192.1,420.4 190.8,419.0 C189.4,417.2 186.8,413.7 185.5,411.9 C184.5,409.8 182.2,406.3 180.9,404.8 C179.6,403.1 176.6,399.9 174.9,398.5 L172.3,395.0 L173.6,398.5 C174.3,399.9 175.9,403.1 176.9,404.8 C178.2,406.6 180.9,410.2 182.2,411.9 C183.5,413.7 186.1,417.2 187.5,419.0 C188.8,420.4 191.4,423.6 192.7,425.4 C194.0,427.1 197.0,430.3 198.7,431.7 C200.3,432.8 203.3,435.3 204.6,436.7 C206.2,438.1 209.5,440.9 211.2,442.3 C212.8,443.7 217.1,445.9 219.7,446.6 L225.0,447.3"/>
    <path id="Untitled-26" fill="#000" stroke="#000" stroke-width="0.7" d="M203.3,441.6 L203.3,441.6 C198.3,438.1 195.0,435.3 193.4,433.8 C191.7,432.4 188.8,429.6 187.5,428.2 C186.1,426.4 183.2,423.2 181.5,421.8 C180.2,420.4 178.6,419.3 178.2,419.7 C177.9,420.1 178.6,422.2 179.6,423.9 C180.9,425.7 183.5,429.2 184.8,431.0 C186.1,432.8 189.1,436.0 190.8,437.4 C192.4,438.4 195.7,440.9 197.3,442.3 C199.0,443.4 201.3,443.7 202.0,443.0 L203.3,441.6"/>
    <path id="Untitled-27" fill="#000" stroke="#000" stroke-width="0.7" d="M187.5,334.1 C186.8,334.1 186.8,336.3 187.5,338.4 C188.4,340.5 190.1,345.1 190.8,347.6 C191.7,349.7 193.4,353.9 194.0,356.1 C195.0,358.2 197.0,362.4 198.0,364.5 C199.0,366.7 200.6,371.3 201.3,373.7 C202.0,375.9 203.3,380.1 203.9,382.2 C204.9,384.3 206.6,388.9 207.2,391.4 C208.2,393.5 209.9,397.8 210.5,399.9 C211.5,402.0 213.2,406.6 213.8,409.1 C214.8,411.2 216.5,415.8 217.1,418.3 C217.8,420.4 219.1,424.6 219.7,426.8 C220.7,428.9 222.4,433.5 223.0,436.0 C223.7,438.4 225.0,440.6 225.7,440.2 L227.7,439.5 C226.0,432.1 224.7,427.8 223.7,426.1 C223.0,423.9 221.7,419.3 221.1,416.9 C220.7,414.4 219.4,410.2 218.4,408.4 C217.4,406.3 215.5,402.0 214.5,399.9 C213.8,397.4 212.2,392.8 211.2,390.7 C210.5,388.6 208.9,384.3 207.9,382.2 C207.2,379.8 205.6,375.2 204.6,373.0 C203.9,370.9 202.3,366.7 201.3,364.5 C200.6,362.4 199.0,358.2 198.0,356.1 C197.0,353.9 195.0,349.7 194.0,347.6 C193.4,345.5 191.7,341.2 190.8,339.1 C190.1,336.6 188.4,334.1 187.5,334.1"/>
    <path id="Untitled-28" fill="#000" stroke="#000" stroke-width="0.7" d="M281.0,291.7 C278.7,291.7 274.1,292.4 271.8,293.1 C269.5,293.5 264.5,293.8 261.9,293.8 C259.6,293.8 258.0,295.3 258.6,296.7 C259.6,297.7 262.2,300.2 263.9,301.6 C265.5,302.7 268.8,305.2 270.5,306.6 C272.1,308.0 275.4,310.8 277.1,312.2 C278.7,313.3 280.4,316.8 280.4,319.3 C280.7,321.8 279.0,323.2 277.1,322.1 C275.4,320.7 271.8,318.9 269.8,318.6 L265.9,317.2 L268.5,320.7 C269.8,322.5 272.8,325.7 274.4,327.1 C276.1,328.1 279.0,330.6 280.4,332.0 C282.0,333.4 284.6,337.0 285.6,339.1 C286.9,340.9 288.9,344.8 289.6,346.9 C290.6,349.0 292.5,353.2 293.5,355.4 C294.5,357.5 296.5,361.7 297.5,363.8 C298.5,365.6 300.1,369.5 300.8,371.6 C301.8,373.7 303.7,378.0 304.7,380.1 C305.7,382.2 307.4,386.5 308.0,388.6 C309.0,390.7 311.0,395.0 312.0,397.1 C313.0,399.2 314.9,403.4 315.9,405.6 C316.9,407.3 319.2,410.9 320.5,412.6 C321.9,414.0 323.8,417.6 324.5,419.7 C325.5,421.5 327.8,425.0 329.1,426.8 C330.4,428.2 332.7,429.6 333.7,429.6 L336.4,429.6 C332.4,425.0 330.1,421.1 329.1,419.0 C328.1,416.9 326.1,412.6 325.2,410.5 C324.5,408.4 322.9,404.5 321.9,402.7 C320.9,400.6 318.9,396.4 317.9,394.2 C317.3,391.8 315.6,387.2 314.6,385.1 C314.0,382.9 312.3,378.7 311.3,376.6 C310.3,374.4 308.4,370.6 307.4,368.8 C306.4,366.7 304.4,362.4 303.4,360.3 C302.8,358.2 301.1,353.9 300.1,351.8 C299.5,349.3 297.8,345.1 296.8,343.3 C295.8,341.2 294.2,336.6 293.5,334.1 C293.2,331.3 291.9,326.7 290.9,325.0 C289.9,322.8 287.9,318.6 286.9,316.5 C286.3,314.3 284.6,310.1 283.7,308.0 C282.7,305.9 279.4,303.0 277.1,302.3 C275.1,301.6 273.4,299.5 273.8,298.1 C274.1,296.7 275.7,295.3 277.1,295.3 C278.7,295.3 282.7,295.6 285.0,296.0 C287.3,296.0 291.2,297.4 292.9,298.8 C294.5,300.2 298.5,302.3 300.8,303.0 C303.1,303.4 308.0,303.7 310.7,303.7 C313.3,303.7 314.9,302.7 314.0,301.6 C313.3,300.6 310.0,299.5 307.4,299.5 C304.7,299.1 300.1,297.7 298.1,296.7 C296.2,295.6 292.2,293.8 290.2,293.1 C288.3,292.1 283.7,291.4 281.0,291.7"/>
    <path id="Untitled-29" fill="#000" stroke="#000" stroke-width="0.7" d="M319.3,372.1 C319.0,372.1 318.7,372.1 318.6,372.3 C317.9,372.7 318.2,375.2 319.2,377.3 C320.2,379.4 322.2,383.3 323.2,385.1 C324.5,386.8 326.8,390.7 327.8,392.8 C329.1,394.6 331.4,398.1 332.4,399.9 C333.7,401.7 336.4,405.2 337.7,407.0 C339.0,408.4 341.6,411.6 342.9,413.3 C344.3,415.1 346.9,418.6 348.2,420.4 C349.5,421.8 352.2,425.0 353.5,426.8 C355.1,428.2 357.8,428.5 358.8,427.5 L360.7,425.4 C357.1,420.1 354.5,416.9 352.8,415.5 C351.5,413.7 348.9,410.2 347.6,408.4 C346.6,406.6 344.3,403.1 342.9,401.3 C342.0,399.5 339.7,396.0 338.3,394.2 C337.0,392.5 334.7,388.9 333.7,387.2 C332.7,385.1 330.1,381.5 328.5,380.1 C327.1,378.3 324.2,375.2 322.5,373.7 C321.5,372.7 320.2,372.0 319.3,372.1"/>
    <path id="Untitled-30" fill="#000" stroke="#000" stroke-width="0.7" d="M333.7,353.9 L333.7,353.9 C330.1,348.6 327.1,345.8 325.2,344.8 L321.9,341.9 L323.2,346.2 C324.2,348.3 326.5,352.2 327.8,353.9 C329.1,355.4 331.1,356.1 331.7,355.4 L333.7,353.9"/>
    <path id="Untitled-31" fill="#000" stroke="#000" stroke-width="0.7" d="M339.7,332.7 L339.7,332.7 C337.0,326.4 335.4,322.1 334.4,320.0 L333.1,315.1 L331.7,319.3 C331.4,321.4 331.7,325.7 332.4,327.8 C333.4,329.9 335.4,334.1 336.4,336.3 L339.0,339.8 L339.0,336.3 L339.7,332.7"/>
    <path id="Untitled-32" fill="#000" stroke="#000" stroke-width="0.7" d="M349.5,320.0 L349.5,320.0 C350.5,313.3 349.9,309.8 348.9,308.7 C348.2,307.3 346.9,307.6 346.2,309.4 C345.6,310.8 344.9,315.1 344.9,317.9 C344.9,320.4 345.6,323.9 346.2,325.0 C347.2,325.7 348.5,325.0 348.9,323.5 L349.5,320.0"/>
    <path id="Untitled-33" fill="#000" stroke="#000" stroke-width="0.7" d="M264.5,271.2 L265.9,276.2 C266.5,278.3 268.5,282.2 269.8,283.9 C271.5,285.4 275.7,287.1 278.4,287.5 C281.0,287.5 286.0,287.8 288.3,288.2 C290.9,288.5 294.9,289.6 296.2,290.3 L299.5,291.0 C294.9,286.8 290.9,285.4 288.3,285.4 C285.6,285.4 280.7,284.7 278.4,283.9 C276.4,283.2 273.1,280.8 271.8,279.0 C270.8,277.2 268.5,274.4 267.2,273.3 L264.5,271.2"/>
    <path id="Untitled-34" fill="#000" stroke="#000" stroke-width="0.7" d="M449.0,143.2 L449.0,143.2 L447.0,143.2 L447.7,143.2 L449.0,143.2"/>
    <path id="Untitled-35" fill="#000" stroke="#000" stroke-width="0.7" d="M464.8,141.8 L464.8,141.8 L460.2,141.8 L462.2,141.8 L464.8,141.8"/>
    <path id="Untitled-36" fill="#000" stroke="#000" stroke-width="0.7" d="M448.4,131.2 L448.4,131.2 L441.8,126.3 L443.1,129.1 C444.1,130.2 445.7,131.2 446.4,131.2 L448.4,131.2"/>
    <path id="Untitled-37" fill="#000" stroke="#000" stroke-width="0.7" d="M458.9,118.5 L458.9,118.5 L456.9,117.1 L457.6,117.8 L458.9,118.5"/>
    <path id="Untitled-38" fill="#000" stroke="#000" stroke-width="0.7" d="M480.6,108.6 L480.6,108.6 C480.0,101.2 479.0,98.0 478.0,97.3 C477.0,96.6 476.4,98.4 476.7,100.8 C477.4,103.3 478.7,106.5 479.3,107.2 L480.6,108.6"/>
    <path id="Untitled-39" fill="#000" stroke="#000" stroke-width="0.7" d="M586.7,107.2 L586.7,107.2 C583.1,101.9 580.8,99.1 579.5,98.0 L576.8,95.9 L578.8,99.4 C580.1,101.2 582.4,104.7 583.4,106.5 L586.1,110.0 L586.1,108.6 L586.7,107.2"/>
    <path id="Untitled-40" fill="#000" stroke="#000" stroke-width="0.7" d="M496.5,41.4 L496.5,41.4 L507.0,40.7 L505.0,39.3 C504.0,38.6 500.7,38.6 498.4,39.3 C496.1,39.7 492.2,39.3 490.5,38.6 L487.2,36.5 L491.8,35.8 C494.5,35.1 499.4,34.0 501.7,33.7 L507.0,32.9 L503.0,30.8 C501.1,29.8 496.5,28.7 493.8,28.7 C491.2,28.4 486.9,29.1 485.3,30.1 C483.9,31.2 482.3,33.7 482.0,35.1 C481.6,36.5 482.6,39.3 483.9,40.7 C485.6,42.1 489.5,43.2 491.8,42.8 L496.5,41.4"/>
    <path id="Untitled-41" fill="#000" stroke="#000" stroke-width="7.0" d="M453.5,136.6 C456.0,160.5 453.1,125.3 452.9,122.2 C452.7,119.9 451.8,112.8 451.6,115.2 C450.6,125.1 456.7,148.2 447.0,154.5 C437.5,160.6 435.0,141.2 433.9,136.3 C433.5,134.2 432.1,128.3 433.3,129.9 C437.5,136.0 453.5,161.6 457.4,157.3 C458.0,156.7 456.2,156.3 455.5,155.9 C446.1,149.7 440.1,144.2 433.9,134.2 C432.2,131.5 430.9,128.5 429.3,125.7 C428.9,125.0 427.7,122.9 428.0,123.6 C433.0,135.9 439.8,144.4 452.2,148.2 C460.0,150.6 441.3,131.2 438.5,125.7 C437.6,124.1 434.3,121.7 435.9,120.8 C444.5,116.2 453.0,131.1 453.5,136.6"/>
    <path id="Untitled-42" fill="#000" stroke="#000" stroke-width="7.0" d="M462.0,134.5 C451.6,137.8 429.3,147.3 429.3,135.6 C429.3,117.0 456.0,132.6 462.7,134.9 C464.4,135.4 468.5,137.3 467.9,135.6 C466.7,131.8 450.1,128.1 446.3,124.3 C439.7,117.6 437.3,110.8 436.5,112.4 C432.0,122.2 447.0,135.6 454.8,135.6 C455.5,135.6 457.4,135.9 456.8,135.6 C452.3,133.1 442.8,119.1 446.3,125.0 C451.0,133.0 455.3,140.7 460.7,148.2 C461.6,149.4 464.0,151.8 462.7,152.4 C451.4,157.2 431.3,122.8 440.5,130.6 C445.5,134.9 449.9,140.2 454.8,144.7 C456.0,145.8 458.9,149.5 457.4,148.9 C442.7,142.9 449.1,119.2 450.9,120.8 C453.3,123.0 455.1,132.7 455.5,134.9 C459.6,155.8 439.9,141.4 450.3,120.1 C459.3,101.5 498.1,139.3 482.3,148.9 C457.6,163.8 451.1,95.0 461.4,103.3 C469.2,109.6 478.7,155.4 463.3,141.2 C457.5,135.7 442.6,96.0 459.4,115.2 C463.3,119.7 471.8,121.7 471.8,127.8 C471.8,129.9 450.7,120.1 449.0,120.8 C441.0,123.9 452.1,159.2 455.5,163.6 C458.0,166.9 452.1,186.1 459.4,141.9 C460.6,134.3 470.6,80.7 477.7,80.1 C489.9,79.1 499.1,124.9 473.8,120.1 C471.7,119.7 469.3,119.0 467.9,117.3 C465.2,114.1 463.7,110.0 462.0,106.1 C461.2,104.2 458.7,99.5 460.7,99.8 C468.7,101.0 474.1,105.4 482.9,105.4 C487.2,105.4 497.2,106.7 495.4,102.6 C494.6,101.0 484.0,100.2 482.3,99.1 C478.6,96.5 471.4,86.0 471.8,90.7 C472.6,99.4 479.1,105.8 485.6,110.3 C487.9,112.0 495.5,116.0 492.7,115.2 C484.3,113.0 474.9,93.9 478.4,86.5 C479.2,84.6 501.8,116.5 493.4,121.5 C482.6,127.9 480.3,106.9 479.0,100.5 C478.6,98.4 477.4,92.3 478.4,94.2 C482.0,101.2 484.2,108.8 487.5,115.9 C487.9,116.9 489.4,119.5 488.8,118.7 C482.8,110.7 473.2,90.7 475.1,93.5 C495.6,122.9 498.1,123.0 462.0,134.5"/>
    <path id="Untitled-43" fill="#000" stroke="#000" stroke-width="7.0" d="M580.4,106.4 C578.6,104.7 573.7,102.6 575.4,100.8 C576.9,99.3 580.0,105.4 580.4,106.1 C581.5,108.1 574.8,98.9 576.4,100.5 C578.0,102.1 582.9,106.5 580.7,105.8 C577.7,104.8 576.2,101.1 575.1,98.5 C574.8,97.7 574.1,95.3 574.1,96.2 C574.1,98.1 578.0,101.4 579.1,103.1 C579.5,103.9 581.0,106.1 580.4,105.4 C578.3,103.3 573.7,95.7 575.8,97.8 C577.1,99.2 578.3,101.5 579.4,103.1 C580.1,104.2 582.8,107.2 581.7,106.4 C574.8,101.8 572.1,93.8 572.1,93.9 C573.6,96.8 575.9,98.7 578.1,101.1 C579.2,102.4 582.5,105.9 581.4,104.8 C579.7,103.0 578.4,100.2 577.1,98.2 C576.6,97.4 575.0,95.4 575.4,96.2 C576.1,97.5 588.4,115.6 583.0,107.1 C581.8,105.2 587.4,115.1 586.3,113.0 C584.7,109.8 583.4,109.3 580.4,106.4"/>
    <path id="Untitled-44" fill="#000" stroke="#000" stroke-width="7.0" d="M494.1,37.2 C488.0,35.0 499.7,36.3 498.1,39.0 C496.0,42.7 486.0,42.2 483.9,39.0 C483.1,37.9 496.4,32.6 497.1,40.7 C497.7,47.2 485.9,42.2 486.5,36.4 C487.3,29.0 498.6,38.8 494.1,37.2"/>
    <path id="Untitled-45" fill="#000" stroke="#000" stroke-width="7.0" d="M498.8,34.5 C495.2,33.7 487.4,34.2 488.5,30.7 C489.4,28.2 500.7,32.6 497.8,37.0 C494.4,42.1 485.0,36.3 491.5,35.0 C496.9,34.0 498.2,41.3 493.1,43.0 C488.6,44.5 479.2,34.8 483.6,31.7 C488.2,28.5 495.1,31.5 493.5,37.7 C491.5,44.9 483.4,39.5 483.9,34.0 C484.4,28.3 495.7,31.2 496.8,35.7 C498.4,42.0 487.8,27.7 500.4,35.7 C501.2,36.2 504.7,40.2 502.4,41.3 C499.6,42.7 497.1,36.4 499.4,35.7 C502.6,34.8 506.1,41.3 503.7,43.3 C500.0,46.4 496.6,39.4 497.8,36.4 C499.1,32.8 506.7,36.1 504.1,38.7 C500.8,42.0 499.3,32.0 498.1,31.7 C497.6,31.6 496.3,31.1 496.8,31.1 C499.6,31.1 517.8,39.2 498.8,34.5"/>
    <path id="Untitled-46" fill="#000" stroke="#000" stroke-width="7.0" d="M842.8,469.6 C853.5,480.2 869.0,507.2 869.0,523.1"/>
    <path id="Untitled-47" fill="#000" stroke="#000" stroke-width="7.0" d="M872.2,560.7 C872.2,565.1 876.5,573.1 877.3,578.6 C880.9,606.1 883.0,637.2 874.1,663.9"/>
  </g>
</svg>
