<?xml version="1.0" encoding="UTF-8"?>
<svg width="150px" height="150px" viewBox="0 0 150 150" version="1.1" xmlns="http://www.w3.org/2000/svg" xmlns:xlink="http://www.w3.org/1999/xlink">
    <!-- Generator: Sketch 43 (38999) - http://www.bohemiancoding.com/sketch -->
    <title>branding-tile</title>
    <desc>Created with Sketch.</desc>
    <defs></defs>
    <g id="Page-1" stroke="none" stroke-width="1" fill="none" fill-rule="evenodd">
        <g id="Artboard-2-Copy-3" transform="translate(-282.000000, -875.000000)">
            <g id="skills-section" transform="translate(94.000000, 604.000000)">
                <g id="branding-tile" transform="translate(188.000000, 271.000000)">
                    <rect id="Rectangle-9-Copy-5" fill-opacity="0.0699728261" fill="#FFFFFF" x="0" y="0" width="150" height="150"></rect>
                    <path d="M28.0379685,96.578125 C27.9702598,97.1041693 27.8348445,97.5872374 27.6317185,98.0273438 C27.4285924,98.4674501 27.1642722,98.8450505 26.8387497,99.1601562 C26.5132272,99.475262 26.1278144,99.7200512 25.6824997,99.8945312 C25.237185,100.069011 24.7410962,100.15625 24.1942185,100.15625 C23.7254661,100.15625 23.2996891,100.089844 22.9168747,99.9570312 C22.5340603,99.8242181 22.1929179,99.6406262 21.8934372,99.40625 C21.5939565,99.1718738 21.3361466,98.8958349 21.1199997,98.578125 C20.9038528,98.2604151 20.7241671,97.9140644 20.5809372,97.5390625 C20.4377073,97.1640606 20.3309376,96.7708354 20.2606247,96.359375 C20.1903119,95.9479146 20.1525518,95.5312521 20.1473435,95.109375 L20.1473435,93.5234375 C20.1525518,93.1015604 20.1903119,92.6848979 20.2606247,92.2734375 C20.3309376,91.8619771 20.4377073,91.4687519 20.5809372,91.09375 C20.7241671,90.7187481 20.9038528,90.3710954 21.1199997,90.0507812 C21.3361466,89.7304671 21.5939565,89.4531262 21.8934372,89.21875 C22.1929179,88.9843738 22.5327582,88.8007819 22.9129685,88.6679688 C23.2931787,88.5351556 23.7202578,88.46875 24.1942185,88.46875 C24.7619296,88.46875 25.2697371,88.5559887 25.717656,88.7304688 C26.1655749,88.9049488 26.5509877,89.1523421 26.873906,89.4726562 C27.1968242,89.7929704 27.4559362,90.1770811 27.6512497,90.625 C27.8465632,91.0729189 27.9754681,91.5677056 28.0379685,92.109375 L26.592656,92.109375 C26.5457807,91.7656233 26.4650524,91.445314 26.3504685,91.1484375 C26.2358846,90.851561 26.0822403,90.591147 25.889531,90.3671875 C25.6968217,90.143228 25.4611469,89.9674486 25.1824997,89.8398438 C24.9038525,89.7122389 24.5744287,89.6484375 24.1942185,89.6484375 C23.8504667,89.6484375 23.5470844,89.7044265 23.2840622,89.8164062 C23.0210401,89.928386 22.7944798,90.0807282 22.6043747,90.2734375 C22.4142696,90.4661468 22.255417,90.6901029 22.1278122,90.9453125 C22.0002074,91.2005221 21.8973438,91.4713527 21.8192185,91.7578125 C21.7410931,92.0442723 21.685104,92.3372381 21.6512497,92.6367188 C21.6173954,92.9361994 21.6004685,93.2265611 21.6004685,93.5078125 L21.6004685,95.109375 C21.6004685,95.3906264 21.6173954,95.6809881 21.6512497,95.9804688 C21.685104,96.2799494 21.7410931,96.5742173 21.8192185,96.8632812 C21.8973438,97.1523452 21.9989053,97.4244779 22.123906,97.6796875 C22.2489066,97.9348971 22.4077592,98.1601553 22.6004685,98.3554688 C22.7931778,98.5507822 23.019738,98.7044265 23.280156,98.8164062 C23.5405739,98.928386 23.8452584,98.984375 24.1942185,98.984375 C24.5744287,98.984375 24.9038525,98.9244798 25.1824997,98.8046875 C25.4611469,98.6848952 25.6968217,98.5169282 25.889531,98.3007812 C26.0822403,98.0846343 26.2358846,97.8294286 26.3504685,97.5351562 C26.4650524,97.2408839 26.5457807,96.9218767 26.592656,96.578125 L28.0379685,96.578125 Z M38.7398719,94.96875 C38.7346636,95.375002 38.6995077,95.7851542 38.6344032,96.1992188 C38.5692987,96.6132833 38.4690393,97.0130189 38.3336219,97.3984375 C38.1982046,97.7838561 38.0250292,98.1432275 37.8140907,98.4765625 C37.6031521,98.8098975 37.3518525,99.1015613 37.0601844,99.3515625 C36.7685163,99.6015637 36.4338842,99.7981764 36.0562782,99.9414062 C35.6786721,100.084636 35.2554993,100.15625 34.7867469,100.15625 C34.3179946,100.15625 33.8948217,100.084636 33.5172157,99.9414062 C33.1396096,99.7981764 32.8049775,99.6015637 32.5133094,99.3515625 C32.2216413,99.1015613 31.9690397,98.8085954 31.7554969,98.4726562 C31.5419542,98.1367171 31.3661747,97.7760436 31.2281532,97.390625 C31.0901316,97.0052064 30.9872681,96.6067729 30.9195594,96.1953125 C30.8518507,95.7838521 30.8153928,95.375002 30.8101844,94.96875 L30.8101844,93.671875 C30.8153928,93.265623 30.8505487,92.8554708 30.9156532,92.4414062 C30.9807577,92.0273417 31.0823191,91.6276061 31.2203407,91.2421875 C31.3583622,90.8567689 31.5328396,90.4960954 31.7437782,90.1601562 C31.9547167,89.8242171 32.2060163,89.5299492 32.4976844,89.2773438 C32.7893525,89.0247383 33.1239846,88.8268236 33.5015907,88.6835938 C33.8791967,88.5403639 34.3023696,88.46875 34.7711219,88.46875 C35.2398743,88.46875 35.6643492,88.5403639 36.0445594,88.6835938 C36.4247697,88.8268236 36.7607038,89.0234363 37.0523719,89.2734375 C37.34404,89.5234387 37.5953396,89.8164046 37.8062782,90.1523438 C38.0172167,90.4882829 38.1916941,90.8489564 38.3297157,91.234375 C38.4677372,91.6197936 38.5692987,92.0208313 38.6344032,92.4375 C38.6995077,92.8541687 38.7346636,93.265623 38.7398719,93.671875 L38.7398719,94.96875 Z M37.3101844,93.65625 C37.3049761,93.3854153 37.2867471,93.1028661 37.2554969,92.8085938 C37.2242468,92.5143214 37.1708619,92.2226577 37.0953407,91.9335938 C37.0198195,91.6445298 36.91956,91.3684909 36.7945594,91.1054688 C36.6695588,90.8424466 36.5133104,90.6106781 36.3258094,90.4101562 C36.1383085,90.2096344 35.9169565,90.0507818 35.6617469,89.9335938 C35.4065373,89.8164057 35.1096653,89.7578125 34.7711219,89.7578125 C34.4377869,89.7578125 34.143519,89.8177077 33.8883094,89.9375 C33.6330998,90.0572923 33.4117479,90.2174469 33.2242469,90.4179688 C33.036746,90.6184906 32.8804975,90.8502591 32.7554969,91.1132812 C32.6304963,91.3763034 32.5302369,91.6523423 32.4547157,91.9414062 C32.3791945,92.2304702 32.3245075,92.5221339 32.2906532,92.8164062 C32.2567988,93.1106786 32.2372678,93.3906237 32.2320594,93.65625 L32.2320594,94.96875 C32.2372678,95.2343763 32.2567988,95.5156235 32.2906532,95.8125 C32.3245075,96.1093765 32.3804965,96.4023423 32.4586219,96.6914062 C32.5367473,96.9804702 32.6383088,97.2578112 32.7633094,97.5234375 C32.88831,97.7890638 33.0445585,98.0221344 33.2320594,98.2226562 C33.4195604,98.4231781 33.6409123,98.5833327 33.8961219,98.703125 C34.1513315,98.8229173 34.4482036,98.8828125 34.7867469,98.8828125 C35.1252903,98.8828125 35.4234644,98.8229173 35.6812782,98.703125 C35.939092,98.5833327 36.1604439,98.4231781 36.3453407,98.2226562 C36.5302374,98.0221344 36.6838817,97.7903659 36.8062782,97.5273438 C36.9286746,97.2643216 37.027632,96.9882827 37.1031532,96.6992188 C37.1786744,96.4101548 37.2307572,96.117189 37.2594032,95.8203125 C37.2880491,95.523436 37.3049761,95.2395847 37.3101844,94.96875 L37.3101844,93.65625 Z M43.5902129,95.4375 L43.5902129,100 L42.1449004,100 L42.1449004,88.625 L45.8324004,88.625 C46.3428196,88.6354167 46.8258877,88.7161451 47.2816191,88.8671875 C47.7373506,89.0182299 48.1370862,89.2369777 48.4808379,89.5234375 C48.8245896,89.8098973 49.0967223,90.1640604 49.2972441,90.5859375 C49.497766,91.0078146 49.5980254,91.4921848 49.5980254,92.0390625 C49.5980254,92.5859402 49.497766,93.0690083 49.2972441,93.4882812 C49.0967223,93.9075542 48.8245896,94.2604152 48.4808379,94.546875 C48.1370862,94.8333348 47.7373506,95.0520826 47.2816191,95.203125 C46.8258877,95.3541674 46.3428196,95.4322916 45.8324004,95.4375 L43.5902129,95.4375 Z M43.5902129,94.25 L45.8324004,94.25 C46.1657354,94.2447916 46.473024,94.1914068 46.7542754,94.0898438 C47.0355268,93.9882807 47.280316,93.8437509 47.4886504,93.65625 C47.6969848,93.4687491 47.8597435,93.2408868 47.9769316,92.9726562 C48.0941197,92.7044257 48.1527129,92.3984392 48.1527129,92.0546875 C48.1527129,91.7109358 48.0941197,91.401043 47.9769316,91.125 C47.8597435,90.848957 47.6982868,90.6145843 47.4925566,90.421875 C47.2868264,90.2291657 47.0420372,90.0807297 46.7581816,89.9765625 C46.474326,89.8723953 46.1657354,89.8177084 45.8324004,89.8125 L43.5902129,89.8125 L43.5902129,94.25 Z M56.0343038,94.3359375 L58.6280538,88.625 L60.2686788,88.625 L56.7296163,95.7578125 L56.7061788,100 L55.3624288,100 L55.3389913,95.7578125 L51.7999288,88.625 L53.4483663,88.625 L56.0343038,94.3359375 Z M68.9940198,96.921875 L69.8612073,88.625 L71.2283948,88.625 L69.8455823,100 L68.3690198,100 L66.9080823,91.4296875 L65.4315198,100 L63.9471448,100 L62.5643323,88.625 L63.9393323,88.625 L64.8065198,96.921875 L66.2674573,88.625 L67.5252698,88.625 L68.9940198,96.921875 Z M77.7896733,95.359375 L75.5162358,95.359375 L75.5162358,100 L74.0787358,100 L74.0787358,88.625 L77.4146733,88.625 C77.9459259,88.6354167 78.4459209,88.7109368 78.9146733,88.8515625 C79.3834256,88.9921882 79.7935778,89.2031236 80.145142,89.484375 C80.4967063,89.7656264 80.7727452,90.1184875 80.973267,90.5429688 C81.1737889,90.96745 81.2740483,91.466143 81.2740483,92.0390625 C81.2740483,92.408856 81.2206634,92.7473943 81.113892,93.0546875 C81.0071207,93.3619807 80.8599867,93.6406238 80.6724858,93.890625 C80.4849848,94.1406262 80.2610287,94.3619782 80.0006108,94.5546875 C79.7401928,94.7473968 79.4537373,94.9114577 79.1412358,95.046875 L81.5552983,99.90625 L81.5474858,100 L80.0240483,100 L77.7896733,95.359375 Z M75.5162358,94.171875 L77.4537358,94.171875 C77.7766541,94.1666666 78.0813385,94.1158859 78.3677983,94.0195312 C78.654258,93.9231766 78.9055576,93.7838551 79.1217045,93.6015625 C79.3378514,93.4192699 79.5084226,93.1966159 79.6334233,92.9335938 C79.7584239,92.6705716 79.8209233,92.3671892 79.8209233,92.0234375 C79.8209233,91.6588523 79.761028,91.3398451 79.6412358,91.0664062 C79.5214435,90.7929674 79.3547785,90.563803 79.1412358,90.3789062 C78.927693,90.1940095 78.6737893,90.054688 78.379517,89.9609375 C78.0852447,89.867187 77.7636333,89.8177084 77.4146733,89.8125 L75.5162358,89.8125 L75.5162358,94.171875 Z M84.6947017,88.625 L91.5697017,88.625 L91.5697017,89.8828125 L88.8431392,89.8828125 L88.8431392,98.75 L91.5697017,98.75 L91.5697017,100 L84.6947017,100 L84.6947017,98.75 L87.3587642,98.75 L87.3587642,89.8828125 L84.6947017,89.8828125 L84.6947017,88.625 Z M103.03723,89.859375 L99.5216052,89.859375 L99.5216052,100 L98.1153552,100 L98.1153552,89.859375 L94.5997302,89.859375 L94.5997302,88.625 L103.03723,88.625 L103.03723,89.859375 Z M106.036009,88.625 L112.911009,88.625 L112.911009,89.8828125 L110.184446,89.8828125 L110.184446,98.75 L112.911009,98.75 L112.911009,100 L106.036009,100 L106.036009,98.75 L108.700071,98.75 L108.700071,89.8828125 L106.036009,89.8828125 L106.036009,88.625 Z M123.831662,100 L122.362912,100 L117.94885,91.5 L117.925412,100 L116.464475,100 L116.464475,88.625 L117.933225,88.625 L122.347287,97.109375 L122.370725,88.625 L123.831662,88.625 L123.831662,100 Z M134.736691,98.5078125 C134.257522,99.0703153 133.708048,99.4869778 133.088253,99.7578125 C132.468458,100.028647 131.788778,100.161458 131.049191,100.15625 C130.580438,100.151042 130.149453,100.079428 129.756222,99.9414062 C129.362991,99.8033847 129.01013,99.6132825 128.697628,99.3710938 C128.385127,99.128905 128.111692,98.8437516 127.877316,98.515625 C127.642939,98.1874984 127.446327,97.8320332 127.287472,97.4492188 C127.128617,97.0664043 127.008826,96.6653667 126.928097,96.2460938 C126.847367,95.8268208 126.804399,95.403648 126.799191,94.9765625 L126.799191,93.65625 C126.804399,93.2343729 126.842159,92.8138042 126.912472,92.3945312 C126.982785,91.9752583 127.090857,91.5729186 127.236691,91.1875 C127.382525,90.8020814 127.564814,90.4440121 127.783566,90.1132812 C128.002317,89.7825504 128.264033,89.496095 128.568722,89.2539062 C128.873411,89.0117175 129.218459,88.8203132 129.603878,88.6796875 C129.989297,88.5390618 130.421584,88.46875 130.900753,88.46875 C131.432006,88.46875 131.921584,88.5507804 132.369503,88.7148438 C132.817422,88.8789071 133.208043,89.1132797 133.541378,89.4179688 C133.874713,89.7226578 134.14294,90.0898416 134.346066,90.5195312 C134.549192,90.9492209 134.67419,91.4296848 134.721066,91.9609375 L133.291378,91.9609375 C133.234086,91.6328109 133.145545,91.3294285 133.025753,91.0507812 C132.905961,90.772134 132.74841,90.5338552 132.553097,90.3359375 C132.357783,90.1380198 132.124713,89.9830735 131.853878,89.8710938 C131.583043,89.759114 131.267942,89.703125 130.908566,89.703125 C130.564814,89.703125 130.260129,89.7617182 129.994503,89.8789062 C129.728877,89.9960943 129.497108,90.1536448 129.299191,90.3515625 C129.101273,90.5494802 128.937212,90.7799466 128.807003,91.0429688 C128.676794,91.3059909 128.570024,91.5833319 128.486691,91.875 C128.403357,92.1666681 128.343462,92.4635402 128.307003,92.765625 C128.270545,93.0677098 128.252316,93.3593736 128.252316,93.640625 L128.252316,94.9765625 C128.257524,95.2630223 128.282263,95.5585922 128.326534,95.8632812 C128.370805,96.1679703 128.439815,96.4661444 128.533566,96.7578125 C128.627316,97.0494806 128.747107,97.3255195 128.892941,97.5859375 C129.038775,97.8463555 129.214554,98.0755198 129.420284,98.2734375 C129.626015,98.4713552 129.864293,98.6289057 130.135128,98.7460938 C130.405963,98.8632818 130.713251,98.9244791 131.057003,98.9296875 C131.254921,98.9348959 131.46195,98.9270834 131.678097,98.90625 C131.894244,98.8854166 132.103877,98.8437503 132.307003,98.78125 C132.510129,98.7187497 132.700231,98.6341151 132.877316,98.5273438 C133.0544,98.4205724 133.202836,98.2812509 133.322628,98.109375 L133.338253,95.5546875 L131.025753,95.5546875 L131.025753,94.3359375 L134.713253,94.3359375 L134.736691,98.5078125 Z M25.4826702,118.085938 C25.4826702,117.736977 25.534753,117.414064 25.6389202,117.117188 C25.7430874,116.820311 25.8889193,116.54297 26.0764202,116.285156 C26.2639211,116.027342 26.4878772,115.782553 26.7482952,115.550781 C27.0087132,115.319009 27.2977728,115.091147 27.6154827,114.867188 C27.2665226,114.393227 26.9891816,113.945315 26.7834514,113.523438 C26.5777212,113.10156 26.4748577,112.661461 26.4748577,112.203125 C26.4748577,111.760414 26.5412633,111.368491 26.6740764,111.027344 C26.8068896,110.686196 26.9956898,110.399741 27.2404827,110.167969 C27.4852756,109.936197 27.7795435,109.760417 28.1232952,109.640625 C28.4670469,109.520833 28.8524597,109.460938 29.2795452,109.460938 C29.6493387,109.460938 29.9852728,109.526041 30.2873577,109.65625 C30.5894425,109.786459 30.8459504,109.962238 31.0568889,110.183594 C31.2678275,110.404949 31.4305863,110.661457 31.5451702,110.953125 C31.6597541,111.244793 31.7170452,111.552082 31.7170452,111.875 C31.7170452,112.151043 31.676681,112.402343 31.5959514,112.628906 C31.5152219,112.85547 31.4032438,113.067707 31.2600139,113.265625 C31.1167841,113.463543 30.9462128,113.651041 30.7482952,113.828125 C30.5503775,114.005209 30.336838,114.179687 30.1076702,114.351562 L29.3732952,114.976562 L31.7717327,118.125 C31.9540253,117.791665 32.097253,117.427085 32.2014202,117.03125 C32.3055874,116.635415 32.3602743,116.208336 32.3654827,115.75 L33.6701702,115.75 C33.6701702,116.41667 33.5751191,117.035153 33.3850139,117.605469 C33.1949088,118.175784 32.9175678,118.690102 32.5529827,119.148438 L33.9670452,121 L32.2404827,121 L31.5920452,120.140625 C31.2066266,120.468752 30.7821517,120.720051 30.3186077,120.894531 C29.8550637,121.069011 29.3680894,121.15625 28.8576702,121.15625 C28.3420426,121.15625 27.8759014,121.08073 27.4592327,120.929688 C27.0425639,120.778645 26.6884008,120.56771 26.3967327,120.296875 C26.1050646,120.02604 25.8798064,119.701825 25.7209514,119.324219 C25.5620965,118.946613 25.4826702,118.533856 25.4826702,118.085938 Z M28.8576702,119.984375 C29.2274637,119.984375 29.584231,119.916667 29.9279827,119.78125 C30.2717344,119.645833 30.5920437,119.453126 30.8889202,119.203125 L28.3654827,115.835938 L28.1467327,116.023438 C27.8863147,116.23698 27.6753793,116.445311 27.5139202,116.648438 C27.352461,116.851564 27.2287644,117.042968 27.1428264,117.222656 C27.0568885,117.402345 26.9995974,117.566406 26.9709514,117.714844 C26.9423055,117.863282 26.9279827,117.986979 26.9279827,118.085938 C26.9279827,118.351564 26.9696489,118.598957 27.0529827,118.828125 C27.1363164,119.057293 27.258711,119.257812 27.4201702,119.429688 C27.5816293,119.601563 27.7821482,119.736979 28.0217327,119.835938 C28.2613172,119.934896 28.5399603,119.984375 28.8576702,119.984375 Z M27.9279827,112.1875 C27.9279827,112.479168 27.9930862,112.777342 28.1232952,113.082031 C28.2535042,113.38672 28.435794,113.708332 28.6701702,114.046875 L29.5842327,113.320312 C29.7456918,113.210937 29.878503,113.096355 29.9826702,112.976562 C30.0868374,112.85677 30.1675657,112.735678 30.2248577,112.613281 C30.2821496,112.490885 30.3225138,112.367188 30.3459514,112.242188 C30.3693891,112.117187 30.3811077,111.994792 30.3811077,111.875 C30.3811077,111.718749 30.3563684,111.566407 30.3068889,111.417969 C30.2574095,111.269531 30.1844936,111.139323 30.0881389,111.027344 C29.9917843,110.915364 29.8759,110.824219 29.7404827,110.753906 C29.6050653,110.683593 29.451421,110.648438 29.2795452,110.648438 C29.0555857,110.648438 28.8589731,110.690104 28.6897014,110.773438 C28.5204298,110.856771 28.3798062,110.968749 28.2678264,111.109375 C28.1558467,111.250001 28.0712121,111.412759 28.0139202,111.597656 C27.9566282,111.782553 27.9279827,111.979166 27.9279827,112.1875 Z M47.3317896,121 L47.3317896,109.625 L50.7146021,109.625 C51.1833545,109.630208 51.6416832,109.691406 52.0896021,109.808594 C52.537521,109.925782 52.9359545,110.10677 53.2849146,110.351562 C53.6338747,110.596355 53.9125177,110.908852 54.1208521,111.289062 C54.3291865,111.669273 54.430748,112.124997 54.4255396,112.65625 C54.4203313,112.953126 54.3721547,113.223957 54.2810084,113.46875 C54.1898621,113.713543 54.0648633,113.933593 53.9060084,114.128906 C53.7471534,114.32422 53.5609573,114.494791 53.3474146,114.640625 C53.1338719,114.786459 52.9073116,114.911458 52.6677271,115.015625 C52.969812,115.104167 53.2471529,115.230468 53.4997584,115.394531 C53.7523638,115.558595 53.9698095,115.756509 54.1521021,115.988281 C54.3343947,116.220053 54.4763204,116.481769 54.5778834,116.773438 C54.6794464,117.065106 54.7302271,117.380207 54.7302271,117.71875 C54.7354355,118.250003 54.633874,118.718748 54.4255396,119.125 C54.2172052,119.531252 53.9385622,119.871092 53.5896021,120.144531 C53.240642,120.41797 52.8383023,120.627603 52.3825709,120.773438 C51.9268394,120.919272 51.456792,120.994792 50.9724146,121 L47.3317896,121 Z M48.7849146,115.679688 L48.7849146,119.773438 L51.0114771,119.773438 C51.313562,119.768229 51.6000174,119.717448 51.8708521,119.621094 C52.1416868,119.524739 52.3812677,119.390626 52.5896021,119.21875 C52.7979365,119.046874 52.9632994,118.835939 53.0856959,118.585938 C53.2080923,118.335936 53.2692896,118.052085 53.2692896,117.734375 C53.274498,117.411457 53.2211131,117.125001 53.1091334,116.875 C52.9971536,116.624999 52.8422073,116.412761 52.6442896,116.238281 C52.446372,116.063801 52.2146034,115.929688 51.9489771,115.835938 C51.6833508,115.742187 51.3968953,115.690104 51.0896021,115.679688 L48.7849146,115.679688 Z M48.7849146,114.476562 L50.8005396,114.476562 C51.0713743,114.471354 51.3369966,114.428386 51.5974146,114.347656 C51.8578326,114.266927 52.0896011,114.14974 52.2927271,113.996094 C52.4958531,113.842447 52.659914,113.653647 52.7849146,113.429688 C52.9099152,113.205728 52.9724146,112.945314 52.9724146,112.648438 C52.9724146,112.330728 52.9112173,112.059897 52.7888209,111.835938 C52.6664244,111.611978 52.5023636,111.428386 52.2966334,111.285156 C52.0909032,111.141926 51.8539264,111.036459 51.5856959,110.96875 C51.3174654,110.901041 51.0427285,110.864583 50.7614771,110.859375 L48.7849146,110.859375 L48.7849146,114.476562 Z M61.7836931,116.359375 L59.5102556,116.359375 L59.5102556,121 L58.0727556,121 L58.0727556,109.625 L61.4086931,109.625 C61.9399457,109.635417 62.4399407,109.710937 62.9086931,109.851562 C63.3774454,109.992188 63.7875976,110.203124 64.1391618,110.484375 C64.4907261,110.765626 64.766765,111.118487 64.9672868,111.542969 C65.1678087,111.96745 65.2680681,112.466143 65.2680681,113.039062 C65.2680681,113.408856 65.2146832,113.747394 65.1079118,114.054688 C65.0011405,114.361981 64.8540065,114.640624 64.6665056,114.890625 C64.4790046,115.140626 64.2550485,115.361978 63.9946306,115.554688 C63.7342126,115.747397 63.4477571,115.911458 63.1352556,116.046875 L65.5493181,120.90625 L65.5415056,121 L64.0180681,121 L61.7836931,116.359375 Z M59.5102556,115.171875 L61.4477556,115.171875 C61.7706739,115.166667 62.0753583,115.115886 62.3618181,115.019531 C62.6482778,114.923177 62.8995774,114.783855 63.1157243,114.601562 C63.3318712,114.41927 63.5024425,114.196616 63.6274431,113.933594 C63.7524437,113.670572 63.8149431,113.367189 63.8149431,113.023438 C63.8149431,112.658852 63.7550478,112.339845 63.6352556,112.066406 C63.5154633,111.792967 63.3487983,111.563803 63.1352556,111.378906 C62.9217128,111.194009 62.6678091,111.054688 62.3735368,110.960938 C62.0792645,110.867187 61.7576532,110.817708 61.4086931,110.8125 L59.5102556,110.8125 L59.5102556,115.171875 Z M74.118409,118.054688 L70.321534,118.054688 L69.4074715,121 L67.962159,121 L71.634034,109.625 L72.8449715,109.625 L76.4543465,121 L75.0168465,121 L74.118409,118.054688 Z M70.712159,116.796875 L73.7355965,116.796875 L72.2355965,111.859375 L70.712159,116.796875 Z M86.484375,121 L85.015625,121 L80.6015625,112.5 L80.578125,121 L79.1171875,121 L79.1171875,109.625 L80.5859375,109.625 L85,118.109375 L85.0234375,109.625 L86.484375,109.625 L86.484375,121 Z M89.881591,121 L89.881591,109.625 L92.5144035,109.625 C93.3060741,109.635417 94.0130983,109.76953 94.6354972,110.027344 C95.2578962,110.285158 95.7839326,110.644529 96.2136222,111.105469 C96.6433119,111.566409 96.9714336,112.118486 97.1979972,112.761719 C97.4245608,113.404951 97.5404451,114.117184 97.5456535,114.898438 L97.5456535,115.734375 C97.5404451,116.515629 97.4245608,117.227861 97.1979972,117.871094 C96.9714336,118.514326 96.6433119,119.066404 96.2136222,119.527344 C95.7839326,119.988284 95.2578962,120.347655 94.6354972,120.605469 C94.0130983,120.863283 93.3060741,120.994792 92.5144035,121 L89.881591,121 Z M91.350341,110.8125 L91.350341,119.820312 L92.5144035,119.820312 C93.1289899,119.815104 93.6602346,119.707032 94.1081535,119.496094 C94.5560724,119.285155 94.9271624,118.997398 95.2214347,118.632812 C95.515707,118.268227 95.7344548,117.838544 95.8776847,117.34375 C96.0209146,116.848956 96.0951326,116.312503 96.100341,115.734375 L96.100341,114.882812 C96.0951326,114.304685 96.0196125,113.769534 95.8737785,113.277344 C95.7279444,112.785154 95.5091966,112.358075 95.2175285,111.996094 C94.9258603,111.634113 94.5560724,111.348959 94.1081535,111.140625 C93.6602346,110.932291 93.1289899,110.822917 92.5144035,110.8125 L91.350341,110.8125 Z M100.700682,109.625 L107.575682,109.625 L107.575682,110.882812 L104.849119,110.882812 L104.849119,119.75 L107.575682,119.75 L107.575682,121 L100.700682,121 L100.700682,119.75 L103.364744,119.75 L103.364744,110.882812 L100.700682,110.882812 L100.700682,109.625 Z M118.496335,121 L117.027585,121 L112.613523,112.5 L112.590085,121 L111.129148,121 L111.129148,109.625 L112.597898,109.625 L117.01196,118.109375 L117.035398,109.625 L118.496335,109.625 L118.496335,121 Z M129.401364,119.507812 C128.922195,120.070315 128.372721,120.486978 127.752926,120.757812 C127.133132,121.028647 126.453451,121.161458 125.713864,121.15625 C125.245112,121.151042 124.814126,121.079428 124.420895,120.941406 C124.027664,120.803385 123.674803,120.613282 123.362301,120.371094 C123.0498,120.128905 122.776365,119.843752 122.541989,119.515625 C122.307613,119.187498 122.111,118.832033 121.952145,118.449219 C121.79329,118.066404 121.6735,117.665367 121.59277,117.246094 C121.512041,116.826821 121.469072,116.403648 121.463864,115.976562 L121.463864,114.65625 C121.469072,114.234373 121.506832,113.813804 121.577145,113.394531 C121.647458,112.975258 121.75553,112.572919 121.901364,112.1875 C122.047198,111.802081 122.229488,111.444012 122.448239,111.113281 C122.66699,110.78255 122.928706,110.496095 123.233395,110.253906 C123.538084,110.011718 123.883133,109.820313 124.268551,109.679688 C124.65397,109.539062 125.086257,109.46875 125.565426,109.46875 C126.096679,109.46875 126.586257,109.55078 127.034176,109.714844 C127.482095,109.878907 127.872716,110.11328 128.206051,110.417969 C128.539386,110.722658 128.807613,111.089842 129.010739,111.519531 C129.213865,111.949221 129.338864,112.429685 129.385739,112.960938 L127.956051,112.960938 C127.898759,112.632811 127.810219,112.329428 127.690426,112.050781 C127.570634,111.772134 127.413084,111.533855 127.21777,111.335938 C127.022457,111.13802 126.789386,110.983073 126.518551,110.871094 C126.247717,110.759114 125.932616,110.703125 125.573239,110.703125 C125.229487,110.703125 124.924803,110.761718 124.659176,110.878906 C124.39355,110.996094 124.161782,111.153645 123.963864,111.351562 C123.765946,111.54948 123.601885,111.779947 123.471676,112.042969 C123.341467,112.305991 123.234698,112.583332 123.151364,112.875 C123.06803,113.166668 123.008135,113.46354 122.971676,113.765625 C122.935218,114.06771 122.916989,114.359374 122.916989,114.640625 L122.916989,115.976562 C122.922197,116.263022 122.946937,116.558592 122.991208,116.863281 C123.035479,117.16797 123.104488,117.466144 123.198239,117.757812 C123.291989,118.049481 123.41178,118.32552 123.557614,118.585938 C123.703448,118.846355 123.879227,119.07552 124.084958,119.273438 C124.290688,119.471355 124.528967,119.628906 124.799801,119.746094 C125.070636,119.863282 125.377925,119.924479 125.721676,119.929688 C125.919594,119.934896 126.126623,119.927083 126.34277,119.90625 C126.558917,119.885417 126.76855,119.84375 126.971676,119.78125 C127.174802,119.71875 127.364905,119.634115 127.541989,119.527344 C127.719073,119.420572 127.867509,119.281251 127.987301,119.109375 L128.002926,116.554688 L125.690426,116.554688 L125.690426,115.335938 L129.377926,115.335938 L129.401364,119.507812 Z" id="COPYWRITING-&amp;-BRANDI" fill="#FFF399"></path>
                    <g id="Page-1" transform="translate(48.000000, 13.000000)" fill="#FFF399">
                        <path d="M24.16425,15.5491875 C20.670375,16.22863 17.67865,18.567725 16.1610625,21.8038563 L17.30245,22.3382775 C17.5092362,21.8951631 17.75631,21.4815838 18.024875,21.0787775 C19.2548812,19.2230775 21.072975,17.8158338 23.1945312,17.109565 C23.597365,16.9752894 24.0082562,16.8624913 24.4325812,16.7792419 L24.4621231,15.5170606 C24.3412744,15.5170606 24.24191,15.5331756 24.16403,15.5492906 L24.16425,15.5491875 Z" id="Fill-1"></path>
                        <path d="M27.5,6.0775 C26.92261,6.0775 26.4553437,5.61021312 26.4553437,5.03284375 L26.4553437,1.2945625 C26.4553437,0.7171725 26.9226306,0.24990625 27.5,0.24990625 C28.0773694,0.24990625 28.5446562,0.717193125 28.5446562,1.2945625 L28.5446562,5.03284375 C28.5446562,5.61023375 28.0773694,6.0775 27.5,6.0775 Z" id="Fill-2"></path>
                        <path d="M11.57475,12.673375 C11.3061919,12.673375 11.0403287,12.5713225 10.8362375,12.3672244 L8.19094375,9.72193063 C7.78274062,9.3137275 7.78274062,8.65307438 8.19094375,8.24758688 C8.59914687,7.83938375 9.2598,7.83938375 9.6652875,8.24758688 L12.3105812,10.8928806 C12.7187844,11.3010838 12.7187844,11.9617369 12.3105812,12.3672244 C12.1091644,12.5713294 11.8406131,12.673375 11.57475,12.673375 Z" id="Fill-3"></path>
                        <path d="M53.7618125,28.601375 L50.0235313,28.601375 C49.4461413,28.601375 48.978875,28.1340881 48.978875,27.5567187 C48.978875,26.9793287 49.4461619,26.5120625 50.0235313,26.5120625 L53.7618125,26.5120625 C54.3392025,26.5120625 54.8064688,26.9793494 54.8064688,27.5567187 C54.8064688,28.1341087 54.3391819,28.601375 53.7618125,28.601375 Z" id="Fill-4"></path>
                        <path d="M4.976125,28.601375 L1.23784375,28.601375 C0.66045375,28.601375 0.1931875,28.1340881 0.1931875,27.5567187 C0.1931875,26.9793287 0.660474375,26.5120625 1.23784375,26.5120625 L4.976125,26.5120625 C5.553515,26.5120625 6.02078125,26.9793494 6.02078125,27.5567187 C6.02078125,28.1341087 5.55349437,28.601375 4.976125,28.601375 Z" id="Fill-5"></path>
                        <path d="M43.42525,12.673375 C43.1566988,12.673375 42.8908288,12.5713225 42.6867375,12.3672244 C42.2785344,11.9590213 42.2785344,11.2983681 42.6867375,10.8928806 L45.3320313,8.24758688 C45.7402344,7.83938375 46.4008875,7.83938375 46.806375,8.24758688 C47.2145781,8.65579 47.2145781,9.31644313 46.806375,9.72193063 L44.1610813,12.3672244 C43.9596644,12.5713294 43.6937944,12.673375 43.42525,12.673375 Z" id="Fill-6"></path>
                        <path d="M27.49725,10.245125 C18.0015,10.245125 10.2774375,17.9685 10.2774375,27.4649375 C10.2774375,31.353575 11.61215,35.16425 14.0399187,38.196125 C15.2510875,39.7107562 16.6986187,41.0051812 18.3421562,42.0391125 C18.6536762,42.23516 19.0430625,42.3962894 19.4566625,42.5654762 C19.746705,42.6836437 20.2569812,42.8931112 20.4691437,43.0354444 C20.7296444,44.0747381 20.6571337,48.6455819 20.6356494,50.1840694 C20.6061075,52.1123006 20.6061075,52.1123006 20.9310612,52.4398944 L21.2345306,52.7487331 L23.5790431,52.7487331 L23.5790431,54.7467456 L31.4234181,54.7467456 L31.4234181,52.7487331 L34.3667431,52.7487331 L34.3667431,51.7174831 C34.3667431,50.5842081 34.3452587,49.4428206 34.3237744,48.3041831 C34.2942325,46.7223831 34.2646906,45.0868894 34.2942325,43.5024081 C34.30229,43.1049506 35.1079575,42.7182456 35.75517,42.4094206 C36.1257737,42.2321762 36.51252,42.0495556 36.8401137,41.8293425 C38.4380012,40.7604862 39.83452,39.48483 40.9946762,38.0400487 C43.398245,35.04028 44.7222325,31.2859112 44.7222325,27.4669862 C44.7222325,17.9712362 36.9961075,10.2444237 27.49692,10.2444237 L27.49725,10.245125 Z M32.2345375,46.4729375 C32.242595,47.0986725 32.2506525,47.727075 32.2640794,48.3421125 C32.2775062,49.0564937 32.288245,49.7708062 32.2963025,50.4851875 L22.695365,50.4851875 C22.6980531,50.3965619 22.6980531,50.3079431 22.7007344,50.2193175 C22.7249069,48.7073675 22.7302762,47.4827237 22.7222187,46.4729925 L32.2345375,46.4729375 Z M39.3859125,36.74825 C38.360025,38.0292687 37.1192937,39.1598625 35.6959625,40.1132187 C35.4918575,40.2501825 35.188395,40.3925156 34.8688312,40.5482756 C33.8322187,41.0424162 32.2665062,41.7916881 32.23165,43.4621069 C32.2182231,44.2328631 32.2182231,45.0089819 32.2235925,45.7851006 L22.7113425,45.7851006 C22.6630044,42.9706131 22.4642687,42.1730444 22.1070919,41.7540819 C21.6774044,41.2491956 20.9469356,40.9484006 20.2379169,40.6583444 C19.9237087,40.5294381 19.598755,40.3951625 19.4375981,40.29311 C17.9900669,39.3827225 16.7144794,38.2440162 15.6483044,36.9093037 C13.5132731,34.24256 12.3397106,30.8883162 12.3397106,27.4671787 C12.3397106,19.1099287 19.1394981,12.3098662 27.4970231,12.3098662 C35.8570231,12.3098662 42.6598356,19.1096537 42.6598356,27.4671787 C42.6598356,30.81606 41.4969981,34.1139287 39.3861669,36.7484287 L39.3859125,36.74825 Z" id="Fill-7"></path>
                    </g>
                </g>
            </g>
        </g>
    </g>
</svg>