<svg xmlns="http://www.w3.org/2000/svg" xmlns:xlink="http://www.w3.org/1999/xlink" version="1.1" x="0px" y="0px" viewBox="0 0 100 100" enable-background="new 0 0 100 100" xml:space="preserve"><path d="M65.703,5.064c-5.541,0-10.422,2.771-13.331,6.994c-2.942-4.223-7.826-6.994-13.366-6.994  c-8.969,0-16.277,7.306-16.277,16.276c0,6.855,4.26,12.744,10.285,15.132v3.153l-14.994-6.753v25.969l14.994-6.475v5.333h13.506  l-9.974,33.119c-0.38,1.869,0.867,3.701,2.735,4.05c0.208,0.035,0.451,0.067,0.658,0.067c1.628,0,3.083-1.141,3.392-2.803  l9.006-28.131l9.001,28.131c0.348,1.662,1.802,2.803,3.429,2.803c0.207,0,0.415-0.032,0.657-0.067  c1.871-0.349,3.083-2.181,2.735-4.05L58.154,57.699h13.54V36.472c6.025-2.388,10.286-8.277,10.286-15.132  C81.979,12.37,74.672,5.064,65.703,5.064z M39.006,31.763c-5.75,0-10.459-4.673-10.459-10.422s4.71-10.459,10.459-10.459  c5.679,0,10.284,4.571,10.423,10.215v0.452C49.324,27.189,44.685,31.763,39.006,31.763z M65.703,31.763  c-5.679,0-10.318-4.536-10.458-10.183v-0.344c0.069-5.713,4.746-10.355,10.458-10.355c5.748,0,10.424,4.71,10.424,10.459  S71.451,31.763,65.703,31.763z"></path></svg>