<?xml version="1.0" encoding="UTF-8"?>
<svg width="150px" height="150px" viewBox="0 0 150 150" version="1.1" xmlns="http://www.w3.org/2000/svg" xmlns:xlink="http://www.w3.org/1999/xlink">
    <!-- Generator: Sketch 43 (38999) - http://www.bohemiancoding.com/sketch -->
    <title>code-tile</title>
    <desc>Created with Sketch.</desc>
    <defs></defs>
    <g id="Page-1" stroke="none" stroke-width="1" fill="none" fill-rule="evenodd">
        <g id="Artboard-2-Copy-3" transform="translate(-470.000000, -692.000000)">
            <g id="skills-section" transform="translate(94.000000, 604.000000)">
                <g id="code-tile" transform="translate(376.000000, 88.000000)">
                    <rect id="Rectangle-9-Copy-2" fill-opacity="0.0699728261" fill="#FFFFFF" x="0" y="0" width="150" height="150"></rect>
                    <path d="M80.2972022,24.0099107 C79.6775251,24.0792266 79.1519877,24.582668 78.9606132,25.2940572 L68.0738046,64.5188961 C67.9401457,64.9931524 67.9674872,65.5075488 68.1527806,65.9562997 C68.3380741,66.4013708 68.6630998,66.7442987 69.0580188,66.9011513 C69.4498739,67.0616743 69.881217,67.0251859 70.2518351,66.8026503 C70.6254626,66.5801147 70.9079597,66.1897622 71.0385625,65.7154685 L81.9253711,26.4906296 C82.1045913,25.8850354 82.0104282,25.2137677 81.6793214,24.7103823 C81.3512552,24.2069408 80.8287506,23.9442745 80.2972411,24.0099387 L80.2972022,24.0099107 Z M58.1545698,25.8777602 C57.8568856,25.8959997 57.5713479,26.0200343 57.3283388,26.2279819 L38.6652384,42.1047024 C38.2490824,42.4549242 38,43.0276816 38,43.6368994 C38,44.2497875 38.2490824,44.8225168 38.6652384,45.1690963 L57.3283388,61.0458168 C57.665511,61.3376683 58.0877404,61.4507572 58.4947826,61.3668534 C58.9048575,61.2829496 59.2693712,61.0056861 59.5093554,60.6007456 C59.749324,60.1921536 59.8434949,59.6850604 59.7705921,59.1962162 C59.6976894,58.7037203 59.4668346,58.2695854 59.1266218,57.9813669 L42.2614001,43.6512258 L59.1266218,29.292133 C59.7098437,28.8215189 59.9589184,27.9386892 59.7311041,27.1397166 C59.5032821,26.3371204 58.8562713,25.822696 58.1546165,25.8774239 L58.1545698,25.8777602 Z M90.2415545,27.2495088 C90.0653437,28.0229666 90.3205305,28.8437183 90.8733782,29.2924692 L107.7386,43.651562 L90.8733782,57.9817031 C90.5331654,58.2662607 90.3023028,58.7040379 90.2294079,59.1965524 C90.1565051,59.685406 90.2506683,60.1924898 90.4906446,60.5974395 C90.7306132,61.0060316 91.0951269,61.2832952 91.5052174,61.367199 C91.9122596,61.4511028 92.3344812,61.3343622 92.6716612,61.0461624 L111.334762,45.1694418 C111.750918,44.8192201 112,44.2464627 112,43.6372449 C112,43.0280271 111.750918,42.4552698 111.334762,42.105048 L92.6716612,26.2283275 C92.3770097,25.9729551 92.0155366,25.8489206 91.6510229,25.8781057 C90.9857689,25.9251849 90.4177652,26.476051 90.2415545,27.2495088 Z" id="Page-1" fill="#FFF399"></path>
                    <path d="M29.6467327,96.921875 L30.5139202,88.625 L31.8811077,88.625 L30.4982952,100 L29.0217327,100 L27.5607952,91.4296875 L26.0842327,100 L24.5998577,100 L23.2170452,88.625 L24.5920452,88.625 L25.4592327,96.921875 L26.9201702,88.625 L28.1779827,88.625 L29.6467327,96.921875 Z M40.9345737,94.7421875 L36.1845737,94.7421875 L36.1845737,98.7734375 L41.7236362,98.7734375 L41.7236362,100 L34.7392612,100 L34.7392612,88.625 L41.6533237,88.625 L41.6533237,89.859375 L36.1845737,89.859375 L36.1845737,93.515625 L40.9345737,93.515625 L40.9345737,94.7421875 Z M45.3317896,100 L45.3317896,88.625 L48.7146021,88.625 C49.1833545,88.6302084 49.6416832,88.6914057 50.0896021,88.8085938 C50.537521,88.9257818 50.9359545,89.1067696 51.2849146,89.3515625 C51.6338747,89.5963554 51.9125177,89.9088523 52.1208521,90.2890625 C52.3291865,90.6692727 52.430748,91.1249973 52.4255396,91.65625 C52.4203313,91.9531265 52.3721547,92.2239571 52.2810084,92.46875 C52.1898621,92.7135429 52.0648633,92.9335928 51.9060084,93.1289062 C51.7471534,93.3242197 51.5609573,93.4947909 51.3474146,93.640625 C51.1338719,93.7864591 50.9073116,93.9114578 50.6677271,94.015625 C50.969812,94.1041671 51.2471529,94.2304679 51.4997584,94.3945312 C51.7523638,94.5585946 51.9698095,94.7565093 52.1521021,94.9882812 C52.3343947,95.2200532 52.4763204,95.4817694 52.5778834,95.7734375 C52.6794464,96.0651056 52.7302271,96.3802066 52.7302271,96.71875 C52.7354355,97.2500027 52.633874,97.718748 52.4255396,98.125 C52.2172052,98.531252 51.9385622,98.8710924 51.5896021,99.1445312 C51.240642,99.4179701 50.8383023,99.6276034 50.3825709,99.7734375 C49.9268394,99.9192716 49.456792,99.9947916 48.9724146,100 L45.3317896,100 Z M46.7849146,94.6796875 L46.7849146,98.7734375 L49.0114771,98.7734375 C49.313562,98.7682291 49.6000174,98.7174484 49.8708521,98.6210938 C50.1416868,98.5247391 50.3812677,98.3906259 50.5896021,98.21875 C50.7979365,98.0468741 50.9632994,97.8359387 51.0856959,97.5859375 C51.2080923,97.3359363 51.2692896,97.0520849 51.2692896,96.734375 C51.274498,96.4114567 51.2211131,96.1250012 51.1091334,95.875 C50.9971536,95.6249988 50.8422073,95.4127613 50.6442896,95.2382812 C50.446372,95.0638012 50.2146034,94.929688 49.9489771,94.8359375 C49.6833508,94.742187 49.3968953,94.6901042 49.0896021,94.6796875 L46.7849146,94.6796875 Z M46.7849146,93.4765625 L48.8005396,93.4765625 C49.0713743,93.4713541 49.3369966,93.4283858 49.5974146,93.3476562 C49.8578326,93.2669267 50.0896011,93.1497404 50.2927271,92.9960938 C50.4958531,92.8424471 50.659914,92.653647 50.7849146,92.4296875 C50.9099152,92.205728 50.9724146,91.945314 50.9724146,91.6484375 C50.9724146,91.3307276 50.9112173,91.059897 50.7888209,90.8359375 C50.6664244,90.611978 50.5023636,90.4283861 50.2966334,90.2851562 C50.0909032,90.1419264 49.8539264,90.0364587 49.5856959,89.96875 C49.3174654,89.9010413 49.0427285,89.8645834 48.7614771,89.859375 L46.7849146,89.859375 L46.7849146,93.4765625 Z M57.9243181,100.976562 L56.6274431,100.976562 L61.3774431,88.625 L62.6665056,88.625 L57.9243181,100.976562 Z M68.274659,88.625 L70.1262215,94.3125 L72.1262215,88.625 L73.9230965,88.625 L73.9230965,100 L72.5168465,100 L72.5168465,95.4609375 L72.634034,90.7109375 L70.5324715,96.8359375 L69.7043465,96.8359375 L67.774659,90.875 L67.8918465,95.4609375 L67.8918465,100 L66.4855965,100 L66.4855965,88.625 L68.274659,88.625 Z M84.7578125,94.96875 C84.7526041,95.375002 84.7174482,95.7851542 84.6523438,96.1992188 C84.5872393,96.6132833 84.4869798,97.0130189 84.3515625,97.3984375 C84.2161452,97.7838561 84.0429698,98.1432275 83.8320312,98.4765625 C83.6210927,98.8098975 83.3697931,99.1015613 83.078125,99.3515625 C82.7864569,99.6015637 82.4518248,99.7981764 82.0742188,99.9414062 C81.6966127,100.084636 81.2734398,100.15625 80.8046875,100.15625 C80.3359352,100.15625 79.9127623,100.084636 79.5351562,99.9414062 C79.1575502,99.7981764 78.8229181,99.6015637 78.53125,99.3515625 C78.2395819,99.1015613 77.9869802,98.8085954 77.7734375,98.4726562 C77.5598948,98.1367171 77.3841153,97.7760436 77.2460938,97.390625 C77.1080722,97.0052064 77.0052087,96.6067729 76.9375,96.1953125 C76.8697913,95.7838521 76.8333334,95.375002 76.828125,94.96875 L76.828125,93.671875 C76.8333334,93.265623 76.8684893,92.8554708 76.9335938,92.4414062 C76.9986982,92.0273417 77.1002597,91.6276061 77.2382812,91.2421875 C77.3763028,90.8567689 77.5507802,90.4960954 77.7617188,90.1601562 C77.9726573,89.8242171 78.2239569,89.5299492 78.515625,89.2773438 C78.8072931,89.0247383 79.1419252,88.8268236 79.5195312,88.6835938 C79.8971373,88.5403639 80.3203102,88.46875 80.7890625,88.46875 C81.2578148,88.46875 81.6822898,88.5403639 82.0625,88.6835938 C82.4427102,88.8268236 82.7786444,89.0234363 83.0703125,89.2734375 C83.3619806,89.5234387 83.6132802,89.8164046 83.8242188,90.1523438 C84.0351573,90.4882829 84.2096347,90.8489564 84.3476562,91.234375 C84.4856778,91.6197936 84.5872393,92.0208313 84.6523438,92.4375 C84.7174482,92.8541687 84.7526041,93.265623 84.7578125,93.671875 L84.7578125,94.96875 Z M83.328125,93.65625 C83.3229166,93.3854153 83.3046877,93.1028661 83.2734375,92.8085938 C83.2421873,92.5143214 83.1888025,92.2226577 83.1132812,91.9335938 C83.03776,91.6445298 82.9375006,91.3684909 82.8125,91.1054688 C82.6874994,90.8424466 82.5312509,90.6106781 82.34375,90.4101562 C82.1562491,90.2096344 81.9348971,90.0507818 81.6796875,89.9335938 C81.4244779,89.8164057 81.1276059,89.7578125 80.7890625,89.7578125 C80.4557275,89.7578125 80.1614596,89.8177077 79.90625,89.9375 C79.6510404,90.0572923 79.4296884,90.2174469 79.2421875,90.4179688 C79.0546866,90.6184906 78.8984381,90.8502591 78.7734375,91.1132812 C78.6484369,91.3763034 78.5481775,91.6523423 78.4726562,91.9414062 C78.397135,92.2304702 78.3424481,92.5221339 78.3085938,92.8164062 C78.2747394,93.1106786 78.2552084,93.3906237 78.25,93.65625 L78.25,94.96875 C78.2552084,95.2343763 78.2747394,95.5156235 78.3085938,95.8125 C78.3424481,96.1093765 78.3984371,96.4023423 78.4765625,96.6914062 C78.5546879,96.9804702 78.6562494,97.2578112 78.78125,97.5234375 C78.9062506,97.7890638 79.0624991,98.0221344 79.25,98.2226562 C79.4375009,98.4231781 79.6588529,98.5833327 79.9140625,98.703125 C80.1692721,98.8229173 80.4661441,98.8828125 80.8046875,98.8828125 C81.1432309,98.8828125 81.441405,98.8229173 81.6992188,98.703125 C81.9570325,98.5833327 82.1783845,98.4231781 82.3632812,98.2226562 C82.548178,98.0221344 82.7018223,97.7903659 82.8242188,97.5273438 C82.9466152,97.2643216 83.0455725,96.9882827 83.1210938,96.6992188 C83.196615,96.4101548 83.2486978,96.117189 83.2773438,95.8203125 C83.3059897,95.523436 83.3229166,95.2395847 83.328125,94.96875 L83.328125,93.65625 Z M88.0144035,100 L88.0144035,88.625 L91.397216,88.625 C91.8659683,88.6302084 92.3242971,88.6914057 92.772216,88.8085938 C93.2201349,88.9257818 93.6185684,89.1067696 93.9675285,89.3515625 C94.3164885,89.5963554 94.5951316,89.9088523 94.803466,90.2890625 C95.0118003,90.6692727 95.1133618,91.1249973 95.1081535,91.65625 C95.1029451,91.9531265 95.0547685,92.2239571 94.9636222,92.46875 C94.8724759,92.7135429 94.7474772,92.9335928 94.5886222,93.1289062 C94.4297673,93.3242197 94.2435712,93.4947909 94.0300285,93.640625 C93.8164857,93.7864591 93.5899255,93.9114578 93.350341,94.015625 C93.6524258,94.1041671 93.9297668,94.2304679 94.1823722,94.3945312 C94.4349776,94.5585946 94.6524234,94.7565093 94.834716,94.9882812 C95.0170085,95.2200532 95.1589342,95.4817694 95.2604972,95.7734375 C95.3620602,96.0651056 95.412841,96.3802066 95.412841,96.71875 C95.4180493,97.2500027 95.3164878,97.718748 95.1081535,98.125 C94.8998191,98.531252 94.621176,98.8710924 94.272216,99.1445312 C93.9232559,99.4179701 93.5209162,99.6276034 93.0651847,99.7734375 C92.6094533,99.9192716 92.1394059,99.9947916 91.6550285,100 L88.0144035,100 Z M89.4675285,94.6796875 L89.4675285,98.7734375 L91.694091,98.7734375 C91.9961758,98.7682291 92.2826313,98.7174484 92.553466,98.6210938 C92.8243006,98.5247391 93.0638816,98.3906259 93.272216,98.21875 C93.4805503,98.0468741 93.6459133,97.8359387 93.7683097,97.5859375 C93.8907062,97.3359363 93.9519035,97.0520849 93.9519035,96.734375 C93.9571118,96.4114567 93.9037269,96.1250012 93.7917472,95.875 C93.6797675,95.6249988 93.5248211,95.4127613 93.3269035,95.2382812 C93.1289858,95.0638012 92.8972173,94.929688 92.631591,94.8359375 C92.3659646,94.742187 92.0795092,94.6901042 91.772216,94.6796875 L89.4675285,94.6796875 Z M89.4675285,93.4765625 L91.4831535,93.4765625 C91.7539881,93.4713541 92.0196105,93.4283858 92.2800285,93.3476562 C92.5404464,93.2669267 92.7722149,93.1497404 92.975341,92.9960938 C93.178467,92.8424471 93.3425278,92.653647 93.4675285,92.4296875 C93.5925291,92.205728 93.6550285,91.945314 93.6550285,91.6484375 C93.6550285,91.3307276 93.5938312,91.059897 93.4714347,90.8359375 C93.3490383,90.611978 93.1849774,90.4283861 92.9792472,90.2851562 C92.773517,90.1419264 92.5365402,90.0364587 92.2683097,89.96875 C92.0000792,89.9010413 91.7253424,89.8645834 91.444091,89.859375 L89.4675285,89.859375 L89.4675285,93.4765625 Z M98.7006819,88.625 L105.575682,88.625 L105.575682,89.8828125 L102.849119,89.8828125 L102.849119,98.75 L105.575682,98.75 L105.575682,100 L98.7006819,100 L98.7006819,98.75 L101.364744,98.75 L101.364744,89.8828125 L98.7006819,89.8828125 L98.7006819,88.625 Z M111.004148,98.7734375 L116.566648,98.7734375 L116.566648,100 L109.558835,100 L109.558835,88.625 L111.004148,88.625 L111.004148,98.7734375 Z M126.299801,94.7421875 L121.549801,94.7421875 L121.549801,98.7734375 L127.088864,98.7734375 L127.088864,100 L120.104489,100 L120.104489,88.625 L127.018551,88.625 L127.018551,89.859375 L121.549801,89.859375 L121.549801,93.515625 L126.299801,93.515625 L126.299801,94.7421875 Z M18.5223435,121 L18.5223435,109.625 L21.155156,109.625 C21.9468266,109.635417 22.6538508,109.76953 23.2762497,110.027344 C23.8986487,110.285158 24.4246851,110.644529 24.8543747,111.105469 C25.2840644,111.566409 25.6121861,112.118486 25.8387497,112.761719 C26.0653133,113.404951 26.1811976,114.117184 26.186406,114.898438 L26.186406,115.734375 C26.1811976,116.515629 26.0653133,117.227861 25.8387497,117.871094 C25.6121861,118.514326 25.2840644,119.066404 24.8543747,119.527344 C24.4246851,119.988284 23.8986487,120.347655 23.2762497,120.605469 C22.6538508,120.863283 21.9468266,120.994792 21.155156,121 L18.5223435,121 Z M19.9910935,110.8125 L19.9910935,119.820312 L21.155156,119.820312 C21.7697424,119.815104 22.3009871,119.707032 22.748906,119.496094 C23.1968249,119.285155 23.5679149,118.997398 23.8621872,118.632812 C24.1564595,118.268227 24.3752073,117.838544 24.5184372,117.34375 C24.6616671,116.848956 24.7358851,116.312503 24.7410935,115.734375 L24.7410935,114.882812 C24.7358851,114.304685 24.660365,113.769534 24.514531,113.277344 C24.3686969,112.785154 24.1499491,112.358075 23.858281,111.996094 C23.5666128,111.634113 23.1968249,111.348959 22.748906,111.140625 C22.3009871,110.932291 21.7697424,110.822917 21.155156,110.8125 L19.9910935,110.8125 Z M35.5992469,115.742188 L30.8492469,115.742188 L30.8492469,119.773438 L36.3883094,119.773438 L36.3883094,121 L29.4039344,121 L29.4039344,109.625 L36.3179969,109.625 L36.3179969,110.859375 L30.8492469,110.859375 L30.8492469,114.515625 L35.5992469,114.515625 L35.5992469,115.742188 Z M43.4183379,118.671875 L46.1058379,109.625 L47.6449004,109.625 L44.0589629,121 L42.8011504,121 L39.2074004,109.625 L40.7542754,109.625 L43.4183379,118.671875 Z M56.9405538,115.742188 L52.1905538,115.742188 L52.1905538,119.773438 L57.7296163,119.773438 L57.7296163,121 L50.7452413,121 L50.7452413,109.625 L57.6593038,109.625 L57.6593038,110.859375 L52.1905538,110.859375 L52.1905538,114.515625 L56.9405538,114.515625 L56.9405538,115.742188 Z M62.9862073,119.773438 L68.5487073,119.773438 L68.5487073,121 L61.5408948,121 L61.5408948,109.625 L62.9862073,109.625 L62.9862073,119.773438 Z M79.4224858,115.96875 C79.4172774,116.375002 79.3821215,116.785154 79.317017,117.199219 C79.2519125,117.613283 79.1516531,118.013019 79.0162358,118.398438 C78.8808184,118.783856 78.7076431,119.143227 78.4967045,119.476562 C78.285766,119.809898 78.0344664,120.101561 77.7427983,120.351562 C77.4511301,120.601564 77.1164981,120.798176 76.738892,120.941406 C76.361286,121.084636 75.9381131,121.15625 75.4693608,121.15625 C75.0006084,121.15625 74.5774356,121.084636 74.1998295,120.941406 C73.8222235,120.798176 73.4875914,120.601564 73.1959233,120.351562 C72.9042551,120.101561 72.6516535,119.808595 72.4381108,119.472656 C72.224568,119.136717 72.0487885,118.776044 71.910767,118.390625 C71.7727455,118.005206 71.6698819,117.606773 71.6021733,117.195312 C71.5344646,116.783852 71.4980066,116.375002 71.4927983,115.96875 L71.4927983,114.671875 C71.4980066,114.265623 71.5331625,113.855471 71.598267,113.441406 C71.6633715,113.027342 71.764933,112.627606 71.9029545,112.242188 C72.040976,111.856769 72.2154535,111.496095 72.426392,111.160156 C72.6373306,110.824217 72.8886301,110.529949 73.1802983,110.277344 C73.4719664,110.024738 73.8065985,109.826824 74.1842045,109.683594 C74.5618106,109.540364 74.9849834,109.46875 75.4537358,109.46875 C75.9224881,109.46875 76.346963,109.540364 76.7271733,109.683594 C77.1073835,109.826824 77.4433176,110.023436 77.7349858,110.273438 C78.0266539,110.523439 78.2779535,110.816405 78.488892,111.152344 C78.6998306,111.488283 78.874308,111.848956 79.0123295,112.234375 C79.150351,112.619794 79.2519125,113.020831 79.317017,113.4375 C79.3821215,113.854169 79.4172774,114.265623 79.4224858,114.671875 L79.4224858,115.96875 Z M77.9927983,114.65625 C77.9875899,114.385415 77.9693609,114.102866 77.9381108,113.808594 C77.9068606,113.514321 77.8534757,113.222658 77.7779545,112.933594 C77.7024333,112.64453 77.6021739,112.368491 77.4771733,112.105469 C77.3521726,111.842447 77.1959242,111.610678 77.0084233,111.410156 C76.8209223,111.209634 76.5995704,111.050782 76.3443608,110.933594 C76.0891512,110.816406 75.7922791,110.757812 75.4537358,110.757812 C75.1204008,110.757812 74.8261329,110.817708 74.5709233,110.9375 C74.3157137,111.057292 74.0943617,111.217447 73.9068608,111.417969 C73.7193598,111.618491 73.5631114,111.850259 73.4381108,112.113281 C73.3131101,112.376303 73.2128507,112.652342 73.1373295,112.941406 C73.0618083,113.23047 73.0071214,113.522134 72.973267,113.816406 C72.9394127,114.110679 72.9198816,114.390624 72.9146733,114.65625 L72.9146733,115.96875 C72.9198816,116.234376 72.9394127,116.515624 72.973267,116.8125 C73.0071214,117.109376 73.0631104,117.402342 73.1412358,117.691406 C73.2193612,117.98047 73.3209226,118.257811 73.4459233,118.523438 C73.5709239,118.789064 73.7271723,119.022134 73.9146733,119.222656 C74.1021742,119.423178 74.3235262,119.583333 74.5787358,119.703125 C74.8339454,119.822917 75.1308174,119.882812 75.4693608,119.882812 C75.8079041,119.882812 76.1060782,119.822917 76.363892,119.703125 C76.6217058,119.583333 76.8430578,119.423178 77.0279545,119.222656 C77.2128513,119.022134 77.3664956,118.790366 77.488892,118.527344 C77.6112885,118.264322 77.7102458,117.988283 77.785767,117.699219 C77.8612882,117.410155 77.913371,117.117189 77.942017,116.820312 C77.970663,116.523436 77.9875899,116.239585 77.9927983,115.96875 L77.9927983,114.65625 Z M84.2728267,116.4375 L84.2728267,121 L82.8275142,121 L82.8275142,109.625 L86.5150142,109.625 C87.0254334,109.635417 87.5085015,109.716145 87.964233,109.867188 C88.4199644,110.01823 88.8197,110.236978 89.1634517,110.523438 C89.5072034,110.809897 89.7793361,111.16406 89.979858,111.585938 C90.1803798,112.007815 90.2806392,112.492185 90.2806392,113.039062 C90.2806392,113.58594 90.1803798,114.069008 89.979858,114.488281 C89.7793361,114.907554 89.5072034,115.260415 89.1634517,115.546875 C88.8197,115.833335 88.4199644,116.052083 87.964233,116.203125 C87.5085015,116.354167 87.0254334,116.432292 86.5150142,116.4375 L84.2728267,116.4375 Z M84.2728267,115.25 L86.5150142,115.25 C86.8483492,115.244792 87.1556378,115.191407 87.4368892,115.089844 C87.7181406,114.988281 87.9629299,114.843751 88.1712642,114.65625 C88.3795986,114.468749 88.5423574,114.240887 88.6595455,113.972656 C88.7767336,113.704426 88.8353267,113.398439 88.8353267,113.054688 C88.8353267,112.710936 88.7767336,112.401043 88.6595455,112.125 C88.5423574,111.848957 88.3809007,111.614584 88.1751705,111.421875 C87.9694403,111.229166 87.7246511,111.08073 87.4407955,110.976562 C87.1569399,110.872395 86.8483492,110.817708 86.5150142,110.8125 L84.2728267,110.8125 L84.2728267,115.25 Z M94.9512927,109.625 L96.8028552,115.3125 L98.8028552,109.625 L100.59973,109.625 L100.59973,121 L99.1934802,121 L99.1934802,116.460938 L99.3106677,111.710938 L97.2091052,117.835938 L96.3809802,117.835938 L94.4512927,111.875 L94.5684802,116.460938 L94.5684802,121 L93.1622302,121 L93.1622302,109.625 L94.9512927,109.625 Z M110.293821,115.742188 L105.543821,115.742188 L105.543821,119.773438 L111.082884,119.773438 L111.082884,121 L104.098509,121 L104.098509,109.625 L111.012571,109.625 L111.012571,110.859375 L105.543821,110.859375 L105.543821,114.515625 L110.293821,114.515625 L110.293821,115.742188 Z M121.831662,121 L120.362912,121 L115.94885,112.5 L115.925412,121 L114.464475,121 L114.464475,109.625 L115.933225,109.625 L120.347287,118.109375 L120.370725,109.625 L121.831662,109.625 L121.831662,121 Z M133.049191,110.859375 L129.533566,110.859375 L129.533566,121 L128.127316,121 L128.127316,110.859375 L124.611691,110.859375 L124.611691,109.625 L133.049191,109.625 L133.049191,110.859375 Z" id="WEB/MOBILE-DEVELOPME" fill="#FFF399"></path>
                </g>
            </g>
        </g>
    </g>
</svg>