<?xml version="1.0" encoding="UTF-8"?>
<svg width="356px" height="48px" viewBox="0 0 356 48" version="1.1" xmlns="http://www.w3.org/2000/svg" xmlns:xlink="http://www.w3.org/1999/xlink">
    <!-- Generator: Sketch 43 (38999) - http://www.bohemiancoding.com/sketch -->
    <title>Group 4</title>
    <desc>Created with Sketch.</desc>
    <defs></defs>
    <g id="Page-1" stroke="none" stroke-width="1" fill="none" fill-rule="evenodd">
        <g id="Artboard" transform="translate(-218.000000, -580.000000)">
            <g id="Group-4" transform="translate(218.000000, 580.360000)">
                <path d="M6.61349162,47.2748442 C6.40815195,47.1243907 6.28718856,46.9305691 6.25059781,46.6933736 L2.68850626,23.6025096 C2.64825644,23.3415946 2.69742768,23.1093855 2.83602145,22.9058754 C2.97461522,22.7023652 3.17436662,22.5804871 3.43528164,22.5402373 L20.2286373,19.9496252 C20.4895523,19.9093754 20.7226761,19.9644764 20.9280158,20.11493 C21.1333555,20.2653835 21.2561484,20.4710647 21.2963982,20.7319797 L21.8397681,24.2543149 C21.8800179,24.5152299 21.8240021,24.742424 21.671719,24.9359039 C21.519436,25.1293838 21.31284,25.2462469 21.051925,25.2864967 L9.80891571,27.0208895 L10.505966,31.5394407 L20.9662341,29.9257968 C21.2271491,29.8855469 21.460273,29.940648 21.6656126,30.0911015 C21.8709523,30.2415551 21.9937452,30.4472363 22.033995,30.7081513 L22.5334563,33.9458533 C22.5737061,34.2067684 22.518605,34.4398922 22.3681515,34.6452319 C22.217698,34.8505715 22.0120168,34.9733644 21.7511017,35.0136143 L11.2908336,36.6272582 L12.0043496,41.2525468 L23.5319921,39.4742453 C23.7929071,39.4339955 24.0260309,39.4890966 24.2313706,39.6395501 C24.4367103,39.7900036 24.5595032,39.9956848 24.599753,40.2565999 L25.1431229,43.778935 C25.1833727,44.0398501 25.1273569,44.2670441 24.9750738,44.460524 C24.8227908,44.6540039 24.6161948,44.770867 24.3552798,44.8111168 L7.27729101,47.4456376 C7.04009554,47.4822283 6.81883129,47.4252978 6.61349162,47.2748442 Z M32.4494562,43.4614927 C32.2456823,43.3089252 32.1267284,43.1138638 32.0925909,42.8763029 L28.769318,19.7498602 C28.7317667,19.4885431 28.783335,19.2568546 28.9240245,19.0547876 C29.064714,18.8527206 29.2657143,18.7329133 29.5270313,18.695362 L33.5536693,18.1167336 C34.1000595,18.0382172 34.5363372,18.2058638 34.8625156,18.6196783 L45.1821169,30.702684 L43.3079753,17.6606532 C43.270424,17.3993361 43.3219924,17.1676476 43.4626819,16.9655806 C43.6033714,16.7635136 43.8043716,16.6437062 44.0656887,16.606155 L48.5912021,15.9558381 C48.8525192,15.9182868 49.0791222,15.9766475 49.271018,16.1309219 C49.4629138,16.2851963 49.5776357,16.492989 49.615187,16.754306 L52.9333393,39.8451148 C52.9708906,40.1064318 52.9193223,40.3381203 52.7786328,40.5401873 C52.6379432,40.7422543 52.436943,40.8620617 52.1756259,40.899613 L48.148988,41.4782414 C47.6025978,41.5567577 47.1663201,41.3891111 46.8401417,40.9752966 L36.6329834,29.4216798 L38.4354365,41.9648351 C38.4729878,42.2261522 38.4146271,42.4527552 38.2603527,42.644651 C38.1060782,42.8365468 37.8982856,42.9512687 37.6369686,42.98882 L33.1114551,43.6391369 C32.8738942,43.6732744 32.6532301,43.6140603 32.4494562,43.4614927 Z M66.6326714,38.8119329 C66.4321286,38.6690791 66.3144891,38.4668024 66.2797494,38.2050968 L63.8542967,19.9333754 L57.5733924,20.7671247 C57.3116868,20.8018645 57.0805661,20.7478083 56.8800233,20.6049545 C56.6794805,20.4621007 56.561841,20.259824 56.5271013,19.9981184 L55.9965335,16.0011793 C55.9617938,15.7394737 56.0217978,15.5075634 56.1765472,15.3054415 C56.3312967,15.1033197 56.5395212,14.9848907 56.8012268,14.9501509 L76.1792439,12.3778446 C76.4409495,12.3431049 76.6728598,12.4031089 76.8749817,12.5578584 C77.0771035,12.7126079 77.1955325,12.9208323 77.2302723,13.182538 L77.76084,17.179477 C77.7955798,17.4411827 77.7347863,17.6671452 77.5784577,17.8573713 C77.4221291,18.0475975 77.2131151,18.1600787 76.9514095,18.1948185 L70.6705053,19.0285678 L73.095958,37.3002892 C73.1306977,37.5619949 73.0699042,37.7879574 72.9135756,37.9781835 C72.757247,38.1684097 72.5482331,38.2808909 72.2865274,38.3156306 L67.3260405,38.9741032 C67.0643349,39.0088429 66.8332141,38.9547867 66.6326714,38.8119329 Z M86.7932455,36.2901495 C86.5928765,36.1331369 86.4782416,35.9355065 86.4493373,35.6972522 L83.6355175,12.5033109 C83.6037227,12.2412311 83.6603744,12.0107328 83.8054742,11.8118091 C83.950574,11.6128853 84.1541607,11.4975278 84.4162404,11.4657331 L101.284561,9.41931868 C101.546641,9.38752394 101.777862,9.45013189 101.978231,9.6071444 C102.1786,9.7641569 102.29468,9.97369989 102.326475,10.2357796 L102.755702,13.7738385 C102.787496,14.0359182 102.724166,14.2611828 102.565708,14.4496391 C102.40725,14.6380953 102.196985,14.7482192 101.934905,14.7800139 L90.641707,16.150071 L91.1923313,20.688793 L101.699294,19.4141196 C101.961374,19.3823248 102.192595,19.4449328 102.392963,19.6019453 C102.593332,19.7589578 102.709413,19.9685008 102.741207,20.2305805 L103.135749,23.4827356 C103.167544,23.7448154 103.104936,23.9760363 102.947923,24.1764052 C102.790911,24.3767742 102.581368,24.4928543 102.319288,24.524649 L91.8123255,25.7993224 L92.3759566,30.4452583 L103.955058,29.0405162 C104.217138,29.0087214 104.448359,29.0713294 104.648728,29.2283419 C104.849097,29.3853544 104.965177,29.5948974 104.996972,29.8569771 L105.426198,33.395036 C105.457993,33.6571157 105.394663,33.8823803 105.236205,34.0708366 C105.077747,34.2592928 104.867482,34.3694166 104.605402,34.4012114 L87.4511771,36.4823108 C87.2129228,36.5112151 86.9936144,36.447162 86.7932455,36.2901495 Z M112.75335,33.363038 C112.555291,33.2031216 112.443549,33.0038413 112.418121,32.7651909 L109.942673,9.53269956 C109.914702,9.27018422 109.974707,9.04053617 110.122691,8.84374853 C110.270675,8.64696088 110.475922,8.53458309 110.738437,8.50661179 L120.582713,7.45769338 C123.732897,7.1220378 126.273209,7.57543316 128.203724,8.81789304 C130.13424,10.0603529 131.238066,11.9821982 131.515236,14.5834866 C131.693235,16.2540387 131.456732,17.7153074 130.805717,18.9673364 C130.154703,20.2193654 129.183386,21.2400135 127.891736,22.0293116 L133.655057,30.2489456 C133.741909,30.3845072 133.791692,30.5119487 133.804406,30.6312739 C133.824749,30.8221941 133.77159,31.0028414 133.644929,31.1732212 C133.518267,31.343601 133.347546,31.4402322 133.132761,31.4631178 L128.085332,32.0009269 C127.393246,32.0746694 126.869692,31.8046239 126.514655,31.1907822 L121.749253,23.8423208 L118.312705,24.2084887 L119.148026,32.0481122 C119.175997,32.3106275 119.10939,32.5349451 118.948202,32.7210717 C118.787014,32.9071982 118.575166,33.0142455 118.312651,33.0422168 L113.408411,33.5647689 C113.169761,33.5901974 112.95141,33.5229544 112.75335,33.363038 Z M121.725519,18.5228941 C122.751715,18.4135518 123.505948,18.0737296 123.98824,17.5034174 C124.470532,16.9331052 124.663361,16.1945246 124.566733,15.2876535 C124.470105,14.3807823 124.124071,13.6815164 123.528623,13.1898347 C122.933174,12.698153 122.122364,12.5069862 121.096168,12.6163285 L117.12266,13.0397101 L117.752011,18.9462757 L121.725519,18.5228941 Z" id="ENTER" fill="#0CC24B"></path>
                <path d="M149.511167,30.0926172 C149.319283,29.9383274 149.213623,29.7295433 149.194182,29.4662588 L147.473704,6.16569121 C147.454263,5.90240664 147.52767,5.67438422 147.693928,5.48161711 C147.860185,5.28884999 148.074953,5.18274776 148.338237,5.16330722 L152.395193,4.86374773 C152.993567,4.8195647 153.44383,5.05103401 153.745995,5.5581626 L160.737683,16.1600924 L166.132276,4.64357832 C166.356679,4.09756866 166.768062,3.80247673 167.366436,3.75829369 L171.423391,3.45873421 C171.686676,3.43929367 171.914698,3.51270095 172.107465,3.67895824 C172.300232,3.84521553 172.406335,4.05998324 172.425775,4.32326781 L174.146254,27.6238354 C174.165694,27.8871199 174.091845,28.1091587 173.924704,28.2899583 C173.757563,28.470758 173.542354,28.5708766 173.279069,28.5903171 L168.719482,28.9269901 C168.480133,28.9446634 168.264077,28.8703724 168.07131,28.7041151 C167.878543,28.5378578 167.773325,28.3350574 167.755651,28.0957078 L166.790699,15.0272847 L163.438146,22.4222371 C163.16764,22.9957164 162.769109,23.301892 162.24254,23.340773 L160.303817,23.4839254 C159.825118,23.5192718 159.385939,23.2749515 158.986266,22.7509573 L154.619832,15.9259632 L155.584785,28.9943863 C155.604225,29.2576709 155.530376,29.4797096 155.363235,29.6605093 C155.196094,29.8413089 154.980885,29.9414275 154.7176,29.960868 L150.193915,30.2948901 C149.930631,30.3143306 149.70305,30.246907 149.511167,30.0926172 Z M188.882839,28.6608128 C188.701275,28.4823892 188.609447,28.2731845 188.607353,28.0331925 L188.540453,20.3654843 L180.089713,4.95862695 C180.016668,4.83925909 179.979519,4.70757952 179.978262,4.56358428 C179.976587,4.37159063 180.053065,4.19691848 180.207699,4.0395626 C180.362333,3.88220672 180.535644,3.80269241 180.727638,3.80101728 L185.479457,3.75955814 C185.815446,3.75662667 186.092165,3.83821468 186.309624,4.00432461 C186.527082,4.17043454 186.684645,4.34906487 186.782317,4.54022096 L191.864962,13.5322193 L196.789936,4.4529055 C196.884258,4.26007428 197.03868,4.07872192 197.253207,3.90884295 C197.467734,3.73896399 197.742988,3.65256007 198.078977,3.6496286 L202.830796,3.60816946 C203.02279,3.60649434 203.197462,3.68297253 203.354818,3.83760633 C203.512174,3.99224014 203.591688,4.16555127 203.593363,4.35754492 C203.59462,4.50154016 203.559773,4.6338479 203.488822,4.7544721 L195.308195,20.3064364 L195.375095,27.9741446 C195.377398,28.2381359 195.289287,28.4549107 195.110759,28.6244756 C194.932231,28.7940404 194.710974,28.8799732 194.446983,28.8822765 L189.515171,28.9253061 C189.275179,28.9274 189.064403,28.8392365 188.882839,28.6608128 Z" id="MY" fill="#0CC24B"></path>
                <path d="M219.668517,30.3428605 C219.432947,30.0979203 219.302881,29.8061932 219.278314,29.4676704 L217.034571,6.21589367 C217.01396,6.16634356 217.006986,6.09368509 217.013648,5.99791607 C217.026973,5.80637804 217.11686,5.63821242 217.283311,5.49341418 C217.449762,5.34861594 217.628754,5.28288021 217.820292,5.29620502 L222.524921,5.62349408 C223.219247,5.67179653 223.583163,5.97377754 223.616681,6.52944619 L224.862995,20.2570382 L227.888153,12.5644359 C228.124662,11.9313199 228.542189,11.6355863 229.140745,11.6772263 L231.834235,11.8646056 C232.432792,11.9062456 232.805348,12.2569432 232.951914,12.9167089 L234.885276,20.9181757 L238.053788,7.53379888 C238.12166,7.24982303 238.243972,7.04782655 238.420728,6.92780336 C238.597485,6.80778017 238.865426,6.7602613 239.22456,6.78524532 L243.929189,7.11253438 C244.14467,7.1275248 244.318821,7.21782778 244.451648,7.38344604 C244.584475,7.5490643 244.644225,7.72763977 244.630901,7.9191778 L244.61591,8.13465701 L239.174228,30.8517783 C239.103025,31.1836387 238.927832,31.4541297 238.648644,31.6632595 C238.369456,31.8723893 238.038329,31.963628 237.655253,31.9369784 L234.02802,31.684641 C233.644944,31.6579914 233.352332,31.5414041 233.150177,31.3348757 C232.948021,31.1283472 232.81936,30.9028767 232.76419,30.6584574 L229.900837,20.4631599 L225.653376,30.1637762 C225.540951,30.3965363 225.370338,30.6011871 225.141533,30.7777347 C224.912728,30.9542824 224.606792,31.0292302 224.223716,31.0025806 L220.632396,30.7527416 C220.225377,30.7244264 219.904088,30.5878007 219.668517,30.3428605 Z M251.761995,31.5106686 C249.970949,29.6647056 249.177842,27.1358967 249.382652,23.9241663 C249.426518,23.2531668 249.518612,22.2252244 249.658937,20.8403085 C249.799262,19.4553925 249.916443,18.4179308 250.010483,17.7278922 C250.425355,14.585692 251.716166,12.2620031 253.882954,10.7567558 C256.049743,9.25150838 258.804546,8.6682513 262.147446,9.006967 C265.466469,9.34326331 268.036349,10.466038 269.857164,12.3753249 C271.677978,14.2846117 272.476449,16.8199947 272.2526,19.9815501 C272.160031,21.3713048 272.078666,22.4123956 272.008503,23.1048536 C271.935921,23.8211894 271.808011,24.8455027 271.624769,26.1778242 C271.181181,29.3653606 269.902913,31.6842898 267.789929,33.1346813 C265.676945,34.5850729 262.925166,35.1384831 259.53451,34.7949286 C256.143853,34.4513741 253.553041,33.3566317 251.761995,31.5106686 Z M263.165966,28.5954268 C263.982391,27.9182755 264.493104,26.8061054 264.698121,25.2588832 C264.886202,23.878806 265.010483,22.890309 265.070968,22.2933625 C265.131453,21.6964159 265.205559,20.7269577 265.29329,19.3849586 C265.402795,17.8280588 265.12555,16.6360498 264.461548,15.8088958 C263.797545,14.9817419 262.844733,14.5052677 261.603085,14.379459 C260.337558,14.2512309 259.296598,14.5256884 258.480173,15.2028397 C257.663748,15.879991 257.153035,16.9921611 256.948019,18.5393833 C256.856398,19.205544 256.746475,20.1713732 256.618247,21.4368999 C256.487599,22.7263044 256.399135,23.7184305 256.35285,24.4133079 C256.243345,25.9702077 256.520589,27.1622167 257.184592,27.9893706 C257.848595,28.8165246 258.813345,29.2942085 260.078872,29.4224366 C261.32052,29.5482453 262.349542,29.2725781 263.165966,28.5954268 Z M278.045068,36.3490158 C277.887565,36.1490319 277.822975,35.9298811 277.851296,35.6915567 L280.608313,12.4907947 C280.639466,12.2286379 280.749074,12.0181033 280.937142,11.8591846 C281.12521,11.7002659 281.350318,11.6363839 281.612475,11.6675368 L291.443307,12.8357642 C294.589188,13.2095988 296.964889,14.2169691 298.570481,15.8579054 C300.176073,17.4988416 300.824511,19.6181458 300.515814,22.2158815 C300.317568,23.8841521 299.761791,25.2561403 298.848465,26.3318871 C297.935138,27.4076339 296.761035,28.1865193 295.32612,28.6685665 L299.115628,37.9646885 C299.170133,38.1161793 299.190305,38.2515038 299.176145,38.370666 C299.153488,38.5613255 299.06146,38.725612 298.900057,38.8635303 C298.738653,39.0014487 298.550709,39.0576627 298.336217,39.032174 L293.295681,38.4331919 C292.604541,38.3510616 292.154216,37.9712717 291.944692,37.2938109 L288.934198,29.0691004 L285.502344,28.6612828 L284.57201,36.4901994 C284.540857,36.7523562 284.425998,36.9562248 284.22743,37.1018112 C284.028863,37.2473977 283.798504,37.3046136 283.536347,37.2734608 L278.638806,36.6914711 C278.400481,36.6631503 278.202571,36.5489997 278.045068,36.3490158 Z M290.094895,23.8777956 C291.11969,23.9995751 291.930635,23.8361295 292.527755,23.3874539 C293.124874,22.9387783 293.477238,22.2616343 293.584857,21.3560017 C293.692476,20.4503691 293.510743,19.6916302 293.039651,19.0797623 C292.568559,18.4678945 291.820627,18.1010763 290.795832,17.9792968 L286.827751,17.5077578 L286.126814,23.4062566 L290.094895,23.8777956 Z M305.846292,39.8716641 C305.691319,39.6697139 305.629492,39.4497675 305.66081,39.2118184 L308.714286,16.0118985 C308.748736,15.7501545 308.866151,15.5477476 309.066535,15.4046716 C309.266919,15.2615957 309.486083,15.2057174 309.724032,15.2370353 L314.720938,15.8947071 C314.982682,15.9291567 315.185872,16.0406233 315.330514,16.2291102 C315.475155,16.417597 315.530251,16.6427091 315.495801,16.9044531 L313.062415,35.3930046 L323.770071,36.8023013 C324.031815,36.836751 324.24017,36.9549491 324.395144,37.1568993 C324.550117,37.3588496 324.610378,37.5906932 324.575928,37.8524372 L324.077977,41.6358087 C324.043527,41.8975527 323.926112,42.0999597 323.725728,42.2430356 C323.525343,42.3861116 323.294283,42.4404239 323.032539,42.4059743 L306.435673,40.2215644 C306.197724,40.1902466 306.001266,40.0736143 305.846292,39.8716641 Z M330.214003,43.2216721 C330.060913,43.0182907 330.001132,42.7977793 330.03466,42.5601315 L333.298541,19.425232 C333.335421,19.1638194 333.449609,18.9557329 333.641108,18.8009663 C333.832607,18.6461996 334.05906,18.5872573 334.320472,18.6241375 L343.695632,19.946789 C347.21282,20.4429953 349.827546,21.6662512 351.53989,23.6165935 C353.252233,25.5669357 353.934643,28.1172497 353.58714,31.2676119 C353.513675,31.9601433 353.396479,32.87675 353.235547,34.0174596 C353.074615,35.1581691 352.93533,36.0595409 352.817689,36.721602 C351.661389,43.1996248 347.506701,45.934007 340.353502,44.9248306 L330.800107,43.5770337 C330.56246,43.5435062 330.367093,43.4250536 330.214003,43.2216721 Z M340.929631,39.552636 C342.426812,39.7638589 343.582148,39.5632929 344.395674,38.9509318 C345.2092,38.3385707 345.75036,37.2515214 346.019171,35.6897513 C346.16393,35.0072781 346.313421,34.1194648 346.467647,33.0262849 C346.621873,31.9331049 346.722158,31.0504685 346.768506,30.3783491 C346.935552,28.8506976 346.68403,27.6699945 346.013934,26.8362044 C345.343837,26.0024143 344.260214,25.4799156 342.763033,25.2686927 L339.376569,24.7909288 L337.364931,39.0497267 L340.929631,39.552636 Z" id="WORLD" fill="#0CC24B"></path>
                <path d="M4.6359344,44.4203911 C4.43027861,44.2703699 4.30890764,44.0768033 4.27181787,43.8396853 L0.661146666,20.7563678 C0.620347917,20.495538 0.669030433,20.263226 0.807195673,20.0594247 C0.945360913,19.8556234 1.14485542,19.7333252 1.40568517,19.6925264 L18.1935525,17.0665837 C18.4543822,17.025785 18.6876215,17.0803953 18.8932773,17.2304165 C19.0989331,17.3804376 19.2221585,17.58586 19.2629573,17.8466897 L19.8137376,21.3678738 C19.8545364,21.6287035 19.7989988,21.8560149 19.6471231,22.0498148 C19.4952475,22.2436147 19.2888979,22.3609123 19.0280682,22.401711 L7.78873327,24.1597574 L8.49528989,28.6768319 L18.9521394,27.0411811 C19.2129692,27.0003824 19.4462085,27.0549928 19.6518643,27.2050139 C19.8575201,27.355035 19.9807455,27.5604574 20.0215442,27.8212872 L20.5278171,31.0579311 C20.5686158,31.3187608 20.5140055,31.5520001 20.3639843,31.7576559 C20.2139632,31.9633117 20.0085408,32.0865371 19.7477111,32.1273359 L9.29086151,33.7629866 L10.0141084,38.3867636 L21.5379835,36.5842097 C21.7988132,36.543411 22.0320525,36.5980214 22.2377083,36.7480425 C22.4433641,36.8980636 22.5665895,37.103486 22.6073882,37.3643158 L23.1581686,40.8854998 C23.1989673,41.1463295 23.1434297,41.373641 22.9915541,41.5674408 C22.8396785,41.7612407 22.6333289,41.8785383 22.3724991,41.9193371 L5.30009171,44.5897873 C5.06297375,44.626877 4.8415902,44.5704122 4.6359344,44.4203911 Z M30.4594946,40.5731022 C30.2555272,40.4207934 30.1363258,40.2258832 30.1018867,39.9883658 L26.749261,16.8661601 C26.7113781,16.6048909 26.7626523,16.3731371 26.9030852,16.1708917 C27.0435181,15.9686463 27.2443661,15.8485839 27.5056353,15.8107009 L31.5315355,15.2269618 C32.0778256,15.147752 32.5143158,15.3148446 32.8410191,15.7282447 L43.1759497,27.7981416 L41.2852548,14.7585002 C41.2473718,14.497231 41.298646,14.2654772 41.4390789,14.0632318 C41.5795118,13.8609864 41.7803598,13.740924 42.041629,13.703041 L46.5663133,13.0469802 C46.8275825,13.0090973 47.0542594,13.0671703 47.2463509,13.221201 C47.4384424,13.3752317 47.5534279,13.5828786 47.5913109,13.8441477 L50.9387707,36.930726 C50.9766537,37.1919952 50.9253795,37.423749 50.7849466,37.6259944 C50.6445137,37.8282398 50.4436657,37.9483022 50.1823965,37.9861852 L46.1564963,38.5699243 C45.6102062,38.6491341 45.173716,38.4820415 44.8470126,38.0686414 L34.625197,26.5279902 L36.4435703,39.0688475 C36.4814532,39.3301167 36.4233802,39.5567936 36.2693495,39.7488851 C36.1153188,39.9409766 35.9076719,40.0559621 35.6464028,40.0938451 L31.1217184,40.7499059 C30.884201,40.7843449 30.6634619,40.725411 30.4594946,40.5731022 Z M64.6302256,35.8791418 C64.4294856,35.7365653 64.3115667,35.5344513 64.2764654,35.2727939 L61.8257681,17.0044413 L55.5460219,17.8468685 C55.2843645,17.8819698 55.0531693,17.828233 54.8524293,17.6856565 C54.6516894,17.5430799 54.5337705,17.340966 54.4986692,17.0793086 L53.9625792,13.0831065 C53.9274779,12.8214491 53.9871613,12.5894561 54.1416314,12.3871206 C54.2961015,12.1847851 54.5041621,12.0660685 54.7658195,12.0309672 L74.1402637,9.43188787 C74.4019211,9.39678656 74.6339141,9.45647004 74.8362496,9.6109401 C75.0385851,9.76541016 75.1573017,9.97347077 75.192403,10.2351282 L75.728493,14.2313303 C75.7635943,14.4929877 75.7031131,14.719034 75.5470475,14.909476 C75.390982,15.0999179 75.1821236,15.2126879 74.9204662,15.2477892 L68.64072,16.0902164 L71.0914173,34.358569 C71.1265186,34.6202264 71.0660374,34.8462727 70.9099718,35.0367146 C70.7539062,35.2271566 70.5450478,35.3399265 70.2833904,35.3750279 L65.3238182,36.0403539 C65.0621608,36.0754552 64.8309655,36.0217184 64.6302256,35.8791418 Z M84.800183,33.3236446 C84.5995514,33.1669678 84.4845857,32.9695296 84.4552826,32.731324 L81.602633,9.54212635 C81.5703995,9.28010021 81.6266652,9.04950739 81.7714317,8.85034098 C81.9161983,8.65117457 82.1195916,8.53547636 82.3816177,8.50324287 L99.2464887,6.42858865 C99.5085148,6.39635516 99.7398402,6.45857589 99.9404718,6.6152527 C100.141103,6.7719295 100.257534,6.98127784 100.289768,7.24330398 L100.724918,10.7806392 C100.757151,11.0426654 100.694198,11.2680357 100.536056,11.456757 C100.377914,11.6454783 100.167833,11.755954 99.9058068,11.7881875 L88.6149186,13.1771509 L89.1731412,17.7149446 L99.6779549,16.4226812 C99.9399811,16.3904477 100.171306,16.4526684 100.371938,16.6093452 C100.57257,16.766022 100.689,16.9753703 100.721234,17.2373965 L101.12122,20.4888864 C101.153454,20.7509126 101.091233,20.982238 100.934556,21.1828695 C100.777879,21.3835011 100.568531,21.4999319 100.306505,21.5321654 L89.8016911,22.8244288 L90.3731001,27.4694145 L101.949834,26.0452874 C102.21186,26.0130539 102.443185,26.0752747 102.643817,26.2319515 C102.844448,26.3886283 102.960879,26.5979766 102.993113,26.8600027 L103.428262,30.397338 C103.460496,30.6593641 103.397543,30.8847345 103.239401,31.0734557 C103.081259,31.262177 102.871178,31.3726528 102.609152,31.4048862 L85.4584354,33.5147041 C85.2202298,33.5440073 85.0008145,33.4803214 84.800183,33.3236446 Z M110.745308,30.3460339 C110.546892,30.1865613 110.434704,29.9875316 110.408741,29.7489388 L107.88129,6.52204731 C107.852731,6.25959524 107.912222,6.02981344 108.059765,5.832695 C108.207308,5.63557655 108.412303,5.52273957 108.674755,5.49418066 L118.516658,4.42322686 C121.666083,4.08051994 124.207403,4.52822725 126.140695,5.76636225 C128.073987,7.00449724 129.182113,8.92386663 129.465106,11.524528 C129.646845,13.1946775 129.413612,14.6564719 128.765403,15.9099552 C128.117193,17.1634384 127.148163,18.1862585 125.858283,18.9784461 L131.639991,27.1851574 C131.727147,27.3205243 131.777214,27.447854 131.790196,27.5671504 C131.810966,27.7580246 131.758212,27.9387905 131.631932,28.1094534 C131.505652,28.2801163 131.335148,28.3771295 131.120414,28.4004958 L126.074202,28.9496031 C125.382283,29.0248947 124.858126,28.7560219 124.501715,28.1429766 L119.719874,20.8052018 L116.284155,21.179062 L117.137024,29.0167958 C117.165583,29.2792479 117.099478,29.503714 116.938707,29.690201 C116.777936,29.8766879 116.566328,29.9842092 116.303876,30.0127681 L111.400819,30.5462978 C111.162226,30.5722605 110.943725,30.5055065 110.745308,30.3460339 Z M119.684232,15.4858415 C120.710181,15.3742021 121.463651,15.0326924 121.944665,14.4613019 C122.425679,13.8899115 122.616854,13.1509011 122.518196,12.2442485 C122.419538,11.3375959 122.07194,10.6391063 121.475393,10.1487589 C120.878845,9.65841145 120.067609,9.46906025 119.04166,9.58069963 L115.06911,10.0129755 L115.711682,15.9181174 L119.684232,15.4858415 Z M149.173131,26.8357252 C148.98091,26.6818566 148.874792,26.4733048 148.854774,26.2100635 L147.083193,2.91332556 C147.063175,2.65008427 147.136082,2.42190139 147.301917,2.22877009 C147.467751,2.03563878 147.682285,1.92906575 147.945526,1.90904779 L152.001815,1.60059082 C152.600091,1.55509547 153.05086,1.78557665 153.354138,2.29204128 L160.369062,12.8786106 L165.738382,1.35029213 C165.961587,0.803791591 166.372322,0.507798082 166.970597,0.462302726 L171.026886,0.15384576 C171.290128,0.133827803 171.51831,0.206734778 171.711442,0.372568871 C171.904573,0.538402965 172.011146,0.75293744 172.031164,1.01617873 L173.802744,24.3129167 C173.822762,24.576158 173.7494,24.7983582 173.582656,24.979524 C173.415912,25.1606898 173.200923,25.2612801 172.937682,25.2812981 L168.378844,25.627971 C168.139534,25.6461691 167.923316,25.5723522 167.730185,25.4065182 C167.537053,25.2406841 167.43139,25.0381149 167.413192,24.7988047 L166.419579,11.7325294 L163.083254,19.1348172 C162.814006,19.7088884 162.416147,20.0159374 161.889664,20.0559733 L159.951261,20.2033775 C159.47264,20.2397738 159.032926,19.9964174 158.632105,19.473301 L154.250712,12.6579003 L155.244326,25.7241756 C155.264344,25.9874168 155.190982,26.2096171 155.024238,26.3907828 C154.857494,26.5719486 154.642505,26.672539 154.379263,26.692557 L149.856322,27.0365001 C149.59308,27.0565181 149.365353,26.9895938 149.173131,26.8357252 Z M188.538945,25.2397059 C188.356336,25.0623514 188.263282,24.8536894 188.259779,24.6137138 L188.147861,16.9465306 L179.60681,1.58955495 C179.533066,1.47061801 179.495143,1.33915882 179.493041,1.19517344 C179.490239,1.00319293 179.56569,0.828074775 179.719398,0.669813716 C179.873105,0.511552656 180.045946,0.431022167 180.237927,0.428219833 L184.989421,0.358862408 C185.325386,0.353958323 185.60258,0.433920241 185.82101,0.59875056 C186.039441,0.763580879 186.198049,0.941283043 186.296842,1.13186238 L191.432193,10.0938644 L196.303776,0.985791444 C196.396964,0.792409769 196.550319,0.61015388 196.763845,0.439018309 C196.977371,0.267882738 197.252113,0.179864231 197.588078,0.174960146 L202.339572,0.105602721 C202.531553,0.102800387 202.706671,0.178251721 202.864932,0.331958988 C203.023193,0.485666254 203.103724,0.658507549 203.106526,0.850488057 C203.108628,0.994473438 203.074558,1.12698349 203.004317,1.24802218 L194.91514,16.8477488 L195.027058,24.514932 C195.030911,24.7789052 194.944074,24.9961936 194.766544,25.1668037 C194.589015,25.3374138 194.368266,25.4246442 194.104293,25.4284974 L189.172819,25.500482 C188.932843,25.5039849 188.721554,25.4170604 188.538945,25.2397059 Z M221.734695,26.9978522 C221.499306,26.752738 221.369455,26.4609149 221.345139,26.122374 L219.118573,2.86894621 C219.097998,2.81938088 219.091078,2.74671728 219.097811,2.65095321 C219.111277,2.45942507 219.201288,2.2913259 219.367846,2.14665066 C219.534404,2.00197541 219.713444,1.93637192 219.904972,1.94983822 L224.609359,2.2806025 C225.303648,2.32941783 225.667341,2.63166759 225.700449,3.18736085 L226.936622,16.9158697 L229.967462,9.22550426 C230.204439,8.59256309 230.622184,8.29713803 231.220709,8.33922021 L233.91406,8.52858907 C234.512585,8.57067125 234.884882,8.92164396 235.030962,9.58151772 L236.958412,17.5844106 L240.13681,4.20237795 C240.204891,3.91845232 240.327353,3.71654624 240.504198,3.59665366 C240.681043,3.47676107 240.94902,3.42944014 241.308135,3.45468945 L246.012521,3.78545373 C246.22799,3.80060332 246.402075,3.89103492 246.534779,4.05675126 C246.667484,4.22246759 246.727102,4.40108715 246.713636,4.59261528 L246.698487,4.80808336 L241.240025,27.5211787 C241.168577,27.8529864 240.993184,28.1233479 240.713842,28.3322714 C240.434499,28.5411949 240.103305,28.632189 239.720249,28.6052564 L236.093203,28.3502397 C235.710147,28.3233071 235.417621,28.2065037 235.215618,27.9998259 C235.013616,27.7931482 234.885121,27.5675827 234.830131,27.3231227 L231.97431,17.1257129 L227.719684,26.8231889 C227.607087,27.0558659 227.436324,27.2603906 227.207388,27.4367692 C226.978453,27.6131477 226.672462,27.6878696 226.289405,27.660937 L222.698271,27.4084452 C222.291273,27.3798293 221.970085,27.2429663 221.734695,26.9978522 Z M253.829371,28.181586 C252.03908,26.3348906 251.247008,23.8057576 251.453132,20.5941112 C251.497271,19.9231296 251.589785,18.8952251 251.730677,17.5103666 C251.871568,16.1255081 251.989174,15.0880944 252.083496,14.3980944 C252.499653,11.2560642 253.791415,8.93290341 255.958818,7.42854237 C258.126222,5.92418133 260.881264,5.342051 264.224026,5.68213392 C267.54291,6.01978768 270.112331,7.14361339 271.932365,9.05364477 C273.752398,10.9636761 274.549832,13.4993855 274.32469,16.6608491 C274.231552,18.0505658 274.149761,19.0916232 274.079316,19.7840525 C274.006441,20.5003586 273.878112,21.5246195 273.694325,22.8568659 C273.249432,26.0442206 271.970217,28.3626268 269.85664,29.812154 C267.743063,31.2616812 264.991057,31.8139659 261.600542,31.4690247 C258.210026,31.1240834 255.619662,30.0282815 253.829371,28.181586 Z M265.234534,25.2710086 C266.051235,24.5941913 266.562403,23.4822302 266.768053,21.935092 C266.956698,20.5550919 267.081383,19.5666457 267.142112,18.969724 C267.202841,18.3728022 267.277345,17.4033744 267.365624,16.0614113 C267.475766,14.5045564 267.199009,13.3124341 266.535344,12.4850087 C265.87168,11.6575832 264.919064,11.1807193 263.677466,11.0544028 C262.411992,10.9256571 261.37092,11.1996889 260.554218,11.8765062 C259.737517,12.5533235 259.226349,13.6652846 259.0207,15.2124229 C258.928806,15.8785461 258.818488,16.8443302 258.689743,18.1098043 C258.558568,19.3991553 258.469697,20.3912451 258.423128,21.0861035 C258.312986,22.6429584 258.589743,23.8350807 259.253408,24.6625062 C259.917072,25.4899317 260.881627,25.9680101 262.147101,26.0967557 C263.388698,26.2230723 264.417832,25.947826 265.234534,25.2710086 Z M280.108362,33.0281502 C279.950917,32.8281211 279.88639,32.6089517 279.914779,32.3706355 L282.67846,9.17066643 C282.709688,8.90851858 282.819357,8.69801547 283.00747,8.53915078 C283.195584,8.38028609 283.420711,8.31646879 283.682859,8.34769698 L293.513354,9.51874821 C296.659128,9.89348648 299.03454,10.9015392 300.63966,12.5429366 C302.244781,14.184334 302.89261,16.3038243 302.583167,18.9014712 C302.384442,20.5696849 301.82827,21.9415133 300.914635,23.0169977 C300.001,24.0924821 298.826673,24.8710302 297.39162,25.3526652 L301.178458,34.6498753 C301.232919,34.8013819 301.253052,34.9367121 301.238857,35.0558703 C301.216146,35.2465232 301.12407,35.4107833 300.962627,35.5486553 C300.801185,35.6865273 300.613224,35.7426872 300.398739,35.7171369 L295.358376,35.116707 C294.667259,35.0343781 294.217043,34.6544589 294.007714,33.976938 L290.999582,25.751363 L287.567846,25.3425597 L286.635263,33.1712087 C286.604035,33.4333565 286.489118,33.6371921 286.290508,33.7827215 C286.091898,33.9282509 285.861523,33.9854007 285.599375,33.9541725 L280.702001,33.3707761 C280.463685,33.3423868 280.265807,33.2281793 280.108362,33.0281502 Z M292.161771,20.5603919 C293.186531,20.6824657 293.997523,20.5192531 294.594771,20.070749 C295.19202,19.622245 295.544578,18.9452022 295.652458,18.0396006 C295.760337,17.1339989 295.578821,16.3752079 295.107905,15.7632047 C294.636988,15.1512015 293.889162,14.7841685 292.864402,14.6620947 L288.896457,14.1894158 L288.193826,20.087713 L292.161771,20.5603919 Z M307.897267,36.5561836 C307.742339,36.3541988 307.680561,36.1342387 307.711932,35.8962966 L310.770586,12.6970587 C310.805094,12.4353224 310.922554,12.2329416 311.12297,12.0899104 C311.323387,11.9468791 311.542562,11.8910498 311.780504,11.9224208 L316.777263,12.5812076 C317.039,12.6157157 317.242165,12.7272276 317.386765,12.9157467 C317.531364,13.1042659 317.586409,13.3293902 317.551901,13.5911265 L315.11439,32.0791346 L325.821731,33.4908207 C326.083467,33.5253288 326.291796,33.6435734 326.446724,33.8455582 C326.601653,34.047543 326.661862,34.2794001 326.627354,34.5411364 L326.128558,38.3243967 C326.09405,38.586133 325.97659,38.7885137 325.776173,38.931545 C325.575757,39.0745762 325.344684,39.128837 325.082948,39.0943289 L308.48657,36.9062155 C308.248628,36.8748445 308.052196,36.7581684 307.897267,36.5561836 Z M332.280954,39.9136131 C332.127906,39.7102 332.068171,39.4896763 332.101747,39.2520354 L335.370411,16.1178111 C335.407345,15.8564061 335.521576,15.6483432 335.713107,15.4936161 C335.904638,15.3388891 336.131103,15.2799936 336.392508,15.3169278 L345.767394,16.6415172 C349.284479,17.1384505 351.898952,18.3622469 353.610892,20.3129431 C355.322833,22.2636392 356.004716,24.8140942 355.656561,27.9643845 C355.582953,28.6569007 355.465567,29.5734832 355.3044,30.7141594 C355.143232,31.8548357 355.003761,32.7561787 354.885983,33.4182155 C353.728343,39.8959991 349.573091,42.6295224 342.4201,41.6188675 L332.866985,40.2690958 C332.629344,40.2355192 332.434002,40.1170262 332.280954,39.9136131 Z M342.99734,36.246792 C344.494477,36.4583244 345.649855,36.2579972 346.463507,35.6458043 C347.27716,35.0336114 347.818545,33.946674 348.087678,32.3849594 C348.232578,31.7025162 348.382252,30.8147339 348.536705,29.7215858 C348.691157,28.6284377 348.791625,27.745822 348.838111,27.0737123 C349.005473,25.5460953 348.754195,24.3653402 348.084271,23.5314117 C347.414347,22.6974831 346.330832,22.1747604 344.833695,21.963228 L341.447329,21.4847642 L339.432744,35.7431459 L342.99734,36.246792 Z" id="ENTER-MY-WORLD" fill="#394037"></path>
            </g>
        </g>
    </g>
</svg>