<?xml version="1.0" encoding="UTF-8"?>
<svg width="160px" height="166px" viewBox="0 0 160 166" version="1.1" xmlns="http://www.w3.org/2000/svg" xmlns:xlink="http://www.w3.org/1999/xlink">
    <!-- Generator: Sketch 43 (38999) - http://www.bohemiancoding.com/sketch -->
    <title>fish</title>
    <desc>Created with Sketch.</desc>
    <defs></defs>
    <g id="Page-1" stroke="none" stroke-width="1" fill="none" fill-rule="evenodd">
        <g id="Artboard-2-Copy-6" transform="translate(-1192.000000, -335.000000)" fill="#000000">
            <g id="fish" transform="translate(1192.000000, 335.000000)">
                <path d="M50.8451234,82.9753182 C51.8940174,88.3844273 51.0518446,98.0506575 51.285359,97.8056576 C53.444397,95.5432293 57.207499,85.4909782 57.207499,78.2820982 C70.907899,74.8215222 76.401779,65.0099582 78.273579,64.0181982 C80.647041,62.7548802 86.775863,55.2823802 87.284973,52.7217382 C88.621007,51.9216564 86.163363,51.7876708 85.635045,51.6421702 C85.7996556,51.251699 87.614155,47.3508482 87.595045,47.1785642 C87.5299632,46.5507468 86.358579,45.4941402 85.987257,45.5057042 C85.2675744,44.4491662 78.396079,35.8320262 78.032401,35.5253842 C73.323795,31.5670662 71.084397,28.1332442 60.721681,24.6807042 C60.4651954,24.596483 57.456321,23.0116662 56.376753,22.6249582 C53.203219,12.8092782 40.849633,0.884638232 37.917473,0.00851823201 C36.868579,-0.305375768 43.797473,8.09351823 42.683507,18.9734782 C41.9063964,18.5753532 41.917882,20.2175882 38.763507,21.2971562 C37.205503,21.8292668 35.191897,23.9309062 33.457689,24.2448002 C31.895765,24.528079 21.238069,32.9308342 21.334109,34.3623202 C21.3800514,35.070527 14.726753,40.6059982 15.067499,42.3324642 C15.5766384,44.9278962 11.756177,47.1405402 17.900287,46.6735702 C17.7701332,47.0334164 19.056393,50.7849642 14.382283,49.0432102 C13.8884512,48.8594602 13.295071,48.3924314 12.797427,48.3311814 C12.3035952,46.9913254 10.623003,45.5749314 9.79999902,44.3154354 C8.17300302,41.8232954 3.051034,31.3461154 0,30.9472554 C0,30.9472554 1.370432,34.1705734 1.125432,34.7830734 C0.7923888,35.6290878 2.0250426,38.5231454 2.205,39.1968954 C2.4959424,40.2917514 4.704784,48.3155014 4.448318,48.7251414 C7.09353302,55.2023534 3.5487074,61.7219014 3.7209718,63.3604614 C3.77073718,63.8466296 0.9111158,71.6675294 1.0795778,71.6101014 C5.97957682,69.9831054 12.2770568,58.7975814 13.2266768,56.4357814 L13.219023,56.4357814 C13.219023,56.4319496 13.222845,56.4281276 13.222845,56.4281276 C13.3798018,56.3706996 19.321091,52.5502676 18.390777,56.0032094 C18.3639838,56.10657 18.35633,56.2214162 18.3678156,56.3439162 C17.5715656,56.8913344 15.5541376,57.0061806 15.3398116,57.9862002 C14.4899654,61.8411282 20.3852436,65.2711282 20.5613496,67.1162722 C20.6991572,68.5364882 27.4596676,77.1191322 28.7764936,78.6155922 C32.9338496,83.3433082 36.7313496,77.3829482 40.7471936,78.1562172 C40.7471936,78.1562172 44.3456556,78.8759096 47.1707996,78.960121 C44.5677236,81.180409 44.2652956,83.082981 43.1091896,86.206731 C42.3665358,88.2088671 41.8152956,94.1347311 40.1615456,95.8191551 C39.8591274,96.1254051 39.4495168,97.6834095 39.4686562,97.6719434 C42.2632242,96.3015111 47.7297622,89.7170871 50.8454762,82.975867 L50.8451234,82.9753182 Z" id="Page-1" opacity="0.28345788" transform="translate(43.838889, 48.905113) scale(-1, 1) translate(-43.838889, -48.905113) "></path>
                <path d="M122.845123,150.975318 C123.894017,156.384427 123.051845,166.050658 123.285359,165.805658 C125.444397,163.543229 129.207499,153.490978 129.207499,146.282098 C142.907899,142.821522 148.401779,133.009958 150.273579,132.018198 C152.647041,130.75488 158.775863,123.28238 159.284973,120.721738 C160.621007,119.921656 158.163363,119.787671 157.635045,119.64217 C157.799656,119.251699 159.614155,115.350848 159.595045,115.178564 C159.529963,114.550747 158.358579,113.49414 157.987257,113.505704 C157.267574,112.449166 150.396079,103.832026 150.032401,103.525384 C145.323795,99.5670662 143.084397,96.1332442 132.721681,92.6807042 C132.465195,92.596483 129.456321,91.0116662 128.376753,90.6249582 C125.203219,80.8092782 112.849633,68.8846382 109.917473,68.0085182 C108.868579,67.6946242 115.797473,76.0935182 114.683507,86.9734782 C113.906396,86.5753532 113.917882,88.2175882 110.763507,89.2971562 C109.205503,89.8292668 107.191897,91.9309062 105.457689,92.2448002 C103.895765,92.528079 93.238069,100.930834 93.334109,102.36232 C93.3800514,103.070527 86.726753,108.605998 87.067499,110.332464 C87.5766384,112.927896 83.756177,115.14054 89.900287,114.67357 C89.7701332,115.033416 91.056393,118.784964 86.382283,117.04321 C85.8884512,116.85946 85.295071,116.392431 84.797427,116.331181 C84.3035952,114.991325 82.623003,113.574931 81.799999,112.315435 C80.173003,109.823295 75.051034,99.3461154 72,98.9472554 C72,98.9472554 73.370432,102.170573 73.125432,102.783073 C72.7923888,103.629088 74.0250426,106.523145 74.205,107.196895 C74.4959424,108.291751 76.704784,116.315501 76.448318,116.725141 C79.093533,123.202353 75.5487074,129.721901 75.7209718,131.360461 C75.7707372,131.84663 72.9111158,139.667529 73.0795778,139.610101 C77.9795768,137.983105 84.2770568,126.797581 85.2266768,124.435781 L85.219023,124.435781 C85.219023,124.43195 85.222845,124.428128 85.222845,124.428128 C85.3798018,124.3707 91.321091,120.550268 90.390777,124.003209 C90.3639838,124.10657 90.35633,124.221416 90.3678156,124.343916 C89.5715656,124.891334 87.5541376,125.006181 87.3398116,125.9862 C86.4899654,129.841128 92.3852436,133.271128 92.5613496,135.116272 C92.6991572,136.536488 99.4596676,145.119132 100.776494,146.615592 C104.93385,151.343308 108.73135,145.382948 112.747194,146.156217 C112.747194,146.156217 116.345656,146.87591 119.1708,146.960121 C116.567724,149.180409 116.265296,151.082981 115.10919,154.206731 C114.366536,156.208867 113.815296,162.134731 112.161546,163.819155 C111.859127,164.125405 111.449517,165.68341 111.468656,165.671943 C114.263224,164.301511 119.729762,157.717087 122.845476,150.975867 L122.845123,150.975318 Z" id="Page-1-Copy-2" opacity="0.246886322" transform="translate(115.838889, 116.905113) scale(-1, 1) translate(-115.838889, -116.905113) "></path>
            </g>
        </g>
    </g>
</svg>