<?xml version="1.0" encoding="UTF-8"?>
<!-- Generator: Bez 1.0.2u (15139) - http://www.juicybitssoftware.com/bez -->
<svg width="1876.0" height="1010.0" version="1.1" xmlns="http://www.w3.org/2000/svg" xmlns:xlink="http://www.w3.org/1999/xlink">
  <title>Design 6</title>
  <desc>Created with Bez</desc>
  <g id="Layer1">
    <g id="Untitled">
      <path id="Untitled-1" fill="#fff" stroke="#333" stroke-width="7.0" stroke-opacity="0.0" stroke-linecap="round" stroke-linejoin="round" d="M196.7,864.7 C187.1,866.5 175.0,871.2 179.4,882.3 C186.2,899.4 207.1,887.9 207.1,887.9 L196.7,864.7 M245.0,880.1 C256.7,875.3 273.8,863.1 268.6,846.4 C267.3,842.3 261.1,827.7 237.6,836.4 C220.5,842.7 207.2,860.6 207.2,860.6 L217.8,884.1 C217.8,884.1 237.2,883.3 245.0,880.1"/>
      <path id="Untitled-2" fill="#fff" stroke="#333" stroke-width="7.0" stroke-opacity="0.0" stroke-linecap="round" stroke-linejoin="round" d="M226.5,810.8 C220.5,818.5 211.0,827.1 202.8,818.3 C190.3,804.7 210.1,791.3 210.1,791.3 L226.5,810.8 M233.9,761.3 C243.5,753.2 262.2,743.4 275.0,755.4 C278.1,758.4 288.7,770.4 270.4,787.2 C257.0,799.5 234.8,803.3 234.8,803.3 L218.2,783.6 C218.2,783.6 227.5,766.7 233.9,761.3"/>
    </g>
    <g id="Untitled-3">
      <path id="Untitled-4" fill="#fff" stroke="#333" stroke-width="7.0" stroke-opacity="0.0" stroke-linecap="round" stroke-linejoin="round" d="M1200.5,98.9 C1203.1,89.4 1204.2,76.5 1192.3,75.6 C1174.0,74.2 1175.2,98.1 1175.2,98.1 L1200.5,98.9 M1165.6,135.6 C1164.8,148.2 1168.2,168.9 1185.5,171.5 C1189.8,172.1 1205.6,173.0 1208.1,148.0 C1209.9,129.9 1199.6,110.1 1199.6,110.1 L1173.9,109.3 C1173.9,109.3 1166.0,127.2 1165.6,135.6"/>
      <path id="Untitled-5" fill="#fff" stroke="#333" stroke-width="7.0" stroke-opacity="0.0" stroke-linecap="round" stroke-linejoin="round" d="M1236.0,149.2 C1231.6,140.5 1228.1,128.1 1239.6,124.7 C1257.3,119.3 1260.7,143.0 1260.7,143.0 L1236.0,149.2 M1277.2,177.6 C1280.4,189.7 1281.0,210.8 1264.5,217.1 C1260.5,218.6 1245.1,222.8 1238.0,199.0 C1232.8,181.6 1239.1,160.0 1239.1,160.0 L1264.1,153.7 C1264.1,153.7 1275.2,169.4 1277.2,177.6"/>
    </g>
    <g id="Untitled-6">
      <path id="Untitled-7" fill="#fff" stroke="#333" stroke-width="7.0" stroke-opacity="0.0" stroke-linecap="round" stroke-linejoin="round" d="M512.7,449.8 C517.4,458.5 525.5,468.5 534.7,461.0 C548.9,449.3 531.5,432.9 531.5,432.9 L512.7,449.8 M512.6,399.2 C504.4,389.6 487.6,377.0 473.3,387.1 C469.8,389.5 457.8,399.9 473.2,419.6 C484.5,433.9 505.6,441.1 505.6,441.1 L524.7,423.9 C524.7,423.9 518.0,405.6 512.6,399.2"/>
      <path id="Untitled-8" fill="#fff" stroke="#333" stroke-width="7.0" stroke-opacity="0.0" stroke-linecap="round" stroke-linejoin="round" d="M452.2,438.0 C461.4,441.3 472.5,447.8 466.6,458.3 C457.6,474.3 438.7,459.6 438.7,459.6 L452.2,438.0 M402.8,446.1 C392.2,439.5 377.2,424.7 384.7,408.8 C386.6,404.9 394.7,391.2 416.4,403.5 C432.2,412.4 442.6,432.4 442.6,432.4 L428.9,454.2 C428.9,454.2 410.0,450.5 402.8,446.1"/>
    </g>
    <g id="Untitled-9">
      <path id="Untitled-10" fill="#fff" stroke="#333" stroke-width="7.0" stroke-opacity="0.0" stroke-linecap="round" stroke-linejoin="round" d="M824.1,691.9 C822.1,701.5 821.8,714.4 833.8,714.6 C852.1,714.9 849.5,691.1 849.5,691.1 L824.1,691.9 M856.8,653.2 C856.8,640.6 852.1,620.1 834.7,618.5 C830.4,618.2 814.6,618.3 813.6,643.3 C812.9,661.5 824.4,680.6 824.4,680.6 L850.1,679.9 C850.1,679.9 856.8,661.6 856.8,653.2"/>
      <path id="Untitled-11" fill="#fff" stroke="#333" stroke-width="7.0" stroke-opacity="0.0" stroke-linecap="round" stroke-linejoin="round" d="M785.7,643.8 C790.6,652.2 794.8,664.4 783.5,668.5 C766.2,674.9 761.4,651.5 761.4,651.5 L785.7,643.8 M742.8,618.0 C739.0,606.0 737.1,585.0 753.1,577.8 C757.0,576.0 772.1,570.9 780.7,594.2 C786.9,611.3 782.0,633.2 782.0,633.2 L757.4,641.0 C757.4,641.0 745.4,626.0 742.8,618.0"/>
    </g>
    <g id="Untitled-12">
      <path id="Untitled-13" fill="#fff" stroke="#333" stroke-width="7.0" stroke-opacity="0.0" stroke-linecap="round" stroke-linejoin="round" d="M1204.7,909.2 C1203.2,918.9 1203.5,931.8 1215.4,931.5 C1233.8,930.9 1230.0,907.3 1230.0,907.3 L1204.7,909.2 M1235.5,869.0 C1234.9,856.4 1229.3,836.1 1211.8,835.4 C1207.5,835.3 1191.7,836.1 1191.9,861.2 C1192.1,879.4 1204.5,898.0 1204.5,898.0 L1230.1,896.0 C1230.1,896.0 1236.0,877.4 1235.5,869.0"/>
      <path id="Untitled-14" fill="#fff" stroke="#333" stroke-width="7.0" stroke-opacity="0.0" stroke-linecap="round" stroke-linejoin="round" d="M1164.0,863.0 C1169.3,871.2 1174.1,883.1 1163.1,887.8 C1146.1,895.0 1140.2,871.9 1140.2,871.9 L1164.0,863.0 M1120.0,839.2 C1115.6,827.5 1112.7,806.6 1128.4,798.6 C1132.2,796.7 1147.0,790.8 1156.7,813.7 C1163.7,830.4 1159.8,852.6 1159.8,852.6 L1135.7,861.6 C1135.7,861.6 1122.9,847.1 1120.0,839.2"/>
    </g>
    <g id="Untitled-15">
      <path id="Untitled-16" fill="#fff" stroke="#333" stroke-width="7.0" stroke-opacity="0.0" stroke-linecap="round" stroke-linejoin="round" d="M145.6,191.7 C135.9,193.6 123.8,198.2 128.2,209.3 C135.0,226.4 155.9,214.9 155.9,214.9 L145.6,191.7 M193.8,207.1 C205.5,202.3 222.6,190.2 217.4,173.5 C216.1,169.4 209.9,154.7 186.4,163.4 C169.3,169.8 156.0,187.7 156.0,187.7 L166.6,211.1 C166.6,211.1 186.0,210.4 193.8,207.1"/>
      <path id="Untitled-17" fill="#fff" stroke="#333" stroke-width="7.0" stroke-opacity="0.0" stroke-linecap="round" stroke-linejoin="round" d="M175.3,137.8 C169.3,145.6 159.8,154.1 151.6,145.3 C139.1,131.8 158.9,118.3 158.9,118.3 L175.3,137.8 M182.7,88.3 C192.3,80.2 211.0,70.4 223.8,82.5 C227.0,85.4 237.5,97.4 219.2,114.3 C205.8,126.5 183.6,130.3 183.6,130.3 L167.0,110.6 C167.0,110.6 176.3,93.8 182.7,88.3"/>
    </g>
    <g id="Untitled-18">
      <path id="Untitled-19" fill="#fff" stroke="#333" stroke-width="7.0" stroke-opacity="0.0" stroke-linecap="round" stroke-linejoin="round" d="M1089.2,449.9 C1093.9,458.5 1102.0,468.6 1111.2,461.0 C1125.4,449.4 1108.0,432.9 1108.0,432.9 L1089.2,449.9 M1089.1,399.2 C1080.9,389.6 1064.1,377.0 1049.8,387.1 C1046.3,389.6 1034.3,399.9 1049.7,419.6 C1061.0,433.9 1082.1,441.1 1082.1,441.1 L1101.2,424.0 C1101.2,423.9 1094.5,405.6 1089.1,399.2"/>
      <path id="Untitled-20" fill="#fff" stroke="#333" stroke-width="7.0" stroke-opacity="0.0" stroke-linecap="round" stroke-linejoin="round" d="M1028.7,438.0 C1037.9,441.3 1049.0,447.8 1043.1,458.3 C1034.0,474.3 1015.2,459.6 1015.2,459.6 L1028.7,438.0 M979.3,446.1 C968.7,439.4 953.7,424.7 961.2,408.8 C963.1,404.8 971.3,391.2 992.9,403.5 C1008.7,412.4 1019.1,432.4 1019.1,432.4 L1005.4,454.2 C1005.4,454.2 986.5,450.5 979.3,446.1"/>
    </g>
    <g id="Untitled-21">
      <path id="Untitled-22" fill="#fff" stroke="#333" stroke-width="7.0" stroke-opacity="0.0" stroke-linecap="round" stroke-linejoin="round" d="M747.1,984.7 C752.7,992.8 761.7,1002.0 770.2,993.6 C783.2,980.6 764.3,965.9 764.3,965.9 L747.1,984.7 M742.1,934.2 C733.0,925.5 715.0,914.6 701.8,926.0 C698.5,928.9 687.6,940.4 704.9,958.4 C717.5,971.6 739.3,976.6 739.3,976.6 L756.6,957.7 C756.6,957.7 748.1,940.1 742.1,934.2"/>
      <path id="Untitled-23" fill="#fff" stroke="#333" stroke-width="7.0" stroke-opacity="0.0" stroke-linecap="round" stroke-linejoin="round" d="M685.8,978.8 C695.3,981.2 707.0,986.6 702.1,997.6 C694.7,1014.5 674.5,1001.7 674.5,1001.7 L685.8,978.8 M637.5,991.7 C626.2,986.2 609.8,973.0 615.8,956.4 C617.2,952.3 624.0,937.9 646.8,948.0 C663.4,955.3 675.7,974.2 675.7,974.2 L664.2,997.3 C664.2,997.3 645.0,995.4 637.5,991.7"/>
    </g>
    <g id="Untitled-24">
      <path id="Untitled-25" fill="#fff" stroke="#333" stroke-width="7.0" stroke-opacity="0.0" stroke-linecap="round" stroke-linejoin="round" d="M638.8,216.3 C631.8,209.3 621.2,202.0 614.5,211.9 C604.2,227.1 625.6,237.9 625.6,237.9 L638.8,216.3 M653.3,264.8 C663.9,271.7 683.6,279.0 694.4,265.3 C697.1,261.9 705.6,248.6 685.2,234.1 C670.4,223.6 648.1,222.7 648.1,222.7 L634.7,244.6 C634.7,244.6 646.2,260.2 653.3,264.8"/>
      <path id="Untitled-26" fill="#fff" stroke="#333" stroke-width="7.0" stroke-opacity="0.0" stroke-linecap="round" stroke-linejoin="round" d="M700.1,210.5 C690.4,209.9 677.9,206.8 680.6,195.1 C684.7,177.1 706.9,185.9 706.9,185.9 L700.1,210.5 M745.2,188.7 C757.3,192.0 775.9,201.9 773.2,219.3 C772.5,223.6 768.6,239.0 744.3,233.4 C726.6,229.3 711.0,213.1 711.0,213.1 L717.9,188.3 C717.9,188.3 737.1,186.5 745.2,188.7"/>
    </g>
    <g id="Untitled-27">
      <path id="Untitled-28" fill="#fff" stroke="#333" stroke-width="7.0" stroke-opacity="0.0" stroke-linecap="round" stroke-linejoin="round" d="M30.6,472.1 C28.3,462.5 23.1,450.7 12.2,455.6 C-4.5,463.1 8.0,483.5 8.0,483.5 L30.6,472.1 M17.5,521.0 C22.9,532.4 35.8,549.0 52.2,542.9 C56.3,541.5 70.6,534.6 60.8,511.5 C53.7,494.8 35.2,482.4 35.2,482.4 L12.3,494.0 C12.2,494.0 13.9,513.4 17.5,521.0"/>
      <path id="Untitled-29" fill="#fff" stroke="#333" stroke-width="7.0" stroke-opacity="0.0" stroke-linecap="round" stroke-linejoin="round" d="M85.9,499.2 C77.9,493.6 68.9,484.5 77.3,475.9 C90.2,462.8 104.5,481.9 104.5,481.9 L85.9,499.2 M135.7,504.3 C144.2,513.5 154.9,531.7 143.4,545.1 C140.6,548.4 129.2,559.4 111.5,541.9 C98.6,529.2 93.7,507.2 93.7,507.2 L112.6,489.7 C112.6,489.7 129.9,498.2 135.7,504.3"/>
    </g>
    <g id="Untitled-30">
      <path id="Untitled-31" fill="#fff" stroke="#333" stroke-width="7.0" stroke-opacity="0.0" stroke-linecap="round" stroke-linejoin="round" d="M900.4,120.8 C890.7,122.6 878.7,127.3 883.1,138.4 C889.8,155.5 910.8,144.0 910.8,144.0 L900.4,120.8 M948.7,136.2 C960.3,131.4 977.5,119.2 972.2,102.6 C970.9,98.4 964.7,83.8 941.3,92.5 C924.2,98.9 910.9,116.8 910.9,116.8 L921.4,140.2 C921.4,140.2 940.9,139.5 948.7,136.2"/>
      <path id="Untitled-32" fill="#fff" stroke="#333" stroke-width="7.0" stroke-opacity="0.0" stroke-linecap="round" stroke-linejoin="round" d="M930.1,66.9 C924.2,74.6 914.6,83.2 906.4,74.4 C893.9,60.8 913.7,47.4 913.7,47.4 L930.1,66.9 M937.6,17.4 C947.1,9.3 965.8,-0.5 978.6,11.6 C981.8,14.5 992.3,26.5 974.0,43.3 C960.7,55.6 938.5,59.4 938.5,59.4 L921.8,39.7 C921.8,39.7 931.2,22.8 937.6,17.4"/>
    </g>
    <g id="Untitled-33">
      <path id="Untitled-34" fill="#fff" stroke="#333" stroke-width="7.0" stroke-opacity="0.0" stroke-linecap="round" stroke-linejoin="round" d="M1223.3,656.9 C1214.7,652.1 1202.5,647.9 1198.7,659.2 C1192.9,676.6 1216.3,681.3 1216.3,681.3 L1223.3,656.9 M1250.2,699.9 C1262.2,703.7 1283.2,705.5 1289.9,689.4 C1291.6,685.4 1296.3,670.2 1272.8,661.7 C1255.7,655.6 1233.9,660.6 1233.9,660.6 L1226.8,685.3 C1226.8,685.3 1242.2,697.3 1250.2,699.9"/>
      <path id="Untitled-35" fill="#fff" stroke="#333" stroke-width="7.0" stroke-opacity="0.0" stroke-linecap="round" stroke-linejoin="round" d="M1280.8,635.0 C1271.3,637.0 1258.4,637.4 1257.9,625.4 C1257.1,607.0 1280.9,609.5 1280.9,609.5 L1280.8,635.0 M1318.5,602.0 C1331.0,602.0 1351.6,606.6 1353.6,624.0 C1354.1,628.3 1354.4,644.3 1329.5,645.3 C1311.4,646.1 1292.0,634.6 1292.0,634.6 L1292.1,608.9 C1292.1,608.9 1310.1,602.0 1318.5,602.0"/>
    </g>
    <g id="Untitled-36">
      <path id="Untitled-37" fill="#fff" stroke="#333" stroke-width="7.0" stroke-opacity="0.0" stroke-linecap="round" stroke-linejoin="round" d="M1790.1,962.1 C1793.0,971.5 1798.9,983.0 1809.5,977.4 C1825.7,968.8 1811.9,949.2 1811.9,949.2 L1790.1,962.1 M1800.0,912.4 C1793.9,901.4 1779.9,885.7 1764.0,892.8 C1760.0,894.5 1746.2,902.3 1757.4,924.6 C1765.6,940.9 1784.9,952.1 1784.9,952.1 L1807.0,939.1 C1807.0,939.1 1804.1,919.8 1800.0,912.4"/>
      <path id="Untitled-38" fill="#fff" stroke="#333" stroke-width="7.0" stroke-opacity="0.0" stroke-linecap="round" stroke-linejoin="round" d="M1733.2,938.5 C1741.6,943.6 1751.1,952.2 1743.3,961.2 C1731.2,975.2 1715.7,957.0 1715.7,957.0 L1733.2,938.5 M1683.2,936.6 C1674.0,928.0 1662.3,910.6 1672.8,896.5 C1675.4,893.0 1686.1,881.2 1704.9,897.6 C1718.6,909.5 1724.8,931.1 1724.8,931.1 L1707.1,949.8 C1707.1,949.8 1689.3,942.4 1683.2,936.6"/>
    </g>
    <g id="Untitled-39">
      <path id="Untitled-40" fill="#fff" stroke="#333" stroke-width="7.0" stroke-opacity="0.0" stroke-linecap="round" stroke-linejoin="round" d="M436.8,27.4 C439.7,17.9 441.1,5.1 429.2,3.9 C410.9,2.0 411.5,25.9 411.5,25.9 L436.8,27.4 M400.9,63.1 C399.9,75.7 402.8,96.5 420.0,99.5 C424.2,100.3 440.1,101.5 443.2,76.7 C445.4,58.6 435.6,38.5 435.6,38.5 L410.0,37.1 C410.0,37.1 401.7,54.7 400.9,63.1"/>
      <path id="Untitled-41" fill="#fff" stroke="#333" stroke-width="7.0" stroke-opacity="0.0" stroke-linecap="round" stroke-linejoin="round" d="M471.0,78.6 C466.9,69.7 463.7,57.3 475.3,54.1 C493.0,49.2 495.9,72.9 495.9,72.9 L471.0,78.6 M511.5,108.0 C514.3,120.2 514.5,141.2 497.9,147.1 C493.8,148.5 478.3,152.4 471.8,128.4 C467.0,110.9 473.8,89.4 473.8,89.4 L499.0,83.7 C499.0,83.7 509.7,99.8 511.5,108.0"/>
    </g>
    <g id="Untitled-42">
      <path id="Untitled-43" fill="#fff" stroke="#333" stroke-width="7.0" stroke-opacity="0.0" stroke-linecap="round" stroke-linejoin="round" d="M1585.2,557.7 C1579.2,565.4 1573.1,576.8 1583.7,582.3 C1600.0,590.8 1608.3,568.3 1608.3,568.3 L1585.2,557.7 M1631.8,537.6 C1637.4,526.3 1642.3,505.9 1627.4,496.7 C1623.8,494.5 1609.5,487.5 1597.5,509.5 C1588.8,525.5 1590.5,547.7 1590.5,547.7 L1613.8,558.5 C1613.8,558.5 1628.0,545.1 1631.8,537.6"/>
      <path id="Untitled-44" fill="#fff" stroke="#333" stroke-width="7.0" stroke-opacity="0.0" stroke-linecap="round" stroke-linejoin="round" d="M1572.3,497.5 C1572.9,507.2 1571.3,520.0 1559.3,518.7 C1541.0,516.7 1547.1,493.6 1547.1,493.6 L1572.3,497.5 M1545.4,455.3 C1547.3,442.9 1554.9,423.2 1572.5,423.9 C1576.8,424.1 1592.6,426.2 1589.9,450.9 C1587.9,468.9 1573.6,486.4 1573.6,486.4 L1548.2,482.4 C1548.2,482.4 1544.1,463.6 1545.4,455.3"/>
    </g>
    <g id="Untitled-45">
      <path id="Untitled-46" fill="#fff" stroke="#333" stroke-width="7.0" stroke-opacity="0.0" stroke-linecap="round" stroke-linejoin="round" d="M1500.8,123.4 C1491.3,126.0 1479.7,131.6 1485.0,142.4 C1493.2,158.8 1513.1,145.6 1513.1,145.6 L1500.8,123.4 M1550.2,134.7 C1561.4,128.9 1577.5,115.4 1570.9,99.2 C1569.3,95.3 1561.9,81.2 1539.2,91.8 C1522.7,99.5 1511.0,118.5 1511.0,118.5 L1523.4,141.0 C1523.4,141.0 1542.7,138.6 1550.2,134.7"/>
      <path id="Untitled-47" fill="#fff" stroke="#333" stroke-width="7.0" stroke-opacity="0.0" stroke-linecap="round" stroke-linejoin="round" d="M1526.0,67.2 C1520.7,75.4 1511.9,84.7 1503.0,76.6 C1489.4,64.2 1508.0,49.1 1508.0,49.1 L1526.0,67.2 M1529.3,17.3 C1538.2,8.4 1556.0,-2.9 1569.8,8.0 C1573.2,10.7 1584.7,21.8 1567.8,40.1 C1555.5,53.4 1533.7,59.0 1533.7,59.0 L1515.5,40.8 C1515.5,40.8 1523.4,23.2 1529.3,17.3"/>
    </g>
    <g id="Untitled-48">
      <path id="Untitled-49" fill="#fff" stroke="#333" stroke-width="7.0" stroke-opacity="0.0" stroke-linecap="round" stroke-linejoin="round" d="M1844.2,311.7 C1848.2,320.7 1855.5,331.4 1865.3,324.6 C1880.4,314.1 1864.4,296.3 1864.4,296.3 L1844.2,311.7 M1848.3,261.2 C1840.9,251.0 1825.2,237.0 1810.1,245.9 C1806.4,248.1 1793.6,257.4 1807.4,278.3 C1817.4,293.5 1837.9,302.4 1837.9,302.4 L1858.3,286.8 C1858.3,286.8 1853.2,268.0 1848.3,261.2"/>
      <path id="Untitled-50" fill="#fff" stroke="#333" stroke-width="7.0" stroke-opacity="0.0" stroke-linecap="round" stroke-linejoin="round" d="M1785.0,295.0 C1793.8,299.0 1804.4,306.4 1797.6,316.3 C1787.3,331.6 1769.7,315.4 1769.7,315.4 L1785.0,295.0 M1735.1,299.0 C1725.0,291.5 1711.2,275.5 1720.1,260.3 C1722.2,256.6 1731.5,243.6 1752.1,257.6 C1767.0,267.8 1775.8,288.6 1775.8,288.6 L1760.4,309.2 C1760.4,309.2 1741.8,304.0 1735.1,299.0"/>
    </g>
    <g id="Untitled-51">
      <path id="Untitled-52" fill="#fff" stroke="#333" stroke-width="7.0" stroke-opacity="0.0" stroke-linecap="round" stroke-linejoin="round" d="M406.4,671.0 C400.1,663.3 390.3,655.0 382.6,664.2 C370.9,678.3 391.0,691.2 391.0,691.2 L406.4,671.0 M415.9,720.7 C425.7,728.6 444.6,737.9 456.7,725.3 C459.7,722.2 469.6,709.8 450.8,693.3 C437.0,681.4 414.9,678.3 414.9,678.3 L399.4,698.7 C399.4,698.7 409.3,715.4 415.9,720.7"/>
      <path id="Untitled-53" fill="#fff" stroke="#333" stroke-width="7.0" stroke-opacity="0.0" stroke-linecap="round" stroke-linejoin="round" d="M467.9,671.3 C458.3,669.8 446.2,665.5 450.0,654.1 C455.9,636.6 477.2,647.6 477.2,647.6 L467.9,671.3 M515.0,654.2 C526.7,658.7 544.2,670.4 539.7,687.5 C538.6,691.6 533.2,706.6 509.6,698.6 C492.4,692.7 478.5,675.1 478.5,675.1 L487.8,651.0 C487.8,651.1 507.1,651.2 515.0,654.2"/>
    </g>
    <g id="Untitled-54">
      <path id="Untitled-55" fill="#fff" stroke="#333" stroke-width="7.0" stroke-opacity="0.0" stroke-linecap="round" stroke-linejoin="round" d="M1387.1,383.1 C1396.5,380.4 1408.1,374.6 1402.7,364.0 C1394.4,347.6 1374.6,361.0 1374.6,361.0 L1387.1,383.1 M1337.6,372.3 C1326.4,378.2 1310.5,391.9 1317.3,408.0 C1319.0,412.0 1326.5,426.0 1349.0,415.1 C1365.4,407.2 1377.0,388.1 1377.0,388.1 L1364.3,365.8 C1364.3,365.8 1345.0,368.3 1337.6,372.3"/>
      <path id="Untitled-56" fill="#fff" stroke="#333" stroke-width="7.0" stroke-opacity="0.0" stroke-linecap="round" stroke-linejoin="round" d="M1362.5,439.6 C1367.7,431.3 1376.4,421.9 1385.4,429.9 C1399.1,442.2 1380.7,457.4 1380.7,457.4 L1362.5,439.6 M1359.7,489.6 C1351.0,498.5 1333.3,510.0 1319.4,499.2 C1316.0,496.6 1304.4,485.6 1321.0,467.1 C1333.2,453.7 1354.9,447.8 1354.9,447.8 L1373.3,465.9 C1373.3,465.9 1365.6,483.5 1359.7,489.6"/>
    </g>
    <g id="Untitled-57">
      <path id="Untitled-58" fill="#fff" stroke="#333" stroke-width="7.0" stroke-opacity="0.0" stroke-linecap="round" stroke-linejoin="round" d="M1473.8,831.4 C1464.0,832.6 1451.7,836.4 1455.4,847.8 C1461.0,865.3 1482.7,855.2 1482.7,855.2 L1473.8,831.4 M1521.0,850.0 C1532.9,845.9 1550.8,834.9 1546.7,818.0 C1545.7,813.8 1540.5,798.8 1516.5,805.9 C1499.0,811.1 1484.6,828.0 1484.6,828.0 L1493.5,852.1 C1493.5,852.1 1513.0,852.7 1521.0,850.0"/>
      <path id="Untitled-59" fill="#fff" stroke="#333" stroke-width="7.0" stroke-opacity="0.0" stroke-linecap="round" stroke-linejoin="round" d="M1507.1,779.6 C1500.6,786.9 1490.5,794.8 1483.0,785.5 C1471.4,771.1 1492.0,759.1 1492.0,759.1 L1507.1,779.6 M1517.8,730.7 C1527.9,723.2 1547.2,714.7 1559.2,727.6 C1562.1,730.8 1571.8,743.4 1552.4,759.0 C1538.3,770.4 1515.9,772.7 1515.9,772.7 L1500.6,751.9 C1500.6,751.9 1511.1,735.7 1517.8,730.7"/>
    </g>
    <g id="Untitled-60">
      <path id="Untitled-61" fill="#fff" stroke="#333" stroke-width="7.0" stroke-opacity="0.0" stroke-linecap="round" stroke-linejoin="round" d="M689.5,448.1 C680.2,444.9 667.4,443.1 665.8,454.9 C663.3,473.1 687.2,473.4 687.2,473.4 L689.5,448.1 M724.1,485.2 C736.6,486.7 757.5,484.5 761.1,467.4 C762.0,463.2 763.7,447.4 739.0,443.5 C721.0,440.6 700.7,449.7 700.7,449.7 L698.3,475.3 C698.3,475.3 715.7,484.2 724.1,485.2"/>
      <path id="Untitled-62" fill="#fff" stroke="#333" stroke-width="7.0" stroke-opacity="0.0" stroke-linecap="round" stroke-linejoin="round" d="M741.9,415.7 C732.9,419.5 720.3,422.3 717.6,410.6 C713.3,392.7 737.1,390.7 737.1,390.7 L741.9,415.7 M772.6,376.2 C784.9,373.8 806.0,374.4 811.3,391.2 C812.6,395.3 815.9,410.9 791.6,416.7 C774.0,420.8 752.8,413.2 752.8,413.2 L748.0,387.9 C748.0,387.9 764.4,377.8 772.6,376.2"/>
    </g>
    <g id="Untitled-63">
      <path id="Untitled-64" fill="#fff" stroke="#333" stroke-width="7.0" stroke-opacity="0.0" stroke-linecap="round" stroke-linejoin="round" d="M861.3,868.3 C851.4,867.6 838.6,869.1 840.1,881.0 C842.3,899.2 865.5,893.3 865.5,893.3 L861.3,868.3 M904.1,895.4 C916.6,893.6 936.2,886.2 935.4,868.8 C935.2,864.5 932.9,848.8 908.0,851.2 C889.8,853.1 872.4,867.0 872.4,867.0 L876.7,892.4 C876.7,892.4 895.7,896.6 904.1,895.4"/>
      <path id="Untitled-65" fill="#fff" stroke="#333" stroke-width="7.0" stroke-opacity="0.0" stroke-linecap="round" stroke-linejoin="round" d="M903.7,823.6 C895.9,829.6 884.5,835.5 878.9,824.9 C870.2,808.7 892.7,800.7 892.7,800.7 L903.7,823.6 M923.4,777.6 C934.7,772.2 955.2,767.4 964.6,782.3 C966.9,786.0 974.0,800.2 952.0,811.9 C936.0,820.4 913.6,818.5 913.6,818.5 L902.5,795.3 C902.5,795.3 915.8,781.3 923.4,777.6"/>
    </g>
    <g id="Untitled-66">
      <path id="Untitled-67" fill="#fff" stroke="#333" stroke-width="7.0" stroke-opacity="0.0" stroke-linecap="round" stroke-linejoin="round" d="M204.0,339.8 C195.4,335.0 183.2,330.8 179.4,342.1 C173.6,359.5 197.0,364.2 197.0,364.2 L204.0,339.8 M230.9,382.8 C243.0,386.6 263.9,388.4 270.7,372.3 C272.3,368.3 277.0,353.1 253.5,344.6 C236.4,338.4 214.6,343.5 214.6,343.5 L207.5,368.2 C207.5,368.2 222.9,380.2 230.9,382.8"/>
      <path id="Untitled-68" fill="#fff" stroke="#333" stroke-width="7.0" stroke-opacity="0.0" stroke-linecap="round" stroke-linejoin="round" d="M261.5,317.9 C252.0,319.9 239.2,320.3 238.6,308.3 C237.8,289.9 261.6,292.4 261.6,292.4 L261.5,317.9 M299.2,284.9 C311.7,284.9 332.3,289.5 334.3,306.9 C334.8,311.2 335.1,327.2 310.2,328.2 C292.1,329.0 272.7,317.5 272.7,317.5 L272.8,291.8 C272.8,291.8 290.8,284.9 299.2,284.9"/>
    </g>
  </g>
</svg>
