<?xml version="1.0" encoding="UTF-8" standalone="no"?>
<svg width="60px" height="61px" viewBox="0 0 60 61" version="1.1" xmlns="http://www.w3.org/2000/svg" xmlns:xlink="http://www.w3.org/1999/xlink">
    <!-- Generator: Sketch 42 (36781) - http://www.bohemiancoding.com/sketch -->
    <title>Page 1</title>
    <desc>Created with Sketch.</desc>
    <defs></defs>
    <g id="Page-1" stroke="none" stroke-width="1" fill="none" fill-rule="evenodd">
        <g id="Contact" transform="translate(-805.000000, -434.000000)" fill="#394037">
            <g id="Page-1" transform="translate(805.000000, 433.000000)">
                <path d="M21.6044776,41.8944615 C21.6044776,45.4787692 19.7256716,48.3846154 17.4071642,48.3846154 C15.0877612,48.3846154 13.2089552,45.4787692 13.2089552,41.8944615 C13.2089552,38.3101538 15.0877612,35.4043077 17.4071642,35.4043077 C19.7256716,35.4043077 21.6044776,38.3101538 21.6044776,41.8944615" id="Fill-1"></path>
                <path d="M46.7910448,41.8944615 C46.7910448,45.4787692 44.9122388,48.3846154 42.5928358,48.3846154 C40.2743284,48.3846154 38.3955224,45.4787692 38.3955224,41.8944615 C38.3955224,38.3101538 40.2743284,35.4043077 42.5928358,35.4043077 C44.9122388,35.4043077 46.7910448,38.3101538 46.7910448,41.8944615" id="Fill-2"></path>
                <path d="M55.1865672,13.7692308 L48.1948242,1.92626953 C47.3700481,0.649654147 46.6205935,0.649654147 45.7949219,1.92626953 L38.3955224,13.7692308 L21.6044776,13.7692308 L14.159668,1.92626953 C13.3348918,0.649654147 12.5204959,0.649654147 11.6948242,1.92626953 L4.81343284,13.7692308 L0.616119403,13.7692308 L0.616119403,61.3649231 L59.3838806,61.3649231 L59.3838806,13.7692308 L55.1865672,13.7692308 Z M50.9892537,52.712 L9.01074627,52.712 L9.01074627,31.0769231 L50.9892537,31.0769231 L50.9892537,52.712 Z" id="Fill-3"></path>
            </g>
        </g>
    </g>
</svg>