<?xml version="1.0" encoding="UTF-8"?>
<svg width="579px" height="78px" viewBox="0 0 579 78" version="1.1" xmlns="http://www.w3.org/2000/svg" xmlns:xlink="http://www.w3.org/1999/xlink">
    <!-- Generator: Sketch 43 (38999) - http://www.bohemiancoding.com/sketch -->
    <title>Group 4</title>
    <desc>Created with Sketch.</desc>
    <defs></defs>
    <g id="Page-1" stroke="none" stroke-width="1" fill="none" fill-rule="evenodd">
        <g id="Artboard-2-Copy" transform="translate(-462.000000, -314.000000)">
            <g id="Group-4" transform="translate(462.000000, 314.000000)">
                <path d="M9.77478972,76.8216218 C9.44024756,76.5771348 9.24317237,76.2621747 9.18355823,75.8767321 L3.38015065,38.3540781 C3.3145751,37.9300912 3.39468554,37.5527514 3.62048438,37.2220475 C3.84628322,36.8913435 4.17172089,36.6932915 4.59680716,36.6278855 L31.9567686,32.418141 C32.3818549,32.352735 32.7616634,32.4422742 33.0962055,32.6867612 C33.4307477,32.9312482 33.6308035,33.2654802 33.6963791,33.6894671 L34.5816447,39.4132617 C34.6472202,39.8372487 34.5559585,40.206439 34.3078569,40.5208438 C34.0597552,40.8352486 33.7231663,41.0251512 33.29808,41.0905572 L14.9808177,43.9089455 L16.1164614,51.2515912 L33.1584713,48.6294198 C33.5835576,48.5640138 33.9633661,48.653553 34.2979082,48.89804 C34.6324504,49.142527 34.8325063,49.4767589 34.8980818,49.9007459 L35.7118108,55.1620117 C35.7773863,55.5859986 35.687615,55.9648248 35.442494,56.2985018 C35.1973731,56.6321787 34.8622745,56.8317172 34.4371882,56.8971232 L17.3951784,59.5192946 L18.5576483,67.0353886 L37.3386388,64.1456487 C37.763725,64.0802427 38.1435335,64.1697819 38.4780757,64.4142689 C38.8126179,64.6587559 39.0126737,64.9929879 39.0782493,65.4169748 L39.9635148,71.1407695 C40.0290904,71.5647564 39.9378287,71.9339467 39.6897271,72.2483515 C39.4416254,72.5627564 39.1050365,72.7526589 38.6799502,72.8180649 L10.8562606,77.099161 C10.4698186,77.158621 10.1093319,77.0661089 9.77478972,76.8216218 Z M51.8670916,70.6249257 C51.5351004,70.3770034 51.3412991,70.0600288 51.2856818,69.6739922 L45.8713607,32.0935228 C45.8101816,31.6688826 45.8941975,31.2923887 46.1234107,30.9640298 C46.352624,30.635671 46.6800963,30.4409841 47.1058375,30.3799632 L53.6660904,29.439692 C54.5562766,29.312103 55.2670662,29.5845286 55.7984804,30.2569772 L72.6113141,49.8918615 L69.5579373,28.6985614 C69.4967583,28.2739212 69.5807741,27.8974273 69.8099873,27.5690684 C70.0392006,27.2407096 70.3666729,27.0460227 70.7924142,26.9850018 L78.1654417,25.9282369 C78.5911829,25.867216 78.9603676,25.9620521 79.2730069,26.2127481 C79.5856462,26.463444 79.7725525,26.801107 79.8337316,27.2257472 L85.2397101,64.7483115 C85.3008892,65.1729517 85.2168733,65.5494456 84.9876601,65.8778044 C84.7584469,66.2061633 84.4309745,66.4008502 84.0052333,66.4618711 L77.4449804,67.4021422 C76.5547942,67.5297313 75.8440046,67.2573056 75.3125904,66.584857 L58.6829505,47.8102296 L61.6195314,68.1928571 C61.6807105,68.6174973 61.5856284,68.9857272 61.3342824,69.2975579 C61.0829365,69.6093886 60.7443979,69.7958116 60.3186567,69.8568325 L52.9456291,70.9135974 C52.5585916,70.9690709 52.1990827,70.872848 51.8670916,70.6249257 Z M107.558847,63.069391 C107.23212,62.8372536 107.04046,62.508554 106.983861,62.0832823 L103.032281,32.391735 L92.7993472,33.7465777 C92.3729729,33.8030298 91.9964278,33.7151884 91.6697008,33.483051 C91.3429739,33.2509136 91.151314,32.922214 91.0947156,32.4969423 L90.2303074,26.0019164 C90.173709,25.5766447 90.2714683,25.1997905 90.5235882,24.8713425 C90.7757082,24.5428945 91.1149503,24.3504473 91.5413246,24.2939953 L123.112251,20.1139976 C123.538626,20.0575455 123.916457,20.155052 124.245757,20.4065199 C124.575056,20.6579878 124.768002,20.9963525 124.824601,21.4216242 L125.689009,27.9166502 C125.745607,28.3419219 125.646562,28.7091109 125.391869,29.0182284 C125.137177,29.3273459 124.796648,29.5101279 124.370274,29.56658 L114.13734,30.9214227 L118.08892,60.61297 C118.145519,61.0382417 118.046473,61.4054308 117.79178,61.7145482 C117.537088,62.0236657 117.196559,62.2064477 116.770185,62.2628998 L108.688493,63.3329176 C108.262119,63.3893697 107.885574,63.3015283 107.558847,63.069391 Z M140.404726,58.9714929 C140.078282,58.7163475 139.891517,58.3951981 139.844426,58.0080348 L135.260113,20.3178802 C135.208312,19.8920006 135.30061,19.5174409 135.537009,19.1941898 C135.773407,18.8709387 136.105093,18.6834827 136.532077,18.6318163 L164.014173,15.3063929 C164.441157,15.2547264 164.817865,15.3564643 165.144309,15.6116096 C165.470753,15.866755 165.659872,16.2072623 165.711672,16.6331419 L166.410974,22.3824875 C166.462775,22.8083671 166.359596,23.1744221 166.101434,23.4806635 C165.843273,23.7869049 165.500705,23.9658561 165.073722,24.0175226 L146.674691,26.2438654 L147.571776,33.6192886 L164.689861,31.5479443 C165.116845,31.4962779 165.493553,31.5980158 165.819997,31.8531611 C166.146441,32.1083064 166.33556,32.4488138 166.38736,32.8746934 L167.030153,38.1594454 C167.081953,38.585325 166.979952,38.9610589 166.724145,39.2866585 C166.468338,39.612258 166.126948,39.8008882 165.699964,39.8525547 L148.581879,41.9238989 L149.500154,49.4735447 L168.364983,47.1908388 C168.791966,47.1391723 169.168675,47.2409102 169.495118,47.4960556 C169.821562,47.7512009 170.010681,48.0917082 170.062482,48.5175878 L170.761784,54.2669334 C170.813584,54.692813 170.710405,55.058868 170.452244,55.3651094 C170.194082,55.6713508 169.851515,55.8503021 169.424531,55.9019685 L141.476637,59.283755 C141.08847,59.3307245 140.73117,59.2266382 140.404726,58.9714929 Z M182.699279,54.2149368 C182.376598,53.9550726 182.194547,53.631242 182.153118,53.2434353 L178.120086,15.4906368 C178.074515,15.0640494 178.172276,14.6908713 178.413374,14.3710914 C178.654471,14.0513114 178.988861,13.8686975 179.416555,13.8232442 L195.454982,12.1187517 C200.587304,11.5733114 204.726014,12.3100789 207.871236,14.3290762 C211.016458,16.3480735 212.814827,19.4710721 213.266396,23.6981657 C213.556395,26.412813 213.17108,28.7873745 212.110439,30.8219216 C211.049798,32.8564687 209.467314,34.515022 207.362941,35.7976313 L216.752621,49.1545366 C216.894122,49.3748243 216.975228,49.5819167 216.995943,49.7758201 C217.029085,50.0860655 216.942478,50.3796173 216.73612,50.6564845 C216.529761,50.9333516 216.25162,51.0903774 215.901689,51.1275665 L207.67835,52.0015062 C206.550794,52.1213378 205.697813,51.6825138 205.119382,50.6850211 L197.355524,38.7437714 L191.756655,39.3387942 L193.11757,52.0781823 C193.163142,52.5047697 193.054624,52.8692858 192.792015,53.1717414 C192.529405,53.4741971 192.184259,53.648149 191.756566,53.6936023 L183.766513,54.5427495 C183.3777,54.5840707 183.021959,54.4748009 182.699279,54.2149368 Z M197.316856,30.0997029 C198.988749,29.9220216 200.217555,29.3698106 201.003312,28.4430533 C201.789069,27.516296 202.103228,26.3161026 201.945801,24.8424369 C201.788373,23.3687712 201.224611,22.2324641 200.254498,21.4334813 C199.284385,20.6344986 197.963402,20.3238525 196.291509,20.5015338 L189.817817,21.189529 L190.843164,30.7876981 L197.316856,30.0997029 Z" id="ENTER" fill="#89263C"></path>
                <path d="M242.585609,48.900503 C242.27299,48.649782 242.100846,48.3105079 242.069174,47.8826705 L239.266146,10.0192482 C239.234473,9.59141079 239.35407,9.22087436 239.624938,8.9076278 C239.895807,8.59438124 240.245709,8.42196511 240.674656,8.39037424 L247.284303,7.90359007 C248.259182,7.83179264 248.992756,8.20793026 249.485049,9.03201423 L260.876,26.2601502 L269.664943,7.54581478 C270.030544,6.65854907 270.700775,6.17902469 271.675654,6.10722725 L278.2853,5.62044309 C278.714247,5.58885222 279.085744,5.70813904 279.399803,5.97830714 C279.713862,6.24847524 279.886725,6.59747277 279.918398,7.02531019 L282.721425,44.8887325 C282.753098,45.3165699 282.632782,45.6773829 282.360474,45.9711823 C282.088165,46.2649817 281.737543,46.4276744 281.308596,46.4592653 L273.880055,47.006359 C273.490104,47.035078 273.138104,46.9143552 272.824045,46.6441871 C272.509986,46.374019 272.338563,46.0444683 272.309769,45.6555252 L270.737655,24.4193377 L265.275632,36.4361353 C264.83492,37.3680391 264.185626,37.8655744 263.327733,37.9287562 L260.169141,38.1613787 C259.389238,38.2188166 258.67372,37.8217962 258.022568,36.9703055 L250.908715,25.8796902 L252.480829,47.1158777 C252.512502,47.5437152 252.392186,47.9045282 252.119878,48.1983276 C251.84757,48.492127 251.496947,48.6548197 251.068,48.6864105 L243.697952,49.2291964 C243.269005,49.2607873 242.898228,49.1512239 242.585609,48.900503 Z M306.730468,46.5738209 C306.434661,46.2838825 306.285054,45.9439248 306.281642,45.5539377 L306.172648,33.093912 L292.404589,8.0577688 C292.285583,7.86379603 292.225058,7.64981672 292.223011,7.41582445 C292.220282,7.10383477 292.344882,6.81999253 292.596813,6.56428922 C292.848745,6.30858591 293.131105,6.17937516 293.443904,6.17665308 L301.185632,6.10928198 C301.733029,6.10451834 302.183865,6.23709885 302.538151,6.50702749 C302.892438,6.77695613 303.149141,7.06723041 303.30827,7.37785906 L311.588983,21.9898564 L319.612818,7.23597144 C319.766488,6.92262071 320.018075,6.62792311 320.367585,6.3518698 C320.717095,6.07581649 321.165543,5.93541012 321.71294,5.93064648 L329.454668,5.86327538 C329.767467,5.8605533 330.052045,5.98483036 330.308411,6.23611029 C330.564778,6.48739022 330.694324,6.76902081 330.697053,7.08101049 C330.6991,7.31500276 330.642327,7.53000283 330.526733,7.72601716 L317.198745,32.9979592 L317.307739,45.457985 C317.311492,45.8869708 317.16794,46.2392299 316.877079,46.5147728 C316.586219,46.7903157 316.225744,46.9299565 315.795646,46.9336994 L307.760671,47.0036224 C307.369673,47.007025 307.026275,46.8637593 306.730468,46.5738209 Z" id="MY" fill="#89263C"></path>
                <path d="M356.88691,49.3071483 C356.503116,48.9091204 356.29121,48.4350639 356.251187,47.8849644 L352.59565,10.1008272 C352.56207,10.0203083 352.550708,9.90223827 352.561562,9.74661362 C352.583271,9.43536431 352.729716,9.16209519 353.0009,8.92679805 C353.272084,8.6915009 353.5637,8.58468034 353.875756,8.60633316 L361.540602,9.13817789 C362.671806,9.21666936 363.264704,9.70738851 363.319311,10.6103501 L365.349823,32.917687 L370.278452,20.4172084 C370.663776,19.3883948 371.344016,18.9078277 372.319192,18.9754928 L376.707462,19.279984 C377.682638,19.3476491 378.289611,19.9175327 378.5284,20.9896519 L381.678259,33.9920355 L386.840441,12.2424232 C386.951018,11.7809624 387.150291,11.4527181 387.438266,11.2576805 C387.72624,11.0626428 388.162773,10.9854246 388.747879,11.0260237 L396.412724,11.5578684 C396.763788,11.5822278 397.047517,11.7289701 397.263921,11.9980998 C397.480325,12.2672295 397.57767,12.5574146 397.555962,12.8686639 L397.531539,13.2188176 L388.665877,50.1341398 C388.549873,50.6734129 388.264446,51.1129608 387.809589,51.4527967 C387.354732,51.7926326 386.815256,51.9408955 386.191143,51.8975899 L380.281605,51.4875417 C379.657493,51.444236 379.180766,51.2547817 378.851412,50.919173 C378.522057,50.5835642 378.312441,50.2171746 378.222556,49.8199932 L373.557543,33.2526349 L366.637522,49.0161363 C366.454358,49.3943715 366.176394,49.7269291 365.803621,50.013819 C365.430849,50.3007088 364.932414,50.4224991 364.308301,50.3791935 L358.457274,49.9732052 C357.794154,49.9271929 357.270705,49.7051762 356.88691,49.3071483 Z M409.174037,51.2048365 C406.25604,48.2051465 404.963901,44.0958322 405.29758,38.8767702 C405.369046,37.786396 405.519086,36.1159897 405.747706,33.8655012 C405.976325,31.6150128 406.167238,29.9291375 406.32045,28.8078248 C406.996365,23.7017496 409.099371,19.9257551 412.629532,17.4797281 C416.159693,15.0337011 420.647856,14.0859084 426.094154,14.6363214 C431.501551,15.1828029 435.688434,17.0073118 438.65493,20.1099029 C441.621425,23.212494 442.922305,27.3324914 442.557607,32.4700188 C442.406791,34.7283703 442.274231,36.4201428 442.159921,37.545387 C442.04167,38.7094328 441.833277,40.3739419 441.534737,42.5389642 C440.812036,47.718711 438.729466,51.486971 435.286963,53.8438572 C431.844461,56.2007434 427.361226,57.100035 421.837123,56.5417589 C416.31302,55.9834829 412.092033,54.2045265 409.174037,51.2048365 Z M427.753541,46.4675685 C429.083671,45.3671977 429.915732,43.5599213 430.249747,41.0456852 C430.556171,38.8030598 430.758651,37.1967521 430.857194,36.226714 C430.955737,35.2566759 431.076473,33.6813062 431.219405,31.5005578 C431.397812,28.9705956 430.946121,27.033581 429.864319,25.6894557 C428.782517,24.3453305 427.230184,23.57106 425.207273,23.3666209 C423.14546,23.1582502 421.449513,23.6042436 420.119383,24.7046145 C418.789253,25.8049854 417.957193,27.6122618 417.623177,30.1264978 C417.473907,31.209009 417.294819,32.7784815 417.085908,34.8349623 C416.873055,36.9302447 416.728927,38.5424495 416.65352,39.6716253 C416.475112,42.2015875 416.926803,44.1386021 418.008605,45.4827273 C419.090407,46.8268525 420.662191,47.6030888 422.724004,47.8114594 C424.746915,48.0158986 426.423411,47.5679394 427.753541,46.4675685 Z M451.994774,59.0671507 C451.738168,58.7421768 451.632937,58.3860567 451.679078,57.9987796 L456.170846,20.2975414 C456.221601,19.8715366 456.400177,19.5294179 456.706579,19.271175 C457.012982,19.012932 457.379732,18.9091239 457.806842,18.9597473 L473.823365,20.8581168 C478.948678,21.465598 482.819202,23.1025748 485.435054,25.7690962 C488.050905,28.4356176 489.107349,31.8794869 488.604416,36.1008074 C488.281432,38.8117472 487.375951,41.041228 485.887948,42.7893165 C484.399945,44.5374051 482.48708,45.8030938 480.149297,46.5864206 L486.323215,61.6926188 C486.412015,61.9387914 486.444879,62.1586937 486.421809,62.3523323 C486.384896,62.662154 486.234962,62.9291195 485.972002,63.1532368 C485.709042,63.3773541 485.40284,63.4687019 485.053387,63.4272827 L476.841279,62.4539369 C475.715263,62.3204751 474.981587,61.7033166 474.640229,60.6024428 L469.73549,47.2372881 L464.144268,46.5745846 L462.628555,59.296574 C462.577801,59.7225788 462.390671,60.0538653 462.067162,60.2904433 C461.743653,60.5270213 461.368349,60.6199972 460.941239,60.5693737 L452.962099,59.6236406 C452.573818,59.5776193 452.251379,59.3921245 451.994774,59.0671507 Z M471.626515,38.8014179 C473.296124,38.9993096 474.617327,38.7337104 475.590162,38.0046126 C476.562997,37.2755147 477.137074,36.1751558 477.312408,34.7035028 C477.487743,33.2318498 477.191659,31.9988991 476.42415,31.0046138 C475.656641,30.0103285 474.438099,29.414249 472.76849,29.2163574 L466.303639,28.4501064 L465.161664,38.035167 L471.626515,38.8014179 Z M497.288903,64.7914541 C497.036418,64.463285 496.935689,64.1058722 496.986713,63.7192049 L501.961477,26.0193351 C502.017603,25.5940011 502.208897,25.2650898 502.535366,25.0325914 C502.861835,24.8000929 503.218899,24.7092908 503.606569,24.7601824 L511.747595,25.828899 C512.174032,25.8848797 512.505072,26.0660129 512.740724,26.372304 C512.976377,26.6785952 513.066139,27.0444023 513.010013,27.4697363 L509.045508,57.5136325 L526.490565,59.8037397 C526.917002,59.8597203 527.256457,60.0517923 527.508942,60.3799614 C527.761427,60.7081305 527.859605,61.0848764 527.803479,61.5102104 L526.99221,67.6581892 C526.936084,68.0835232 526.744789,68.4124345 526.418321,68.6449329 C526.091852,68.8774313 525.715405,68.9656889 525.288968,68.9097082 L498.24913,65.3600422 C497.86146,65.3091507 497.541388,65.1196232 497.288903,64.7914541 Z M536.989106,70.2352172 C536.73969,69.9047223 536.642294,69.5463914 536.696918,69.1602137 L542.014477,31.566002 C542.074563,31.1412066 542.260599,30.803066 542.572592,30.5515702 C542.884585,30.3000744 543.253525,30.2042931 543.679421,30.2642234 L558.953558,32.4135321 C564.683807,33.2198673 568.943755,35.2076582 571.733528,38.3769644 C574.523301,41.5462705 575.635093,45.6905307 575.068936,50.8098693 C574.949246,51.9352329 574.758308,53.4247188 574.496116,55.2783718 C574.233923,57.1320248 574.006999,58.596754 573.815336,59.6726033 C571.931476,70.1993903 565.162603,74.6427614 553.508514,73.0028498 L537.943995,70.8126798 C537.556816,70.7581976 537.238523,70.565712 536.989106,70.2352172 Z M554.447151,64.2730335 C556.886379,64.6162708 558.768669,64.2903509 560.094076,63.2952642 C561.419483,62.3001774 562.301149,60.5337223 562.739099,57.9958458 C562.974942,56.8868269 563.218494,55.4441304 563.469762,53.6677129 C563.721029,51.8912955 563.884415,50.4570113 563.959925,49.3648173 C564.232079,46.8823835 563.822297,44.963741 562.730566,43.6088321 C561.638836,42.2539233 559.873383,41.4048629 557.434155,41.0616256 L551.916881,40.2852594 L548.639495,63.4558058 L554.447151,64.2730335 Z" id="WORLD" fill="#89263C"></path>
                <path d="M6.55292683,72.1831355 C6.21786964,71.9393511 6.02013043,71.6248053 5.95970327,71.2394886 L0.0771490623,33.7290976 C0.0106791908,33.3052493 0.0899934015,32.9277422 0.315094074,32.5965651 C0.540194746,32.2653879 0.865213881,32.0666534 1.29016123,32.0003554 L28.641181,27.7331985 C29.0661284,27.6669006 29.4461249,27.7556424 29.7811821,27.9994268 C30.1162393,28.2432111 30.3169998,28.5770225 30.3834697,29.0008708 L31.2808085,34.7227949 C31.3472784,35.1466432 31.2567957,35.5160243 31.0093579,35.8309491 C30.7619201,36.1458739 30.4257326,36.3364825 30.0007852,36.4027804 L11.6895093,39.2596058 L12.8406408,46.5998518 L29.8770811,43.9419194 C30.3020285,43.8756214 30.682025,43.9643632 31.0170822,44.2081476 C31.3521394,44.4519319 31.5528999,44.7857433 31.6193698,45.2095916 L32.4441964,50.469138 C32.5106662,50.8929863 32.4216943,51.2720002 32.1772778,51.6061908 C31.9328614,51.9403815 31.5981845,52.1406228 31.1732371,52.2069208 L14.1367968,54.8648532 L15.3151205,62.3784909 L34.089973,59.4493408 C34.5149204,59.3830429 34.894917,59.4717847 35.2299742,59.7155691 C35.5650314,59.9593534 35.7657919,60.2931648 35.8322617,60.7170131 L36.7296005,66.4389372 C36.7960704,66.8627855 36.7055878,67.2321665 36.45815,67.5470914 C36.2107121,67.8620162 35.8745246,68.0526248 35.4495773,68.1189227 L7.63498087,72.4584043 C7.2486651,72.5186752 6.88798403,72.4269198 6.55292683,72.1831355 Z M48.6250192,65.931291 C48.2927129,65.6837893 48.0985083,65.3670602 48.0423997,64.9810944 L42.5802568,27.4075101 C42.5185373,26.9829477 42.6020739,26.6063478 42.8308691,26.277699 C43.0596643,25.9490502 43.3868886,25.7539488 43.8125519,25.692389 L50.3716028,24.7438129 C51.2616259,24.6150969 51.9727616,24.8866225 52.5050312,25.5583977 L69.3428394,45.1719801 L66.2624937,23.9825628 C66.2007743,23.5580004 66.2843109,23.1814005 66.5131061,22.8527517 C66.7419013,22.5241029 67.0691256,22.3290015 67.4947888,22.2674417 L74.8664655,21.2013429 C75.2921288,21.1397831 75.6614339,21.2341517 75.9743919,21.4844516 C76.28735,21.7347516 76.4746859,22.0721777 76.5364054,22.4967401 L81.9901321,60.0124298 C82.0518515,60.4369922 81.9683149,60.8135921 81.7395197,61.1422409 C81.5107245,61.4708897 81.1835002,61.6659911 80.757837,61.7275509 L74.198786,62.676127 C73.3087629,62.804843 72.5976272,62.5333174 72.0653576,61.8615422 L55.4118378,43.107984 L58.374356,63.4868772 C58.4360755,63.9114396 58.3414621,64.2797896 58.0905132,64.5919383 C57.8395643,64.904087 57.5012632,65.0909384 57.0756,65.1524982 L49.7039233,66.218597 C49.3169567,66.2745605 48.9573256,66.1787928 48.6250192,65.931291 Z M104.296435,58.3036055 C103.969387,58.0719186 103.777272,57.7434834 103.720084,57.3182901 L99.7273751,27.6322172 L89.4963279,29.0011613 C89.0700321,29.058201 88.6933657,28.9708787 88.3663175,28.7391918 C88.0392692,28.5075049 87.8471542,28.1790697 87.7899667,27.7538765 L86.9165616,21.260048 C86.859374,20.8348547 86.9566112,20.4578662 87.2082759,20.129071 C87.4599406,19.8002758 87.7989158,19.6073613 88.2252115,19.5503217 L119.790317,15.3268178 C120.216613,15.2697782 120.594579,15.3667638 120.924227,15.6177777 C121.253875,15.8687915 121.447289,16.20689 121.504477,16.6320833 L122.377882,23.1259117 C122.435069,23.551105 122.336533,23.9184302 122.082268,24.2278984 C121.828004,24.5373666 121.487729,24.7206178 121.061434,24.7776574 L110.830387,26.1466016 L114.823096,55.8326746 C114.880283,56.2578679 114.781746,56.6251931 114.527482,56.9346613 C114.273218,57.2441295 113.932943,57.4273806 113.506647,57.4844203 L105.426445,58.565575 C105.00015,58.6226147 104.623483,58.5352923 104.296435,58.3036055 Z M137.157601,54.1509225 C136.83073,53.8963227 136.643426,53.5754855 136.595685,53.1884015 L131.94811,15.5059553 C131.895595,15.0801628 131.987264,14.7054495 132.223119,14.3818041 C132.458975,14.0581587 132.790346,13.8701491 133.217242,13.8177697 L160.693718,10.4464566 C161.120614,10.3940771 161.497492,10.4951858 161.824364,10.7497856 C162.151236,11.0043854 162.340926,11.3445765 162.393442,11.770369 L163.102394,17.5185387 C163.154909,17.9443312 163.052345,18.310558 162.794698,18.6172301 C162.537051,18.9239022 162.194784,19.1034252 161.767887,19.1558047 L143.37262,21.4128702 L144.282084,28.7867849 L161.396668,26.6868569 C161.823565,26.6344774 162.200443,26.7355861 162.527315,26.9901859 C162.854186,27.2447858 163.043877,27.5849768 163.096392,28.0107693 L163.748055,33.2944405 C163.800571,33.7202329 163.6992,34.0961367 163.44394,34.422163 C163.18868,34.7481893 162.847607,34.9373893 162.42071,34.9897687 L145.306126,37.0896968 L146.237073,44.6377985 L165.098043,42.323592 C165.52494,42.2712126 165.901818,42.3723213 166.22869,42.6269211 C166.555562,42.8815209 166.745252,43.221712 166.797768,43.6475045 L167.50672,49.3956742 C167.559235,49.8214667 167.456671,50.1876935 167.199024,50.4943656 C166.941377,50.8010377 166.59911,50.9805607 166.172213,51.0329402 L138.230035,54.4613942 C137.841947,54.5090118 137.484473,54.4055223 137.157601,54.1509225 Z M179.427749,49.3123051 C179.104486,49.0531621 178.921708,48.7297388 178.87941,48.3420255 L174.761652,10.5983269 C174.715124,10.1718423 174.812048,9.79844683 175.052427,9.47812937 C175.292806,9.1578119 175.626785,8.9744518 176.054376,8.92804357 L192.088937,7.18774365 C197.220022,6.63084489 201.360376,7.35836929 204.510121,9.37033865 C207.659867,11.382308 209.465241,14.5012833 209.926296,18.727358 C210.222387,21.4413509 209.842402,23.8167669 208.786331,25.8536771 C207.730259,27.8905874 206.151502,29.5526701 204.050012,30.8399749 L213.469649,44.1758808 C213.611644,44.395852 213.693214,44.6027628 213.714364,44.7966194 C213.748203,45.10679 213.662255,45.4005345 213.456518,45.6778617 C213.250781,45.955189 212.972993,46.1128354 212.623147,46.1508057 L204.40179,47.043105 C203.274506,47.1654539 202.420542,46.7285356 201.839873,45.732337 L194.049233,33.8084529 L188.451714,34.4159758 L189.841219,47.1522932 C189.887747,47.5787778 189.780048,47.9435353 189.518119,48.2465765 C189.256189,48.5496178 188.911434,48.7243399 188.483843,48.7707482 L180.495716,49.6377339 C180.106998,49.6799232 179.751012,49.571448 179.427749,49.3123051 Z M193.991164,25.1644925 C195.662654,24.9830785 196.890218,24.4281251 197.673893,23.4996156 C198.457567,22.5711062 198.769032,21.3702142 198.608297,19.8969038 C198.447562,18.4235933 197.881251,17.2885478 196.909348,16.4917332 C195.937444,15.6949186 194.615767,15.3872229 192.944277,15.5686369 L186.472145,16.2710852 L187.519032,25.8669408 L193.991164,25.1644925 Z M242.034877,43.6080534 C241.721707,43.358017 241.548818,43.0191203 241.516204,42.5913532 L238.629922,4.73415404 C238.597308,4.30638694 238.716089,3.93558976 238.986269,3.62175139 C239.256448,3.30791302 239.60597,3.13473184 240.034846,3.10220266 L246.643407,2.60096009 C247.618125,2.52703014 248.352526,2.90156205 248.846629,3.72456708 L260.275438,20.9277422 L269.023207,2.19422472 C269.386856,1.30616133 270.05603,0.825171883 271.030749,0.75124193 L277.639309,0.249999359 C278.068185,0.21747018 278.439944,0.335944015 278.754596,0.605424416 C279.069248,0.874904818 279.242878,1.22352334 279.275492,1.65129044 L282.161774,39.5084896 C282.194388,39.9362567 282.074866,40.2973321 281.803204,40.5917265 C281.531543,40.8861209 281.181279,41.0495802 280.752403,41.0821094 L273.325083,41.6454528 C272.935195,41.6750248 272.582931,41.5550724 272.268278,41.285592 C271.953626,41.0161116 271.781478,40.6869367 271.75183,40.2980576 L270.133021,19.0653603 L264.697436,31.094078 C264.258774,32.0269437 263.610576,32.5258983 262.752824,32.5909566 L259.594751,32.8304885 C258.814976,32.8896324 258.098587,32.4941783 257.445564,31.6441141 L250.30734,20.569088 L251.926149,41.8017853 C251.958762,42.2295524 251.83924,42.5906277 251.567579,42.8850221 C251.295917,43.1794165 250.945653,43.3428759 250.516777,43.3754051 L243.14794,43.9343127 C242.719064,43.9668419 242.348046,43.8580899 242.034877,43.6080534 Z M306.170191,41.0145221 C305.872682,40.726321 305.721077,40.3872453 305.71537,39.9972849 L305.533032,27.5381121 L291.617836,2.5830268 C291.497691,2.38975427 291.435907,2.17613309 291.432483,1.94215684 C291.427918,1.63018851 291.550844,1.34562151 291.801266,1.08844729 C292.051688,0.831273066 292.333283,0.700411022 292.64606,0.695857229 L300.387258,0.583151413 C300.934618,0.575182276 301.386226,0.705120392 301.742096,0.97296966 C302.097965,1.24081893 302.356373,1.52958494 302.517327,1.83927637 L310.88391,16.4025297 L318.820759,1.6019111 C318.972582,1.28766587 319.222429,0.991500054 319.570309,0.713404752 C319.918188,0.435309449 320.365801,0.292279375 320.913161,0.284310237 L328.654359,0.171604422 C328.967136,0.167050629 329.252441,0.289659047 329.510282,0.539433355 C329.768123,0.789207663 329.899325,1.07007477 329.90389,1.38204309 C329.907315,1.61601934 329.851809,1.83134817 329.737371,2.02803604 L316.558374,27.3775917 L316.740712,39.8367645 C316.74699,40.2657209 316.605514,40.6188146 316.31628,40.896056 C316.027046,41.1732975 315.6674,41.3150468 315.237332,41.3213083 L307.202907,41.4382833 C306.811935,41.4439755 306.4677,41.3027232 306.170191,41.0145221 Z M360.253155,43.8715097 C359.869656,43.4731992 359.658101,42.9989866 359.618485,42.4488578 L355.990933,4.66203758 C355.957413,4.58149394 355.946138,4.46341558 355.957108,4.30779897 C355.979047,3.99656574 356.125694,3.72340459 356.397052,3.48830732 C356.668411,3.25321005 356.960106,3.14660438 357.272146,3.16848711 L364.936596,3.70597907 C366.067742,3.78530397 366.660275,4.27645983 366.714214,5.17946138 L368.728204,27.4882883 L373.666089,14.9914444 C374.052175,13.962915 374.732771,13.4828493 375.707897,13.5512328 L380.09594,13.8589572 C381.071066,13.9273408 381.677617,14.4976714 381.915612,15.5699663 L385.05584,28.5746672 L390.234129,6.82886417 C390.345048,6.36748502 390.544564,6.03938764 390.832682,5.84456219 C391.120801,5.64973674 391.557391,5.57284023 392.142467,5.61387036 L399.806916,6.15136231 C400.157962,6.17598039 400.441582,6.32293175 400.657787,6.59222079 C400.873991,6.86150983 400.971122,7.15176661 400.949182,7.46299984 L400.924501,7.81313546 L392.031501,44.7219154 C391.915097,45.2611029 391.629345,45.7004403 391.174237,46.039941 C390.719128,46.3794417 390.179542,46.5273071 389.555461,46.4835417 L383.646229,46.0691395 C383.022149,46.025374 382.545563,45.8355685 382.216457,45.4997172 C381.887351,45.1638659 381.678006,44.7973219 381.588415,44.4000744 L376.935673,27.8292834 L370.00398,43.587682 C369.820536,43.9657821 369.542325,44.2981348 369.16934,44.5847499 C368.796356,44.8713651 368.297831,44.9927881 367.67375,44.9490226 L361.823025,44.5387234 C361.15994,44.4922226 360.636655,44.2698203 360.253155,43.8715097 Z M412.542233,45.7950773 C409.625467,42.7941972 408.335013,38.6843561 408.670832,33.4654307 C408.742745,32.3750857 408.893471,30.7047407 409.123013,28.4543457 C409.352555,26.2039507 409.544159,24.5181535 409.697831,23.3969034 C410.37584,18.2911043 412.480394,14.515968 416.011558,12.0713814 C419.542722,9.62679467 424.031272,8.68083288 429.477345,9.23346763 C434.884517,9.78215498 439.070652,11.6083718 442.035875,14.7121727 C445.001098,17.8159737 446.300288,21.9365015 445.933483,27.0738797 C445.781742,29.3321695 445.648488,31.0238878 445.533716,32.1490853 C445.414988,33.3130827 445.205912,34.9775066 444.906484,37.142407 C444.18166,42.3218585 442.097544,46.0892686 438.654076,48.4447503 C435.210607,50.800232 430.727004,51.6976946 425.20313,51.1371651 C419.679256,50.5766355 415.459,48.7959574 412.542233,45.7950773 Z M431.123679,41.0653891 C432.45426,39.9655609 433.287062,38.1586241 433.622108,35.6445245 C433.929452,33.4020243 434.132591,31.7957993 434.231531,30.8258015 C434.330472,29.8558036 434.451853,28.2804834 434.595679,26.0997934 C434.775124,23.5699042 434.324228,21.6327055 433.242977,20.2881391 C432.161726,18.9435727 430.609711,18.1686689 428.586884,17.9634046 C426.525156,17.7541929 424.829027,18.1994944 423.498446,19.2993226 C422.167864,20.3991507 421.335063,22.2060875 421.000016,24.7201871 C420.850302,25.8026373 420.670571,27.3720366 420.460817,29.428432 C420.247105,31.5236274 420.102316,33.1357733 420.026445,34.2649182 C419.847,36.7948074 420.297897,38.7320061 421.379148,40.0765725 C422.460398,41.421139 424.031864,42.1980164 426.093591,42.4072281 C428.116418,42.6124924 429.793097,42.1652172 431.123679,41.0653891 Z M455.35632,53.6707441 C455.099808,53.3456968 454.99468,52.9895465 455.040932,52.6022827 L459.543558,14.902333 C459.594436,14.4763427 459.77311,14.1342751 460.079587,13.87612 C460.386063,13.6179649 460.752844,13.5142618 461.179939,13.5650076 L477.195914,15.4679658 C482.321052,16.0769155 486.191105,17.7150012 488.806188,20.3822719 C491.421272,23.0495427 492.476724,26.4937145 491.972575,30.7148908 C491.64881,33.4257379 490.742688,35.6549591 489.254181,37.4026213 C487.765674,39.1502835 485.852445,40.4154241 483.514437,41.198081 L489.684004,56.3060474 C489.772733,56.5522455 489.805534,56.7721572 489.782408,56.9657892 C489.745406,57.2756003 489.595395,57.5425228 489.33237,57.7665648 C489.069346,57.9906068 488.763117,58.0818668 488.413676,58.0403475 L480.201849,57.0646489 C479.075871,56.9308645 478.342373,56.3134958 478.001333,55.2125243 L473.100443,41.8459649 L467.509411,41.1816594 L465.990035,53.9032141 C465.939158,54.3292044 465.751933,54.6604372 465.428356,54.8969225 C465.104778,55.1334078 464.729448,55.2262761 464.302353,55.1755303 L456.323485,54.2275111 C455.935217,54.1813786 455.612832,53.9957914 455.35632,53.6707441 Z M474.993897,33.4106368 C476.663449,33.6090068 477.984728,33.3437862 478.957774,32.6149671 C479.930819,31.8861481 480.505212,30.7859537 480.68097,29.3143509 C480.856728,27.8427482 480.561,26.6097128 479.793777,25.6152076 C479.026554,24.6207025 477.808185,24.0242738 476.138632,23.8259039 L469.674002,23.0578007 L468.529267,32.6425337 L474.993897,33.4106368 Z M500.63038,59.4037983 C500.377968,59.0755731 500.277319,58.7181378 500.328429,58.3314819 L505.311628,20.6327203 C505.367849,20.2073988 505.559217,19.8785301 505.885738,19.6461044 C506.212259,19.4136786 506.569343,19.322956 506.957002,19.3739338 L515.097789,20.4444624 C515.524213,20.500538 515.855212,20.6817449 516.090796,20.9880885 C516.32638,21.2944321 516.41606,21.6602591 516.359839,22.0855806 L512.388613,52.1285937 L529.833156,54.4225837 C530.259581,54.4786592 530.598993,54.6708068 530.851405,54.9990321 C531.103816,55.3272574 531.20191,55.7040251 531.145689,56.1293466 L530.333044,62.2771446 C530.276823,62.7024661 530.085455,63.0313348 529.758934,63.2637606 C529.432413,63.4961864 529.055947,63.5843601 528.629522,63.5282845 L501.59048,59.9726001 C501.202821,59.9216223 500.882791,59.7320236 500.63038,59.4037983 Z M540.35661,64.8596212 C540.107262,64.5290749 540.009941,64.170724 540.064644,63.7845575 L545.389995,26.191443 C545.450169,25.7666599 545.636275,25.4285577 545.94832,25.1771262 C546.260365,24.9256948 546.629324,24.8299895 547.055209,24.8900077 L562.3289,27.0424654 C568.058982,27.8499821 572.318518,29.8386512 575.107634,33.0085325 C577.89675,36.1784137 579.007683,40.3229031 578.440465,45.4421248 C578.320542,46.5674636 578.129295,48.0569102 577.866718,49.9105091 C577.604142,51.764108 577.376914,53.2287903 577.185028,54.3046002 C575.298986,64.8309986 568.529193,69.272974 556.875444,67.6306596 L541.311379,65.4372807 C540.924212,65.3827187 540.605958,65.1901675 540.35661,64.8596212 Z M557.815891,58.901037 C560.255047,59.2447772 562.137404,58.9192455 563.463018,57.924432 C564.788631,56.9296185 565.670663,55.1633452 566.109139,52.6255591 C566.345212,51.5165888 566.589063,50.0739425 566.840699,48.2975769 C567.092334,46.5212113 567.256018,45.0869608 567.331754,43.9947824 C567.604422,41.5124048 567.195037,39.5936779 566.103588,38.2385439 C565.012138,36.88341 563.246861,36.0339857 560.807705,35.6902455 L555.290592,34.9127417 L552.008404,58.082612 L557.815891,58.901037 Z" id="ENTER-MY-WORLD" fill="#FFF399"></path>
            </g>
        </g>
    </g>
</svg>