<?xml version="1.0" encoding="UTF-8" standalone="no"?>
<svg width="140px" height="140px" viewBox="0 0 140 140" version="1.1" xmlns="http://www.w3.org/2000/svg" xmlns:xlink="http://www.w3.org/1999/xlink">
    <!-- Generator: Sketch 42 (36781) - http://www.bohemiancoding.com/sketch -->
    <title>html-skill-tile</title>
    <desc>Created with Sketch.</desc>
    <defs></defs>
    <g id="Page-1" stroke="none" stroke-width="1" fill="none" fill-rule="evenodd">
        <g id="About-Copy-2" transform="translate(-789.000000, -581.000000)">
            <g id="html-skill-tile" transform="translate(789.000000, 581.000000)">
                <rect id="Rectangle-8-Copy-2" fill="#394037" x="0" y="0" width="140" height="140"></rect>
                <path d="M49.7265625,104 L47.5546875,104 L47.5546875,99.0703125 L44.3359375,99.0703125 L44.3359375,104 L42.15625,104 L42.15625,92.625 L44.3359375,92.625 L44.3359375,97.2890625 L47.5546875,97.2890625 L47.5546875,92.625 L49.7265625,92.625 L49.7265625,104 Z M60.1796875,94.4140625 L56.671875,94.4140625 L56.671875,104 L54.46875,104 L54.46875,94.4140625 L51.0078125,94.4140625 L51.0078125,92.625 L60.1796875,92.625 L60.1796875,94.4140625 Z M64.1171875,92.625 L65.1953125,96.8984375 L66.421875,92.625 L69.1484375,92.625 L69.1484375,104 L67.1328125,104 L67.1328125,100.632812 L67.2265625,95.3125 L65.734375,100.25 L64.6484375,100.25 L63.3125,95.5234375 L63.40625,100.632812 L63.40625,104 L61.390625,104 L61.390625,92.625 L64.1171875,92.625 Z M73.375,102.226562 L78.703125,102.226562 L78.703125,104 L71.171875,104 L71.171875,92.625 L73.375,92.625 L73.375,102.226562 Z M89.7890625,101.101562 C89.7890625,100.757811 89.8372391,100.44271 89.9335938,100.15625 C90.0299484,99.8697902 90.1666658,99.6028658 90.34375,99.3554688 C90.5208342,99.1080717 90.7330717,98.8750011 90.9804688,98.65625 C91.2278658,98.4374989 91.5052068,98.2213552 91.8125,98.0078125 C91.5052068,97.5442685 91.2669279,97.1054708 91.0976562,96.6914062 C90.9283846,96.2773417 90.84375,95.8489605 90.84375,95.40625 C90.84375,94.9583311 90.9153639,94.5520852 91.0585938,94.1875 C91.2018236,93.8229148 91.4062487,93.5130221 91.671875,93.2578125 C91.9375013,93.0026029 92.2578106,92.8059903 92.6328125,92.6679688 C93.0078144,92.5299472 93.427081,92.4609375 93.890625,92.4609375 C94.281252,92.4609375 94.6367171,92.5312493 94.9570312,92.671875 C95.2773454,92.8125007 95.5507801,93.003905 95.7773438,93.2460938 C96.0039074,93.4882825 96.1796869,93.7682276 96.3046875,94.0859375 C96.4296881,94.4036474 96.4921875,94.7395816 96.4921875,95.09375 C96.4921875,95.3593763 96.4505212,95.6093738 96.3671875,95.84375 C96.2838538,96.0781262 96.1692716,96.2981761 96.0234375,96.5039062 C95.8776034,96.7096364 95.7070322,96.9036449 95.5117188,97.0859375 C95.3164053,97.2682301 95.106772,97.4401034 94.8828125,97.6015625 L94.2578125,98.109375 L96.1875,100.585938 C96.3541675,100.289061 96.4830725,99.9635434 96.5742188,99.609375 C96.665365,99.2552066 96.7109375,98.875002 96.7109375,98.46875 L98.5703125,98.46875 C98.5703125,99.1822952 98.4752614,99.8476532 98.2851562,100.464844 C98.0950511,101.082034 97.796877,101.635414 97.390625,102.125 L98.859375,104 L96.375,104 L95.8671875,103.351562 C95.4713522,103.617189 95.0612,103.81901 94.6367188,103.957031 C94.2122375,104.095053 93.7317735,104.164062 93.1953125,104.164062 C92.6692682,104.164062 92.1953146,104.088542 91.7734375,103.9375 C91.3515604,103.786458 90.9934911,103.575522 90.6992188,103.304688 C90.4049464,103.033853 90.1796883,102.710939 90.0234375,102.335938 C89.8671867,101.960936 89.7890625,101.549481 89.7890625,101.101562 Z M93.2890625,102.421875 C93.5598972,102.421875 93.8255195,102.385417 94.0859375,102.3125 C94.3463555,102.239583 94.596353,102.135417 94.8359375,102 L92.78125,99.328125 L92.71875,99.375 C92.5624992,99.5260424 92.4348963,99.6744784 92.3359375,99.8203125 C92.2369787,99.9661466 92.1601565,100.10677 92.1054688,100.242188 C92.050781,100.377605 92.014323,100.50651 91.9960938,100.628906 C91.9778645,100.751303 91.96875,100.867187 91.96875,100.976562 C91.96875,101.184897 91.9999997,101.377603 92.0625,101.554688 C92.1250003,101.731772 92.2135411,101.884114 92.328125,102.011719 C92.4427089,102.139324 92.5820304,102.239583 92.7460938,102.3125 C92.9101571,102.385417 93.0911448,102.421875 93.2890625,102.421875 Z M92.8125,95.40625 C92.8125,95.6406262 92.8606766,95.8763009 92.9570312,96.1132812 C93.0533859,96.3502616 93.184895,96.6015612 93.3515625,96.8671875 L94.078125,96.328125 C94.2395841,96.2239578 94.3619787,96.115886 94.4453125,96.0039062 C94.5286463,95.8919265 94.5872394,95.7851568 94.6210938,95.6835938 C94.6549481,95.5820307 94.671875,95.4908858 94.671875,95.4101562 L94.671875,95.21875 C94.671875,95.0937494 94.653646,94.9713548 94.6171875,94.8515625 C94.580729,94.7317702 94.5286462,94.6250005 94.4609375,94.53125 C94.3932288,94.4374995 94.3111984,94.3619795 94.2148438,94.3046875 C94.1184891,94.2473955 94.0104173,94.21875 93.890625,94.21875 C93.7083324,94.21875 93.5494798,94.2499997 93.4140625,94.3125 C93.2786452,94.3750003 93.1666671,94.460937 93.078125,94.5703125 C92.9895829,94.679688 92.9231773,94.8059889 92.8789062,94.9492188 C92.8346352,95.0924486 92.8125,95.2447909 92.8125,95.40625 Z M64.5195312,118.4375 C64.4830727,119.01042 64.3593761,119.526039 64.1484375,119.984375 C63.9374989,120.442711 63.6549497,120.833332 63.3007812,121.15625 C62.9466128,121.479168 62.524742,121.727864 62.0351562,121.902344 C61.5455705,122.076824 61.0039092,122.164062 60.4101562,122.164062 C59.7382779,122.164062 59.1419297,122.040366 58.6210938,121.792969 C58.1002578,121.545572 57.6627622,121.199221 57.3085938,120.753906 C56.9544253,120.308592 56.6835947,119.773441 56.4960938,119.148438 C56.3085928,118.523434 56.2148438,117.835941 56.2148438,117.085938 L56.2148438,115.554688 C56.2148438,114.799475 56.3138011,114.109378 56.5117188,113.484375 C56.7096364,112.859372 56.9908836,112.322919 57.3554688,111.875 C57.7200539,111.427081 58.1614557,111.079428 58.6796875,110.832031 C59.1979193,110.584634 59.7799447,110.460938 60.4257812,110.460938 C61.0507844,110.460938 61.6067684,110.549478 62.09375,110.726562 C62.5807316,110.903647 62.996092,111.156248 63.3398438,111.484375 C63.6835955,111.812502 63.9544261,112.213539 64.1523438,112.6875 C64.3502614,113.161461 64.4752602,113.69531 64.5273438,114.289062 L62.3398438,114.289062 C62.3190103,113.950519 62.2682296,113.653647 62.1875,113.398438 C62.1067704,113.143228 61.9895841,112.93099 61.8359375,112.761719 C61.6822909,112.592447 61.4895845,112.464844 61.2578125,112.378906 C61.0260405,112.292968 60.7486995,112.25 60.4257812,112.25 C60.0872379,112.25 59.79297,112.322916 59.5429688,112.46875 C59.2929675,112.614584 59.0859383,112.828124 58.921875,113.109375 C58.7578117,113.390626 58.6367191,113.735675 58.5585938,114.144531 C58.4804684,114.553387 58.4414062,115.018227 58.4414062,115.539062 L58.4414062,117.085938 C58.4414062,118.205735 58.5989568,119.033851 58.9140625,119.570312 C59.2291682,120.106774 59.7278612,120.375 60.4101562,120.375 C60.9830758,120.375 61.4361962,120.222658 61.7695313,119.917969 C62.1028663,119.61328 62.2877602,119.119795 62.3242188,118.4375 L64.5195312,118.4375 Z M72.1289062,119.03125 C72.1289062,118.828124 72.0937504,118.638022 72.0234375,118.460938 C71.9531246,118.283853 71.8333342,118.11849 71.6640625,117.964844 C71.4947908,117.811197 71.2734389,117.670574 71,117.542969 C70.7265611,117.415364 70.3867208,117.296876 69.9804688,117.1875 C69.4856746,117.052083 69.0130231,116.882814 68.5625,116.679688 C68.1119769,116.476561 67.7148455,116.231772 67.3710938,115.945312 C67.027342,115.658853 66.7526052,115.325523 66.546875,114.945312 C66.3411448,114.565102 66.2382812,114.127607 66.2382812,113.632812 C66.2382812,113.153643 66.3398427,112.718752 66.5429688,112.328125 C66.7460948,111.937498 67.027342,111.604168 67.3867188,111.328125 C67.7460955,111.052082 68.1705705,110.839844 68.6601562,110.691406 C69.149742,110.542968 69.6809867,110.46875 70.2539062,110.46875 C70.8476592,110.46875 71.3906225,110.554687 71.8828125,110.726562 C72.3750025,110.898438 72.7981753,111.139321 73.1523438,111.449219 C73.5065122,111.759116 73.7825511,112.127602 73.9804688,112.554688 C74.1783864,112.981773 74.2773438,113.450518 74.2773438,113.960938 L72.1367188,113.960938 C72.126302,113.705728 72.0807296,113.471355 72,113.257812 C71.9192704,113.04427 71.79948,112.860678 71.640625,112.707031 C71.48177,112.553385 71.2838554,112.433594 71.046875,112.347656 C70.8098946,112.261718 70.5325537,112.21875 70.2148438,112.21875 C69.9231756,112.21875 69.6640636,112.253906 69.4375,112.324219 C69.2109364,112.394532 69.019532,112.493489 68.8632812,112.621094 C68.7070305,112.748699 68.5885421,112.899739 68.5078125,113.074219 C68.4270829,113.248699 68.3867188,113.437499 68.3867188,113.640625 C68.3867188,113.854168 68.4401036,114.046874 68.546875,114.21875 C68.6536464,114.390626 68.8085927,114.545572 69.0117188,114.683594 C69.2148448,114.821615 69.4609361,114.947916 69.75,115.0625 C70.0390639,115.177084 70.3658836,115.283854 70.7304688,115.382812 C71.2513047,115.533855 71.7304666,115.718749 72.1679688,115.9375 C72.6054709,116.156251 72.9817693,116.415363 73.296875,116.714844 C73.6119807,117.014324 73.85677,117.355467 74.03125,117.738281 C74.20573,118.121096 74.2929688,118.546873 74.2929688,119.015625 C74.2929688,119.515628 74.1927093,119.959633 73.9921875,120.347656 C73.7916657,120.735679 73.5143247,121.063801 73.1601562,121.332031 C72.8059878,121.600262 72.384117,121.803385 71.8945312,121.941406 C71.4049455,122.079428 70.8710966,122.148438 70.2929688,122.148438 C69.933592,122.148438 69.5755226,122.115886 69.21875,122.050781 C68.8619774,121.985677 68.520835,121.885417 68.1953125,121.75 C67.86979,121.614583 67.5664077,121.445314 67.2851562,121.242188 C67.0039048,121.039061 66.7604177,120.802085 66.5546875,120.53125 C66.3489573,120.260415 66.1875006,119.953127 66.0703125,119.609375 C65.9531244,119.265623 65.8945312,118.885419 65.8945312,118.46875 L68.0507812,118.46875 C68.061198,118.812502 68.1210932,119.10677 68.2304688,119.351562 C68.3398443,119.596355 68.4921865,119.796874 68.6875,119.953125 C68.8828135,120.109376 69.1171861,120.223958 69.390625,120.296875 C69.6640639,120.369792 69.9648421,120.40625 70.2929688,120.40625 C70.5846369,120.40625 70.8437489,120.372396 71.0703125,120.304688 C71.2968761,120.236979 71.4882805,120.14323 71.6445312,120.023438 C71.800782,119.903645 71.9205725,119.759115 72.0039062,119.589844 C72.08724,119.420572 72.1289062,119.234376 72.1289062,119.03125 Z M81.7304688,119.03125 C81.7304688,118.828124 81.6953129,118.638022 81.625,118.460938 C81.5546871,118.283853 81.4348967,118.11849 81.265625,117.964844 C81.0963533,117.811197 80.8750014,117.670574 80.6015625,117.542969 C80.3281236,117.415364 79.9882833,117.296876 79.5820312,117.1875 C79.0872371,117.052083 78.6145856,116.882814 78.1640625,116.679688 C77.7135394,116.476561 77.316408,116.231772 76.9726562,115.945312 C76.6289045,115.658853 76.3541677,115.325523 76.1484375,114.945312 C75.9427073,114.565102 75.8398438,114.127607 75.8398438,113.632812 C75.8398438,113.153643 75.9414052,112.718752 76.1445312,112.328125 C76.3476573,111.937498 76.6289045,111.604168 76.9882812,111.328125 C77.347658,111.052082 77.772133,110.839844 78.2617188,110.691406 C78.7513045,110.542968 79.2825492,110.46875 79.8554688,110.46875 C80.4492217,110.46875 80.992185,110.554687 81.484375,110.726562 C81.976565,110.898438 82.3997378,111.139321 82.7539062,111.449219 C83.1080747,111.759116 83.3841136,112.127602 83.5820312,112.554688 C83.7799489,112.981773 83.8789062,113.450518 83.8789062,113.960938 L81.7382812,113.960938 C81.7278645,113.705728 81.6822921,113.471355 81.6015625,113.257812 C81.5208329,113.04427 81.4010425,112.860678 81.2421875,112.707031 C81.0833325,112.553385 80.8854179,112.433594 80.6484375,112.347656 C80.4114571,112.261718 80.1341162,112.21875 79.8164062,112.21875 C79.5247381,112.21875 79.2656261,112.253906 79.0390625,112.324219 C78.8124989,112.394532 78.6210945,112.493489 78.4648438,112.621094 C78.308593,112.748699 78.1901046,112.899739 78.109375,113.074219 C78.0286454,113.248699 77.9882812,113.437499 77.9882812,113.640625 C77.9882812,113.854168 78.0416661,114.046874 78.1484375,114.21875 C78.2552089,114.390626 78.4101552,114.545572 78.6132812,114.683594 C78.8164073,114.821615 79.0624986,114.947916 79.3515625,115.0625 C79.6406264,115.177084 79.9674461,115.283854 80.3320312,115.382812 C80.8528672,115.533855 81.3320291,115.718749 81.7695312,115.9375 C82.2070334,116.156251 82.5833318,116.415363 82.8984375,116.714844 C83.2135432,117.014324 83.4583325,117.355467 83.6328125,117.738281 C83.8072925,118.121096 83.8945312,118.546873 83.8945312,119.015625 C83.8945312,119.515628 83.7942718,119.959633 83.59375,120.347656 C83.3932282,120.735679 83.1158872,121.063801 82.7617188,121.332031 C82.4075503,121.600262 81.9856795,121.803385 81.4960938,121.941406 C81.006508,122.079428 80.4726591,122.148438 79.8945312,122.148438 C79.5351545,122.148438 79.1770851,122.115886 78.8203125,122.050781 C78.4635399,121.985677 78.1223975,121.885417 77.796875,121.75 C77.4713525,121.614583 77.1679702,121.445314 76.8867188,121.242188 C76.6054673,121.039061 76.3619802,120.802085 76.15625,120.53125 C75.9505198,120.260415 75.7890631,119.953127 75.671875,119.609375 C75.5546869,119.265623 75.4960938,118.885419 75.4960938,118.46875 L77.6523438,118.46875 C77.6627605,118.812502 77.7226557,119.10677 77.8320312,119.351562 C77.9414068,119.596355 78.093749,119.796874 78.2890625,119.953125 C78.484376,120.109376 78.7187486,120.223958 78.9921875,120.296875 C79.2656264,120.369792 79.5664046,120.40625 79.8945312,120.40625 C80.1861994,120.40625 80.4453114,120.372396 80.671875,120.304688 C80.8984386,120.236979 81.089843,120.14323 81.2460938,120.023438 C81.4023445,119.903645 81.522135,119.759115 81.6054688,119.589844 C81.6888025,119.420572 81.7304688,119.234376 81.7304688,119.03125 Z" id="HTML-&amp;-CSS" fill="#FFFFFF"></path>
                <g id="Page-1" transform="translate(38.000000, 16.000000)" fill="#FFFFFF">
                    <polygon id="Fill-1" points="19.5 29.25 9.75 39 19.5 48.75 24.05 44.2 18.85 39 24.05 33.8"></polygon>
                    <polygon id="Fill-2" points="40.95 33.8 46.15 39 40.95 44.2 45.5 48.75 55.25 39 45.5 29.25"></polygon>
                    <polygon id="Fill-3" points="32.7201333 52.0814667 26.3960667 50.5743333 32.1984 26.234 38.5224667 27.7402667"></polygon>
                    <path d="M0,0 L0,65 L65,65 L65,0 L0,0 Z M58.5,13 L52,13 L52,6.5 L58.5,6.5 L58.5,13 Z M45.5,6.5 L45.5,13 L6.5,13 L6.5,6.5 L45.5,6.5 Z M6.5,58.5 L6.5,19.5 L58.5,19.5 L58.5,58.5 L6.5,58.5 Z" id="Fill-4"></path>
                </g>
            </g>
        </g>
    </g>
</svg>