<?xml version="1.0" encoding="UTF-8"?>
<svg width="150px" height="150px" viewBox="0 0 150 150" version="1.1" xmlns="http://www.w3.org/2000/svg" xmlns:xlink="http://www.w3.org/1999/xlink">
    <!-- Generator: Sketch 43 (38999) - http://www.bohemiancoding.com/sketch -->
    <title>illustration-tile</title>
    <desc>Created with Sketch.</desc>
    <defs></defs>
    <g id="Page-1" stroke="none" stroke-width="1" fill="none" fill-rule="evenodd">
        <g id="Artboard-2-Copy-3" transform="translate(-658.000000, -692.000000)">
            <g id="skills-section" transform="translate(94.000000, 604.000000)">
                <g id="illustration-tile" transform="translate(564.000000, 88.000000)">
                    <rect id="Rectangle-9-Copy-3" fill-opacity="0.0699728261" fill="#FFFFFF" x="0" y="0" width="150" height="150"></rect>
                    <path d="M39.5081816,88.625 L46.3831816,88.625 L46.3831816,89.8828125 L43.6566191,89.8828125 L43.6566191,98.75 L46.3831816,98.75 L46.3831816,100 L39.5081816,100 L39.5081816,98.75 L42.1722441,98.75 L42.1722441,89.8828125 L39.5081816,89.8828125 L39.5081816,88.625 Z M51.8116476,98.7734375 L57.3741476,98.7734375 L57.3741476,100 L50.3663351,100 L50.3663351,88.625 L51.8116476,88.625 L51.8116476,98.7734375 Z M62.4823011,98.7734375 L68.0448011,98.7734375 L68.0448011,100 L61.0369886,100 L61.0369886,88.625 L62.4823011,88.625 L62.4823011,98.7734375 Z M78.660767,88.625 L78.676392,96.328125 C78.6659753,96.8593777 78.5696221,97.3567685 78.3873295,97.8203125 C78.2050369,98.2838565 77.9498312,98.6888004 77.6217045,99.0351562 C77.2935779,99.3815121 76.9029568,99.6549469 76.4498295,99.8554688 C75.9967023,100.055991 75.4993114,100.15625 74.957642,100.15625 C74.4055559,100.15625 73.9029568,100.057293 73.4498295,99.859375 C72.9967023,99.6614573 72.6086853,99.3893246 72.285767,99.0429688 C71.9628487,98.6966129 71.7102471,98.2903669 71.5279545,97.8242188 C71.3456619,97.3580706 71.2519129,96.8593777 71.2467045,96.328125 L71.2623295,88.625 L72.6373295,88.625 L72.6685795,96.328125 C72.6737879,96.6666684 72.7271728,96.9921859 72.8287358,97.3046875 C72.9302988,97.6171891 73.0761307,97.893228 73.2662358,98.1328125 C73.4563409,98.372397 73.6933177,98.5651034 73.9771733,98.7109375 C74.2610289,98.8567716 74.5878485,98.9296875 74.957642,98.9296875 C75.3274355,98.9296875 75.6529531,98.8580736 75.9342045,98.7148438 C76.2154559,98.5716139 76.4511307,98.3789075 76.6412358,98.1367188 C76.8313409,97.89453 76.9758707,97.6171891 77.0748295,97.3046875 C77.1737883,96.9921859 77.2284753,96.6666684 77.238892,96.328125 L77.2623295,88.625 L78.660767,88.625 Z M88.1439205,97.125 C88.1439205,96.7760399 88.0644942,96.481772 87.9056392,96.2421875 C87.7467843,96.002603 87.5423592,95.8007821 87.292358,95.6367188 C87.0423567,95.4726554 86.7676199,95.335938 86.4681392,95.2265625 C86.1686586,95.117187 85.880901,95.0182296 85.604858,94.9296875 C85.2038143,94.7994785 84.7962663,94.6432301 84.3822017,94.4609375 C83.9681372,94.2786449 83.5905368,94.0546888 83.2493892,93.7890625 C82.9082417,93.5234362 82.6295986,93.2096372 82.4134517,92.8476562 C82.1973048,92.4856753 82.089233,92.0598983 82.089233,91.5703125 C82.089233,91.0807267 82.1973048,90.6432311 82.4134517,90.2578125 C82.6295986,89.8723939 82.9121479,89.5468763 83.261108,89.28125 C83.6100681,89.0156237 84.0058974,88.8138028 84.448608,88.6757812 C84.8913185,88.5377597 85.3366266,88.46875 85.7845455,88.46875 C86.2793396,88.46875 86.7558974,88.5507804 87.214233,88.7148438 C87.6725686,88.8789071 88.0788145,89.1093735 88.432983,89.40625 C88.7871514,89.7031265 89.0710027,90.0624979 89.2845455,90.484375 C89.4980882,90.9062521 89.6100663,91.3776016 89.620483,91.8984375 L88.136108,91.8984375 C88.0944411,91.5703109 88.0137127,91.2721368 87.8939205,91.0039062 C87.7741282,90.7356757 87.6152756,90.5052093 87.417358,90.3125 C87.2194403,90.1197907 86.9837656,89.9700526 86.7103267,89.8632812 C86.4368879,89.7565099 86.1282972,89.703125 85.7845455,89.703125 C85.5085024,89.703125 85.2389739,89.7421871 84.9759517,89.8203125 C84.7129296,89.8984379 84.4785569,90.0156242 84.2728267,90.171875 C84.0670965,90.3281258 83.9030357,90.5208322 83.7806392,90.75 C83.6582428,90.9791678 83.5970455,91.2447902 83.5970455,91.546875 C83.6022538,91.8750016 83.6855863,92.1523426 83.8470455,92.3789062 C84.0085046,92.6054699 84.2129297,92.7968742 84.4603267,92.953125 C84.7077238,93.1093758 84.9759503,93.2395828 85.2650142,93.34375 C85.5540782,93.4479172 85.8262109,93.5390621 86.0814205,93.6171875 C86.3626719,93.7057296 86.6465232,93.805989 86.932983,93.9179688 C87.2194427,94.0299485 87.4954817,94.1588534 87.761108,94.3046875 C88.0267343,94.4505216 88.2741277,94.6145824 88.5032955,94.796875 C88.7324633,94.9791676 88.9329821,95.1861968 89.104858,95.4179688 C89.2767338,95.6497407 89.4108471,95.9049465 89.5072017,96.1835938 C89.6035564,96.462241 89.651733,96.7708316 89.651733,97.109375 C89.651733,97.6197942 89.5384529,98.0651023 89.3118892,98.4453125 C89.0853256,98.8255227 88.7923598,99.1419258 88.432983,99.3945312 C88.0736062,99.6471367 87.6673602,99.8372389 87.214233,99.9648438 C86.7611057,100.092449 86.3079852,100.15625 85.854858,100.15625 C85.3496471,100.15625 84.8548604,100.078126 84.370483,99.921875 C83.8861056,99.7656242 83.4525161,99.5403661 83.0697017,99.2460938 C82.6868873,98.9518214 82.3756925,98.59245 82.136108,98.1679688 C81.8965234,97.7434875 81.7689206,97.2604194 81.7532955,96.71875 L83.229858,96.71875 C83.2767332,97.0729184 83.3730864,97.3867174 83.5189205,97.6601562 C83.6647545,97.9335951 83.8522527,98.1653636 84.0814205,98.3554688 C84.3105883,98.5455739 84.5749086,98.6888016 84.8743892,98.7851562 C85.1738699,98.8815109 85.5006895,98.9296875 85.854858,98.9296875 C86.1361094,98.9296875 86.4134504,98.8945316 86.6868892,98.8242188 C86.9603281,98.7539059 87.2038152,98.644532 87.417358,98.4960938 C87.6309007,98.3476555 87.8053781,98.1601574 87.9407955,97.9335938 C88.0762128,97.7070301 88.1439205,97.4375016 88.1439205,97.125 Z M100.533324,89.859375 L97.0176989,89.859375 L97.0176989,100 L95.6114489,100 L95.6114489,89.859375 L92.0958239,89.859375 L92.0958239,88.625 L100.533324,88.625 L100.533324,89.859375 Z M109.852415,95.6171875 L103.875852,95.6171875 L103.875852,94.4296875 L109.852415,94.4296875 L109.852415,95.6171875 Z M48.6130396,116.359375 L46.3396021,116.359375 L46.3396021,121 L44.9021021,121 L44.9021021,109.625 L48.2380396,109.625 C48.7692923,109.635417 49.2692873,109.710937 49.7380396,109.851562 C50.206792,109.992188 50.6169441,110.203124 50.9685084,110.484375 C51.3200726,110.765626 51.5961115,111.118487 51.7966334,111.542969 C51.9971552,111.96745 52.0974146,112.466143 52.0974146,113.039062 C52.0974146,113.408856 52.0440297,113.747394 51.9372584,114.054688 C51.830487,114.361981 51.6833531,114.640624 51.4958521,114.890625 C51.3083512,115.140626 51.0843951,115.361978 50.8239771,115.554688 C50.5635591,115.747397 50.2771037,115.911458 49.9646021,116.046875 L52.3786646,120.90625 L52.3708521,121 L50.8474146,121 L48.6130396,116.359375 Z M46.3396021,115.171875 L48.2771021,115.171875 C48.6000204,115.166667 48.9047048,115.115886 49.1911646,115.019531 C49.4776244,114.923177 49.7289239,114.783855 49.9450709,114.601562 C50.1612178,114.41927 50.331789,114.196616 50.4567896,113.933594 C50.5817902,113.670572 50.6442896,113.367189 50.6442896,113.023438 C50.6442896,112.658852 50.5843944,112.339845 50.4646021,112.066406 C50.3448098,111.792967 50.1781448,111.563803 49.9646021,111.378906 C49.7510594,111.194009 49.4971557,111.054688 49.2028834,110.960938 C48.9086111,110.867187 48.5869997,110.817708 48.2380396,110.8125 L46.3396021,110.8125 L46.3396021,115.171875 Z M60.9477556,118.054688 L57.1508806,118.054688 L56.2368181,121 L54.7915056,121 L58.4633806,109.625 L59.6743181,109.625 L63.2836931,121 L61.8461931,121 L60.9477556,118.054688 Z M57.5415056,116.796875 L60.5649431,116.796875 L59.0649431,111.859375 L57.5415056,116.796875 Z M73.8605965,110.859375 L70.3449715,110.859375 L70.3449715,121 L68.9387215,121 L68.9387215,110.859375 L65.4230965,110.859375 L65.4230965,109.625 L73.8605965,109.625 L73.8605965,110.859375 Z M76.859375,109.625 L83.734375,109.625 L83.734375,110.882812 L81.0078125,110.882812 L81.0078125,119.75 L83.734375,119.75 L83.734375,121 L76.859375,121 L76.859375,119.75 L79.5234375,119.75 L79.5234375,110.882812 L76.859375,110.882812 L76.859375,109.625 Z M94.928466,115.96875 C94.9232576,116.375002 94.8881017,116.785154 94.8229972,117.199219 C94.7578927,117.613283 94.6576333,118.013019 94.522216,118.398438 C94.3867986,118.783856 94.2136233,119.143227 94.0026847,119.476562 C93.7917462,119.809898 93.5404466,120.101561 93.2487785,120.351562 C92.9571103,120.601564 92.6224783,120.798176 92.2448722,120.941406 C91.8672662,121.084636 91.4440933,121.15625 90.975341,121.15625 C90.5065886,121.15625 90.0834158,121.084636 89.7058097,120.941406 C89.3282037,120.798176 88.9935716,120.601564 88.7019035,120.351562 C88.4102353,120.101561 88.1576337,119.808595 87.944091,119.472656 C87.7305482,119.136717 87.5547687,118.776044 87.4167472,118.390625 C87.2787257,118.005206 87.1758621,117.606773 87.1081535,117.195312 C87.0404448,116.783852 87.0039868,116.375002 86.9987785,115.96875 L86.9987785,114.671875 C87.0039868,114.265623 87.0391427,113.855471 87.1042472,113.441406 C87.1693517,113.027342 87.2709132,112.627606 87.4089347,112.242188 C87.5469562,111.856769 87.7214337,111.496095 87.9323722,111.160156 C88.1433108,110.824217 88.3946103,110.529949 88.6862785,110.277344 C88.9779466,110.024738 89.3125787,109.826824 89.6901847,109.683594 C90.0677908,109.540364 90.4909636,109.46875 90.959716,109.46875 C91.4284683,109.46875 91.8529432,109.540364 92.2331535,109.683594 C92.6133637,109.826824 92.9492978,110.023436 93.240966,110.273438 C93.5326341,110.523439 93.7839337,110.816405 93.9948722,111.152344 C94.2058108,111.488283 94.3802882,111.848956 94.5183097,112.234375 C94.6563312,112.619794 94.7578927,113.020831 94.8229972,113.4375 C94.8881017,113.854169 94.9232576,114.265623 94.928466,114.671875 L94.928466,115.96875 Z M93.4987785,114.65625 C93.4935701,114.385415 93.4753411,114.102866 93.444091,113.808594 C93.4128408,113.514321 93.3594559,113.222658 93.2839347,112.933594 C93.2084135,112.64453 93.1081541,112.368491 92.9831535,112.105469 C92.8581528,111.842447 92.7019044,111.610678 92.5144035,111.410156 C92.3269025,111.209634 92.1055506,111.050782 91.850341,110.933594 C91.5951314,110.816406 91.2982593,110.757812 90.959716,110.757812 C90.626381,110.757812 90.3321131,110.817708 90.0769035,110.9375 C89.8216939,111.057292 89.6003419,111.217447 89.412841,111.417969 C89.22534,111.618491 89.0690916,111.850259 88.944091,112.113281 C88.8190903,112.376303 88.7188309,112.652342 88.6433097,112.941406 C88.5677885,113.23047 88.5131015,113.522134 88.4792472,113.816406 C88.4453929,114.110679 88.4258618,114.390624 88.4206535,114.65625 L88.4206535,115.96875 C88.4258618,116.234376 88.4453929,116.515624 88.4792472,116.8125 C88.5131015,117.109376 88.5690906,117.402342 88.647216,117.691406 C88.7253414,117.98047 88.8269028,118.257811 88.9519035,118.523438 C89.0769041,118.789064 89.2331525,119.022134 89.4206535,119.222656 C89.6081544,119.423178 89.8295064,119.583333 90.084716,119.703125 C90.3399256,119.822917 90.6367976,119.882812 90.975341,119.882812 C91.3138843,119.882812 91.6120584,119.822917 91.8698722,119.703125 C92.127686,119.583333 92.349038,119.423178 92.5339347,119.222656 C92.7188315,119.022134 92.8724758,118.790366 92.9948722,118.527344 C93.1172687,118.264322 93.216226,117.988283 93.2917472,117.699219 C93.3672684,117.410155 93.4193512,117.117189 93.4479972,116.820312 C93.4766432,116.523436 93.4935701,116.239585 93.4987785,115.96875 L93.4987785,114.65625 Z M105.325682,121 L103.856932,121 L99.4428694,112.5 L99.4194319,121 L97.9584944,121 L97.9584944,109.625 L99.4272444,109.625 L103.841307,118.109375 L103.864744,109.625 L105.325682,109.625 L105.325682,121 Z" id="ILLUST--RATION" fill="#FFF399"></path>
                    <g id="Page-1" transform="translate(38.000000, 21.000000)" fill="#FFF399">
                        <path d="M72.7744565,0.669942857 L2.22635462,0.669942857 C1.22005027,0.669942857 0.401653533,1.35833143 0.401653533,2.20477714 L0.401653533,45.7928914 C0.401653533,46.6393371 1.22005027,47.3277257 2.22635462,47.3277257 L72.7711957,47.3277257 C73.7775,47.3277257 74.5958967,46.6393371 74.5958967,45.7928914 L74.5990761,2.20477714 C74.5990761,1.35833143 73.7806793,0.669942857 72.774375,0.669942857 L72.7744565,0.669942857 Z M70.9497554,3.73961143 L70.9497554,29.1165257 L56.8709511,15.4077257 C56.5334022,15.0809417 56.049375,14.8880846 55.5335054,14.8773669 C55.0208071,14.8693303 54.5240217,15.0407589 54.1673641,15.3541509 L34.1782337,33.0030651 L23.908125,24.860208 C23.210731,24.3084206 22.1280163,24.3030651 21.4242391,24.8441349 L4.05032283,38.2292777 L4.05032283,3.73990629 L70.9497554,3.73961143 Z M4.05138587,42.3885257 L22.6391576,28.0687543 L31.6603533,35.22624 L21.4285598,44.2612114 L4.05138668,44.2612114 L4.05138587,42.3885257 Z M26.4666033,44.2608686 L55.423125,18.6940114 L70.9505707,33.8146971 L70.9505707,44.2608686 L26.4666033,44.2608686 Z" id="Fill-1"></path>
                        <path d="M32.7709239,20.6866286 C33.5256359,20.6866286 34.2803804,20.5982331 35.0127717,20.4294857 C39.461413,19.3928914 42.0758967,15.5062629 40.8434511,11.7641143 C39.8435054,8.72660571 36.5253261,6.60253714 32.7772826,6.60253714 C32.0225707,6.60253714 31.2710054,6.68825143 30.5417935,6.85968 C28.3859511,7.36325486 26.5930435,8.54180571 25.4912772,10.1784 C24.3926087,11.8149943 24.1155978,13.71408 24.7142772,15.52752 C25.7142228,18.5650286 29.0260435,20.6864229 32.7709076,20.6864229 L32.7709239,20.6866286 Z M28.6694022,11.6893714 C29.2903696,10.7652343 30.3030163,10.1009829 31.5163043,9.81702857 C31.9302799,9.72060343 32.3537772,9.672384 32.7805435,9.672384 C34.8950543,9.672384 36.7642663,10.8697097 37.331087,12.5813211 C38.0252935,14.6920183 36.5508995,16.8830811 34.0415217,17.4697097 C33.6275462,17.5661417 33.2008696,17.6170286 32.7741033,17.6170286 C30.6628533,17.6170286 28.7967391,16.4197029 28.2330978,14.7054171 C27.8923614,13.6848686 28.0484022,12.61344 28.6693696,11.6893714 L28.6694022,11.6893714 Z" id="Fill-2"></path>
                    </g>
                </g>
            </g>
        </g>
    </g>
</svg>