<?xml version="1.0" encoding="UTF-8" standalone="no"?>
<svg width="60px" height="60px" viewBox="0 0 60 60" version="1.1" xmlns="http://www.w3.org/2000/svg" xmlns:xlink="http://www.w3.org/1999/xlink">
    <!-- Generator: Sketch 42 (36781) - http://www.bohemiancoding.com/sketch -->
    <title>Page 1</title>
    <desc>Created with Sketch.</desc>
    <defs></defs>
    <g id="Page-1" stroke="none" stroke-width="1" fill="none" fill-rule="evenodd">
        <g id="Contact" transform="translate(-640.000000, -435.000000)" fill="#394037">
            <g id="Page-1" transform="translate(640.000000, 435.000000)">
                <path d="M43.8872,29.2376 C43.8872,36.9064 37.6688,43.1248 30,43.1248 C22.3312,43.1248 16.116,36.9064 16.116,29.2376 C16.116,27.5032 16.4472,25.8496 17.028,24.316 L0,24.316 L0,60 L60,60 L60,24.316 L42.972,24.316 C43.5528,25.8472 43.8872,27.5 43.8872,29.2376 Z" id="Fill-19"></path>
                <path d="M38.3344,29.2344 C38.3344,33.8376 34.6032,37.5688 30,37.5688 C25.3968,37.5688 21.6656,33.8376 21.6656,29.2344 C21.6656,24.6344 25.3968,20.9032 30,20.9032 C34.6032,20.9032 38.3344,24.6344 38.3344,29.2344" id="Fill-20"></path>
                <path d="M45,2.3625546e-13 L15.7904,2.3625546e-13 L15.7904,15.6408 L12.5096,15.6408 L12.5096,3.18578738e-13 L9.228,4.48640772e-13 L9.228,15.644 L5.9504,15.644 L5.9504,0 L0,0 L2.08166817e-16,19.3936 L20.2064,19.3936 C22.7184,16.8968 26.1784,15.3504 30,15.3504 C33.8216,15.3504 37.2816,16.8936 39.7904,19.3936 L60,19.3936 L60,2.3625546e-13 L45,2.3625546e-13 Z M51.7032,14.1872 C51.7032,15.116 50.9472,15.8752 50.016,15.8752 L44.9592,15.8752 C44.028,15.8752 43.272,15.1216 43.272,14.1872 L43.272,9.128 C43.272,8.1968 44.0248,7.4408 44.9592,7.4408 L50.016,7.4408 C50.9472,7.4408 51.7032,8.1936 51.7032,9.128 L51.7032,14.1872 Z" id="Fill-21"></path>
            </g>
        </g>
    </g>
</svg>