<svg xmlns:dc="http://purl.org/dc/elements/1.1/" xmlns:cc="http://creativecommons.org/ns#" xmlns:rdf="http://www.w3.org/1999/02/22-rdf-syntax-ns#" xmlns:svg="http://www.w3.org/2000/svg" xmlns="http://www.w3.org/2000/svg" xmlns:sodipodi="http://sodipodi.sourceforge.net/DTD/sodipodi-0.dtd" xmlns:inkscape="http://www.inkscape.org/namespaces/inkscape" version="1.1" x="0px" y="0px" viewBox="0 0 100 100"><g transform="translate(0,-952.36218)"><text xml:space="preserve" style="letter-spacing:0px;word-spacing:0px;" x="152.46567" y="997.46661" font-style="normal" font-weight="normal" font-size="36.54822159px" line-height="125%" font-family="Sans" fill="#000000" fill-opacity="1" stroke="none"><tspan x="152.46567" y="997.46661"></tspan></text><path style="color:#000000;font-style:normal;font-variant:normal;font-weight:normal;font-stretch:normal;font-size:medium;line-height:normal;font-family:sans-serif;text-indent:0;text-align:start;text-decoration:none;text-decoration-line:none;text-decoration-style:solid;text-decoration-color:#000000;letter-spacing:normal;word-spacing:normal;text-transform:none;direction:ltr;block-progression:tb;writing-mode:lr-tb;baseline-shift:baseline;text-anchor:start;white-space:normal;clip-rule:nonzero;display:inline;overflow:visible;visibility:visible;opacity:1;isolation:auto;mix-blend-mode:normal;color-interpolation:sRGB;color-interpolation-filters:linearRGB;solid-color:#000000;solid-opacity:1;fill:#000000;fill-opacity:1;fill-rule:nonzero;stroke:none;stroke-width:2.5;stroke-linecap:butt;stroke-linejoin:miter;stroke-miterlimit:4;stroke-dasharray:none;stroke-dashoffset:0;stroke-opacity:1;color-rendering:auto;image-rendering:auto;shape-rendering:auto;text-rendering:auto;enable-background:accumulate" d="m 50.000001,957.36216 c -24.839287,0 -45,20.16071 -45,45.00004 0,24.8392 20.160711,45 45,45 24.673511,0 44.705465,-19.8951 44.987508,-44.5057 0.0037,-0.3265 0.0098,-0.6255 0.01249,-0.9672 L 50.472915,957.36216 Z m -1.142132,2.35208 0,42.97446 c 6.3e-5,0.6308 0.511376,1.1421 1.142132,1.1422 l 42.637214,0 c -0.779894,22.9168 -19.529169,41.247 -42.637214,41.247 -23.604778,0 -42.715736,-19.111 -42.715736,-42.7157 0,-23.21816 18.503952,-42.03675 41.573604,-42.64796 z m 2.284264,1.87203 39.960343,39.96033 -39.960343,0 z"></path><path style="" d="m 56.510272,1013.0689 c -1.705589,0 -3.064724,0.434 -4.054569,1.2563 -0.989849,0.8072 -1.484772,1.9093 -1.484771,3.3408 -10e-7,0.6853 0.114212,1.2831 0.342639,1.7703 0.243654,0.4873 0.561547,0.9062 0.942259,1.2564 0.395936,0.3502 0.839465,0.6415 1.342005,0.8851 0.517763,0.2284 1.050757,0.4303 1.598985,0.6282 0.548218,0.1827 1.029816,0.3731 1.456218,0.571 0.426389,0.1828 0.795678,0.3998 1.085026,0.6282 0.304561,0.2133 0.532986,0.4683 0.685279,0.7424 0.167504,0.2741 0.256971,0.5902 0.25698,0.9708 -9e-6,0.6396 -0.24176,1.1345 -0.713833,1.4848 -0.472089,0.3503 -1.220184,0.5139 -2.25571,0.5139 -0.989853,0 -1.840741,-0.1142 -2.541244,-0.3426 -0.70051,-0.2284 -1.273479,-0.4569 -1.684645,-0.6853 l -0.828045,2.37 c 0.18274,0.1065 0.409262,0.2341 0.713832,0.3711 0.304566,0.1219 0.673856,0.2209 1.085025,0.3427 0.426393,0.1219 0.894667,0.2379 1.427665,0.3141 0.548219,0.091 1.172584,0.1427 1.827412,0.1427 1.949231,0 3.420676,-0.394 4.425761,-1.1706 1.020293,-0.7919 1.513313,-1.9093 1.513325,-3.3408 -1.2e-5,-0.7461 -0.1009,-1.3667 -0.314086,-1.8845 -0.21321,-0.533 -0.531103,-0.9898 -0.942259,-1.3706 -0.395949,-0.3959 -0.890872,-0.7538 -1.484772,-1.0279 -0.578689,-0.2893 -1.223993,-0.5539 -1.970178,-0.828 -0.426402,-0.1523 -0.833762,-0.3179 -1.199238,-0.4854 -0.350259,-0.1675 -0.668153,-0.3445 -0.942259,-0.5425 -0.258888,-0.198 -0.447339,-0.4131 -0.599619,-0.6568 -0.13706,-0.2589 -0.199877,-0.5634 -0.199873,-0.9137 -4e-6,-0.5787 0.201772,-1.0508 0.628172,-1.3706 0.44162,-0.3198 1.050756,-0.4568 1.827411,-0.4568 0.654816,0 1.275373,0.076 1.884518,0.2284 0.624356,0.1523 1.195422,0.3674 1.713198,0.6568 l 0.913706,-2.3414 c -0.441635,-0.2589 -1.050772,-0.5006 -1.827411,-0.7139 -0.761431,-0.2284 -1.637064,-0.3426 -2.626904,-0.3426 z m -11.25,0.3712 0,10.4506 c -7e-6,1.1878 -0.215108,2.0254 -0.656726,2.5126 -0.44163,0.4873 -1.13833,0.7138 -2.112944,0.7138 -0.578684,0 -1.14975,-0.1142 -1.713198,-0.3426 -0.548225,-0.2436 -1.018402,-0.4834 -1.399112,-0.7424 l -1.027918,2.2558 c 0.395938,0.3198 0.953679,0.6243 1.684644,0.9137 0.746191,0.2741 1.621824,0.4282 2.626904,0.4282 1.081212,0 1.983496,-0.1675 2.68401,-0.4568 0.715728,-0.2893 1.273469,-0.6681 1.684645,-1.1707 0.426387,-0.5025 0.717629,-1.1003 0.885152,-1.7703 0.167503,-0.67 0.256969,-1.3934 0.25698,-2.17 l 0,-10.6219 -2.912437,0 z" fill="#000000" fill-opacity="1" stroke="none"></path></g></svg>