<?xml version="1.0" encoding="UTF-8"?>
<svg width="196px" height="212px" viewBox="0 0 196 212" version="1.1" xmlns="http://www.w3.org/2000/svg" xmlns:xlink="http://www.w3.org/1999/xlink">
    <!-- Generator: Sketch 43 (38999) - http://www.bohemiancoding.com/sketch -->
    <title>jellyfish</title>
    <desc>Created with Sketch.</desc>
    <defs>
        <linearGradient x1="50%" y1="0%" x2="50%" y2="100%" id="linearGradient-1">
            <stop stop-color="#FEE1FF" offset="0%"></stop>
            <stop stop-color="#FF269F" stop-opacity="0.750254755" offset="100%"></stop>
        </linearGradient>
        <linearGradient x1="50%" y1="0%" x2="50%" y2="100%" id="linearGradient-2">
            <stop stop-color="#FEE1FF" stop-opacity="0.396201313" offset="0%"></stop>
            <stop stop-color="#FF269F" stop-opacity="0.750254755" offset="100%"></stop>
        </linearGradient>
        <linearGradient x1="50%" y1="0%" x2="50%" y2="100%" id="linearGradient-3">
            <stop stop-color="#E9B3EC" stop-opacity="0.396201313" offset="0%"></stop>
            <stop stop-color="#FF269F" stop-opacity="0.750254755" offset="100%"></stop>
        </linearGradient>
        <path d="M34.6420397,55.394023 C61.5194843,55.394023 61.5194843,55.8070262 61.5194843,35.937768 C61.5194843,16.0685098 54.094672,0.100805473 34.6420397,0.100805473 C15.1894073,0.100805473 7.7645951,16.0685098 7.7645951,35.937768 C7.7645951,55.8070262 7.7645951,55.394023 34.6420397,55.394023 Z" id="path-4"></path>
        <path d="M22.5473044,36.0540519 C40.0409026,36.0540519 40.0409026,36.3228614 40.0409026,23.3906491 C40.0409026,10.4584368 35.2083493,0.0656107927 22.5473044,0.0656107927 C9.8862594,0.0656107927 5.05370615,10.4584368 5.05370615,23.3906491 C5.05370615,36.3228614 5.05370615,36.0540519 22.5473044,36.0540519 Z" id="path-5"></path>
        <path d="M17.1304385,27.3922642 C30.4212959,27.3922642 30.4212959,27.5964937 30.4212959,17.7711743 C30.4212959,7.94585484 26.749737,0.0498481605 17.1304385,0.0498481605 C7.51113994,0.0498481605 3.83958104,7.94585484 3.83958104,17.7711743 C3.83958104,27.5964937 3.83958104,27.3922642 17.1304385,27.3922642 Z" id="path-6"></path>
    </defs>
    <g id="Page-1" stroke="none" stroke-width="1" fill="none" fill-rule="evenodd">
        <g id="Artboard-2-Copy-6" transform="translate(-1142.000000, -814.000000)">
            <g id="jellyfish" transform="translate(1249.058965, 916.335607) rotate(8.000000) translate(-1249.058965, -916.335607) translate(1142.058965, 807.835607)">
                <g transform="translate(84.916832, 66.253362) rotate(-40.000000) translate(-84.916832, -66.253362) translate(49.916832, 9.253362)">
                    <path d="M15.6225147,55.47 C15.6225147,55.47 15.6225147,84.5516683 -7.81597009e-14,87.9984853" id="Path-5" stroke="url(#linearGradient-1)" stroke-width="5" opacity="0.502547554"></path>
                    <path d="M54.3521657,55.47 C54.3521657,55.47 54.3521657,84.5516683 69.9746804,87.9984853" id="Path-5" stroke="url(#linearGradient-1)" stroke-width="5" opacity="0.502547554"></path>
                    <path d="M31.1517049,55.47 C31.1517049,55.47 31.1517049,107.086403 15.5291902,113.204082" id="Path-5-Copy" stroke="url(#linearGradient-1)" stroke-width="5" opacity="0.502547554"></path>
                    <path d="M38.8229755,55.47 C38.8229755,55.47 38.8229755,107.086403 54.4454902,113.204082" id="Path-5-Copy" stroke="url(#linearGradient-1)" stroke-width="5" opacity="0.502547554"></path>
                    <g id="Oval-2">
                        <use fill="url(#linearGradient-2)" fill-rule="evenodd" xlink:href="#path-4"></use>
                        <path stroke="url(#linearGradient-3)" stroke-width="5" d="M34.6420397,57.894023 C35.0904207,57.894023 35.4406045,57.8941051 36.2184747,57.8943518 C52.9436753,57.8996917 56.4336873,57.6030879 59.8805853,54.9534257 C62.006419,53.3192776 63.1043083,50.9735487 63.5985017,47.5513733 C63.9590977,45.0543297 64.0194843,42.7772182 64.0194843,35.937768 C64.0194843,12.4751357 54.1705049,-2.39919453 34.6420397,-2.39919453 C15.1135745,-2.39919453 5.2645951,12.4751357 5.2645951,35.937768 C5.2645951,42.7772182 5.32498169,45.0543297 5.68557766,47.5513733 C6.17977113,50.9735487 7.27766043,53.3192776 9.40349413,54.9534257 C12.850392,57.6030879 16.3404041,57.8996917 33.0656047,57.8943518 C33.8434749,57.8941051 34.1936587,57.894023 34.6420397,57.894023 Z"></path>
                    </g>
                </g>
                <g id="jellyfish-copy" transform="translate(41.746602, 173.441288) rotate(-40.000000) translate(-41.746602, -173.441288) translate(18.746602, 136.441288)">
                    <path d="M10.168154,36.1035027 C10.168154,36.1035027 10.168154,55.0317538 -1.70530257e-13,57.2751677" id="Path-5" stroke="url(#linearGradient-1)" stroke-width="5" opacity="0.502547554"></path>
                    <path d="M35.3759431,36.1035027 C35.3759431,36.1035027 35.3759431,55.0317538 45.544097,57.2751677" id="Path-5" stroke="url(#linearGradient-1)" stroke-width="5" opacity="0.502547554"></path>
                    <path d="M20.2755663,36.1035027 C20.2755663,36.1035027 20.2755663,69.6988326 10.1074123,73.6806177" id="Path-5-Copy" stroke="url(#linearGradient-1)" stroke-width="5" opacity="0.502547554"></path>
                    <path d="M25.2685308,36.1035027 C25.2685308,36.1035027 25.2685308,69.6988326 35.4366847,73.6806177" id="Path-5-Copy" stroke="url(#linearGradient-1)" stroke-width="5" opacity="0.502547554"></path>
                    <g id="Oval-2">
                        <use fill="url(#linearGradient-2)" fill-rule="evenodd" xlink:href="#path-5"></use>
                        <path stroke="url(#linearGradient-3)" stroke-width="5" d="M22.5473044,38.5540519 C23.0668359,38.5541053 23.0668359,38.5541053 23.5730727,38.5542659 C34.7734035,38.5578418 37.0251243,38.366476 39.506151,36.4592879 C41.0971472,35.2362744 41.9066874,33.5066266 42.2579385,31.0742943 C42.5012176,29.3896424 42.5409026,27.8931661 42.5409026,23.3906491 C42.5409026,7.69503424 35.8337446,-2.43438921 22.5473044,-2.43438921 C9.26086412,-2.43438921 2.55370615,7.69503424 2.55370615,23.3906491 C2.55370615,27.8931661 2.59339112,29.3896424 2.83667028,31.0742943 C3.18792134,33.5066266 3.99746155,35.2362744 5.58845772,36.4592879 C8.06948441,38.366476 10.3212052,38.5578418 21.5215361,38.5542659 C22.0277728,38.5541053 22.0277728,38.5541053 22.5473044,38.5540519 Z"></path>
                    </g>
                </g>
                <g id="jellyfish-copy-2" transform="translate(182.586285, 177.162026) rotate(-40.000000) translate(-182.586285, -177.162026) translate(165.086285, 149.162026)">
                    <path d="M7.72531089,27.4298347 C7.72531089,27.4298347 7.72531089,41.8106776 -1.03739239e-12,43.5151236" id="Path-5" stroke="url(#linearGradient-1)" stroke-width="5" opacity="0.502547554"></path>
                    <path d="M26.8770673,27.4298347 C26.8770673,27.4298347 26.8770673,41.8106776 34.6023781,43.5151236" id="Path-5" stroke="url(#linearGradient-1)" stroke-width="5" opacity="0.502547554"></path>
                    <path d="M15.404473,27.4298347 C15.404473,27.4298347 15.404473,52.9540713 7.67916207,55.9792545" id="Path-5-Copy" stroke="url(#linearGradient-1)" stroke-width="5" opacity="0.502547554"></path>
                    <path d="M19.1979052,27.4298347 C19.1979052,27.4298347 19.1979052,52.9540713 26.9232161,55.9792545" id="Path-5-Copy" stroke="url(#linearGradient-1)" stroke-width="5" opacity="0.502547554"></path>
                    <g id="Oval-2">
                        <use fill="url(#linearGradient-2)" fill-rule="evenodd" xlink:href="#path-6"></use>
                        <path stroke="url(#linearGradient-3)" stroke-width="5" d="M17.1304385,29.8922642 C17.5249995,29.8923048 17.5249995,29.8923048 17.9095798,29.8924267 C26.6354887,29.8952126 28.3326164,29.7509798 30.3810586,28.1763233 C32.6940868,26.3982772 32.9212959,24.8249066 32.9212959,17.7711743 C32.9212959,5.55417146 27.6212647,-2.45015184 17.1304385,-2.45015184 C6.63961229,-2.45015184 1.33958104,5.55417146 1.33958104,17.7711743 C1.33958104,24.8249066 1.56679015,26.3982772 3.87981838,28.1763233 C5.92826057,29.7509798 7.62538821,29.8952126 16.3512971,29.8924267 C16.7358775,29.8923048 16.7358775,29.8923048 17.1304385,29.8922642 Z"></path>
                    </g>
                </g>
            </g>
        </g>
    </g>
</svg>