<?xml version="1.0" encoding="UTF-8" standalone="no"?>
<svg width="140px" height="140px" viewBox="0 0 140 140" version="1.1" xmlns="http://www.w3.org/2000/svg" xmlns:xlink="http://www.w3.org/1999/xlink">
    <!-- Generator: Sketch 42 (36781) - http://www.bohemiancoding.com/sketch -->
    <title>js-skill-tile</title>
    <desc>Created with Sketch.</desc>
    <defs></defs>
    <g id="Page-1" stroke="none" stroke-width="1" fill="none" fill-rule="evenodd">
        <g id="About-Copy-2" transform="translate(-351.000000, -776.000000)">
            <g id="js-skill-tile" transform="translate(351.000000, 776.000000)">
                <rect id="Rectangle-8-Copy-3" fill="#394037" x="0" y="0" width="140" height="140"></rect>
                <path d="M27.8828125,98.625 L30.078125,98.625 L30.0859375,106.507812 C30.0807291,107.049482 29.9778656,107.542967 29.7773438,107.988281 C29.5768219,108.433596 29.3020851,108.817707 28.953125,109.140625 C28.6041649,109.463543 28.1940128,109.713541 27.7226562,109.890625 C27.2512997,110.067709 26.7447944,110.15625 26.203125,110.15625 C25.6302055,110.15625 25.1093773,110.083334 24.640625,109.9375 C24.1718727,109.791666 23.7695329,109.57422 23.4335938,109.285156 C23.0976546,108.996092 22.8359384,108.632815 22.6484375,108.195312 C22.4609366,107.75781 22.3645834,107.244795 22.359375,106.65625 L24.5625,106.65625 C24.5677084,107.265628 24.7031237,107.70703 24.96875,107.980469 C25.2343763,108.253908 25.6458305,108.390625 26.203125,108.390625 C26.4531263,108.390625 26.6822906,108.342448 26.890625,108.246094 C27.0989594,108.149739 27.2760409,108.01823 27.421875,107.851562 C27.5677091,107.684895 27.6809892,107.485678 27.7617188,107.253906 C27.8424483,107.022134 27.8828125,106.773439 27.8828125,106.507812 L27.8828125,98.625 Z M37.7109375,107.625 L34.296875,107.625 L33.625,110 L31.3125,110 L35.0390625,98.625 L37.03125,98.625 L40.6875,110 L38.375,110 L37.7109375,107.625 Z M34.8359375,105.757812 L37.1953125,105.757812 L36.03125,101.570312 L34.8359375,105.757812 Z M45.484375,106.820312 L47.6328125,98.625 L50.0546875,98.625 L46.609375,110 L44.375,110 L40.9375,98.625 L43.359375,98.625 L45.484375,106.820312 Z M56.9140625,107.625 L53.5,107.625 L52.828125,110 L50.515625,110 L54.2421875,98.625 L56.234375,98.625 L59.890625,110 L57.578125,110 L56.9140625,107.625 Z M54.0390625,105.757812 L56.3984375,105.757812 L55.234375,101.570312 L54.0390625,105.757812 Z M66.828125,107.03125 C66.828125,106.828124 66.7929691,106.638022 66.7226562,106.460938 C66.6523434,106.283853 66.5325529,106.11849 66.3632812,105.964844 C66.1940096,105.811197 65.9726576,105.670574 65.6992188,105.542969 C65.4257799,105.415364 65.0859395,105.296876 64.6796875,105.1875 C64.1848934,105.052083 63.7122418,104.882814 63.2617188,104.679688 C62.8111957,104.476561 62.4140642,104.231772 62.0703125,103.945312 C61.7265608,103.658853 61.4518239,103.325523 61.2460938,102.945312 C61.0403636,102.565102 60.9375,102.127607 60.9375,101.632812 C60.9375,101.153643 61.0390615,100.718752 61.2421875,100.328125 C61.4453135,99.937498 61.7265607,99.604168 62.0859375,99.328125 C62.4453143,99.052082 62.8697892,98.8398445 63.359375,98.6914062 C63.8489608,98.542968 64.3802055,98.46875 64.953125,98.46875 C65.546878,98.46875 66.0898413,98.5546866 66.5820312,98.7265625 C67.0742212,98.8984384 67.4973941,99.1393214 67.8515625,99.4492188 C68.2057309,99.7591161 68.4817698,100.127602 68.6796875,100.554688 C68.8776052,100.981773 68.9765625,101.450518 68.9765625,101.960938 L66.8359375,101.960938 C66.8255208,101.705728 66.7799483,101.471355 66.6992188,101.257812 C66.6184892,101.04427 66.4986987,100.860678 66.3398438,100.707031 C66.1809888,100.553385 65.9830741,100.433594 65.7460938,100.347656 C65.5091134,100.261718 65.2317724,100.21875 64.9140625,100.21875 C64.6223944,100.21875 64.3632824,100.253906 64.1367188,100.324219 C63.9101551,100.394532 63.7187508,100.493489 63.5625,100.621094 C63.4062492,100.748699 63.2877608,100.899739 63.2070312,101.074219 C63.1263017,101.248699 63.0859375,101.437499 63.0859375,101.640625 C63.0859375,101.854168 63.1393224,102.046874 63.2460938,102.21875 C63.3528651,102.390626 63.5078115,102.545572 63.7109375,102.683594 C63.9140635,102.821615 64.1601548,102.947916 64.4492188,103.0625 C64.7382827,103.177084 65.0651023,103.283854 65.4296875,103.382812 C65.9505234,103.533855 66.4296853,103.718749 66.8671875,103.9375 C67.3046897,104.156251 67.680988,104.415363 67.9960938,104.714844 C68.3111995,105.014324 68.5559887,105.355467 68.7304688,105.738281 C68.9049488,106.121096 68.9921875,106.546873 68.9921875,107.015625 C68.9921875,107.515628 68.8919281,107.959633 68.6914062,108.347656 C68.4908844,108.735679 68.2135434,109.063801 67.859375,109.332031 C67.5052066,109.600262 67.0833358,109.803385 66.59375,109.941406 C66.1041642,110.079428 65.5703154,110.148438 64.9921875,110.148438 C64.6328107,110.148438 64.2747414,110.115886 63.9179688,110.050781 C63.5611961,109.985677 63.2200537,109.885417 62.8945312,109.75 C62.5690088,109.614583 62.2656264,109.445314 61.984375,109.242188 C61.7031236,109.039061 61.4596364,108.802085 61.2539062,108.53125 C61.0481761,108.260415 60.8867193,107.953127 60.7695312,107.609375 C60.6523432,107.265623 60.59375,106.885419 60.59375,106.46875 L62.75,106.46875 C62.7604167,106.812502 62.820312,107.10677 62.9296875,107.351562 C63.039063,107.596355 63.1914053,107.796874 63.3867188,107.953125 C63.5820322,108.109376 63.8164049,108.223958 64.0898438,108.296875 C64.3632826,108.369792 64.6640609,108.40625 64.9921875,108.40625 C65.2838556,108.40625 65.5429676,108.372396 65.7695312,108.304688 C65.9960949,108.236979 66.1874992,108.14323 66.34375,108.023438 C66.5000008,107.903645 66.6197912,107.759115 66.703125,107.589844 C66.7864588,107.420572 66.828125,107.234376 66.828125,107.03125 Z M78.421875,106.4375 C78.3854165,107.01042 78.2617198,107.526039 78.0507812,107.984375 C77.8398427,108.442711 77.5572934,108.833332 77.203125,109.15625 C76.8489566,109.479168 76.4270858,109.727864 75.9375,109.902344 C75.4479142,110.076824 74.906253,110.164062 74.3125,110.164062 C73.6406216,110.164062 73.0442734,110.040366 72.5234375,109.792969 C72.0026016,109.545572 71.5651059,109.199221 71.2109375,108.753906 C70.8567691,108.308592 70.5859384,107.773441 70.3984375,107.148438 C70.2109366,106.523434 70.1171875,105.835941 70.1171875,105.085938 L70.1171875,103.554688 C70.1171875,102.799475 70.2161448,102.109378 70.4140625,101.484375 C70.6119802,100.859372 70.8932273,100.322919 71.2578125,99.875 C71.6223977,99.4270811 72.0637995,99.0794283 72.5820312,98.8320312 C73.100263,98.5846342 73.6822884,98.4609375 74.328125,98.4609375 C74.9531281,98.4609375 75.5091121,98.5494783 75.9960938,98.7265625 C76.4830754,98.9036467 76.8984358,99.1562484 77.2421875,99.484375 C77.5859392,99.8125016 77.8567698,100.213539 78.0546875,100.6875 C78.2526052,101.161461 78.3776039,101.69531 78.4296875,102.289062 L76.2421875,102.289062 C76.2213541,101.950519 76.1705733,101.653647 76.0898438,101.398438 C76.0091142,101.143228 75.8919279,100.93099 75.7382812,100.761719 C75.5846346,100.592447 75.3919282,100.464844 75.1601562,100.378906 C74.9283843,100.292968 74.6510433,100.25 74.328125,100.25 C73.9895816,100.25 73.6953138,100.322916 73.4453125,100.46875 C73.1953113,100.614584 72.9882821,100.828124 72.8242188,101.109375 C72.6601554,101.390626 72.5390629,101.735675 72.4609375,102.144531 C72.3828121,102.553387 72.34375,103.018227 72.34375,103.539062 L72.34375,105.085938 C72.34375,106.205735 72.5013005,107.033851 72.8164062,107.570312 C73.131512,108.106774 73.6302049,108.375 74.3125,108.375 C74.8854195,108.375 75.33854,108.222658 75.671875,107.917969 C76.00521,107.61328 76.190104,107.119795 76.2265625,106.4375 L78.421875,106.4375 Z M83.984375,105.75 L82.3203125,105.75 L82.3203125,110 L80.125,110 L80.125,98.625 L83.9375,98.625 C84.5677115,98.625 85.1380183,98.699218 85.6484375,98.8476562 C86.1588567,98.9960945 86.5950503,99.2135402 86.9570312,99.5 C87.3190122,99.7864598 87.5976553,100.143227 87.7929688,100.570312 C87.9882822,100.997398 88.0859375,101.492185 88.0859375,102.054688 C88.0859375,102.46094 88.0377609,102.826821 87.9414062,103.152344 C87.8450516,103.477866 87.7070321,103.76953 87.5273438,104.027344 C87.3476554,104.285158 87.1315117,104.510416 86.8789062,104.703125 C86.6263008,104.895834 86.3437516,105.062499 86.03125,105.203125 L88.4765625,109.898438 L88.4765625,110 L86.125,110 L83.984375,105.75 Z M82.3203125,103.96875 L83.9453125,103.96875 C84.5651073,103.96875 85.0429671,103.811199 85.3789062,103.496094 C85.7148454,103.180988 85.8828125,102.750003 85.8828125,102.203125 C85.8828125,101.635414 85.7187516,101.194012 85.390625,100.878906 C85.0624984,100.563801 84.5781282,100.40625 83.9375,100.40625 L82.3203125,100.40625 L82.3203125,103.96875 Z M90.2109375,98.625 L96.7890625,98.625 L96.7890625,100.398438 L94.5703125,100.398438 L94.5703125,108.234375 L96.7890625,108.234375 L96.7890625,110 L90.2109375,110 L90.2109375,108.234375 L92.375,108.234375 L92.375,100.398438 L90.2109375,100.398438 L90.2109375,98.625 Z M101.664062,105.828125 L101.664062,110 L99.46875,110 L99.46875,98.625 L103.359375,98.625 C103.97917,98.625 104.53906,98.7148429 105.039062,98.8945312 C105.539065,99.0742196 105.964842,99.3242171 106.316406,99.6445312 C106.667971,99.9648454 106.938801,100.348956 107.128906,100.796875 C107.319011,101.244794 107.414062,101.742185 107.414062,102.289062 C107.414062,102.799482 107.319011,103.270831 107.128906,103.703125 C106.938801,104.135419 106.667971,104.509113 106.316406,104.824219 C105.964842,105.139324 105.539065,105.385416 105.039062,105.5625 C104.53906,105.739584 103.97917,105.828125 103.359375,105.828125 L101.664062,105.828125 Z M101.664062,104.046875 L103.359375,104.046875 C103.671877,104.046875 103.942707,104 104.171875,103.90625 C104.401043,103.8125 104.592447,103.684897 104.746094,103.523438 C104.89974,103.361978 105.014323,103.175782 105.089844,102.964844 C105.165365,102.753905 105.203125,102.533855 105.203125,102.304688 C105.203125,102.039061 105.165365,101.791668 105.089844,101.5625 C105.014323,101.333332 104.89974,101.132813 104.746094,100.960938 C104.592447,100.789062 104.401043,100.653646 104.171875,100.554688 C103.942707,100.455729 103.671877,100.40625 103.359375,100.40625 L101.664062,100.40625 L101.664062,104.046875 Z M117.289062,100.414062 L113.78125,100.414062 L113.78125,110 L111.578125,110 L111.578125,100.414062 L108.117188,100.414062 L108.117188,98.625 L117.289062,98.625 L117.289062,100.414062 Z" id="JAVASCRIPT" fill="#FFFFFF"></path>
                <g id="Page-1" transform="translate(37.000000, 16.000000)" fill="#FFFFFF">
                    <path d="M53.2802174,61.178 L13.1036232,61.178 L13.1036232,53.5305333 L8.94927536,53.5305333 L8.94927536,61.178 C8.94927536,63.2900667 10.8116667,65 13.1036232,65 L55.0794928,65 C56.3050725,65 57.2942029,64.0856667 57.2942029,62.9616 L57.2942029,53.5305333 L53.1398551,53.5305333 L53.1398551,61.178 L53.2802174,61.178 Z M56.8825362,10.7076667 L43.8599275,0.128266667 L12.2755797,0.128266667 C10.4395652,0.128266667 8.94927536,1.49933333 8.94927536,3.18933333 L8.94927536,33.1361333 L13.1036232,33.1361333 L13.1036232,3.822 L39.4257971,3.822 L39.4257971,12.7426 C39.4257971,14.8555333 41.2872464,16.5646 43.5801449,16.5646 L53.2764493,16.5646 L53.2764493,33.1326667 L57.4307971,33.1326667 L57.4307971,12.4886667 C57.4854348,11.8525333 57.2904348,11.2224667 56.8825362,10.7050667 L56.8825362,10.7076667 Z M64.3631884,34.4127333 L64.3631884,34.4127333 C64.3631884,32.3006667 62.5017391,30.5907333 60.2088406,30.5907333 L4.79492754,30.5907333 C2.49826087,30.5907333 0.64057971,32.3032667 0.64057971,34.4127333 L0.64057971,52.2574 C0.64057971,54.3694667 2.50202899,56.0794 4.79492754,56.0794 L60.2088406,56.0794 C62.5055072,56.0794 64.3631884,54.366 64.3631884,52.2574 L64.3631884,34.4127333 Z M61.5926812,52.2574 L61.5926812,52.2574 C61.5926812,52.9611333 60.970942,53.5305333 60.2088406,53.5305333 L4.79492754,53.5305333 C4.02905797,53.5305333 3.41108696,52.9576667 3.41108696,52.2574 L3.41108696,34.4127333 C3.41108696,33.709 4.03282609,33.1396 4.79492754,33.1396 L60.2088406,33.1396 C60.9747101,33.1396 61.5926812,33.7116 61.5926812,34.4127333 L61.5926812,52.2574 Z" id="Fill-1"></path>
                    <path d="M27.0984058,36.9616 L30.2843478,36.9616 L30.2843478,45.1178 C30.2843478,48.8141333 28.3456522,50.0872667 25.2981884,50.0872667 L22.9431159,49.8333333 L23.3594928,47.5384 L25.0221739,47.7923333 C26.4060145,47.7923333 27.2378261,47.281 27.2378261,45.2426 L27.2378261,36.9616 L27.0984058,36.9616 Z" id="Fill-2"></path>
                    <path d="M33.0557971,46.7731333 L33.0557971,46.7731333 C34.1334783,47.2636667 35.3185507,47.5245333 36.5186957,47.5384 C37.9015942,47.5384 38.7334058,47.0270667 38.7334058,46.1361333 C38.7334058,45.2426 38.0419565,44.8638667 36.3783333,44.3525333 C34.7156522,43.8412 32.5,42.4398 32.5,40.5305333 C32.5,38.6178 34.4396377,36.7076667 37.765942,36.7076667 C39.0018841,36.6808 40.2312319,36.8974667 41.3682609,37.3446667 L40.6768116,39.6396 C39.7715217,39.2270667 38.7776812,39.0104 37.765942,39.0034667 C36.3821014,39.0034667 35.6868841,39.6396 35.6868841,40.2766 C35.6868841,40.9127333 36.5186957,41.4240667 38.317971,42.0602 C40.1172464,42.6972 41.9202899,44.0986 41.9202899,45.8822 C41.9202899,47.6666667 40.1210145,49.8333333 36.238913,49.8333333 C34.8550725,49.8602 33.4787681,49.5993333 32.2202174,49.0680667 L33.0557971,46.7731333 Z" id="Fill-3"></path>
                </g>
            </g>
        </g>
    </g>
</svg>