<?xml version="1.0" encoding="UTF-8"?>
<svg width="262px" height="249px" viewBox="0 0 262 249" version="1.1" xmlns="http://www.w3.org/2000/svg" xmlns:xlink="http://www.w3.org/1999/xlink">
    <!-- Generator: Sketch 43 (38999) - http://www.bohemiancoding.com/sketch -->
    <title>kevin-vr</title>
    <desc>Created with Sketch.</desc>
    <defs></defs>
    <g id="Page-2" stroke="none" stroke-width="1" fill="none" fill-rule="evenodd">
        <g id="Artboard" transform="translate(-354.000000, -236.000000)">
            <g id="kevin-vr" transform="translate(354.000000, 235.000000)">
                <g id="shadow" transform="translate(0.000000, 1.000000)" fill="#00B37D">
                    <path d="M86.3760781,141.051988 C86.3760781,141.051988 86.3760781,148.984585 88.2300352,165.247699 C88.9565777,171.62101 92.9601346,176.637183 95.9482891,180.845423 C100.585166,187.375571 131.923141,211.513515 137.562281,212.754801 C143.201422,213.996086 161.811754,201.157297 168.196324,194.130464 C174.580894,187.10363 174.154266,176.375785 173.328352,172.59176 C172.502438,168.807736 168.918359,165.410001 168.918359,165.410001 L168.875375,143.863208 L86.3760781,141.051988 Z" id="Path-5"></path>
                    <path d="M85.7295041,140.904854 C96.7404297,158.962396 121.022231,167.95628 130.316344,167.95628 C139.610456,167.95628 161.707509,154.768823 169.381977,142.687653 C177.056444,130.606482 187.939412,88.4357196 175.716031,58.6058618 C163.492651,28.7760041 128.119617,31.4523013 128.119617,31.4523013 C128.119617,31.4523013 84.1978956,29.9041074 77.6834266,58.6058618 C71.1689576,87.3076162 74.7185785,122.847311 85.7295041,140.904854 Z" id="Path"></path>
                    <path d="M76.651375,87.4466604 C76.651375,87.4466604 74.408,82.9265462 71.6106895,82.9942126 C68.8133789,83.0618791 66.871918,82.0297516 65.8298027,89.9176021 C65.3696734,93.4003564 65.527784,99.9265756 67.2623594,105.491562 C68.2098381,108.53133 69.3301498,111.892776 70.4293867,114.170954 C71.5286236,116.449132 74.1268902,118.164303 74.8780137,118.164303 C77.1213887,118.164303 78.465418,116.659592 78.465418,116.659592 L78.3246953,111.101869 L77.8247461,106.765207 L77.564793,103.898369 L76.851457,98.4700837 L76.651375,93.699604 L76.651375,87.4466604 Z" id="Path-2"></path>
                    <path d="M179.76782,80.7280452 C179.76782,80.7280452 180.432799,79.1778289 182.436434,79.1778289 C184.440068,79.1778289 186.23418,81.8006065 187.388848,87.493177 C188.543515,93.1857476 188.226531,100.121423 187.388848,103.593483 C186.551164,107.065543 183.666094,113.375874 181.865867,114.754939 C180.065641,116.134005 177.360184,116.028078 176.961043,114.544098 C176.561902,113.060117 176.862793,111.868382 176.862793,111.868382 L177.517025,103.593483 L178.424047,91.3833806 L178.794787,84.5628839 L179.76782,80.7280452 Z" id="Path-3"></path>
                    <path d="M181.317305,77.1639634 C183.936929,64.104167 185.076763,46.9642712 179.348211,32.2390386 C178.689407,30.5455852 176.771319,23.3556953 175.957562,21.9012295 C171.966156,14.7671942 165.060806,14.2597043 160.883352,11.4410615 C156.705898,8.62241873 155.435273,3.54823033 152.838109,2.98312988 C149.642203,2.2877526 135.284109,2.98312988 135.284109,2.98312988 C135.284109,2.98312988 121.571517,-0.23589403 118.501781,0.521794922 C110.670706,2.45470368 96.1458125,14.2664395 96.1458125,14.2664395 L96.9338594,6.07749512 L83.9495078,20.179104 L83.9495078,14.2664395 L75.6565937,24.6467202 C75.6565937,24.6467202 66.6542722,43.6908218 66.8345625,53.2119585 C67.0148528,62.7330952 70.8904453,83.2616831 74.4755469,85.2871777 C78.0606484,87.3126724 74.6751144,77.8912581 76.79875,66.5298638 C78.1345223,59.3835172 78.3649171,51.1171028 85.8142109,45.6196401 C105.413039,31.1560107 109.756797,33.5090599 126.288094,32.2390386 C173.831883,28.5864741 178.396414,91.7256821 181.317305,77.1639634 Z" id="Path-6"></path>
                    <path d="M176.815715,22.6364602 C182.175457,24.6950415 181.313211,25.0733387 181.313211,25.0733387 L178.478289,27.5704393 L182.745,30.0929859 L186.432445,32.4492853 L180.23809,34.4646084 L181.817254,37.9854863 L180.173102,42.4555 C180.173102,42.4555 171.455973,20.577879 176.815715,22.6364602 Z" id="Path-7"></path>
                    <path d="M85.9472656,150.667969 C89.3706641,147.812254 83.7611953,165.628427 101.158609,181.821261 C118.556023,198.014094 153.92807,189.886835 160.628516,179.181949 C167.328961,168.477063 165.466453,144.389561 169.226562,146.158203 C179.23247,150.86468 269.4375,193.40625 261.304062,213.895469 C258.733283,220.371606 245.09137,232.947251 222.923109,239.910384 C187.310292,251.096501 76.9725726,251.113806 41.9220469,239.910384 C6.87152118,228.706962 -0.636463605,219.383313 0.7123125,213.895469 C7.87890625,184.736328 82.5238672,153.523684 85.9472656,150.667969 Z" id="Path-8"></path>
                    <path d="M128.904,132.544 C137.288,132.544 145.672,140.828 145.672,140.828 C145.672,140.828 134.50425,138.774191 128.904,138.774191 C123.30375,138.774191 112.136,140.828 112.136,140.828 C112.136,140.828 120.52,132.544 128.904,132.544 Z" id="Triangle" transform="translate(128.904000, 136.686000) scale(1, -1) translate(-128.904000, -136.686000) "></path>
                    <path d="M174.582635,69.8660333 C144.281572,60.9226838 111.7334,60.9412988 81.5036736,69.8660333 C77.7842371,70.9660887 75.6821289,73.3526207 75.0703386,77.1749158 C72.8229206,91.2144997 73.6588633,105.253447 75.0703386,114.067764 C75.6821754,117.883695 77.7902852,120.276448 81.5036736,121.376647 C86.5800593,122.87446 91.7595732,124.136132 96.8965952,125.130527 C99.8043435,125.702312 102.784824,124.757621 104.850489,122.63213 L118.220083,108.92189 C123.641831,103.353278 132.449905,103.347073 137.871809,108.92189 L151.235355,122.63213 C153.307067,124.757589 156.317789,125.696139 159.195296,125.136732 C164.332318,124.142337 169.511677,122.880649 174.588218,121.382852 C178.307654,120.282796 180.415811,117.896264 181.021553,114.073969 C182.857079,102.613607 182.978196,89.3763805 181.021553,77.1811208 C180.409716,73.3589848 178.301606,70.9662319 174.58217,69.8660333 L174.582635,69.8660333 Z" id="Page-1"></path>
                    <polygon id="Page-1" points="131 244.487213 149.864 226.706722 138.86 226.706722 138.86 203.9935 123.14 203.9935 123.14 226.706722 112.136 226.706722"></polygon>
                </g>
                <g id="main-body" transform="translate(6.000000, 3.000000)">
                    <path d="M82.4199219,136.216309 C82.4199219,136.216309 82.4199219,143.876953 84.1889648,159.58252 C84.8822307,165.737335 88.7024185,170.581539 91.5537109,174.645508 C95.9782118,180.951783 125.880859,204.262207 131.261719,205.460938 C136.642578,206.659668 154.400529,194.261031 160.492676,187.475098 C166.584822,180.689165 166.177734,170.329102 165.389648,166.674805 C164.601563,163.020508 161.181641,159.739258 161.181641,159.739258 L161.140625,138.931152 L82.4199219,136.216309 Z" id="Path-5" fill="#E6B98A"></path>
                    <path d="M81.8029619,136.074219 C92.3095703,153.512695 115.479228,162.198242 124.347656,162.198242 C133.216084,162.198242 154.301058,149.462891 161.624023,137.795898 C168.946989,126.128906 179.3315,85.4038818 167.667969,56.5966797 C156.004438,27.7894776 122.251543,30.3740234 122.251543,30.3740234 C122.251543,30.3740234 80.3415034,28.8789062 74.125407,56.5966797 C67.9093107,84.3144531 71.2963535,118.635742 81.8029619,136.074219 Z" id="Path" fill="#F1C190"></path>
                    <path d="M73.140625,84.4487305 C73.140625,84.4487305 71,80.0835791 68.3308105,80.1489258 C65.6616211,80.2142725 63.809082,79.2175293 62.8146973,86.8349609 C62.3756426,90.1983162 62.5265115,96.5007973 64.1816406,101.875 C65.0857234,104.810556 66.1547231,108.056761 67.2036133,110.256836 C68.2525034,112.456911 70.7317655,114.113281 71.4484863,114.113281 C73.5891113,114.113281 74.871582,112.660156 74.871582,112.660156 L74.7373047,107.292969 L74.2602539,103.10498 L74.012207,100.336426 L73.331543,95.0942383 L73.140625,90.4873047 L73.140625,84.4487305 Z" id="Path-2" fill="#E9BA8A"></path>
                    <path d="M171.53418,77.9604492 C171.53418,77.9604492 172.168701,76.4633789 174.080566,76.4633789 C175.992432,76.4633789 177.70437,78.9962399 178.806152,84.4936523 C179.907934,89.9910648 179.605469,96.6889648 178.806152,100.041992 C178.006836,103.39502 175.253906,109.489014 173.536133,110.820801 C171.818359,112.152588 169.236816,112.050293 168.855957,110.617188 C168.475098,109.184082 168.762207,108.033203 168.762207,108.033203 L169.386475,100.041992 L170.251953,88.2504883 L170.605713,81.6638184 L171.53418,77.9604492 Z" id="Path-3" fill="#E9BA8A"></path>
                    <path d="M173.012695,74.5185547 C175.512337,61.9064867 176.599965,45.3541972 171.133789,31.1337891 C170.50516,29.4983923 168.674922,22.554993 167.898437,21.1503906 C164.089844,14.2609312 157.500769,13.7708395 153.514648,11.0488281 C149.528528,8.32681674 148.3161,3.42658651 145.837891,2.88085937 C142.788361,2.20932168 129.087891,2.88085937 129.087891,2.88085937 C129.087891,2.88085937 116.003356,-0.227806885 113.074219,0.50390625 C105.601818,2.37054918 91.7421875,13.7773437 91.7421875,13.7773437 L92.4941406,5.86914062 L80.1044922,19.4873047 L80.1044922,13.7773437 L72.1914062,23.8017578 C72.1914062,23.8017578 63.6014048,42.1929714 63.7734375,51.3876953 C63.9454702,60.5824193 67.6435547,80.4072266 71.0644531,82.3632812 C74.4853516,84.3193359 71.2548801,75.2209156 73.28125,64.2490234 C74.5558419,57.3476747 74.7756843,49.3646574 81.8837891,44.0556641 C100.584961,30.0878906 104.729768,32.3602703 120.503906,31.1337891 C165.870117,27.6064453 170.225586,88.5810547 173.012695,74.5185547 Z" id="Path-6" fill="#000000"></path>
                    <path d="M168.717285,21.8604155 C173.831543,23.8484225 173.008789,24.2137505 173.008789,24.2137505 L170.303711,26.6252431 L174.375,29.0613094 L177.893555,31.3368279 L171.98291,33.2830598 L173.489746,36.6832316 L171.920898,41 C171.920898,41 163.603027,19.8724085 168.717285,21.8604155 Z" id="Path-7" fill="#000000"></path>
                    <path d="M82.4921875,151.921875 C85.7587891,149.164063 79.9248047,159.950195 96.5253906,175.587891 C113.125977,191.225586 146.87793,183.376953 153.271484,173.039062 C159.665039,162.701172 160.954322,150.853237 160.865234,147.828125 C160.734612,143.392651 160.865234,146.120117 164.453125,147.828125 C174.000747,152.37325 249.335937,190.06531 249.335937,206.5625 C249.335937,212.891804 233.865811,224.961131 212.712891,231.685547 C178.731195,242.488171 73.4471112,242.504882 40.0019531,231.685547 C6.55679502,220.866211 -0.686509767,211.859101 0.6796875,206.5625 C4.67773437,191.0625 79.2255859,154.679688 82.4921875,151.921875 Z" id="Path-8" fill="#394037"></path>
                    <path d="M123,128 C131,128 139,136 139,136 C139,136 128.34375,134.016602 123,134.016602 C117.65625,134.016602 107,136 107,136 C107,136 115,128 123,128 Z" id="Triangle" fill="#121212" transform="translate(123.000000, 132.000000) scale(1, -1) translate(-123.000000, -132.000000) "></path>
                    <path d="M166.586484,67.4708193 C137.673255,58.8340741 106.61584,58.852051 77.7706809,67.4708193 C74.2216002,68.5331615 72.2157718,70.8378761 71.6320025,74.5291316 C69.4875197,88.0873971 70.2851749,101.645048 71.6320025,110.157184 C72.2158162,113.842294 74.2273713,116.153016 77.7706809,117.215496 C82.6145604,118.66196 87.5568447,119.880379 92.4585832,120.840683 C95.2331522,121.392866 98.0771224,120.480561 100.048176,118.427938 L112.805422,105.187725 C117.978847,99.810022 126.383497,99.8040297 131.557069,105.187725 L144.308545,118.427938 C146.285369,120.480531 149.158195,121.386904 151.903909,120.846675 C156.805647,119.886371 161.747783,118.667937 166.591811,117.221489 C170.140892,116.159146 172.152491,113.854432 172.730489,110.163176 C174.481945,99.0957094 174.597515,86.3122941 172.730489,74.5351239 C172.146676,70.844022 170.135121,68.5332998 166.58604,67.4708193 L166.586484,67.4708193 Z" id="Page-1" fill="#222222"></path>
                    <polygon id="Page-1-Copy" fill="#00B37D" points="125 236.859375 149 214.860897 134.166667 214.860897 134.166667 193 115.833333 193 115.833333 214.860897 101 214.860897"></polygon>
                    <polygon id="Page-1" fill="#FFFFFF" points="125 234.105469 143 216.934545 132.5 216.934545 132.5 195 117.5 195 117.5 216.934545 107 216.934545"></polygon>
                </g>
            </g>
        </g>
    </g>
</svg>