<?xml version="1.0" encoding="UTF-8" standalone="no"?>
<svg width="214px" height="466px" viewBox="0 0 214 466" version="1.1" xmlns="http://www.w3.org/2000/svg" xmlns:xlink="http://www.w3.org/1999/xlink">
    <!-- Generator: Sketch 41.2 (35397) - http://www.bohemiancoding.com/sketch -->
    <title>kevin-fullbody</title>
    <desc>Created with Sketch.</desc>
    <defs>
        <ellipse id="path-1" cx="181.5" cy="87.5" rx="13.5" ry="18.5"></ellipse>
        <mask id="mask-2" maskContentUnits="userSpaceOnUse" maskUnits="objectBoundingBox" x="0" y="0" width="27" height="37" fill="white">
            <use xlink:href="#path-1"></use>
        </mask>
        <ellipse id="path-3" cx="13.5" cy="86.5" rx="13.5" ry="18.5"></ellipse>
        <mask id="mask-4" maskContentUnits="userSpaceOnUse" maskUnits="objectBoundingBox" x="0" y="0" width="27" height="37" fill="white">
            <use xlink:href="#path-3"></use>
        </mask>
        <path d="M152.202431,25.3748108 C149.756564,21.0616646 146.4382,17.3738968 146.434259,17.3699989 C142.428807,11.5641227 160.674089,2.00935159 159.444674,2.56479796 L141.696953,10.8029446 C134.844536,3.83550333 124.798396,0.224127481 111.911203,0.224127481 C98.9905155,0.224127481 86.9721879,3.87837989 82.8426117,5.27771495 C78.7110653,3.87837989 66.6848568,0.224127481 53.7602291,0.224127481 C40.723299,0.224127481 30.6062314,3.92515433 23.7459336,11.0446125 L17.1107639,5.27771495 L12.2558449,11.0446125 C8.29570745,9.20871608 7.33008018,27.8970502 6.7961512,28.5070667 C0.170309278,37.2363449 0.522290712,30.5827086 2.46886574,39.0449827 C5.18776608,50.8828116 1.74845361,48.0334427 6.7961512,51.122504 C-3.77209622,79.7387111 -1.73664077,112.147777 12.2558449,137.023978 C19.1929812,149.354887 62.9887285,174.301673 82.8426117,174.301673 C102.698465,174.301673 145.267264,149.356836 152.202431,137.023978 C166.255993,112.042534 169.327285,79.4346773 158.725544,50.7463596 C163.964353,47.4370687 156.111065,50.4287098 158.725544,39.0449827 C160.469187,31.4402398 155.902207,31.8991565 152.202431,25.3748108 Z" id="path-5"></path>
        <mask id="mask-6" maskContentUnits="userSpaceOnUse" maskUnits="objectBoundingBox" x="0" y="0" width="164.955734" height="174.077546" fill="white">
            <use xlink:href="#path-5"></use>
        </mask>
        <ellipse id="path-7" cx="180" cy="323" rx="10" ry="8"></ellipse>
        <mask id="mask-8" maskContentUnits="userSpaceOnUse" maskUnits="objectBoundingBox" x="0" y="0" width="20" height="16" fill="white">
            <use xlink:href="#path-7"></use>
        </mask>
        <ellipse id="path-9" cx="33" cy="322" rx="10" ry="8"></ellipse>
        <mask id="mask-10" maskContentUnits="userSpaceOnUse" maskUnits="objectBoundingBox" x="0" y="0" width="20" height="16" fill="white">
            <use xlink:href="#path-9"></use>
        </mask>
        <ellipse id="path-11" cx="19" cy="324" rx="19" ry="18"></ellipse>
        <mask id="mask-12" maskContentUnits="userSpaceOnUse" maskUnits="objectBoundingBox" x="0" y="0" width="38" height="36" fill="white">
            <use xlink:href="#path-11"></use>
        </mask>
        <ellipse id="path-13" cx="195" cy="324" rx="19" ry="18"></ellipse>
        <mask id="mask-14" maskContentUnits="userSpaceOnUse" maskUnits="objectBoundingBox" x="0" y="0" width="38" height="36" fill="white">
            <use xlink:href="#path-13"></use>
        </mask>
    </defs>
    <g id="Page-2" stroke="none" stroke-width="1" fill="none" fill-rule="evenodd">
        <g id="Desktop" transform="translate(-593.000000, -453.000000)">
            <g id="kevin-fullbody" transform="translate(593.000000, 453.000000)">
                <g id="kevin-man" transform="translate(7.000000, 0.000000)">
                    <g id="man">
                        <g id="noun_610244" transform="translate(50.000000, 308.000000)" fill="#000000">
                            <path d="M99.725,106.831388 L99.725,2.16861194 C99.725,1.27058209 98.5826,0.541746269 97.175,0.541746269 L2.825,0.541746269 C1.4174,0.541746269 0.275,1.27058209 0.275,2.16861194 L0.275,106.831388 C0.275,107.729418 1.4174,108.458254 2.825,108.458254 L37.25,108.458254 C38.54795,108.458254 39.63935,107.836791 39.7847,107.013597 L50.2142,47.7566418 L60.2153,107.005463 C60.35555,107.83191 61.44695,108.458254 62.75,108.458254 L97.175,108.458254 C98.5826,108.458254 99.725,107.729418 99.725,106.831388 Z M94.625,17.6384776 C86.567,16.2621493 79.7738,11.5491194 77.11925,9.48950746 L94.625,9.48950746 L94.625,17.6384776 Z M75.9386,9.48950746 C78.2489,11.3652836 85.56995,16.7876269 94.625,18.2452985 L94.625,19.2149104 C90.6725,18.9334627 82.2218,17.3505224 73.79915,9.48950746 L75.9386,9.48950746 Z M56.38775,28.6198209 C56.3597,28.8784925 55.9415,31.016194 50.51255,31.2764925 C50.4488,31.2732388 50.3927,31.2553433 50.32895,31.2553433 L50.32895,9.48950746 L56.3852,9.48950746 L56.38775,28.6198209 Z M5.375,9.48950746 L22.64105,9.48950746 C20.01455,11.5279701 13.331,16.1629104 5.375,17.5912985 L5.375,9.48950746 Z M5.375,18.1997463 C14.31785,16.6851343 21.52925,11.3506418 23.8217,9.48950746 L25.9637,9.48950746 C17.7068,17.1943433 9.4244,18.8683881 5.375,19.1970149 L5.375,18.1997463 L5.375,18.1997463 Z M34.9703,105.204522 L5.375,105.204522 L5.375,20.8336418 C9.9497,20.5050149 19.73405,18.6455075 29.00585,9.48950746 L47.77895,9.48950746 L47.77895,32.1224627 C47.77895,32.2249552 47.81465,32.3193134 47.8682,32.408791 C47.8223,32.5047761 47.74835,32.591 47.7305,32.6934925 L34.9703,105.204522 Z M65.0399,105.204522 L52.7999,32.7016269 C52.7999,32.7 52.7999,32.6983731 52.79735,32.6967463 C58.62155,31.8133582 58.9301,28.7320746 58.9352,28.6653731 L58.9352,9.48950746 L70.757,9.48950746 C80.19455,18.8098209 90.1625,20.5684627 94.625,20.8499104 L94.625,105.204522 L65.0399,105.204522 Z" id="Shape"></path>
                        </g>
                        <g id="noun_657465" transform="translate(0.000000, 176.000000)" fill="#000000">
                            <path d="M197.906667,121.078746 C197.893333,120.97905 197.871111,120.881043 197.848889,120.783037 C195.477778,111.710682 174.322222,31.8472642 161.982222,21.5396906 C155.026667,15.7302746 145.82,13.7025552 140.806667,13.0063715 L137.973333,3.37470441 C137.711111,2.48757718 136.991111,1.71704381 135.973333,1.23883999 C134.955556,0.760636167 133.726667,0.617006043 132.566667,0.833296111 C132.373333,0.868781201 113.548889,4.39025388 100.222222,4.39025388 C85.8266667,4.39025388 65.7133333,0.858642604 65.5111111,0.823157514 C64.3266667,0.610246978 63.0844444,0.779223594 62.0733333,1.28446368 C61.0577778,1.78801399 60.3577778,2.58558362 60.1333333,3.49298805 L57.7844444,13.0181999 C52.2311111,13.7481789 41.9977778,15.8333503 37.0622222,21.5650371 C23.3444444,37.499532 3.22,117.009789 2.37333333,120.387631 C2.35333333,120.460291 2.33777778,120.532951 2.32666667,120.605611 L0.78,130.075061 C0.54,131.548537 1.58888889,132.966251 3.36888889,133.574566 L19.7488889,139.166003 C21.68,139.823322 23.9511111,139.358636 25.18,138.052447 L31.9355556,130.894597 C32.2177778,130.595509 48.7022222,89.6119203 48.7022222,89.6119203 C49.08,97.6366198 49.3311111,105.804949 49,109.133789 C47.7866667,121.306864 45.1977778,142.36304 45.1711111,142.574261 C45.0533333,143.52222 45.4688889,144.46173 46.3111111,145.164673 C47.1533333,145.867615 48.3466667,146.26809 49.5977778,146.26809 L92.6888889,146.26809 C94.2955556,146.26809 95.7777778,145.609081 96.5644444,144.542839 L99.4577778,140.625961 L102.317778,144.5327 C103.102222,145.604012 104.586667,146.26809 106.2,146.26809 L148.973333,146.26809 C150.217778,146.26809 151.402222,145.872685 152.244444,145.176501 C153.086667,144.480317 153.506667,143.549256 153.402222,142.606367 C153.375556,142.373179 150.844444,119.231831 150.4,109.867147 C150.244444,106.578862 150.333333,98.856631 150.484444,91.0634295 C150.484444,91.0634295 166.568889,130.756037 166.957778,131.104128 L174.915556,138.261978 C176.195556,139.411019 178.315556,139.781078 180.131111,139.162623 L196.588889,133.540771 C198.344444,132.940904 199.395556,131.550227 199.186667,130.093648 L197.906667,121.078746 Z M130.271111,8.16519147 L132.535556,15.8553173 C132.533333,15.8958717 132.551111,15.9330465 132.551111,15.9752907 C128.548889,16.7120287 120.686667,17.2764106 112.56,17.548463 L130.204444,8.17701984 C130.224444,8.17195054 130.248889,8.16857101 130.271111,8.16519147 Z M119.528889,9.72315587 L103.913333,18.0165282 C103.78,18.0874984 103.662222,18.1652276 103.555556,18.2530954 C103.28,18.4795241 103.082222,18.7650946 103.002222,19.0861502 L103.002222,19.0861502 C102.993333,19.123325 102.984444,19.1588101 102.977778,19.195985 L99.4511111,39.5525979 L95.9577778,19.2432984 C95.9511111,19.2078133 95.9444444,19.174018 95.9355556,19.1402227 C95.8511111,18.7870615 95.6244444,18.4761446 95.3088889,18.2412671 C95.3066667,18.2412671 95.3066667,18.2412671 95.3066667,18.2395773 L95.3044444,18.2395773 C95.2577778,18.2040922 95.2066667,18.1702969 95.1555556,18.1381913 L95.1555556,18.1381913 C95.1511111,18.1365016 95.1488889,18.1348118 95.1488889,18.1348118 C95.0977778,18.1010165 95.0422222,18.0722905 94.9866667,18.0435644 L78.7066667,9.6217699 C85.4155556,10.4311679 93.3177778,11.1510083 100.224444,11.1510083 C106.377778,11.1493185 113.415556,10.4903097 119.528889,9.72315587 Z M66.1733333,15.6728225 L68.0177778,8.18039937 L86.1777778,17.5754992 C78.0377778,17.288239 70.1822222,16.7137185 66.1777778,15.9702214 C66.1755556,15.8992512 66.1888889,15.8299708 66.1822222,15.7573108 C66.18,15.7302746 66.1777778,15.7015485 66.1733333,15.6728225 Z M20.0755556,131.866213 L10.0044444,128.427539 L10.7111111,124.108496 L23.4,128.34643 L20.0755556,131.866213 Z M48.1933333,56.1190653 L47.4933333,69.4158352 L25.1533333,125.23895 L11.36,120.632647 C18.5711111,92.1668468 34.4088889,36.9858431 44.5,25.2622455 C47.8911111,21.320021 63.5866667,19.1250148 64.0355556,18.9205531 C67.9022222,19.8634426 75.2533333,20.7573289 89.3844444,21.0648663 C85.9822222,24.7147612 80.5533333,30.0949767 81.1088889,36.5008802 C81.3866667,39.7012973 89.5355556,52.5891438 85.6,65.2657695 C85.3177778,66.1731739 86.1133333,67.0755091 87.3133333,67.2681424 C88.5288889,67.4624655 89.6911111,66.8761167 89.9488889,65.9636429 C94.0933333,51.2694364 85.9,40.4431046 85.5177778,35.2572123 C85.3222222,32.6008999 88.7844444,27.7242348 92.2622222,23.8394624 L97.2177778,52.6398368 L97.2177778,129.465055 L55.6622222,129.465055 C56.4266667,122.932419 57.2911111,115.330161 57.8577778,109.644098 C58.6422222,101.798514 56.5244444,70.8910011 56.4333333,69.5797425 C56.4244444,69.4631486 56.4088889,69.3482445 56.3866667,69.2350302 L54.8177778,55.5344062 C54.6066667,53.6756634 54.7266667,52.3137119 52.2266667,52.4607216 C49.7888889,52.6212493 48.4022222,53.8040857 48.1933333,56.1190653 Z M90.0888889,139.507335 L54.4711111,139.507335 C54.6844444,137.73984 54.9622222,135.434999 55.2688889,132.844587 L95.0111111,132.844587 L90.0888889,139.507335 Z M108.813333,139.507335 L103.933333,132.844587 L143.46,132.844587 C143.72,135.416412 143.962222,137.728012 144.151111,139.507335 L108.813333,139.507335 Z M151.08,69.4209045 L150.377778,56.1190653 C150.173333,54.0406529 148.78,52.6212493 146.335556,52.4590318 C143.886667,52.3103324 143.957778,53.6739737 143.746667,55.5327164 C143.746667,55.5327164 141.146667,102.212507 141.517778,110.107094 C141.74,114.780987 142.446667,122.597846 143.124444,129.463365 L101.666667,129.463365 L101.666667,52.6415265 L106.373333,25.4734662 C109.624444,31.8151586 113.773333,43.5370665 109.935556,57.4607396 C109.684444,58.3749031 110.451111,59.2687894 111.653333,59.4614228 C112.853333,59.6540561 114.031111,59.069397 114.284444,58.1552335 C119.153333,40.4937976 112.137778,26.4585999 108.737778,21.0428994 C123.371111,20.7759163 130.873333,19.8972379 134.768889,18.9442098 C134.811111,18.9627972 134.842222,18.9915233 134.884444,19.0084209 C135.684444,19.3717206 149.282222,20.9719292 155.406667,26.0919207 C163.342222,32.7208733 179.926667,87.1381027 188.788889,120.813452 L173.788889,125.908097 L151.08,69.4209045 Z M179.544444,131.954081 L176.073333,128.831393 L189.424444,124.29775 L190.004444,128.381915 L179.544444,131.954081 Z M62.7955556,107.435574 C62.2688889,106.59238 62.7422222,105.58359 63.8511111,105.184805 L84.6488889,97.685623 C85.7622222,97.2834587 87.0844444,97.6450686 87.6088889,98.488262 C88.1355556,99.3314553 87.6622222,100.340246 86.5533333,100.73903 L65.7555556,108.238213 C65.4466667,108.349737 65.1244444,108.40212 64.8044444,108.40212 C63.9711111,108.40043 63.1755556,108.04389 62.7955556,107.435574 Z M136.831111,107.396709 C136.462222,108.026992 135.651111,108.40043 134.797778,108.40043 C134.495556,108.40043 134.191111,108.353117 133.897778,108.25511 L111.7,100.755928 C110.577778,100.375731 110.075556,99.3787687 110.571111,98.5254368 C111.071111,97.6737947 112.386667,97.2919075 113.504444,97.6670356 L135.702222,105.166218 C136.824444,105.544725 137.328889,106.543377 136.831111,107.396709 Z" id="Shape"></path>
                        </g>
                        <g id="tiger" transform="translate(1.096296, 34.006920)" fill="#FFFFFF">
                            <use id="Oval-4" stroke="#070707" mask="url(#mask-2)" stroke-width="10" xlink:href="#path-1"></use>
                            <use id="Oval-4" stroke="#070707" mask="url(#mask-4)" stroke-width="10" xlink:href="#path-3"></use>
                            <g id="Group" transform="translate(15.000000, 0.000000)" stroke="#000000" stroke-width="16">
                                <use id="Shape" mask="url(#mask-6)" xlink:href="#path-5"></use>
                            </g>
                        </g>
                        <g id="glasses" transform="translate(15.096296, 81.868512)" fill="#000000">
                            <g id="Group">
                                <g>
                                    <g id="Shape">
                                        <path d="M164.963486,6.24454947 C164.407599,5.98855034 151.103358,0 127.163137,0 C113.905221,0 106.706478,2.03884991 100.360096,3.8582722 C95.1254889,5.34855269 90.595006,6.62854817 83.4518519,6.62854817 C76.2994329,6.62854817 71.7782148,5.34855269 66.5436076,3.8582722 C60.1972256,2.03884991 52.9984826,0 39.7405663,0 C15.8003454,0 2.4961051,5.98855034 1.94021761,6.24454947 C1.22682868,6.56454829 0.75432433,7.25026024 0.698735568,8.02740043 L0.00387622725,18.2765072 C-0.0517125163,19.1816468 0.494910169,20.0410724 1.36580055,20.3884998 C2.2830149,20.74507 3.3392011,21.4490675 3.48743777,21.7507807 C3.60788005,22.1164937 3.83023504,23.250204 4.17303233,24.8684839 C5.25701291,30.089037 7.26747263,39.8170028 9.7319072,46.290123 C12.5761982,53.7780966 15.6057849,56.996371 22.6655558,60.0317889 C26.881036,61.851211 33.3849195,62.9757785 39.6571833,62.9757785 C45.7812103,62.9757785 51.4883218,61.9152109 56.1485117,59.9129321 C68.2946532,54.6832362 71.2037977,46.7472642 74.9004494,36.7084424 C75.4378073,35.2181619 75.9103117,33.8741665 76.3272273,32.6673137 C78.9028393,25.2890539 79.3846085,24.3382001 83.4518519,24.3382001 C87.5190952,24.3382001 88.0101292,25.2890539 90.5764764,32.6673137 C91.0026568,33.8833093 91.4658964,35.2181619 92.012519,36.6992996 C95.6906412,46.7472642 98.5905209,54.6832362 110.745927,59.9129321 C115.415382,61.9152109 121.122493,62.9757785 127.24652,62.9757785 C133.509519,62.9757785 140.022668,61.851211 144.247413,60.0317889 C151.297919,56.996371 154.318241,53.7780966 157.171797,46.290123 C159.617701,39.8535741 161.628161,30.1530369 162.712142,24.9507693 C163.064204,23.2959181 163.295824,22.1347792 163.397736,21.7964949 C163.573767,21.4490675 164.629954,20.74507 165.537903,20.3884998 C166.408794,20.0410724 166.955416,19.1816468 166.899827,18.2765072 L166.204968,8.02740043 C166.149379,7.25026024 165.66761,6.56454829 164.963486,6.24454947 L164.963486,6.24454947 L164.963486,6.24454947 Z M62.6523954,42.578136 C58.844566,50.468394 50.8490511,54.4729514 38.8974702,54.4729514 C29.3084113,54.4729514 23.4252688,52.3152447 19.8212648,47.487833 C16.3377034,42.8067065 12.1222232,22.8113484 14.8738663,16.6307986 C17.5143319,10.7245337 29.6975324,8.61254117 40.240865,8.61254117 C51.3122907,8.61254117 64.4590297,10.8982474 67.1458192,15.8993727 C69.9067269,21.0284975 68.2297998,31.0033196 62.6523954,42.578136 L62.6523954,42.578136 L62.6523954,42.578136 Z M147.082439,47.4786903 C143.478435,52.3152447 137.595292,54.4729514 128.006233,54.4729514 C116.054653,54.4729514 108.059138,50.468394 104.251308,42.578136 C98.6831688,31.0033196 96.9969768,21.0376402 99.7486199,15.8993727 C102.444674,10.8982474 115.591413,8.62168396 126.672104,8.62168396 C137.196906,8.62168396 149.389372,10.7245337 152.029837,16.6307986 C154.78148,22.8113484 150.566,42.8067065 147.082439,47.4786903 L147.082439,47.4786903 L147.082439,47.4786903 Z"></path>
                                    </g>
                                </g>
                            </g>
                        </g>
                        <g transform="translate(10.000000, 0.000000)" id="Shape" fill="#000000">
                            <path d="M5.86934553,96.7101753 C7.25601838,98.8841902 13.8911219,113.47845 15.7435163,113.865957 C15.7435163,91.5964797 33.3045519,72.1816033 35.8999904,47.1661894 C36.308143,56.2166992 86.1552651,69.8751745 94.3911381,70.2627274 C122.867639,71.586042 154.363258,92.655048 166.718071,116.559803 C169.0571,121.087422 171.354263,130.487654 171.354263,135.412284 C171.354263,114.948216 174.127608,55.488792 168.178,40.3984185 C150.569872,-4.301202 102.308569,-1.0685147 60.2480433,1.80968586 C49.7930685,2.52332939 37.7263762,9.83935898 32.545981,3.01484571 C32.545981,5.51023589 33.6605521,9.49906347 33.1529792,10.8223871 C26.7481361,12.0180937 2.90262079,56.6655965 1.92406548,65.9241057 C0.364520535,80.7831841 -2.95302872,82.8579689 5.86934553,96.7101753 Z"></path>
                        </g>
                        <ellipse id="Oval" fill="#000000" cx="55.2296296" cy="113.356401" rx="8.28148148" ry="7.55709343"></ellipse>
                        <ellipse id="Oval" fill="#000000" cx="140.592593" cy="113.356401" rx="8.28148148" ry="7.55709343"></ellipse>
                        <g id="smile" transform="translate(73.703704, 158.000000)" fill="#000000">
                            <path d="M49.1428571,0 L1.82010582,0 C0.728042328,0 0,0.728378678 0,1.82094669 C0,15.8422362 11.4666667,27.3142004 25.4814815,27.3142004 C39.4962963,27.3142004 50.962963,15.8422362 50.962963,1.82094669 C50.962963,0.728378678 50.2349206,0 49.1428571,0 Z M25.4814815,23.672307 C14.0148148,23.672307 4.73227513,14.9317629 3.64021164,3.64189339 L47.3227513,3.64189339 C46.2306878,14.9317629 36.9481481,23.672307 25.4814815,23.672307 Z" id="Shape"></path>
                        </g>
                    </g>
                </g>
                <g id="noun_667357" transform="translate(25.000000, 413.000000)" fill="#000000">
                    <g id="Group">
                        <g id="Shape">
                            <path d="M64.5856113,0.104463768 L39.1487618,0.104463768 C37.3501724,0.104463768 35.8873197,1.6178442 35.8873197,3.47703393 L35.8873197,12.4680754 C35.8873197,17.7147088 31.7577586,21.9846479 26.6809404,21.9846479 L22.062163,21.9846479 C12.4540987,21.9846479 3.83525862,28.6343498 1.10140282,38.1558801 L0.151747649,41.4639984 L0.151747649,52.8980152 L67.8458542,52.8980152 L67.8458542,3.47579447 C67.8470533,1.61660474 66.3842006,0.104463768 64.5856113,0.104463768 Z M3.74173197,42.0019239 L4.54390282,39.2094209 C6.82811129,31.2508495 14.0320611,25.6943511 22.0633621,25.6943511 L26.6821395,25.6943511 C33.737406,25.6943511 39.4773041,19.761057 39.4773041,12.466836 L39.4773041,3.81540646 L64.258268,3.81540646 L64.258268,43.2674124 L60.6011364,43.2674124 L52.2221082,32.8980916 L45.4378292,32.8980916 L53.8168574,43.2674124 L49.240047,43.2674124 L40.8610188,32.8980916 L34.059953,32.8980916 L42.4389812,43.2674124 L37.8621708,43.2674124 L29.4831426,32.8980916 L22.6640909,32.8980916 L31.0431191,43.2674124 L3.74173197,43.2674124 L3.74173197,42.0019239 Z M64.258268,49.1845935 L3.74173197,49.1845935 L3.74173197,45.1216443 L64.258268,45.1216443 L64.258268,49.1845935 Z"></path>
                            <path d="M52.1321787,23.9665441 C56.345674,23.9665441 59.7737853,20.424168 59.7737853,16.0687062 C59.7737853,11.7132444 56.345674,8.17086825 52.1321787,8.17086825 C47.9186834,8.17086825 44.4917712,11.7132444 44.4917712,16.0687062 C44.4917712,20.424168 47.9186834,23.9665441 52.1321787,23.9665441 Z M52.1321787,10.0251001 C55.3552508,10.0251001 57.977594,12.7370382 57.977594,16.0687062 C57.977594,19.4003742 55.3552508,22.1123123 52.1321787,22.1123123 C48.9091066,22.1123123 46.2867633,19.4003742 46.2867633,16.0687062 C46.2867633,12.7370382 48.9091066,10.0251001 52.1321787,10.0251001 Z"></path>
                        </g>
                    </g>
                </g>
                <g id="noun_667357" transform="translate(156.000000, 439.500000) scale(-1, 1) translate(-156.000000, -439.500000) translate(122.000000, 413.000000)" fill="#000000">
                    <g id="Group">
                        <g id="Shape">
                            <path d="M64.5856113,0.104463768 L39.1487618,0.104463768 C37.3501724,0.104463768 35.8873197,1.6178442 35.8873197,3.47703393 L35.8873197,12.4680754 C35.8873197,17.7147088 31.7577586,21.9846479 26.6809404,21.9846479 L22.062163,21.9846479 C12.4540987,21.9846479 3.83525862,28.6343498 1.10140282,38.1558801 L0.151747649,41.4639984 L0.151747649,52.8980152 L67.8458542,52.8980152 L67.8458542,3.47579447 C67.8470533,1.61660474 66.3842006,0.104463768 64.5856113,0.104463768 Z M3.74173197,42.0019239 L4.54390282,39.2094209 C6.82811129,31.2508495 14.0320611,25.6943511 22.0633621,25.6943511 L26.6821395,25.6943511 C33.737406,25.6943511 39.4773041,19.761057 39.4773041,12.466836 L39.4773041,3.81540646 L64.258268,3.81540646 L64.258268,43.2674124 L60.6011364,43.2674124 L52.2221082,32.8980916 L45.4378292,32.8980916 L53.8168574,43.2674124 L49.240047,43.2674124 L40.8610188,32.8980916 L34.059953,32.8980916 L42.4389812,43.2674124 L37.8621708,43.2674124 L29.4831426,32.8980916 L22.6640909,32.8980916 L31.0431191,43.2674124 L3.74173197,43.2674124 L3.74173197,42.0019239 Z M64.258268,49.1845935 L3.74173197,49.1845935 L3.74173197,45.1216443 L64.258268,45.1216443 L64.258268,49.1845935 Z"></path>
                            <path d="M52.1321787,23.9665441 C56.345674,23.9665441 59.7737853,20.424168 59.7737853,16.0687062 C59.7737853,11.7132444 56.345674,8.17086825 52.1321787,8.17086825 C47.9186834,8.17086825 44.4917712,11.7132444 44.4917712,16.0687062 C44.4917712,20.424168 47.9186834,23.9665441 52.1321787,23.9665441 Z M52.1321787,10.0251001 C55.3552508,10.0251001 57.977594,12.7370382 57.977594,16.0687062 C57.977594,19.4003742 55.3552508,22.1123123 52.1321787,22.1123123 C48.9091066,22.1123123 46.2867633,19.4003742 46.2867633,16.0687062 C46.2867633,12.7370382 48.9091066,10.0251001 52.1321787,10.0251001 Z"></path>
                        </g>
                    </g>
                </g>
                <use id="Oval-3" stroke="#000000" mask="url(#mask-8)" stroke-width="8" fill="#FFFFFF" xlink:href="#path-7"></use>
                <use id="Oval-3" stroke="#000000" mask="url(#mask-10)" stroke-width="8" fill="#FFFFFF" xlink:href="#path-9"></use>
                <use id="Oval-2" stroke="#000000" mask="url(#mask-12)" stroke-width="8" fill="#FFFFFF" xlink:href="#path-11"></use>
                <use id="Oval-2" stroke="#000000" mask="url(#mask-14)" stroke-width="8" fill="#FFFFFF" xlink:href="#path-13"></use>
            </g>
        </g>
    </g>
</svg>