<?xml version="1.0" encoding="UTF-8"?>
<svg width="339px" height="248px" viewBox="0 0 339 248" version="1.1" xmlns="http://www.w3.org/2000/svg" xmlns:xlink="http://www.w3.org/1999/xlink">
    <!-- Generator: Sketch 43 (38999) - http://www.bohemiancoding.com/sketch -->
    <title>kevin-vr</title>
    <desc>Created with Sketch.</desc>
    <defs></defs>
    <g id="Page-2" stroke="none" stroke-width="1" fill="none" fill-rule="evenodd">
        <g id="Artboard" transform="translate(-311.000000, -234.000000)">
            <g id="kevin-vr" transform="translate(311.000000, 234.000000)">
                <g id="shadow" transform="translate(48.000000, 0.000000)" fill="#0CC24B">
                    <path d="M81.3760781,141.618461 C81.3760781,141.618461 81.3760781,149.582917 83.2300352,165.911344 C83.9565777,172.310251 87.9601346,177.34657 90.9482891,181.57171 C95.5851659,188.128084 126.923141,212.362967 132.562281,213.609238 C138.201422,214.855508 156.811754,201.965158 163.196324,194.910104 C169.580894,187.85505 169.154266,177.084121 168.328352,173.2849 C167.502438,169.485679 163.918359,166.074299 163.918359,166.074299 L163.875375,144.440972 L81.3760781,141.618461 Z" id="Path-5"></path>
                    <path d="M80.7295041,141.470736 C91.7404297,159.600799 116.022231,168.630803 125.316344,168.630803 C134.610456,168.630803 156.707509,155.390385 164.381977,143.260696 C172.056444,131.131006 182.939412,88.7908831 170.716031,58.8412267 C158.492651,28.8915704 123.119617,31.5786157 123.119617,31.5786157 C123.119617,31.5786157 79.1978956,30.0242042 72.6834266,58.8412267 C66.1689576,87.6582492 69.7185785,123.340674 80.7295041,141.470736 Z" id="Path"></path>
                    <path d="M71.651375,87.7978518 C71.651375,87.7978518 69.408,83.2595845 66.6106895,83.3275227 C63.8133789,83.395461 61.871918,82.3591883 60.8298027,90.2787169 C60.3696734,93.7754582 60.527784,100.327887 62.2623594,105.915223 C63.2098381,108.967199 64.3301498,112.342144 65.4293867,114.629471 C66.5286236,116.916799 69.1268902,118.638858 69.8780137,118.638858 C72.1213887,118.638858 73.465418,117.128104 73.465418,117.128104 L73.3246953,111.548061 L72.8247461,107.193983 L72.564793,104.315631 L71.851457,98.8655459 L71.651375,94.0759076 L71.651375,87.7978518 Z" id="Path-2"></path>
                    <path d="M174.76782,81.0522542 C174.76782,81.0522542 175.432799,79.4958121 177.436434,79.4958121 C179.440068,79.4958121 181.23418,82.1291229 182.388848,87.8445552 C183.543515,93.5599875 183.226531,100.523517 182.388848,104.009521 C181.551164,107.495525 178.666094,113.831198 176.865867,115.215802 C175.065641,116.600406 172.360184,116.494055 171.961043,115.004114 C171.561902,113.514174 171.862793,112.317652 171.862793,112.317652 L172.517025,104.009521 L173.424047,91.7503821 L173.794787,84.9024939 L174.76782,81.0522542 Z" id="Path-3"></path>
                    <path d="M176.317305,77.4738588 C178.936929,64.3616134 180.076763,47.1528828 174.348211,32.3685126 C173.689407,30.6682583 171.771319,23.4494932 170.957562,21.9891862 C166.966156,14.8265002 160.060806,14.3169722 155.883352,11.4870096 C151.705898,8.65704692 150.435273,3.56248025 147.838109,2.99511032 C144.642203,2.29694036 130.284109,2.99511032 130.284109,2.99511032 C130.284109,2.99511032 116.571517,-0.236841395 113.501781,0.523890484 C105.670706,2.46456193 91.1458125,14.3237344 91.1458125,14.3237344 L91.9338594,6.10190273 L78.9495078,20.2601446 L78.9495078,14.3237344 L70.6565937,24.745703 C70.6565937,24.745703 61.6542722,43.866287 61.8345625,53.4256611 C62.0148528,62.9850353 65.8904453,83.5960674 69.4755469,85.6296965 C73.0606484,87.6633257 69.6751144,78.2040744 71.79875,66.797052 C73.1345223,59.6220052 73.3649171,51.3223923 80.8142109,45.8028515 C100.413039,31.2811353 104.756797,33.6436345 121.288094,32.3685126 C168.831883,28.7012792 173.396414,92.0940584 176.317305,77.4738588 Z" id="Path-6"></path>
                    <path d="M171.815715,22.7273697 C177.175457,24.7942184 176.313211,25.1740348 176.313211,25.1740348 L173.478289,27.6811639 L177.745,30.2138413 L181.432445,32.5796037 L175.23809,34.6030205 L176.817254,38.1380385 L175.173102,42.626004 C175.173102,42.626004 166.455973,20.6605211 171.815715,22.7273697 Z" id="Path-7"></path>
                    <path d="M85.53125,163.800781 C88.9546484,160.933598 78.7611953,166.293602 96.1586094,182.551467 C113.556023,198.809332 148.92807,190.649433 155.628516,179.901555 C162.328961,169.153678 157.562156,156.171144 161.322266,157.946889 C171.328173,162.672268 250.236328,185.391761 250.236328,202.543207 C250.236328,209.123522 240.09137,231.882782 217.923109,238.873879 C182.310292,250.104921 71.9725726,250.122295 36.9220469,238.873879 C1.87152118,227.625464 -0.48450911,203.201969 0.947265625,197.695313 C5.13721875,181.580604 82.1078516,166.667965 85.53125,163.800781 Z" id="Path-8"></path>
                    <path d="M123.904,133.076305 C132.288,133.076305 140.672,141.393574 140.672,141.393574 C140.672,141.393574 129.50425,139.331517 123.904,139.331517 C118.30375,139.331517 107.136,141.393574 107.136,141.393574 C107.136,141.393574 115.52,133.076305 123.904,133.076305 Z" id="Triangle" transform="translate(123.904000, 137.234940) scale(1, -1) translate(-123.904000, -137.234940) "></path>
                    <path d="M169.582635,70.1466198 C139.281572,61.1673532 106.7334,61.186043 76.5036736,70.1466198 C72.7842371,71.2510931 70.6821289,73.6472095 70.0703386,77.4848552 C67.8229206,91.580823 68.6588633,105.676152 70.0703386,114.525868 C70.6821754,118.357124 72.7902852,120.759486 76.5036736,121.864103 C81.5800593,123.367932 86.7595732,124.634671 91.8965952,125.63306 C94.8043435,126.207141 97.7848243,125.258656 99.8504887,123.124628 L113.220083,109.359327 C118.641831,103.768351 127.449905,103.762121 132.871809,109.359327 L146.235355,123.124628 C148.307067,125.258624 151.317789,126.200943 154.195296,125.639289 C159.332318,124.640901 164.511677,123.374146 169.588218,121.870333 C173.307654,120.76586 175.415811,118.369743 176.021553,114.532098 C177.857079,103.02571 177.978196,89.7353218 176.021553,77.4910852 C175.409716,73.6535992 173.301606,71.2512369 169.58217,70.1466198 L169.582635,70.1466198 Z" id="Page-1"></path>
                    <polygon id="Page-1" points="126 245.469089 144.864 227.617191 133.86 227.617191 133.86 204.812751 118.14 204.812751 118.14 227.617191 107.136 227.617191"></polygon>
                </g>
                <g id="main-body" transform="translate(49.000000, 3.000000)">
                    <path d="M82.4199219,136.216309 C82.4199219,136.216309 82.4199219,143.876953 84.1889648,159.58252 C84.8822307,165.737335 88.7024185,170.581539 91.5537109,174.645508 C95.9782118,180.951783 125.880859,204.262207 131.261719,205.460938 C136.642578,206.659668 154.400529,194.261031 160.492676,187.475098 C166.584822,180.689165 166.177734,170.329102 165.389648,166.674805 C164.601563,163.020508 161.181641,159.739258 161.181641,159.739258 L161.140625,138.931152 L82.4199219,136.216309 Z" id="Path-5" fill="#D4AA7F"></path>
                    <path d="M81.8029619,136.074219 C92.3095703,153.512695 115.479228,162.198242 124.347656,162.198242 C133.216084,162.198242 154.301058,149.462891 161.624023,137.795898 C168.946989,126.128906 179.3315,85.4038818 167.667969,56.5966797 C156.004438,27.7894776 122.251543,30.3740234 122.251543,30.3740234 C122.251543,30.3740234 80.3415034,28.8789062 74.125407,56.5966797 C67.9093107,84.3144531 71.2963535,118.635742 81.8029619,136.074219 Z" id="Path" fill="#F1C190"></path>
                    <path d="M73.140625,84.4487305 C73.140625,84.4487305 71,80.0835791 68.3308105,80.1489258 C65.6616211,80.2142725 63.809082,79.2175293 62.8146973,86.8349609 C62.3756426,90.1983162 62.5265115,96.5007973 64.1816406,101.875 C65.0857234,104.810556 66.1547231,108.056761 67.2036133,110.256836 C68.2525034,112.456911 70.7317655,114.113281 71.4484863,114.113281 C73.5891113,114.113281 74.871582,112.660156 74.871582,112.660156 L74.7373047,107.292969 L74.2602539,103.10498 L74.012207,100.336426 L73.331543,95.0942383 L73.140625,90.4873047 L73.140625,84.4487305 Z" id="Path-2" fill="#E9BA8A"></path>
                    <path d="M171.53418,77.9604492 C171.53418,77.9604492 172.168701,76.4633789 174.080566,76.4633789 C175.992432,76.4633789 177.70437,78.9962399 178.806152,84.4936523 C179.907934,89.9910648 179.605469,96.6889648 178.806152,100.041992 C178.006836,103.39502 175.253906,109.489014 173.536133,110.820801 C171.818359,112.152588 169.236816,112.050293 168.855957,110.617188 C168.475098,109.184082 168.762207,108.033203 168.762207,108.033203 L169.386475,100.041992 L170.251953,88.2504883 L170.605713,81.6638184 L171.53418,77.9604492 Z" id="Path-3" fill="#E9BA8A"></path>
                    <path d="M173.012695,74.5185547 C175.512337,61.9064867 176.599965,45.3541972 171.133789,31.1337891 C170.50516,29.4983923 168.674922,22.554993 167.898437,21.1503906 C164.089844,14.2609312 157.500769,13.7708395 153.514648,11.0488281 C149.528528,8.32681674 148.3161,3.42658651 145.837891,2.88085937 C142.788361,2.20932168 129.087891,2.88085937 129.087891,2.88085937 C129.087891,2.88085937 116.003356,-0.227806885 113.074219,0.50390625 C105.601818,2.37054918 91.7421875,13.7773437 91.7421875,13.7773437 L92.4941406,5.86914062 L80.1044922,19.4873047 L80.1044922,13.7773437 L72.1914062,23.8017578 C72.1914062,23.8017578 63.6014048,42.1929714 63.7734375,51.3876953 C63.9454702,60.5824193 67.6435547,80.4072266 71.0644531,82.3632812 C74.4853516,84.3193359 71.2548801,75.2209156 73.28125,64.2490234 C74.5558419,57.3476747 74.7756843,49.3646574 81.8837891,44.0556641 C100.584961,30.0878906 104.729768,32.3602703 120.503906,31.1337891 C165.870117,27.6064453 170.225586,88.5810547 173.012695,74.5185547 Z" id="Path-6" fill="#000000"></path>
                    <path d="M168.717285,21.8604155 C173.831543,23.8484225 173.008789,24.2137505 173.008789,24.2137505 L170.303711,26.6252431 L174.375,29.0613094 L177.893555,31.3368279 L171.98291,33.2830598 L173.489746,36.6832316 L171.920898,41 C171.920898,41 163.603027,19.8724085 168.717285,21.8604155 Z" id="Path-7" fill="#000000"></path>
                    <path d="M83.2050781,157.794922 C86.4716797,155.037109 79.9248047,159.950195 96.5253906,175.587891 C113.125977,191.225586 146.87793,183.376953 153.271484,173.039062 C159.665039,162.701172 161.899635,157.943081 161.810547,154.917969 C161.679925,150.482495 235.742188,175.587891 249.199219,193.663097 C253.740938,199.763441 233.865811,224.961131 212.712891,231.685547 C178.731195,242.488171 73.4471112,242.504882 40.0019531,231.685547 C6.55679502,220.866211 -0.377916017,195.693085 0.98828125,190.396484 C4.98632812,174.896484 79.9384766,160.552734 83.2050781,157.794922 Z" id="Path-8" fill="#394037"></path>
                    <path d="M123,128 C133.5,128 144,136 144,136 C144,136 130.013672,134.016602 123,134.016602 C115.986328,134.016602 102,136 102,136 C102,136 112.5,128 123,128 Z" id="Triangle" fill="#121212" transform="translate(123.000000, 132.000000) scale(1, -1) translate(-123.000000, -132.000000) "></path>
                    <path d="M166.586484,67.4708193 C137.673255,58.8340741 106.61584,58.852051 77.7706809,67.4708193 C74.2216002,68.5331615 72.2157718,70.8378761 71.6320025,74.5291316 C69.4875197,88.0873971 70.2851749,101.645048 71.6320025,110.157184 C72.2158162,113.842294 74.2273713,116.153016 77.7706809,117.215496 C82.6145604,118.66196 87.5568447,119.880379 92.4585832,120.840683 C95.2331522,121.392866 98.0771224,120.480561 100.048176,118.427938 L112.805422,105.187725 C117.978847,99.810022 126.383497,99.8040297 131.557069,105.187725 L144.308545,118.427938 C146.285369,120.480531 149.158195,121.386904 151.903909,120.846675 C156.805647,119.886371 161.747783,118.667937 166.591811,117.221489 C170.140892,116.159146 172.152491,113.854432 172.730489,110.163176 C174.481945,99.0957094 174.597515,86.3122941 172.730489,74.5351239 C172.146676,70.844022 170.135121,68.5332998 166.58604,67.4708193 L166.586484,67.4708193 Z" id="Page-1" fill="#222222"></path>
                    <polygon id="Page-1-Copy" fill="#0CC24B" points="125 236.859375 149 214.860897 134.166667 214.860897 134.166667 193 115.833333 193 115.833333 214.860897 101 214.860897"></polygon>
                    <polygon id="Page-1" fill="#FFFFFF" points="125 234.105469 143 216.934545 132.5 216.934545 132.5 195 117.5 195 117.5 216.934545 107 216.934545"></polygon>
                </g>
                <path d="M93.6067068,113.319909 C93.4192068,112.960529 93.1379568,112.620689 92.8332668,112.366779 C85.6887668,106.429279 78.5282668,100.511779 71.3722668,94.5897785 C64.8136668,89.1600785 58.2592668,83.7307785 51.6922668,78.3087785 C50.7313268,77.5118985 49.7899668,76.6720785 48.7430668,76.0001785 C48.2625968,75.6954885 47.7860368,75.5704885 47.3524668,75.6056485 C46.5087168,75.7267385 46.0047668,76.2697085 45.7977668,77.0470485 C45.6454268,77.6251685 45.5907368,78.2384485 45.5712068,78.8439485 C45.5321468,80.1369485 45.5399568,81.4298485 45.5399568,82.7228485 C45.5399568,84.3009485 45.5477668,85.8790485 45.5594868,87.4533485 C45.5594868,87.6252285 45.5360468,87.7775685 45.4930868,87.9142885 C44.3992868,87.2619485 40.7508868,85.0939885 39.9344868,84.6017885 C36.9617868,82.8165885 33.9891868,81.0353885 31.0203868,79.2501885 C23.7469868,74.8868885 16.4733868,70.5157885 9.19238383,66.1681885 C8.75879383,65.9064685 8.23926383,65.7189685 7.73928383,65.6603785 C6.82912383,65.5549085 6.20018383,66.3088185 6.48928383,67.1837785 C6.64553383,67.6486185 6.96975383,68.1251885 7.34475383,68.4415785 C15.2744568,75.0353785 23.2197568,81.6095785 31.1647568,88.1835785 C32.7233568,89.4726785 36.3561568,92.3671785 37.9147568,93.6601785 C38.0358468,93.7695585 38.1452268,93.8672085 38.2585068,93.9570585 C42.0280068,97.0781585 45.7937068,100.203159 49.5745068,103.308659 C50.2620068,103.871159 50.9925068,104.382859 51.7268068,104.882859 C51.9572768,105.039109 52.2619668,105.128949 52.5432168,105.164109 C52.7189968,105.187549 52.8830568,105.183639 53.0354068,105.156299 C53.7658768,105.000049 54.3401068,104.390679 54.5432068,103.429699 C54.6369568,102.734389 54.6721168,102.031299 54.6799268,101.328099 C54.6838268,100.722629 54.6877368,100.113299 54.6877368,99.5077985 L54.6877368,98.2538985 L54.6916468,98.2538985 C54.6916468,96.9452985 54.6916468,95.6405985 54.6955468,94.3319985 C54.6955468,94.1835585 54.6994568,94.0312185 54.7033568,93.8866885 C54.7072668,93.8007485 54.7111768,93.7265285 54.7228968,93.6562185 C54.7267968,93.5976185 54.7267968,93.5390285 54.7346068,93.4765285 C54.7658568,93.1601185 54.9494468,93.0546485 55.2424168,93.1796485 C55.4416368,93.2655885 55.6369468,93.3710585 55.8205468,93.4843385 C63.9455468,98.3593385 72.0665468,103.234339 80.1915468,108.109339 C83.7110468,110.218739 87.2267468,112.328139 90.7465468,114.433539 C91.1918568,114.703069 91.6527968,114.937449 92.1645468,115.046819 C92.6840768,115.160099 93.1840468,115.148379 93.5512468,114.699159 C93.9223368,114.273379 93.8285868,113.792909 93.6059368,113.320259 L93.6067068,113.319909 Z" id="Page-1" fill="#0CC24B" transform="translate(50.109886, 90.378713) rotate(-20.000000) translate(-50.109886, -90.378713) "></path>
                <path d="M333.380144,109.032799 C333.192644,108.673419 332.911394,108.333579 332.606704,108.079669 C325.462204,102.142169 318.301704,96.2246691 311.145704,90.3026691 C304.587104,84.8729691 298.032704,79.4436691 291.465704,74.0216691 C290.504764,73.2247891 289.563404,72.3849691 288.516504,71.7130691 C288.036034,71.4083791 287.559474,71.2833791 287.125904,71.3185391 C286.282154,71.4396291 285.778204,71.9825991 285.571204,72.7599391 C285.418864,73.3380591 285.364174,73.9513391 285.344644,74.5568391 C285.305584,75.8498391 285.313394,77.1427391 285.313394,78.4357391 C285.313394,80.0138391 285.321204,81.5919391 285.332924,83.1662391 C285.332924,83.3381191 285.309484,83.4904591 285.266524,83.6271791 C284.172724,82.9748391 280.524324,80.8068791 279.707924,80.3146791 C276.735224,78.5294791 273.762624,76.7482791 270.793824,74.9630791 C263.520424,70.5997791 256.246824,66.2286791 248.965821,61.8810791 C248.532231,61.6193591 248.012701,61.4318591 247.512721,61.3732691 C246.602561,61.2677991 245.973621,62.0217091 246.262721,62.8966691 C246.418971,63.3615091 246.743191,63.8380791 247.118191,64.1544691 C255.047894,70.7482691 262.993194,77.3224691 270.938194,83.8964691 C272.496794,85.1855691 276.129594,88.0800691 277.688194,89.3730691 C277.809284,89.4824491 277.918664,89.5800991 278.031944,89.6699491 C281.801444,92.7910491 285.567144,95.9160491 289.347944,99.0215491 C290.035444,99.5840491 290.765944,100.095749 291.500244,100.595749 C291.730714,100.751999 292.035404,100.841839 292.316654,100.876999 C292.492434,100.900439 292.656494,100.896529 292.808844,100.869189 C293.539314,100.712939 294.113544,100.103569 294.316644,99.1425891 C294.410394,98.4472791 294.445554,97.7441891 294.453364,97.0409891 C294.457264,96.4355191 294.461174,95.8261891 294.461174,95.2206891 L294.461174,93.9667891 L294.465084,93.9667891 C294.465084,92.6581891 294.465084,91.3534891 294.468984,90.0448891 C294.468984,89.8964491 294.472894,89.7441091 294.476794,89.5995791 C294.480704,89.5136391 294.484614,89.4394191 294.496334,89.3691091 C294.500234,89.3105091 294.500234,89.2519191 294.508044,89.1894191 C294.539294,88.8730091 294.722884,88.7675391 295.015854,88.8925391 C295.215074,88.9784791 295.410384,89.0839491 295.593984,89.1972291 C303.718984,94.0722291 311.839984,98.9472291 319.964984,103.822229 C323.484484,105.931629 327.000184,108.041029 330.519984,110.146429 C330.965294,110.415959 331.426234,110.650339 331.937984,110.759709 C332.457514,110.872989 332.957484,110.861269 333.324684,110.412049 C333.695774,109.986269 333.602024,109.505799 333.379374,109.033149 L333.380144,109.032799 Z" id="Page-1-Copy-2" fill="#0CC24B" transform="translate(289.883324, 86.091603) rotate(139.000000) translate(-289.883324, -86.091603) "></path>
            </g>
        </g>
    </g>
</svg>