<?xml version="1.0" encoding="UTF-8"?>
<!-- Generator: Bez 1.0.2u (15139) - http://www.juicybitssoftware.com/bez -->
<svg width="1009.0" height="1000.0" version="1.1" xmlns="http://www.w3.org/2000/svg" xmlns:xlink="http://www.w3.org/1999/xlink">
  <title>openInTemp</title>
  <desc>Created with Bez</desc>
  <g id="Layer2">
    <path id="Untitled" fill="#fffb4d" d="M0.0,499.7 C0.0,223.7 225.7,0.0 504.2,0.0 C782.6,0.0 1008.3,223.7 1008.3,499.7 C1008.3,775.7 782.6,999.4 504.2,999.4 C225.7,999.4 0.0,775.7 0.0,499.7"/>
  </g>
  <g id="Layer3">
    <path id="Untitled-1" fill="#2f343b" d="M864.7,620.0 C855.0,608.4 838.0,617.7 831.5,629.5 C831.5,629.5 858.4,627.2 858.4,659.3 C869.8,645.6 876.7,634.4 864.7,620.0 M844.5,640.1 L766.5,730.3 L775.0,737.4 L777.1,748.1 L772.1,754.5 L763.9,757.8 L752.0,743.5 L753.5,735.8 L836.2,636.4 C833.6,635.7 830.7,635.3 827.2,635.3 L749.6,728.7 L741.5,764.2 C741.0,763.8 740.5,763.5 739.8,763.5 C739.8,763.5 739.8,763.5 739.8,763.5 C690.3,763.7 675.7,751.1 674.9,743.5 C674.1,736.2 684.2,725.5 708.6,718.1 C721.6,714.1 727.3,709.6 727.0,703.6 C726.5,689.8 684.2,680.4 666.0,677.1 C664.5,676.8 663.0,678.1 662.8,679.9 C662.5,681.8 663.6,683.5 665.2,683.8 C694.3,689.3 721.1,698.8 721.3,703.9 C721.3,704.0 720.6,707.3 707.1,711.4 C682.0,719.1 667.9,731.5 669.2,744.4 C671.0,760.7 696.7,770.3 738.2,770.3 C738.8,770.3 739.3,770.3 739.8,770.3 C740.0,770.3 740.0,770.2 740.2,770.2 L740.2,770.3 L740.6,770.1 C740.7,770.1 740.9,770.1 741.0,770.0 L774.8,760.2 L853.4,665.6 C853.4,665.7 856.2,648.6 844.5,640.1"/>
  </g>
  <g id="Layer1">
    <path id="Untitled-2" fill="#2f343b" stroke="#2f343b" stroke-width="0.7" d="M357.8,808.8 C357.0,808.8 357.4,810.8 358.6,812.8 C360.2,814.8 363.5,818.8 365.2,820.8 C366.8,822.8 369.7,826.8 370.9,828.8 C372.6,830.8 375.8,834.8 377.5,836.8 C379.1,838.4 382.4,842.0 384.0,844.0 C385.7,846.0 388.9,850.0 390.6,852.0 C392.2,853.6 395.5,857.1 397.1,859.1 C399.2,860.7 402.9,863.9 404.5,865.5 C406.6,867.1 410.7,870.3 412.7,871.9 C414.8,873.1 418.9,875.9 420.9,877.5 C423.0,879.1 427.1,881.9 429.1,883.1 C431.6,884.3 436.1,887.1 438.1,888.7 C440.6,889.9 445.5,892.3 448.0,893.5 C450.4,894.3 455.4,895.8 457.8,896.6 C460.7,897.4 466.0,899.4 468.5,900.6 C471.3,901.4 477.5,902.6 480.8,903.0 C484.1,903.0 490.6,903.0 493.9,903.0 L500.5,903.0 C509.5,901.9 515.6,901.0 518.5,900.6 C521.8,899.8 527.5,898.3 530.0,897.5 C532.9,896.7 538.2,895.1 540.6,894.3 C543.5,893.5 548.4,891.1 550.5,889.5 C552.5,887.9 556.6,885.1 558.7,883.9 C561.2,882.7 565.6,879.9 567.7,878.3 C569.7,876.7 573.9,873.9 575.9,872.7 C578.0,871.1 581.7,867.9 583.3,866.3 C585.3,864.7 589.4,861.5 591.5,859.9 C593.5,858.3 597.2,855.1 598.9,853.5 C600.5,851.6 603.8,847.5 605.4,845.5 C607.1,843.6 610.3,840.0 612.0,838.4 C614.0,836.8 617.7,833.6 619.4,832.0 C621.0,830.0 623.9,826.0 625.1,824.0 C626.7,821.6 628.8,816.8 629.2,814.4 L630.0,808.8 L626.8,812.0 C625.1,813.6 621.8,817.2 620.2,819.2 C618.6,820.8 615.7,824.8 614.4,827.2 C613.2,829.2 609.9,832.8 607.9,834.4 L604.6,836.8 L605.4,833.6 L607.1,830.4 L603.8,835.2 C602.6,837.2 600.1,841.2 598.9,843.2 C598.2,844.9 596.0,847.5 594.1,849.3 C594.0,850.6 593.4,851.8 592.4,852.6 C592.2,852.9 589.3,855.4 588.2,856.3 C586.0,858.2 584.0,859.9 582.0,861.6 C581.7,862.5 581.2,863.2 580.5,863.8 C573.5,869.2 566.7,875.0 557.3,883.4 C555.3,885.2 552.1,885.0 550.3,883.0 C550.2,882.9 550.1,882.8 550.1,882.7 C549.1,883.7 548.4,884.2 547.3,885.4 C546.3,886.3 545.0,886.8 543.7,886.8 C542.5,886.8 541.2,886.3 540.2,885.4 C540.2,885.3 540.2,885.3 540.1,885.2 C540.0,885.3 539.9,885.4 539.8,885.5 C537.8,886.7 532.9,888.3 530.0,888.7 C527.5,888.7 523.0,889.5 521.0,890.3 C519.3,891.1 517.3,893.1 516.9,894.3 C516.4,895.1 512.8,895.9 509.5,895.9 C506.2,895.9 499.6,896.2 496.4,896.6 C493.5,897.0 487.0,897.5 483.3,897.5 C480.0,897.1 473.8,895.8 470.9,895.0 C469.8,894.7 468.1,893.9 466.3,893.2 C465.4,892.9 464.6,892.8 463.6,892.4 C460.6,891.2 457.2,889.4 454.9,887.9 C454.7,887.7 454.4,887.7 453.4,887.7 C453.2,887.7 453.0,887.8 452.5,887.8 C449.4,888.0 447.8,887.9 445.5,886.9 C439.7,884.2 435.5,881.1 432.2,877.3 C427.9,875.3 424.3,872.3 421.0,867.9 C420.9,867.8 420.9,867.7 420.9,867.6 L416.8,866.3 C414.4,865.1 410.3,862.3 408.6,860.7 C407.0,858.7 403.3,855.1 401.3,853.5 C399.2,852.0 395.5,848.7 393.9,847.1 C392.2,845.1 390.6,841.6 390.6,840.0 C390.6,838.4 392.6,838.4 394.7,840.0 C396.7,841.2 399.2,841.2 399.6,840.0 C400.0,838.4 397.6,836.0 394.7,835.2 C391.8,834.4 386.9,832.4 384.9,831.2 C382.8,829.6 378.3,826.8 375.8,825.6 C373.8,824.0 370.5,820.4 369.3,818.4 C368.4,816.4 365.6,812.8 363.5,811.2 C361.9,809.6 359.0,808.4 357.8,808.8"/>
    <path id="Untitled-3" fill="#2f343b" stroke="#2f343b" stroke-width="0.7" d="M491.4,820.8 L491.4,820.8 C501.3,821.6 507.8,821.6 511.1,821.6 C514.8,821.2 520.6,819.6 522.6,818.4 C525.1,817.2 528.3,814.4 529.2,812.8 C530.0,810.8 528.3,809.6 525.9,810.4 C523.4,811.2 518.1,812.8 515.2,813.6 C512.4,814.0 505.8,814.8 502.1,815.2 C498.8,815.2 492.3,814.8 489.0,814.4 C486.1,814.0 480.4,812.8 477.5,812.0 C475.0,811.2 470.1,809.2 467.7,808.0 L462.7,805.6 L464.4,809.6 C465.2,811.2 468.1,814.4 470.1,816.0 C472.2,817.6 478.3,819.6 482.4,820.0 L491.4,820.8"/>
    <path id="Untitled-4" fill="#2f343b" stroke="#2f343b" stroke-width="0.7" d="M477.5,788.1 L477.5,788.1 C476.3,780.5 478.3,776.9 480.8,776.1 C483.2,775.3 487.8,774.1 489.8,773.7 C492.3,773.3 497.2,772.9 499.6,772.9 C502.1,772.5 507.4,771.7 510.3,771.3 C513.6,770.5 519.7,769.3 522.6,768.9 C525.9,768.5 531.6,768.9 534.1,769.7 C537.0,770.1 541.1,770.9 542.3,771.3 C543.9,771.7 545.2,770.1 544.7,768.1 C544.7,766.1 547.6,764.9 550.5,765.7 C553.8,766.1 559.9,766.1 562.8,765.7 C566.1,765.3 572.2,764.1 575.1,763.3 C578.0,762.5 580.0,760.9 579.2,760.1 C578.8,759.3 575.5,758.5 572.6,758.5 C570.2,758.5 564.4,758.5 561.1,758.5 C557.9,758.5 552.1,757.3 549.7,756.1 C547.6,754.9 543.5,752.1 541.5,750.5 C539.4,748.9 535.3,746.2 533.3,745.0 C531.2,743.4 526.7,740.6 524.2,739.4 C522.2,738.2 517.3,737.0 514.4,737.0 C511.5,737.0 506.2,738.2 503.7,739.4 C501.7,740.6 497.2,741.4 494.7,741.0 C492.3,740.6 487.8,738.6 485.7,737.0 C484.1,735.4 480.0,734.6 477.5,735.4 C475.0,735.8 470.5,737.8 468.5,739.4 C466.4,741.0 461.9,743.8 459.5,745.0 C457.0,745.8 452.1,747.7 449.6,748.9 C447.2,750.1 441.8,751.7 439.0,752.1 C436.1,752.1 430.8,752.5 428.3,752.9 C426.3,753.3 422.2,754.9 420.1,756.1 C418.1,757.3 414.0,760.1 411.9,761.7 C410.3,763.3 407.8,767.7 407.0,770.5 C406.2,773.3 406.6,775.7 407.8,775.3 C409.4,774.9 412.7,774.1 414.4,773.7 C416.0,772.9 418.1,769.7 418.5,767.3 C419.3,764.5 422.2,761.7 424.2,761.7 C426.7,761.7 432.0,762.5 434.9,763.3 C437.7,764.1 441.4,767.7 442.2,770.5 L443.9,775.3 L444.7,770.5 C445.1,767.7 447.2,764.9 448.8,764.9 C450.4,764.9 452.1,767.3 452.1,769.7 L452.9,774.5 L454.5,769.7 C455.4,767.3 459.5,764.9 462.7,764.9 C466.0,764.5 471.8,765.3 474.2,766.5 C476.7,767.3 477.9,769.3 476.7,770.5 C475.9,771.3 474.6,774.5 474.2,776.9 C473.8,778.9 472.2,781.7 470.9,782.5 C470.1,782.9 469.7,781.3 470.1,779.3 C470.5,776.9 470.1,774.1 469.3,773.7 C468.9,773.3 467.7,774.9 466.8,776.9 C466.0,778.9 466.4,782.9 467.7,784.9 C469.3,786.9 472.6,788.9 474.2,788.9 L477.5,788.1"/>
    <path id="Untitled-5" fill="#2f343b" stroke="#2f343b" stroke-width="0.7" d="M507.0,765.7 L507.0,765.7 C514.4,762.9 520.1,761.3 523.4,760.9 C526.7,760.5 532.0,758.9 534.1,757.7 C536.5,756.5 537.0,753.7 534.9,752.1 C533.3,750.5 528.8,748.1 525.9,747.3 C523.4,746.2 518.1,744.6 515.2,744.2 C512.8,743.8 507.4,744.6 504.6,745.8 C502.1,746.6 497.2,747.3 494.7,747.3 C492.3,746.9 487.3,745.4 484.9,744.2 C482.8,743.0 478.3,742.2 475.9,742.6 C473.4,743.0 468.5,744.6 466.0,745.8 C464.0,746.9 459.9,749.7 457.8,751.3 C455.8,752.9 455.0,755.7 456.2,756.9 C457.4,757.7 461.9,758.9 465.2,759.3 C468.5,759.3 474.2,760.1 476.7,760.9 C479.1,761.7 484.1,763.3 486.5,764.1 C489.4,764.9 496.0,765.7 499.6,765.7 L507.0,765.7"/>
    <path id="Untitled-6" fill="#2f343b" stroke="#2f343b" stroke-width="0.7" d="M466.3,663.2 C463.7,663.2 460.5,663.9 458.6,665.1 C456.6,666.3 452.5,666.7 450.4,665.9 C448.8,665.1 446.8,665.9 446.4,667.5 C445.9,668.7 447.6,671.5 449.6,673.1 C451.7,674.7 455.4,677.9 457.0,679.5 C459.1,681.1 461.5,681.9 461.9,681.1 C462.7,679.9 461.5,677.1 459.5,675.5 C457.8,673.9 458.2,671.5 460.3,670.7 C462.3,669.5 466.8,669.5 469.3,670.7 C472.2,671.5 476.7,673.9 478.3,675.5 C480.4,677.1 484.1,680.7 485.7,682.7 C487.7,684.3 491.4,687.4 493.1,689.0 C493.2,689.1 493.3,689.3 493.4,689.4 C496.2,690.0 499.3,690.1 504.1,690.0 C504.9,690.0 505.6,690.0 507.1,689.9 C508.3,689.8 508.7,689.9 509.5,689.8 C511.6,688.2 515.7,685.5 517.7,684.3 C520.2,683.1 524.6,680.3 526.7,678.7 C528.7,677.1 532.9,674.3 534.9,673.1 C537.0,671.5 541.9,669.9 544.8,669.9 C547.6,669.9 548.8,668.3 547.2,666.7 C545.6,664.7 541.5,663.5 539.0,664.3 C536.6,664.7 532.0,667.1 530.0,669.1 C528.3,670.7 524.3,672.7 521.8,673.1 C519.3,673.1 514.0,673.9 511.1,674.7 C508.3,675.5 502.5,675.9 499.6,675.5 C496.8,674.7 491.0,673.1 488.2,672.3 C485.7,671.5 480.8,669.5 478.3,668.3 C476.3,666.7 471.4,664.3 468.5,663.5 C467.9,663.3 467.1,663.2 466.3,663.2"/>
    <path id="Untitled-7" fill="#2f343b" stroke="#2f343b" stroke-width="0.7" d="M543.9,685.9 L543.9,685.9 C550.1,681.9 554.6,679.1 557.0,677.9 C559.5,676.7 563.6,673.9 565.2,672.3 C567.3,670.7 569.8,666.7 570.2,664.3 C570.6,661.5 571.4,656.3 571.8,653.9 C572.2,651.5 573.0,648.7 573.4,648.3 C574.3,647.9 573.4,645.5 571.8,643.6 C570.6,641.2 568.1,636.8 566.9,634.8 C565.7,632.4 563.2,628.0 562.0,626.0 C560.7,623.6 558.7,622.8 557.9,624.4 C557.0,626.0 557.0,630.0 557.9,632.4 C559.1,634.8 561.1,640.0 562.0,642.8 C563.2,645.1 564.4,649.9 564.4,652.3 C564.8,654.7 564.4,659.9 563.6,662.7 C563.2,665.5 560.3,669.9 557.9,671.5 C555.8,672.7 551.3,675.1 548.8,676.3 C546.8,677.5 542.3,680.3 539.8,681.9 L535.7,684.3 L539.8,685.1 L543.9,685.9"/>
    <path id="Untitled-8" fill="#2f343b" stroke="#2f343b" stroke-width="0.7" d="M445.5,638.8 L445.5,638.8 C449.2,632.4 451.7,628.0 452.9,626.0 L456.2,621.2 L452.9,622.0 C451.3,622.0 448.4,624.4 447.2,626.8 C445.9,628.8 443.5,633.6 442.2,636.4 C441.4,638.8 441.8,640.8 443.1,640.4 L445.5,638.8"/>
    <path id="Untitled-9" fill="#2f343b" stroke="#2f343b" stroke-width="0.7" d="M487.1,96.3 C484.8,96.3 482.4,96.4 480.8,96.6 C477.5,97.0 472.2,99.0 470.1,100.6 C468.5,102.2 467.3,106.2 467.7,108.6 C468.5,111.0 470.9,115.4 472.6,117.4 C474.6,119.0 477.5,123.4 478.3,126.2 C479.1,128.6 478.7,131.8 477.5,132.5 C476.7,132.9 474.6,131.4 473.4,129.4 C472.2,127.0 469.7,122.6 468.5,120.6 C467.2,118.2 465.2,113.4 464.4,111.0 C464.0,108.2 460.7,105.4 457.8,105.4 C455.4,105.4 454.6,107.4 456.2,109.4 C458.2,111.0 461.5,115.0 462.8,117.4 C464.0,119.4 466.0,124.2 466.9,127.0 C467.7,129.3 466.0,132.6 463.6,133.4 C461.1,134.2 457.4,133.4 456.2,131.8 C455.0,129.8 452.5,125.4 451.3,123.0 L449.6,117.4 L448.0,122.2 C447.6,124.6 446.8,129.4 446.4,131.8 C446.4,134.2 443.5,136.9 440.6,137.3 C437.7,137.7 432.8,136.9 430.8,135.7 C429.1,134.5 426.7,131.8 425.9,130.2 C425.4,128.2 426.7,124.6 428.3,123.0 C430.3,121.4 433.2,122.6 434.0,125.4 L435.7,130.2 L436.5,127.0 C436.9,125.4 437.7,123.0 438.1,122.2 C439.0,121.4 440.6,120.6 441.4,120.6 C442.2,120.6 443.1,118.6 443.1,116.6 C443.1,114.2 444.7,112.2 446.4,112.6 L450.4,113.4 L446.4,110.2 C444.7,108.2 441.0,107.4 439.0,108.6 C437.3,109.8 433.6,112.2 431.6,113.4 C429.5,114.6 425.4,117.4 423.4,119.0 C421.3,120.2 418.9,124.2 418.5,127.0 C418.1,129.3 417.6,134.2 417.6,136.5 C418.0,138.5 416.0,140.1 413.5,139.7 C411.5,139.3 409.9,136.9 410.3,135.0 C411.1,132.6 410.7,129.3 409.4,128.5 C408.2,127.3 405.3,126.6 403.7,127.0 C402.1,127.0 398.4,128.6 396.3,130.2 C394.3,131.8 390.6,135.3 388.9,137.3 C387.3,138.9 384.4,139.8 383.2,139.0 C382.0,138.2 380.3,135.4 379.9,133.4 L379.9,129.4 L377.5,131.8 C376.7,133.0 375.8,136.6 375.8,139.0 C375.8,141.3 375.8,146.1 375.8,148.5 C376.2,150.9 375.0,155.7 373.4,158.1 C372.1,160.1 369.7,161.3 368.4,160.5 C367.2,159.3 364.3,156.1 362.7,154.1 C361.5,152.1 359.8,149.7 359.4,149.3 C359.0,148.9 356.6,149.3 354.5,150.1 C352.9,150.9 350.0,154.1 348.8,156.5 C347.5,158.9 345.5,160.1 344.7,158.9 C343.8,157.3 343.0,152.9 343.0,150.1 C343.4,147.3 342.6,144.1 341.4,143.7 C340.2,143.3 339.8,145.3 340.6,147.7 C341.4,149.7 341.0,154.5 339.7,157.3 C338.9,159.7 338.1,164.9 338.1,167.7 C338.5,170.5 337.3,172.1 335.6,170.9 C334.4,169.7 332.0,169.7 330.7,170.9 C329.5,172.1 328.3,170.5 328.3,167.7 C328.3,164.5 325.8,160.1 323.4,158.9 L319.2,155.7 L321.7,160.5 C322.9,162.5 324.2,167.7 324.2,170.9 C324.2,173.7 322.5,178.5 320.9,180.5 C319.2,182.4 316.0,186.5 314.3,188.5 C313.1,190.4 310.6,190.0 309.4,187.6 L307.8,182.0 L307.8,186.0 C308.2,188.0 308.2,192.8 307.8,195.6 C307.4,198.0 304.5,202.0 302.0,203.6 C300.0,204.8 295.9,207.6 293.8,209.2 C291.8,210.4 287.7,213.2 285.6,214.8 C283.6,216.4 280.3,220.4 279.1,222.8 C277.8,224.8 274.6,228.4 272.5,230.0 C270.9,231.5 268.4,235.6 267.6,238.0 C266.8,240.3 264.3,244.7 262.7,246.7 C261.4,248.7 259.0,253.5 257.7,256.3 C256.9,258.7 254.9,263.5 253.6,265.9 C252.8,268.3 251.2,273.5 250.4,276.3 C249.5,278.7 247.5,283.8 246.3,286.6 C245.4,289.0 245.4,291.8 246.3,292.2 C247.1,292.2 248.7,289.4 249.5,286.6 L251.2,281.0 L251.2,282.7 C251.2,283.1 250.8,286.7 250.4,289.9 C249.9,292.7 248.7,298.6 247.9,301.8 C247.5,304.6 246.7,310.6 246.3,313.8 C246.3,317.0 245.9,323.4 245.4,326.6 C245.0,329.8 244.2,336.2 243.8,339.4 C243.4,342.2 241.7,347.3 240.5,349.7 C239.3,351.7 237.6,354.5 237.2,355.3 C237.2,355.7 239.7,355.7 242.2,355.3 C244.6,354.5 245.9,356.1 244.6,358.5 C243.4,360.9 241.3,366.1 240.5,368.9 C240.1,371.7 239.7,377.7 239.7,380.9 C239.7,383.7 238.9,389.3 238.1,392.0 C237.3,394.8 237.3,400.0 238.1,402.4 C238.9,404.4 238.9,409.6 238.1,412.8 C237.7,415.6 238.1,421.2 238.9,424.0 C239.7,426.4 241.3,430.4 242.2,432.0 C243.0,433.2 242.6,437.2 241.4,440.0 C240.5,442.3 239.3,445.5 238.9,446.3 L238.9,447.9 L242.2,451.1 C243.8,452.7 245.9,455.1 246.3,455.9 C247.1,456.7 247.1,459.9 246.3,462.3 C245.4,464.3 244.6,469.1 244.6,471.9 C245.0,474.3 246.3,478.3 247.1,479.9 C247.9,481.1 247.9,485.1 247.1,487.9 C246.7,490.3 246.7,494.2 247.1,495.8 C247.5,497.0 248.7,498.6 249.5,499.0 C250.8,499.4 251.6,501.4 251.2,503.0 C251.2,504.2 251.6,507.4 252.0,509.4 C252.8,511.4 254.0,514.2 254.4,515.0 C255.3,515.4 256.1,518.6 256.1,521.4 C256.5,524.2 257.3,530.2 257.7,533.4 C258.1,536.2 258.6,542.5 258.6,546.1 C258.6,549.7 258.6,556.5 258.6,559.7 C259.0,562.9 259.8,568.9 260.2,571.7 C261.0,574.5 262.7,580.1 263.5,582.9 C264.3,585.7 265.9,590.8 266.8,593.2 C268.0,595.6 269.6,601.2 270.0,604.4 C270.5,607.6 271.3,614.0 271.7,617.2 C272.1,620.0 274.2,624.4 275.8,626.0 C277.8,627.6 281.5,629.2 283.2,629.2 L287.3,628.4 L283.2,626.0 C281.1,624.4 278.2,620.0 277.4,617.2 C276.6,614.4 275.8,608.8 275.8,606.0 C275.8,602.8 274.6,597.6 273.3,595.6 C272.1,593.2 269.6,588.5 268.4,586.1 C267.6,583.3 267.6,580.5 268.4,580.5 C269.2,580.1 270.4,578.9 270.9,578.1 C271.3,577.3 270.5,574.5 269.2,572.5 C268.0,570.1 266.8,565.3 266.8,562.9 C266.8,560.1 267.6,554.5 268.4,551.7 C269.2,548.9 271.7,544.5 273.3,543.0 L276.6,539.0 L276.6,542.1 L276.6,545.3 L277.4,539.8 C278.2,537.0 279.5,531.4 279.9,528.6 C280.7,525.8 281.5,519.8 281.5,516.6 C281.9,513.0 282.4,506.2 282.4,503.0 C282.8,499.8 283.2,493.0 283.2,489.5 C283.2,485.9 283.2,479.1 283.2,475.9 C283.6,472.7 284.0,466.3 284.0,463.1 C284.4,459.9 285.2,453.9 285.6,451.1 C286.5,447.9 288.5,442.7 289.7,440.7 C291.0,438.3 293.0,433.6 293.8,431.2 C295.1,428.4 297.5,423.6 298.7,421.6 C300.0,419.2 302.4,414.8 303.7,412.8 C304.9,410.4 306.5,404.8 306.9,401.6 C307.4,398.4 309.0,393.2 310.2,391.2 C311.5,388.8 314.3,384.4 315.9,382.5 C317.6,380.5 320.1,377.7 320.9,376.9 C322.1,376.1 324.2,374.1 325.0,372.9 C325.8,371.3 326.6,366.9 326.6,364.1 C327.0,360.9 327.4,356.1 327.4,354.5 C327.4,352.5 329.5,348.9 331.5,347.3 L335.6,344.1 L334.0,347.3 C333.6,348.9 333.6,350.9 334.0,351.3 C334.8,351.7 335.2,354.1 334.8,356.1 C334.8,357.7 335.7,359.7 336.5,360.1 C337.7,360.5 339.8,358.5 340.6,356.1 C341.8,353.3 343.4,348.1 343.9,345.7 C344.7,343.3 346.3,338.5 347.1,336.1 C348.4,333.7 351.6,332.2 353.7,333.0 C356.2,333.4 360.6,333.8 362.7,333.8 C364.7,333.4 369.3,332.6 371.7,332.2 C374.2,331.8 378.3,329.8 379.9,328.2 C382.0,326.6 385.7,323.4 387.3,321.8 C389.3,320.2 393.5,317.4 395.5,316.2 C398.0,314.6 401.7,311.0 402.9,309.0 C404.5,307.0 409.0,305.0 411.9,305.0 C414.8,305.0 420.5,304.6 423.4,304.2 C426.3,303.4 431.2,301.4 433.2,300.2 C435.3,298.6 440.2,297.0 443.1,297.0 C446.4,296.6 451.7,297.0 453.7,297.8 C456.2,298.6 461.1,300.6 463.6,301.8 C466.4,302.6 468.5,301.8 467.7,300.2 C467.3,298.6 464.4,296.2 461.9,295.4 C459.5,294.2 454.1,292.3 451.3,291.5 C448.4,290.7 446.8,288.2 448.0,286.6 C449.2,284.6 453.3,281.8 456.2,281.0 C459.1,280.2 464.0,280.7 466.0,281.9 C468.5,283.1 471.8,286.7 472.6,289.0 L475.0,293.8 L475.9,290.6 L476.7,287.5 L479.1,291.5 C480.8,293.4 483.3,298.2 484.1,301.0 C485.3,303.4 487.3,308.2 488.2,310.6 C489.4,313.0 490.6,318.2 490.6,321.0 C490.8,322.0 490.8,323.7 490.9,325.1 C491.6,325.5 492.1,326.0 492.6,326.5 C494.1,327.5 496.6,328.0 499.5,328.1 C499.4,325.1 499.2,321.5 498.8,320.2 C498.4,318.2 496.8,313.8 495.5,311.4 C494.7,308.6 494.7,304.2 495.5,302.6 C496.8,301.0 499.2,301.8 500.5,304.2 C501.7,306.6 504.2,311.0 505.4,313.0 L508.7,317.0 L508.7,313.8 C509.1,312.2 509.1,309.0 508.7,307.4 C508.7,305.4 509.1,301.0 509.5,298.6 C510.3,296.2 514.4,293.4 517.7,293.0 C521.0,292.6 527.1,292.2 530.0,292.2 C532.9,291.8 537.8,293.0 539.8,294.6 C541.9,295.8 546.8,297.8 549.7,298.6 C552.9,299.0 558.3,301.0 560.3,302.6 C562.4,303.8 566.9,306.2 569.4,307.4 C571.8,308.6 576.7,310.6 579.2,311.4 C581.7,311.8 583.7,311.0 583.3,309.8 C583.3,308.6 580.4,306.6 577.5,305.8 C575.1,304.6 570.2,302.2 567.7,301.0 C565.6,299.8 561.2,297.4 558.7,296.2 C556.2,295.0 550.5,293.4 547.2,293.0 C544.3,292.6 539.4,291.1 537.4,289.9 L533.3,286.6 L538.2,286.6 C541.1,286.2 546.4,286.2 548.9,286.6 C551.7,287.0 557.5,287.5 560.3,287.5 C563.6,287.1 569.4,287.4 571.8,288.2 C574.7,289.0 579.2,291.8 580.8,293.8 C582.5,295.4 585.7,299.0 587.4,301.0 C589.4,302.6 592.7,306.2 593.9,308.2 C595.6,310.2 595.6,312.2 593.9,312.2 C592.7,311.8 592.3,313.0 593.1,314.6 C594.0,315.8 596.4,319.0 598.0,321.0 C599.7,322.6 603.0,326.2 604.6,328.2 C606.2,330.2 609.1,334.6 610.4,337.0 C611.6,338.9 613.6,341.3 614.4,341.7 C615.3,341.7 617.3,341.4 618.5,341.0 C619.8,340.6 619.8,338.1 618.5,336.1 C617.3,333.7 614.5,329.4 612.8,327.4 C611.6,325.0 610.8,321.0 611.2,319.4 C612.0,317.8 614.9,317.8 616.9,319.4 C619.0,320.6 622.2,323.4 623.5,325.0 L625.9,327.4 L631.7,329.0 C634.5,329.8 639.1,331.8 640.7,333.0 C642.7,333.8 646.8,335.8 648.9,337.0 C651.3,338.2 655.9,340.5 657.9,341.7 C660.4,342.9 664.5,344.9 666.1,345.7 L669.4,347.3 L666.9,342.5 C666.1,340.2 665.3,335.8 665.3,333.8 L666.1,329.0 L668.6,333.8 C669.8,335.8 672.3,340.2 673.5,342.5 C674.7,344.5 677.2,348.9 678.4,351.3 C680.1,353.3 682.5,357.7 683.3,360.1 C684.6,362.5 687.4,366.5 689.1,368.1 L692.4,371.3 L689.9,366.5 C689.1,364.1 687.4,359.3 686.6,356.9 C686.2,354.5 684.6,349.7 683.3,347.3 C682.1,344.9 679.6,340.5 678.4,338.5 C677.2,336.2 673.9,332.2 671.9,330.6 C670.2,328.6 667.7,324.2 666.9,321.8 L666.1,317.0 L669.4,319.4 C671.4,320.6 674.7,324.2 675.9,326.6 C677.6,328.6 681.3,332.2 683.3,333.8 C685.4,335.0 689.1,338.1 690.7,340.1 C692.7,341.7 696.0,345.3 697.3,347.3 C698.9,349.3 700.5,352.5 700.5,353.7 L701.4,356.1 L697.3,352.9 C695.6,350.9 692.8,348.9 691.5,348.9 C690.3,348.5 690.3,350.5 691.5,352.9 C693.2,354.9 695.6,359.3 696.4,361.7 C697.7,364.1 699.3,368.1 699.7,369.7 C700.6,371.3 702.6,375.3 703.8,377.7 C705.5,379.7 707.9,384.1 708.8,386.5 C710.0,388.8 712.0,394.0 712.9,396.8 C714.1,399.2 714.5,402.4 713.7,403.2 C712.8,403.6 710.8,401.6 709.6,399.2 C708.8,396.8 706.7,392.0 705.5,389.6 L703.8,384.0 L703.0,386.5 C703.0,387.7 703.4,392.0 703.8,395.2 C704.6,398.0 705.9,403.6 706.3,406.4 C706.7,408.8 708.7,412.8 710.4,414.4 C712.4,416.0 714.1,418.4 713.7,419.2 C713.3,420.0 712.5,422.0 712.0,423.2 C711.6,424.0 711.6,428.0 712.0,431.2 C712.9,434.0 714.1,439.6 714.5,442.4 C715.3,445.2 716.5,451.1 716.9,454.3 C717.4,457.1 718.2,463.1 718.6,466.3 C719.4,469.1 720.2,475.5 720.2,479.1 C720.2,482.3 719.8,489.0 719.4,492.6 C719.4,495.8 719.4,502.6 719.4,506.2 C719.4,509.4 719.0,515.8 718.6,519.0 C718.6,522.2 718.6,529.0 718.6,532.6 C719.0,535.8 719.4,542.5 719.4,546.1 C719.4,549.3 719.0,555.7 718.6,558.9 C718.2,562.1 717.4,568.5 716.9,571.7 C716.9,574.9 716.5,581.3 716.1,584.5 C715.7,587.2 715.7,593.3 716.1,596.5 C716.5,599.6 718.2,603.2 719.4,603.6 C720.6,603.6 721.9,605.2 721.9,606.8 C721.9,608.4 719.8,610.0 717.8,610.0 C715.7,609.6 711.2,610.0 708.8,610.8 C706.3,611.2 703.8,614.0 703.8,616.4 C703.8,618.8 704.7,623.6 705.5,626.0 C706.7,628.4 709.2,629.6 710.4,628.4 L712.9,626.0 C709.2,619.6 709.6,616.4 711.2,615.6 C712.8,614.8 716.1,616.0 717.8,618.0 C719.4,619.6 721.5,620.0 721.9,618.8 C722.7,617.6 724.7,614.4 726.0,612.4 C727.6,610.0 730.5,605.6 731.7,603.6 C732.9,601.2 735.0,596.4 735.8,594.0 C737.1,591.3 738.7,585.7 739.1,582.9 C739.5,579.7 740.3,573.7 740.7,570.9 C741.1,567.7 741.5,561.3 741.5,558.1 C742.0,554.5 742.4,548.1 742.4,545.3 C742.8,542.5 742.8,536.6 742.4,533.4 C742.4,529.8 742.8,524.2 743.2,522.2 L744.0,517.4 L744.8,523.0 L746.5,528.6 L747.3,523.0 C747.7,520.2 748.1,514.6 748.1,511.8 C748.1,508.6 748.9,503.0 749.8,500.6 C750.6,498.2 751.0,494.7 750.6,493.5 C750.6,492.3 749.7,488.2 748.9,485.5 C748.5,482.7 746.5,477.9 744.8,475.9 C743.6,473.5 741.5,468.7 740.7,466.3 C739.9,463.5 737.9,458.3 736.6,455.9 C735.8,453.1 733.3,448.7 731.7,447.1 C730.1,445.1 726.8,441.1 725.1,439.1 C723.9,437.1 722.7,432.8 722.7,430.4 C723.1,427.6 723.1,422.0 722.7,419.2 C722.7,416.4 721.9,410.8 721.0,408.0 C720.6,404.8 719.8,398.8 719.4,396.0 C719.0,392.9 717.4,387.3 716.1,384.9 C715.3,382.5 712.8,378.1 711.2,376.1 C709.6,374.1 706.3,370.5 704.6,368.9 C703.0,366.9 701.8,364.1 702.2,363.3 C703.0,362.1 705.5,362.9 707.1,364.9 C708.7,366.5 711.6,370.1 712.9,372.1 C714.5,374.1 717.8,378.1 719.4,380.1 C721.1,382.1 723.1,386.8 723.5,389.6 C724.3,392.4 725.6,398.4 726.0,401.6 C726.4,404.8 727.6,410.8 728.4,413.6 C729.2,416.0 730.9,419.6 731.7,420.8 L734.2,423.2 L732.5,417.6 C732.1,414.4 731.3,408.4 730.9,405.6 C730.5,402.4 729.2,396.4 728.4,393.6 C728.0,390.4 726.8,384.5 726.0,381.7 C725.6,378.9 723.9,374.1 722.7,372.1 C721.5,369.7 718.6,365.3 716.9,363.3 C715.7,360.9 713.3,357.7 712.0,356.9 C710.8,355.7 708.3,352.1 707.1,349.7 C705.9,347.3 703.0,342.9 701.4,341.0 C700.1,339.0 697.3,334.9 695.6,333.0 C694.4,331.0 691.9,326.6 690.7,324.2 C689.5,321.8 686.6,317.4 685.0,315.4 L682.5,311.4 L683.3,316.2 C683.7,318.6 683.7,322.6 683.3,324.2 C682.9,325.4 681.3,324.6 680.0,322.6 C678.8,320.2 676.0,315.8 674.3,313.8 C672.7,311.8 669.8,308.2 668.6,306.6 C667.8,305.0 665.7,303.4 664.5,303.4 C663.7,303.0 663.2,300.6 663.6,298.6 C664.0,296.2 665.7,294.2 666.9,294.6 C668.6,295.0 671.8,297.4 673.5,299.4 C675.5,301.0 677.6,300.6 677.6,298.6 C677.6,296.2 676.0,291.9 674.3,289.9 C673.1,287.5 670.6,283.0 669.4,281.0 C668.2,278.7 666.1,273.5 665.3,270.7 C664.9,267.9 663.6,262.7 662.8,260.3 C662.0,257.9 659.6,253.5 657.9,251.5 C656.7,249.5 653.4,245.9 651.4,244.3 C649.7,242.3 647.2,238.7 646.4,237.1 C646.0,235.5 646.0,232.4 646.4,230.8 C647.2,229.2 647.7,225.2 647.3,222.8 C646.9,220.4 646.0,218.0 645.6,218.0 L643.1,220.4 C642.3,221.2 641.5,221.6 641.5,221.2 C641.5,220.8 641.9,219.6 642.3,218.8 C643.1,217.6 644.4,216.8 644.8,217.2 L645.6,218.0 L644.0,214.0 C643.6,212.0 642.3,207.6 641.5,205.2 C641.1,202.8 641.1,200.4 641.5,200.4 C642.3,200.0 644.8,200.4 646.4,201.2 L650.5,202.8 L646.4,199.6 C644.4,198.0 640.3,195.2 638.2,194.0 C636.2,192.4 632.5,188.9 630.9,186.9 C629.6,184.9 627.1,180.5 625.9,178.1 C625.1,175.3 623.9,170.9 623.5,169.3 C623.5,167.7 621.4,164.5 619.4,162.9 C617.3,161.3 613.2,158.5 611.2,157.3 C609.1,155.7 605.4,154.9 603.8,155.7 C602.2,156.1 598.5,154.9 596.4,153.3 C594.4,151.7 590.7,150.1 589.0,150.1 C587.4,149.7 584.1,150.1 582.5,150.9 C581.2,151.3 577.5,150.5 575.1,149.3 C573.0,148.1 568.9,145.7 566.9,144.5 C564.8,142.9 561.2,139.3 559.5,137.3 C557.9,135.3 553.8,132.6 551.3,131.8 C549.3,131.0 544.8,129.3 542.3,128.5 C540.2,127.3 535.7,125.8 533.3,125.4 C531.2,125.0 526.7,124.2 524.3,123.8 C521.8,123.0 516.4,122.6 513.6,123.0 C511.1,123.0 506.6,122.6 504.6,122.2 C502.5,121.4 498.4,121.0 496.4,121.4 C494.3,121.8 490.6,122.2 489.0,122.2 C487.3,121.8 484.9,119.4 484.1,117.4 C483.3,115.0 482.0,111.4 481.6,110.2 C481.6,108.6 483.2,107.4 484.9,107.8 C486.5,107.8 487.8,110.6 487.4,113.4 C487.4,115.8 489.0,116.6 490.6,115.0 C492.3,113.0 496.0,110.2 498.0,109.4 C500.5,108.6 506.2,108.2 509.5,108.6 C513.2,108.6 520.1,109.0 523.4,109.4 C526.7,109.4 533.3,109.8 536.5,110.2 C539.8,110.6 545.6,111.8 548.0,112.6 C550.9,113.4 556.2,115.4 558.7,116.6 C561.2,117.4 566.1,119.4 568.5,120.6 C571.0,121.8 575.5,124.6 577.5,126.2 C579.6,127.4 584.1,129.8 586.6,131.0 C589.0,132.2 594.4,133.7 597.2,134.1 C600.5,134.5 605.4,136.5 607.1,138.1 C609.1,139.7 612.8,143.3 614.4,145.3 C616.5,146.9 621.0,149.3 623.5,150.1 C625.9,150.5 631.3,150.5 634.1,150.1 C637.0,149.7 641.5,147.7 643.1,146.1 C645.2,144.5 649.3,141.7 651.4,140.5 C653.8,139.3 658.3,139.7 660.4,141.3 C662.4,142.9 663.2,144.9 662.0,145.3 C661.2,145.7 661.2,147.7 662.0,149.3 C663.2,150.5 667.8,151.7 671.0,151.7 C674.7,151.7 678.8,150.9 679.2,150.1 C680.1,149.3 678.4,147.3 675.9,146.1 C673.5,144.9 669.4,142.1 667.8,140.5 C666.1,138.6 661.6,135.8 658.7,135.0 C656.3,133.8 651.3,133.8 648.9,135.0 C646.8,136.2 642.7,138.9 640.7,140.5 C638.6,141.7 633.3,142.5 630.0,142.1 C627.2,141.3 622.3,139.3 620.2,138.1 C618.1,136.5 615.3,134.2 614.4,133.4 C614.0,132.6 612.4,131.0 611.2,130.2 C610.3,129.0 606.7,127.8 603.8,127.8 C600.9,127.4 595.2,126.2 592.3,125.4 C589.9,124.2 584.9,121.8 582.5,120.6 C580.4,119.4 575.9,117.0 573.4,115.8 C571.4,114.6 567.3,111.8 565.3,110.2 C563.2,108.6 558.3,106.2 555.4,105.4 C553.0,104.6 547.2,103.4 543.9,103.0 C541.0,102.2 534.9,101.4 531.6,101.4 C528.4,101.0 521.8,100.6 518.5,100.6 C515.2,100.2 508.7,99.4 505.4,99.0 C502.5,98.2 496.4,97.0 493.1,96.6 C491.6,96.4 489.4,96.3 487.1,96.3"/>
    <path id="Untitled-10" fill="#2f343b" stroke="#2f343b" stroke-width="0.7" d="M296.3,620.4 L296.3,620.4 C293.8,612.8 291.0,609.6 288.9,609.2 C287.3,608.4 286.4,610.0 287.3,612.4 C288.5,614.8 291.4,618.0 293.0,618.8 L296.3,620.4"/>
    <path id="Untitled-11" fill="#2f343b" stroke="#2f343b" stroke-width="0.7" d="M727.6,594.8 L727.6,594.8 C730.5,587.7 731.3,582.5 730.9,579.7 C730.5,576.9 729.7,571.3 729.2,568.5 C729.2,565.7 727.6,561.3 726.0,559.7 L723.5,556.5 L723.5,562.9 C723.9,565.7 723.9,571.3 723.5,574.1 C723.5,576.9 722.7,582.1 721.9,584.5 C721.5,586.5 721.5,591.3 721.9,594.0 C722.7,596.8 724.3,598.4 725.1,597.2 L727.6,594.8"/>
    <path id="Untitled-12" fill="#2f343b" stroke="#2f343b" stroke-width="0.7" d="M282.3,568.5 L282.3,568.5 C281.5,558.9 280.3,555.3 279.1,554.9 C277.8,554.5 275.8,556.9 275.0,559.7 C274.1,562.1 274.6,566.9 275.8,569.3 C277.0,571.3 279.1,572.1 279.9,570.9 L282.3,568.5"/>
    <path id="Untitled-13" fill="#2f343b" stroke="#2f343b" stroke-width="0.7" d="M738.3,551.7 L738.3,551.7 L735.8,546.9 L735.0,552.5 L735.0,557.3 L736.6,554.9 L738.3,551.7"/>
    <path id="Untitled-14" fill="#2f343b" stroke="#2f343b" stroke-width="0.7" d="M732.5,535.0 L732.5,535.0 L727.6,526.2 L728.4,532.6 C728.8,535.8 730.1,538.2 730.9,537.4 L732.5,535.0"/>
    <path id="Untitled-15" fill="#2f343b" stroke="#2f343b" stroke-width="0.7" d="M580.0,535.8 L580.0,535.8 C580.4,531.0 582.1,530.2 583.3,531.0 C584.5,531.8 588.2,533.4 590.7,534.2 C593.5,535.0 597.6,535.4 598.9,535.0 C600.1,534.2 598.9,532.2 596.4,531.0 C593.9,529.8 589.4,527.0 587.4,525.4 C585.7,523.8 585.3,520.2 586.6,518.2 C588.2,515.8 590.7,515.8 591.5,518.2 C592.7,520.6 596.0,524.2 598.0,525.4 C600.5,526.6 606.2,527.8 609.5,527.8 C612.8,527.8 617.7,526.2 619.4,524.6 C621.4,523.0 624.3,519.0 625.1,516.6 C626.3,513.8 629.2,511.8 630.8,512.6 C632.9,513.4 636.2,516.6 637.4,519.0 L639.9,523.0 L639.0,519.0 C638.6,517.0 640.3,515.4 642.3,515.8 C644.4,515.8 648.5,517.4 650.5,519.0 C652.6,520.6 657.1,523.0 659.5,523.8 C662.4,524.6 667.8,525.0 670.2,524.6 C672.7,523.8 673.1,521.4 671.0,519.8 C669.0,518.2 664.5,515.8 662.0,515.0 C659.5,513.8 654.2,511.8 651.3,511.0 C648.9,509.8 643.6,507.8 640.7,507.0 C638.2,506.2 632.5,505.4 629.2,505.4 C625.9,505.0 619.4,504.2 616.1,503.8 C612.8,503.4 606.7,503.8 603.8,504.6 C601.3,505.4 596.0,507.4 593.1,508.6 C590.7,509.4 586.2,511.8 584.1,513.4 C582.5,515.0 579.6,519.0 578.4,521.4 C577.1,523.4 575.5,528.6 575.1,531.8 C575.1,534.6 576.3,537.0 577.5,536.6 L580.0,535.8"/>
    <path id="Untitled-16" fill="#2f343b" stroke="#2f343b" stroke-width="0.7" d="M626.7,538.2 L626.7,538.2 C634.5,535.8 636.2,534.2 634.9,533.4 C634.1,532.2 630.4,531.8 627.6,532.6 C624.7,533.0 618.5,533.8 615.3,534.2 C612.4,534.6 609.9,536.2 610.3,537.4 C611.2,538.2 615.7,539.0 619.4,539.0 L626.7,538.2"/>
    <path id="Untitled-17" fill="#2f343b" stroke="#2f343b" stroke-width="0.7" d="M398.5,497.1 C396.2,497.1 393.9,497.2 392.2,497.4 C388.9,497.4 382.0,497.8 378.3,498.2 C375.0,498.2 368.9,499.0 366.0,499.8 C363.1,500.2 357.4,501.4 354.5,502.2 C352.1,503.0 347.1,504.6 344.7,505.4 C342.2,506.2 339.7,507.8 339.7,508.6 C339.7,509.0 342.2,509.8 344.7,510.2 C347.1,510.6 352.1,510.2 354.5,509.4 C357.0,508.2 361.9,506.2 364.4,505.4 C367.2,504.6 370.1,505.8 370.1,507.8 C370.5,509.4 372.1,509.8 373.4,508.6 C375.0,507.4 378.3,505.4 379.9,504.6 C382.0,503.4 384.4,505.0 384.9,507.8 C385.7,510.6 388.1,515.0 389.8,516.6 C391.8,518.2 396.7,520.6 399.6,521.4 C402.9,521.8 408.6,521.4 411.1,520.6 C413.5,519.4 417.2,516.2 418.5,514.2 C420.1,511.8 423.4,509.4 425.0,509.4 C427.1,509.4 429.9,511.4 430.8,513.4 C432.0,515.4 430.3,518.6 427.5,519.8 C425.0,520.6 420.1,522.6 417.6,523.8 C415.2,524.6 409.4,525.8 406.2,526.2 C402.9,526.6 396.7,526.6 393.9,526.2 C391.0,525.4 385.7,523.8 383.2,523.0 C380.7,521.8 375.4,520.2 372.5,519.8 C370.1,519.0 364.8,517.4 361.9,516.6 L357.0,515.0 L360.2,518.2 C361.9,519.8 365.6,522.6 367.6,523.8 C370.1,525.0 375.0,527.0 377.5,527.8 C380.4,528.6 388.1,529.8 393.0,530.2 L403.7,530.2 C412.7,529.0 418.9,528.2 421.8,527.8 C425.0,527.0 430.4,525.8 432.4,525.4 C434.9,525.0 437.3,526.2 437.3,527.8 L437.9,530.1 C438.0,530.2 438.0,530.1 438.0,530.1 C438.2,530.2 438.3,530.3 438.4,530.3 L439.8,527.0 C441.0,524.6 441.4,519.8 440.6,517.4 C439.8,514.6 436.9,510.2 434.9,508.6 C433.2,506.6 428.7,503.8 425.9,503.0 C423.4,502.2 418.1,500.6 415.2,499.8 C412.7,499.0 407.4,497.8 404.5,497.4 C403.1,497.2 400.8,497.1 398.5,497.1"/>
    <path id="Untitled-18" fill="#2f343b" stroke="#2f343b" stroke-width="0.7" d="M736.6,519.8 L736.6,519.8 C735.4,512.2 733.4,508.2 731.7,507.0 C730.5,505.4 728.4,505.8 727.6,507.8 C727.2,509.8 728.0,513.8 729.2,515.8 C730.5,517.4 732.9,519.4 734.2,519.8 L736.6,519.8"/>
    <path id="Untitled-19" fill="#2f343b" stroke="#2f343b" stroke-width="0.7" d="M612.0,510.2 L612.0,510.2 C612.0,508.6 609.9,507.8 607.9,507.8 L604.6,507.0 L607.9,508.6 L612.0,510.2"/>
    <path id="Untitled-20" fill="#2f343b" stroke="#2f343b" stroke-width="0.7" d="M407.8,504.6 L407.8,504.6 C407.0,502.2 404.5,501.4 402.1,501.4 L398.0,500.6 L402.9,503.0 L407.8,504.6"/>
    <path id="Untitled-21" fill="#2f343b" stroke="#2f343b" stroke-width="0.7" d="M742.4,495.0 L742.4,495.0 C741.6,485.5 740.7,479.5 739.9,476.7 C739.5,473.5 738.3,469.9 737.5,469.5 C736.6,468.7 735.8,471.1 735.8,474.3 C736.2,477.5 736.2,483.5 735.8,486.3 C735.8,488.7 736.6,493.8 737.5,496.6 C738.3,499.0 739.9,499.8 740.7,498.2 L742.4,495.0"/>
    <path id="Untitled-22" fill="#2f343b" stroke="#2f343b" stroke-width="0.7" d="M607.1,435.2 L611.2,436.8 C613.6,437.6 616.5,439.5 616.9,440.7 C617.3,441.5 614.0,442.7 610.4,443.1 C607.1,443.1 601.3,444.3 598.9,445.5 C596.8,446.7 591.5,448.7 588.2,449.5 C585.3,449.9 579.6,451.1 576.7,451.9 C574.3,452.7 568.9,454.3 566.1,455.1 C563.2,455.5 560.7,457.1 561.1,458.3 C561.5,459.5 564.4,460.3 566.9,459.9 L571.8,458.3 L569.4,461.5 C568.1,463.1 566.1,467.1 565.3,469.5 C564.4,471.5 564.4,474.3 565.3,475.1 L566.9,475.9 C574.7,473.5 580.4,471.9 583.3,471.1 C586.2,470.3 591.1,468.3 593.1,467.1 C595.2,465.5 598.0,465.1 598.9,466.3 C599.7,467.1 598.5,469.5 596.4,471.1 C594.4,472.7 590.7,475.5 589.0,476.7 L586.6,479.1 L591.5,476.7 C593.9,475.5 598.5,473.1 600.5,471.9 C603.0,470.7 605.4,468.3 605.4,467.1 C605.8,465.9 609.5,464.7 612.8,464.7 C616.1,464.7 621.8,465.1 624.3,465.5 C627.2,465.9 632.9,467.1 635.8,467.9 C638.6,468.7 643.6,470.7 645.6,471.9 C648.1,473.1 653.4,474.7 656.3,475.1 C659.1,475.1 665.3,475.5 668.6,475.9 C671.9,476.3 674.3,475.1 673.5,473.5 C673.1,471.9 671.0,468.3 669.4,466.3 C667.7,464.3 664.9,460.3 663.6,458.3 C662.4,455.9 660.0,452.3 658.7,451.1 L656.3,447.9 L657.9,453.5 L660.4,458.3 L658.7,457.5 C657.9,456.7 655.9,454.7 654.6,453.5 C653.8,451.9 651.3,448.7 649.7,447.1 C648.1,445.1 644.4,441.5 642.3,440.0 C640.7,438.4 636.6,437.1 634.1,437.5 C631.7,437.9 626.3,437.6 623.5,436.8 C621.0,436.0 615.7,435.2 612.8,435.2 L607.1,435.2"/>
    <path id="Untitled-23" fill="#2f343b" stroke="#2f343b" stroke-width="0.7" d="M463.6,470.3 L463.6,470.3 C458.6,465.1 456.6,461.9 456.2,460.7 C456.2,459.1 458.2,459.1 460.3,460.7 C462.3,461.9 465.6,465.5 466.8,467.9 C468.1,469.9 469.7,471.1 470.1,470.3 C470.9,469.1 470.5,465.5 469.3,463.1 C468.5,460.7 465.6,456.7 463.6,455.1 C461.5,453.5 457.4,450.3 455.4,448.7 C453.7,447.1 451.7,446.7 451.3,447.9 C450.9,448.7 448.8,448.7 447.2,447.9 C445.9,446.7 441.8,445.1 439.0,444.7 C436.5,444.3 431.6,443.1 429.1,442.3 C427.1,441.1 423.8,438.8 422.6,437.6 C421.3,436.0 417.2,434.0 414.4,433.6 C411.9,433.2 406.6,433.6 403.7,434.4 C400.8,435.2 397.6,437.2 397.1,438.4 C396.7,439.2 393.5,440.3 390.6,440.7 C388.1,440.7 387.3,439.2 388.9,437.6 C391.0,436.0 391.8,433.6 390.6,432.8 C389.8,432.0 388.5,430.4 388.1,429.6 C387.7,428.8 390.2,428.0 393.0,428.0 C396.3,428.0 402.1,427.2 404.5,426.4 L410.3,424.0 L405.3,424.8 C402.9,424.8 398.0,424.4 395.5,424.0 C393.5,423.6 391.4,422.4 391.4,421.6 C391.4,420.8 388.9,421.2 386.5,422.4 C384.0,423.2 378.7,425.2 375.8,426.4 C373.4,427.2 368.4,428.8 366.0,429.6 L361.1,430.4 L364.3,427.2 C366.4,425.6 369.3,423.2 370.1,422.4 L372.5,420.0 L366.8,421.6 C364.3,422.4 360.2,423.2 358.6,423.2 C357.0,423.2 357.0,421.6 358.6,420.0 L361.9,416.0 L357.0,417.6 C354.9,418.4 350.8,420.8 348.8,422.4 C346.7,424.0 343.0,427.6 341.4,429.6 C340.2,431.6 336.9,435.6 334.8,437.6 C333.2,439.2 330.3,441.1 329.1,441.5 C327.9,441.5 325.8,441.9 325.0,442.3 C324.2,442.3 321.7,444.7 320.1,447.1 C318.8,449.1 318.4,452.3 319.2,453.5 C320.5,454.7 323.8,454.3 325.8,452.7 C327.9,451.1 331.1,447.5 332.4,445.5 C334.0,443.5 336.1,442.7 336.5,443.9 C336.9,444.7 335.6,447.9 334.0,450.3 C332.8,452.3 330.7,455.9 329.9,457.5 C329.5,459.1 331.1,459.5 333.2,458.3 C335.6,456.7 341.0,455.9 343.8,456.7 C346.7,457.1 352.9,457.9 356.1,458.3 C359.4,458.3 365.6,459.1 368.4,459.9 C371.3,460.7 377.1,461.1 379.9,460.7 C382.8,459.9 388.5,459.1 391.4,459.1 C394.7,458.7 400.8,458.7 403.7,459.1 C406.6,459.1 412.3,459.1 415.2,459.1 C418.5,459.1 424.2,460.3 426.7,461.5 C429.5,462.3 434.9,464.3 437.3,465.5 C439.8,466.3 445.1,467.9 448.0,468.7 C450.9,469.5 456.2,470.3 458.6,470.3 L463.6,470.3"/>
    <path id="Untitled-24" fill="#2f343b" stroke="#2f343b" stroke-width="0.7" d="M762.1,459.1 L762.1,459.1 C755.9,455.1 752.2,451.5 750.6,449.5 C748.9,447.5 745.7,443.5 744.0,441.5 L741.6,437.6 L742.4,442.3 C743.2,444.7 744.4,448.7 744.8,450.3 C745.2,451.9 747.7,455.1 749.8,456.7 C751.8,457.9 755.9,459.1 758.0,459.1 L762.1,459.1"/>
    <path id="Untitled-25" fill="#2f343b" stroke="#2f343b" stroke-width="0.7" d="M351.2,450.3 L351.2,450.3 C360.2,449.1 363.5,447.9 363.5,447.1 C363.5,446.3 360.2,445.9 357.0,446.3 C353.7,446.3 347.9,447.1 345.5,447.9 L341.4,449.5 L346.3,450.3 L351.2,450.3"/>
    <path id="Untitled-26" fill="#2f343b" stroke="#2f343b" stroke-width="0.7" d="M759.6,444.7 L759.6,444.7 C757.1,438.4 754.7,436.4 753.0,436.8 C751.8,436.8 749.3,434.4 748.1,432.0 C747.3,429.6 746.5,425.6 746.5,424.0 C746.9,422.4 748.1,421.6 748.9,422.4 C750.2,422.8 750.2,420.8 748.9,418.4 C748.1,416.0 746.9,411.2 746.5,408.8 C746.5,406.0 744.8,401.2 743.2,399.2 C742.0,397.2 739.1,393.2 737.5,391.2 L735.0,387.3 L735.0,391.2 C735.0,393.2 736.2,397.2 737.5,399.2 C739.1,401.2 740.3,404.4 739.9,405.6 C739.5,406.8 739.5,410.0 739.9,412.0 C740.7,414.0 740.7,418.4 739.9,420.8 C739.5,423.2 740.7,427.6 742.4,429.6 C744.0,431.6 747.3,435.6 748.9,437.6 C750.6,439.2 753.4,443.1 754.7,445.5 C756.3,447.5 758.4,448.3 758.8,447.1 L759.6,444.7"/>
    <path id="Untitled-27" fill="#2f343b" stroke="#2f343b" stroke-width="0.7" d="M767.8,435.2 L767.8,435.2 L761.2,428.0 L763.7,432.8 C764.9,435.2 766.6,437.2 767.0,436.8 L767.8,435.2"/>
    <path id="Untitled-28" fill="#2f343b" stroke="#2f343b" stroke-width="0.7" d="M771.1,413.6 L771.1,413.6 C767.4,407.2 766.6,402.0 767.0,399.2 C767.4,396.4 767.8,391.2 767.8,388.9 C768.2,386.5 767.4,381.7 766.2,379.3 C765.3,376.9 762.1,373.3 759.6,372.1 L755.5,368.9 L756.3,372.9 C756.7,374.5 758.4,378.5 759.6,380.9 C760.8,383.3 762.1,388.1 762.1,390.4 C762.5,392.8 760.8,394.8 758.8,394.4 L755.5,393.6 L758.8,397.6 C760.4,399.6 762.5,404.4 762.9,407.2 L763.7,412.0 L760.4,408.0 C758.8,406.0 755.9,402.0 754.7,400.0 C753.4,397.6 751.0,392.8 749.8,390.4 C748.9,388.1 748.1,382.9 748.1,380.1 C748.5,376.9 748.9,371.3 748.9,368.9 C748.9,366.1 747.7,360.9 746.5,358.5 C745.2,356.1 742.8,354.9 741.6,356.1 C740.7,357.3 738.7,356.1 737.5,353.7 C736.6,351.3 734.6,346.5 733.4,344.1 C732.1,341.7 729.2,337.8 727.6,336.2 L724.3,332.2 L726.0,336.2 C727.2,337.8 729.2,341.7 730.1,344.1 C730.9,346.1 732.5,350.5 733.4,352.9 C734.6,355.3 736.6,360.5 737.5,363.3 C738.7,365.7 739.1,368.1 738.3,368.1 C737.9,368.1 736.2,365.7 735.0,363.3 C733.8,360.9 731.7,356.1 730.9,353.7 L729.2,348.1 L729.2,352.1 C729.2,353.7 729.7,358.5 730.1,361.7 C730.5,364.9 731.7,370.5 732.5,372.9 C733.8,375.3 736.6,379.3 738.3,380.9 C739.9,382.5 742.4,386.5 743.2,388.9 C744.0,390.8 746.1,394.8 747.3,396.8 C748.9,398.8 751.8,403.2 753.0,405.6 C754.7,407.6 757.5,411.6 758.8,413.6 C760.4,415.6 763.7,418.8 765.3,420.0 C767.4,420.8 769.8,419.6 770.3,417.6 L771.1,413.6"/>
    <path id="Untitled-29" fill="#2f343b" stroke="#2f343b" stroke-width="0.7" d="M678.4,396.0 L678.4,396.0 L678.4,385.7 L680.1,388.1 C680.9,389.2 682.5,390.8 683.3,391.2 C684.1,391.2 685.4,388.4 685.8,385.7 C686.2,382.5 685.4,376.9 684.1,374.5 C683.3,371.7 680.9,367.3 679.2,365.7 L676.0,361.7 L676.8,368.1 C677.2,371.3 677.2,377.3 676.8,380.1 C676.4,382.5 675.5,388.1 675.1,391.2 C674.7,394.0 675.1,396.8 676.0,396.8 L678.4,396.0"/>
    <path id="Untitled-30" fill="#2f343b" stroke="#2f343b" stroke-width="0.7" d="M669.4,372.9 L669.4,372.9 C667.3,364.5 665.3,359.7 663.6,357.7 C662.4,355.3 659.5,350.9 657.9,348.9 C656.7,346.9 653.4,344.1 651.3,343.3 C649.3,342.1 645.6,340.5 644.0,340.1 C642.3,339.7 640.3,340.1 639.9,340.9 C639.9,341.7 641.9,344.1 644.0,345.7 C646.0,347.3 649.7,350.9 651.3,352.9 C653.0,354.5 655.9,358.1 657.1,360.1 C658.7,362.1 661.2,366.9 662.0,369.7 C663.2,372.1 665.7,374.1 666.9,373.7 L669.4,372.9"/>
    <path id="Untitled-31" fill="#2f343b" stroke="#2f343b" stroke-width="0.7" d="M764.5,363.3 L764.5,363.3 C760.0,357.3 758.4,352.1 758.0,348.9 C757.5,345.7 755.9,340.5 754.7,338.5 C753.4,336.2 751.4,331.4 750.6,329.0 C749.8,326.2 748.5,321.0 748.1,318.6 C748.1,315.8 749.3,312.2 750.6,311.4 L753.0,309.0 L751.4,314.6 C751.0,317.0 751.8,321.8 753.0,324.2 C754.3,326.2 756.3,330.6 757.1,333.0 L759.6,337.8 L760.4,334.6 C760.8,333.0 760.4,328.6 759.6,325.8 C759.2,323.0 758.0,317.4 757.1,314.6 C756.7,311.4 755.1,306.2 753.9,304.2 C752.6,301.8 751.4,296.6 751.4,293.8 C751.4,290.6 751.8,284.7 752.2,281.9 L753.0,276.3 L753.9,281.1 L755.5,285.9 L756.3,281.9 C757.1,279.5 756.7,275.1 755.5,273.1 C754.3,270.7 752.2,265.9 751.4,263.5 C750.6,260.7 747.7,256.3 745.7,254.7 C743.6,253.1 741.6,253.1 741.6,254.7 C741.6,255.9 742.4,259.9 743.2,262.7 C744.0,265.5 744.8,271.5 744.8,274.7 C745.2,277.9 745.2,281.9 744.8,282.7 L744.0,283.5 L744.0,288.2 L744.0,293.0 L743.2,289.0 C743.2,287.0 743.2,284.7 743.2,284.3 L744.0,283.5 L742.4,277.1 C741.6,273.5 739.9,267.1 739.1,264.3 C738.3,261.5 736.2,256.7 735.0,254.7 C733.8,252.3 732.1,246.7 731.7,243.5 C731.7,240.3 730.5,237.1 729.2,237.1 C728.4,236.7 727.6,238.7 727.6,241.1 C727.6,243.1 728.4,247.9 729.2,250.7 C730.5,253.1 732.5,258.3 733.4,261.1 C734.2,263.5 735.8,268.7 736.6,271.5 C737.5,273.9 739.1,279.1 739.9,281.9 C740.7,284.7 741.6,291.0 741.6,294.6 C741.6,297.8 741.1,303.8 740.7,306.6 C740.7,309.0 739.5,313.8 738.3,316.2 C737.5,318.6 735.8,323.8 735.0,326.6 C734.6,329.4 735.4,334.6 736.6,337.0 C738.3,338.9 741.1,342.9 742.4,344.9 C744.0,346.9 747.3,350.9 748.9,352.9 C750.6,354.9 753.4,359.3 754.7,361.7 C755.9,363.7 758.8,365.3 760.4,364.9 L764.5,363.3"/>
    <path id="Untitled-32" fill="#2f343b" stroke="#2f343b" stroke-width="0.7" d="M721.9,351.3 L721.9,351.3 C719.8,342.9 718.2,337.8 717.0,335.4 C715.7,333.0 713.3,328.6 712.0,326.6 C710.8,324.2 707.9,319.8 706.3,317.8 C705.1,315.8 704.2,313.4 704.6,313.0 C705.1,312.6 704.2,309.8 703.0,307.4 C702.2,305.0 699.7,300.6 698.1,298.6 C696.5,296.6 693.2,292.6 691.5,290.6 C690.3,288.6 688.7,283.9 688.2,281.1 C687.8,277.9 685.8,272.7 684.1,270.7 C682.9,268.3 679.6,264.3 677.6,262.7 C676.0,261.1 672.3,257.9 670.2,256.3 L666.1,253.1 L667.8,257.9 C668.6,259.9 670.6,263.9 671.9,265.9 C673.5,267.9 676.0,272.3 676.8,274.7 C677.6,277.1 679.6,281.9 680.9,284.3 C682.1,286.3 683.3,291.0 683.3,293.8 C683.7,296.2 685.4,300.6 686.6,302.6 C688.2,304.6 691.5,308.2 693.2,309.8 C695.2,311.4 698.1,315.8 698.9,318.6 C700.1,321.0 702.2,325.8 703.0,328.2 C704.2,330.6 706.7,335.4 707.9,337.8 C709.2,340.1 711.6,344.9 712.9,347.3 C714.1,349.3 716.1,353.7 717.0,356.1 L719.4,360.9 L720.2,356.1 L721.9,351.3"/>
    <path id="Untitled-33" fill="#2f343b" stroke="#2f343b" stroke-width="0.7" d="M750.6,340.9 L750.6,340.9 C747.3,333.8 745.2,329.8 744.0,328.2 L742.4,324.2 L741.6,329.8 C741.6,332.6 742.8,337.4 744.0,339.3 C745.7,341.3 748.1,342.9 748.9,342.5 L750.6,340.9"/>
    <path id="Untitled-34" fill="#2f343b" stroke="#2f343b" stroke-width="0.7" d="M712.0,333.8 L712.0,333.8 L713.7,339.3 L712.9,337.0 L712.0,333.8"/>
    <path id="Untitled-35" fill="#2f343b" stroke="#2f343b" stroke-width="0.7" d="M628.4,329.8 L628.4,329.8 L625.9,327.4 L625.9,330.6 L625.9,333.0 L626.7,331.4 L628.4,329.8"/>
    <path id="Untitled-36" fill="#2f343b" stroke="#2f343b" stroke-width="0.7" d="M719.4,319.4 L719.4,319.4 C718.2,310.6 716.1,305.4 714.5,303.4 C713.3,301.0 710.8,296.2 709.6,293.8 C708.8,291.4 707.1,286.6 706.3,284.3 C705.5,281.5 703.4,276.3 702.2,273.9 C701.0,271.5 698.5,266.7 697.3,264.3 C696.5,261.9 696.0,258.3 696.5,257.1 C697.3,255.5 699.3,256.3 700.6,258.7 C701.8,260.7 704.2,264.7 705.5,266.7 C706.7,268.3 709.2,272.3 710.4,274.7 C711.6,277.1 714.1,281.5 715.3,283.5 C717.0,285.5 717.4,287.8 716.1,288.2 C715.3,288.2 713.7,289.0 712.9,289.8 C712.0,290.2 712.4,293.0 713.7,295.4 C714.9,297.4 717.8,301.0 719.4,302.6 C721.1,304.2 723.5,303.4 724.3,301.0 C725.6,298.6 725.6,293.8 724.3,291.4 C723.5,288.6 721.1,283.9 719.4,281.9 C718.2,279.9 715.7,275.5 714.5,273.1 C713.7,270.7 712.0,265.9 711.2,263.5 L709.6,258.7 L712.9,262.7 C714.5,264.3 717.4,268.3 718.6,270.7 C720.2,272.7 723.1,277.1 724.3,279.5 L726.8,283.5 L727.6,278.7 C728.4,276.3 728.4,271.1 727.6,268.3 C726.8,265.5 724.7,260.7 723.5,258.7 C722.3,256.3 720.2,251.1 719.4,248.3 C718.6,245.5 717.0,240.3 716.1,237.9 C715.3,235.2 712.9,230.4 711.2,228.4 C710.0,226.4 706.7,222.8 704.6,221.2 C703.0,219.2 699.3,216.0 697.3,214.8 C695.2,213.2 690.7,210.4 688.2,209.2 C686.2,207.6 682.5,204.0 680.9,202.0 C679.6,200.0 676.8,196.0 675.1,194.0 C673.9,192.0 671.0,188.0 669.4,186.0 C667.8,184.1 664.1,180.9 662.0,179.7 C660.0,178.1 655.9,176.9 653.8,177.3 C652.2,177.3 651.8,179.3 653.0,181.3 C654.6,183.3 655.0,186.8 653.8,188.4 C653.0,190.0 653.4,192.4 654.6,193.2 C656.3,193.6 659.5,194.0 661.2,194.0 C662.8,193.6 666.1,195.2 667.8,197.2 C669.8,198.8 673.5,202.4 675.1,204.4 C676.8,206.0 679.6,209.6 680.9,211.6 C682.5,213.6 685.8,217.6 687.4,219.6 C689.1,221.6 692.8,225.2 694.8,226.8 C696.9,228.0 701.0,230.8 703.0,232.4 C705.5,233.6 709.2,237.1 710.4,239.5 C711.6,241.5 712.0,244.7 711.2,245.9 C710.4,246.7 707.9,245.5 706.3,243.5 C705.1,241.1 701.8,237.5 699.7,236.3 C697.7,234.8 694.0,232.0 692.4,230.8 C690.7,229.6 689.1,231.6 689.1,234.8 C689.1,237.5 689.5,243.1 689.9,245.9 C690.7,248.7 691.1,254.7 690.7,257.9 C690.7,260.7 691.9,265.9 693.2,268.3 C694.4,270.3 696.9,274.7 698.1,277.1 C699.7,279.1 702.2,283.5 703.0,285.9 C704.2,288.2 705.9,293.4 706.3,296.2 C707.1,299.0 709.2,304.2 710.4,306.6 C711.6,309.0 713.3,314.2 713.7,317.0 C714.5,319.8 716.1,321.8 717.0,321.0 L719.4,319.4"/>
    <path id="Untitled-37" fill="#2f343b" stroke="#2f343b" stroke-width="0.7" d="M484.1,310.6 L484.1,310.6 L478.3,302.6 L478.3,305.8 C478.7,307.0 480.4,310.6 481.6,313.0 L484.1,317.0 L484.1,313.8 L484.1,310.6"/>
    <path id="Untitled-38" fill="#2f343b" stroke="#2f343b" stroke-width="0.7" d="M528.3,307.4 L528.3,307.4 C533.7,302.6 534.9,300.6 534.1,300.2 C533.7,299.4 531.2,300.2 529.2,301.8 C527.5,303.4 526.3,305.8 526.7,306.6 L528.3,307.4"/>
    <path id="Untitled-39" fill="#2f343b" stroke="#2f343b" stroke-width="0.7" d="M692.4,294.6 L692.4,294.6 L691.5,299.4 L691.5,297.0 L692.4,294.6"/>
    <path id="Untitled-40" fill="#2f343b" stroke="#2f343b" stroke-width="0.7" d="M744.0,293.0 L744.0,293.0 L744.0,283.5 L743.2,284.3 C743.2,284.7 743.2,287.0 743.2,289.0 L744.0,293.0"/>
    <path id="Untitled-41" fill="#2f343b" stroke="#2f343b" stroke-width="0.7" d="M261.8,260.3 L261.8,260.3 L258.6,261.1 L260.2,261.1 L261.8,260.3"/>
    <path id="Untitled-42" fill="#2f343b" stroke="#2f343b" stroke-width="0.7" d="M718.6,257.9 L718.6,257.9 C713.7,252.7 710.0,251.5 707.9,252.3 C706.3,252.7 706.7,254.3 708.8,255.5 C711.2,256.7 714.9,257.9 716.1,257.9 L718.6,257.9"/>
    <path id="Untitled-43" fill="#2f343b" stroke="#2f343b" stroke-width="0.7" d="M685.0,253.1 L685.0,253.1 C682.9,244.7 681.7,239.1 680.9,236.3 C680.5,233.2 680.1,227.6 680.1,225.2 C680.1,222.4 678.8,220.0 677.6,220.4 C676.4,220.4 675.1,222.8 675.1,225.2 L676.0,229.2 L672.7,226.8 C671.0,225.2 668.6,224.4 667.8,225.2 C666.9,226.0 667.8,228.0 669.4,229.2 C671.4,230.4 673.1,232.8 672.7,234.0 C672.3,234.8 671.0,236.3 670.2,237.1 C669.8,237.5 670.6,240.3 671.9,242.7 C673.1,244.7 675.5,249.1 676.8,251.5 C678.0,253.9 680.5,255.5 681.7,254.7 L685.0,253.1"/>
    <path id="Untitled-44" fill="#2f343b" stroke="#2f343b" stroke-width="0.7" d="M752.2,247.5 L752.2,247.5 C749.8,239.9 747.3,235.2 745.7,233.2 C744.0,231.2 741.6,227.2 740.7,225.2 C740.3,223.2 737.5,220.0 735.0,218.8 C732.9,217.6 730.9,214.8 730.9,213.2 C730.9,211.6 729.2,209.2 727.6,208.4 C726.4,207.6 723.9,204.8 722.7,202.8 C721.9,200.4 719.0,196.4 717.0,194.8 C715.3,193.2 711.6,190.4 709.6,189.2 C707.5,187.6 703.0,184.8 700.6,183.7 C698.1,182.5 693.2,180.5 690.7,179.7 C688.2,178.5 682.5,178.1 679.2,178.9 C676.4,179.3 675.1,181.3 676.8,182.9 C678.8,184.4 683.3,186.8 685.8,187.6 C688.7,188.4 693.6,190.8 695.6,192.4 C697.7,194.0 701.4,197.6 703.0,199.6 C704.6,201.2 707.9,204.8 709.6,206.8 C711.2,208.8 714.9,212.4 717.0,214.0 C719.0,215.2 722.7,218.4 724.3,220.4 C726.0,222.0 729.2,225.6 730.9,227.6 C732.9,229.2 736.6,232.8 738.3,234.8 C739.9,236.3 742.8,240.3 744.0,242.7 C745.2,245.1 748.1,249.1 749.8,250.7 L753.9,253.9 L753.0,250.7 L752.2,247.5"/>
    <path id="Untitled-45" fill="#2f343b" stroke="#2f343b" stroke-width="0.7" d="M725.1,229.2 L725.1,229.2 C720.6,223.2 717.0,220.4 714.5,219.6 L710.4,217.2 L712.9,221.2 C714.5,223.2 717.4,227.2 718.6,229.2 C720.2,231.2 722.7,232.4 723.5,231.6 L725.1,229.2"/>
    <path id="Untitled-46" fill="#2f343b" stroke="#2f343b" stroke-width="0.7" d="M293.8,222.8 L293.8,222.8 L299.6,214.8 L295.5,217.2 C293.4,218.4 291.8,220.4 292.2,221.2 L293.8,222.8"/>
    <path id="Untitled-47" fill="#2f343b" stroke="#2f343b" stroke-width="0.7" d="M645.6,218.0 L645.6,218.0 C644.4,216.8 643.1,217.6 642.3,218.8 C641.9,219.6 641.5,220.8 641.5,221.2 C641.5,221.6 642.3,221.2 643.1,220.4 L645.6,218.0"/>
    <path id="Untitled-48" fill="#2f343b" stroke="#2f343b" stroke-width="0.7" d="M671.0,214.8 L671.0,214.8 C666.1,209.6 663.6,208.8 662.8,210.0 C662.4,210.8 663.6,213.6 665.3,215.6 C666.9,217.2 669.0,218.0 669.4,217.2 L671.0,214.8"/>
    <path id="Untitled-49" fill="#2f343b" stroke="#2f343b" stroke-width="0.7" d="M714.5,197.2 L714.5,197.2 L716.1,202.8 L715.3,200.4 L714.5,197.2"/>
    <path id="Untitled-50" fill="#2f343b" stroke="#2f343b" stroke-width="0.7" d="M689.9,192.4 L689.9,192.4 L683.3,191.6 L686.6,192.4 L689.9,192.4"/>
    <path id="Untitled-51" fill="#2f343b" stroke="#2f343b" stroke-width="0.7" d="M651.3,186.0 L651.3,186.0 L644.8,190.0 L648.1,188.4 L651.3,186.0"/>
    <path id="Untitled-52" fill="#2f343b" stroke="#2f343b" stroke-width="0.7" d="M709.6,174.1 L709.6,174.1 C702.6,170.5 698.5,167.7 696.5,166.1 C694.4,164.5 689.9,162.1 687.4,161.3 C685.0,160.1 679.2,158.5 676.0,158.1 C673.1,157.7 666.9,157.7 663.6,158.1 C660.8,158.1 655.0,157.3 652.2,156.5 C649.7,155.7 644.4,154.9 641.5,154.9 L635.8,154.9 L639.9,158.1 C641.9,159.3 646.4,161.7 648.9,162.9 C651.3,163.7 655.9,166.1 657.9,167.7 C660.4,168.9 664.9,171.7 666.9,173.3 C669.0,174.5 674.3,175.3 677.6,174.9 L684.1,174.1 L680.9,172.5 C679.2,171.3 675.1,168.9 672.7,167.7 C670.6,166.5 668.2,164.1 667.8,162.9 C667.3,161.7 669.8,161.3 672.7,162.1 C675.5,162.5 680.9,164.1 683.3,165.3 C686.2,166.1 690.7,168.5 692.4,170.1 C694.4,171.7 698.9,174.5 701.4,175.7 C703.8,176.5 707.1,176.5 707.9,175.7 L709.6,174.1"/>
    <path id="Untitled-53" fill="#2f343b" stroke="#2f343b" stroke-width="0.7" d="M315.1,173.3 L315.1,173.3 C309.4,168.5 307.4,168.1 306.9,169.3 C306.9,170.1 309.0,172.5 311.0,174.1 C313.1,175.3 315.1,175.7 315.1,174.9 L315.1,173.3"/>
    <path id="Untitled-54" fill="#2f343b" stroke="#2f343b" stroke-width="0.7" d="M372.5,142.9 L372.5,142.9 L367.6,140.5 L370.1,142.1 L372.5,142.9"/>
    <path id="Untitled-55" fill="#2f343b" stroke="#2f343b" stroke-width="0.7" d="M352.9,142.9 L352.9,142.9 C350.4,135.3 348.4,132.2 347.1,131.8 L345.5,130.2 L346.3,136.5 C346.7,139.3 348.4,142.5 349.6,142.9 L352.9,142.9"/>
    <path id="Untitled-56" fill="#2f343b" stroke="#2f343b" stroke-width="0.7" d="M593.9,142.9 L593.9,142.9 C590.3,140.1 588.6,137.7 588.2,136.5 C587.8,135.3 584.9,135.3 582.5,136.5 C580.4,137.7 580.4,140.1 582.5,141.3 C584.9,142.5 589.0,143.7 590.7,143.7 L593.9,142.9"/>
  </g>
</svg>
