<?xml version="1.0" encoding="UTF-8" standalone="no"?>
<svg width="172px" height="209px" viewBox="0 0 172 209" version="1.1" xmlns="http://www.w3.org/2000/svg" xmlns:xlink="http://www.w3.org/1999/xlink">
    <!-- Generator: Sketch 41.2 (35397) - http://www.bohemiancoding.com/sketch -->
    <title>man</title>
    <desc>Created with Sketch.</desc>
    <defs>
        <path d="M152.202431,25.3748108 C149.756564,21.0616646 146.4382,17.3738968 146.434259,17.3699989 C142.428807,11.5641227 160.674089,2.00935159 159.444674,2.56479796 L141.696953,10.8029446 C134.844536,3.83550333 124.798396,0.224127481 111.911203,0.224127481 C98.9905155,0.224127481 86.9721879,3.87837989 82.8426117,5.27771495 C78.7110653,3.87837989 66.6848568,0.224127481 53.7602291,0.224127481 C40.723299,0.224127481 30.6062314,3.92515433 23.7459336,11.0446125 L17.1107639,5.27771495 L12.2558449,11.0446125 C8.29570745,9.20871608 7.33008018,27.8970502 6.7961512,28.5070667 C0.170309278,37.2363449 0.522290712,30.5827086 2.46886574,39.0449827 C5.18776608,50.8828116 1.74845361,48.0334427 6.7961512,51.122504 C-3.77209622,79.7387111 -1.73664077,112.147777 12.2558449,137.023978 C19.1929812,149.354887 62.9887285,174.301673 82.8426117,174.301673 C102.698465,174.301673 145.267264,149.356836 152.202431,137.023978 C166.255993,112.042534 169.327285,79.4346773 158.725544,50.7463596 C163.964353,47.4370687 156.111065,50.4287098 158.725544,39.0449827 C160.469187,31.4402398 155.902207,31.8991565 152.202431,25.3748108 Z" id="path-1"></path>
        <mask id="mask-2" maskContentUnits="userSpaceOnUse" maskUnits="objectBoundingBox" x="0" y="0" width="164.955734" height="174.077546" fill="white">
            <use xlink:href="#path-1"></use>
        </mask>
    </defs>
    <g id="Page-2" stroke="none" stroke-width="1" fill="none" fill-rule="evenodd">
        <g id="Desktop" transform="translate(-594.000000, -448.000000)">
            <g id="man" transform="translate(594.000000, 448.000000)">
                <g id="tiger" transform="translate(6.096296, 34.006920)" stroke-width="16" stroke="#000000" fill="#FFFFFF">
                    <g id="Group">
                        <use id="Shape" mask="url(#mask-2)" xlink:href="#path-1"></use>
                    </g>
                </g>
                <g id="glasses" transform="translate(5.096296, 81.868512)" fill="#000000">
                    <g id="Group">
                        <g>
                            <g id="Shape">
                                <path d="M164.963486,6.24454947 C164.407599,5.98855034 151.103358,0 127.163137,0 C113.905221,0 106.706478,2.03884991 100.360096,3.8582722 C95.1254889,5.34855269 90.595006,6.62854817 83.4518519,6.62854817 C76.2994329,6.62854817 71.7782148,5.34855269 66.5436076,3.8582722 C60.1972256,2.03884991 52.9984826,0 39.7405663,0 C15.8003454,0 2.4961051,5.98855034 1.94021761,6.24454947 C1.22682868,6.56454829 0.75432433,7.25026024 0.698735568,8.02740043 L0.00387622725,18.2765072 C-0.0517125163,19.1816468 0.494910169,20.0410724 1.36580055,20.3884998 C2.2830149,20.74507 3.3392011,21.4490675 3.48743777,21.7507807 C3.60788005,22.1164937 3.83023504,23.250204 4.17303233,24.8684839 C5.25701291,30.089037 7.26747263,39.8170028 9.7319072,46.290123 C12.5761982,53.7780966 15.6057849,56.996371 22.6655558,60.0317889 C26.881036,61.851211 33.3849195,62.9757785 39.6571833,62.9757785 C45.7812103,62.9757785 51.4883218,61.9152109 56.1485117,59.9129321 C68.2946532,54.6832362 71.2037977,46.7472642 74.9004494,36.7084424 C75.4378073,35.2181619 75.9103117,33.8741665 76.3272273,32.6673137 C78.9028393,25.2890539 79.3846085,24.3382001 83.4518519,24.3382001 C87.5190952,24.3382001 88.0101292,25.2890539 90.5764764,32.6673137 C91.0026568,33.8833093 91.4658964,35.2181619 92.012519,36.6992996 C95.6906412,46.7472642 98.5905209,54.6832362 110.745927,59.9129321 C115.415382,61.9152109 121.122493,62.9757785 127.24652,62.9757785 C133.509519,62.9757785 140.022668,61.851211 144.247413,60.0317889 C151.297919,56.996371 154.318241,53.7780966 157.171797,46.290123 C159.617701,39.8535741 161.628161,30.1530369 162.712142,24.9507693 C163.064204,23.2959181 163.295824,22.1347792 163.397736,21.7964949 C163.573767,21.4490675 164.629954,20.74507 165.537903,20.3884998 C166.408794,20.0410724 166.955416,19.1816468 166.899827,18.2765072 L166.204968,8.02740043 C166.149379,7.25026024 165.66761,6.56454829 164.963486,6.24454947 L164.963486,6.24454947 L164.963486,6.24454947 Z M62.6523954,42.578136 C58.844566,50.468394 50.8490511,54.4729514 38.8974702,54.4729514 C29.3084113,54.4729514 23.4252688,52.3152447 19.8212648,47.487833 C16.3377034,42.8067065 12.1222232,22.8113484 14.8738663,16.6307986 C17.5143319,10.7245337 29.6975324,8.61254117 40.240865,8.61254117 C51.3122907,8.61254117 64.4590297,10.8982474 67.1458192,15.8993727 C69.9067269,21.0284975 68.2297998,31.0033196 62.6523954,42.578136 L62.6523954,42.578136 L62.6523954,42.578136 Z M147.082439,47.4786903 C143.478435,52.3152447 137.595292,54.4729514 128.006233,54.4729514 C116.054653,54.4729514 108.059138,50.468394 104.251308,42.578136 C98.6831688,31.0033196 96.9969768,21.0376402 99.7486199,15.8993727 C102.444674,10.8982474 115.591413,8.62168396 126.672104,8.62168396 C137.196906,8.62168396 149.389372,10.7245337 152.029837,16.6307986 C154.78148,22.8113484 150.566,42.8067065 147.082439,47.4786903 L147.082439,47.4786903 L147.082439,47.4786903 Z"></path>
                            </g>
                        </g>
                    </g>
                </g>
                <g id="Shape" fill="#000000">
                    <path d="M5.86934553,96.7101753 C7.25601838,98.8841902 13.8911219,113.47845 15.7435163,113.865957 C15.7435163,91.5964797 33.3045519,72.1816033 35.8999904,47.1661894 C36.308143,56.2166992 86.1552651,69.8751745 94.3911381,70.2627274 C122.867639,71.586042 154.363258,92.655048 166.718071,116.559803 C169.0571,121.087422 171.354263,130.487654 171.354263,135.412284 C171.354263,114.948216 174.127608,55.488792 168.178,40.3984185 C150.569872,-4.301202 102.308569,-1.0685147 60.2480433,1.80968586 C49.7930685,2.52332939 37.7263762,9.83935898 32.545981,3.01484571 C32.545981,5.51023589 33.6605521,9.49906347 33.1529792,10.8223871 C26.7481361,12.0180937 2.90262079,56.6655965 1.92406548,65.9241057 C0.364520535,80.7831841 -2.95302872,82.8579689 5.86934553,96.7101753 Z"></path>
                </g>
                <ellipse id="Oval" fill="#000000" cx="45.2296296" cy="113.356401" rx="8.28148148" ry="7.55709343"></ellipse>
                <ellipse id="Oval" fill="#000000" cx="130.592593" cy="113.356401" rx="8.28148148" ry="7.55709343"></ellipse>
                <g id="smile" transform="translate(63.703704, 149.882353)" fill="#000000">
                    <path d="M49.1428571,0 L1.82010582,0 C0.728042328,0 0,0.940438293 0,2.35109573 C0,20.4545329 11.4666667,35.266436 25.4814815,35.266436 C39.4962963,35.266436 50.962963,20.4545329 50.962963,2.35109573 C50.962963,0.940438293 50.2349206,0 49.1428571,0 Z M25.4814815,30.5642445 C14.0148148,30.5642445 4.73227513,19.278985 3.64021164,4.70219146 L47.3227513,4.70219146 C46.2306878,19.278985 36.9481481,30.5642445 25.4814815,30.5642445 Z" id="Shape"></path>
                </g>
            </g>
        </g>
    </g>
</svg>