<?xml version="1.0" encoding="UTF-8"?>
<svg width="250px" height="240px" viewBox="0 0 250 240" version="1.1" xmlns="http://www.w3.org/2000/svg" xmlns:xlink="http://www.w3.org/1999/xlink">
    <!-- Generator: Sketch 43 (38999) - http://www.bohemiancoding.com/sketch -->
    <title>main-body</title>
    <desc>Created with Sketch.</desc>
    <defs></defs>
    <g id="Page-2" stroke="none" stroke-width="1" fill="none" fill-rule="evenodd">
        <g id="Artboard" transform="translate(-360.000000, -238.000000)">
            <g id="main-body" transform="translate(360.000000, 238.000000)">
                <path d="M82.4199219,136.216309 C82.4199219,136.216309 82.4199219,143.876953 84.1889648,159.58252 C84.8822307,165.737335 88.7024185,170.581539 91.5537109,174.645508 C95.9782118,180.951783 125.880859,204.262207 131.261719,205.460938 C136.642578,206.659668 154.400529,194.261031 160.492676,187.475098 C166.584822,180.689165 166.177734,170.329102 165.389648,166.674805 C164.601563,163.020508 161.181641,159.739258 161.181641,159.739258 L161.140625,138.931152 L82.4199219,136.216309 Z" id="Path-5" fill="#E6B98A"></path>
                <path d="M81.8029619,136.074219 C92.3095703,153.512695 115.479228,162.198242 124.347656,162.198242 C133.216084,162.198242 154.301058,149.462891 161.624023,137.795898 C168.946989,126.128906 179.3315,85.4038818 167.667969,56.5966797 C156.004438,27.7894776 122.251543,30.3740234 122.251543,30.3740234 C122.251543,30.3740234 80.3415034,28.8789062 74.125407,56.5966797 C67.9093107,84.3144531 71.2963535,118.635742 81.8029619,136.074219 Z" id="Path" fill="#F1C190"></path>
                <path d="M73.140625,84.4487305 C73.140625,84.4487305 71,80.0835791 68.3308105,80.1489258 C65.6616211,80.2142725 63.809082,79.2175293 62.8146973,86.8349609 C62.3756426,90.1983162 62.5265115,96.5007973 64.1816406,101.875 C65.0857234,104.810556 66.1547231,108.056761 67.2036133,110.256836 C68.2525034,112.456911 70.7317655,114.113281 71.4484863,114.113281 C73.5891113,114.113281 74.871582,112.660156 74.871582,112.660156 L74.7373047,107.292969 L74.2602539,103.10498 L74.012207,100.336426 L73.331543,95.0942383 L73.140625,90.4873047 L73.140625,84.4487305 Z" id="Path-2" fill="#E9BA8A"></path>
                <path d="M171.53418,77.9604492 C171.53418,77.9604492 172.168701,76.4633789 174.080566,76.4633789 C175.992432,76.4633789 177.70437,78.9962399 178.806152,84.4936523 C179.907934,89.9910648 179.605469,96.6889648 178.806152,100.041992 C178.006836,103.39502 175.253906,109.489014 173.536133,110.820801 C171.818359,112.152588 169.236816,112.050293 168.855957,110.617188 C168.475098,109.184082 168.762207,108.033203 168.762207,108.033203 L169.386475,100.041992 L170.251953,88.2504883 L170.605713,81.6638184 L171.53418,77.9604492 Z" id="Path-3" fill="#E9BA8A"></path>
                <path d="M173.012695,74.5185547 C175.512337,61.9064867 176.599965,45.3541972 171.133789,31.1337891 C170.50516,29.4983923 168.674922,22.554993 167.898437,21.1503906 C164.089844,14.2609312 157.500769,13.7708395 153.514648,11.0488281 C149.528528,8.32681674 148.3161,3.42658651 145.837891,2.88085937 C142.788361,2.20932168 129.087891,2.88085937 129.087891,2.88085937 C129.087891,2.88085937 116.003356,-0.227806885 113.074219,0.50390625 C105.601818,2.37054918 91.7421875,13.7773437 91.7421875,13.7773437 L92.4941406,5.86914062 L80.1044922,19.4873047 L80.1044922,13.7773437 L72.1914062,23.8017578 C72.1914062,23.8017578 63.6014048,42.1929714 63.7734375,51.3876953 C63.9454702,60.5824193 67.6435547,80.4072266 71.0644531,82.3632812 C74.4853516,84.3193359 71.2548801,75.2209156 73.28125,64.2490234 C74.5558419,57.3476747 74.7756843,49.3646574 81.8837891,44.0556641 C100.584961,30.0878906 104.729768,32.3602703 120.503906,31.1337891 C165.870117,27.6064453 170.225586,88.5810547 173.012695,74.5185547 Z" id="Path-6" fill="#000000"></path>
                <path d="M168.717285,21.8604155 C173.831543,23.8484225 173.008789,24.2137505 173.008789,24.2137505 L170.303711,26.6252431 L174.375,29.0613094 L177.893555,31.3368279 L171.98291,33.2830598 L173.489746,36.6832316 L171.920898,41 C171.920898,41 163.603027,19.8724085 168.717285,21.8604155 Z" id="Path-7" fill="#000000"></path>
                <path d="M82.4921875,151.921875 C85.7587891,149.164063 79.9248047,159.950195 96.5253906,175.587891 C113.125977,191.225586 146.87793,183.376953 153.271484,173.039062 C159.665039,162.701172 160.954322,150.853237 160.865234,147.828125 C160.734612,143.392651 160.865234,146.120117 164.453125,147.828125 C174.000747,152.37325 249.335937,190.06531 249.335937,206.5625 C249.335937,212.891804 233.865811,224.961131 212.712891,231.685547 C178.731195,242.488171 73.4471112,242.504882 40.0019531,231.685547 C6.55679502,220.866211 -0.686509767,211.859101 0.6796875,206.5625 C4.67773437,191.0625 79.2255859,154.679688 82.4921875,151.921875 Z" id="Path-8" fill="#394037"></path>
                <path d="M123,128 C131,128 139,136 139,136 C139,136 128.34375,134.016602 123,134.016602 C117.65625,134.016602 107,136 107,136 C107,136 115,128 123,128 Z" id="Triangle" fill="#121212" transform="translate(123.000000, 132.000000) scale(1, -1) translate(-123.000000, -132.000000) "></path>
                <path d="M166.586484,67.4708193 C137.673255,58.8340741 106.61584,58.852051 77.7706809,67.4708193 C74.2216002,68.5331615 72.2157718,70.8378761 71.6320025,74.5291316 C69.4875197,88.0873971 70.2851749,101.645048 71.6320025,110.157184 C72.2158162,113.842294 74.2273713,116.153016 77.7706809,117.215496 C82.6145604,118.66196 87.5568447,119.880379 92.4585832,120.840683 C95.2331522,121.392866 98.0771224,120.480561 100.048176,118.427938 L112.805422,105.187725 C117.978847,99.810022 126.383497,99.8040297 131.557069,105.187725 L144.308545,118.427938 C146.285369,120.480531 149.158195,121.386904 151.903909,120.846675 C156.805647,119.886371 161.747783,118.667937 166.591811,117.221489 C170.140892,116.159146 172.152491,113.854432 172.730489,110.163176 C174.481945,99.0957094 174.597515,86.3122941 172.730489,74.5351239 C172.146676,70.844022 170.135121,68.5332998 166.58604,67.4708193 L166.586484,67.4708193 Z" id="Page-1" fill="#222222"></path>
                <polygon id="Page-1-Copy" fill="#00B37D" points="125 236.859375 149 214.860897 134.166667 214.860897 134.166667 193 115.833333 193 115.833333 214.860897 101 214.860897"></polygon>
                <polygon id="Page-1" fill="#FFFFFF" points="125 234.105469 143 216.934545 132.5 216.934545 132.5 195 117.5 195 117.5 216.934545 107 216.934545"></polygon>
            </g>
        </g>
    </g>
</svg>