<?xml version="1.0" encoding="UTF-8" standalone="no"?>
<svg width="140px" height="140px" viewBox="0 0 140 140" version="1.1" xmlns="http://www.w3.org/2000/svg" xmlns:xlink="http://www.w3.org/1999/xlink">
    <!-- Generator: Sketch 42 (36781) - http://www.bohemiancoding.com/sketch -->
    <title>media-skill-tile</title>
    <desc>Created with Sketch.</desc>
    <defs></defs>
    <g id="Page-1" stroke="none" stroke-width="1" fill="none" fill-rule="evenodd">
        <g id="About-Copy-2" transform="translate(-789.000000, -776.000000)">
            <g id="media-skill-tile" transform="translate(789.000000, 776.000000)">
                <rect id="Rectangle-8-Copy-5" fill="#394037" x="0" y="0" width="140" height="140"></rect>
                <path d="M50.2148438,98.625 L51.2929688,102.898438 L52.5195312,98.625 L55.2460938,98.625 L55.2460938,110 L53.2304688,110 L53.2304688,106.632812 L53.3242188,101.3125 L51.8320312,106.25 L50.7460938,106.25 L49.4101562,101.523438 L49.5039062,106.632812 L49.5039062,110 L47.4882812,110 L47.4882812,98.625 L50.2148438,98.625 Z M64.1210938,105.015625 L59.4492188,105.015625 L59.4492188,108.226562 L64.9101562,108.226562 L64.9101562,110 L57.2460938,110 L57.2460938,98.625 L64.8867188,98.625 L64.8867188,100.414062 L59.4492188,100.414062 L59.4492188,103.28125 L64.1210938,103.28125 L64.1210938,105.015625 Z M66.6757812,110 L66.6757812,98.625 L69.6210938,98.625 C70.3763059,98.625 71.0598928,98.753905 71.671875,99.0117188 C72.2838572,99.2695325 72.8072895,99.6289039 73.2421875,100.089844 C73.6770855,100.550784 74.0130196,101.101559 74.25,101.742188 C74.4869804,102.382816 74.6054688,103.085934 74.6054688,103.851562 L74.6054688,104.789062 C74.6054688,105.554691 74.4869804,106.256507 74.25,106.894531 C74.0130196,107.532555 73.6809917,108.082029 73.2539062,108.542969 C72.8268208,109.003909 72.3138051,109.361978 71.7148438,109.617188 C71.1158824,109.872397 70.4544307,110 69.7304688,110 L66.6757812,110 Z M68.8867188,100.40625 L68.8867188,108.234375 L69.7304688,108.234375 C70.1419291,108.234375 70.510415,108.156251 70.8359375,108 C71.16146,107.843749 71.4374989,107.617189 71.6640625,107.320312 C71.8906261,107.023436 72.0638015,106.662763 72.1835938,106.238281 C72.303386,105.8138 72.3632812,105.330732 72.3632812,104.789062 L72.3632812,103.835938 C72.3632812,103.325518 72.3046881,102.860679 72.1875,102.441406 C72.0703119,102.022133 71.8958345,101.66146 71.6640625,101.359375 C71.4322905,101.05729 71.145835,100.822918 70.8046875,100.65625 C70.46354,100.489582 70.0690127,100.40625 69.6210938,100.40625 L68.8867188,100.40625 Z M76.8085938,98.625 L83.3867188,98.625 L83.3867188,100.398438 L81.1679688,100.398438 L81.1679688,108.234375 L83.3867188,108.234375 L83.3867188,110 L76.8085938,110 L76.8085938,108.234375 L78.9726562,108.234375 L78.9726562,100.398438 L76.8085938,100.398438 L76.8085938,98.625 Z M91.5195312,107.625 L88.1054688,107.625 L87.4335938,110 L85.1210938,110 L88.8476562,98.625 L90.8398438,98.625 L94.4960938,110 L92.1835938,110 L91.5195312,107.625 Z M88.6445312,105.757812 L91.0039062,105.757812 L89.8398438,101.570312 L88.6445312,105.757812 Z" id="MEDIA" fill="#FFFFFF"></path>
                <g id="Page-1" transform="translate(38.000000, 16.000000)" fill="#FFFFFF">
                    <path d="M51.0911017,37.7307273 C54.1461017,34.7159091 56.4618644,32.2364545 59.1037288,30.1966364 C60.1800847,29.3977273 61.9141525,29.042 63.1535593,29.2228182 C63.7308475,29.3102727 64.3114407,31.4387273 64.3929661,32.5921818 C64.4744915,40.7455455 64.5571186,48.9899091 64.3929661,57.1432727 C64.3929661,58.5602727 63.5666949,60.7761818 62.6588983,61.0432727 C61.4194915,61.4864545 59.435339,60.8683636 58.3644915,59.8898182 C56.0487288,57.8488182 54.1505085,55.3705455 51.2585593,52.0874545 L51.2585593,57.2307273 C51.1770339,62.3728182 49.6886441,64.0533636 44.8984746,64.0533636 C34.32,64.1408182 23.8285593,64.0533636 13.2500847,64.0533636 C10.9354237,64.0533636 8.54254237,64.1408182 6.22677966,64.0533636 C2.25957627,63.8784545 0.774491525,62.1931818 0.774491525,57.9362727 C0.692966102,49.3409091 0.774491525,40.8282727 0.774491525,32.2317273 C0.774491525,28.2430909 2.34550847,26.1158182 5.89627119,26.0271818 C19.3655932,25.9397273 32.8316102,25.9397273 46.3835593,26.0271818 C49.6060169,26.0271818 51.2585593,28.1556364 51.3411864,31.6136364 C51.1726271,33.3863636 51.0911017,34.9841818 51.0911017,37.7307273 Z" id="Fill-1"></path>
                    <path d="M12.0062712,23.7238182 C5.64618644,23.7238182 0.521101695,18.6739091 0.521101695,12.2885455 C0.521101695,5.72945455 5.64177966,0.765818182 12.2519492,0.854454545 C18.3674576,0.941909091 23.4881356,6.084 23.4881356,12.2885455 C23.5740678,18.5864545 18.3718644,23.8112727 12.0062712,23.7238182 Z" id="Fill-2"></path>
                    <path d="M48.3622034,12.2885455 C48.3622034,18.5817273 43.2415254,23.7238182 36.8770339,23.7238182 C30.5973729,23.7238182 25.3907627,18.5817273 25.3092373,12.2885455 C25.3092373,6.084 30.5158475,0.854454545 36.7944068,0.765818182 C43.16,0.765818182 48.3622034,5.99654545 48.3622034,12.2885455 Z" id="Fill-3"></path>
                </g>
            </g>
        </g>
    </g>
</svg>