<?xml version="1.0" encoding="UTF-8"?>
<svg width="45px" height="34px" viewBox="0 0 45 34" version="1.1" xmlns="http://www.w3.org/2000/svg" xmlns:xlink="http://www.w3.org/1999/xlink">
    <!-- Generator: Sketch 43 (38999) - http://www.bohemiancoding.com/sketch -->
    <title>Page 1</title>
    <desc>Created with Sketch.</desc>
    <defs></defs>
    <g id="Page-1" stroke="none" stroke-width="1" fill="none" fill-rule="evenodd">
        <g id="iPhone-7-Copy-4" transform="translate(-304.000000, -33.000000)" fill="#FFFFFF">
            <g id="mobile-nav" transform="translate(25.000000, 20.000000)">
                <g id="Page-1" transform="translate(279.000000, 13.000000)">
                    <path d="M2.11924528,2.86195 L43.7264151,2.86195 C44.4295358,2.86195 45,2.290852 45,1.58695 C45,0.8830395 44.4295358,0.31195 43.7264151,0.31195 L2.11924528,0.31195 C1.41612453,0.31195 0.845660377,0.8830395 0.845660377,1.58695 C0.845660377,2.290852 1.41943585,2.86195 2.11924528,2.86195 Z" id="Fill-1"></path>
                    <path d="M43.7298113,15.725 L2.11924528,15.725 C1.41612453,15.725 0.845660377,16.296098 0.845660377,17 C0.845660377,17.703902 1.41612453,18.275 2.11924528,18.275 L43.7264151,18.275 C44.4295358,18.275 45,17.703902 45,17 C45.0033198,16.296098 44.4295358,15.725 43.7297264,15.725 L43.7298113,15.725 Z" id="Fill-2"></path>
                    <path d="M43.7298113,31.13805 L2.11924528,31.13805 C1.41612453,31.13805 0.845660377,31.709148 0.845660377,32.41305 C0.845660377,33.1169605 1.41612453,33.68805 2.11924528,33.68805 L43.7264151,33.68805 C44.4295358,33.68805 45,33.1169605 45,32.41305 C45.0033198,31.709148 44.4295358,31.13805 43.7297264,31.13805 L43.7298113,31.13805 Z" id="Fill-3"></path>
                </g>
            </g>
        </g>
    </g>
</svg>