<?xml version="1.0" encoding="UTF-8"?>
<svg width="150px" height="150px" viewBox="0 0 150 150" version="1.1" xmlns="http://www.w3.org/2000/svg" xmlns:xlink="http://www.w3.org/1999/xlink">
    <!-- Generator: Sketch 43 (38999) - http://www.bohemiancoding.com/sketch -->
    <title>photo-tile</title>
    <desc>Created with Sketch.</desc>
    <defs></defs>
    <g id="Page-1" stroke="none" stroke-width="1" fill="none" fill-rule="evenodd">
        <g id="Artboard-2-Copy-3" transform="translate(-94.000000, -875.000000)">
            <g id="skills-section" transform="translate(94.000000, 604.000000)">
                <g id="photo-tile" transform="translate(0.000000, 271.000000)">
                    <rect id="Rectangle-9-Copy-4" fill-opacity="0.0699728261" fill="#FFFFFF" x="0" y="0" width="150" height="150"></rect>
                    <path d="M19.248906,95.4375 L19.248906,100 L17.8035935,100 L17.8035935,88.625 L21.4910935,88.625 C22.0015127,88.6354167 22.4845808,88.7161451 22.9403122,88.8671875 C23.3960437,89.0182299 23.7957792,89.2369777 24.139531,89.5234375 C24.4832827,89.8098973 24.7554154,90.1640604 24.9559372,90.5859375 C25.156459,91.0078146 25.2567185,91.4921848 25.2567185,92.0390625 C25.2567185,92.5859402 25.156459,93.0690083 24.9559372,93.4882812 C24.7554154,93.9075542 24.4832827,94.2604152 24.139531,94.546875 C23.7957792,94.8333348 23.3960437,95.0520826 22.9403122,95.203125 C22.4845808,95.3541674 22.0015127,95.4322916 21.4910935,95.4375 L19.248906,95.4375 Z M19.248906,94.25 L21.4910935,94.25 C21.8244285,94.2447916 22.1317171,94.1914068 22.4129685,94.0898438 C22.6942199,93.9882807 22.9390091,93.8437509 23.1473435,93.65625 C23.3556778,93.4687491 23.5184366,93.2408868 23.6356247,92.9726562 C23.7528128,92.7044257 23.811406,92.3984392 23.811406,92.0546875 C23.811406,91.7109358 23.7528128,91.401043 23.6356247,91.125 C23.5184366,90.848957 23.3569799,90.6145843 23.1512497,90.421875 C22.9455195,90.2291657 22.7007303,90.0807297 22.4168747,89.9765625 C22.1330191,89.8723953 21.8244285,89.8177084 21.4910935,89.8125 L19.248906,89.8125 L19.248906,94.25 Z M35.4742469,100 L34.1070594,100 L34.1070594,94.7421875 L29.4429969,94.7421875 L29.4429969,100 L28.0836219,100 L28.0836219,88.625 L29.4429969,88.625 L29.4429969,93.515625 L34.1070594,93.515625 L34.1070594,88.625 L35.4742469,88.625 L35.4742469,100 Z M46.4105254,94.96875 C46.405317,95.375002 46.3701611,95.7851542 46.3050566,96.1992188 C46.2399521,96.6132833 46.1396927,97.0130189 46.0042754,97.3984375 C45.868858,97.7838561 45.6956827,98.1432275 45.4847441,98.4765625 C45.2738056,98.8098975 45.022506,99.1015613 44.7308379,99.3515625 C44.4391698,99.6015637 44.1045377,99.7981764 43.7269316,99.9414062 C43.3493256,100.084636 42.9261527,100.15625 42.4574004,100.15625 C41.988648,100.15625 41.5654752,100.084636 41.1878691,99.9414062 C40.8102631,99.7981764 40.475631,99.6015637 40.1839629,99.3515625 C39.8922948,99.1015613 39.6396931,98.8085954 39.4261504,98.4726562 C39.2126076,98.1367171 39.0368282,97.7760436 38.8988066,97.390625 C38.7607851,97.0052064 38.6579216,96.6067729 38.5902129,96.1953125 C38.5225042,95.7838521 38.4860462,95.375002 38.4808379,94.96875 L38.4808379,93.671875 C38.4860462,93.265623 38.5212021,92.8554708 38.5863066,92.4414062 C38.6514111,92.0273417 38.7529726,91.6276061 38.8909941,91.2421875 C39.0290157,90.8567689 39.2034931,90.4960954 39.4144316,90.1601562 C39.6253702,89.8242171 39.8766698,89.5299492 40.1683379,89.2773438 C40.460006,89.0247383 40.7946381,88.8268236 41.1722441,88.6835938 C41.5498502,88.5403639 41.973023,88.46875 42.4417754,88.46875 C42.9105277,88.46875 43.3350026,88.5403639 43.7152129,88.6835938 C44.0954231,88.8268236 44.4313573,89.0234363 44.7230254,89.2734375 C45.0146935,89.5234387 45.2659931,89.8164046 45.4769316,90.1523438 C45.6878702,90.4882829 45.8623476,90.8489564 46.0003691,91.234375 C46.1383907,91.6197936 46.2399521,92.0208313 46.3050566,92.4375 C46.3701611,92.8541687 46.405317,93.265623 46.4105254,93.671875 L46.4105254,94.96875 Z M44.9808379,93.65625 C44.9756295,93.3854153 44.9574005,93.1028661 44.9261504,92.8085938 C44.8949002,92.5143214 44.8415153,92.2226577 44.7659941,91.9335938 C44.6904729,91.6445298 44.5902135,91.3684909 44.4652129,91.1054688 C44.3402123,90.8424466 44.1839638,90.6106781 43.9964629,90.4101562 C43.8089619,90.2096344 43.58761,90.0507818 43.3324004,89.9335938 C43.0771908,89.8164057 42.7803187,89.7578125 42.4417754,89.7578125 C42.1084404,89.7578125 41.8141725,89.8177077 41.5589629,89.9375 C41.3037533,90.0572923 41.0824013,90.2174469 40.8949004,90.4179688 C40.7073994,90.6184906 40.551151,90.8502591 40.4261504,91.1132812 C40.3011498,91.3763034 40.2008903,91.6523423 40.1253691,91.9414062 C40.0498479,92.2304702 39.995161,92.5221339 39.9613066,92.8164062 C39.9274523,93.1106786 39.9079212,93.3906237 39.9027129,93.65625 L39.9027129,94.96875 C39.9079212,95.2343763 39.9274523,95.5156235 39.9613066,95.8125 C39.995161,96.1093765 40.05115,96.4023423 40.1292754,96.6914062 C40.2074008,96.9804702 40.3089623,97.2578112 40.4339629,97.5234375 C40.5589635,97.7890638 40.7152119,98.0221344 40.9027129,98.2226562 C41.0902138,98.4231781 41.3115658,98.5833327 41.5667754,98.703125 C41.821985,98.8229173 42.118857,98.8828125 42.4574004,98.8828125 C42.7959437,98.8828125 43.0941178,98.8229173 43.3519316,98.703125 C43.6097454,98.5833327 43.8310974,98.4231781 44.0159941,98.2226562 C44.2008909,98.0221344 44.3545352,97.7903659 44.4769316,97.5273438 C44.5993281,97.2643216 44.6982854,96.9882827 44.7738066,96.6992188 C44.8493278,96.4101548 44.9014107,96.117189 44.9300566,95.8203125 C44.9587026,95.523436 44.9756295,95.2395847 44.9808379,94.96875 L44.9808379,93.65625 Z M57.3546163,89.859375 L53.8389913,89.859375 L53.8389913,100 L52.4327413,100 L52.4327413,89.859375 L48.9171163,89.859375 L48.9171163,88.625 L57.3546163,88.625 L57.3546163,89.859375 Z M67.7518323,94.96875 C67.7466239,95.375002 67.711468,95.7851542 67.6463636,96.1992188 C67.5812591,96.6132833 67.4809997,97.0130189 67.3455823,97.3984375 C67.210165,97.7838561 67.0369896,98.1432275 66.8260511,98.4765625 C66.6151125,98.8098975 66.3638129,99.1015613 66.0721448,99.3515625 C65.7804767,99.6015637 65.4458446,99.7981764 65.0682386,99.9414062 C64.6906325,100.084636 64.2674597,100.15625 63.7987073,100.15625 C63.329955,100.15625 62.9067821,100.084636 62.5291761,99.9414062 C62.15157,99.7981764 61.8169379,99.6015637 61.5252698,99.3515625 C61.2336017,99.1015613 60.981,98.8085954 60.7674573,98.4726562 C60.5539146,98.1367171 60.3781351,97.7760436 60.2401136,97.390625 C60.102092,97.0052064 59.9992285,96.6067729 59.9315198,96.1953125 C59.8638111,95.7838521 59.8273532,95.375002 59.8221448,94.96875 L59.8221448,93.671875 C59.8273532,93.265623 59.8625091,92.8554708 59.9276136,92.4414062 C59.992718,92.0273417 60.0942795,91.6276061 60.2323011,91.2421875 C60.3703226,90.8567689 60.5448,90.4960954 60.7557386,90.1601562 C60.9666771,89.8242171 61.2179767,89.5299492 61.5096448,89.2773438 C61.8013129,89.0247383 62.135945,88.8268236 62.5135511,88.6835938 C62.8911571,88.5403639 63.31433,88.46875 63.7830823,88.46875 C64.2518347,88.46875 64.6763096,88.5403639 65.0565198,88.6835938 C65.43673,88.8268236 65.7726642,89.0234363 66.0643323,89.2734375 C66.3560004,89.5234387 66.6073,89.8164046 66.8182386,90.1523438 C67.0291771,90.4882829 67.2036545,90.8489564 67.3416761,91.234375 C67.4796976,91.6197936 67.5812591,92.0208313 67.6463636,92.4375 C67.711468,92.8541687 67.7466239,93.265623 67.7518323,93.671875 L67.7518323,94.96875 Z M66.3221448,93.65625 C66.3169364,93.3854153 66.2987075,93.1028661 66.2674573,92.8085938 C66.2362072,92.5143214 66.1828223,92.2226577 66.1073011,91.9335938 C66.0317798,91.6445298 65.9315204,91.3684909 65.8065198,91.1054688 C65.6815192,90.8424466 65.5252707,90.6106781 65.3377698,90.4101562 C65.1502689,90.2096344 64.9289169,90.0507818 64.6737073,89.9335938 C64.4184977,89.8164057 64.1216257,89.7578125 63.7830823,89.7578125 C63.4497473,89.7578125 63.1554794,89.8177077 62.9002698,89.9375 C62.6450602,90.0572923 62.4237082,90.2174469 62.2362073,90.4179688 C62.0487064,90.6184906 61.8924579,90.8502591 61.7674573,91.1132812 C61.6424567,91.3763034 61.5421973,91.6523423 61.4666761,91.9414062 C61.3911548,92.2304702 61.3364679,92.5221339 61.3026136,92.8164062 C61.2687592,93.1106786 61.2492282,93.3906237 61.2440198,93.65625 L61.2440198,94.96875 C61.2492282,95.2343763 61.2687592,95.5156235 61.3026136,95.8125 C61.3364679,96.1093765 61.3924569,96.4023423 61.4705823,96.6914062 C61.5487077,96.9804702 61.6502692,97.2578112 61.7752698,97.5234375 C61.9002704,97.7890638 62.0565189,98.0221344 62.2440198,98.2226562 C62.4315207,98.4231781 62.6528727,98.5833327 62.9080823,98.703125 C63.1632919,98.8229173 63.4601639,98.8828125 63.7987073,98.8828125 C64.1372507,98.8828125 64.4354248,98.8229173 64.6932386,98.703125 C64.9510523,98.5833327 65.1724043,98.4231781 65.3573011,98.2226562 C65.5421978,98.0221344 65.6958421,97.7903659 65.8182386,97.5273438 C65.940635,97.2643216 66.0395923,96.9882827 66.1151136,96.6992188 C66.1906348,96.4101548 66.2427176,96.117189 66.2713636,95.8203125 C66.3000095,95.523436 66.3169364,95.2395847 66.3221448,94.96875 L66.3221448,93.65625 Z M78.3834233,98.5078125 C77.9042542,99.0703153 77.3547805,99.4869778 76.7349858,99.7578125 C76.115191,100.028647 75.4355103,100.161458 74.6959233,100.15625 C74.2271709,100.151042 73.7961857,100.079428 73.4029545,99.9414062 C73.0097234,99.8033847 72.6568623,99.6132825 72.3443608,99.3710938 C72.0318592,99.128905 71.7584244,98.8437516 71.5240483,98.515625 C71.2896721,98.1874984 71.0930595,97.8320332 70.9342045,97.4492188 C70.7753496,97.0664043 70.6555591,96.6653667 70.5748295,96.2460938 C70.4940999,95.8268208 70.4511316,95.403648 70.4459233,94.9765625 L70.4459233,93.65625 C70.4511316,93.2343729 70.4888917,92.8138042 70.5592045,92.3945312 C70.6295174,91.9752583 70.7375892,91.5729186 70.8834233,91.1875 C71.0292573,90.8020814 71.2115472,90.4440121 71.4302983,90.1132812 C71.6490494,89.7825504 71.9107655,89.496095 72.2154545,89.2539062 C72.5201435,89.0117175 72.8651922,88.8203132 73.2506108,88.6796875 C73.6360294,88.5390618 74.0683167,88.46875 74.5474858,88.46875 C75.0787384,88.46875 75.5683169,88.5507804 76.0162358,88.7148438 C76.4641547,88.8789071 76.8547758,89.1132797 77.1881108,89.4179688 C77.5214458,89.7226578 77.7896723,90.0898416 77.9927983,90.5195312 C78.1959243,90.9492209 78.320923,91.4296848 78.3677983,91.9609375 L76.9381108,91.9609375 C76.8808188,91.6328109 76.792278,91.3294285 76.6724858,91.0507812 C76.5526935,90.772134 76.395143,90.5338552 76.1998295,90.3359375 C76.004516,90.1380198 75.7714455,89.9830735 75.5006108,89.8710938 C75.2297761,89.759114 74.9146751,89.703125 74.5552983,89.703125 C74.2115466,89.703125 73.9068621,89.7617182 73.6412358,89.8789062 C73.3756094,89.9960943 73.1438409,90.1536448 72.9459233,90.3515625 C72.7480056,90.5494802 72.5839448,90.7799466 72.4537358,91.0429688 C72.3235268,91.3059909 72.216757,91.5833319 72.1334233,91.875 C72.0500895,92.1666681 71.9901943,92.4635402 71.9537358,92.765625 C71.9172773,93.0677098 71.8990483,93.3593736 71.8990483,93.640625 L71.8990483,94.9765625 C71.9042566,95.2630223 71.928996,95.5585922 71.973267,95.8632812 C72.0175381,96.1679703 72.0865478,96.4661444 72.1802983,96.7578125 C72.2740487,97.0494806 72.3938392,97.3255195 72.5396733,97.5859375 C72.6855073,97.8463555 72.8612868,98.0755198 73.067017,98.2734375 C73.2727472,98.4713552 73.5110261,98.6289057 73.7818608,98.7460938 C74.0526955,98.8632818 74.3599841,98.9244791 74.7037358,98.9296875 C74.9016534,98.9348959 75.1086826,98.9270834 75.3248295,98.90625 C75.5409764,98.8854166 75.7506098,98.8437503 75.9537358,98.78125 C76.1568618,98.7187497 76.3469641,98.6341151 76.5240483,98.5273438 C76.7011325,98.4205724 76.8495685,98.2812509 76.9693608,98.109375 L76.9849858,95.5546875 L74.6724858,95.5546875 L74.6724858,94.3359375 L78.3599858,94.3359375 L78.3834233,98.5078125 Z M85.4603267,95.359375 L83.1868892,95.359375 L83.1868892,100 L81.7493892,100 L81.7493892,88.625 L85.0853267,88.625 C85.6165794,88.6354167 86.1165744,88.7109368 86.5853267,88.8515625 C87.0540791,88.9921882 87.4642312,89.2031236 87.8157955,89.484375 C88.1673597,89.7656264 88.4433986,90.1184875 88.6439205,90.5429688 C88.8444423,90.96745 88.9447017,91.466143 88.9447017,92.0390625 C88.9447017,92.408856 88.8913168,92.7473943 88.7845455,93.0546875 C88.6777741,93.3619807 88.5306402,93.6406238 88.3431392,93.890625 C88.1556383,94.1406262 87.9316822,94.3619782 87.6712642,94.5546875 C87.4108463,94.7473968 87.1243908,94.9114577 86.8118892,95.046875 L89.2259517,99.90625 L89.2181392,100 L87.6947017,100 L85.4603267,95.359375 Z M83.1868892,94.171875 L85.1243892,94.171875 C85.4473075,94.1666666 85.751992,94.1158859 86.0384517,94.0195312 C86.3249115,93.9231766 86.5762111,93.7838551 86.792358,93.6015625 C87.0085049,93.4192699 87.1790761,93.1966159 87.3040767,92.9335938 C87.4290774,92.6705716 87.4915767,92.3671892 87.4915767,92.0234375 C87.4915767,91.6588523 87.4316815,91.3398451 87.3118892,91.0664062 C87.192097,90.7929674 87.025432,90.563803 86.8118892,90.3789062 C86.5983465,90.1940095 86.3444428,90.054688 86.0501705,89.9609375 C85.7558982,89.867187 85.4342868,89.8177084 85.0853267,89.8125 L83.1868892,89.8125 L83.1868892,94.171875 Z M97.7950427,97.0546875 L93.9981677,97.0546875 L93.0841052,100 L91.6387927,100 L95.3106677,88.625 L96.5216052,88.625 L100.13098,100 L98.6934802,100 L97.7950427,97.0546875 Z M94.3887927,95.796875 L97.4122302,95.796875 L95.9122302,90.859375 L94.3887927,95.796875 Z M104.614134,95.4375 L104.614134,100 L103.168821,100 L103.168821,88.625 L106.856321,88.625 C107.36674,88.6354167 107.849808,88.7161451 108.30554,88.8671875 C108.761271,89.0182299 109.161007,89.2369777 109.504759,89.5234375 C109.84851,89.8098973 110.120643,90.1640604 110.321165,90.5859375 C110.521687,91.0078146 110.621946,91.4921848 110.621946,92.0390625 C110.621946,92.5859402 110.521687,93.0690083 110.321165,93.4882812 C110.120643,93.9075542 109.84851,94.2604152 109.504759,94.546875 C109.161007,94.8333348 108.761271,95.0520826 108.30554,95.203125 C107.849808,95.3541674 107.36674,95.4322916 106.856321,95.4375 L104.614134,95.4375 Z M104.614134,94.25 L106.856321,94.25 C107.189656,94.2447916 107.496945,94.1914068 107.778196,94.0898438 C108.059448,93.9882807 108.304237,93.8437509 108.512571,93.65625 C108.720906,93.4687491 108.883664,93.2408868 109.000852,92.9726562 C109.11804,92.7044257 109.176634,92.3984392 109.176634,92.0546875 C109.176634,91.7109358 109.11804,91.401043 109.000852,91.125 C108.883664,90.848957 108.722208,90.6145843 108.516477,90.421875 C108.310747,90.2291657 108.065958,90.0807297 107.782102,89.9765625 C107.498247,89.8723953 107.189656,89.8177084 106.856321,89.8125 L104.614134,89.8125 L104.614134,94.25 Z M120.839475,100 L119.472287,100 L119.472287,94.7421875 L114.808225,94.7421875 L114.808225,100 L113.44885,100 L113.44885,88.625 L114.808225,88.625 L114.808225,93.515625 L119.472287,93.515625 L119.472287,88.625 L120.839475,88.625 L120.839475,100 Z M127.728878,94.3359375 L130.322628,88.625 L131.963253,88.625 L128.424191,95.7578125 L128.400753,100 L127.057003,100 L127.033566,95.7578125 L123.494503,88.625 L125.142941,88.625 L127.728878,94.3359375 Z M38.4886504,118.085938 C38.4886504,117.736977 38.5407332,117.414064 38.6449004,117.117188 C38.7490676,116.820311 38.8948994,116.54297 39.0824004,116.285156 C39.2699013,116.027342 39.4938574,115.782553 39.7542754,115.550781 C40.0146934,115.319009 40.303753,115.091147 40.6214629,114.867188 C40.2725028,114.393227 39.9951618,113.945315 39.7894316,113.523438 C39.5837014,113.10156 39.4808379,112.661461 39.4808379,112.203125 C39.4808379,111.760414 39.5472435,111.368491 39.6800566,111.027344 C39.8128698,110.686196 40.00167,110.399741 40.2464629,110.167969 C40.4912558,109.936197 40.7855237,109.760417 41.1292754,109.640625 C41.4730271,109.520833 41.8584399,109.460938 42.2855254,109.460938 C42.6553189,109.460938 42.991253,109.526041 43.2933379,109.65625 C43.5954227,109.786459 43.8519306,109.962238 44.0628691,110.183594 C44.2738077,110.404949 44.4365665,110.661457 44.5511504,110.953125 C44.6657343,111.244793 44.7230254,111.552082 44.7230254,111.875 C44.7230254,112.151043 44.6826612,112.402343 44.6019316,112.628906 C44.5212021,112.85547 44.409224,113.067707 44.2659941,113.265625 C44.1227642,113.463543 43.952193,113.651041 43.7542754,113.828125 C43.5563577,114.005209 43.3428182,114.179687 43.1136504,114.351562 L42.3792754,114.976562 L44.7777129,118.125 C44.9600055,117.791665 45.1032332,117.427085 45.2074004,117.03125 C45.3115676,116.635415 45.3662545,116.208336 45.3714629,115.75 L46.6761504,115.75 C46.6761504,116.41667 46.5810992,117.035153 46.3909941,117.605469 C46.200889,118.175784 45.923548,118.690102 45.5589629,119.148438 L46.9730254,121 L45.2464629,121 L44.5980254,120.140625 C44.2126068,120.468752 43.7881319,120.720051 43.3245879,120.894531 C42.8610439,121.069011 42.3740696,121.15625 41.8636504,121.15625 C41.3480228,121.15625 40.8818816,121.08073 40.4652129,120.929688 C40.0485441,120.778645 39.694381,120.56771 39.4027129,120.296875 C39.1110448,120.02604 38.8857866,119.701825 38.7269316,119.324219 C38.5680767,118.946613 38.4886504,118.533856 38.4886504,118.085938 Z M41.8636504,119.984375 C42.2334439,119.984375 42.5902112,119.916667 42.9339629,119.78125 C43.2777146,119.645833 43.5980239,119.453126 43.8949004,119.203125 L41.3714629,115.835938 L41.1527129,116.023438 C40.8922949,116.23698 40.6813595,116.445311 40.5199004,116.648438 C40.3584412,116.851564 40.2347446,117.042968 40.1488066,117.222656 C40.0628687,117.402345 40.0055776,117.566406 39.9769316,117.714844 C39.9482857,117.863282 39.9339629,117.986979 39.9339629,118.085938 C39.9339629,118.351564 39.9756291,118.598957 40.0589629,118.828125 C40.1422966,119.057293 40.2646912,119.257812 40.4261504,119.429688 C40.5876095,119.601563 40.7881284,119.736979 41.0277129,119.835938 C41.2672974,119.934896 41.5459405,119.984375 41.8636504,119.984375 Z M40.9339629,112.1875 C40.9339629,112.479168 40.9990664,112.777342 41.1292754,113.082031 C41.2594844,113.38672 41.4417742,113.708332 41.6761504,114.046875 L42.5902129,113.320312 C42.751672,113.210937 42.8844832,113.096355 42.9886504,112.976562 C43.0928176,112.85677 43.1735459,112.735678 43.2308379,112.613281 C43.2881298,112.490885 43.328494,112.367188 43.3519316,112.242188 C43.3753692,112.117187 43.3870879,111.994792 43.3870879,111.875 C43.3870879,111.718749 43.3623485,111.566407 43.3128691,111.417969 C43.2633897,111.269531 43.1904738,111.139323 43.0941191,111.027344 C42.9977645,110.915364 42.8818802,110.824219 42.7464629,110.753906 C42.6110455,110.683593 42.4574012,110.648438 42.2855254,110.648438 C42.0615659,110.648438 41.8649533,110.690104 41.6956816,110.773438 C41.52641,110.856771 41.3857864,110.968749 41.2738066,111.109375 C41.1618269,111.250001 41.0771923,111.412759 41.0199004,111.597656 C40.9626084,111.782553 40.9339629,111.979166 40.9339629,112.1875 Z M63.7596448,118.671875 L66.4471448,109.625 L67.9862073,109.625 L64.4002698,121 L63.1424573,121 L59.5487073,109.625 L61.0955823,109.625 L63.7596448,118.671875 Z M71.0240483,109.625 L77.8990483,109.625 L77.8990483,110.882812 L75.1724858,110.882812 L75.1724858,119.75 L77.8990483,119.75 L77.8990483,121 L71.0240483,121 L71.0240483,119.75 L73.6881108,119.75 L73.6881108,110.882812 L71.0240483,110.882812 L71.0240483,109.625 Z M81.5462642,121 L81.5462642,109.625 L84.1790767,109.625 C84.9707474,109.635417 85.6777715,109.76953 86.3001705,110.027344 C86.9225694,110.285158 87.4486058,110.644529 87.8782955,111.105469 C88.3079851,111.566409 88.6361068,112.118486 88.8626705,112.761719 C89.0892341,113.404951 89.2051184,114.117184 89.2103267,114.898438 L89.2103267,115.734375 C89.2051184,116.515629 89.0892341,117.227861 88.8626705,117.871094 C88.6361068,118.514326 88.3079851,119.066404 87.8782955,119.527344 C87.4486058,119.988284 86.9225694,120.347655 86.3001705,120.605469 C85.6777715,120.863283 84.9707474,120.994792 84.1790767,121 L81.5462642,121 Z M83.0150142,110.8125 L83.0150142,119.820312 L84.1790767,119.820312 C84.7936631,119.815104 85.3249078,119.707032 85.7728267,119.496094 C86.2207456,119.285155 86.5918357,118.997398 86.886108,118.632812 C87.1803803,118.268227 87.3991281,117.838544 87.542358,117.34375 C87.6855879,116.848956 87.7598059,116.312503 87.7650142,115.734375 L87.7650142,114.882812 C87.7598059,114.304685 87.6842858,113.769534 87.5384517,113.277344 C87.3926177,112.785154 87.1738699,112.358075 86.8822017,111.996094 C86.5905336,111.634113 86.2207456,111.348959 85.7728267,111.140625 C85.3249078,110.932291 84.7936631,110.822917 84.1790767,110.8125 L83.0150142,110.8125 Z M98.6231677,115.742188 L93.8731677,115.742188 L93.8731677,119.773438 L99.4122302,119.773438 L99.4122302,121 L92.4278552,121 L92.4278552,109.625 L99.3419177,109.625 L99.3419177,110.859375 L93.8731677,110.859375 L93.8731677,114.515625 L98.6231677,114.515625 L98.6231677,115.742188 Z M110.434446,115.96875 C110.429238,116.375002 110.394082,116.785154 110.328977,117.199219 C110.263873,117.613283 110.163613,118.013019 110.028196,118.398438 C109.892779,118.783856 109.719603,119.143227 109.508665,119.476562 C109.297726,119.809898 109.046427,120.101561 108.754759,120.351562 C108.463091,120.601564 108.128458,120.798176 107.750852,120.941406 C107.373246,121.084636 106.950073,121.15625 106.481321,121.15625 C106.012569,121.15625 105.589396,121.084636 105.21179,120.941406 C104.834184,120.798176 104.499552,120.601564 104.207884,120.351562 C103.916216,120.101561 103.663614,119.808595 103.450071,119.472656 C103.236528,119.136717 103.060749,118.776044 102.922727,118.390625 C102.784706,118.005206 102.681842,117.606773 102.614134,117.195312 C102.546425,116.783852 102.509967,116.375002 102.504759,115.96875 L102.504759,114.671875 C102.509967,114.265623 102.545123,113.855471 102.610227,113.441406 C102.675332,113.027342 102.776893,112.627606 102.914915,112.242188 C103.052936,111.856769 103.227414,111.496095 103.438352,111.160156 C103.649291,110.824217 103.900591,110.529949 104.192259,110.277344 C104.483927,110.024738 104.818559,109.826824 105.196165,109.683594 C105.573771,109.540364 105.996944,109.46875 106.465696,109.46875 C106.934448,109.46875 107.358923,109.540364 107.739134,109.683594 C108.119344,109.826824 108.455278,110.023436 108.746946,110.273438 C109.038614,110.523439 109.289914,110.816405 109.500852,111.152344 C109.711791,111.488283 109.886268,111.848956 110.02429,112.234375 C110.162311,112.619794 110.263873,113.020831 110.328977,113.4375 C110.394082,113.854169 110.429238,114.265623 110.434446,114.671875 L110.434446,115.96875 Z M109.004759,114.65625 C108.99955,114.385415 108.981321,114.102866 108.950071,113.808594 C108.918821,113.514321 108.865436,113.222658 108.789915,112.933594 C108.714394,112.64453 108.614134,112.368491 108.489134,112.105469 C108.364133,111.842447 108.207885,111.610678 108.020384,111.410156 C107.832883,111.209634 107.611531,111.050782 107.356321,110.933594 C107.101112,110.816406 106.80424,110.757812 106.465696,110.757812 C106.132361,110.757812 105.838093,110.817708 105.582884,110.9375 C105.327674,111.057292 105.106322,111.217447 104.918821,111.417969 C104.73132,111.618491 104.575072,111.850259 104.450071,112.113281 C104.325071,112.376303 104.224811,112.652342 104.14929,112.941406 C104.073769,113.23047 104.019082,113.522134 103.985227,113.816406 C103.951373,114.110679 103.931842,114.390624 103.926634,114.65625 L103.926634,115.96875 C103.931842,116.234376 103.951373,116.515624 103.985227,116.8125 C104.019082,117.109376 104.075071,117.402342 104.153196,117.691406 C104.231322,117.98047 104.332883,118.257811 104.457884,118.523438 C104.582884,118.789064 104.739133,119.022134 104.926634,119.222656 C105.114135,119.423178 105.335487,119.583333 105.590696,119.703125 C105.845906,119.822917 106.142778,119.882812 106.481321,119.882812 C106.819865,119.882812 107.118039,119.822917 107.375852,119.703125 C107.633666,119.583333 107.855018,119.423178 108.039915,119.222656 C108.224812,119.022134 108.378456,118.790366 108.500852,118.527344 C108.623249,118.264322 108.722206,117.988283 108.797727,117.699219 C108.873249,117.410155 108.925331,117.117189 108.953977,116.820312 C108.982623,116.523436 108.99955,116.239585 109.004759,115.96875 L109.004759,114.65625 Z" id="PHOTOGRAPHY-&amp;-VIDEO" fill="#FFF399"></path>
                    <g id="Page-1" transform="translate(41.000000, 22.000000)" fill="#FFF399">
                        <path d="M34.5188806,13 C30.6681841,13 26.9741788,14.4043872 24.2510698,16.9061258 C21.5284064,19.4078645 20,22.8021277 20,26.3407771 C20,29.8790171 21.5284064,33.2732803 24.2510698,35.7754285 C26.9737331,38.2771671 30.6677385,39.6815543 34.5188806,39.6815543 C38.3700227,39.6815543 42.0635824,38.2771671 44.7866914,35.7754285 C47.5093548,33.2736898 49.0377612,29.8794266 49.0377612,26.3407771 C49.0342762,22.8025372 47.5023135,19.411468 44.7797393,16.9126777 C42.060552,14.410939 38.3700227,13.0033578 34.5190589,13.0001638 L34.5188806,13 Z M34.5188806,36.9134014 C29.8638723,36.9134014 25.668509,34.3381183 23.8892007,30.3871124 C22.1065947,26.4361883 23.0919034,21.8869174 26.3820862,18.8640617 C29.6722421,15.8408783 34.6231631,14.9354958 38.9227197,16.5702621 C43.2225437,18.2082224 46.0253352,22.0631619 46.0253352,26.3406952 C46.0148892,32.1759288 40.868969,36.9039012 34.5186132,36.913729 L34.5188806,36.9134014 Z" id="Fill-1"></path>
                        <path d="M50.748806,8.28384 C49.863191,3.50256 45.349403,9.59999998e-05 40.0680597,9.59999998e-05 L28.9756716,9.59999998e-05 C23.6783433,0.0038496 19.164597,3.52512 18.2949254,8.32512 L0.0437313433,8.32512 L0.0437313433,48 L68.9989552,48 L68.9989552,8.28384 L50.748806,8.28384 Z M65.4571642,44.76384 L3.59492537,44.76384 L3.59492537,11.52 L21.6820896,11.52 L21.6820896,9.896256 C21.6820896,6.187488 24.9551642,3.176256 28.9955224,3.176256 L40.0680597,3.176256 C44.1084179,3.176256 47.3814925,6.187488 47.3814925,9.896256 L47.3814925,11.52 L65.448806,11.52 L65.4571642,44.76384 Z" id="Fill-2"></path>
                        <polygon id="Fill-3" points="52.3243284 17.396448 61.2375224 17.396448 61.2375224 14.44896 52.3243284 14.44896"></polygon>
                    </g>
                </g>
            </g>
        </g>
    </g>
</svg>