<?xml version="1.0" encoding="UTF-8" standalone="no"?>
<svg width="184px" height="40px" viewBox="0 0 184 40" version="1.1" xmlns="http://www.w3.org/2000/svg" xmlns:xlink="http://www.w3.org/1999/xlink">
    <!-- Generator: Sketch 42 (36781) - http://www.bohemiancoding.com/sketch -->
    <title>about-header copy 3</title>
    <desc>Created with Sketch.</desc>
    <defs></defs>
    <g id="Page-1" stroke="none" stroke-width="1" fill="none" fill-rule="evenodd">
        <g id="Portfolio-V2" transform="translate(-548.000000, -176.000000)">
            <g id="about-header-copy-3" transform="translate(550.000000, 176.000000)">
                <path d="M135,22 L180,22" id="Line-Copy" stroke="#889784" stroke-width="3" stroke-linecap="square"></path>
                <path d="M0,21 L45,21" id="Line-Copy-2" stroke="#889784" stroke-width="3" stroke-linecap="square"></path>
                <g id="Page-1" transform="translate(60.000000, 0.000000)" fill="#889784">
                    <polygon id="Fill-1" points="49.0140845 37.2721951 54.9726761 37.2721951 54.9726761 3.02634146 49.0140845 3.02634146"></polygon>
                    <polygon id="Fill-2" points="57.3160563 34.5619512 59.6594366 34.5619512 59.6594366 7.12292683 57.3160563 7.12292683"></polygon>
                    <polygon id="Fill-3" points="5.08985915 37.2721951 11.0484507 37.2721951 11.0484507 3.02634146 5.08985915 3.02634146"></polygon>
                    <polygon id="Fill-4" points="0.336338028 34.5619512 2.67971831 34.5619512 2.67971831 7.12292683 0.336338028 7.12292683"></polygon>
                    <path d="M22.4569014,12.1726829 L24.2332394,17.0731707 C24.2332394,17.0731707 24.5501408,17.0009756 24.8670423,16.8517073 C25.0580282,16.7795122 25.2464789,16.6312195 25.4383099,16.4858537 C25.8177465,16.0478049 25.691831,15.1678049 25.5633803,15.022439 C25.7552113,15.2439024 26.4515493,15.3160976 26.8309859,14.8780488 C26.9560563,14.7336585 27.0853521,14.44 27.1478873,14.2185366 C27.2729577,13.8526829 27.3397183,13.4868293 27.3397183,13.4868293 L23.0940845,11.4370732 L22.4569014,12.1726829 Z" id="Fill-5"></path>
                    <path d="M13.3960563,0.831219512 L13.3960563,39.2458537 L46.6707042,39.2458537 L46.6707042,0.831219512 L13.3960563,0.831219512 Z M28.7949296,27.6107317 L27.1478873,25.7092683 C26.9560563,25.4878049 26.6391549,25.4878049 26.4515493,25.7092683 C26.2597183,25.9297561 26.2597183,26.2956098 26.4515493,26.5131707 L28.0985915,28.4146341 L27.1478873,29.5121951 L25.5008451,27.6107317 C25.3090141,27.3892683 24.9921127,27.3892683 24.804507,27.6107317 C24.6126761,27.8312195 24.6126761,28.1970732 24.804507,28.4146341 L26.4515493,30.3160976 L25.5008451,31.4136585 C25.3090141,31.635122 24.9295775,31.635122 24.7411268,31.4136585 L20.2419718,26.2195122 C20.0509859,25.9980488 20.0509859,25.56 20.2419718,25.3434146 L24.5535211,20.3658537 L29.8149296,26.4409756 L28.7949296,27.6107317 Z M32.8521127,28.4146341 L30.5087324,25.7092683 L30.4453521,25.7814634 L25.1839437,19.7063415 L25.2464789,19.6341463 L23.5369014,17.6604878 L20.4929577,9.17268293 L27.8442254,12.6868293 L37.1602817,23.4409756 L32.8521127,28.4146341 Z M38.364507,29.7336585 C37.1602817,31.1239024 35.2588732,31.1239024 34.0538028,29.7336585 L38.3619718,24.76 C39.5695775,26.1473171 39.5695775,28.342439 38.364507,29.7336585 Z M39.8864789,14.8058537 L38.9357746,15.9034146 L37.2887324,14.0019512 C37.0969014,13.7804878 36.78,13.7804878 36.5923944,14.0019512 C36.4005634,14.222439 36.4005634,14.5882927 36.5923944,14.8058537 L38.2394366,16.7073171 L37.2887324,17.804878 L35.6416901,15.9034146 C35.4498592,15.6819512 35.1329577,15.6819512 34.9453521,15.9034146 C34.7535211,16.1239024 34.7535211,16.4897561 34.9453521,16.7073171 L36.5923944,18.6087805 L35.6416901,19.7063415 L30.3794366,13.6321951 L34.6909859,8.65463415 C34.8819718,8.43414634 35.2622535,8.43414634 35.4498592,8.65463415 L39.9490141,13.8487805 C40.0783099,14.1463415 40.0783099,14.5843902 39.8864789,14.8058537 Z" id="Fill-6"></path>
                </g>
            </g>
        </g>
    </g>
</svg>