<?xml version="1.0" encoding="UTF-8" standalone="no"?>
<svg width="140px" height="140px" viewBox="0 0 140 140" version="1.1" xmlns="http://www.w3.org/2000/svg" xmlns:xlink="http://www.w3.org/1999/xlink">
    <!-- Generator: Sketch 42 (36781) - http://www.bohemiancoding.com/sketch -->
    <title>research-skill-tile</title>
    <desc>Created with Sketch.</desc>
    <defs></defs>
    <g id="Page-1" stroke="none" stroke-width="1" fill="none" fill-rule="evenodd">
        <g id="About-Copy-2" transform="translate(-570.000000, -581.000000)">
            <g id="research-skill-tile" transform="translate(570.000000, 581.000000)">
                <rect id="Rectangle-8-Copy" fill="#394037" x="0" y="0" width="140" height="140"></rect>
                <path d="M59.3984375,92.625 L59.40625,100.164062 C59.40625,100.799482 59.3190113,101.364581 59.1445312,101.859375 C58.9700512,102.354169 58.7174496,102.772134 58.3867188,103.113281 C58.0559879,103.454429 57.6523461,103.713541 57.1757812,103.890625 C56.6992164,104.067709 56.156253,104.15625 55.546875,104.15625 C54.9739555,104.15625 54.4570336,104.067709 53.9960938,103.890625 C53.5351539,103.713541 53.1406266,103.455731 52.8125,103.117188 C52.4843734,102.778644 52.2304696,102.36068 52.0507812,101.863281 C51.8710929,101.365883 51.78125,100.799482 51.78125,100.164062 L51.7890625,92.625 L53.984375,92.625 L53.9921875,100.164062 C53.9973959,100.898441 54.1315091,101.453123 54.3945312,101.828125 C54.6575534,102.203127 55.0416641,102.390625 55.546875,102.390625 C56.083336,102.390625 56.4934882,102.203127 56.7773438,101.828125 C57.0611993,101.453123 57.2057291,100.898441 57.2109375,100.164062 L57.21875,92.625 L59.3984375,92.625 Z M67.328125,101.03125 C67.328125,100.828124 67.2929691,100.638022 67.2226562,100.460938 C67.1523434,100.283853 67.0325529,100.11849 66.8632812,99.9648438 C66.6940096,99.8111971 66.4726576,99.6705736 66.1992188,99.5429688 C65.9257799,99.4153639 65.5859395,99.2968755 65.1796875,99.1875 C64.6848934,99.0520827 64.2122418,98.8828135 63.7617188,98.6796875 C63.3111957,98.4765615 62.9140642,98.2317723 62.5703125,97.9453125 C62.2265608,97.6588527 61.9518239,97.3255227 61.7460938,96.9453125 C61.5403636,96.5651023 61.4375,96.1276066 61.4375,95.6328125 C61.4375,95.1536434 61.5390615,94.718752 61.7421875,94.328125 C61.9453135,93.937498 62.2265607,93.604168 62.5859375,93.328125 C62.9453143,93.052082 63.3697892,92.8398445 63.859375,92.6914062 C64.3489608,92.542968 64.8802055,92.46875 65.453125,92.46875 C66.046878,92.46875 66.5898413,92.5546866 67.0820312,92.7265625 C67.5742212,92.8984384 67.9973941,93.1393214 68.3515625,93.4492188 C68.7057309,93.7591161 68.9817698,94.127602 69.1796875,94.5546875 C69.3776052,94.981773 69.4765625,95.4505183 69.4765625,95.9609375 L67.3359375,95.9609375 C67.3255208,95.7057279 67.2799483,95.4713552 67.1992188,95.2578125 C67.1184892,95.0442698 66.9986987,94.8606779 66.8398438,94.7070312 C66.6809888,94.5533846 66.4830741,94.4335942 66.2460938,94.3476562 C66.0091134,94.2617183 65.7317724,94.21875 65.4140625,94.21875 C65.1223944,94.21875 64.8632824,94.2539059 64.6367188,94.3242188 C64.4101551,94.3945316 64.2187508,94.4934889 64.0625,94.6210938 C63.9062492,94.7486986 63.7877608,94.8997387 63.7070312,95.0742188 C63.6263017,95.2486988 63.5859375,95.437499 63.5859375,95.640625 C63.5859375,95.8541677 63.6393224,96.0468741 63.7460938,96.21875 C63.8528651,96.3906259 64.0078115,96.5455722 64.2109375,96.6835938 C64.4140635,96.8216153 64.6601548,96.9479161 64.9492188,97.0625 C65.2382827,97.1770839 65.5651023,97.2838537 65.9296875,97.3828125 C66.4505234,97.5338549 66.9296853,97.7187489 67.3671875,97.9375 C67.8046897,98.1562511 68.180988,98.4153631 68.4960938,98.7148438 C68.8111995,99.0143244 69.0559887,99.3554668 69.2304688,99.7382812 C69.4049488,100.121096 69.4921875,100.546873 69.4921875,101.015625 C69.4921875,101.515628 69.3919281,101.959633 69.1914062,102.347656 C68.9908844,102.735679 68.7135434,103.063801 68.359375,103.332031 C68.0052066,103.600262 67.5833358,103.803385 67.09375,103.941406 C66.6041642,104.079428 66.0703154,104.148438 65.4921875,104.148438 C65.1328107,104.148438 64.7747414,104.115886 64.4179688,104.050781 C64.0611961,103.985677 63.7200537,103.885417 63.3945312,103.75 C63.0690088,103.614583 62.7656264,103.445314 62.484375,103.242188 C62.2031236,103.039061 61.9596364,102.802085 61.7539062,102.53125 C61.5481761,102.260415 61.3867193,101.953127 61.2695312,101.609375 C61.1523432,101.265623 61.09375,100.885419 61.09375,100.46875 L63.25,100.46875 C63.2604167,100.812502 63.320312,101.10677 63.4296875,101.351562 C63.539063,101.596355 63.6914053,101.796874 63.8867188,101.953125 C64.0820322,102.109376 64.3164049,102.223958 64.5898438,102.296875 C64.8632826,102.369792 65.1640609,102.40625 65.4921875,102.40625 C65.7838556,102.40625 66.0429676,102.372396 66.2695312,102.304688 C66.4960949,102.236979 66.6874992,102.14323 66.84375,102.023438 C67.0000008,101.903645 67.1197913,101.759115 67.203125,101.589844 C67.2864587,101.420572 67.328125,101.234376 67.328125,101.03125 Z M78.0234375,99.015625 L73.3515625,99.015625 L73.3515625,102.226562 L78.8125,102.226562 L78.8125,104 L71.1484375,104 L71.1484375,92.625 L78.7890625,92.625 L78.7890625,94.4140625 L73.3515625,94.4140625 L73.3515625,97.28125 L78.0234375,97.28125 L78.0234375,99.015625 Z M84.484375,99.75 L82.8203125,99.75 L82.8203125,104 L80.625,104 L80.625,92.625 L84.4375,92.625 C85.0677115,92.625 85.6380183,92.699218 86.1484375,92.8476562 C86.6588567,92.9960945 87.0950503,93.2135402 87.4570312,93.5 C87.8190122,93.7864598 88.0976553,94.143227 88.2929688,94.5703125 C88.4882822,94.997398 88.5859375,95.4921847 88.5859375,96.0546875 C88.5859375,96.4609395 88.5377609,96.8268213 88.4414062,97.1523438 C88.3450516,97.4778662 88.2070321,97.76953 88.0273438,98.0273438 C87.8476554,98.2851575 87.6315117,98.5104157 87.3789062,98.703125 C87.1263008,98.8958343 86.8437516,99.0624993 86.53125,99.203125 L88.9765625,103.898438 L88.9765625,104 L86.625,104 L84.484375,99.75 Z M82.8203125,97.96875 L84.4453125,97.96875 C85.0651073,97.96875 85.5429671,97.8111995 85.8789062,97.4960938 C86.2148454,97.180988 86.3828125,96.7500027 86.3828125,96.203125 C86.3828125,95.6354138 86.2187516,95.194012 85.890625,94.8789062 C85.5624984,94.5638005 85.0781282,94.40625 84.4375,94.40625 L82.8203125,94.40625 L82.8203125,97.96875 Z M36.4765625,117.75 L34.8125,117.75 L34.8125,122 L32.6171875,122 L32.6171875,110.625 L36.4296875,110.625 C37.059899,110.625 37.6302058,110.699218 38.140625,110.847656 C38.6510442,110.996094 39.0872378,111.21354 39.4492188,111.5 C39.8111997,111.78646 40.0898428,112.143227 40.2851562,112.570312 C40.4804697,112.997398 40.578125,113.492185 40.578125,114.054688 C40.578125,114.46094 40.5299484,114.826821 40.4335938,115.152344 C40.3372391,115.477866 40.1992196,115.76953 40.0195312,116.027344 C39.8398429,116.285158 39.6236992,116.510416 39.3710938,116.703125 C39.1184883,116.895834 38.8359391,117.062499 38.5234375,117.203125 L40.96875,121.898438 L40.96875,122 L38.6171875,122 L36.4765625,117.75 Z M34.8125,115.96875 L36.4375,115.96875 C37.0572948,115.96875 37.5351546,115.811199 37.8710938,115.496094 C38.2070329,115.180988 38.375,114.750003 38.375,114.203125 C38.375,113.635414 38.2109391,113.194012 37.8828125,112.878906 C37.5546859,112.563801 37.0703157,112.40625 36.4296875,112.40625 L34.8125,112.40625 L34.8125,115.96875 Z M49.21875,117.015625 L44.546875,117.015625 L44.546875,120.226562 L50.0078125,120.226562 L50.0078125,122 L42.34375,122 L42.34375,110.625 L49.984375,110.625 L49.984375,112.414062 L44.546875,112.414062 L44.546875,115.28125 L49.21875,115.28125 L49.21875,117.015625 Z M57.7265625,119.03125 C57.7265625,118.828124 57.6914066,118.638022 57.6210938,118.460938 C57.5507809,118.283853 57.4309904,118.11849 57.2617188,117.964844 C57.0924471,117.811197 56.8710951,117.670574 56.5976562,117.542969 C56.3242174,117.415364 55.984377,117.296876 55.578125,117.1875 C55.0833309,117.052083 54.6106793,116.882814 54.1601562,116.679688 C53.7096332,116.476561 53.3125017,116.231772 52.96875,115.945312 C52.6249983,115.658853 52.3502614,115.325523 52.1445312,114.945312 C51.9388011,114.565102 51.8359375,114.127607 51.8359375,113.632812 C51.8359375,113.153643 51.937499,112.718752 52.140625,112.328125 C52.343751,111.937498 52.6249982,111.604168 52.984375,111.328125 C53.3437518,111.052082 53.7682267,110.839844 54.2578125,110.691406 C54.7473983,110.542968 55.278643,110.46875 55.8515625,110.46875 C56.4453155,110.46875 56.9882788,110.554687 57.4804688,110.726562 C57.9726587,110.898438 58.3958316,111.139321 58.75,111.449219 C59.1041684,111.759116 59.3802073,112.127602 59.578125,112.554688 C59.7760427,112.981773 59.875,113.450518 59.875,113.960938 L57.734375,113.960938 C57.7239583,113.705728 57.6783858,113.471355 57.5976562,113.257812 C57.5169267,113.04427 57.3971362,112.860678 57.2382812,112.707031 C57.0794263,112.553385 56.8815116,112.433594 56.6445312,112.347656 C56.4075509,112.261718 56.1302099,112.21875 55.8125,112.21875 C55.5208319,112.21875 55.2617199,112.253906 55.0351562,112.324219 C54.8085926,112.394532 54.6171883,112.493489 54.4609375,112.621094 C54.3046867,112.748699 54.1861983,112.899739 54.1054688,113.074219 C54.0247392,113.248699 53.984375,113.437499 53.984375,113.640625 C53.984375,113.854168 54.0377599,114.046874 54.1445312,114.21875 C54.2513026,114.390626 54.406249,114.545572 54.609375,114.683594 C54.812501,114.821615 55.0585923,114.947916 55.3476562,115.0625 C55.6367202,115.177084 55.9635398,115.283854 56.328125,115.382812 C56.8489609,115.533855 57.3281228,115.718749 57.765625,115.9375 C58.2031272,116.156251 58.5794255,116.415363 58.8945312,116.714844 C59.209637,117.014324 59.4544262,117.355467 59.6289062,117.738281 C59.8033863,118.121096 59.890625,118.546873 59.890625,119.015625 C59.890625,119.515628 59.7903656,119.959633 59.5898438,120.347656 C59.3893219,120.735679 59.1119809,121.063801 58.7578125,121.332031 C58.4036441,121.600262 57.9817733,121.803385 57.4921875,121.941406 C57.0026017,122.079428 56.4687529,122.148438 55.890625,122.148438 C55.5312482,122.148438 55.1731789,122.115886 54.8164062,122.050781 C54.4596336,121.985677 54.1184912,121.885417 53.7929688,121.75 C53.4674463,121.614583 53.1640639,121.445314 52.8828125,121.242188 C52.6015611,121.039061 52.3580739,120.802085 52.1523438,120.53125 C51.9466136,120.260415 51.7851568,119.953127 51.6679688,119.609375 C51.5507807,119.265623 51.4921875,118.885419 51.4921875,118.46875 L53.6484375,118.46875 C53.6588542,118.812502 53.7187495,119.10677 53.828125,119.351562 C53.9375005,119.596355 54.0898428,119.796874 54.2851562,119.953125 C54.4804697,120.109376 54.7148424,120.223958 54.9882812,120.296875 C55.2617201,120.369792 55.5624984,120.40625 55.890625,120.40625 C56.1822931,120.40625 56.4414051,120.372396 56.6679688,120.304688 C56.8945324,120.236979 57.0859367,120.14323 57.2421875,120.023438 C57.3984383,119.903645 57.5182288,119.759115 57.6015625,119.589844 C57.6848962,119.420572 57.7265625,119.234376 57.7265625,119.03125 Z M68.421875,117.015625 L63.75,117.015625 L63.75,120.226562 L69.2109375,120.226562 L69.2109375,122 L61.546875,122 L61.546875,110.625 L69.1875,110.625 L69.1875,112.414062 L63.75,112.414062 L63.75,115.28125 L68.421875,115.28125 L68.421875,117.015625 Z M76.6171875,119.625 L73.203125,119.625 L72.53125,122 L70.21875,122 L73.9453125,110.625 L75.9375,110.625 L79.59375,122 L77.28125,122 L76.6171875,119.625 Z M73.7421875,117.757812 L76.1015625,117.757812 L74.9375,113.570312 L73.7421875,117.757812 Z M84.484375,117.75 L82.8203125,117.75 L82.8203125,122 L80.625,122 L80.625,110.625 L84.4375,110.625 C85.0677115,110.625 85.6380183,110.699218 86.1484375,110.847656 C86.6588567,110.996094 87.0950503,111.21354 87.4570312,111.5 C87.8190122,111.78646 88.0976553,112.143227 88.2929688,112.570312 C88.4882822,112.997398 88.5859375,113.492185 88.5859375,114.054688 C88.5859375,114.46094 88.5377609,114.826821 88.4414062,115.152344 C88.3450516,115.477866 88.2070321,115.76953 88.0273438,116.027344 C87.8476554,116.285158 87.6315117,116.510416 87.3789062,116.703125 C87.1263008,116.895834 86.8437516,117.062499 86.53125,117.203125 L88.9765625,121.898438 L88.9765625,122 L86.625,122 L84.484375,117.75 Z M82.8203125,115.96875 L84.4453125,115.96875 C85.0651073,115.96875 85.5429671,115.811199 85.8789062,115.496094 C86.2148454,115.180988 86.3828125,114.750003 86.3828125,114.203125 C86.3828125,113.635414 86.2187516,113.194012 85.890625,112.878906 C85.5624984,112.563801 85.0781282,112.40625 84.4375,112.40625 L82.8203125,112.40625 L82.8203125,115.96875 Z M98.125,118.4375 C98.0885415,119.01042 97.9648448,119.526039 97.7539062,119.984375 C97.5429677,120.442711 97.2604184,120.833332 96.90625,121.15625 C96.5520816,121.479168 96.1302108,121.727864 95.640625,121.902344 C95.1510392,122.076824 94.609378,122.164062 94.015625,122.164062 C93.3437466,122.164062 92.7473984,122.040366 92.2265625,121.792969 C91.7057266,121.545572 91.2682309,121.199221 90.9140625,120.753906 C90.5598941,120.308592 90.2890634,119.773441 90.1015625,119.148438 C89.9140616,118.523434 89.8203125,117.835941 89.8203125,117.085938 L89.8203125,115.554688 C89.8203125,114.799475 89.9192698,114.109378 90.1171875,113.484375 C90.3151052,112.859372 90.5963523,112.322919 90.9609375,111.875 C91.3255227,111.427081 91.7669245,111.079428 92.2851562,110.832031 C92.803388,110.584634 93.3854134,110.460938 94.03125,110.460938 C94.6562531,110.460938 95.2122371,110.549478 95.6992188,110.726562 C96.1862004,110.903647 96.6015608,111.156248 96.9453125,111.484375 C97.2890642,111.812502 97.5598948,112.213539 97.7578125,112.6875 C97.9557302,113.161461 98.0807289,113.69531 98.1328125,114.289062 L95.9453125,114.289062 C95.9244791,113.950519 95.8736983,113.653647 95.7929688,113.398438 C95.7122392,113.143228 95.5950529,112.93099 95.4414062,112.761719 C95.2877596,112.592447 95.0950532,112.464844 94.8632812,112.378906 C94.6315093,112.292968 94.3541683,112.25 94.03125,112.25 C93.6927066,112.25 93.3984387,112.322916 93.1484375,112.46875 C92.8984363,112.614584 92.6914071,112.828124 92.5273438,113.109375 C92.3632804,113.390626 92.2421879,113.735675 92.1640625,114.144531 C92.0859371,114.553387 92.046875,115.018227 92.046875,115.539062 L92.046875,117.085938 C92.046875,118.205735 92.2044255,119.033851 92.5195312,119.570312 C92.834637,120.106774 93.3333299,120.375 94.015625,120.375 C94.5885445,120.375 95.041665,120.222658 95.375,119.917969 C95.708335,119.61328 95.893229,119.119795 95.9296875,118.4375 L98.125,118.4375 Z M107.335938,122 L105.164062,122 L105.164062,117.070312 L101.945312,117.070312 L101.945312,122 L99.765625,122 L99.765625,110.625 L101.945312,110.625 L101.945312,115.289062 L105.164062,115.289062 L105.164062,110.625 L107.335938,110.625 L107.335938,122 Z" id="USER-RESEARCH" fill="#FFFFFF"></path>
                <path d="M74.9054647,34.1235335 L74.9054647,32.2413343 L76.133827,32.2413343 C77.9070194,32.2413343 79.3569061,30.9822019 79.3569061,29.4422995 L79.3569061,21.9169689 C79.3569061,20.3770664 77.9070194,19.1179341 76.133827,19.1179341 L74.9054647,19.1179341 L74.9054647,16.4740161 C74.9054647,16.2131773 74.6909254,16 74.4304847,16 L65.317054,16 C65.0556154,16 64.8410761,16.2131773 64.8410761,16.4740161 L64.8410761,19.1179341 L63.6137117,19.1179341 C61.8395214,19.1179341 60.3896348,20.3770664 60.3896348,21.9169689 L60.3896348,29.4422995 C60.3896348,30.9822019 61.8395214,32.2413343 63.6137117,32.2413343 L64.8410761,32.2413343 L64.8410761,34.1235335 L61.4972563,34.1235335 C60.401609,34.1096683 59.5594175,34.6651424 59.3099532,35.5889105 L59.3019703,35.6634359 C56.1138163,35.5620467 54.6798954,37.6071619 53.5573059,39.5569539 L48.529103,50.8189526 C48.200808,51.4108228 48.3255401,52.0070259 48.9651667,52.1968057 L49.3353717,52.2808634 L48.9691581,53.4455391 C46.7010285,53.916089 45.2232018,55.5478482 45.0126539,57.4803088 C44.7631896,59.7793302 48.2756473,63.0653797 49.0709395,57.290529 C49.1597488,56.6379986 49.6397182,55.6631026 50.6605262,55.8052208 C53.2330023,56.0383292 49.6666603,60.50032 51.7362164,61.119054 C54.2857417,61.8807727 55.7086862,58.7429074 55.5530205,57.4803088 C55.4003483,56.2350416 54.7806789,55.1180274 53.7638624,54.3528424 L54.0712024,53.3710138 L54.2158917,53.4048102 C54.7926532,53.5330631 55.185809,53.1985655 55.3734062,52.6838204 L58.2462373,43.8014345 L56.5698371,56.7255226 L56.5698371,81 L69.2695668,81 L69.2695668,66.9857615 L70.8910849,66.9857615 L70.8910849,81 L83.5898167,81 L83.5898167,56.7255226 L82.0151979,44.6073485 L84.6265904,52.6872867 C84.818179,53.2054981 85.2113348,53.5365294 85.7841049,53.4082765 L85.9287942,53.3744801 L86.2371321,54.3563087 C85.2193176,55.1214937 84.5996483,56.2419742 84.447974,57.4837751 C84.2913104,58.7429074 85.7142549,61.884239 88.2637802,61.1225203 C90.3333362,60.5029197 86.7669943,56.0417955 89.3394704,55.8086871 C90.3572848,55.6657023 90.8362563,56.6405983 90.9300549,57.2939953 C91.7253472,63.068846 95.236807,59.7853962 94.9873426,57.4837751 C94.7767948,55.5513145 93.3039574,53.9230215 91.0308385,53.4490054 L90.6646249,52.2843297 L91.0348299,52.1994054 C91.670465,52.0070259 91.7991886,51.4142891 91.4718914,50.8224189 L86.4436885,39.5604202 C85.3250905,37.6166942 84.0188953,35.5793782 80.853692,35.6669022 L80.8457092,35.5958431 C80.6002363,34.672075 79.7550511,34.1166009 78.6594038,34.1304661 L74.8974819,34.1304661 L74.9054647,34.1235335 Z" id="Page-1" fill="#FFFFFF"></path>
            </g>
        </g>
    </g>
</svg>