<?xml version="1.0" encoding="UTF-8"?>
<svg width="297px" height="529px" viewBox="0 0 297 529" version="1.1" xmlns="http://www.w3.org/2000/svg" xmlns:xlink="http://www.w3.org/1999/xlink">
    <!-- Generator: Sketch 43 (38999) - http://www.bohemiancoding.com/sketch -->
    <title>rocket</title>
    <desc>Created with Sketch.</desc>
    <defs>
        <linearGradient x1="50%" y1="0%" x2="50%" y2="99.0692761%" id="linearGradient-1">
            <stop stop-color="#A70B90" offset="0%"></stop>
            <stop stop-color="#D10823" offset="100%"></stop>
        </linearGradient>
        <linearGradient x1="11.8823262%" y1="12.8786029%" x2="121.361771%" y2="153.815867%" id="linearGradient-2">
            <stop stop-color="#090022" offset="0%"></stop>
            <stop stop-color="#750083" offset="79.0971551%"></stop>
            <stop stop-color="#750083" offset="79.4130765%"></stop>
            <stop stop-color="#91009C" offset="100%"></stop>
        </linearGradient>
        <linearGradient x1="50%" y1="3.25454401%" x2="50%" y2="100%" id="linearGradient-3">
            <stop stop-color="#2E8AFE" offset="0%"></stop>
            <stop stop-color="#38217E" offset="100%"></stop>
        </linearGradient>
        <circle id="path-4" cx="148" cy="221" r="40"></circle>
        <linearGradient x1="50%" y1="0%" x2="50%" y2="100%" id="linearGradient-5">
            <stop stop-color="#470285" offset="0%"></stop>
            <stop stop-color="#830097" stop-opacity="0.184980752" offset="100%"></stop>
        </linearGradient>
    </defs>
    <g id="Page-1" stroke="none" stroke-width="1" fill="none" fill-rule="evenodd">
        <g id="Artboard-2-Copy-5" transform="translate(-603.000000, -595.000000)">
            <g id="rocket" transform="translate(603.000000, 595.000000)">
                <path d="M148,633.378055 C148,633.378055 199,600.470984 199,559.878055 C199,519.285126 180.636845,507 148,507 C115.363155,507 97,519.285126 97,559.878055 C97,600.470984 148,633.378055 148,633.378055 Z" id="Oval-5" fill="url(#linearGradient-1)"></path>
                <path d="M79.3401764,485.513678 L0,485.513678 L0,433.422486 L48.033785,386.619172 C42.7685026,347.879297 41,302.324913 41,251.967467 C41,93.0261861 148.195007,0 148.195007,0 C148.195007,0 255.390015,93.0261861 255.390015,251.967467 C255.390015,302.102112 253.637127,347.476101 248.425912,386.10457 L296.987828,433.422486 L296.987828,485.513678 L217.049838,485.513678 C201.072191,508.994597 178.846293,522.001983 148.195007,522.001983 C117.543721,522.001983 95.3178237,508.994597 79.3401764,485.513678 Z" id="Combined-Shape" fill="url(#linearGradient-2)"></path>
                <g id="Oval-4" opacity="0.818048007">
                    <use fill="url(#linearGradient-3)" fill-rule="evenodd" xlink:href="#path-4"></use>
                    <circle stroke="#49008E" stroke-width="8" cx="148" cy="221" r="36"></circle>
                </g>
                <path d="M136,411.008293 C136,406.585435 139.581124,403 143.995862,403 L151.004138,403 C155.420131,403 159,406.580649 159,411.008293 L159,508.878426 C159,513.301284 155.739498,518.378944 151.711248,520.184392 C151.711248,520.184392 148.194088,521.882812 147.5,521.882812 C146.805912,521.882812 143.272909,520.177414 143.272909,520.177414 C139.256192,518.360013 136,513.306069 136,508.878426 L136,411.008293 Z" id="Rectangle-11" fill="url(#linearGradient-5)"></path>
            </g>
        </g>
    </g>
</svg>