<svg xmlns:dc="http://purl.org/dc/elements/1.1/" xmlns:cc="http://creativecommons.org/ns#" xmlns:rdf="http://www.w3.org/1999/02/22-rdf-syntax-ns#" xmlns:svg="http://www.w3.org/2000/svg" xmlns="http://www.w3.org/2000/svg" xmlns:sodipodi="http://sodipodi.sourceforge.net/DTD/sodipodi-0.dtd" xmlns:inkscape="http://www.inkscape.org/namespaces/inkscape" version="1.1" x="0px" y="0px" viewBox="0 0 100 100"><g transform="translate(0,-952.36218)"><path style="font-size:medium;font-style:normal;font-variant:normal;font-weight:normal;font-stretch:normal;text-indent:0;text-align:start;text-decoration:none;line-height:normal;letter-spacing:normal;word-spacing:normal;text-transform:none;direction:ltr;block-progression:tb;writing-mode:lr-tb;text-anchor:start;baseline-shift:baseline;opacity:1;color:#000000;fill:#000000;fill-opacity:1;stroke:none;stroke-width:4;marker:none;visibility:visible;display:inline;overflow:visible;enable-background:accumulate;font-family:Sans;-inkscape-font-specification:Sans" d="m 23.71875,14 c -0.54252,0.0902 -1.041817,0.415325 -1.34375,0.875 l -16.03125,24 c -0.5037132,0.750951 -0.4077266,1.847941 0.21875,2.5 l 41.96875,44 c 0.842489,0.933064 2.59231,0.74619 3.21875,-0.34375 L 93.4375,41.375 c 0.626477,-0.652059 0.722463,-1.749049 0.21875,-2.5 L 77.625,14.875 C 77.268688,14.343483 76.637852,14.018068 76,14 c -8.666667,0 -17.333333,0 -26,0 -8.745185,-1.8e-5 -17.568318,0 -26.28125,0 z M 26.8125,18 46,18 32.6875,35.71875 z M 54,18 73.1875,18 67.3125,35.71875 z M 50,19.3125 64,38 36,38 z M 23.40625,20.5 l 5.8125,17.5 -17.5,0 z m 53.1875,0 11.6875,17.5 -17.5,0 z m -63.9375,21.5 18,0 L 44.125,74.9375 z M 34.96875,42 65,42 50,78.6875 z m 34.375,0 18,0 L 55.875,74.9375 z" transform="translate(0,952.36218)"></path></g></svg>