<?xml version="1.0" encoding="UTF-8"?>
<svg width="262px" height="245px" viewBox="0 0 262 245" version="1.1" xmlns="http://www.w3.org/2000/svg" xmlns:xlink="http://www.w3.org/1999/xlink">
    <!-- Generator: Sketch 43 (38999) - http://www.bohemiancoding.com/sketch -->
    <title>shadow</title>
    <desc>Created with Sketch.</desc>
    <defs></defs>
    <g id="Page-2" stroke="none" stroke-width="1" fill="none" fill-rule="evenodd">
        <g id="Artboard" transform="translate(-354.000000, -238.000000)" fill="#00B37D">
            <g id="shadow" transform="translate(354.000000, 238.000000)">
                <path d="M86.3760781,138.781716 C86.3760781,138.781716 86.3760781,146.586636 88.2300352,162.58799 C88.9565777,168.858721 92.9601346,173.794158 95.9482891,177.934665 C100.585166,184.359708 131.923141,208.109145 137.562281,209.330452 C143.201422,210.551758 161.811754,197.919613 168.196324,191.005879 C174.580894,184.092144 174.154266,173.536966 173.328352,169.813847 C172.502438,166.090727 168.918359,162.747681 168.918359,162.747681 L168.875375,141.547689 L86.3760781,138.781716 Z" id="Path-5"></path>
                <path d="M85.7295041,138.63695 C96.7404297,156.403851 121.022231,165.252976 130.316344,165.252976 C139.610456,165.252976 161.707509,152.277775 169.381977,140.391055 C177.056444,128.504334 187.939412,87.0123215 175.716031,57.6625838 C163.492651,28.3128461 128.119617,30.9460675 128.119617,30.9460675 C128.119617,30.9460675 84.1978956,29.4227923 77.6834266,57.6625838 C71.1689576,85.9023753 74.7185785,120.870049 85.7295041,138.63695 Z" id="Path"></path>
                <path d="M76.651375,86.0391816 C76.651375,86.0391816 74.408,81.5918198 71.6106895,81.6583972 C68.8133789,81.7249746 66.871918,80.7094594 65.8298027,88.4703527 C65.3696734,91.8970511 65.527784,98.3182289 67.2623594,103.793646 C68.2098381,106.784488 69.3301498,110.09183 70.4293867,112.33334 C71.5286236,114.57485 74.1268902,116.262415 74.8780137,116.262415 C77.1213887,116.262415 78.465418,114.781923 78.465418,114.781923 L78.3246953,109.313653 L77.8247461,105.046791 L77.564793,102.226095 L76.851457,96.8851798 L76.651375,92.1914823 L76.651375,86.0391816 Z" id="Path-2"></path>
                <path d="M179.76782,79.4287043 C179.76782,79.4287043 180.432799,77.9034392 182.436434,77.9034392 C184.440068,77.9034392 186.23418,80.4840025 187.388848,86.0849495 C188.543515,91.6858965 188.226531,98.5099403 187.388848,101.926116 C186.551164,105.342292 183.666094,111.551057 181.865867,112.907926 C180.065641,114.264795 177.360184,114.160573 176.961043,112.700478 C176.561902,111.240382 176.862793,110.067828 176.862793,110.067828 L177.517025,101.926116 L178.424047,89.9125391 L178.794787,83.2018203 L179.76782,79.4287043 Z" id="Path-3"></path>
                <path d="M181.317305,75.9219875 C183.936929,63.0723922 185.076763,46.2083679 179.348211,31.7201421 C178.689407,30.0539454 176.771319,22.9797787 175.957562,21.548723 C171.966156,14.529512 165.060806,14.0301903 160.883352,11.2569144 C156.705898,8.48363845 155.435273,3.49112056 152.838109,2.93511556 C149.642203,2.25093057 135.284109,2.93511556 135.284109,2.93511556 C135.284109,2.93511556 121.571517,-0.232097248 118.501781,0.513396484 C110.670706,2.41519452 96.1458125,14.0368171 96.1458125,14.0368171 L96.9338594,5.97967611 L83.9495078,19.8543156 L83.9495078,14.0368171 L75.6565937,24.2500243 C75.6565937,24.2500243 66.6542722,42.9876057 66.8345625,52.3554969 C67.0148528,61.7233882 70.8904453,81.9215627 74.4755469,83.9144564 C78.0606484,85.9073501 74.6751144,76.6375762 76.79875,65.4590467 C78.1345223,58.4277226 78.3649171,50.2943585 85.8142109,44.8853791 C105.413039,30.6545459 109.756797,32.9697221 126.288094,31.7201421 C173.831883,28.1263667 178.396414,90.2493312 181.317305,75.9219875 Z" id="Path-6"></path>
                <path d="M176.815715,22.27212 C182.175457,24.2975678 181.313211,24.6697761 181.313211,24.6697761 L178.478289,27.1266852 L182.745,29.6086307 L186.432445,31.9270049 L180.23809,33.9098907 L181.817254,37.3740991 L180.173102,41.7721667 C180.173102,41.7721667 171.455973,20.2466722 176.815715,22.27212 Z" id="Path-7"></path>
                <path d="M86.4518125,154.78307 C89.8752109,151.973319 83.7611953,162.962591 101.158609,178.894796 C118.556023,194.827001 153.92807,186.830552 160.628516,176.297965 C167.328961,165.765377 168.68013,153.694306 168.586766,150.612221 C168.449873,146.093213 168.586766,148.872046 172.346875,150.612221 C182.352783,155.242947 261.304062,193.644874 261.304062,210.45276 C261.304062,216.901266 245.09137,229.197899 222.923109,236.048958 C187.310292,247.055032 76.9725726,247.072058 41.9220469,236.048958 C6.87152118,225.025858 -0.719462235,215.849114 0.7123125,210.45276 C4.90226562,194.660844 83.0284141,157.592822 86.4518125,154.78307 Z" id="Path-8"></path>
                <path d="M128.904,130.410667 C137.288,130.410667 145.672,138.561333 145.672,138.561333 C145.672,138.561333 134.50425,136.540581 128.904,136.540581 C123.30375,136.540581 112.136,138.561333 112.136,138.561333 C112.136,138.561333 120.52,130.410667 128.904,130.410667 Z" id="Triangle" transform="translate(128.904000, 134.486000) scale(1, -1) translate(-128.904000, -134.486000) "></path>
                <path d="M174.582635,68.7415197 C144.281572,59.9421159 111.7334,59.9604313 81.5036736,68.7415197 C77.7842371,69.8238694 75.6821289,72.1719894 75.0703386,75.9327636 C72.8229206,89.7463764 73.6588633,103.559363 75.0703386,112.231811 C75.6821754,115.986323 77.7902852,118.340564 81.5036736,119.423055 C86.5800593,120.896761 91.7595732,122.138126 96.8965952,123.116516 C99.8043435,123.679098 102.784824,122.749612 104.850489,120.658331 L118.220083,107.168761 C123.641831,101.689777 132.449905,101.683672 137.871809,107.168761 L151.235355,120.658331 C153.307067,122.749581 156.317789,123.673024 159.195296,123.122621 C164.332318,122.144231 169.511677,120.90285 174.588218,119.42916 C178.307654,118.34681 180.415811,115.99869 181.021553,112.237916 C182.857079,100.962012 182.978196,87.9378423 181.021553,75.9388688 C180.409716,72.1782511 178.301606,69.8240102 174.58217,68.7415197 L174.582635,68.7415197 Z" id="Page-1"></path>
                <polygon id="Page-1" points="131 240.552122 149.864 223.057813 138.86 223.057813 138.86 200.710167 123.14 200.710167 123.14 223.057813 112.136 223.057813"></polygon>
            </g>
        </g>
    </g>
</svg>