<?xml version="1.0" encoding="UTF-8" standalone="no"?>
<svg width="140px" height="140px" viewBox="0 0 140 140" version="1.1" xmlns="http://www.w3.org/2000/svg" xmlns:xlink="http://www.w3.org/1999/xlink">
    <!-- Generator: Sketch 42 (36781) - http://www.bohemiancoding.com/sketch -->
    <title>ui-skill-tile</title>
    <desc>Created with Sketch.</desc>
    <defs></defs>
    <g id="Page-1" stroke="none" stroke-width="1" fill="none" fill-rule="evenodd">
        <g id="About-Copy-2" transform="translate(-351.000000, -581.000000)">
            <g id="ui-skill-tile" transform="translate(351.000000, 581.000000)">
                <rect id="Rectangle-8" fill="#394037" x="0" y="0" width="140" height="140"></rect>
                <g id="Page-1" transform="translate(37.000000, 16.000000)" fill="#FFFFFF">
                    <path d="M64.4620455,64.4772748 L60.4110455,40.9422748 L49.7780455,30.3052748 L63.9000455,16.1842748 L48.2550455,0.539274819 L34.1340455,14.6612748 L22.5520455,3.07527482 C22.5520455,3.07527482 14.7080455,-4.76872518 5.34104548,4.59827482 L4.59104548,5.34827482 C-4.77595452,14.7152748 3.09104548,22.5592748 3.09104548,22.5592748 L14.6460455,34.1492748 L0.524045475,48.2702748 L16.1690455,63.9152748 L30.2900455,49.7932748 L40.8960455,60.4032748 L64.4620455,64.4772748 Z M43.6340455,49.5432748 L47.7980455,49.1762748 C48.4890455,49.1142748 49.0480455,48.5862748 49.1500455,47.9032748 L49.7710455,43.7042748 L56.5210455,43.7862748 L57.7670455,51.0242748 L51.0170455,57.7742748 L43.4620455,56.4892748 L43.6340455,49.5432748 Z M48.7710455,40.6922748 L21.5830455,13.4772748 L24.2390455,10.8212748 L54.1570455,40.7622748 L48.7710455,40.6922748 Z M19.4620455,15.6222748 L46.8370455,42.9972748 L46.3490455,46.2892748 L42.7120455,46.6142748 L15.6070455,19.4772748 L19.4620455,15.6222748 Z M54.6300455,58.3722748 L58.3800455,54.6222748 L59.2120455,59.2272748 L54.6300455,58.3722748 Z M39.7710455,13.2662748 L43.1770455,16.6722748 L45.2980455,14.5512748 L41.8880455,11.1452748 L48.2550455,4.77827482 L59.6530455,16.1762748 L47.6530455,28.1762748 L48.9350455,29.4572748 L36.2550455,16.7862748 L39.7710455,13.2662748 Z M8.37604548,7.63327482 C12.7040455,3.30527482 16.7740455,3.61427482 19.5440455,6.13327482 L22.1220455,8.71127482 L8.69604548,22.1372748 C4.34504548,17.6372748 4.72004548,17.5982748 4.41504548,16.1372748 C3.67304548,12.6532748 6.10304548,9.90727482 8.37604548,7.63327482 Z M10.7980455,24.2892748 L13.4620455,21.5982748 L40.6570455,48.7742748 L40.5210455,53.9772748 C24.5010455,37.9422748 15.7120455,29.2272748 10.7980455,24.2932748 L10.7980455,24.2892748 Z M16.1690455,59.6682748 L4.77104548,48.2702748 L11.1380455,41.9032748 L14.5440455,45.3092748 L16.6650455,43.1882748 L13.2590455,39.7822748 L16.7740455,36.2662748 L28.1730455,47.6652748 L16.1690455,59.6682748 Z" id="Fill-1"></path>
                    <path d="M14.066,54.121 L14.066,54.121 C11.645,54.121 11.645,57.75 14.066,57.75 C16.488,57.75 16.484,54.117 14.066,54.121 Z" id="Fill-2"></path>
                </g>
                <path d="M54.5976562,92.625 L54.6054688,100.164062 C54.6054688,100.799482 54.51823,101.364581 54.34375,101.859375 C54.16927,102.354169 53.9166683,102.772134 53.5859375,103.113281 C53.2552067,103.454429 52.8515649,103.713541 52.375,103.890625 C51.8984351,104.067709 51.3554718,104.15625 50.7460938,104.15625 C50.1731742,104.15625 49.6562523,104.067709 49.1953125,103.890625 C48.7343727,103.713541 48.3398454,103.455731 48.0117188,103.117188 C47.6835921,102.778644 47.4296884,102.36068 47.25,101.863281 C47.0703116,101.365883 46.9804688,100.799482 46.9804688,100.164062 L46.9882812,92.625 L49.1835938,92.625 L49.1914062,100.164062 C49.1966146,100.898441 49.3307279,101.453123 49.59375,101.828125 C49.8567721,102.203127 50.2408829,102.390625 50.7460938,102.390625 C51.2825548,102.390625 51.6927069,102.203127 51.9765625,101.828125 C52.2604181,101.453123 52.4049479,100.898441 52.4101562,100.164062 L52.4179688,92.625 L54.5976562,92.625 Z M57.1054688,92.625 L63.6835938,92.625 L63.6835938,94.3984375 L61.4648438,94.3984375 L61.4648438,102.234375 L63.6835938,102.234375 L63.6835938,104 L57.1054688,104 L57.1054688,102.234375 L59.2695312,102.234375 L59.2695312,94.3984375 L57.1054688,94.3984375 L57.1054688,92.625 Z M68.9414062,104.976562 L66.9179688,104.976562 L71.1757812,92.625 L73.1992188,92.625 L68.9414062,104.976562 Z M83.4023438,92.625 L83.4101562,100.164062 C83.4101562,100.799482 83.3229175,101.364581 83.1484375,101.859375 C82.9739575,102.354169 82.7213558,102.772134 82.390625,103.113281 C82.0598942,103.454429 81.6562524,103.713541 81.1796875,103.890625 C80.7031226,104.067709 80.1601593,104.15625 79.5507812,104.15625 C78.9778617,104.15625 78.4609398,104.067709 78,103.890625 C77.5390602,103.713541 77.1445329,103.455731 76.8164062,103.117188 C76.4882796,102.778644 76.2343759,102.36068 76.0546875,101.863281 C75.8749991,101.365883 75.7851562,100.799482 75.7851562,100.164062 L75.7929688,92.625 L77.9882812,92.625 L77.9960938,100.164062 C78.0013021,100.898441 78.1354154,101.453123 78.3984375,101.828125 C78.6614596,102.203127 79.0455704,102.390625 79.5507812,102.390625 C80.0872423,102.390625 80.4973944,102.203127 80.78125,101.828125 C81.0651056,101.453123 81.2096354,100.898441 81.2148438,100.164062 L81.2226562,92.625 L83.4023438,92.625 Z M89.2773438,96.703125 L91.3007812,92.625 L93.8789062,92.625 L90.6757812,98.265625 L93.9570312,104 L91.3945312,104 L89.3085938,99.859375 L87.2304688,104 L84.6367188,104 L87.9179688,98.265625 L84.7226562,92.625 L87.2851562,92.625 L89.2773438,96.703125 Z M42.171875,122 L42.171875,110.625 L45.1171875,110.625 C45.8723996,110.625 46.5559865,110.753905 47.1679688,111.011719 C47.779951,111.269533 48.3033832,111.628904 48.7382812,112.089844 C49.1731793,112.550784 49.5091134,113.101559 49.7460938,113.742188 C49.9830741,114.382816 50.1015625,115.085934 50.1015625,115.851562 L50.1015625,116.789062 C50.1015625,117.554691 49.9830741,118.256507 49.7460938,118.894531 C49.5091134,119.532555 49.1770855,120.082029 48.75,120.542969 C48.3229145,121.003909 47.8098988,121.361978 47.2109375,121.617188 C46.6119762,121.872397 45.9505245,122 45.2265625,122 L42.171875,122 Z M44.3828125,112.40625 L44.3828125,120.234375 L45.2265625,120.234375 C45.6380229,120.234375 46.0065088,120.156251 46.3320312,120 C46.6575537,119.843749 46.9335926,119.617189 47.1601562,119.320312 C47.3867199,119.023436 47.5598952,118.662763 47.6796875,118.238281 C47.7994798,117.8138 47.859375,117.330732 47.859375,116.789062 L47.859375,115.835938 C47.859375,115.325518 47.8007818,114.860679 47.6835938,114.441406 C47.5664057,114.022133 47.3919282,113.66146 47.1601562,113.359375 C46.9283843,113.05729 46.6419288,112.822918 46.3007812,112.65625 C45.9596337,112.489582 45.5651064,112.40625 45.1171875,112.40625 L44.3828125,112.40625 Z M58.8203125,117.015625 L54.1484375,117.015625 L54.1484375,120.226562 L59.609375,120.226562 L59.609375,122 L51.9453125,122 L51.9453125,110.625 L59.5859375,110.625 L59.5859375,112.414062 L54.1484375,112.414062 L54.1484375,115.28125 L58.8203125,115.28125 L58.8203125,117.015625 Z M67.328125,119.03125 C67.328125,118.828124 67.2929691,118.638022 67.2226562,118.460938 C67.1523434,118.283853 67.0325529,118.11849 66.8632812,117.964844 C66.6940096,117.811197 66.4726576,117.670574 66.1992188,117.542969 C65.9257799,117.415364 65.5859395,117.296876 65.1796875,117.1875 C64.6848934,117.052083 64.2122418,116.882814 63.7617188,116.679688 C63.3111957,116.476561 62.9140642,116.231772 62.5703125,115.945312 C62.2265608,115.658853 61.9518239,115.325523 61.7460938,114.945312 C61.5403636,114.565102 61.4375,114.127607 61.4375,113.632812 C61.4375,113.153643 61.5390615,112.718752 61.7421875,112.328125 C61.9453135,111.937498 62.2265607,111.604168 62.5859375,111.328125 C62.9453143,111.052082 63.3697892,110.839844 63.859375,110.691406 C64.3489608,110.542968 64.8802055,110.46875 65.453125,110.46875 C66.046878,110.46875 66.5898413,110.554687 67.0820312,110.726562 C67.5742212,110.898438 67.9973941,111.139321 68.3515625,111.449219 C68.7057309,111.759116 68.9817698,112.127602 69.1796875,112.554688 C69.3776052,112.981773 69.4765625,113.450518 69.4765625,113.960938 L67.3359375,113.960938 C67.3255208,113.705728 67.2799483,113.471355 67.1992188,113.257812 C67.1184892,113.04427 66.9986987,112.860678 66.8398438,112.707031 C66.6809888,112.553385 66.4830741,112.433594 66.2460938,112.347656 C66.0091134,112.261718 65.7317724,112.21875 65.4140625,112.21875 C65.1223944,112.21875 64.8632824,112.253906 64.6367188,112.324219 C64.4101551,112.394532 64.2187508,112.493489 64.0625,112.621094 C63.9062492,112.748699 63.7877608,112.899739 63.7070312,113.074219 C63.6263017,113.248699 63.5859375,113.437499 63.5859375,113.640625 C63.5859375,113.854168 63.6393224,114.046874 63.7460938,114.21875 C63.8528651,114.390626 64.0078115,114.545572 64.2109375,114.683594 C64.4140635,114.821615 64.6601548,114.947916 64.9492188,115.0625 C65.2382827,115.177084 65.5651023,115.283854 65.9296875,115.382812 C66.4505234,115.533855 66.9296853,115.718749 67.3671875,115.9375 C67.8046897,116.156251 68.180988,116.415363 68.4960938,116.714844 C68.8111995,117.014324 69.0559887,117.355467 69.2304688,117.738281 C69.4049488,118.121096 69.4921875,118.546873 69.4921875,119.015625 C69.4921875,119.515628 69.3919281,119.959633 69.1914062,120.347656 C68.9908844,120.735679 68.7135434,121.063801 68.359375,121.332031 C68.0052066,121.600262 67.5833358,121.803385 67.09375,121.941406 C66.6041642,122.079428 66.0703154,122.148438 65.4921875,122.148438 C65.1328107,122.148438 64.7747414,122.115886 64.4179688,122.050781 C64.0611961,121.985677 63.7200537,121.885417 63.3945312,121.75 C63.0690088,121.614583 62.7656264,121.445314 62.484375,121.242188 C62.2031236,121.039061 61.9596364,120.802085 61.7539062,120.53125 C61.5481761,120.260415 61.3867193,119.953127 61.2695312,119.609375 C61.1523432,119.265623 61.09375,118.885419 61.09375,118.46875 L63.25,118.46875 C63.2604167,118.812502 63.320312,119.10677 63.4296875,119.351562 C63.539063,119.596355 63.6914053,119.796874 63.8867188,119.953125 C64.0820322,120.109376 64.3164049,120.223958 64.5898438,120.296875 C64.8632826,120.369792 65.1640609,120.40625 65.4921875,120.40625 C65.7838556,120.40625 66.0429676,120.372396 66.2695312,120.304688 C66.4960949,120.236979 66.6874992,120.14323 66.84375,120.023438 C67.0000008,119.903645 67.1197912,119.759115 67.203125,119.589844 C67.2864588,119.420572 67.328125,119.234376 67.328125,119.03125 Z M71.5078125,110.625 L78.0859375,110.625 L78.0859375,112.398438 L75.8671875,112.398438 L75.8671875,120.234375 L78.0859375,120.234375 L78.0859375,122 L71.5078125,122 L71.5078125,120.234375 L73.671875,120.234375 L73.671875,112.398438 L71.5078125,112.398438 L71.5078125,110.625 Z M88.4453125,120.671875 C88.3046868,120.843751 88.1119804,121.018228 87.8671875,121.195312 C87.6223946,121.372397 87.3320329,121.532551 86.9960938,121.675781 C86.6601546,121.819011 86.2838562,121.934895 85.8671875,122.023438 C85.4505188,122.11198 85.0026066,122.15625 84.5234375,122.15625 C83.8776009,122.15625 83.2942734,122.041668 82.7734375,121.8125 C82.2526016,121.583332 81.8072935,121.252606 81.4375,120.820312 C81.0677065,120.388019 80.7825531,119.858076 80.5820312,119.230469 C80.3815094,118.602861 80.28125,117.890629 80.28125,117.09375 L80.28125,115.546875 C80.28125,114.749996 80.3867177,114.037764 80.5976562,113.410156 C80.8085948,112.782549 81.1002586,112.250002 81.4726562,111.8125 C81.8450539,111.374998 82.2825496,111.041668 82.7851562,110.8125 C83.2877629,110.583332 83.8333304,110.46875 84.421875,110.46875 C85.0625032,110.46875 85.6210914,110.549478 86.0976562,110.710938 C86.5742211,110.872397 86.9765609,111.105467 87.3046875,111.410156 C87.6328141,111.714845 87.889322,112.085935 88.0742188,112.523438 C88.2591155,112.96094 88.380208,113.453122 88.4375,114 L86.296875,114 C86.223958,113.416664 86.0481785,112.977866 85.7695312,112.683594 C85.490884,112.389321 85.0598988,112.242188 84.4765625,112.242188 C84.1953111,112.242188 83.934897,112.313801 83.6953125,112.457031 C83.455728,112.600261 83.2473967,112.809894 83.0703125,113.085938 C82.8932283,113.361981 82.7526047,113.704425 82.6484375,114.113281 C82.5442703,114.522137 82.4921875,114.994789 82.4921875,115.53125 L82.4921875,117.09375 C82.4973959,118.156255 82.6744774,118.970049 83.0234375,119.535156 C83.3723976,120.100263 83.9062464,120.385417 84.625,120.390625 C84.7968759,120.390625 84.966145,120.377604 85.1328125,120.351562 C85.29948,120.325521 85.4557284,120.289063 85.6015625,120.242188 C85.7473966,120.195312 85.8763015,120.141927 85.9882812,120.082031 C86.100261,120.022135 86.1848955,119.958334 86.2421875,119.890625 L86.25,117.828125 L84.3671875,117.828125 L84.3671875,116.1875 L88.4375,116.1875 L88.4453125,120.671875 Z M97.7265625,122 L95.5390625,122 L92.375,114.664062 L92.375,122 L90.1640625,122 L90.1640625,110.625 L92.375,110.625 L95.515625,117.929688 L95.5234375,110.625 L97.7265625,110.625 L97.7265625,122 Z" id="UI/UX-DESIGN" fill="#FFFFFF"></path>
            </g>
        </g>
    </g>
</svg>