<?xml version="1.0" encoding="UTF-8"?>
<svg width="150px" height="150px" viewBox="0 0 150 150" version="1.1" xmlns="http://www.w3.org/2000/svg" xmlns:xlink="http://www.w3.org/1999/xlink">
    <!-- Generator: Sketch 43 (38999) - http://www.bohemiancoding.com/sketch -->
    <title>ui-tile</title>
    <desc>Created with Sketch.</desc>
    <defs></defs>
    <g id="Page-1" stroke="none" stroke-width="1" fill="none" fill-rule="evenodd">
        <g id="Artboard-2-Copy-3" transform="translate(-94.000000, -692.000000)">
            <g id="skills-section" transform="translate(94.000000, 604.000000)">
                <g id="ui-tile" transform="translate(0.000000, 88.000000)">
                    <rect id="Rectangle-9" fill-opacity="0.0699728261" fill="#FFFFFF" x="0" y="0" width="150" height="150"></rect>
                    <path d="M57.3233663,88.625 L57.3389913,96.328125 C57.3285746,96.8593777 57.2322214,97.3567685 57.0499288,97.8203125 C56.8676363,98.2838565 56.6124305,98.6888004 56.2843038,99.0351562 C55.9561772,99.3815121 55.5655561,99.6549469 55.1124288,99.8554688 C54.6593016,100.055991 54.1619107,100.15625 53.6202413,100.15625 C53.0681553,100.15625 52.5655561,100.057293 52.1124288,99.859375 C51.6593016,99.6614573 51.2712846,99.3893246 50.9483663,99.0429688 C50.6254481,98.6966129 50.3728464,98.2903669 50.1905538,97.8242188 C50.0082613,97.3580706 49.9145122,96.8593777 49.9093038,96.328125 L49.9249288,88.625 L51.2999288,88.625 L51.3311788,96.328125 C51.3363872,96.6666684 51.3897721,96.9921859 51.4913351,97.3046875 C51.5928981,97.6171891 51.73873,97.893228 51.9288351,98.1328125 C52.1189402,98.372397 52.355917,98.5651034 52.6397726,98.7109375 C52.9236282,98.8567716 53.2504478,98.9296875 53.6202413,98.9296875 C53.9900349,98.9296875 54.3155524,98.8580736 54.5968038,98.7148438 C54.8780553,98.5716139 55.11373,98.3789075 55.3038351,98.1367188 C55.4939402,97.89453 55.63847,97.6171891 55.7374288,97.3046875 C55.8363877,96.9921859 55.8910746,96.6666684 55.9014913,96.328125 L55.9249288,88.625 L57.3233663,88.625 Z M60.8533948,88.625 L67.7283948,88.625 L67.7283948,89.8828125 L65.0018323,89.8828125 L65.0018323,98.75 L67.7283948,98.75 L67.7283948,100 L60.8533948,100 L60.8533948,98.75 L63.5174573,98.75 L63.5174573,89.8828125 L60.8533948,89.8828125 L60.8533948,88.625 Z M73.4302983,100.976562 L72.1334233,100.976562 L76.8834233,88.625 L78.1724858,88.625 L73.4302983,100.976562 Z M89.3353267,88.625 L89.3509517,96.328125 C89.340535,96.8593777 89.2441818,97.3567685 89.0618892,97.8203125 C88.8795967,98.2838565 88.6243909,98.6888004 88.2962642,99.0351562 C87.9681376,99.3815121 87.5775165,99.6549469 87.1243892,99.8554688 C86.671262,100.055991 86.1738711,100.15625 85.6322017,100.15625 C85.0801156,100.15625 84.5775165,100.057293 84.1243892,99.859375 C83.671262,99.6614573 83.283245,99.3893246 82.9603267,99.0429688 C82.6374084,98.6966129 82.3848068,98.2903669 82.2025142,97.8242188 C82.0202217,97.3580706 81.9264726,96.8593777 81.9212642,96.328125 L81.9368892,88.625 L83.3118892,88.625 L83.3431392,96.328125 C83.3483476,96.6666684 83.4017325,96.9921859 83.5032955,97.3046875 C83.6048585,97.6171891 83.7506904,97.893228 83.9407955,98.1328125 C84.1309006,98.372397 84.3678774,98.5651034 84.651733,98.7109375 C84.9355886,98.8567716 85.2624082,98.9296875 85.6322017,98.9296875 C86.0019952,98.9296875 86.3275128,98.8580736 86.6087642,98.7148438 C86.8900156,98.5716139 87.1256904,98.3789075 87.3157955,98.1367188 C87.5059006,97.89453 87.6504304,97.6171891 87.7493892,97.3046875 C87.8483481,96.9921859 87.903035,96.6666684 87.9134517,96.328125 L87.9368892,88.625 L89.3353267,88.625 Z M96.3887927,93.0859375 L98.8419177,88.625 L100.545043,88.625 L97.2403552,94.265625 L100.623168,100 L98.9356677,100 L96.4200427,95.453125 L93.8966052,100 L92.1856677,100 L95.5762927,94.265625 L92.2716052,88.625 L93.9669177,88.625 L96.3887927,93.0859375 Z M44.6989771,121 L44.6989771,109.625 L47.3317896,109.625 C48.1234602,109.635417 48.8304844,109.76953 49.4528834,110.027344 C50.0752823,110.285158 50.6013187,110.644529 51.0310084,111.105469 C51.460698,111.566409 51.7888197,112.118486 52.0153834,112.761719 C52.241947,113.404951 52.3578313,114.117184 52.3630396,114.898438 L52.3630396,115.734375 C52.3578313,116.515629 52.241947,117.227861 52.0153834,117.871094 C51.7888197,118.514326 51.460698,119.066404 51.0310084,119.527344 C50.6013187,119.988284 50.0752823,120.347655 49.4528834,120.605469 C48.8304844,120.863283 48.1234602,120.994792 47.3317896,121 L44.6989771,121 Z M46.1677271,110.8125 L46.1677271,119.820312 L47.3317896,119.820312 C47.946376,119.815104 48.4776207,119.707032 48.9255396,119.496094 C49.3734585,119.285155 49.7445486,118.997398 50.0388209,118.632812 C50.3330932,118.268227 50.551841,117.838544 50.6950709,117.34375 C50.8383007,116.848956 50.9125188,116.312503 50.9177271,115.734375 L50.9177271,114.882812 C50.9125188,114.304685 50.8369987,113.769534 50.6911646,113.277344 C50.5453306,112.785154 50.3265827,112.358075 50.0349146,111.996094 C49.7432465,111.634113 49.3734585,111.348959 48.9255396,111.140625 C48.4776207,110.932291 47.946376,110.822917 47.3317896,110.8125 L46.1677271,110.8125 Z M61.7758806,115.742188 L57.0258806,115.742188 L57.0258806,119.773438 L62.5649431,119.773438 L62.5649431,121 L55.5805681,121 L55.5805681,109.625 L62.4946306,109.625 L62.4946306,110.859375 L57.0258806,110.859375 L57.0258806,114.515625 L61.7758806,114.515625 L61.7758806,115.742188 Z M72.1418465,118.125 C72.1418465,117.77604 72.0624202,117.481772 71.9035653,117.242188 C71.7447103,117.002603 71.5402853,116.800782 71.290284,116.636719 C71.0402828,116.472655 70.765546,116.335938 70.4660653,116.226562 C70.1665846,116.117187 69.8788271,116.01823 69.602784,115.929688 C69.2017404,115.799479 68.7941924,115.64323 68.3801278,115.460938 C67.9660632,115.278645 67.5884628,115.054689 67.2473153,114.789062 C66.9061677,114.523436 66.6275247,114.209637 66.4113778,113.847656 C66.1952309,113.485675 66.087159,113.059898 66.087159,112.570312 C66.087159,112.080727 66.1952309,111.643231 66.4113778,111.257812 C66.6275247,110.872394 66.910074,110.546876 67.259034,110.28125 C67.6079941,110.015624 68.0038235,109.813803 68.446534,109.675781 C68.8892446,109.53776 69.3345526,109.46875 69.7824715,109.46875 C70.2772657,109.46875 70.7538234,109.55078 71.212159,109.714844 C71.6704947,109.878907 72.0767406,110.109374 72.430909,110.40625 C72.7850775,110.703126 73.0689288,111.062498 73.2824715,111.484375 C73.4960143,111.906252 73.6079923,112.377602 73.618409,112.898438 L72.134034,112.898438 C72.0923672,112.570311 72.0116388,112.272137 71.8918465,112.003906 C71.7720543,111.735676 71.6132017,111.505209 71.415284,111.3125 C71.2173664,111.119791 70.9816917,110.970053 70.7082528,110.863281 C70.4348139,110.75651 70.1262233,110.703125 69.7824715,110.703125 C69.5064285,110.703125 69.2368999,110.742187 68.9738778,110.820312 C68.7108556,110.898438 68.476483,111.015624 68.2707528,111.171875 C68.0650226,111.328126 67.9009617,111.520832 67.7785653,111.75 C67.6561688,111.979168 67.5949715,112.24479 67.5949715,112.546875 C67.6001799,112.875002 67.6835124,113.152343 67.8449715,113.378906 C68.0064307,113.60547 68.2108557,113.796874 68.4582528,113.953125 C68.7056499,114.109376 68.9738763,114.239583 69.2629403,114.34375 C69.5520042,114.447917 69.8241369,114.539062 70.0793465,114.617188 C70.3605979,114.70573 70.6444493,114.805989 70.930909,114.917969 C71.2173688,115.029948 71.4934077,115.158853 71.759034,115.304688 C72.0246604,115.450522 72.2720537,115.614582 72.5012215,115.796875 C72.7303894,115.979168 72.9309082,116.186197 73.102784,116.417969 C73.2746599,116.649741 73.4087731,116.904947 73.5051278,117.183594 C73.6014824,117.462241 73.649659,117.770832 73.649659,118.109375 C73.649659,118.619794 73.5363789,119.065102 73.3098153,119.445312 C73.0832517,119.825523 72.7902858,120.141926 72.430909,120.394531 C72.0715322,120.647137 71.6652863,120.837239 71.212159,120.964844 C70.7590318,121.092449 70.3059113,121.15625 69.852784,121.15625 C69.3475732,121.15625 68.8527865,121.078126 68.368409,120.921875 C67.8840316,120.765624 67.4504422,120.540366 67.0676278,120.246094 C66.6848134,119.951821 66.3736186,119.59245 66.134034,119.167969 C65.8944495,118.743487 65.7668466,118.260419 65.7512215,117.71875 L67.227784,117.71875 C67.2746593,118.072918 67.3710125,118.386717 67.5168465,118.660156 C67.6626806,118.933595 67.8501787,119.165364 68.0793465,119.355469 C68.3085144,119.545574 68.5728346,119.688802 68.8723153,119.785156 C69.171796,119.881511 69.4986156,119.929688 69.852784,119.929688 C70.1340354,119.929688 70.4113764,119.894532 70.6848153,119.824219 C70.9582542,119.753906 71.2017413,119.644532 71.415284,119.496094 C71.6288268,119.347656 71.8033042,119.160157 71.9387215,118.933594 C72.0741389,118.70703 72.1418465,118.437502 72.1418465,118.125 Z M76.859375,109.625 L83.734375,109.625 L83.734375,110.882812 L81.0078125,110.882812 L81.0078125,119.75 L83.734375,119.75 L83.734375,121 L76.859375,121 L76.859375,119.75 L79.5234375,119.75 L79.5234375,110.882812 L76.859375,110.882812 L76.859375,109.625 Z M94.8894035,119.507812 C94.4102344,120.070315 93.8607607,120.486978 93.240966,120.757812 C92.6211712,121.028647 91.9414905,121.161458 91.2019035,121.15625 C90.7331511,121.151042 90.3021658,121.079428 89.9089347,120.941406 C89.5157036,120.803385 89.1628425,120.613282 88.850341,120.371094 C88.5378394,120.128905 88.2644046,119.843752 88.0300285,119.515625 C87.7956523,119.187498 87.5990397,118.832033 87.4401847,118.449219 C87.2813298,118.066404 87.1615393,117.665367 87.0808097,117.246094 C87.0000801,116.826821 86.9571118,116.403648 86.9519035,115.976562 L86.9519035,114.65625 C86.9571118,114.234373 86.9948719,113.813804 87.0651847,113.394531 C87.1354976,112.975258 87.2435694,112.572919 87.3894035,112.1875 C87.5352375,111.802081 87.7175274,111.444012 87.9362785,111.113281 C88.1550296,110.78255 88.4167457,110.496095 88.7214347,110.253906 C89.0261237,110.011718 89.3711724,109.820313 89.756591,109.679688 C90.1420096,109.539062 90.5742969,109.46875 91.053466,109.46875 C91.5847186,109.46875 92.0742971,109.55078 92.522216,109.714844 C92.9701349,109.878907 93.360756,110.11328 93.694091,110.417969 C94.027426,110.722658 94.2956524,111.089842 94.4987785,111.519531 C94.7019045,111.949221 94.8269032,112.429685 94.8737785,112.960938 L93.444091,112.960938 C93.386799,112.632811 93.2982582,112.329428 93.178466,112.050781 C93.0586737,111.772134 92.9011232,111.533855 92.7058097,111.335938 C92.5104962,111.13802 92.2774256,110.983073 92.006591,110.871094 C91.7357563,110.759114 91.4206553,110.703125 91.0612785,110.703125 C90.7175267,110.703125 90.4128423,110.761718 90.147216,110.878906 C89.8815896,110.996094 89.6498211,111.153645 89.4519035,111.351562 C89.2539858,111.54948 89.0899249,111.779947 88.959716,112.042969 C88.829507,112.305991 88.7227372,112.583332 88.6394035,112.875 C88.5560697,113.166668 88.4961745,113.46354 88.459716,113.765625 C88.4232574,114.06771 88.4050285,114.359374 88.4050285,114.640625 L88.4050285,115.976562 C88.4102368,116.263022 88.4349762,116.558592 88.4792472,116.863281 C88.5235183,117.16797 88.592528,117.466144 88.6862785,117.757812 C88.7800289,118.049481 88.8998194,118.32552 89.0456535,118.585938 C89.1914875,118.846355 89.367267,119.07552 89.5729972,119.273438 C89.7787274,119.471355 90.0170063,119.628906 90.287841,119.746094 C90.5586756,119.863282 90.8659642,119.924479 91.209716,119.929688 C91.4076336,119.934896 91.6146628,119.927083 91.8308097,119.90625 C92.0469566,119.885417 92.2565899,119.84375 92.459716,119.78125 C92.662842,119.71875 92.8529442,119.634115 93.0300285,119.527344 C93.2071127,119.420572 93.3555487,119.281251 93.475341,119.109375 L93.490966,116.554688 L91.178466,116.554688 L91.178466,115.335938 L94.865966,115.335938 L94.8894035,119.507812 Z M105.325682,121 L103.856932,121 L99.4428694,112.5 L99.4194319,121 L97.9584944,121 L97.9584944,109.625 L99.4272444,109.625 L103.841307,118.109375 L103.864744,109.625 L105.325682,109.625 L105.325682,121 Z" id="UI/UX-Design" fill="#FFF399"></path>
                    <g id="Page-1" transform="translate(38.000000, 22.000000)" fill="#FFF399">
                        <path d="M71.5831395,0.402034884 L0.245056395,0.402034884 L0.245056395,48.0165698 L74.7549419,48.0165698 L74.7549419,0.402034884 L71.5831395,0.402034884 Z M64.3542733,2.34383721 C65.3557849,2.34383721 66.1665698,3.15461337 66.1665698,4.15613372 C66.1665698,5.15765407 65.3557936,5.96843023 64.3542733,5.96843023 C63.3527616,5.96843023 62.5419767,5.15765407 62.5419767,4.15613372 C62.5419767,3.15461337 63.3527529,2.34383721 64.3542733,2.34383721 Z M9.57898256,2.34383721 L58.81125,2.34383721 L58.81125,5.96843023 L9.57898256,5.96843023 L9.57898256,2.34383721 Z M5.22872093,2.34383721 C6.23023256,2.34383721 7.04101744,3.15461337 7.04101744,4.15613372 C7.04101744,5.15765407 6.23024128,5.96843023 5.22872093,5.96843023 C4.2272093,5.96843023 3.41642442,5.15765407 3.41642442,4.15613372 C3.41642442,3.15461337 4.22720058,2.34383721 5.22872093,2.34383721 Z M71.5827907,44.8444186 L3.41651163,44.8444186 L3.41651163,7.84151163 L71.5827907,7.84151163 L71.5827907,44.8444186 Z M69.7704942,5.96825581 C68.7689826,5.96825581 67.9581977,5.15747965 67.9581977,4.1559593 C67.9581977,3.15443895 68.7689738,2.34366279 69.7704942,2.34366279 C70.7720058,2.34366279 71.5827907,3.15443895 71.5827907,4.1559593 C71.5827907,5.15747965 70.7720145,5.96825581 69.7704942,5.96825581 Z" id="Fill-1"></path>
                        <polygon id="Fill-2" points="25.3386628 35.4488372 24.0543314 40.2419477 28.8474419 38.9576163"></polygon>
                        <polygon id="Fill-3" points="29.5866279 38.2186047 30.0124535 38.6478401 36.5156512 36.9036541 27.392686 27.780689 25.6519012 34.2838866 26.0777267 34.7097122"></polygon>
                        <polygon id="Fill-4" points="41.8229651 13.3473837 44.1360174 15.660436 30.584564 29.2223547 28.2715116 26.9093023"></polygon>
                        <polygon id="Fill-5" points="47.5430233 19.0700581 33.984593 32.6284884 31.6715407 30.315436 45.2299709 16.7570058"></polygon>
                        <polygon id="Fill-6" points="50.9494186 22.4738372 37.3909884 36.0322674 35.077936 33.7192151 48.6363663 20.1607849"></polygon>
                    </g>
                </g>
            </g>
        </g>
    </g>
</svg>