<?xml version="1.0" encoding="UTF-8"?>
<svg width="150px" height="150px" viewBox="0 0 150 150" version="1.1" xmlns="http://www.w3.org/2000/svg" xmlns:xlink="http://www.w3.org/1999/xlink">
    <!-- Generator: Sketch 43 (38999) - http://www.bohemiancoding.com/sketch -->
    <title>user-research-tile</title>
    <desc>Created with Sketch.</desc>
    <defs></defs>
    <g id="Page-1" stroke="none" stroke-width="1" fill="none" fill-rule="evenodd">
        <g id="Artboard-2-Copy-3" transform="translate(-282.000000, -692.000000)">
            <g id="skills-section" transform="translate(94.000000, 604.000000)">
                <g id="user-research-tile" transform="translate(188.000000, 88.000000)">
                    <rect id="Rectangle-9-Copy" fill-opacity="0.0699728261" fill="#FFFFFF" x="0" y="0" width="150" height="150"></rect>
                    <path d="M62.6586931,88.625 L62.6743181,96.328125 C62.6639014,96.8593777 62.5675482,97.3567685 62.3852556,97.8203125 C62.202963,98.2838565 61.9477572,98.6888004 61.6196306,99.0351562 C61.2915039,99.3815121 60.9008828,99.6549469 60.4477556,99.8554688 C59.9946283,100.055991 59.4972375,100.15625 58.9555681,100.15625 C58.403482,100.15625 57.9008828,100.057293 57.4477556,99.859375 C56.9946283,99.6614573 56.6066114,99.3893246 56.2836931,99.0429688 C55.9607748,98.6966129 55.7081732,98.2903669 55.5258806,97.8242188 C55.343588,97.3580706 55.2498389,96.8593777 55.2446306,96.328125 L55.2602556,88.625 L56.6352556,88.625 L56.6665056,96.328125 C56.6717139,96.6666684 56.7250988,96.9921859 56.8266618,97.3046875 C56.9282248,97.6171891 57.0740567,97.893228 57.2641618,98.1328125 C57.4542669,98.372397 57.6912437,98.5651034 57.9750993,98.7109375 C58.2589549,98.8567716 58.5857746,98.9296875 58.9555681,98.9296875 C59.3253616,98.9296875 59.6508792,98.8580736 59.9321306,98.7148438 C60.213382,98.5716139 60.4490567,98.3789075 60.6391618,98.1367188 C60.8292669,97.89453 60.9737967,97.6171891 61.0727556,97.3046875 C61.1717144,96.9921859 61.2264014,96.6666684 61.2368181,96.328125 L61.2602556,88.625 L62.6586931,88.625 Z M72.1418465,97.125 C72.1418465,96.7760399 72.0624202,96.481772 71.9035653,96.2421875 C71.7447103,96.002603 71.5402853,95.8007821 71.290284,95.6367188 C71.0402828,95.4726554 70.765546,95.335938 70.4660653,95.2265625 C70.1665846,95.117187 69.8788271,95.0182296 69.602784,94.9296875 C69.2017404,94.7994785 68.7941924,94.6432301 68.3801278,94.4609375 C67.9660632,94.2786449 67.5884628,94.0546888 67.2473153,93.7890625 C66.9061677,93.5234362 66.6275247,93.2096372 66.4113778,92.8476562 C66.1952309,92.4856753 66.087159,92.0598983 66.087159,91.5703125 C66.087159,91.0807267 66.1952309,90.6432311 66.4113778,90.2578125 C66.6275247,89.8723939 66.910074,89.5468763 67.259034,89.28125 C67.6079941,89.0156237 68.0038235,88.8138028 68.446534,88.6757812 C68.8892446,88.5377597 69.3345526,88.46875 69.7824715,88.46875 C70.2772657,88.46875 70.7538234,88.5507804 71.212159,88.7148438 C71.6704947,88.8789071 72.0767406,89.1093735 72.430909,89.40625 C72.7850775,89.7031265 73.0689288,90.0624979 73.2824715,90.484375 C73.4960143,90.9062521 73.6079923,91.3776016 73.618409,91.8984375 L72.134034,91.8984375 C72.0923672,91.5703109 72.0116388,91.2721368 71.8918465,91.0039062 C71.7720543,90.7356757 71.6132017,90.5052093 71.415284,90.3125 C71.2173664,90.1197907 70.9816917,89.9700526 70.7082528,89.8632812 C70.4348139,89.7565099 70.1262233,89.703125 69.7824715,89.703125 C69.5064285,89.703125 69.2368999,89.7421871 68.9738778,89.8203125 C68.7108556,89.8984379 68.476483,90.0156242 68.2707528,90.171875 C68.0650226,90.3281258 67.9009617,90.5208322 67.7785653,90.75 C67.6561688,90.9791678 67.5949715,91.2447902 67.5949715,91.546875 C67.6001799,91.8750016 67.6835124,92.1523426 67.8449715,92.3789062 C68.0064307,92.6054699 68.2108557,92.7968742 68.4582528,92.953125 C68.7056499,93.1093758 68.9738763,93.2395828 69.2629403,93.34375 C69.5520042,93.4479172 69.8241369,93.5390621 70.0793465,93.6171875 C70.3605979,93.7057296 70.6444493,93.805989 70.930909,93.9179688 C71.2173688,94.0299485 71.4934077,94.1588534 71.759034,94.3046875 C72.0246604,94.4505216 72.2720537,94.6145824 72.5012215,94.796875 C72.7303894,94.9791676 72.9309082,95.1861968 73.102784,95.4179688 C73.2746599,95.6497407 73.4087731,95.9049465 73.5051278,96.1835938 C73.6014824,96.462241 73.649659,96.7708316 73.649659,97.109375 C73.649659,97.6197942 73.5363789,98.0651023 73.3098153,98.4453125 C73.0832517,98.8255227 72.7902858,99.1419258 72.430909,99.3945312 C72.0715322,99.6471367 71.6652863,99.8372389 71.212159,99.9648438 C70.7590318,100.092449 70.3059113,100.15625 69.852784,100.15625 C69.3475732,100.15625 68.8527865,100.078126 68.368409,99.921875 C67.8840316,99.7656242 67.4504422,99.5403661 67.0676278,99.2460938 C66.6848134,98.9518214 66.3736186,98.59245 66.134034,98.1679688 C65.8944495,97.7434875 65.7668466,97.2604194 65.7512215,96.71875 L67.227784,96.71875 C67.2746593,97.0729184 67.3710125,97.3867174 67.5168465,97.6601562 C67.6626806,97.9335951 67.8501787,98.1653636 68.0793465,98.3554688 C68.3085144,98.5455739 68.5728346,98.6888016 68.8723153,98.7851562 C69.171796,98.8815109 69.4986156,98.9296875 69.852784,98.9296875 C70.1340354,98.9296875 70.4113764,98.8945316 70.6848153,98.8242188 C70.9582542,98.7539059 71.2017413,98.644532 71.415284,98.4960938 C71.6288268,98.3476555 71.8033042,98.1601574 71.9387215,97.9335938 C72.0741389,97.7070301 72.1418465,97.4375016 72.1418465,97.125 Z M83.1171875,94.7421875 L78.3671875,94.7421875 L78.3671875,98.7734375 L83.90625,98.7734375 L83.90625,100 L76.921875,100 L76.921875,88.625 L83.8359375,88.625 L83.8359375,89.859375 L78.3671875,89.859375 L78.3671875,93.515625 L83.1171875,93.515625 L83.1171875,94.7421875 Z M91.2956535,95.359375 L89.022216,95.359375 L89.022216,100 L87.584716,100 L87.584716,88.625 L90.9206535,88.625 C91.4519061,88.6354167 91.9519011,88.7109368 92.4206535,88.8515625 C92.8894058,88.9921882 93.299558,89.2031236 93.6511222,89.484375 C94.0026865,89.7656264 94.2787254,90.1184875 94.4792472,90.5429688 C94.679769,90.96745 94.7800285,91.466143 94.7800285,92.0390625 C94.7800285,92.408856 94.7266436,92.7473943 94.6198722,93.0546875 C94.5131008,93.3619807 94.3659669,93.6406238 94.178466,93.890625 C93.990965,94.1406262 93.7670089,94.3619782 93.506591,94.5546875 C93.246173,94.7473968 92.9597175,94.9114577 92.647216,95.046875 L95.0612785,99.90625 L95.053466,100 L93.5300285,100 L91.2956535,95.359375 Z M89.022216,94.171875 L90.959716,94.171875 C91.2826342,94.1666666 91.5873187,94.1158859 91.8737785,94.0195312 C92.1602382,93.9231766 92.4115378,93.7838551 92.6276847,93.6015625 C92.8438316,93.4192699 93.0144028,93.1966159 93.1394035,92.9335938 C93.2644041,92.6705716 93.3269035,92.3671892 93.3269035,92.0234375 C93.3269035,91.6588523 93.2670082,91.3398451 93.147216,91.0664062 C93.0274237,90.7929674 92.8607587,90.563803 92.647216,90.3789062 C92.4336732,90.1940095 92.1797695,90.054688 91.8854972,89.9609375 C91.5912249,89.867187 91.2696135,89.8177084 90.9206535,89.8125 L89.022216,89.8125 L89.022216,94.171875 Z M37.9423862,116.359375 L35.6689487,116.359375 L35.6689487,121 L34.2314487,121 L34.2314487,109.625 L37.5673862,109.625 C38.0986388,109.635417 38.5986338,109.710937 39.0673862,109.851562 C39.5361385,109.992188 39.9462906,110.203124 40.2978549,110.484375 C40.6494192,110.765626 40.9254581,111.118487 41.1259799,111.542969 C41.3265017,111.96745 41.4267612,112.466143 41.4267612,113.039062 C41.4267612,113.408856 41.3733763,113.747394 41.2666049,114.054688 C41.1598335,114.361981 41.0126996,114.640624 40.8251987,114.890625 C40.6376977,115.140626 40.4137416,115.361978 40.1533237,115.554688 C39.8929057,115.747397 39.6064502,115.911458 39.2939487,116.046875 L41.7080112,120.90625 L41.7001987,121 L40.1767612,121 L37.9423862,116.359375 Z M35.6689487,115.171875 L37.6064487,115.171875 C37.9293669,115.166667 38.2340514,115.115886 38.5205112,115.019531 C38.8069709,114.923177 39.0582705,114.783855 39.2744174,114.601562 C39.4905643,114.41927 39.6611355,114.196616 39.7861362,113.933594 C39.9111368,113.670572 39.9736362,113.367189 39.9736362,113.023438 C39.9736362,112.658852 39.9137409,112.339845 39.7939487,112.066406 C39.6741564,111.792967 39.5074914,111.563803 39.2939487,111.378906 C39.0804059,111.194009 38.8265022,111.054688 38.5322299,110.960938 C38.2379576,110.867187 37.9163462,110.817708 37.5673862,110.8125 L35.6689487,110.8125 L35.6689487,115.171875 Z M51.1052271,115.742188 L46.3552271,115.742188 L46.3552271,119.773438 L51.8942896,119.773438 L51.8942896,121 L44.9099146,121 L44.9099146,109.625 L51.8239771,109.625 L51.8239771,110.859375 L46.3552271,110.859375 L46.3552271,114.515625 L51.1052271,114.515625 L51.1052271,115.742188 Z M61.4711931,118.125 C61.4711931,117.77604 61.3917668,117.481772 61.2329118,117.242188 C61.0740569,117.002603 60.8696318,116.800782 60.6196306,116.636719 C60.3696293,116.472655 60.0948925,116.335938 59.7954118,116.226562 C59.4959312,116.117187 59.2081736,116.01823 58.9321306,115.929688 C58.5310869,115.799479 58.1235389,115.64323 57.7094743,115.460938 C57.2954098,115.278645 56.9178094,115.054689 56.5766618,114.789062 C56.2355143,114.523436 55.9568712,114.209637 55.7407243,113.847656 C55.5245774,113.485675 55.4165056,113.059898 55.4165056,112.570312 C55.4165056,112.080727 55.5245774,111.643231 55.7407243,111.257812 C55.9568712,110.872394 56.2394205,110.546876 56.5883806,110.28125 C56.9373407,110.015624 57.33317,109.813803 57.7758806,109.675781 C58.2185911,109.53776 58.6638992,109.46875 59.1118181,109.46875 C59.6066122,109.46875 60.08317,109.55078 60.5415056,109.714844 C60.9998412,109.878907 61.4060871,110.109374 61.7602556,110.40625 C62.114424,110.703126 62.3982753,111.062498 62.6118181,111.484375 C62.8253608,111.906252 62.9373389,112.377602 62.9477556,112.898438 L61.4633806,112.898438 C61.4217137,112.570311 61.3409853,112.272137 61.2211931,112.003906 C61.1014008,111.735676 60.9425482,111.505209 60.7446306,111.3125 C60.5467129,111.119791 60.3110382,110.970053 60.0375993,110.863281 C59.7641605,110.75651 59.4555698,110.703125 59.1118181,110.703125 C58.835775,110.703125 58.5662465,110.742187 58.3032243,110.820312 C58.0402022,110.898438 57.8058295,111.015624 57.6000993,111.171875 C57.3943691,111.328126 57.2303083,111.520832 57.1079118,111.75 C56.9855154,111.979168 56.9243181,112.24479 56.9243181,112.546875 C56.9295264,112.875002 57.0128589,113.152343 57.1743181,113.378906 C57.3357772,113.60547 57.5402023,113.796874 57.7875993,113.953125 C58.0349964,114.109376 58.3032229,114.239583 58.5922868,114.34375 C58.8813508,114.447917 59.1534835,114.539062 59.4086931,114.617188 C59.6899445,114.70573 59.9737958,114.805989 60.2602556,114.917969 C60.5467153,115.029948 60.8227542,115.158853 61.0883806,115.304688 C61.3540069,115.450522 61.6014003,115.614582 61.8305681,115.796875 C62.0597359,115.979168 62.2602547,116.186197 62.4321306,116.417969 C62.6040064,116.649741 62.7381197,116.904947 62.8344743,117.183594 C62.930829,117.462241 62.9790056,117.770832 62.9790056,118.109375 C62.9790056,118.619794 62.8657255,119.065102 62.6391618,119.445312 C62.4125982,119.825523 62.1196324,120.141926 61.7602556,120.394531 C61.4008788,120.647137 60.9946328,120.837239 60.5415056,120.964844 C60.0883783,121.092449 59.6352578,121.15625 59.1821306,121.15625 C58.6769197,121.15625 58.182133,121.078126 57.6977556,120.921875 C57.2133782,120.765624 56.7797887,120.540366 56.3969743,120.246094 C56.0141599,119.951821 55.7029651,119.59245 55.4633806,119.167969 C55.223796,118.743487 55.0961932,118.260419 55.0805681,117.71875 L56.5571306,117.71875 C56.6040058,118.072918 56.700359,118.386717 56.8461931,118.660156 C56.9920271,118.933595 57.1795253,119.165364 57.4086931,119.355469 C57.6378609,119.545574 57.9021812,119.688802 58.2016618,119.785156 C58.5011425,119.881511 58.8279621,119.929688 59.1821306,119.929688 C59.463382,119.929688 59.740723,119.894532 60.0141618,119.824219 C60.2876007,119.753906 60.5310878,119.644532 60.7446306,119.496094 C60.9581733,119.347656 61.1326507,119.160157 61.2680681,118.933594 C61.4034854,118.70703 61.4711931,118.437502 61.4711931,118.125 Z M72.446534,115.742188 L67.696534,115.742188 L67.696534,119.773438 L73.2355965,119.773438 L73.2355965,121 L66.2512215,121 L66.2512215,109.625 L73.165284,109.625 L73.165284,110.859375 L67.696534,110.859375 L67.696534,114.515625 L72.446534,114.515625 L72.446534,115.742188 Z M82.2890625,118.054688 L78.4921875,118.054688 L77.578125,121 L76.1328125,121 L79.8046875,109.625 L81.015625,109.625 L84.625,121 L83.1875,121 L82.2890625,118.054688 Z M78.8828125,116.796875 L81.90625,116.796875 L80.40625,111.859375 L78.8828125,116.796875 Z M91.2956535,116.359375 L89.022216,116.359375 L89.022216,121 L87.584716,121 L87.584716,109.625 L90.9206535,109.625 C91.4519061,109.635417 91.9519011,109.710937 92.4206535,109.851562 C92.8894058,109.992188 93.299558,110.203124 93.6511222,110.484375 C94.0026865,110.765626 94.2787254,111.118487 94.4792472,111.542969 C94.679769,111.96745 94.7800285,112.466143 94.7800285,113.039062 C94.7800285,113.408856 94.7266436,113.747394 94.6198722,114.054688 C94.5131008,114.361981 94.3659669,114.640624 94.178466,114.890625 C93.990965,115.140626 93.7670089,115.361978 93.506591,115.554688 C93.246173,115.747397 92.9597175,115.911458 92.647216,116.046875 L95.0612785,120.90625 L95.053466,121 L93.5300285,121 L91.2956535,116.359375 Z M89.022216,115.171875 L90.959716,115.171875 C91.2826342,115.166667 91.5873187,115.115886 91.8737785,115.019531 C92.1602382,114.923177 92.4115378,114.783855 92.6276847,114.601562 C92.8438316,114.41927 93.0144028,114.196616 93.1394035,113.933594 C93.2644041,113.670572 93.3269035,113.367189 93.3269035,113.023438 C93.3269035,112.658852 93.2670082,112.339845 93.147216,112.066406 C93.0274237,111.792967 92.8607587,111.563803 92.647216,111.378906 C92.4336732,111.194009 92.1797695,111.054688 91.8854972,110.960938 C91.5912249,110.867187 91.2696135,110.817708 90.9206535,110.8125 L89.022216,110.8125 L89.022216,115.171875 Z M105.567869,117.578125 C105.500161,118.104169 105.364745,118.587237 105.161619,119.027344 C104.958493,119.46745 104.694173,119.845051 104.368651,120.160156 C104.043128,120.475262 103.657715,120.720051 103.212401,120.894531 C102.767086,121.069011 102.270997,121.15625 101.724119,121.15625 C101.255367,121.15625 100.82959,121.089844 100.446776,120.957031 C100.063961,120.824218 99.7228188,120.640626 99.4233382,120.40625 C99.1238575,120.171874 98.8660476,119.895835 98.6499007,119.578125 C98.4337538,119.260415 98.2540681,118.914064 98.1108382,118.539062 C97.9676083,118.164061 97.8608385,117.770835 97.7905257,117.359375 C97.7202128,116.947915 97.6824528,116.531252 97.6772444,116.109375 L97.6772444,114.523438 C97.6824528,114.10156 97.7202128,113.684898 97.7905257,113.273438 C97.8608385,112.861977 97.9676083,112.468752 98.1108382,112.09375 C98.2540681,111.718748 98.4337538,111.371095 98.6499007,111.050781 C98.8660476,110.730467 99.1238575,110.453126 99.4233382,110.21875 C99.7228188,109.984374 100.062659,109.800782 100.442869,109.667969 C100.82308,109.535156 101.250159,109.46875 101.724119,109.46875 C102.291831,109.46875 102.799638,109.555989 103.247557,109.730469 C103.695476,109.904949 104.080889,110.152342 104.403807,110.472656 C104.726725,110.79297 104.985837,111.177081 105.181151,111.625 C105.376464,112.072919 105.505369,112.567706 105.567869,113.109375 L104.122557,113.109375 C104.075682,112.765623 103.994953,112.445314 103.880369,112.148438 C103.765786,111.851561 103.612141,111.591147 103.419432,111.367188 C103.226723,111.143228 102.991048,110.967449 102.712401,110.839844 C102.433753,110.712239 102.10433,110.648438 101.724119,110.648438 C101.380368,110.648438 101.076985,110.704427 100.813963,110.816406 C100.550941,110.928386 100.324381,111.080728 100.134276,111.273438 C99.9441706,111.466147 99.785318,111.690103 99.6577132,111.945312 C99.5301084,112.200522 99.4272448,112.471353 99.3491194,112.757812 C99.270994,113.044272 99.215005,113.337238 99.1811507,113.636719 C99.1472963,113.936199 99.1303694,114.226561 99.1303694,114.507812 L99.1303694,116.109375 C99.1303694,116.390626 99.1472963,116.680988 99.1811507,116.980469 C99.215005,117.279949 99.270994,117.574217 99.3491194,117.863281 C99.4272448,118.152345 99.5288063,118.424478 99.6538069,118.679688 C99.7788075,118.934897 99.9376601,119.160155 100.130369,119.355469 C100.323079,119.550782 100.549639,119.704427 100.810057,119.816406 C101.070475,119.928386 101.375159,119.984375 101.724119,119.984375 C102.10433,119.984375 102.433753,119.92448 102.712401,119.804688 C102.991048,119.684895 103.226723,119.516928 103.419432,119.300781 C103.612141,119.084634 103.765786,118.829429 103.880369,118.535156 C103.994953,118.240884 104.075682,117.921877 104.122557,117.578125 L105.567869,117.578125 Z M116.004148,121 L114.63696,121 L114.63696,115.742188 L109.972898,115.742188 L109.972898,121 L108.613523,121 L108.613523,109.625 L109.972898,109.625 L109.972898,114.515625 L114.63696,114.515625 L114.63696,109.625 L116.004148,109.625 L116.004148,121 Z" id="USER-RESEARCH" fill="#FFF399"></path>
                    <path d="M75.1819339,22 C67.4204558,22 61.3637102,27.8295449 61.3637102,35.8182237 C61.3637102,39.804054 63.017097,42.6960627 64.5000833,45.0226152 C65.9830696,47.3491677 67.1819096,49.0993548 67.1819096,51.0908518 C67.1819096,51.2953979 67.1535023,51.4203946 66.8409995,51.7272174 C66.5284968,52.0340401 65.9432513,52.406194 65.1591762,52.7954388 C63.5938624,53.5738411 61.2841827,54.3750072 58.9318846,55.4545014 C56.5795866,56.5339956 54.1392883,57.9175634 52.2272825,59.9999697 C50.3152767,62.082376 49,64.920421 49,68.5454501 C49,69.3494526 49.6505692,70 50.4545499,70 L99.9092452,70 C100.713248,70 101.363795,69.3494308 101.363795,68.5454501 C101.363795,64.920421 100.048446,62.082376 98.1365125,59.9999697 C96.2245795,57.9175634 93.7842084,56.5340683 91.4319104,55.4545014 C89.0796124,54.3749345 86.7699326,53.5738411 85.2046188,52.7954388 C84.4205437,52.4062303 83.8353056,52.0340546 83.5227955,51.7272174 C83.2102855,51.4203801 83.1818854,51.2953979 83.1818854,51.0908518 C83.1818854,49.0993548 84.3807254,47.3493859 85.8637117,45.0226152 C87.346698,42.6958445 89.0000848,39.8038358 89.0000848,35.8182237 C89.0000848,27.8298358 82.9432665,22 75.1818612,22 L75.1819339,22 Z M75.1819339,24.9090997 C81.5484259,24.9090997 86.0910579,29.2414765 86.0910579,35.8182237 C86.0910579,39.0170697 84.835345,41.2131491 83.4092315,43.4546105 C81.9831181,45.6960718 80.2728584,47.9915697 80.2728584,51.0909972 C80.2728584,52.1592187 80.7955873,53.1222761 81.4773711,53.7955873 C82.159155,54.4688984 83.0114849,54.9518089 83.931924,55.4092649 C85.7757114,56.3240313 88.0115,57.1109428 90.2046703,58.1138549 C92.3978406,59.116767 94.5030106,60.3269525 96.0001788,61.9547393 C97.2302916,63.2927797 98.0484759,64.9263119 98.3183676,67.0911185 L52.0455001,67.0911185 C52.3153846,64.9263119 53.1335762,63.2927797 54.363689,61.9547393 C55.8608572,60.3268798 57.9659544,59.1166943 60.1591975,58.1138549 C62.3524405,57.1110155 64.5881563,56.324104 66.4319437,55.4092649 C67.3523829,54.9518744 68.2046764,54.4688984 68.8864966,53.7955873 C69.5683169,53.1222761 70.0910094,52.1592187 70.0910094,51.0909972 C70.0910094,47.9915697 68.3807496,45.6960718 66.9546362,43.4546105 C65.5285228,41.2131491 64.2728099,39.0170697 64.2728099,35.8182237 C64.2728099,29.2414765 68.8154419,24.9090997 75.1819339,24.9090997 Z" id="Page-1" fill="#FFF399"></path>
                </g>
            </g>
        </g>
    </g>
</svg>