<?xml version="1.0" encoding="UTF-8"?>
<svg width="700px" height="120px" viewBox="0 0 700 120" version="1.1" xmlns="http://www.w3.org/2000/svg" xmlns:xlink="http://www.w3.org/1999/xlink">
    <!-- Generator: Sketch 43 (38999) - http://www.bohemiancoding.com/sketch -->
    <title>vr-progress</title>
    <desc>Created with Sketch.</desc>
    <defs></defs>
    <g id="Page-1" stroke="none" stroke-width="1" fill="none" fill-rule="evenodd">
        <g id="blah" transform="translate(-171.000000, -65.000000)">
            <g id="vr-progress" transform="translate(171.000000, 65.000000)">
                <rect id="Rectangle" fill="#4E5D4A" x="120" y="0" width="580" height="120"></rect>
                <rect id="Rectangle-2" fill="#6DA667" x="0" y="0" width="120" height="120"></rect>
                <g id="Page-1" transform="translate(19.000000, 22.000000)">
                    <path d="M39.012,40.391 C36.3362,40.391 34.1604,38.1058 34.1604,35.3012 L34.1604,33.8168 L4.0354,33.8168 C5.5784,40.0551 8.8792,44.8948 11.9846,49.6288 C13.3713,51.7421 15.2541,54.3007 15.5901,56.8397 C16.28932,62.1366 15.5237,66.4647 13.301,69.8197 C11.7463,72.1674 10.3362,74.2142 8.8479,76.058 L44.0629,76.058 C42.3285,72.8588 41.7152,67.5853 44.1254,67.5932 C47.6957,67.69476 50.2426,68.55804 53.8051,68.01898 C56.4965,67.60882 58.1567,66.87058 58.6723,64.41348 C59.27777,61.53458 57.68402,61.15178 57.94964,59.72598 C58.32073,57.75718 59.52774,56.78068 60.14494,54.49938 C60.97697,51.39778 59.44572,49.51888 60.76213,48.88608 C62.49653,47.79628 64.00823,47.86658 65.52383,46.38608 C66.62153,45.35878 65.35586,43.00718 63.70353,40.39388 L39.012,40.391 Z" id="Fill-1" fill="#FFFFFF"></path>
                    <path d="M34.16,22.152 C34.16,19.3473 36.3358,17.0622 39.0116,17.0622 L59.6756,17.0622 C58.4686,13.2849 56.5506,9.9997 54.3631,7.5036 C45.8514,-2.1995 23.0821,-1.9925 13.2421,6.54266 C8.8046,10.39036 4.1562,16.24186 3.289,23.63666 L34.16,23.63666 L34.16391,22.15226 L34.16,22.152 Z" id="Fill-2" fill="#FFFFFF"></path>
                    <path d="M79.359,19.609 L39.011,19.609 C37.7415,19.609 36.7063,20.7496 36.7063,22.152 L36.7063,26.1832 L2.9873,26.1832 C1.585,26.1832 0.4443,27.3238 0.4443,28.7262 C0.4443,30.1285 1.5849,31.2692 2.9873,31.2692 L36.7063,31.2692 L36.7063,35.3004 C36.7063,36.7027 37.7415,37.8434 39.011,37.8434 L79.355,37.8434 C80.6245,37.8434 81.6597,36.7028 81.6597,35.3004 L81.66361,22.1524 C81.66361,20.7501 80.62841,19.6094 79.35891,19.6094 L79.359,19.609 Z" id="Fill-3" fill="#424940"></path>
                </g>
                <text id="Now-Studying" font-family="RobotoMono-Light, Roboto Mono" font-size="14" font-weight="300" letter-spacing="0.686000049" fill="#FFFFFF">
                    <tspan x="149" y="33">Now Studying</tspan>
                </text>
                <text id="VR-Design-&amp;-Developm" font-family="RobotoMono-Regular, Roboto Mono" font-size="18" font-weight="normal" letter-spacing="0.882000089" fill="#FFFFFF">
                    <tspan x="149" y="60">VR Design &amp; Development - Unity</tspan>
                </text>
                <g id="progress-bar" transform="translate(147.000000, 69.000000)">
                    <rect id="Rectangle-3" fill="#373E33" x="1" y="8" width="520" height="20"></rect>
                    <rect id="Rectangle-4" fill="#84AD78" x="0" y="8" width="155" height="20"></rect>
                    <g id="Group" transform="translate(491.000000, 0.000000)">
                        <circle id="Oval" fill="#6DA667" cx="17.5" cy="17.5" r="17.5"></circle>
                        <path d="M23.0386551,10.7419741 C23.0963576,10.1616877 23.0963576,9.63909547 23.0963576,9 L11.4839399,9 C11.4839399,9.63909547 11.4839399,10.1616877 11.5416425,10.7419741 L8,10.7419741 L8,11.3222606 C8,16.4904888 14.5618076,20.1486345 16.1295843,20.9608125 L16.1284945,22.9357653 C16.1284945,23.9232556 15.3740107,24.6777394 14.3865204,24.6777394 L13.2248327,24.6777394 L13.2248327,27 L21.3544169,27 L21.3544169,24.6777394 L20.1927292,24.6777394 C19.2052389,24.6777394 18.4507551,23.9232556 18.4507551,22.9357653 L18.4507551,20.9618995 C20.0185318,20.1486067 26.5803394,16.4904609 26.5803394,11.3233476 L26.5803394,10.7430611 L23.0386551,10.7419741 Z M9.21936518,11.9036619 L11.658129,11.9036619 C11.8900289,14.5166231 12.5291161,16.3751005 13.2259057,17.7098707 C11.3674283,16.2585972 9.45125678,14.2259224 9.21936518,11.9036619 Z M21.4131842,17.7098707 C22.1099738,16.3739856 22.7490693,14.5166231 22.9809609,11.9036619 L25.4197247,11.9036619 C25.1290241,14.2259224 23.2128525,16.2585972 21.4131842,17.7098707 Z" id="Page-1" fill="#FFFFFF"></path>
                    </g>
                </g>
                <text id="22%" font-family="Rubik-Regular, Rubik" font-size="14" font-weight="normal" letter-spacing="0.686000049" fill="#FFFFFF">
                    <tspan x="214" y="92">22%</tspan>
                </text>
            </g>
        </g>
    </g>
</svg>